<svg xmlns="http://www.w3.org/2000/svg" xmlns:xlink="http://www.w3.org/1999/xlink" width="361" height="136" version="1.1" viewBox="0 0 361 136"><title>amazon_webservices_logo</title><desc>Created using Figma</desc><g id="Canvas" transform="translate(-658 -1239)"><g id="amazon_webservices_logo"><g id="g10"><g id="g12"><g id="path14"><use fill="#F68D11" transform="matrix(1 -1.22465e-16 -1.22465e-16 -1 737.358 1285.9)" xlink:href="#path0_fill"/></g><g id="path16"><use fill="#F68D11" transform="matrix(1 -1.22465e-16 -1.22465e-16 -1 763.81 1285.9)" xlink:href="#path1_fill"/></g><g id="path18"><use fill="#F68D11" transform="matrix(1 -1.22465e-16 -1.22465e-16 -1 741.637 1250.29)" xlink:href="#path2_fill"/></g><g id="path20"><use fill="#F68D11" transform="matrix(1 -1.22465e-16 -1.22465e-16 -1 790.263 1285.9)" xlink:href="#path0_fill"/></g><g id="path22"><use fill="#F68D11" transform="matrix(1 -1.22465e-16 -1.22465e-16 -1 816.716 1285.9)" xlink:href="#path1_fill"/></g><g id="path24"><use fill="#F68D11" transform="matrix(1 -1.22465e-16 -1.22465e-16 -1 794.542 1250.29)" xlink:href="#path2_fill"/></g><g id="path26"><use fill="#F68D11" transform="matrix(1 -1.22465e-16 -1.22465e-16 -1 658 1330.45)" xlink:href="#path3_fill"/></g><g id="path28"><use fill="#F68D11" transform="matrix(1 -1.22465e-16 -1.22465e-16 -1 684.453 1330.45)" xlink:href="#path4_fill"/></g><g id="path30"><use fill="#F68D11" transform="matrix(1 -1.22465e-16 -1.22465e-16 -1 662.279 1294.84)" xlink:href="#path5_fill"/></g><g id="path32"><use fill="#F68D11" transform="matrix(1 -1.22465e-16 -1.22465e-16 -1 710.905 1330.45)" xlink:href="#path6_fill"/></g><g id="path34"><use fill="#F68D11" transform="matrix(1 -1.22465e-16 -1.22465e-16 -1 737.358 1330.45)" xlink:href="#path7_fill"/></g><g id="path36"><use fill="#F68D11" transform="matrix(1 -1.22465e-16 -1.22465e-16 -1 715.184 1294.84)" xlink:href="#path5_fill"/></g><g id="path38"><use fill="#F68D11" transform="matrix(1 -1.22465e-16 -1.22465e-16 -1 684.453 1375)" xlink:href="#path6_fill"/></g><g id="path40"><use fill="#F68D11" transform="matrix(1 -1.22465e-16 -1.22465e-16 -1 710.905 1375)" xlink:href="#path8_fill"/></g><g id="path42"><use fill="#F68D11" transform="matrix(1 -1.22465e-16 -1.22465e-16 -1 688.732 1339.39)" xlink:href="#path9_fill"/></g><g id="path44"><use fill="#FFF" transform="matrix(1 -1.22465e-16 -1.22465e-16 -1 767.842 1374.78)" xlink:href="#path10_fill"/></g><g id="path46"><use fill="#FFF" transform="matrix(1 -1.22465e-16 -1.22465e-16 -1 800.293 1374.75)" xlink:href="#path11_fill"/></g><g id="path48"><use fill="#FFF" transform="matrix(1 -1.22465e-16 -1.22465e-16 -1 825.932 1374.46)" xlink:href="#path12_fill"/></g><g id="path50"><use fill="#FFF" transform="matrix(1 -1.22465e-16 -1.22465e-16 -1 854.079 1374.74)" xlink:href="#path13_fill"/></g><g id="path52"><use fill="#FFF" transform="matrix(1 -1.22465e-16 -1.22465e-16 -1 877.574 1374.77)" xlink:href="#path14_fill"/></g><g id="path54"><use fill="#FFF" transform="matrix(1 -1.22465e-16 -1.22465e-16 -1 903.214 1374.67)" xlink:href="#path15_fill"/></g><g id="path56"><use fill="#FFF" transform="matrix(1 -1.22465e-16 -1.22465e-16 -1 918.439 1374.65)" xlink:href="#path16_fill"/></g><g id="path58"><use fill="#FFF" transform="matrix(1 -1.22465e-16 -1.22465e-16 -1 942.058 1344.41)" xlink:href="#path17_fill"/></g><g id="path60"><use fill="#FFF" transform="matrix(1 -1.22465e-16 -1.22465e-16 -1 942.544 1374.95)" xlink:href="#path18_fill"/></g><g id="path62"><use fill="#FFF" transform="matrix(1 -1.22465e-16 -1.22465e-16 -1 950.747 1374.7)" xlink:href="#path19_fill"/></g><g id="path64"><use fill="#FFF" transform="matrix(1 -1.22465e-16 -1.22465e-16 -1 973.178 1374.77)" xlink:href="#path20_fill"/></g><g id="path66"><use fill="#FFF" transform="matrix(1 -1.22465e-16 -1.22465e-16 -1 997.299 1374.74)" xlink:href="#path21_fill"/></g><g id="path68"><use fill="#FFF" transform="matrix(1 -1.22465e-16 -1.22465e-16 -1 912.299 1333.84)" xlink:href="#path22_fill"/></g><g id="path70"><use fill="#FFF" transform="matrix(1 -1.22465e-16 -1.22465e-16 -1 812.084 1334.87)" xlink:href="#path23_fill"/></g><g id="path72"><use fill="#FFF" transform="matrix(1 -1.22465e-16 -1.22465e-16 -1 946.499 1335.7)" xlink:href="#path24_fill"/></g><g id="path74"><use fill="#FFF" transform="matrix(1 -1.22465e-16 -1.22465e-16 -1 987.296 1334.87)" xlink:href="#path25_fill"/></g><g id="path76"><use fill="#FFF" transform="matrix(1 -1.22465e-16 -1.22465e-16 -1 870.771 1335.41)" xlink:href="#path26_fill"/></g><g id="path78"><use fill="#FFF" transform="matrix(1 -1.22465e-16 -1.22465e-16 -1 769.566 1335.41)" xlink:href="#path27_fill"/></g></g></g></g></g><defs><path id="path0_fill" d="M 20.9808 0L 0 7.03448L 0 37.5172L 21.0065 31.2644L 20.9808 0Z"/><path id="path1_fill" d="M 0 31.2644L 21.0065 37.5172L 20.9333 7.05559L 0 0L 0 31.2644Z"/><path id="path2_fill" d="M 38.9009 5.21099L 19.3228 11.2896L 0 5.21099L 19.3508 0L 38.9009 5.21099Z"/><path id="path3_fill" d="M 21.0065 31.2644L 0 37.5172L 0 7.03448L 20.9809 0L 21.0065 31.2644Z"/><path id="path4_fill" d="M 0 31.2644L 21.0065 37.5172L 20.9336 7.05496L 0 0L 0 31.2644Z"/><path id="path5_fill" d="M 38.9009 5.21099L 19.3228 11.2896L 0 5.21099L 19.3511 0L 38.9009 5.21099Z"/><path id="path6_fill" d="M 20.9809 0L 0 7.03448L 0 37.5172L 21.0065 31.2644L 20.9809 0Z"/><path id="path7_fill" d="M 0 31.2644L 21.0065 37.5172L 20.9333 7.05496L 0 0L 0 31.2644Z"/><path id="path8_fill" d="M 0 31.2644L 21.0065 37.5172L 20.9336 7.05494L 0 0L 0 31.2644Z"/><path id="path9_fill" d="M 38.9009 5.21107L 19.3228 11.2896L 0 5.21107L 19.3511 0L 38.9009 5.21107Z"/><path id="path10_fill" d="M 30.505 26.7271L 28.9614 26.7216C 28.395 26.7216 27.673 26.3372 27.4956 25.714L 22.8127 9.13992L 18.1812 25.678C 18.0419 26.1964 17.5557 26.7216 16.8944 26.7216L 15.0668 26.7216C 14.4086 26.7216 13.9285 26.1894 13.7955 25.6673L 9.48685 9.30117L 5.03503 25.718C 4.8592 26.3183 4.11931 26.7216 3.53891 26.7216L 1.31767 26.7255C 0.843078 26.7255 0.401942 26.5206 0.165425 26.191C 0.00515299 25.9674 -0.039194 25.714 0.0347176 25.4936L 6.91239 1.03258C 7.0641 0.518122 7.50757 0 8.15644 0L 10.3652 0C 10.962 0 11.4848 0.436908 11.6357 1.0567L 15.8689 17.3508L 20.4756 1.03807C 20.6141 0.538578 21.0599 2.49915e-15 21.7118 2.49915e-15L 23.8848 2.49915e-15C 24.4894 2.49915e-15 24.9982 0.421947 25.1476 1.04021L 31.7677 25.4835C 31.8455 25.7189 31.8004 25.9806 31.6424 26.201C 31.4098 26.5256 30.9741 26.7271 30.505 26.7271Z"/><path id="path11_fill" fill-rule="evenodd" d="M 0 13.3616C 7.96484e-16 19.8654 3.58978 26.866 11.4719 26.866C 19.4302 26.866 22.3065 20.1106 22.3455 13.7875C 22.3478 13.5325 22.2373 13.278 22.0342 13.0731C 21.7915 12.826 21.4476 12.6791 21.1154 12.6791L 5.27417 12.6737C 5.28741 10.9658 5.40564 9.28613 6.20544 7.58228C 7.18964 5.49634 9.33777 4.1001 11.6772 4.02747C 14.1086 4.09949 16.0458 5.48132 17.1086 7.91687C 17.3311 8.42395 18.0041 8.77356 18.5915 8.68103L 20.7793 8.26062C 21.1512 8.17847 21.4655 7.95496 21.6312 7.65881C 21.7674 7.41492 21.7946 7.14282 21.7075 6.89221C 20.0798 2.50879 16.3119 -6.05312e-16 11.3691 0C 4.46271 8.45794e-16 -9.94069e-16 5.24438 0 13.3616ZM 5.48346 16.3057L 17.1522 16.3057C 17.0674 19.6791 15.3137 23.012 11.4804 23.1377C 7.87817 23.0063 5.75189 19.5955 5.48346 16.3057Z"/><path id="path12_fill" fill-rule="evenodd" d="M 11.0471 26.8108L 11.4664 26.8108C 14.4315 26.8108 17.3148 25.1833 18.9899 22.5641C 20.4393 20.3038 21.271 17.0641 21.271 13.6758C 21.271 6.86865 18.1247 -8.60856e-16 11.0953 0L 10.6868 0C 8.01825 3.26807e-16 5.52472 1.38733 3.86908 3.74927L 3.15643 1.47717C 3.0047 1.00208 2.55499 0.490601 1.92328 0.490601L 1.25415 0.486938C 0.597534 0.486938 0.00231934 1.01819 0 1.60291L 0 33.7927C 0.00152588 34.4259 0.667542 34.8994 1.2627 34.8994L 3.54077 34.8994C 4.19818 34.8994 4.79333 34.3718 4.79333 33.7927L 4.79572 23.481C 6.37427 25.7189 8.4306 26.8108 11.0471 26.8108ZM 10.6371 3.87354C 15.9252 4.06494 16.1953 11.5428 16.1953 13.0404C 16.1953 14.6567 15.926 22.7268 10.6199 22.9371C 7.24335 22.7939 4.88208 19.0953 4.79572 15.725L 4.79572 11.3254C 4.90619 9.32373 5.33643 7.70581 6.07324 6.53564C 7.07373 4.98828 8.86475 3.94165 10.6371 3.87354Z"/><path id="path13_fill" d="M 18.0682 14.0408C 16.5869 15.1101 14.806 15.4673 13.022 15.8252L 9.60107 16.4623C 7.14643 16.8678 5.72577 17.5291 5.72577 19.7051C 5.72577 22.0054 8.09872 22.8847 10.1107 22.9393C 12.5677 22.877 14.4154 21.7757 15.3125 19.8388C 15.5257 19.3824 15.9979 19.0753 16.4889 19.0753C 16.5729 19.0753 16.6585 19.0847 16.7394 19.1024L 18.8743 19.5763C 19.2228 19.6535 19.548 19.8935 19.7223 20.2055C 19.8616 20.4532 19.8919 20.7236 19.8087 20.9651C 18.5024 24.788 15.1857 26.8083 10.1682 26.8083C 5.63474 26.7982 0.790025 24.773 0.790025 19.1168C 0.790025 15.2508 3.2081 12.7958 7.98202 11.8188L 11.8114 11.0857C 13.9136 10.6815 16.0633 9.96248 16.0633 7.69488C 16.0633 4.33793 12.1748 3.99567 10.9992 3.97124C 8.36169 4.02834 5.37566 5.21022 4.65055 7.71293C 4.50506 8.26311 3.81573 8.65235 3.21121 8.52596L 0.978305 8.06309C 0.642202 7.99197 0.334885 7.77241 0.155941 7.47597C 0.00578378 7.22897 -0.0370072 6.95236 0.0322364 6.69986C 1.18448 2.54725 5.17493 0.0430503 10.7066 0.000916046L 10.8296 0C 15.77 0 21.0488 2.12531 21.0488 8.08724C 21.0488 10.5141 19.9619 12.684 18.0682 14.0408Z"/><path id="path14_fill" fill-rule="evenodd" d="M 0 13.3604C 7.96454e-16 19.8639 3.59058 26.8647 11.4742 26.8647C 19.4341 26.8647 22.3081 20.1088 22.3447 13.7863C 22.347 13.5298 22.2365 13.2751 22.0327 13.0693C 21.7899 12.824 21.4484 12.6779 21.1185 12.6779L 5.27887 12.674C 5.29053 10.962 5.40955 9.28101 6.21094 7.58105C 7.19122 5.49573 9.33856 4.09973 11.6804 4.02466C 14.1093 4.09973 16.0474 5.48169 17.111 7.91565C 17.363 8.49792 18.078 8.7644 18.5907 8.68079L 20.7816 8.26038C 21.1527 8.17981 21.4678 7.95618 21.6335 7.65979C 21.7705 7.41516 21.7977 7.14258 21.7114 6.8916C 20.0822 2.50903 16.3143 -6.05409e-16 11.3707 0C 4.4635 8.45891e-16 -9.93994e-16 5.24377 0 13.3604ZM 5.48505 16.303L 17.1569 16.303C 17.0682 19.679 15.3122 23.0114 11.4805 23.1335C 7.87823 23.0083 5.75189 19.5958 5.48505 16.303Z"/><path id="path15_fill" d="M 11.6633 26.467C 11.3544 26.5011 11.0572 26.5176 10.7685 26.5176C 8.11005 26.5176 5.95105 25.0655 4.45259 22.2915L 4.45804 24.7208C 4.4557 25.3092 3.87141 25.826 3.20777 25.826L 1.22927 25.826C 0.580401 25.826 0.00778017 25.3071 0.00311207 24.7114L 0 1.11227C 0 0.519955 0.572621 0 1.22616 0L 3.53453 0.000916046C 4.13516 0.000916046 4.81126 0.474458 4.8167 1.11227L 4.81826 13.0098C 4.81826 14.9718 5.00032 16.4498 5.93316 18.1984C 7.2659 20.6892 9.12692 21.911 11.6228 21.9306C 12.2483 21.9351 12.7976 22.4838 12.7976 23.1051L 12.7976 25.3125C 12.7976 25.8902 12.2989 26.3973 11.6633 26.467Z"/><path id="path16_fill" d="M 20.6743 26.9179L 18.8514 26.917C 18.2803 26.917 17.5482 26.5051 17.3708 25.9009L 11.4618 7.24332L 5.42748 25.8822C 5.24931 26.5011 4.51564 26.917 3.94146 26.917L 1.33822 26.9194C 0.860514 26.9194 0.398372 26.7054 0.161855 26.3747C 0.003139 26.1534 -0.04043 25.9024 0.0381498 25.6682L 8.2968 1.05609C 8.45552 0.569106 8.87642 0 9.54241 0L 12.6926 0C 13.2707 0 13.7445 0.395384 13.9615 1.05823L 21.972 25.6603C 22.0521 25.8939 22.0094 26.1457 21.8514 26.3677C 21.6133 26.7014 21.152 26.9179 20.6743 26.9179Z"/><path id="path17_fill" d="M 3.04438 6.13469C 1.36542 6.13469 0 4.7593 0 3.06688C 0 1.37485 1.36542 0 3.04438 0C 4.72412 0 6.0911 1.37485 6.0911 3.06688C 6.0911 4.7593 4.72412 6.13469 3.04438 6.13469Z"/><path id="path18_fill" d="M 3.81151 27.3655L 1.31174 27.368C 0.63175 27.368 0.0124483 26.8153 0.0124483 26.2095L 0 1.15196C 0 0.848781 0.155603 0.547737 0.424797 0.324246C 0.671429 0.121211 0.986526 0.00396909 1.30318 0.00396909L 3.82084 0L 3.8224 0C 4.5125 0.00610632 5.11858 0.543768 5.11858 1.15043L 5.11858 26.2095C 5.11858 26.8254 4.50705 27.3655 3.81151 27.3655Z"/><path id="path19_fill" d="M 18.9704 10.1234L 16.883 10.1154C 16.3002 10.1154 15.8116 9.76368 15.5946 9.15278C 14.8321 5.84802 13.1049 4.13551 10.4861 4.05979C 5.38544 4.21214 4.98942 11.3544 4.98942 13.5399C 4.98942 17.898 6.49178 22.601 10.6861 22.7253C 13.2177 22.6471 15.0593 20.8235 15.6117 17.8519C 15.7159 17.2455 16.1796 16.7866 16.813 16.7069L 19.0466 16.6849C 19.7142 16.7576 20.2378 17.265 20.2331 17.8943C 19.4426 23.2645 15.7385 26.7356 10.788 26.7356L 10.6168 26.731L 10.4231 26.7356C 3.22333 26.7356 0 19.9851 0 13.2953C 0 7.1618 2.71761 0 10.3826 0L 10.7499 0C 15.5767 0 19.2201 3.39908 20.2635 8.91032C 20.2868 9.17294 20.1965 9.43548 20.0114 9.64894C 19.7718 9.92555 19.3897 10.1029 18.9704 10.1234Z"/><path id="path20_fill" fill-rule="evenodd" d="M 0 13.3604C 7.96454e-16 19.8639 3.58978 26.8647 11.4727 26.8647C 19.4333 26.8647 22.3081 20.1088 22.3447 13.7863C 22.3486 13.5338 22.2396 13.2788 22.0374 13.0718C 21.7938 12.824 21.45 12.6764 21.1169 12.6764L 5.27576 12.674C 5.28821 10.9646 5.40723 9.28345 6.20935 7.58105C 7.18964 5.49573 9.33618 4.09973 11.6772 4.0238C 14.1055 4.09973 16.0443 5.48169 17.111 7.91565C 17.363 8.49792 18.0757 8.7644 18.5907 8.68079L 20.7785 8.26038C 21.1558 8.17676 21.4616 7.95837 21.6296 7.65979C 21.7658 7.41675 21.7938 7.14319 21.709 6.89062C 20.0783 2.50757 16.3119 -6.05118e-16 11.3707 0C 4.4635 8.45891e-16 -9.93994e-16 5.24377 0 13.3604ZM 5.48193 16.303L 17.1553 16.303C 17.0682 19.679 15.313 23.0114 11.4805 23.1335C 7.87592 23.0083 5.74878 19.5968 5.48193 16.303Z"/><path id="path21_fill" d="M 18.0688 14.0408C 16.5851 15.111 14.8019 15.4679 13.021 15.8252L 9.60009 16.4623C 7.14778 16.8678 5.72789 17.5291 5.72789 19.7051C 5.72789 22.6721 9.39313 22.9201 10.1081 22.9393C 12.5674 22.877 14.4152 21.7757 15.3107 19.8379C 15.5255 19.3815 15.9993 19.0753 16.491 19.0753C 16.5758 19.0753 16.6606 19.0847 16.7431 19.1024L 18.8764 19.5763C 19.2249 19.6535 19.5494 19.8944 19.7236 20.2061C 19.8621 20.454 19.8925 20.7236 19.8092 20.9651C 18.5045 24.788 15.187 26.8083 10.1673 26.8083C 5.63531 26.7982 0.792153 24.773 0.792153 19.1168C 0.792153 15.2499 3.20945 12.7949 7.98259 11.8188L 11.8135 11.0857C 13.9157 10.6815 16.0654 9.96248 16.0654 7.69488C 16.0654 4.33793 12.1769 3.99567 11.0013 3.97124C 8.55599 4.02376 5.42602 5.03833 4.65345 7.70981C 4.51185 8.26311 3.82331 8.65172 3.2079 8.52596L 0.978878 8.06309C 0.641218 7.99103 0.333123 7.76999 0.154179 7.47292C 0.00557801 7.22531 -0.0372129 6.95082 0.0328086 6.69986C 1.18194 2.54725 5.17161 0.0430503 10.7041 0.000916046L 10.827 0C 15.7682 0 21.0478 2.12531 21.0478 8.08724C 21.0478 10.5157 19.9617 12.6862 18.0688 14.0408Z"/><path id="path22_fill" fill-rule="evenodd" d="M 1.44711 34.5017L 1.44711 40.1918C 1.45022 41.0547 2.1022 41.6339 2.88489 41.6331L 28.2599 41.6339C 29.0698 41.6339 29.7234 41.0406 29.7234 40.198L 29.7234 35.3185C 29.7156 34.5017 29.0286 33.4337 27.8118 31.7377L 14.6687 12.8847C 19.5453 13.001 24.7083 12.2674 29.1399 9.76437C 30.1412 9.2002 30.4072 8.36302 30.4889 7.54569L 30.4889 1.47415C 30.4889 0.636971 29.5771 -0.330583 28.6201 0.173476C 20.8096 4.28458 10.4441 4.73338 1.80578 0.125876C 0.924285 -0.347075 0 0.60555 0 1.44273L 0 7.21195C 0 8.13245 0.0186724 9.71372 0.943735 11.1221L 16.1734 33.0683L 2.91523 33.0713C 2.10376 33.0713 1.45489 33.6514 1.44711 34.5017Z"/><path id="path23_fill" fill-rule="evenodd" d="M 9.10125 8.88587e-15L 1.37942 8.88587e-15C 0.645754 0.0482253 0.0583513 0.604184 0 1.31318L 0.00544612 41.1188C 0.00544612 41.9153 0.672985 42.5515 1.49457 42.5515L 8.68423 42.5554C 9.43735 42.5132 10.0395 41.9426 10.0909 41.2189L 10.0909 36.0178L 10.234 36.0178C 12.1059 41.0461 15.6374 43.3878 20.3926 43.3878C 25.2202 43.3878 28.2475 41.0461 30.4096 36.0178C 32.2846 41.0461 36.5349 43.3878 41.0785 43.3878C 44.3213 43.3878 47.8481 42.0497 50.0102 39.0358C 52.4601 35.6835 51.9552 30.8284 51.9552 26.5545L 51.9505 1.4341C 51.9505 0.639903 51.2838 8.88587e-15 50.463 8.88587e-15L 42.7528 8.88587e-15C 41.9764 0.0482253 41.3656 0.670464 41.3656 1.43042L 41.3656 22.5345C 41.3656 24.2088 41.508 28.3987 41.1486 29.9888C 40.5705 32.6716 38.8402 33.4211 36.6096 33.4211C 34.7338 33.4211 32.7872 32.1647 31.9944 30.1588C 31.2024 28.1453 31.2755 24.795 31.2755 22.5345L 31.2755 1.4341C 31.2755 0.639903 30.6088 0 29.7864 0L 22.0747 0C 21.3021 0.0482253 20.6898 0.670464 20.6898 1.43042L 20.6797 22.5345C 20.6797 26.9743 21.4025 33.5051 15.9268 33.5051C 10.378 33.5051 10.5943 27.1408 10.5943 22.5345L 10.5896 1.4341C 10.5927 0.639903 9.92517 8.88587e-15 9.10125 8.88587e-15Z"/><path id="path24_fill" fill-rule="evenodd" d="M 17.44 36.1021C 11.7441 36.1021 11.3855 28.3129 11.3855 23.4528C 11.3855 18.5956 11.3139 8.20996 17.37 8.20996C 23.3522 8.20996 23.6392 16.5863 23.6392 21.6951C 23.6392 25.045 23.4969 29.0645 22.4878 32.2478C 21.6203 35.0131 19.8923 36.1021 17.44 36.1021ZM 17.37 44.2241C 28.8271 44.2241 35.0256 34.3413 35.0256 21.7816C 35.0256 9.63333 28.1767 0 17.37 0C 6.12689 0 0 9.88548 0 22.1983C 0 34.5947 6.19613 44.2241 17.37 44.2241Z"/><path id="path25_fill" fill-rule="evenodd" d="M 9.0888 0L 1.39654 0C 0.621636 0.0482253 0.0108922 0.670464 0.0108922 1.43042L 0 41.254C 0.0637974 41.9794 0.704884 42.5515 1.47979 42.5515L 8.64299 42.5554C 9.31831 42.5179 9.87226 42.0567 10.0139 41.4401L 10.0139 35.3492L 10.1601 35.3492C 12.3191 40.7944 15.3479 43.3878 20.6781 43.3878C 24.138 43.3878 27.527 42.1349 29.6876 38.6997C 31.7042 35.518 31.7042 30.1588 31.7042 26.3051L 31.7042 1.25519C 31.6178 0.549237 30.9915 0 30.2291 0L 22.4863 0C 21.772 0.0467402 21.1979 0.576749 21.1115 1.25519L 21.1115 22.8694C 21.1115 27.2247 21.6172 33.5921 16.2823 33.5921C 14.4097 33.5921 12.6825 32.3327 11.8165 30.4086C 10.7343 27.9804 10.5911 25.5516 10.5911 22.8694L 10.5911 1.4341C 10.5779 0.639903 9.91038 8.88587e-15 9.0888 8.88587e-15"/><path id="path26_fill" fill-rule="evenodd" d="M 30.5294 0.647876C 30.0175 0.188993 29.2846 0.158432 28.7073 0.467402C 26.1437 2.60831 25.6831 3.60087 24.2819 5.63704C 20.0441 1.30068 17.0432 0 11.5559 0C 5.054 0 0 4.0299 0 12.0884C 0 18.3824 3.39293 22.6639 8.23142 24.7639C 12.4203 26.6111 18.271 26.9475 22.7477 27.4528L 22.7477 28.4588C 22.7477 30.3045 22.8916 32.4881 21.807 34.0821C 20.8711 35.5092 19.0653 36.0954 17.4743 36.0954C 14.5295 36.0954 11.913 34.5789 11.2688 31.4372C 11.1381 30.7395 10.6277 30.0465 9.92828 30.0129L 2.44764 30.8271C 1.81434 30.97 1.11334 31.4775 1.29618 32.4462C 3.01559 41.5675 11.2128 44.3234 18.5596 44.3234C 22.3128 44.3234 27.2259 43.3167 30.1871 40.463C 33.941 36.9359 33.5792 32.2356 33.5792 27.1145L 33.5792 15.0319C 33.5792 11.3974 35.0831 9.80216 36.4968 7.84329C 36.9862 7.1368 37.0966 6.29961 36.468 5.78149C 34.8917 4.45423 32.0901 2.01171 30.5504 0.630759L 30.5294 0.647876ZM 22.7477 19.5598C 22.7477 16.5372 22.8192 14.0165 21.3021 11.3324C 20.0744 9.1479 18.1231 7.80603 15.9564 7.80603C 12.9983 7.80603 11.2657 10.0718 11.2657 13.4312C 11.2657 20.0352 17.1646 21.2375 22.7477 21.2375L 22.7477 19.5598Z"/><path id="path27_fill" fill-rule="evenodd" d="M 30.5348 0.647876C 30.0245 0.188993 29.2861 0.158432 28.7088 0.467402C 26.1453 2.60831 25.6862 3.60087 24.2835 5.63704C 20.0479 1.30068 17.0456 0 11.5551 0C 5.05556 0 0 4.0299 0 12.0884C 0 18.3824 3.39605 22.6639 8.23453 24.7639C 12.4242 26.6111 18.2741 26.9475 22.7508 27.4528L 22.7508 28.4588C 22.7508 30.3045 22.8963 32.4881 21.8117 34.0821C 20.8734 35.5092 19.0661 36.0954 17.4797 36.0954C 14.5349 36.0954 11.9153 34.5789 11.2735 31.4372C 11.1397 30.7395 10.6316 30.0465 9.93295 30.0129L 2.4492 30.8271C 1.81745 30.97 1.11568 31.4775 1.29695 32.4462C 3.01637 41.5675 11.2143 44.3234 18.5604 44.3234C 22.3182 44.3234 27.2275 43.3167 30.1894 40.463C 33.9449 36.9359 33.5823 32.2356 33.5823 27.1145L 33.5823 15.0319C 33.5823 11.3974 35.087 9.80216 36.4968 7.84329C 36.9885 7.1368 37.0998 6.29961 36.4727 5.78149C 34.8949 4.45423 32.0917 2.01171 30.5527 0.630759L 30.5348 0.647876ZM 22.7508 19.5598C 22.7508 16.5372 22.8216 14.0165 21.3075 11.3324C 20.0806 9.1479 18.1278 7.80603 15.9641 7.80603C 12.9999 7.80603 11.268 10.0718 11.268 13.4312C 11.268 20.0352 17.1654 21.2375 22.7508 21.2375L 22.7508 19.5598Z"/></defs></svg>