<svg width="115" height="37" viewBox="0 0 115 37" version="1.1" xmlns="http://www.w3.org/2000/svg" xmlns:xlink="http://www.w3.org/1999/xlink">
<title>angular_material_logo</title>
<desc>Created using Figma</desc>
<g id="Canvas" transform="translate(-659 1344)">
<g id="angular_material_logo">
<g id="angular-white-transparent">
<g id="Path 14">
<use xlink:href="#path0_fill" transform="translate(661 -1342)" fill="#9C27B0"/>
</g>
<g id="Group">
<g id="Shape">
<use xlink:href="#path1_fill" transform="translate(659.161 -1344)" fill="#FFFFFF"/>
</g>
<g id="Shape">
<use xlink:href="#path2_fill" transform="translate(672.779 -1332.07)" fill="#FFFFFF"/>
</g>
</g>
<g id="Group">
<g id="Shape">
<use xlink:href="#path3_fill" transform="translate(676 -1344)" fill="#CBCBCB"/>
</g>
<g id="Shape">
<use xlink:href="#path4_fill" transform="translate(676 -1332.16)" fill="#CBCBCB"/>
</g>
</g>
</g>
<g id="Material">
<use xlink:href="#path5_fill" transform="translate(705 -1333)" fill="#FFFFFF"/>
</g>
</g>
</g>
<defs>
<path id="path0_fill" fill-rule="evenodd" d="M 2.18696 25.9821L 14.7145 34L 27.2273 25.9821L 29 5.36725L 14.7145 0L 0 5.36725L 2.18696 25.9821Z"/>
<path id="path1_fill" d="M 16.66 22.829L 12.24 22.829L 10.1463 28.231L 6.26316 28.231L 6.24526 28.231L 16.66 4.0885L 16.66 4.107L 16.66 0L 0 6.142L 2.54105 28.9155L 16.66 37L 16.66 22.829Z"/>
<path id="path2_fill" d="M 0 7.5665L 3.04211 7.5665L 3.04211 0L 0 7.5665Z"/>
<path id="path3_fill" d="M 0 22.829L 4.46702 22.829L 6.58298 28.231L 10.5074 28.231L 10.5255 28.231L 0 4.0885L 0 4.107L 0 0L 16.8372 6.142L 14.2691 28.9155L 0 37L 0 22.829Z"/>
<path id="path4_fill" d="M 3.07447 7.5665L 0 7.5665L 0 0L 3.07447 7.5665Z"/>
<path id="path5_fill" fill-rule="evenodd" d="M 2.37097 0.764771L 6.92171 12.1225L 11.4724 0.764771L 13.853 0.764771L 13.853 14.6847L 12.0174 14.6847L 12.0174 9.26394L 12.1895 3.41299L 7.61962 14.6847L 6.21424 14.6847L 1.65394 3.44167L 1.83559 9.26394L 1.83559 14.6847L 0 14.6847L 0 0.764771L 2.37097 0.764771ZM 23.203 14.6847C 23.101 14.4807 23.0182 14.1175 22.9545 13.5948C 22.1323 14.4489 21.1507 14.8759 20.0099 14.8759C 18.9901 14.8759 18.1536 14.5875 17.5003 14.0107C 16.847 13.4339 16.5203 12.7025 16.5203 11.8166C 16.5203 10.7394 16.9298 9.90292 17.7488 9.30699C 18.5678 8.71106 19.7199 8.4131 21.2049 8.4131L 22.9258 8.4131L 22.9258 7.60046C 22.9258 6.98222 22.7409 6.48987 22.3713 6.12339C 22.0016 5.7569 21.4567 5.57367 20.7364 5.57367C 20.1055 5.57367 19.5765 5.733 19.1494 6.05168C 18.7224 6.37036 18.5089 6.75596 18.5089 7.20849L 16.7307 7.20849C 16.7307 6.69223 16.9139 6.1935 17.2804 5.71229C 17.6469 5.23108 18.144 4.85027 18.7718 4.56983C 19.3996 4.28939 20.0895 4.14917 20.8416 4.14917C 22.0335 4.14917 22.9672 4.44713 23.6428 5.04306C 24.3184 5.639 24.6689 6.45959 24.6944 7.50486L 24.6944 12.2659C 24.6944 13.2156 24.8155 13.9709 25.0577 14.5317L 25.0577 14.6847L 23.203 14.6847ZM 20.268 13.3367C 20.8225 13.3367 21.3483 13.1933 21.8455 12.9065C 22.3426 12.6197 22.7027 12.2468 22.9258 11.7879L 22.9258 9.66553L 21.5395 9.66553C 19.3725 9.66553 18.289 10.2997 18.289 11.568C 18.289 12.1225 18.4738 12.5559 18.8435 12.8683C 19.2132 13.1806 19.688 13.3367 20.268 13.3367ZM 29.8666 1.83557L 29.8666 4.34039L 31.7978 4.34039L 31.7978 5.70752L 29.8666 5.70752L 29.8666 12.1225C 29.8666 12.5368 29.9526 12.8475 30.1247 13.0547C 30.2968 13.2618 30.59 13.3654 31.0043 13.3654C 31.2082 13.3654 31.4887 13.3271 31.8456 13.2507L 31.8456 14.6847C 31.3803 14.8122 30.9278 14.8759 30.488 14.8759C 29.6977 14.8759 29.1018 14.6369 28.7002 14.1589C 28.2987 13.6809 28.0979 13.0021 28.0979 12.1225L 28.0979 5.70752L 26.2145 5.70752L 26.2145 4.34039L 28.0979 4.34039L 28.0979 1.83557L 29.8666 1.83557ZM 38.1555 14.8759C 36.7533 14.8759 35.6124 14.4154 34.7328 13.4944C 33.8533 12.5734 33.4135 11.3418 33.4135 9.79935L 33.4135 9.4743C 33.4135 8.44814 33.6095 7.53195 34.0015 6.72569C 34.3935 5.91943 34.9416 5.28845 35.6459 4.83274C 36.3501 4.37702 37.1134 4.14917 37.9356 4.14917C 39.2804 4.14917 40.3257 4.59213 41.0714 5.47806C 41.8171 6.36399 42.1899 7.63232 42.1899 9.28309L 42.1899 10.0192L 35.1822 10.0192C 35.2077 11.039 35.5056 11.8628 36.0761 12.4906C 36.6465 13.1184 37.3715 13.4323 38.2511 13.4323C 38.8757 13.4323 39.4047 13.3048 39.8381 13.0499C 40.2715 12.7949 40.6507 12.4571 40.9758 12.0365L 42.0561 12.8778C 41.1893 14.2099 39.8891 14.8759 38.1555 14.8759ZM 37.9355 5.60242C 37.2217 5.60242 36.6226 5.86214 36.1382 6.38159C 35.6538 6.90104 35.3542 7.62921 35.2395 8.56613L 40.4212 8.56613L 40.4212 8.43229C 40.3702 7.53361 40.128 6.8373 39.6946 6.34335C 39.2612 5.84939 38.6749 5.60242 37.9355 5.60242ZM 49.2359 5.9274C 48.9682 5.88278 48.6782 5.86048 48.3659 5.86048C 47.2059 5.86048 46.4188 6.35442 46.0045 7.34233L 46.0045 14.6847L 44.2358 14.6847L 44.2358 4.34038L 45.9567 4.34038L 45.9854 5.53542C 46.5654 4.61125 47.3876 4.14917 48.452 4.14917C 48.7961 4.14917 49.0575 4.19378 49.2359 4.28302L 49.2359 5.9274ZM 52.7828 14.6848L 51.0142 14.6848L 51.0142 4.34045L 52.7828 4.34045L 52.7828 14.6848ZM 50.8707 1.59657C 50.8707 1.30976 50.9584 1.06756 51.1336 0.86998C 51.3089 0.672398 51.5686 0.573608 51.9128 0.573608C 52.257 0.573608 52.5183 0.672398 52.6968 0.86998C 52.8752 1.06756 52.9644 1.30976 52.9644 1.59657C 52.9644 1.88338 52.8752 2.12239 52.6968 2.3136C 52.5183 2.5048 52.257 2.60041 51.9128 2.60041C 51.5686 2.60041 51.3089 2.5048 51.1336 2.3136C 50.9584 2.12239 50.8707 1.88338 50.8707 1.59657ZM 61.999 14.6847C 61.897 14.4807 61.8142 14.1175 61.7504 13.5948C 60.9282 14.4489 59.9467 14.8759 58.8058 14.8759C 57.786 14.8759 56.9495 14.5875 56.2962 14.0107C 55.6429 13.4339 55.3163 12.7025 55.3163 11.8166C 55.3163 10.7394 55.7258 9.90292 56.5448 9.30699C 57.3638 8.71106 58.5158 8.4131 60.0009 8.4131L 61.7217 8.4131L 61.7217 7.60046C 61.7217 6.98222 61.5369 6.48987 61.1672 6.12339C 60.7976 5.7569 60.2526 5.57367 59.5324 5.57367C 58.9014 5.57367 58.3724 5.733 57.9454 6.05168C 57.5184 6.37036 57.3048 6.75596 57.3048 7.20849L 55.5266 7.20849C 55.5266 6.69223 55.7099 6.1935 56.0763 5.71229C 56.4428 5.23108 56.9399 4.85027 57.5678 4.56983C 58.1956 4.28939 58.8855 4.14917 59.6376 4.14917C 60.8294 4.14917 61.7632 4.44713 62.4388 5.04306C 63.1144 5.639 63.4649 6.45959 63.4904 7.50486L 63.4904 12.2659C 63.4904 13.2156 63.6115 13.9709 63.8537 14.5317L 63.8537 14.6847L 61.999 14.6847ZM 59.064 13.3367C 59.6185 13.3367 60.1443 13.1933 60.6414 12.9065C 61.1386 12.6197 61.4987 12.2468 61.7217 11.7879L 61.7217 9.66553L 60.3355 9.66553C 58.1685 9.66553 57.085 10.2997 57.085 11.568C 57.085 12.1225 57.2698 12.5559 57.6395 12.8683C 58.0091 13.1806 58.484 13.3367 59.064 13.3367ZM 68.1846 14.6847L 66.4159 14.6847L 66.4159 0L 68.1846 0L 68.1846 14.6847Z"/>
</defs>
</svg>
