<svg xmlns="http://www.w3.org/2000/svg" xmlns:xlink="http://www.w3.org/1999/xlink" width="425" height="106" version="1.1" viewBox="0 0 425 106"><title>angular_5_logo</title><desc>Created using Figma</desc><g id="Canvas" transform="translate(-606 1552)"><g id="angular_5_logo"><g id="angular_5_text"><g id="polygon14"><use fill="#CCC" transform="translate(712.148 -1518.47)" xlink:href="#path0_fill"/></g><g id="path16"><use fill="#CCC" transform="translate(756.599 -1518.77)" xlink:href="#path1_fill"/></g><g id="path18"><use fill="#CCC" transform="translate(799.28 -1518.47)" xlink:href="#path2_fill"/></g><g id="polygon20"><use fill="#CCC" transform="translate(844.176 -1518.47)" xlink:href="#path3_fill"/></g><g id="polygon22"><use fill="#CCC" transform="translate(873.948 -1524.09)" xlink:href="#path4_fill"/></g><g id="path24"><use fill="#CCC" transform="translate(921.706 -1518.47)" xlink:href="#path5_fill"/></g><g id="polygon30"><use fill="#FFF" transform="translate(713.53 -1519.86)" xlink:href="#path6_fill"/></g><g id="path32"><use fill="#FFF" transform="translate(757.982 -1520.16)" xlink:href="#path7_fill"/></g><g id="path34"><use fill="#FFF" transform="translate(800.661 -1519.86)" xlink:href="#path8_fill"/></g><g id="polygon36"><use fill="#FFF" transform="translate(845.558 -1519.86)" xlink:href="#path9_fill"/></g><g id="polygon38"><use fill="#FFF" transform="translate(875.329 -1525.49)" xlink:href="#path10_fill"/></g><g id="path40"><use fill="#FFF" transform="translate(923.089 -1519.86)" xlink:href="#path11_fill"/></g><g id="5"><use fill="#DBDBDB" transform="translate(982.439 -1532.36)" xlink:href="#path12_fill"/></g><g id="5"><use fill="#E84D3A" transform="translate(985.598 -1533.94)" xlink:href="#path12_fill"/></g></g><g id="angular_logo"><g id="polygon50"><use fill="#B3B3B3" transform="translate(606.332 -1551.48)" xlink:href="#path13_fill"/></g><g id="polygon52"><use fill="#A6120D" transform="translate(655.731 -1545.96)" xlink:href="#path14_fill"/></g><g id="polygon54"><use fill="#DD1B16" transform="translate(611.888 -1545.96)" xlink:href="#path15_fill"/></g><g id="path56"><use fill="#F2F2F2" transform="translate(625.117 -1542.54)" xlink:href="#path16_fill"/></g><g id="polygon58"><use fill="#B3B3B3" transform="translate(655.73 -1542.54)" xlink:href="#path17_fill"/></g></g></g></g><defs><path id="path0_fill" d="M 5.46389 0L 31.3104 34.3296L 31.3104 0L 36.4773 0L 36.4773 42.6155L 31.014 42.6155L 5.16979 7.98427L 5.16979 42.6155L 0 42.6155L 0 0L 5.46389 0Z"/><path id="path1_fill" d="M 33.9669 41.2455C 30.5618 42.5589 26.8876 43.2132 22.9497 43.2132C 7.65207 43.2132 0 35.8133 0 21.0113C 0 7.00437 7.38422 0 22.1503 0C 26.387 0 30.3261 0.597691 33.9663 1.79127L 33.9663 6.55896C 30.3255 5.16795 26.5821 4.47155 22.7409 4.47155C 11.2237 4.47155 5.46628 9.9868 5.46628 21.0113C 5.46628 32.8315 11.1336 38.7446 22.479 38.7446C 24.2883 38.7446 26.2964 38.5051 28.5036 38.0265L 28.5036 23.5447L 33.9669 23.5447L 33.9669 41.2455Z"/><path id="path2_fill" d="M 0 26.1636L 0 0L 5.46031 0L 5.46031 26.163C 5.46031 34.3483 9.49843 38.4455 17.5729 38.4455C 25.6449 38.4455 29.683 34.3477 29.683 26.163L 29.683 0L 35.1463 0L 35.1463 26.163C 35.1463 37.3325 29.2887 42.914 17.5729 42.914C 5.85762 42.9146 3.39105e-14 37.3325 3.39105e-14 26.1636L 0 26.1636Z"/><path id="path3_fill" d="M 27.5581 38.1469L 27.5581 42.6155L 0 42.6155L 0 0L 5.46091 0L 5.46091 38.1469L 27.5581 38.1469Z"/><path id="path4_fill" d="M 20.9989 0L 41.9984 48.2379L 35.9451 48.2379L 30.4788 34.825L 16.5122 34.825L 18.0173 30.3601L 28.6504 30.3601L 20.7639 11.0462L 5.66971 48.2379L 0 48.2379L 20.9989 0Z"/><path id="path5_fill" d="M 0 42.6155L 0 0L 18.0179 0C 26.053 0 30.069 3.40859 30.069 10.2209C 30.069 15.7657 26.143 19.8689 18.2846 22.5281L 32.7863 42.6155L 25.5793 42.6155L 12.1424 23.4544L 12.1424 19.8514C 20.2138 18.5567 24.2496 15.428 24.2496 10.4629C 24.2496 6.53067 22.0053 4.56063 17.5186 4.56063L 5.46449 4.56063L 5.46449 42.6173L 0.00059656 42.6173L 0 42.6155Z"/><path id="path6_fill" d="M 5.4633 0L 31.3075 34.3302L 31.3075 0L 36.4773 0L 36.4773 42.6155L 31.0134 42.6155L 5.1674 7.98427L 5.1674 42.6155L 0 42.6155L 0 0L 5.4633 0Z"/><path id="path7_fill" d="M 33.9663 41.2461C 30.5612 42.5595 26.8887 43.2132 22.9497 43.2132C 7.65088 43.2132 0 35.8139 0 21.0119C 0 7.00497 7.38422 0 22.1533 0C 26.3864 0 30.3261 0.598293 33.9663 1.79127L 33.9663 6.55835C 30.3255 5.16735 26.5821 4.47095 22.7433 4.47095C 11.2255 4.47095 5.46688 9.9862 5.46688 21.0107C 5.46688 32.8315 11.1366 38.7446 22.479 38.7446C 24.2889 38.7446 26.2993 38.5063 28.506 38.0265L 28.506 23.5441L 33.9669 23.5441L 33.9663 41.2461Z"/><path id="path8_fill" d="M 0 26.1666L 0 0L 5.46031 0L 5.46031 26.166C 5.46031 34.3507 9.49843 38.4455 17.5735 38.4455C 25.6449 38.4455 29.683 34.3501 29.683 26.166L 29.683 0L 35.1463 0L 35.1463 26.166C 35.1463 37.3349 29.2887 42.914 17.5735 42.914C 5.85762 42.914 0 37.3362 0 26.1666Z"/><path id="path9_fill" d="M 27.5557 38.1469L 27.5557 42.6155L 0 42.6155L 0 0L 5.46091 0L 5.46091 38.1469L 27.5557 38.1469Z"/><path id="path10_fill" d="M 21.0001 0L 41.9996 48.2403L 35.9427 48.2403L 30.4794 34.8286L 16.5098 34.8286L 18.0185 30.3601L 28.6486 30.3601L 20.7645 11.0462L 5.6703 48.2403L 0 48.2403L 21.0001 0Z"/><path id="path11_fill" d="M 0 42.6155L 0 0L 18.0173 0C 26.053 0 30.0654 3.40618 30.0654 10.2215C 30.0654 15.7633 26.1419 19.8689 18.284 22.5275L 32.7863 42.6155L 25.5763 42.6155L 12.1412 23.4538L 12.1412 19.8472C 20.2132 18.5525 24.2508 15.4268 24.2508 10.4587C 24.2508 6.52645 22.0041 4.55943 17.5144 4.55943L 5.46389 4.55943L 5.46389 42.6155L 0 42.6155Z"/><path id="path12_fill" fill-rule="evenodd" d="M 2.58555 36.7332L 6.25703 0L 43.9026 0L 43.9026 5.7428L 11.5833 5.7428L 8.946 31.1974C 12.9795 28.438 17.7024 27.0584 23.1148 27.0584C 29.9062 27.0584 35.3186 29.2658 39.352 33.6807C 43.3855 38.0956 45.4022 43.9763 45.4022 51.323C 45.4022 59.256 43.4372 65.4127 39.5072 69.7931C 35.5771 74.1735 30.0441 76.3637 22.908 76.3637C 16.3579 76.3637 11.0489 74.5356 6.98098 70.8796C 2.91303 67.2235 0.586061 62.1016 0 55.5137L 5.94676 55.5137C 6.53282 60.6529 8.27374 64.5418 11.1696 67.1804C 14.0654 69.819 17.9782 71.1382 22.908 71.1382C 28.2859 71.1382 32.3452 69.4309 35.0859 66.0163C 37.8266 62.6016 39.1969 57.7384 39.1969 51.4265C 39.1969 45.9078 37.6628 41.4068 34.5946 37.9231C 31.5264 34.4395 27.3379 32.6977 22.0289 32.6977C 19.0986 32.6977 16.5475 33.0685 14.3756 33.8101C 12.2038 34.5516 9.91128 35.9916 7.49809 38.1301L 2.58555 36.7332Z"/><path id="path13_fill" d="M 7.82455 82.3063L 49.5671 105.251L 91.5246 81.9955L 99.3461 17.1187L 49.5144 0L 0 17.4271L 7.82455 82.3063Z"/><path id="path14_fill" d="M 0 94.2514L 37.7192 73.3736L 45.0084 15.3502L 0 0L 0 94.2514Z"/><path id="path15_fill" d="M 43.8419 94.2532L 43.8419 0L 0 15.6287L 6.70479 73.6526L 43.8419 94.2532Z"/><path id="path16_fill" fill-rule="evenodd" d="M 30.6138 52.546L 43.003 46.752L 30.6138 0L 0 68.1125L 11.4174 67.9011L 17.5557 52.546L 30.6138 52.546ZM 30.6958 21.839L 41.8054 43.8348L 30.6132 43.4564L 21.5833 43.4564L 30.6958 21.839Z"/><path id="path17_fill" d="M 10.4222 43.4732L 0.0233533 43.4732L 0 52.5323L 14.379 52.5461L 21.0994 68.1149L 32.024 68.3173L 0 0L 0.0820359 21.839L 10.4222 43.4732Z"/></defs></svg>