<svg width="407" height="371" viewBox="0 0 407 371" version="1.1" xmlns="http://www.w3.org/2000/svg" xmlns:xlink="http://www.w3.org/1999/xlink">
<title>backend_technologies</title>
<desc>Created using Figma</desc>
<g id="Canvas" transform="translate(-630 604)">
<g id="backend_technologies">
<g id="laravel_logo">
<g id="Shape">
<use xlink:href="#path0_fill" transform="translate(630 -604)" fill="#F0543F"/>
</g>
<g id="Group">
<g id="Shape">
<use xlink:href="#path1_fill" transform="translate(814 -572)" fill="#FFFFFF"/>
</g>
<g id="Shape">
<use xlink:href="#path2_fill" transform="translate(824.895 -561)" fill="#FFFFFF"/>
</g>
<g id="Shape">
<use xlink:href="#path3_fill" transform="translate(864.842 -561)" fill="#FFFFFF"/>
</g>
<g id="Shape">
<use xlink:href="#path4_fill" transform="translate(883 -561)" fill="#FFFFFF"/>
</g>
<g id="Shape">
<use xlink:href="#path5_fill" transform="translate(920.526 -559.778)" fill="#FFFFFF"/>
</g>
<g id="Shape">
<use xlink:href="#path6_fill" transform="translate(954.421 -561)" fill="#FFFFFF"/>
</g>
<g id="Shape">
<use xlink:href="#path1_fill" transform="translate(994.368 -572)" fill="#FFFFFF"/>
</g>
</g>
</g>
<g id="php7_logo">
<g id="Shape">
<use xlink:href="#path7_fill" transform="translate(904 -417)" fill="#FFFFFF"/>
</g>
<g id="Shape">
<use xlink:href="#path8_fill" transform="translate(926 -423)" fill="#FFFFFF"/>
</g>
<g id="Shape">
<use xlink:href="#path9_fill" transform="translate(944 -417)" fill="#FFFFFF"/>
</g>
<g id="Shape">
<use xlink:href="#path10_fill" transform="translate(969 -423)" fill="#FFFFFF"/>
</g>
</g>
<g id="laravel_relation_line_2" opacity="0.282495">
<use xlink:href="#path11_stroke" transform="matrix(0.848048 0.529919 -0.529919 0.848048 855.842 -512)" fill="#FFFFFF"/>
</g>
<g id="laravel_relation_line_1" opacity="0.282495">
<use xlink:href="#path11_stroke" transform="matrix(-0.848048 0.529919 0.529919 0.848048 809.773 -512)" fill="#FFFFFF"/>
</g>
<g id="rest_logo">
<use xlink:href="#path12_fill" transform="translate(678 -427)" fill="#FFFFFF"/>
</g>
<g id="microservices">
<g id="loop_back_logo">
<g id="Loop Back">
<use xlink:href="#path13_fill" transform="translate(688 -272)" fill="#FFFFFF"/>
</g>
<g id="loopback">
<g id="Shape">
<use xlink:href="#path14_fill" transform="translate(637 -280)" fill="#FFFFFF"/>
</g>
<g id="Shape">
<use xlink:href="#path15_fill" transform="translate(646 -265)" fill="#07582A"/>
</g>
<g id="Shape">
<use xlink:href="#path16_fill" transform="translate(646 -273)" fill="#6CB433"/>
</g>
</g>
</g>
<g id="express_js_logo">
<g id="Group">
<g id="Shape">
<use xlink:href="#path17_fill" transform="matrix(1 -1.22465e-16 -1.22465e-16 -1 875 -233.005)" fill="#65A959"/>
</g>
<g id="Shape">
<use xlink:href="#path18_fill" transform="matrix(1 -1.22465e-16 -1.22465e-16 -1 891.787 -246.75)" fill="#65A959"/>
</g>
</g>
<g id="Express.js">
<use xlink:href="#path19_fill" transform="translate(929 -265)" fill="#FFFFFF"/>
</g>
</g>
<g id="microservices_label">
<use xlink:href="#path20_fill" transform="translate(799 -330)" fill="#8C8B8B"/>
</g>
</g>
</g>
</g>
<defs>
<path id="path0_fill" fill-rule="evenodd" d="M 91.1461 99.8918C 91.5743 100.594 92.3328 101 93.1279 101C 93.3848 101 93.6417 100.958 93.8925 100.873L 144.692 83.2637C 145.377 83.0215 145.909 82.4826 146.129 81.7983C 146.35 81.1141 146.233 80.3693 145.811 79.7819L 128.905 56.1901L 148.295 50.9703C 149.047 50.7705 149.646 50.2073 149.885 49.4747C 150.13 48.7419 149.977 47.9366 149.494 47.3371L 131.088 24.587C 130.532 23.9027 129.626 23.5878 128.758 23.7937L 107.484 28.7652C 106.738 28.9408 106.126 29.4737 105.857 30.1821C 105.582 30.8967 105.686 31.696 106.132 32.3137L 121.314 53.5015L 75.8482 65.7394L 36.7012 1.11023C 36.2302 0.329041 35.3249 -0.100891 34.4135 0.0202637L 2.00098 4.33167C 1.25476 4.43463 0.60022 4.88879 0.25769 5.55487C -0.0909424 6.22095 -0.0848389 7.01422 0.269958 7.67426L 38.4138 78.7101C 38.9154 79.6547 40.0164 80.121 41.0563 79.8425L 73.6829 71.0561L 91.1461 99.8918ZM 94.392 96.1905L 78.629 70.0613L 124.279 57.7143L 140.323 80.1981L 94.392 96.1905ZM 6.0484 8.46698L 41.7718 74.5476L 71.371 66.6312L 33.6714 4.80951L 6.0484 8.46698ZM 125.853 51.7023L 111.29 32.5886L 128.252 28.8571L 143.952 47.1169L 125.853 51.7023Z"/>
<path id="path1_fill" d="M 0 0L 3.63158 0L 3.63158 42.7778L 0 42.7778L 0 0Z"/>
<path id="path2_fill" fill-rule="evenodd" d="M 32.6842 32.1938L 32.6842 0.806152L 32.6842 0.793335L 28.7043 0.793335L 28.7043 6.56415C 27.1302 4.3761 25.3002 2.73828 23.2142 1.63782C 21.1283 0.550232 18.7864 0 16.2141 0C 11.7479 0 7.93433 1.59949 4.76056 4.81116C 1.58685 8.02289 0 11.8871 0 16.4041C 0 21.0233 1.57404 24.9387 4.72217 28.1633C 7.85754 31.3878 11.6583 33 16.0989 33C 18.5944 33 20.8979 32.4754 23.0095 31.4389C 25.1082 30.4025 27.015 28.8542 28.7043 26.7941L 28.7043 32.1938L 32.6842 32.1938ZM 10.3274 5.54053C 12.2214 4.44012 14.2946 3.88989 16.5469 3.88989C 20.0405 3.88989 22.9839 5.10547 25.3898 7.52386C 27.7829 9.96783 28.973 13.0004 28.973 16.6343C 28.973 19.0143 28.4355 21.1512 27.3734 23.0578C 26.3112 24.9644 24.7883 26.4742 22.8047 27.5875C 20.8212 28.7007 18.7352 29.2637 16.5213 29.2637C 14.3329 29.2637 12.2726 28.7007 10.3658 27.5746C 8.45905 26.4486 6.93616 24.8876 5.79718 22.8658C 4.6582 20.8569 4.09515 18.7457 4.09515 16.532C 4.09515 14.3055 4.6582 12.1943 5.78436 10.1982C 6.91052 8.20203 8.42065 6.64093 10.3274 5.54053Z"/>
<path id="path3_fill" d="M 0 0.808338L 4.0865 0.808338L 4.0865 5.32998C 5.30484 3.54911 6.59932 2.2103 7.94457 1.32618C 9.3025 0.44206 10.7112 0 12.1834 0C 13.2875 0 14.4677 0.353648 15.7368 1.04831L 13.6428 4.40797C 12.8052 4.04169 12.0945 3.86486 11.5234 3.86486C 10.1909 3.86486 8.89639 4.40797 7.66537 5.5068C 6.42165 6.59301 5.48251 8.29809 4.83527 10.5842C 4.34032 12.3524 4.0865 15.9141 4.0865 21.2946L 4.0865 31.7778L 0 31.7778L 0 0.808338Z"/>
<path id="path4_fill" fill-rule="evenodd" d="M 32.6842 32.1938L 32.6842 0.806152L 32.6842 0.793335L 28.7043 0.793335L 28.7043 6.56415C 27.1302 4.3761 25.3002 2.73828 23.2142 1.63782C 21.1283 0.550232 18.7864 0 16.2141 0C 11.7479 0 7.93433 1.59949 4.76056 4.81116C 1.58685 8.02289 0 11.8871 0 16.4041C 0 21.0233 1.57404 24.9387 4.72217 28.1633C 7.85754 31.3878 11.6583 33 16.0989 33C 18.5944 33 20.8979 32.4754 23.0095 31.4389C 25.1082 30.4025 27.015 28.8542 28.7043 26.7941L 28.7043 32.1938L 32.6842 32.1938ZM 10.3146 5.54053C 12.2086 4.44012 14.2817 3.88989 16.5341 3.88989C 20.0405 3.88989 22.9839 5.10547 25.377 7.52386C 27.7701 9.96783 28.9602 13.0004 28.9602 16.6343C 28.9602 19.0143 28.4227 21.1512 27.3605 23.0578C 26.2984 24.9644 24.7755 26.4742 22.7919 27.5875C 20.8083 28.7007 18.7224 29.2637 16.5085 29.2637C 14.3201 29.2637 12.2598 28.7007 10.353 27.5746C 8.44623 26.4486 6.92334 24.8876 5.78436 22.8658C 4.64539 20.8569 4.08234 18.7457 4.08234 16.532C 4.08234 14.3055 4.64539 12.1943 5.77155 10.1982C 6.89771 8.20203 8.40784 6.64093 10.3146 5.54053Z"/>
<path id="path5_fill" d="M 0 0L 4.22584 0L 14.5766 22.272L 24.8016 0L 29.0526 0L 14.9288 30.5556L 14.1867 30.5556L 0 0Z"/>
<path id="path6_fill" fill-rule="evenodd" d="M 31.6257 23.5659L 28.1921 21.7739C 26.9529 23.822 25.7911 25.3068 24.7326 26.2541C 23.6741 27.1757 22.3704 27.9182 20.8472 28.4686C 19.311 29.019 17.7491 29.3006 16.1356 29.3006C 12.8052 29.3006 9.99115 28.1486 7.71924 25.806C 5.44739 23.4636 4.27271 20.481 4.19525 16.8328L 32.6842 16.8328C 32.6455 12.5318 31.4708 8.96045 29.186 6.09308C 25.9589 2.03528 21.6475 0 16.2518 0C 11.0109 0 6.82855 1.97131 3.70471 5.93951C 1.2392 9.06287 0 12.6086 0 16.5896C 0 20.8138 1.44574 24.6156 4.36304 27.9694C 7.2804 31.3231 11.3207 33 16.4841 33C 18.8076 33 20.8988 32.6544 22.7447 31.9504C 24.5906 31.2463 26.2558 30.2223 27.7274 28.8782C 29.1989 27.5341 30.5027 25.7548 31.6257 23.5659ZM 25.817 8.14117C 26.8625 9.43402 27.6499 11.1621 28.1921 13.3126L 4.58252 13.3126C 5.42157 10.4325 6.66077 8.26917 8.28723 6.82269C 10.5204 4.83862 13.1924 3.85297 16.3034 3.85297C 18.188 3.85297 19.9952 4.237 21.6992 5.03064C 23.4031 5.81146 24.7714 6.84833 25.817 8.14117Z"/>
<path id="path7_fill" fill-rule="evenodd" d="M 20.4476 2.28253C 19.1249 0.790894 17.0439 0.00100708 14.2038 0.00100708L 14.2038 0L 4.51318 0L 0 24L 5.02679 24L 6.22235 17.6202L 10.5613 17.6202C 12.0308 17.6202 13.4465 17.4643 14.8074 17.1524C 16.1683 16.8415 17.4392 16.1053 18.622 14.9478C 19.5897 14.0354 20.3371 13.0096 20.8644 11.8744C 21.3918 10.7392 21.7313 9.57974 21.8809 8.39899C 22.2468 5.81671 21.7694 3.77417 20.4476 2.28253ZM 6.93359 13.8471L 8.82184 3.82886C 8.82184 3.82886 10.1064 3.85114 10.3774 3.82785C 10.6642 3.82483 10.9539 3.81702 11.2413 3.8093C 12.0126 3.78854 12.7668 3.76825 13.4005 3.84201C 14.1216 3.92606 14.7125 4.0415 15.2839 4.27036C 16.5674 4.7858 17.0596 6.04556 16.6917 8.38278C 16.2397 11.1656 15.2438 12.5073 13.6676 13.2294C 12.2099 13.8977 10.2141 13.9028 7.90411 13.8805C 7.73486 13.8805 7.09796 13.8694 6.93359 13.8471Z"/>
<path id="path8_fill" d="M 9.65353 5.7563e-15L 8.43294 6.37975L 12.9846 6.37975C 15.4725 6.48101 17.3466 6.90228 18.6079 7.79241C 19.8692 8.68354 20.2734 10.3808 19.8205 12.8739L 17.6922 24L 12.5536 24L 14.5856 13.3803C 14.7981 12.2673 14.7048 11.4765 14.3055 11.0086C 13.9053 10.5408 13.07 10.2613 11.7729 10.2613L 7.70693 10.2025L 5.06512 24L 0 24L 4.58841 0L 9.65353 0L 9.65353 5.7563e-15Z"/>
<path id="path9_fill" fill-rule="evenodd" d="M 20.4476 2.28253C 19.1249 0.790894 17.0439 0.00100708 14.2038 0.00100708L 14.2038 0L 4.51318 0L 0 24L 5.02582 24L 6.22137 17.6202L 10.5604 17.6202C 12.0308 17.6202 13.4465 17.4643 14.8074 17.1524C 16.1683 16.8415 17.4392 16.1053 18.622 14.9478C 19.5897 14.0354 20.3371 13.0096 20.8644 11.8744C 21.3918 10.7392 21.7313 9.57974 21.8809 8.39899C 22.2468 5.81671 21.7694 3.77417 20.4476 2.28253ZM 6.93359 13.8471L 8.82184 3.82886C 8.82184 3.82886 10.1064 3.85114 10.3774 3.82785C 10.6642 3.82483 10.9539 3.81702 11.2413 3.8093C 12.0126 3.78854 12.7668 3.76825 13.4005 3.84201C 14.1216 3.92606 14.7125 4.0415 15.2839 4.27036C 16.5674 4.7858 17.0596 6.04556 16.6917 8.38278C 16.2397 11.1656 15.2438 12.5073 13.6676 13.2294C 12.2099 13.8977 10.2141 13.9028 7.90411 13.8805C 7.73486 13.8805 7.09796 13.8694 6.93359 13.8471Z"/>
<path id="path10_fill" d="M 0 4.1519L 0.00377983 0L 20 0L 20 4.15494L 6.50035 24L 0.452634 24L 14.4512 4.1519L 0 4.1519Z"/>
<path id="path11_stroke" d="M 0.362409 4.00996L 0.0179383 3.64755L -0.706879 4.33649L -0.362409 4.6989L 0.362409 4.00996ZM 97.3086 4.75746L 97.7116 5.05337L 98.3034 4.24731L 97.9004 3.95139L 97.3086 4.75746ZM 0 4.35443C -0.362409 4.6989 -0.36216 4.69916 -0.361811 4.69953C -0.361561 4.69979 -0.361112 4.70026 -0.360613 4.70078C -0.359715 4.70173 -0.358217 4.7033 -0.356422 4.70517C -0.353032 4.70871 -0.347646 4.71433 -0.340887 4.72134C -0.327772 4.73494 -0.307511 4.75586 -0.281453 4.78251C -0.230163 4.83495 -0.152241 4.91384 -0.0510914 5.0142C 0.149492 5.21319 0.450492 5.50551 0.83996 5.86712C 1.6152 6.58677 2.76242 7.60027 4.21844 8.7481C 7.12212 11.0363 11.3174 13.903 16.3682 16.1431C 26.4955 20.6303 40.182 22.6519 54.2431 12.7102L 53.6658 11.8936C 39.9762 21.5728 26.6855 19.6207 16.7733 15.2289C 11.8042 13.0295 7.7142 10.2304 4.83745 7.96272C 3.40326 6.83259 2.28651 5.8456 1.52033 5.13425C 1.13909 4.78036 0.850015 4.49956 0.653203 4.30429C 0.555656 4.20752 0.483049 4.134 0.433486 4.08332C 0.409118 4.05841 0.39137 4.04008 0.379083 4.02733C 0.373142 4.02117 0.368979 4.01683 0.365994 4.01371C 0.364602 4.01226 0.363707 4.01132 0.363009 4.01059C 0.36271 4.01027 0.36256 4.01012 0.36241 4.00996C 0.36236 4.00991 0.362409 4.00996 0 4.35443ZM 54.2431 12.7102C 68.039 2.9559 78.8406 1.01171 86.1547 1.46935C 89.8206 1.69554 92.5965 2.52087 94.4972 3.29975C 95.4384 3.68457 96.1382 4.04896 96.6181 4.32472C 96.854 4.46015 97.0259 4.56825 97.1452 4.64639C 97.203 4.68421 97.2437 4.71196 97.2728 4.73217C 97.2864 4.74165 97.2953 4.74796 97.3022 4.75287C 97.3052 4.755 97.3068 4.75615 97.3083 4.75724C 97.3088 4.75763 97.3089 4.75768 97.3091 4.75788C 97.3092 4.7579 97.309 4.75779 97.309 4.7578C 97.3088 4.75766 97.3086 4.75746 97.6045 4.35443C 97.9004 3.95139 97.9 3.95111 97.8996 3.95079C 97.8993 3.95062 97.8988 3.95025 97.8984 3.94992C 97.8977 3.94941 97.8963 3.9484 97.8949 3.94739C 97.8925 3.94567 97.8883 3.94262 97.8835 3.93922C 97.8749 3.93305 97.8606 3.92292 97.8433 3.91091C 97.8105 3.88815 97.7586 3.85274 97.6931 3.80985C 97.5659 3.72657 97.3692 3.60304 97.1162 3.4576C 96.6181 3.17161 95.859 2.77731 94.8761 2.37431C 92.9284 1.57758 89.995 0.710863 86.2172 0.471303C 78.644 -0.00254599 67.6206 2.02699 53.6658 11.8936L 54.2431 12.7102Z"/>
<path id="path12_fill" d="M 8.01172 30.9219C 4.73047 30.0013 3.08984 27.8822 3.08984 24.5645L 3.08984 21.8438C 3.08984 19.9206 2.27865 18.959 0.65625 18.959L 0.65625 16.1289C 2.24219 16.1289 3.05339 15.222 3.08984 13.4082L 3.08984 10.5098C 3.08984 8.82357 3.5 7.46094 4.32031 6.42188C 5.14062 5.38281 6.37109 4.63086 8.01172 4.16602L 8.77734 6.36719C 8.08464 6.6224 7.56055 7.06901 7.20508 7.70703C 6.84961 8.33594 6.66276 9.21094 6.64453 10.332L 6.64453 13.2031C 6.64453 15.263 5.82878 16.7077 4.19727 17.5371C 5.82878 18.3757 6.64453 19.8294 6.64453 21.8984L 6.64453 24.7969C 6.6901 26.9297 7.40104 28.2331 8.77734 28.707L 8.01172 30.9219ZM 25.3613 18.7129L 22.0938 18.7129L 22.0938 26L 17.9922 26L 17.9922 6.09375L 25.3887 6.09375C 27.7402 6.09375 29.554 6.61784 30.8301 7.66602C 32.1061 8.71419 32.7441 10.1953 32.7441 12.1094C 32.7441 13.4674 32.4479 14.6022 31.8555 15.5137C 31.2721 16.416 30.3835 17.1361 29.1895 17.6738L 33.4961 25.8086L 33.4961 26L 29.0938 26L 25.3613 18.7129ZM 22.0938 15.3906L 25.4023 15.3906C 26.4323 15.3906 27.2298 15.1309 27.7949 14.6113C 28.36 14.0827 28.6426 13.3581 28.6426 12.4375C 28.6426 11.4987 28.3737 10.7604 27.8359 10.2227C 27.3073 9.6849 26.4915 9.41602 25.3887 9.41602L 22.0938 9.41602L 22.0938 15.3906ZM 47.8516 17.373L 39.9766 17.373L 39.9766 22.7051L 49.2188 22.7051L 49.2188 26L 35.875 26L 35.875 6.09375L 49.1914 6.09375L 49.1914 9.41602L 39.9766 9.41602L 39.9766 14.1602L 47.8516 14.1602L 47.8516 17.373ZM 61.9473 20.7773C 61.9473 20.0026 61.6738 19.4102 61.127 19C 60.5801 18.5807 59.5957 18.1432 58.1738 17.6875C 56.752 17.2227 55.6263 16.7669 54.7969 16.3203C 52.5365 15.099 51.4062 13.4538 51.4062 11.3848C 51.4062 10.3092 51.707 9.35221 52.3086 8.51367C 52.9193 7.66602 53.7897 7.00521 54.9199 6.53125C 56.0592 6.05729 57.3353 5.82031 58.748 5.82031C 60.1699 5.82031 61.4368 6.08008 62.5488 6.59961C 63.6608 7.11003 64.5221 7.83464 65.1328 8.77344C 65.7526 9.71224 66.0625 10.7786 66.0625 11.9727L 61.9609 11.9727C 61.9609 11.0612 61.6738 10.3548 61.0996 9.85352C 60.5254 9.3431 59.7188 9.08789 58.6797 9.08789C 57.6771 9.08789 56.8978 9.30208 56.3418 9.73047C 55.7858 10.1497 55.5078 10.7057 55.5078 11.3984C 55.5078 12.0456 55.8314 12.5879 56.4785 13.0254C 57.1348 13.4629 58.0964 13.873 59.3633 14.2559C 61.6966 14.9577 63.3965 15.8281 64.4629 16.8672C 65.5293 17.9062 66.0625 19.2005 66.0625 20.75C 66.0625 22.4727 65.4108 23.8262 64.1074 24.8105C 62.804 25.7858 61.0495 26.2734 58.8438 26.2734C 57.3125 26.2734 55.918 25.9954 54.6602 25.4395C 53.4023 24.8743 52.4408 24.1042 51.7754 23.1289C 51.1191 22.1536 50.791 21.0234 50.791 19.7383L 54.9062 19.7383C 54.9062 21.9349 56.2188 23.0332 58.8438 23.0332C 59.819 23.0332 60.5801 22.8372 61.127 22.4453C 61.6738 22.0443 61.9473 21.4883 61.9473 20.7773ZM 83.8359 9.41602L 77.7383 9.41602L 77.7383 26L 73.6367 26L 73.6367 9.41602L 67.6211 9.41602L 67.6211 6.09375L 83.8359 6.09375L 83.8359 9.41602ZM 91.0273 28.707C 92.4128 28.2148 93.1237 26.8932 93.1602 24.7422L 93.1602 21.8438C 93.1602 19.7839 93.9941 18.3529 95.6621 17.5508C 93.9941 16.7487 93.1602 15.2949 93.1602 13.1895L 93.1602 10.332C 93.1237 8.20833 92.4128 6.88672 91.0273 6.36719L 91.793 4.16602C 93.4245 4.62175 94.6504 5.36914 95.4707 6.4082C 96.291 7.43815 96.7057 8.79167 96.7148 10.4688L 96.7148 13.4082C 96.7513 15.222 97.5625 16.1289 99.1484 16.1289L 99.1484 18.959C 97.526 18.959 96.7148 19.9115 96.7148 21.8164L 96.7148 24.7832C 96.6419 27.9733 95.0013 30.0195 91.793 30.9219L 91.0273 28.707Z"/>
<path id="path13_fill" d="M 5.03906 19.1758L 12.5039 19.1758L 12.5039 22L 1.52344 22L 1.52344 4.9375L 5.03906 4.9375L 5.03906 19.1758ZM 13.7812 15.543C 13.7812 14.2852 14.0234 13.1641 14.5078 12.1797C 14.9922 11.1953 15.6875 10.4336 16.5938 9.89453C 17.5078 9.35547 18.5664 9.08594 19.7695 9.08594C 21.4805 9.08594 22.875 9.60937 23.9531 10.6562C 25.0391 11.7031 25.6445 13.125 25.7695 14.9219L 25.793 15.7891C 25.793 17.7344 25.25 19.2969 24.1641 20.4766C 23.0781 21.6484 21.6211 22.2344 19.793 22.2344C 17.9648 22.2344 16.5039 21.6484 15.4102 20.4766C 14.3242 19.3047 13.7812 17.7109 13.7812 15.6953L 13.7812 15.543ZM 17.168 15.7891C 17.168 16.9922 17.3945 17.9141 17.8477 18.5547C 18.3008 19.1875 18.9492 19.5039 19.793 19.5039C 20.6133 19.5039 21.2539 19.1914 21.7148 18.5664C 22.1758 17.9336 22.4062 16.9258 22.4062 15.543C 22.4062 14.3633 22.1758 13.4492 21.7148 12.8008C 21.2539 12.1523 20.6055 11.8281 19.7695 11.8281C 18.9414 11.8281 18.3008 12.1523 17.8477 12.8008C 17.3945 13.4414 17.168 14.4375 17.168 15.7891ZM 27.3516 15.543C 27.3516 14.2852 27.5937 13.1641 28.0781 12.1797C 28.5625 11.1953 29.2578 10.4336 30.1641 9.89453C 31.0781 9.35547 32.1367 9.08594 33.3398 9.08594C 35.0508 9.08594 36.4453 9.60937 37.5234 10.6562C 38.6094 11.7031 39.2148 13.125 39.3398 14.9219L 39.3633 15.7891C 39.3633 17.7344 38.8203 19.2969 37.7344 20.4766C 36.6484 21.6484 35.1914 22.2344 33.3633 22.2344C 31.5352 22.2344 30.0742 21.6484 28.9805 20.4766C 27.8945 19.3047 27.3516 17.7109 27.3516 15.6953L 27.3516 15.543ZM 30.7383 15.7891C 30.7383 16.9922 30.9648 17.9141 31.418 18.5547C 31.8711 19.1875 32.5195 19.5039 33.3633 19.5039C 34.1836 19.5039 34.8242 19.1914 35.2852 18.5664C 35.7461 17.9336 35.9766 16.9258 35.9766 15.543C 35.9766 14.3633 35.7461 13.4492 35.2852 12.8008C 34.8242 12.1523 34.1758 11.8281 33.3398 11.8281C 32.5117 11.8281 31.8711 12.1523 31.418 12.8008C 30.9648 13.4414 30.7383 14.4375 30.7383 15.7891ZM 52.8633 15.7773C 52.8633 17.7305 52.418 19.2969 51.5273 20.4766C 50.6445 21.6484 49.4492 22.2344 47.9414 22.2344C 46.6602 22.2344 45.625 21.7891 44.8359 20.8984L 44.8359 26.875L 41.4492 26.875L 41.4492 9.32031L 44.5898 9.32031L 44.707 10.5625C 45.5273 9.57812 46.5977 9.08594 47.918 9.08594C 49.4805 9.08594 50.6953 9.66406 51.5625 10.8203C 52.4297 11.9766 52.8633 13.5703 52.8633 15.6016L 52.8633 15.7773ZM 49.4766 15.5312C 49.4766 14.3516 49.2656 13.4414 48.8438 12.8008C 48.4297 12.1602 47.8242 11.8398 47.0273 11.8398C 45.9648 11.8398 45.2344 12.2461 44.8359 13.0586L 44.8359 18.25C 45.25 19.0859 45.9883 19.5039 47.0508 19.5039C 48.668 19.5039 49.4766 18.1797 49.4766 15.5312ZM 61.1719 22L 61.1719 4.9375L 67.1484 4.9375C 69.2188 4.9375 70.7891 5.33594 71.8594 6.13281C 72.9297 6.92188 73.4648 8.08203 73.4648 9.61328C 73.4648 10.4492 73.25 11.1875 72.8203 11.8281C 72.3906 12.4609 71.793 12.9258 71.0273 13.2227C 71.9023 13.4414 72.5898 13.8828 73.0898 14.5469C 73.5977 15.2109 73.8516 16.0234 73.8516 16.9844C 73.8516 18.625 73.3281 19.8672 72.2812 20.7109C 71.2344 21.5547 69.7422 21.9844 67.8047 22L 61.1719 22ZM 64.6875 14.5703L 64.6875 19.1758L 67.6992 19.1758C 68.5273 19.1758 69.1719 18.9805 69.6328 18.5898C 70.1016 18.1914 70.3359 17.6445 70.3359 16.9492C 70.3359 15.3867 69.5273 14.5938 67.9102 14.5703L 64.6875 14.5703ZM 64.6875 12.0859L 67.2891 12.0859C 69.0625 12.0547 69.9492 11.3477 69.9492 9.96484C 69.9492 9.19141 69.7227 8.63672 69.2695 8.30078C 68.8242 7.95703 68.1172 7.78516 67.1484 7.78516L 64.6875 7.78516L 64.6875 12.0859ZM 83.625 22C 83.4688 21.6953 83.3555 21.3164 83.2852 20.8633C 82.4648 21.7773 81.3984 22.2344 80.0859 22.2344C 78.8438 22.2344 77.8125 21.875 76.9922 21.1562C 76.1797 20.4375 75.7734 19.5312 75.7734 18.4375C 75.7734 17.0938 76.2695 16.0625 77.2617 15.3438C 78.2617 14.625 79.7031 14.2617 81.5859 14.2539L 83.1445 14.2539L 83.1445 13.5273C 83.1445 12.9414 82.9922 12.4727 82.6875 12.1211C 82.3906 11.7695 81.918 11.5938 81.2695 11.5938C 80.6992 11.5938 80.25 11.7305 79.9219 12.0039C 79.6016 12.2773 79.4414 12.6523 79.4414 13.1289L 76.0547 13.1289C 76.0547 12.3945 76.2813 11.7148 76.7344 11.0898C 77.1875 10.4648 77.8281 9.97656 78.6562 9.625C 79.4844 9.26563 80.4141 9.08594 81.4453 9.08594C 83.0078 9.08594 84.2461 9.48047 85.1602 10.2695C 86.082 11.0508 86.543 12.1523 86.543 13.5742L 86.543 19.0703C 86.5508 20.2734 86.7188 21.1836 87.0469 21.8008L 87.0469 22L 83.625 22ZM 80.8242 19.6445C 81.3242 19.6445 81.7852 19.5352 82.207 19.3164C 82.6289 19.0898 82.9414 18.7891 83.1445 18.4141L 83.1445 16.2344L 81.8789 16.2344C 80.1836 16.2344 79.2813 16.8203 79.1719 17.9922L 79.1602 18.1914C 79.1602 18.6133 79.3086 18.9609 79.6055 19.2344C 79.9023 19.5078 80.3086 19.6445 80.8242 19.6445ZM 94.418 19.5039C 95.043 19.5039 95.5508 19.332 95.9414 18.9883C 96.332 18.6445 96.5352 18.1875 96.5508 17.6172L 99.7266 17.6172C 99.7187 18.4766 99.4844 19.2656 99.0234 19.9844C 98.5625 20.6953 97.9297 21.25 97.125 21.6484C 96.3281 22.0391 95.4453 22.2344 94.4766 22.2344C 92.6641 22.2344 91.2344 21.6602 90.1875 20.5117C 89.1406 19.3555 88.6172 17.7617 88.6172 15.7305L 88.6172 15.5078C 88.6172 13.5547 89.1367 11.9961 90.1758 10.832C 91.2148 9.66797 92.6406 9.08594 94.4531 9.08594C 96.0391 9.08594 97.3086 9.53906 98.2617 10.4453C 99.2227 11.3438 99.7109 12.543 99.7266 14.043L 96.5508 14.043C 96.5352 13.3867 96.332 12.8555 95.9414 12.4492C 95.5508 12.0352 95.0352 11.8281 94.3945 11.8281C 93.6055 11.8281 93.0078 12.1172 92.6016 12.6953C 92.2031 13.2656 92.0039 14.1953 92.0039 15.4844L 92.0039 15.8359C 92.0039 17.1406 92.2031 18.0781 92.6016 18.6484C 93 19.2188 93.6055 19.5039 94.418 19.5039ZM 106.266 16.9141L 105.047 18.1328L 105.047 22L 101.66 22L 101.66 4L 105.047 4L 105.047 13.9727L 105.703 13.1289L 108.949 9.32031L 113.016 9.32031L 108.434 14.6055L 113.414 22L 109.523 22L 106.266 16.9141Z"/>
<path id="path14_fill" d="M 0 11.5185L 19.5 0L 39 11.5185L 39 34.5553L 19.5 46L 0 34.5554L 0 11.5185Z"/>
<path id="path15_fill" d="M 22 16.9194L 3.64289 16.9194L 3.64289 0L 0 0L 0 20.7949L 10.4286 20.7949L 10.4286 24L 22 16.9193L 22 16.9194Z"/>
<path id="path16_fill" d="M 17.765 14.5385C 18.5284 13.3077 18.9449 11.8463 18.9449 10.3077C 18.9449 6.07695 15.822 2.61546 12.0052 2.61546L 10.0622 2.61546L 10.0622 0L 0 6.53842L 11.9359 6.53842C 13.8095 6.53842 15.2669 8.23079 15.2669 10.2308C 15.2669 12.2308 13.7401 13.9232 11.9359 13.9232L 4.57995 13.9232L 4.57995 17.923L 15.128 17.923C 16.9323 17.923 18.459 19.6154 18.459 21.6154C 18.459 22.5385 18.1815 23.3847 17.6263 24L 21.6511 24C 21.8594 23.2309 21.9981 22.4616 21.9981 21.6154C 22.0676 18.3847 20.2633 15.6154 17.765 14.5385Z"/>
<path id="path17_fill" d="M 18.3854 46.4711C 16.4323 45.6025 13.898 44.1768 10.1693 41.8825C 8.26457 40.719 5.61732 39.1294 4.2937 38.3592C 1.6626 36.8351 0.790945 36.1468 0.306693 35.1963C 0.0161417 34.59 0 34.0984 0 23.3316L 0 12.106L 0.581102 11.4505C 1.71102 10.1887 5.64961 7.84523 8.03858 7.04223C 10.7181 6.12451 13.5429 7.14055 14.5921 9.40206L 15.0118 10.287L 14.9795 21.234L 14.9311 32.181L 13.8012 32.2302C 13.1878 32.2629 12.5098 32.2302 12.3161 32.181L 11.9449 32.0991L 11.9449 21.8403C 11.9449 10.5328 11.9772 10.9425 10.928 10.3034C 10.2823 9.89369 8.9748 9.8773 8.03858 10.2542C 7.65118 10.4017 6.47283 11.09 5.40748 11.7783C 4.34213 12.483 3.30906 13.1221 3.09921 13.2368L 2.74409 13.4334L 2.74409 23.5119L 2.74409 33.5903L 4.64882 34.8358C 8.7811 37.5726 19.9189 44.0785 20.4193 44.0621C 20.5 44.0457 24.5032 41.735 29.2972 38.9164L 38.0138 33.8034L 38.0138 23.4955L 38.0138 13.204L 29.2972 8.15659C 24.5032 5.37068 20.5 3.10917 20.4032 3.09278C 20.3224 3.09278 19.2571 3.68274 18.0626 4.4038C 16.8681 5.12486 15.7382 5.71482 15.5283 5.71482C 15.2055 5.71482 12.5906 4.48574 12.5906 4.33825C 12.5906 4.19076 17.2394 1.2082 18.3693 0.618238C 20.4839 -0.47974 21.1134 -0.315863 26.5693 2.76503C 33.2197 6.53421 40.1768 10.9917 40.6772 11.8111C 40.9839 12.3355 41 12.6304 41 23.6594C 41 34.5081 40.9839 34.9833 40.6933 35.4749C 40.1768 36.3435 40.2091 36.3107 32.687 40.7026C 30.6531 41.8989 28.1028 43.3902 27.0374 44.0129C 22.0012 46.9955 22.1465 46.9136 20.8228 46.9791C 19.7413 47.0119 19.4831 46.9627 18.3854 46.4711Z"/>
<path id="path18_fill" d="M 5.05236 18.8456C 3.58346 18.4523 2.72795 18.0098 1.93701 17.2068C 0.968504 16.2236 0.758661 15.6828 0.677953 13.9785C 0.613386 12.5855 0.645669 12.3725 1.03307 11.5695C 1.95315 9.66849 3.55118 8.9802 8.70039 8.27553C 13.1071 7.66919 14.0433 7.22672 14.0433 5.68627C 14.0433 4.96521 13.9787 4.80133 13.4299 4.26054C 12.5421 3.34283 11.5091 3.09701 8.66811 3.06423C 6.11772 3.04785 5.08465 3.27727 4.16457 4.06389C 3.66417 4.48997 2.90551 5.89931 2.90551 6.40733C 2.90551 6.62037 2.66339 6.70231 1.69488 6.80064C 0.145276 6.94813 0 6.83341 0 5.58794C 0.0161417 3.32644 1.63031 1.47462 4.43898 0.540524C 6.18228 -0.0330461 9.89488 -0.180536 11.961 0.245545C 14.4953 0.753565 16.2547 1.93348 17.0457 3.65419C 17.3524 4.34248 17.4331 4.76856 17.4331 5.88292C 17.4331 7.99694 16.7713 9.09492 14.8827 10.0618C 13.7205 10.6518 12.6067 10.9467 9.44291 11.4711C 4.82638 12.2414 4.03543 12.6019 4.03543 13.9457C 4.03543 14.4865 4.13228 14.7159 4.56811 15.1584C 5.27835 15.8794 6.15 16.0925 8.3937 16.0761C 10.4276 16.0761 11.4283 15.8467 12.4291 15.1748C 13.0102 14.7815 13.7205 13.6343 13.7205 13.0771C 13.7205 12.7658 13.9303 12.6838 15.0925 12.5363C 16.2386 12.3889 16.7874 12.6347 16.7874 13.2738C 16.7874 13.9948 15.8835 16.24 15.3024 16.9446C 14.689 17.6985 12.8972 18.5834 11.2669 18.9112C 9.52362 19.2717 6.5374 19.2389 5.05236 18.8456Z"/>
<path id="path19_fill" fill-rule="evenodd" d="M 9.97266 9.87891L 2.96484 9.87891L 2.96484 15.1289L 11.1562 15.1289L 11.1562 17.4961L 0 17.4961L 0 0.433594L 11.0742 0.433594L 11.0742 2.82422L 2.96484 2.82422L 2.96484 7.53516L 9.97266 7.53516L 9.97266 9.87891ZM 17.8477 8.98828L 20.2617 4.81641L 23.4258 4.81641L 19.5469 11.0625L 23.5547 17.4961L 20.4141 17.4961L 17.8828 13.1602L 15.3633 17.4961L 12.1992 17.4961L 16.207 11.0625L 12.3398 4.81641L 15.4805 4.81641L 17.8477 8.98828ZM 36.4688 11.2852C 36.4688 13.2461 36.0234 14.8105 35.1328 15.9785C 34.2422 17.1465 33.0469 17.7305 31.5469 17.7305C 30.1562 17.7305 29.043 17.2734 28.207 16.3594L 28.207 22.3711L 25.3594 22.3711L 25.3594 4.81641L 27.9844 4.81641L 28.1016 6.10547C 28.9375 5.08984 30.0742 4.58203 31.5117 4.58203C 33.0586 4.58203 34.2715 5.1582 35.1504 6.31055C 36.0293 7.4629 36.4688 9.06249 36.4688 11.1094L 36.4688 11.2852ZM 33.6328 11.0391C 33.6328 9.77343 33.3809 8.76954 32.877 8.02734C 32.373 7.28515 31.6523 6.91406 30.7148 6.91406C 29.5508 6.91406 28.7148 7.39453 28.207 8.35547L 28.207 13.9805C 28.7227 14.9648 29.5664 15.457 30.7383 15.457C 31.6445 15.457 32.3535 15.0918 32.8652 14.3613C 33.377 13.6309 33.6328 12.5234 33.6328 11.0391ZM 45.5156 7.41797C 45.1406 7.35547 44.7539 7.32422 44.3555 7.32422C 43.0508 7.32422 42.1719 7.82421 41.7188 8.82422L 41.7188 17.4961L 38.8711 17.4961L 38.8711 4.81641L 41.5898 4.81641L 41.6602 6.23438C 42.3477 5.13281 43.3008 4.58203 44.5195 4.58203C 44.9258 4.58203 45.2617 4.63672 45.5273 4.74609L 45.5156 7.41797ZM 52.6758 17.7305C 50.8711 17.7305 49.4082 17.1621 48.2871 16.0254C 47.166 14.8887 46.6055 13.375 46.6055 11.4844L 46.6055 11.1328C 46.6055 9.86718 46.8496 8.73633 47.3379 7.74023C 47.8262 6.74414 48.5117 5.96875 49.3945 5.41406C 50.2773 4.85937 51.2617 4.58203 52.3477 4.58203C 54.0742 4.58203 55.4082 5.13281 56.3496 6.23438C 57.291 7.33594 57.7617 8.89452 57.7617 10.9102L 57.7617 12.0586L 49.4766 12.0586C 49.5625 13.1055 49.9121 13.9336 50.5254 14.543C 51.1387 15.1523 51.9102 15.457 52.8398 15.457C 54.1445 15.457 55.207 14.9297 56.0273 13.875L 57.5625 15.3398C 57.0547 16.0977 56.377 16.6855 55.5293 17.1035C 54.6816 17.5215 53.7305 17.7305 52.6758 17.7305ZM 52.3359 6.86719C 51.5547 6.86719 50.9238 7.14062 50.4434 7.6875C 49.9629 8.23438 49.6562 8.99609 49.5234 9.97266L 54.9492 9.97266L 54.9492 9.76172C 54.8867 8.80859 54.6328 8.08789 54.1875 7.59961C 53.7422 7.11133 53.125 6.86719 52.3359 6.86719ZM 67.0781 14.0508C 67.0781 13.543 66.8691 13.1563 66.4512 12.8906C 66.0332 12.625 65.3399 12.3906 64.3711 12.1875C 63.4023 11.9844 62.5938 11.7266 61.9453 11.4141C 60.5234 10.7266 59.8125 9.73048 59.8125 8.42578C 59.8125 7.33203 60.2734 6.41797 61.1953 5.68359C 62.1172 4.94921 63.2891 4.58203 64.7109 4.58203C 66.2266 4.58203 67.4512 4.95703 68.3848 5.70703C 69.3184 6.45704 69.7852 7.42968 69.7852 8.625L 66.9375 8.625C 66.9375 8.07812 66.7344 7.62305 66.3281 7.25977C 65.9219 6.89648 65.3828 6.71484 64.7109 6.71484C 64.0859 6.71484 63.5762 6.85937 63.1816 7.14844C 62.7871 7.4375 62.5898 7.82422 62.5898 8.30859C 62.5898 8.7461 62.7734 9.08594 63.1406 9.32812C 63.5078 9.57031 64.25 9.81445 65.3672 10.0605C 66.4844 10.3066 67.3613 10.5996 67.998 10.9395C 68.6348 11.2793 69.1074 11.6875 69.416 12.1641C 69.7246 12.6406 69.8789 13.2187 69.8789 13.8984C 69.8789 15.0391 69.4063 15.9629 68.4609 16.6699C 67.5156 17.377 66.2774 17.7305 64.7461 17.7305C 63.707 17.7305 62.7813 17.543 61.9688 17.168C 61.1562 16.793 60.5234 16.2773 60.0703 15.6211C 59.6172 14.9648 59.3906 14.2578 59.3906 13.5L 62.1562 13.5C 62.1953 14.1719 62.4492 14.6895 62.918 15.0527C 63.3867 15.416 64.0078 15.5977 64.7812 15.5977C 65.5312 15.5977 66.1016 15.4551 66.4922 15.1699C 66.8828 14.8848 67.0781 14.5117 67.0781 14.0508ZM 79.4648 14.0508C 79.4648 13.543 79.2559 13.1563 78.8379 12.8906C 78.4199 12.625 77.7266 12.3906 76.7578 12.1875C 75.7891 11.9844 74.9805 11.7266 74.332 11.4141C 72.9101 10.7266 72.1992 9.73048 72.1992 8.42578C 72.1992 7.33203 72.6601 6.41797 73.582 5.68359C 74.5039 4.94921 75.6758 4.58203 77.0977 4.58203C 78.6133 4.58203 79.8379 4.95703 80.7715 5.70703C 81.7051 6.45704 82.1719 7.42968 82.1719 8.625L 79.3242 8.625C 79.3242 8.07812 79.1211 7.62305 78.7148 7.25977C 78.3086 6.89648 77.7695 6.71484 77.0977 6.71484C 76.4727 6.71484 75.9629 6.85937 75.5684 7.14844C 75.1738 7.4375 74.9766 7.82422 74.9766 8.30859C 74.9766 8.7461 75.1602 9.08594 75.5273 9.32812C 75.8945 9.57031 76.6367 9.81445 77.7539 10.0605C 78.8711 10.3066 79.748 10.5996 80.3848 10.9395C 81.0215 11.2793 81.4941 11.6875 81.8027 12.1641C 82.1113 12.6406 82.2656 13.2187 82.2656 13.8984C 82.2656 15.0391 81.793 15.9629 80.8477 16.6699C 79.9023 17.377 78.6641 17.7305 77.1328 17.7305C 76.0937 17.7305 75.168 17.543 74.3555 17.168C 73.543 16.793 72.9102 16.2773 72.457 15.6211C 72.0039 14.9648 71.7773 14.2578 71.7773 13.5L 74.543 13.5C 74.582 14.1719 74.8359 14.6895 75.3047 15.0527C 75.7734 15.416 76.3945 15.5977 77.168 15.5977C 77.918 15.5977 78.4883 15.4551 78.8789 15.1699C 79.2695 14.8848 79.4648 14.5117 79.4648 14.0508ZM 86.5195 14.4961C 87.0508 14.4961 87.4609 14.6465 87.75 14.9473C 88.0391 15.248 88.1836 15.625 88.1836 16.0781C 88.1836 16.5234 88.0391 16.8926 87.75 17.1855C 87.4609 17.4785 87.0508 17.625 86.5195 17.625C 86.0117 17.625 85.6094 17.4805 85.3125 17.1914C 85.0156 16.9023 84.8672 16.5313 84.8672 16.0781C 84.8672 15.625 85.0117 15.248 85.3008 14.9473C 85.5898 14.6465 85.9961 14.4961 86.5195 14.4961ZM 94.418 4.81641L 94.418 18.6211C 94.418 19.918 94.0957 20.9082 93.4512 21.5918C 92.8066 22.2754 91.8633 22.6172 90.6211 22.6172C 90.0977 22.6172 89.5938 22.5508 89.1094 22.418L 89.1094 20.168C 89.4062 20.2383 89.7422 20.2734 90.1172 20.2734C 91.0625 20.2734 91.5469 19.7578 91.5703 18.7266L 91.5703 4.81641L 94.418 4.81641ZM 91.3242 1.52344C 91.3242 1.08594 91.4629 0.722658 91.7402 0.433594C 92.0176 0.14453 92.4141 0 92.9297 0C 93.4453 0 93.8438 0.14453 94.125 0.433594C 94.4062 0.722658 94.5469 1.08594 94.5469 1.52344C 94.5469 1.95313 94.4062 2.31055 94.125 2.5957C 93.8438 2.88086 93.4453 3.02344 92.9297 3.02344C 92.4141 3.02344 92.0176 2.88086 91.7402 2.5957C 91.4629 2.31055 91.3242 1.95313 91.3242 1.52344ZM 104.566 14.0508C 104.566 13.543 104.357 13.1563 103.939 12.8906C 103.521 12.625 102.828 12.3906 101.859 12.1875C 100.891 11.9844 100.082 11.7266 99.4336 11.4141C 98.0117 10.7266 97.3008 9.73048 97.3008 8.42578C 97.3008 7.33203 97.7617 6.41797 98.6836 5.68359C 99.6055 4.94921 100.777 4.58203 102.199 4.58203C 103.715 4.58203 104.939 4.95703 105.873 5.70703C 106.807 6.45704 107.273 7.42968 107.273 8.625L 104.426 8.625C 104.426 8.07812 104.223 7.62305 103.816 7.25977C 103.41 6.89648 102.871 6.71484 102.199 6.71484C 101.574 6.71484 101.064 6.85937 100.67 7.14844C 100.275 7.4375 100.078 7.82422 100.078 8.30859C 100.078 8.7461 100.262 9.08594 100.629 9.32812C 100.996 9.57031 101.738 9.81445 102.855 10.0605C 103.973 10.3066 104.85 10.5996 105.486 10.9395C 106.123 11.2793 106.596 11.6875 106.904 12.1641C 107.213 12.6406 107.367 13.2187 107.367 13.8984C 107.367 15.0391 106.895 15.9629 105.949 16.6699C 105.004 17.377 103.766 17.7305 102.234 17.7305C 101.195 17.7305 100.27 17.543 99.457 17.168C 98.6445 16.793 98.0117 16.2773 97.5586 15.6211C 97.1055 14.9648 96.8789 14.2578 96.8789 13.5L 99.6445 13.5C 99.6836 14.1719 99.9375 14.6895 100.406 15.0527C 100.875 15.416 101.496 15.5977 102.27 15.5977C 103.02 15.5977 103.59 15.4551 103.98 15.1699C 104.371 14.8848 104.566 14.5117 104.566 14.0508Z"/>
<path id="path20_fill" d="M 4.06641 4.9375L 10.3594 19.9961L 16.6758 4.9375L 18.5977 4.9375L 18.5977 22L 17.1562 22L 17.1562 14.5703L 17.2734 6.95312L 10.9219 22L 9.80859 22L 3.48047 7.01172L 3.59766 14.5234L 3.59766 22L 2.15625 22L 2.15625 4.9375L 4.06641 4.9375ZM 24.1641 22L 22.7578 22L 22.7578 9.32031L 24.1641 9.32031L 24.1641 22ZM 22.5117 5.65234C 22.5117 5.38672 22.5977 5.16406 22.7695 4.98438C 22.9414 4.79688 23.1758 4.70312 23.4727 4.70312C 23.7695 4.70312 24.0039 4.79688 24.1758 4.98438C 24.3555 5.16406 24.4453 5.38672 24.4453 5.65234C 24.4453 5.91797 24.3555 6.14062 24.1758 6.32031C 24.0039 6.5 23.7695 6.58984 23.4727 6.58984C 23.1758 6.58984 22.9414 6.5 22.7695 6.32031C 22.5977 6.14062 22.5117 5.91797 22.5117 5.65234ZM 32.6719 21.0508C 33.6484 21.0508 34.4648 20.7773 35.1211 20.2305C 35.7852 19.6758 36.1445 18.9609 36.1992 18.0859L 37.5469 18.0859C 37.5078 18.8594 37.2656 19.5664 36.8203 20.207C 36.375 20.8398 35.7812 21.3359 35.0391 21.6953C 34.3047 22.0547 33.5156 22.2344 32.6719 22.2344C 31.0078 22.2344 29.6875 21.6562 28.7109 20.5C 27.7422 19.3437 27.2578 17.7891 27.2578 15.8359L 27.2578 15.4141C 27.2578 14.1641 27.4766 13.0586 27.9141 12.0977C 28.3516 11.1367 28.9766 10.3945 29.7891 9.87109C 30.6094 9.34766 31.5664 9.08594 32.6602 9.08594C 34.0508 9.08594 35.1953 9.5 36.0938 10.3281C 37 11.1563 37.4844 12.2461 37.5469 13.5977L 36.1992 13.5977C 36.1367 12.6055 35.7773 11.8047 35.1211 11.1953C 34.4727 10.5859 33.6523 10.2812 32.6602 10.2812C 31.3945 10.2812 30.4102 10.7383 29.707 11.6523C 29.0117 12.5664 28.6641 13.8477 28.6641 15.4961L 28.6641 15.9062C 28.6641 17.5234 29.0117 18.7852 29.707 19.6914C 30.4102 20.5977 31.3984 21.0508 32.6719 21.0508ZM 46.2188 10.5156C 45.9219 10.4609 45.6055 10.4336 45.2695 10.4336C 44.3945 10.4336 43.6523 10.6797 43.043 11.1719C 42.4414 11.6562 42.0117 12.3633 41.7539 13.293L 41.7539 22L 40.3594 22L 40.3594 9.32031L 41.7305 9.32031L 41.7539 11.3359C 42.4961 9.83594 43.6875 9.08594 45.3281 9.08594C 45.7187 9.08594 46.0273 9.13672 46.2539 9.23828L 46.2188 10.5156ZM 47.4375 15.4727C 47.4375 14.2539 47.6719 13.1562 48.1406 12.1797C 48.6172 11.2031 49.2852 10.4453 50.1445 9.90625C 51.0117 9.35938 51.9922 9.08594 53.0859 9.08594C 54.7734 9.08594 56.1406 9.67969 57.1875 10.8672C 58.2344 12.0469 58.7578 13.6133 58.7578 15.5664L 58.7578 15.8594C 58.7578 17.0859 58.5195 18.1914 58.043 19.1758C 57.5742 20.1523 56.9102 20.9062 56.0508 21.4375C 55.1914 21.9687 54.2109 22.2344 53.1094 22.2344C 51.4297 22.2344 50.0625 21.6445 49.0078 20.4648C 47.9609 19.2773 47.4375 17.707 47.4375 15.7539L 47.4375 15.4727ZM 48.8438 15.8594C 48.8438 17.375 49.2344 18.6211 50.0156 19.5977C 50.8047 20.5664 51.8359 21.0508 53.1094 21.0508C 54.375 21.0508 55.3984 20.5664 56.1797 19.5977C 56.9687 18.6211 57.3633 17.3359 57.3633 15.7422L 57.3633 15.4727C 57.3633 14.5039 57.1836 13.6172 56.8242 12.8125C 56.4648 12.0078 55.9609 11.3867 55.3125 10.9492C 54.6641 10.5039 53.9219 10.2812 53.0859 10.2812C 51.8359 10.2812 50.8164 10.7734 50.0273 11.7578C 49.2383 12.7344 48.8438 14.0156 48.8438 15.6016L 48.8438 15.8594ZM 69.2578 18.7773C 69.2578 18.082 68.9766 17.5234 68.4141 17.1016C 67.8594 16.6797 67.0195 16.3516 65.8945 16.1172C 64.7695 15.875 63.8945 15.6016 63.2695 15.2969C 62.6523 14.9844 62.1914 14.6055 61.8867 14.1602C 61.5898 13.7148 61.4414 13.1758 61.4414 12.543C 61.4414 11.543 61.8594 10.7187 62.6953 10.0703C 63.5313 9.41406 64.6016 9.08594 65.9062 9.08594C 67.3203 9.08594 68.4531 9.4375 69.3047 10.1406C 70.1641 10.8359 70.5938 11.7461 70.5938 12.8711L 69.1875 12.8711C 69.1875 12.1289 68.875 11.5117 68.25 11.0195C 67.6328 10.5273 66.8516 10.2812 65.9062 10.2812C 64.9844 10.2812 64.2422 10.4883 63.6797 10.9023C 63.125 11.3086 62.8477 11.8398 62.8477 12.4961C 62.8477 13.1289 63.0781 13.6211 63.5391 13.9727C 64.0078 14.3164 64.8555 14.6328 66.082 14.9219C 67.3164 15.2109 68.2383 15.5195 68.8477 15.8477C 69.4648 16.1758 69.9219 16.5703 70.2188 17.0312C 70.5156 17.4922 70.6641 18.0508 70.6641 18.707C 70.6641 19.7773 70.2305 20.6328 69.3633 21.2734C 68.5039 21.9141 67.3789 22.2344 65.9883 22.2344C 64.5117 22.2344 63.3125 21.8789 62.3906 21.168C 61.4766 20.4492 61.0195 19.543 61.0195 18.4492L 62.4258 18.4492C 62.4805 19.2695 62.8242 19.9102 63.457 20.3711C 64.0977 20.8242 64.9414 21.0508 65.9883 21.0508C 66.9648 21.0508 67.7539 20.8359 68.3555 20.4062C 68.957 19.9766 69.2578 19.4336 69.2578 18.7773ZM 78.7383 22.2344C 77.6602 22.2344 76.6836 21.9687 75.8086 21.4375C 74.9414 20.9062 74.2656 20.168 73.7812 19.2227C 73.2969 18.2695 73.0547 17.2031 73.0547 16.0234L 73.0547 15.5195C 73.0547 14.3008 73.2891 13.2031 73.7578 12.2266C 74.2344 11.25 74.8945 10.4844 75.7383 9.92969C 76.582 9.36719 77.4961 9.08594 78.4805 9.08594C 80.0195 9.08594 81.2383 9.61328 82.1367 10.668C 83.043 11.7148 83.4961 13.1484 83.4961 14.9688L 83.4961 15.7539L 74.4492 15.7539L 74.4492 16.0234C 74.4492 17.4609 74.8594 18.6602 75.6797 19.6211C 76.5078 20.5742 77.5469 21.0508 78.7969 21.0508C 79.5469 21.0508 80.207 20.9141 80.7773 20.6406C 81.3555 20.3672 81.8789 19.9297 82.3477 19.3281L 83.2266 19.9961C 82.1953 21.4883 80.6992 22.2344 78.7383 22.2344ZM 78.4805 10.2812C 77.4258 10.2812 76.5352 10.668 75.8086 11.4414C 75.0898 12.2148 74.6523 13.2539 74.4961 14.5586L 82.1016 14.5586L 82.1016 14.4062C 82.0625 13.1875 81.7148 12.1953 81.0586 11.4297C 80.4023 10.6641 79.543 10.2812 78.4805 10.2812ZM 92.0859 10.5156C 91.7891 10.4609 91.4727 10.4336 91.1367 10.4336C 90.2617 10.4336 89.5195 10.6797 88.9102 11.1719C 88.3086 11.6562 87.8789 12.3633 87.6211 13.293L 87.6211 22L 86.2266 22L 86.2266 9.32031L 87.5977 9.32031L 87.6211 11.3359C 88.3633 9.83594 89.5547 9.08594 91.1953 9.08594C 91.5859 9.08594 91.8945 9.13672 92.1211 9.23828L 92.0859 10.5156ZM 98.4727 20.0664L 102.328 9.32031L 103.77 9.32031L 99.0352 22L 97.8984 22L 93.1406 9.32031L 94.582 9.32031L 98.4727 20.0664ZM 107.648 22L 106.242 22L 106.242 9.32031L 107.648 9.32031L 107.648 22ZM 105.996 5.65234C 105.996 5.38672 106.082 5.16406 106.254 4.98438C 106.426 4.79688 106.66 4.70312 106.957 4.70312C 107.254 4.70312 107.488 4.79688 107.66 4.98438C 107.84 5.16406 107.93 5.38672 107.93 5.65234C 107.93 5.91797 107.84 6.14062 107.66 6.32031C 107.488 6.5 107.254 6.58984 106.957 6.58984C 106.66 6.58984 106.426 6.5 106.254 6.32031C 106.082 6.14062 105.996 5.91797 105.996 5.65234ZM 116.156 21.0508C 117.133 21.0508 117.949 20.7773 118.605 20.2305C 119.27 19.6758 119.629 18.9609 119.684 18.0859L 121.031 18.0859C 120.992 18.8594 120.75 19.5664 120.305 20.207C 119.859 20.8398 119.266 21.3359 118.523 21.6953C 117.789 22.0547 117 22.2344 116.156 22.2344C 114.492 22.2344 113.172 21.6562 112.195 20.5C 111.227 19.3437 110.742 17.7891 110.742 15.8359L 110.742 15.4141C 110.742 14.1641 110.961 13.0586 111.398 12.0977C 111.836 11.1367 112.461 10.3945 113.273 9.87109C 114.094 9.34766 115.051 9.08594 116.145 9.08594C 117.535 9.08594 118.68 9.5 119.578 10.3281C 120.484 11.1563 120.969 12.2461 121.031 13.5977L 119.684 13.5977C 119.621 12.6055 119.262 11.8047 118.605 11.1953C 117.957 10.5859 117.137 10.2812 116.145 10.2812C 114.879 10.2812 113.895 10.7383 113.191 11.6523C 112.496 12.5664 112.148 13.8477 112.148 15.4961L 112.148 15.9062C 112.148 17.5234 112.496 18.7852 113.191 19.6914C 113.895 20.5977 114.883 21.0508 116.156 21.0508ZM 128.754 22.2344C 127.676 22.2344 126.699 21.9687 125.824 21.4375C 124.957 20.9062 124.281 20.168 123.797 19.2227C 123.312 18.2695 123.07 17.2031 123.07 16.0234L 123.07 15.5195C 123.07 14.3008 123.305 13.2031 123.773 12.2266C 124.25 11.25 124.91 10.4844 125.754 9.92969C 126.598 9.36719 127.512 9.08594 128.496 9.08594C 130.035 9.08594 131.254 9.61328 132.152 10.668C 133.059 11.7148 133.512 13.1484 133.512 14.9688L 133.512 15.7539L 124.465 15.7539L 124.465 16.0234C 124.465 17.4609 124.875 18.6602 125.695 19.6211C 126.523 20.5742 127.563 21.0508 128.812 21.0508C 129.562 21.0508 130.223 20.9141 130.793 20.6406C 131.371 20.3672 131.895 19.9297 132.363 19.3281L 133.242 19.9961C 132.211 21.4883 130.715 22.2344 128.754 22.2344ZM 128.496 10.2812C 127.441 10.2812 126.551 10.668 125.824 11.4414C 125.105 12.2148 124.668 13.2539 124.512 14.5586L 132.117 14.5586L 132.117 14.4062C 132.078 13.1875 131.73 12.1953 131.074 11.4297C 130.418 10.6641 129.559 10.2812 128.496 10.2812ZM 143.836 18.7773C 143.836 18.082 143.555 17.5234 142.992 17.1016C 142.438 16.6797 141.598 16.3516 140.473 16.1172C 139.348 15.875 138.473 15.6016 137.848 15.2969C 137.23 14.9844 136.77 14.6055 136.465 14.1602C 136.168 13.7148 136.02 13.1758 136.02 12.543C 136.02 11.543 136.438 10.7187 137.273 10.0703C 138.109 9.41406 139.18 9.08594 140.484 9.08594C 141.898 9.08594 143.031 9.4375 143.883 10.1406C 144.742 10.8359 145.172 11.7461 145.172 12.8711L 143.766 12.8711C 143.766 12.1289 143.453 11.5117 142.828 11.0195C 142.211 10.5273 141.43 10.2812 140.484 10.2812C 139.563 10.2812 138.82 10.4883 138.258 10.9023C 137.703 11.3086 137.426 11.8398 137.426 12.4961C 137.426 13.1289 137.656 13.6211 138.117 13.9727C 138.586 14.3164 139.434 14.6328 140.66 14.9219C 141.895 15.2109 142.816 15.5195 143.426 15.8477C 144.043 16.1758 144.5 16.5703 144.797 17.0312C 145.094 17.4922 145.242 18.0508 145.242 18.707C 145.242 19.7773 144.809 20.6328 143.941 21.2734C 143.082 21.9141 141.957 22.2344 140.566 22.2344C 139.09 22.2344 137.891 21.8789 136.969 21.168C 136.055 20.4492 135.598 19.543 135.598 18.4492L 137.004 18.4492C 137.059 19.2695 137.402 19.9102 138.035 20.3711C 138.676 20.8242 139.52 21.0508 140.566 21.0508C 141.543 21.0508 142.332 20.8359 142.934 20.4062C 143.535 19.9766 143.836 19.4336 143.836 18.7773Z"/>
</defs>
</svg>
