<svg xmlns="http://www.w3.org/2000/svg" xmlns:xlink="http://www.w3.org/1999/xlink" width="200" height="46" version="1.1" viewBox="0 0 200 46"><title>bootstrap_4_logo</title><desc>Created using Figma</desc><g id="Canvas" transform="translate(-754 1210)"><g id="bootstrap_4_logo"><g id="Group 3"><mask id="mask0_outline" mask-type="alpha"><g id="Clip 2"><use fill="#FFF" transform="translate(754.012 -1209.97)" xlink:href="#path0_fill"/></g></mask><g id="Fill 1" mask="url(#mask0_outline)"><use fill="#4D3F71" transform="translate(754 -1209.97)" xlink:href="#path1_fill"/></g></g><g id="Fill 4"><use fill="#FFFFFE" transform="translate(767 -1199)" xlink:href="#path2_fill"/></g><g id="Fill 5"><use fill="#FFF" transform="translate(809 -1198)" xlink:href="#path3_fill"/></g><g id="Fill 6"><use fill="#FFF" transform="translate(829 -1192)" xlink:href="#path4_fill"/></g><g id="Fill 7"><use fill="#FFF" transform="translate(846 -1192)" xlink:href="#path5_fill"/></g><g id="Fill 8"><use fill="#FFF" transform="translate(862 -1198)" xlink:href="#path6_fill"/></g><g id="Fill 9"><use fill="#FFF" transform="translate(870 -1192)" xlink:href="#path7_fill"/></g><g id="Fill 10"><use fill="#FFF" transform="translate(887 -1198)" xlink:href="#path8_fill"/></g><g id="Fill 11"><use fill="#FFF" transform="translate(896 -1192)" xlink:href="#path9_fill"/></g><g id="Fill 12"><use fill="#FFF" transform="translate(905 -1192)" xlink:href="#path10_fill"/></g><g id="Fill 13"><use fill="#FFF" transform="translate(923 -1192)" xlink:href="#path11_fill"/></g><g id="4"><use fill="#FEF641" transform="translate(940 -1210)" xlink:href="#path12_fill"/></g></g></g><defs><path id="path0_fill" fill-rule="evenodd" d="M 22.9793 0L 0 0L 0 45.9586L 45.9586 45.9586L 45.9586 0L 22.9793 0Z"/><path id="path1_fill" fill-rule="evenodd" d="M 45.9707 38.3088C 45.9707 42.5229 42.5229 45.9707 38.3088 45.9707L 7.66171 45.9707C 3.44779 45.9707 0 42.5229 0 38.3088L 0 7.66171C 0 3.44779 3.44779 0 7.66171 0L 38.3088 0C 42.5229 0 45.9707 3.44779 45.9707 7.66171L 45.9707 38.3088Z"/><path id="path2_fill" fill-rule="evenodd" d="M 4.44153 23.1427L 12.2944 23.1427C 13.6447 23.1427 14.6964 22.7722 15.4356 22.0234C 16.1818 21.2822 16.5584 20.2234 16.5584 18.8621C 16.5584 17.5234 16.1888 16.5024 15.4356 15.7763C 14.6823 15.0503 13.6447 14.7024 12.2944 14.7024L 4.44153 14.7024L 4.44153 23.1427ZM 4.44153 11.3067L 11.6904 11.3067C 12.7564 11.3067 13.6447 10.9891 14.3554 10.3387C 15.066 9.68825 15.4214 8.76558 15.4214 7.55552C 15.4214 6.19417 15.1015 5.23369 14.4619 4.68154C 13.8224 4.1294 12.8985 3.84949 11.6904 3.84949L 4.44153 3.84949L 4.44153 11.3067ZM 0 0L 12.3299 0C 14.604 0 16.4306 0.551941 17.8021 1.66371C 19.1737 2.77548 19.863 4.44688 19.863 6.69327C 19.863 8.05462 19.5503 9.21917 18.9249 10.1873C 18.2995 11.1553 17.4042 11.9117 16.2386 12.441L 16.2386 12.5167C 17.8021 12.8722 18.9889 13.6588 19.7919 14.8763C 20.595 16.1015 21 17.6293 21 19.4747C 21 20.5335 20.8223 21.5243 20.4671 22.4395C 20.1117 23.3621 19.5574 24.1562 18.797 24.8218C 18.0366 25.4874 17.0701 26.0167 15.8832 26.41C 14.6964 26.8032 13.2893 27 11.6549 27L 0 27L 0 0Z"/><path id="path3_fill" fill-rule="evenodd" d="M 2.80396 18.5218L 8.0794 18.5218C 8.98499 18.5218 9.62101 18.4883 9.98727 18.4214C 10.6328 18.3068 11.1725 18.1159 11.6062 17.8486C 12.0398 17.5812 12.396 17.192 12.6756 16.6812C 12.955 16.1701 13.0948 15.5804 13.0948 14.9119C 13.0948 14.129 12.8925 13.4484 12.4877 12.8705C 12.083 12.2929 11.5218 11.8871 10.8039 11.653C 10.0859 11.4193 9.05268 11.3021 7.70367 11.3021L 2.80396 11.3021L 2.80396 18.5218ZM 2.80396 8.82393L 7.38576 8.82393C 8.62879 8.82393 9.51978 8.74296 10.0597 8.58044C 10.7727 8.37058 11.31 8.02167 11.6712 7.53467C 12.0327 7.04768 12.2132 6.43669 12.2132 5.70111C 12.2132 5.00426 12.0445 4.39033 11.7073 3.86031C 11.3698 3.33029 10.8883 2.96769 10.262 2.77171C 9.63542 2.57613 8.56111 2.47815 7.03884 2.47815L 2.80396 2.47815L 2.80396 8.82393ZM 0 21L 0 0L 7.94938 0C 9.56815 0 10.8664 0.212595 11.8446 0.637395C 12.8227 1.06239 13.5885 1.7166 14.1428 2.59984C 14.6968 3.48328 14.9738 4.4072 14.9738 5.3718C 14.9738 6.26951 14.7282 7.11461 14.2368 7.9073C 13.7452 8.69998 13.0032 9.33972 12.0108 9.82672C 13.2921 10.1991 14.2776 10.8343 14.9665 11.7319C 15.6554 12.6296 16 13.6896 16 14.912C 16 15.8956 15.7906 16.8099 15.3713 17.6552C 14.9523 18.5003 14.4341 19.1522 13.8176 19.6104C 13.201 20.0688 12.4276 20.4152 11.4977 20.6489C 10.5679 20.883 9.42843 21 8.07943 21L 0 21Z"/><path id="path4_fill" fill-rule="evenodd" d="M 2.789 7.99988C 2.789 9.96025 3.23606 11.4282 4.1306 12.4036C 5.02513 13.3789 6.15081 13.8666 7.50763 13.8666C 8.85437 13.8666 9.9747 13.3766 10.8694 12.3963C 11.7638 11.4162 12.211 9.92207 12.211 7.91348C 12.211 6.02042 11.7613 4.58631 10.8618 3.61075C 9.96214 2.63539 8.84408 2.14771 7.50763 2.14771C 6.15081 2.14771 5.02513 2.63302 4.1306 3.60347C 3.23606 4.5743 2.789 6.03951 2.789 7.99988ZM 0 7.9999C 0 5.16533 0.823934 3.06543 2.47242 1.70078C 3.84921 0.56719 5.52733 0 7.50762 0C 9.70855 0 11.5075 0.689603 12.9045 2.06841C 14.3012 3.44742 15 5.35269 15 7.78381C 15 9.75363 14.6911 11.3033 14.0727 12.4325C 13.4548 13.5616 12.5552 14.4384 11.3745 15.063C 10.1933 15.6877 8.90437 16 7.50762 16C 5.26634 16 3.45464 15.313 2.0727 13.9387C 0.690762 12.5646 0 10.5851 0 7.9999Z"/><path id="path5_fill" fill-rule="evenodd" d="M 2.789 7.99988C 2.789 9.96025 3.23607 11.4282 4.13061 12.4036C 5.02516 13.3789 6.15085 13.8666 7.50749 13.8666C 8.85425 13.8666 9.97459 13.3766 10.8693 12.3963C 11.7639 11.4162 12.2112 9.92207 12.2112 7.91348C 12.2112 6.02042 11.7612 4.58631 10.8619 3.61075C 9.96224 2.63539 8.84396 2.14771 7.50749 2.14771C 6.15085 2.14771 5.02516 2.63302 4.13061 3.60347C 3.23607 4.5743 2.789 6.03951 2.789 7.99988ZM 0 7.9999C 0 5.16533 0.823945 3.06543 2.47245 1.70078C 3.84926 0.56719 5.52741 0 7.50751 0C 9.70847 0 11.5077 0.689603 12.9046 2.06841C 14.3014 3.44742 15 5.35269 15 7.78381C 15 9.75363 14.691 11.3033 14.0727 12.4325C 13.4548 13.5616 12.5551 14.4384 11.3745 15.063C 10.1934 15.6877 8.90429 16 7.50751 16C 5.26642 16 3.45468 15.313 2.07273 13.9387C 0.690772 12.5646 0 10.5851 0 7.9999Z"/><path id="path6_fill" fill-rule="evenodd" d="M 6.64871 18.4603L 7 20.7678C 6.31531 20.9225 5.70277 21 5.16218 21C 4.27915 21 3.59465 20.8498 3.10812 20.5502C 2.62159 20.2504 2.27915 19.8561 2.08118 19.3673C 1.88303 18.8788 1.78376 17.8508 1.78376 16.2835L 1.78376 7.41591L 0 7.41591L 0 5.3843L 1.78376 5.3843L 1.78376 1.56736L 4.20277 0L 4.20277 5.3843L 6.64871 5.3843L 6.64871 7.41591L 4.20277 7.41591L 4.20277 16.4285C 4.20277 17.1737 4.24539 17.6527 4.33118 17.8653C 4.41661 18.0781 4.55627 18.2477 4.75 18.3731C 4.94354 18.499 5.22066 18.562 5.581 18.562C 5.85129 18.562 6.2072 18.5281 6.64871 18.4603Z"/><path id="path7_fill" fill-rule="evenodd" d="M 0 11.0846L 2.62359 10.681C 2.77089 11.7095 3.18102 12.4973 3.85438 13.045C 4.52733 13.5927 5.46834 13.8666 6.67699 13.8666C 7.89511 13.8666 8.79928 13.624 9.38892 13.1387C 9.97856 12.6535 10.2734 12.0842 10.2734 11.4306C 10.2734 10.8445 10.013 10.3834 9.49216 10.0469C 9.12852 9.81621 8.22454 9.52297 6.78003 9.16754C 4.83442 8.68695 3.4857 8.27149 2.73427 7.92059C 1.98223 7.57008 1.41231 7.08456 1.02452 6.46463C 0.636124 5.84489 0.442128 5.16041 0.442128 4.41078C 0.442128 3.72846 0.601712 3.09672 0.921082 2.51516C 1.24045 1.934 1.67513 1.45104 2.22553 1.06668C 2.63828 0.768915 3.20075 0.516612 3.91334 0.30977C 4.62554 0.103322 5.38945 0 6.20528 0C 7.43346 0 8.51211 0.172991 9.44044 0.518776C 10.3692 0.864758 11.0544 1.33315 11.4967 1.92416C 11.9389 2.51516 12.2433 3.30592 12.4106 4.29545L 9.81636 4.64143C 9.69843 3.85363 9.35693 3.23842 8.79184 2.79639C 8.22695 2.35457 7.42863 2.13336 6.39686 2.13336C 5.17835 2.13336 4.30878 2.33036 3.78797 2.72436C 3.26695 3.11856 3.00675 3.57967 3.00675 4.10809C 3.00675 4.44463 3.11482 4.74732 3.33115 5.01615C 3.54708 5.29502 3.88597 5.52568 4.34802 5.70811C 4.61346 5.80416 5.39448 6.02517 6.69168 6.37115C 8.56846 6.86119 9.87774 7.26248 10.6195 7.57461C 11.3615 7.88713 11.9437 8.34116 12.3663 8.93689C 12.7887 9.53281 13 10.2726 13 11.1566C 13 12.0216 12.742 12.836 12.2264 13.5998C 11.7102 14.364 10.9661 14.9548 9.99325 15.373C 9.02045 15.7908 7.91986 16 6.69168 16C 4.65753 16 3.10737 15.5869 2.04119 14.7603C 0.975216 13.9339 0.294819 12.7086 0 11.0846Z"/><path id="path8_fill" fill-rule="evenodd" d="M 6.64852 18.4603L 7 20.7678C 6.31531 20.9225 5.70258 21 5.16218 21C 4.27915 21 3.59465 20.8498 3.10812 20.5502C 2.62159 20.2504 2.27915 19.8561 2.08118 19.3673C 1.88284 18.8788 1.78376 17.8508 1.78376 16.2835L 1.78376 7.41591L 0 7.41591L 0 5.3843L 1.78376 5.3843L 1.78376 1.56736L 4.20277 0L 4.20277 5.3843L 6.64852 5.3843L 6.64852 7.41591L 4.20277 7.41591L 4.20277 16.4285C 4.20277 17.1737 4.24539 17.6527 4.33118 17.8653C 4.41661 18.0781 4.55627 18.2477 4.74982 18.3731C 4.94354 18.499 5.22066 18.562 5.581 18.562C 5.85129 18.562 6.2072 18.5281 6.64852 18.4603Z"/><path id="path9_fill" fill-rule="evenodd" d="M 0 16L 0 0.353629L 2.2461 0.353629L 2.2461 2.72564C 2.81912 1.61567 3.34841 0.883871 3.8336 0.530242C 4.31898 0.176814 4.85263 0 5.43493 0C 6.27601 0 7.13109 0.285035 8 0.854503L 7.14037 3.31482C 6.53043 2.93182 5.9203 2.74032 5.31017 2.74032C 4.7646 2.74032 4.27506 2.91472 3.84061 3.26312C 3.40596 3.61212 3.09645 4.0957 2.9115 4.71445C 2.63436 5.65746 2.4956 6.68878 2.4956 7.8084L 2.4956 16L 0 16Z"/><path id="path10_fill" fill-rule="evenodd" d="M 11.3343 7.97119C 10.3321 8.35555 8.82921 8.68244 6.82519 8.95128C 5.69021 9.10498 4.88734 9.27797 4.41722 9.47025C 3.9469 9.66253 3.58378 9.94357 3.32831 10.3134C 3.07262 10.6835 2.94489 11.0943 2.94489 11.5459C 2.94489 12.2377 3.2234 12.8144 3.78084 13.2757C 4.33786 13.737 5.1535 13.9674 6.22712 13.9674C 7.29049 13.9674 8.23617 13.749 9.06458 13.3115C 9.89279 12.8746 10.5009 12.2763 10.8896 11.517C 11.1861 10.9311 11.3343 10.0662 11.3343 8.92254L 11.3343 7.97119ZM 11.5645 13.7657C 10.5419 14.5824 9.55773 15.1591 8.61184 15.4954C 7.66616 15.8317 6.65117 16 5.56749 16C 3.77811 16 2.40273 15.5891 1.44176 14.7676C 0.480588 13.9458 0 12.896 0 11.618C 0 10.8683 0.181555 10.1836 0.544457 9.56391C 0.907359 8.94397 1.38292 8.44684 1.97114 8.07193C 2.55874 7.69722 3.22088 7.41402 3.95716 7.22154C 4.4991 7.08712 5.31683 6.95723 6.41119 6.83246C 8.64011 6.58252 10.2812 6.28455 11.3343 5.93877C 11.3444 5.58334 11.3498 5.35741 11.3498 5.26117C 11.3498 4.20414 11.0891 3.45943 10.5675 3.02705C 9.862 2.44096 8.81371 2.14773 7.42346 2.14773C 6.12472 2.14773 5.16606 2.36165 4.54768 2.78911C 3.92889 3.21696 3.47154 3.97348 3.17502 5.05945L 0.475562 4.71347C 0.720987 3.6275 1.12493 2.75073 1.68719 2.08278C 2.24944 1.41502 3.06215 0.900774 4.12594 0.540425C 5.1893 0.180076 6.42124 0 7.82217 0C 9.21263 0 10.3426 0.153704 11.2116 0.461309C 12.0807 0.768915 12.72 1.15564 13.129 1.62147C 13.5377 2.0877 13.8242 2.67634 13.9877 3.3874C 14.0799 3.82942 14.1257 4.62707 14.1257 5.78014L 14.1257 9.23957C 14.1257 11.6518 14.1846 13.1772 14.3023 13.8163C 14.4197 14.4553 14.6524 15.0679 15 15.654L 12.1167 15.654C 11.8304 15.1158 11.6464 14.4864 11.5645 13.7657Z"/><path id="path11_fill" fill-rule="evenodd" d="M 2.2984 7.89093C 2.2984 9.8131 2.68823 11.2338 3.46867 12.1528C 4.24872 13.0719 5.19356 13.5313 6.30261 13.5313C 7.43071 13.5313 8.39654 13.0554 9.20007 12.1036C 10.004 11.1518 10.4058 9.67713 10.4058 7.67987C 10.4058 5.77634 10.0132 4.35118 9.22837 3.40383C 8.44332 2.45686 7.50579 1.98328 6.41542 1.98328C 5.33447 1.98328 4.37789 2.48739 3.54625 3.49524C 2.71422 4.50347 2.2984 5.96876 2.2984 7.89093ZM 0 21L 0 0.337613L 2.31243 0.337613L 2.31243 2.2786C 2.85742 1.51907 3.47326 0.949273 4.15956 0.569602C 4.84547 0.189739 5.67731 0 6.65507 0C 7.93333 0 9.06125 0.328395 10.0392 0.984609C 11.0168 1.64102 11.7545 2.56686 12.2529 3.76252C 12.7509 4.958 13 6.26851 13 7.69385C 13 9.22233 12.7251 10.5983 12.1753 11.8222C 11.6253 13.0457 10.8262 13.9837 9.77835 14.6355C 8.73013 15.2869 7.62801 15.613 6.4718 15.613C 5.62591 15.613 4.86665 15.4348 4.19479 15.0783C 3.52255 14.7221 2.97024 14.2719 2.53805 13.7281L 2.53805 21L 0 21Z"/><path id="path12_fill" fill-rule="evenodd" d="M 11.3092 11.9547L 14 11.9547L 14 13.8214L 11.3092 13.8214L 11.3092 18L 8.83159 18L 8.83159 13.8214L 0 13.8214L 0 12.4739L 8.68506 0L 11.3092 0L 11.3092 11.9547ZM 2.79736 11.9547L 8.83162 11.9547L 8.83162 3.12781L 8.53856 3.62231L 2.79736 11.9547Z"/></defs></svg>