<svg width="405" height="426" viewBox="0 0 405 426" version="1.1" xmlns="http://www.w3.org/2000/svg" xmlns:xlink="http://www.w3.org/1999/xlink">
<title>deployment_technologies</title>
<desc>Created using Figma</desc>
<g id="Canvas" transform="translate(-671 -2180)">
<g id="deployment_technologies">
<g id="jenkins_logo">
<g id="g10">
<g id="g3393">
<g id="path22">
<use xlink:href="#path0_fill" transform="matrix(1 -1.22465e-16 -1.22465e-16 -1 672.543 2299.46)" fill="#D33833"/>
</g>
<g id="path24">
<use xlink:href="#path1_fill" transform="matrix(1 -1.22465e-16 -1.22465e-16 -1 671.918 2261.28)" fill="#EF3D3A"/>
</g>
<g id="path26">
<use xlink:href="#path2_fill" transform="matrix(1 -1.22465e-16 -1.22465e-16 -1 671 2301.19)" fill="#231F20"/>
</g>
<g id="path28">
<use xlink:href="#path3_fill" transform="matrix(1 -1.22465e-16 -1.22465e-16 -1 689.761 2251.45)" fill="#F0D6B7"/>
</g>
<g id="path30">
<use xlink:href="#path4_fill" transform="matrix(1 -1.22465e-16 -1.22465e-16 -1 683.328 2304.56)" fill="#335061"/>
</g>
<g id="path32">
<use xlink:href="#path5_fill" transform="matrix(1 -1.22465e-16 -1.22465e-16 -1 691.086 2220.08)" fill="#6D6B6D"/>
</g>
<g id="path34">
<use xlink:href="#path6_fill" transform="matrix(1 -1.22465e-16 -1.22465e-16 -1 695.249 2198.35)" fill="#DCD9D8"/>
</g>
<g id="path36">
<use xlink:href="#path7_fill" transform="matrix(1 -1.22465e-16 -1.22465e-16 -1 691.086 2215.74)" fill="#DCD9D8"/>
</g>
<g id="path38">
<use xlink:href="#path8_fill" transform="matrix(1 -1.22465e-16 -1.22465e-16 -1 699.979 2250.83)" fill="#F7E4CD"/>
</g>
<g id="path40">
<use xlink:href="#path9_fill" transform="matrix(1 -1.22465e-16 -1.22465e-16 -1 734.788 2228.4)" fill="#F7E4CD"/>
</g>
<g id="path42">
<use xlink:href="#path10_fill" transform="matrix(1 -1.22465e-16 -1.22465e-16 -1 747.08 2212.2)" fill="#F7E4CD"/>
</g>
<g id="path44">
<use xlink:href="#path11_fill" transform="matrix(1 -1.22465e-16 -1.22465e-16 -1 723.443 2212.93)" fill="#F7E4CD"/>
</g>
<g id="path46">
<use xlink:href="#path12_fill" transform="matrix(1 -1.22465e-16 -1.22465e-16 -1 689.572 2231.23)" fill="#F7E4CD"/>
</g>
<g id="path48">
<use xlink:href="#path13_fill" transform="matrix(1 -1.22465e-16 -1.22465e-16 -1 705.085 2207.99)" fill="#F7E4CD"/>
</g>
<g id="path50">
<use xlink:href="#path14_fill" transform="matrix(1 -1.22465e-16 -1.22465e-16 -1 743.501 2199.86)" fill="#F7E4CD"/>
</g>
<g id="path52">
<use xlink:href="#path15_fill" transform="matrix(1 -1.22465e-16 -1.22465e-16 -1 714.262 2206.36)" fill="#F7E4CD"/>
</g>
<g id="path54">
<use xlink:href="#path16_fill" transform="matrix(1 -1.22465e-16 -1.22465e-16 -1 683.328 2297.75)" fill="#49728B"/>
</g>
<g id="path56">
<use xlink:href="#path17_fill" transform="matrix(1 -1.22465e-16 -1.22465e-16 -1 708.305 2282.07)" fill="#49728B"/>
</g>
<g id="path58">
<use xlink:href="#path18_fill" transform="matrix(1 -1.22465e-16 -1.22465e-16 -1 700.736 2286.79)" fill="#49728B"/>
</g>
<g id="path60">
<use xlink:href="#path19_fill" transform="matrix(1 -1.22465e-16 -1.22465e-16 -1 738.392 2300.02)" fill="#335061"/>
</g>
<g id="path62">
<use xlink:href="#path20_fill" transform="matrix(1 -1.22465e-16 -1.22465e-16 -1 740.284 2281.88)" fill="#335061"/>
</g>
<g id="path64">
<use xlink:href="#path21_fill" transform="matrix(1 -1.22465e-16 -1.22465e-16 -1 738.392 2287.43)" fill="#49728B"/>
</g>
<g id="path66">
<use xlink:href="#path22_fill" transform="matrix(1 -1.22465e-16 -1.22465e-16 -1 745.204 2257.31)" fill="#49728B"/>
</g>
<g id="path68">
<use xlink:href="#path23_fill" transform="matrix(1 -1.22465e-16 -1.22465e-16 -1 709.63 2321)" fill="#FFFFFF"/>
</g>
<g id="path70">
<use xlink:href="#path24_fill" transform="matrix(1 -1.22465e-16 -1.22465e-16 -1 723.821 2319.86)" fill="#DCD9D8"/>
</g>
<g id="path72">
<use xlink:href="#path25_fill" transform="matrix(1 -1.22465e-16 -1.22465e-16 -1 745.393 2297.57)" fill="#FFFFFF"/>
</g>
<g id="path74">
<use xlink:href="#path26_fill" transform="matrix(1 -1.22465e-16 -1.22465e-16 -1 747.285 2297.75)" fill="#DCD9D8"/>
</g>
<g id="path76">
<use xlink:href="#path27_fill" transform="matrix(1 -1.22465e-16 -1.22465e-16 -1 731.334 2280.37)" fill="#FFFFFF"/>
</g>
<g id="path78">
<use xlink:href="#path28_fill" transform="matrix(1 -1.22465e-16 -1.22465e-16 -1 731.012 2278.67)" fill="#DCD9D8"/>
</g>
<g id="path80">
<use xlink:href="#path29_fill" transform="matrix(1 -1.22465e-16 -1.22465e-16 -1 707.359 2257.5)" fill="#FFFFFF"/>
</g>
<g id="path82">
<use xlink:href="#path30_fill" transform="matrix(1 -1.22465e-16 -1.22465e-16 -1 708.495 2256.56)" fill="#DCD9D8"/>
</g>
<g id="path84">
<use xlink:href="#path31_fill" transform="matrix(1 -1.22465e-16 -1.22465e-16 -1 737.982 2261.55)" fill="#D33833"/>
</g>
<g id="path86">
<use xlink:href="#path32_stroke" transform="matrix(1 -1.22465e-16 -1.22465e-16 -1 737.982 2261.55)" fill="#D33833"/>
</g>
<g id="path88">
<use xlink:href="#path33_fill" transform="matrix(1 -1.22465e-16 -1.22465e-16 -1 718.017 2267.16)" fill="#D33833"/>
</g>
<g id="path90">
<use xlink:href="#path34_stroke" transform="matrix(1 -1.22465e-16 -1.22465e-16 -1 718.017 2267.16)" fill="#D33833"/>
</g>
<g id="path92">
<use xlink:href="#path35_fill" transform="matrix(1 -1.22465e-16 -1.22465e-16 -1 733.363 2259.98)" fill="#D33833"/>
</g>
<g id="path94">
<use xlink:href="#path36_stroke" transform="matrix(1 -1.22465e-16 -1.22465e-16 -1 733.363 2259.98)" fill="#D33833"/>
</g>
<g id="path96">
<use xlink:href="#path37_fill" transform="matrix(1 -1.22465e-16 -1.22465e-16 -1 737.389 2261.09)" fill="#EF3D3A"/>
</g>
<g id="path98">
<use xlink:href="#path38_fill" transform="matrix(1 -1.22465e-16 -1.22465e-16 -1 716.59 2267.33)" fill="#EF3D3A"/>
</g>
<g id="path100">
<use xlink:href="#path39_fill" transform="matrix(1 -1.22465e-16 -1.22465e-16 -1 714.966 2206.01)" fill="#231F20"/>
</g>
<g id="path102">
<use xlink:href="#path40_fill" transform="matrix(1 -1.22465e-16 -1.22465e-16 -1 746.808 2215.94)" fill="#231F20"/>
</g>
<g id="path104">
<use xlink:href="#path41_fill" transform="matrix(1 -1.22465e-16 -1.22465e-16 -1 723.594 2217.37)" fill="#231F20"/>
</g>
<g id="path106">
<use xlink:href="#path42_fill" transform="matrix(1 -1.22465e-16 -1.22465e-16 -1 734.206 2231.32)" fill="#231F20"/>
</g>
<g id="path108">
<use xlink:href="#path43_fill" transform="matrix(1 -1.22465e-16 -1.22465e-16 -1 693.361 2226.78)" fill="#231F20"/>
</g>
<g id="path110">
<use xlink:href="#path44_fill" transform="matrix(1 -1.22465e-16 -1.22465e-16 -1 742.391 2236.28)" fill="#231F20"/>
</g>
<g id="path112">
<use xlink:href="#path45_fill" transform="matrix(1 -1.22465e-16 -1.22465e-16 -1 727.498 2236.51)" fill="#231F20"/>
</g>
<g id="path114">
<use xlink:href="#path46_fill" transform="matrix(1 -1.22465e-16 -1.22465e-16 -1 725.517 2242.14)" fill="#231F20"/>
</g>
<g id="path116">
<use xlink:href="#path47_fill" transform="matrix(1 -1.22465e-16 -1.22465e-16 -1 740.864 2278.42)" fill="#81B0C4"/>
</g>
<g id="path118">
<use xlink:href="#path48_fill" transform="matrix(1 -1.22465e-16 -1.22465e-16 -1 755.319 2284.74)" fill="#231F20"/>
</g>
<g id="path120">
<use xlink:href="#path49_fill" transform="matrix(1 -1.22465e-16 -1.22465e-16 -1 756.842 2286.56)" fill="#231F20"/>
</g>
<g id="path122">
<use xlink:href="#path50_fill" transform="matrix(1 -1.22465e-16 -1.22465e-16 -1 756.714 2290.03)" fill="#231F20"/>
</g>
<g id="path124">
<use xlink:href="#path51_fill" transform="matrix(1 -1.22465e-16 -1.22465e-16 -1 740.812 2312.2)" fill="#DCD9D8"/>
</g>
<g id="path126">
<use xlink:href="#path52_fill" transform="matrix(1 -1.22465e-16 -1.22465e-16 -1 729.383 2254.16)" fill="#F0D6B7"/>
</g>
<g id="path128">
<use xlink:href="#path53_fill" transform="matrix(1 -1.22465e-16 -1.22465e-16 -1 723.591 2278.43)" fill="#81B0C4"/>
</g>
<g id="path130">
<use xlink:href="#path54_fill" transform="matrix(1 -1.22465e-16 -1.22465e-16 -1 681.66 2322)" fill="#231F20"/>
</g>
<g id="path132">
<use xlink:href="#path55_fill" transform="matrix(1 -1.22465e-16 -1.22465e-16 -1 722.24 2237.09)" fill="#F7E4CD"/>
</g>
<g id="path134">
<use xlink:href="#path56_fill" transform="matrix(1 -1.22465e-16 -1.22465e-16 -1 736.878 2266.38)" fill="#1D1919"/>
</g>
<g id="path136">
<use xlink:href="#path57_fill" transform="matrix(1 -1.22465e-16 -1.22465e-16 -1 737.919 2271.2)" fill="#1D1919"/>
</g>
</g>
<g id="text5675">
<g id="Jenkins">
<use xlink:href="#path58_fill" transform="translate(801.599 2227.56)" fill="#FFFFFF"/>
</g>
</g>
</g>
</g>
<g id="laravel_dusk_logo">
<g id="Shape">
<use xlink:href="#path59_fill" transform="translate(769 2409)" fill="#FFFFFF"/>
</g>
<g id="Shape">
<use xlink:href="#path60_fill" transform="translate(701 2389)" fill="url(#paint60_linear)"/>
</g>
<g id="a-link">
<g id="a Clipped">
<mask id="mask0_outline" mask-type="alpha">
<g id="a">
<use xlink:href="#path61_fill" transform="matrix(0.707107 -0.707107 0.707107 0.707107 700.193 2416.75)" fill="#FFFFFF"/>
</g>
</mask>
<g id="a" mask="url(#mask0_outline)">
<use xlink:href="#path62_stroke" transform="matrix(0.707107 -0.707107 0.707107 0.707107 700.193 2416.75)" fill="#FFFFFF"/>
</g>
</g>
</g>
</g>
<g id="jenkins_line_1" opacity="0.282495">
<use xlink:href="#path63_stroke" transform="matrix(-0.848048 0.529919 0.529919 0.848048 858.929 2303.65)" fill="#FFFFFF"/>
</g>
<g id="jenkins_line_2" opacity="0.282495">
<use xlink:href="#path64_stroke" transform="matrix(-0.848048 -0.529919 0.529919 -0.848048 1013.85 2361.3)" fill="#FFFFFF"/>
</g>
<g id="jenkinks_other_tools">
<g id="github_logo">
<g id="text">
<g id="Fill 3">
<use xlink:href="#path65_fill" transform="translate(804.623 2569.6)" fill="#FFFFFE"/>
</g>
<g id="Fill 4">
<use xlink:href="#path66_fill" transform="translate(846.768 2570.3)" fill="#FFFFFE"/>
</g>
<g id="Fill 5">
<use xlink:href="#path67_fill" transform="translate(825.696 2571)" fill="#FFFFFE"/>
</g>
<g id="Fill 6">
<use xlink:href="#path68_fill" transform="translate(826.398 2578.7)" fill="#FFFFFE"/>
</g>
<g id="Fill 7">
<use xlink:href="#path69_fill" transform="translate(867.139 2578.7)" fill="#FFFFFE"/>
</g>
<g id="Fill 8">
<use xlink:href="#path70_fill" transform="translate(883.997 2570.3)" fill="#FFFFFE"/>
</g>
<g id="Fill 9">
<use xlink:href="#path71_fill" transform="translate(832.72 2573.1)" fill="#FFFFFE"/>
</g>
</g>
<g id="Fill 51">
<use xlink:href="#path72_fill" transform="translate(740 2557)" fill="#FFFFFE"/>
</g>
</g>
<g id="jira_logo">
<g id="Shape">
<use xlink:href="#path73_fill" transform="translate(1029.6 2567.57)" fill="#2BC5FC"/>
</g>
<g id="Shape">
<use xlink:href="#path74_fill" transform="translate(979.721 2567.57)" fill="#2BC5FC"/>
</g>
<g id="Group">
<g id="Shape">
<use xlink:href="#path75_fill" transform="translate(946 2557.21)" fill="#2BC5FC"/>
</g>
<g id="Shape">
<use xlink:href="#path76_fill" transform="translate(958.028 2569.63)" fill="#2BC5FC"/>
</g>
</g>
</g>
</g>
<g id="jenkins_other_tools_label">
<use xlink:href="#path77_fill" transform="translate(838 2515)" fill="#8C8B8B"/>
</g>
<g id="phpunit_logo">
<g id="Path 2">
<use xlink:href="#path78_fill" transform="matrix(1 -1.22465e-16 -1.22465e-16 -1 988.196 2420.45)" fill="#94A6FC"/>
</g>
<g id="Shape">
<use xlink:href="#path79_fill" transform="matrix(1 -1.22465e-16 -1.22465e-16 -1 987 2421.5)" fill="#FFFFFF"/>
</g>
<g id="Shape">
<use xlink:href="#path80_fill" transform="matrix(1 -1.22465e-16 -1.22465e-16 -1 1025.04 2398.76)" fill="#FFFFFF"/>
</g>
<g id="Shape">
<use xlink:href="#path81_fill" transform="matrix(1 -1.22465e-16 -1.22465e-16 -1 1033.63 2399.38)" fill="#FFFFFF"/>
</g>
<g id="Shape">
<use xlink:href="#path82_fill" transform="matrix(1 -1.22465e-16 -1.22465e-16 -1 1038.78 2402.4)" fill="#FFFFFF"/>
</g>
<g id="Shape">
<use xlink:href="#path83_fill" transform="matrix(1 -1.22465e-16 -1.22465e-16 -1 1043.71 2405.82)" fill="#FFFFFF"/>
</g>
<g id="Shape">
<use xlink:href="#path84_fill" transform="matrix(1 -1.22465e-16 -1.22465e-16 -1 1048.19 2409.64)" fill="#FFFFFF"/>
</g>
<g id="Shape">
<use xlink:href="#path85_fill" transform="matrix(1 -1.22465e-16 -1.22465e-16 -1 1052.39 2413.86)" fill="#FFFFFF"/>
</g>
<g id="Shape">
<use xlink:href="#path86_fill" transform="matrix(1 -1.22465e-16 -1.22465e-16 -1 1056 2418.48)" fill="#FFFFFF"/>
</g>
<g id="Shape">
<use xlink:href="#path87_fill" transform="matrix(1 -1.22465e-16 -1.22465e-16 -1 1059.45 2423.53)" fill="#FFFFFF"/>
</g>
<g id="Shape">
<use xlink:href="#path88_fill" transform="matrix(1 -1.22465e-16 -1.22465e-16 -1 1062.51 2429.75)" fill="#FFFFFF"/>
</g>
<g id="Shape">
<use xlink:href="#path89_fill" transform="matrix(1 -1.22465e-16 -1.22465e-16 -1 987.404 2442.62)" fill="#FFFFFF"/>
</g>
<g id="Shape">
<use xlink:href="#path90_fill" transform="matrix(1 -1.22465e-16 -1.22465e-16 -1 1018.28 2442.62)" fill="#FFFFFF"/>
</g>
<g id="Shape">
<use xlink:href="#path91_fill" transform="matrix(1 -1.22465e-16 -1.22465e-16 -1 1001.53 2442.62)" fill="#FFFFFF"/>
</g>
<g id="Shape">
<use xlink:href="#path92_fill" transform="matrix(1 -1.22465e-16 -1.22465e-16 -1 1032.61 2442.9)" fill="#FFFFFF"/>
</g>
<g id="Shape">
<use xlink:href="#path93_fill" transform="matrix(1 -1.22465e-16 -1.22465e-16 -1 1067.91 2443)" fill="#FFFFFF"/>
</g>
<g id="Shape">
<use xlink:href="#path94_fill" transform="matrix(1 -1.22465e-16 -1.22465e-16 -1 1048.49 2442.62)" fill="#FFFFFF"/>
</g>
<g id="Shape">
<use xlink:href="#path95_fill" transform="matrix(1 -1.22465e-16 -1.22465e-16 -1 1062.48 2442.62)" fill="#FFFFFF"/>
</g>
</g>
</g>
</g>
<defs>
<linearGradient id="paint60_linear" x1="0" y1="0" x2="1" y2="0" gradientUnits="userSpaceOnUse" gradientTransform="matrix(0 55 -55 0 27.5 0)">
<stop offset="0" stop-color="#9B27AD"/>
<stop offset="1" stop-color="#F44F4F"/>
</linearGradient>
<path id="path0_fill" fill-rule="evenodd" d="M 99.3418 50.7406C 99.3418 22.7175 77.1033 0 49.6707 0C 22.2385 0 0 22.7175 0 50.7406C 0 78.7643 22.2385 101.482 49.6707 101.482C 77.1033 101.482 99.3418 78.7643 99.3418 50.7406Z"/>
<path id="path1_fill" d="M 2.64942 0C 2.64942 0 -0.946415 52.9141 47.8734 54.4261L 44.4676 60.0955L 17.9765 51.2133L 10.4074 42.5204L 3.78476 29.8584L 0 15.118L 1.13534 5.29124"/>
<path id="path2_fill" fill-rule="evenodd" d="M 0 52.2808C -1.76608e-15 37.8596 5.72589 24.7859 14.9878 15.3259C 24.2475 5.86426 37.0653 1.73264e-15 51.2134 0C 65.3615 -1.73265e-15 78.1807 5.86426 87.4388 15.3259C 96.7014 24.7859 102.428 37.8596 102.427 52.2808C 102.428 66.7031 96.7014 79.7766 87.4388 89.2373C 78.1807 98.6995 65.3615 104.564 51.2134 104.563C 37.0653 104.564 24.2475 98.6995 14.9878 89.2373C 5.72589 79.7766 1.76638e-15 66.7043 0 52.2808ZM 3.08606 52.2808C 3.08606 65.8833 8.47888 78.179 17.1938 87.0845C 25.9128 95.9866 37.929 101.481 51.2134 101.482C 64.4981 101.481 76.5151 95.9866 85.2334 87.0845C 93.9477 78.179 99.3417 65.8833 99.3417 52.2808C 99.3417 38.6809 93.9477 26.3835 85.2334 17.4797C 76.5151 8.57593 64.4981 3.08179 51.2134 3.08179C 37.929 3.08179 25.9128 8.57593 17.1938 17.4797C 8.47888 26.3835 3.08606 38.6809 3.08606 52.2808Z"/>
<path id="path3_fill" fill-rule="evenodd" d="M 53.3618 2.45654L 45.7925 1.32267L 35.5743 0.188791L 28.9512 0L 22.5179 0.188791L 17.5978 1.70082L 13.2456 6.42512L 9.83954 16.0631L 9.08272 18.142L 4.54136 19.6535L 1.89216 24.0002L 0 30.2365L 2.08176 35.7171L 7.00119 37.4179L 10.9749 35.5278L 12.8675 31.3704L 15.1382 31.7486L 15.8948 32.6931L 15.1382 37.0398L 14.9486 42.5204L 16.0839 50.0794L 16.0396 54.3972L 19.4899 59.9061L 25.5451 64.2529L 36.142 68.7884L 47.8735 67.0875L 58.0916 59.7173L 62.8226 52.1584L 65.8499 46.6778L 66.6066 33.0712L 64.336 21.3543L 60.1732 10.9606L 56.1995 5.48003"/>
<path id="path4_fill" fill-rule="evenodd" d="M 53.3611 22.8669L 26.3017 21.733L 26.3017 17.1975L 28.5724 1.32323L 27.4371 0L 8.51505 6.42568L 7.19011 8.69344L 5.29795 30.0477L 0.946419 42.8985L 0 45.922L 15.1375 56.3157L 19.8684 58.2059L 24.0311 53.1034L 27.6262 49.8906L 31.7895 48.5679L 33.6814 48.001L 35.9521 38.1742L 37.6551 36.0954L 42.0076 37.6073L 38.9796 31.7486L 55.4422 24.0008L 53.3611 22.8669Z"/>
<path id="path5_fill" fill-rule="evenodd" d="M 0.757272 4.34672L 5.6767 6.04753L 9.65039 4.15736L 11.543 0L 13.8137 0.378148L 14.3813 2.6459L 13.246 6.99205L 14.3813 17.3863L 13.4349 23.0557L 16.841 27.0243L 24.2207 32.8824L 22.1391 35.7171L 11.7319 30.6147L 7.37971 27.2131L 4.91988 21.9218L 1.13534 16.8194L 0 10.7718L 0.757272 4.34672Z"/>
<path id="path6_fill" fill-rule="evenodd" d="M 4.35176 0.378148C 4.35176 0.378148 7.19011 7.3702 18.5435 10.7718C 29.8969 14.1735 19.1112 13.2289 19.1112 13.2289L 6.81204 8.50408L 2.08108 3.77978L 0 0L 4.35176 0.378148Z"/>
<path id="path7_fill" fill-rule="evenodd" d="M 2.83835 1.32267C 2.83835 1.32267 -1.13534 14.5516 14.0026 16.4412L 13.4349 18.709L 3.02795 16.2519L 0 6.42512L 0.757272 0L 2.83835 1.32267Z"/>
<path id="path8_fill" fill-rule="evenodd" d="M 0 18.8432L 2.4776 21.2408C 2.4776 21.2408 3.59585 21.111 3.78477 19.7883C 3.97369 18.4651 4.54136 6.55935 12.6779 0.133666C 13.4201 -0.452548 6.62312 1.07932 6.62312 1.07932L 0.56767 10.5279"/>
<path id="path9_fill" fill-rule="evenodd" d="M 0.00938056 0C 0.00938056 0 0.45046 5.72835 1.99509 5.28784C 3.53972 4.84733 3.53972 3.30469 3.53972 3.30469C 3.53972 3.30469 -0.211443 0.881023 0.00938056 0Z"/>
<path id="path10_fill" d="M 3.42192 4.77736C 3.42192 4.77736 0.303138 4.11971 0.0158969 1.37573C -0.271344 -1.36882 3.42192 0.808788 3.98959 0.997579"/>
<path id="path11_fill" d="M 4.16329 5.32408C 4.16329 5.32408 0 4.75714 0 2.1118C 0 -0.5341 4.73107 -0.34531 6.05545 0.788567"/>
<path id="path12_fill" fill-rule="evenodd" d="M 12.2991 11.3388C 12.2991 11.3388 5.10835 15.6855 4.35176 11.5276C 3.59494 7.3702 1.89148 4.34615 5.4871 0L 3.02727 0.755729L 0.75659 6.61391L 0 12.2833L 4.35176 16.8194L 9.27164 16.4412L 12.11 14.1735L 12.2991 11.3388Z"/>
<path id="path13_fill" fill-rule="evenodd" d="M 0.192299 0C 0.192299 0 3.40917 16.63 19.6827 19.8429C 33.0804 22.4876 40.1183 19.2759 42.7677 16.2524C 42.7677 16.2524 30.8466 30.4253 19.4931 26.0792C 8.13968 21.7325 -0.185769 13.7953 0.00315142 8.69344C 0.325361 0.00340176 0.192299 0 0.192299 0Z"/>
<path id="path14_fill" fill-rule="evenodd" d="M 5.6767 6.23632C 5.6767 6.23632 0.189602 6.42512 5.07345e-09 1.51146C 5.07345e-09 1.51146 -0.000567675 0.755729 0.378068 0C 0.378068 0 4.73096 4.91366 7.37971 2.26775"/>
<path id="path15_fill" fill-rule="evenodd" d="M 10.8877 5.99017C 10.8877 5.99017 9.94307 13.5321 3.50467 9.14745C -0.658165 6.31275 -0.279415 2.34418 0.477175 1.58845C 1.23399 0.832158 1.02821 -0.690073 1.60434 0.354795C 2.18018 1.39966 1.99058 4.80129 4.07234 5.74581C 6.15387 6.6909 9.56608 7.74654 10.8877 5.99017Z"/>
<path id="path16_fill" fill-rule="evenodd" d="M 24.0311 46.3002L 6.24437 38.363C 6.24437 38.363 13.6241 9.07102 9.83931 0L 7.19011 0.94452L 7.00096 12.0946L 2.08176 33.26L 0 39.1188L 18.5435 51.5908L 24.0311 46.3002Z"/>
<path id="path17_fill" fill-rule="evenodd" d="M 0.882556 14.4137L 3.40602 11.3388L 3.40602 0L 0.378068 0C 0.378068 0 0 7.93714 0 8.88234C 0 9.82731 0.378068 13.2289 0.378068 13.2289"/>
<path id="path18_fill" fill-rule="evenodd" d="M 8.51505 3.02337L 0 2.64579L 2.46028 0.944973L 8.51505 0"/>
<path id="path19_fill" fill-rule="evenodd" d="M 0 18.142L 7.00107 18.3309L 8.70408 0.94452L 1.51341 0L 8.06707e-15 18.142"/>
<path id="path20_fill" fill-rule="evenodd" d="M 8.06707e-15 0L 10.5967 0.566939C 10.5967 0.566939 14.9485 11.5277 14.9485 12.0946C 14.9485 12.6616 18.7331 27.9688 18.7331 27.9688L 10.2181 36.8504L 8.51505 38.3625L 3.97369 33.827L 3.97369 16.2519L 0 0"/>
<path id="path21_fill" fill-rule="evenodd" d="M 6.62244 6.86898L 0 5.5462L 0.945738 0.25439C 3.40545 -0.879487 7.56874 2.14456 7.56874 2.14456"/>
<path id="path22_fill" fill-rule="evenodd" d="M 0 9.82675L 13.2454 0L 13.6241 4.53551L 3.59505 13.7953L 0 9.82675Z"/>
<path id="path23_fill" fill-rule="evenodd" d="M 6.18828 1.88973L 2.27068 17.7662L 0.322209 29.4808L 0 38.176L 17.7311 39.1187L 28.7624 39.1206L 27.7593 19.2759L 29.4623 3.96857L 29.2733 1.13388L 14.8927 0L 6.18828 1.88973Z"/>
<path id="path24_fill" fill-rule="evenodd" d="M 12.1103 38.1738C 12.1103 38.1738 11.1646 18.5196 14.0029 4.53553C 14.0029 4.53553 8.32624 0.944525 0 0L 15.895 0.566939L 17.787 1.70082L 15.5163 32.6931L 14.9487 39.3081"/>
<path id="path25_fill" fill-rule="evenodd" d="M 2.02545 0L 9.40516 2.07885L 23.4073 2.83469L 25.4889 9.25975L 21.7043 20.4098L 17.3525 20.9767L 11.2972 19.087L 5.48767 16.2541L 2.40351 16.8193L 0 15.8761"/>
<path id="path26_fill" fill-rule="evenodd" d="M 0 3.96857C 0 3.96857 4.91943 6.23587 5.6767 6.04697L 3.59562 16.4412L 6.05534 17.3857C 6.05534 17.3857 7.75834 7.55911 7.75834 6.42523C 7.75834 6.42523 18.3545 5.85829 19.3008 5.85829C 19.3008 5.85829 21.5715 10.2049 21.0038 14.7404L 23.0854 8.69298L 23.2745 5.29135L 20.2471 0.755843L 16.8411 0L 11.1644 0.188904L 9.27232 2.64534L 2.64932 1.70082L 0.56767 0.94452"/>
<path id="path27_fill" d="M 8.51505 0L 4.35232 10.5831L 0 16.8194C 0 16.8194 0.945738 19.4653 2.27068 19.4653C 3.59562 19.4653 6.623 19.4653 6.623 19.4653L 10.7857 17.9533L 10.4077 10.9611L 8.51505 0Z"/>
<path id="path28_fill" fill-rule="evenodd" d="M 9.65039 1.89017C 9.65039 1.89017 4.35176 12.0946 4.35176 13.6065C 4.35176 13.6065 5.2975 15.8743 6.62244 15.3073C 7.94738 14.7404 10.7857 13.2289 10.7857 13.2289L 10.7857 16.8194L 4.35176 18.1426L 0 17.5757L 7.37971 0.189357L 8.89312 0"/>
<path id="path29_fill" d="M 10.1622 5.66882L 4.92011 6.23803L 0 7.75005L 0 6.04923L 2.40397 3.40163L 9.97283 0"/>
<path id="path30_fill" fill-rule="evenodd" d="M 0.56767 4.15566C 0.56767 4.15566 6.43397 1.69855 8.32613 2.26549L 8.51437 0L 3.2171 1.13161L 0 3.39936L 0.56767 4.15566Z"/>
<path id="path31_fill" fill-rule="evenodd" d="M 9.41651 0C 6.20577 0.0941118 3.30497 0.475095 0.765219 1.19057C 0.937791 2.23034 0.614787 3.25083 0.874212 3.99975C 1.5821 4.50886 2.76853 4.50093 3.83858 4.62055C 2.91328 5.07467 1.61332 5.25439 0.545531 4.99189C 0.520553 5.71361 0.196414 6.16092 0 6.72559C 1.80519 7.36907 6.06669 11.5877 8.46396 10.1907C 9.60611 9.52627 10.0915 5.73118 10.18 3.8858C 10.2538 2.35506 10.0409 0.810722 9.41651 0Z"/>
<path id="path32_stroke" d="M 9.41651 0L 10.4068 -0.762756L 10.0175 -1.26815L 9.37988 -1.24946L 9.41651 0ZM 0.765219 1.19057L 0.426273 -0.012598L -0.651195 0.290936L -0.467912 1.39524L 0.765219 1.19057ZM 0.874212 3.99975L -0.306932 4.4089L -0.177261 4.78324L 0.144365 5.01455L 0.874212 3.99975ZM 3.83858 4.62055L 4.38931 5.74269L 8.23676 3.85444L 3.97746 3.37829L 3.83858 4.62055ZM 0.545531 4.99189L 0.843932 3.77803L -0.650493 3.41066L -0.703721 4.94866L 0.545531 4.99189ZM 0 6.72559L -1.18062 6.31493L -1.58814 7.48653L -0.419706 7.90303L 0 6.72559ZM 8.46396 10.1907L 7.83539 9.11026L 7.83461 9.11071L 8.46396 10.1907ZM 10.18 3.8858L 8.93147 3.8256L 8.93146 3.82588L 10.18 3.8858ZM 9.37988 -1.24946C 6.10594 -1.1519 3.05346 -0.749341 0.426273 -0.012598L 1.10416 2.39374C 3.55649 1.69953 6.30559 1.34012 9.45313 1.24946L 9.37988 -1.24946ZM -0.467912 1.39524C -0.397185 1.76767 -0.433516 2.14513 -0.460907 2.63448C -0.485173 3.0687 -0.530743 3.76278 -0.306932 4.4089L 2.05536 3.59061C 2.01974 3.48779 2.00596 3.29717 2.0352 2.77397C 2.06131 2.30591 2.10019 1.65323 1.99835 0.985906L -0.467912 1.39524ZM 0.144365 5.01455C 0.74926 5.44959 1.46985 5.60892 2.038 5.6928C 2.6171 5.77682 3.20317 5.8067 3.69971 5.86281L 3.97746 3.37829C 3.40394 3.31477 2.86177 3.28882 2.40316 3.21961C 1.93361 3.15029 1.70705 3.05902 1.60406 2.98495L 0.144365 5.01455ZM 3.28786 3.49841C 2.60695 3.83258 1.60668 3.96554 0.843932 3.77803L 0.247129 6.20575C 1.61996 6.54323 3.21962 6.31675 4.38931 5.74269L 3.28786 3.49841ZM -0.703721 4.94866C -0.70051 5.15064 -0.734826 5.23426 -0.824043 5.45465C -0.909286 5.67229 -1.05071 5.95083 -1.18062 6.31493L 1.18062 7.13626C 1.30463 6.73915 1.70277 6.11964 1.79478 5.03513L -0.703721 4.94866ZM -0.419706 7.90303C -0.144608 8.00109 0.324939 8.28545 1.04983 8.77249C 1.73067 9.22987 2.53266 9.79067 3.36384 10.2934C 4.19714 10.7956 5.16719 11.2855 6.05433 11.5349C 6.98696 11.7898 8.08933 11.8558 9.0933 11.2707L 7.83461 9.11071C 7.63995 9.22414 7.31066 9.28659 6.71362 9.12337C 6.07107 8.95457 5.41344 8.61146 4.65606 8.15325C 3.89656 7.69549 3.14487 7.1683 2.44406 6.69737C 1.78729 6.2561 1.0472 5.77184 0.419706 5.54816L -0.419706 7.90303ZM 9.09252 11.2712C 9.74094 10.894 10.1185 10.2115 10.3481 9.68247C 10.5856 9.1288 10.7916 8.41798 10.9384 7.74731C 11.2267 6.41529 11.3823 4.90175 11.4286 3.94571L 8.93146 3.82588C 8.88923 4.71523 8.75784 6.02192 8.49576 7.21491C 8.36744 7.80674 8.23241 8.28461 8.05484 8.68707C 7.86947 9.11415 7.75806 9.15525 7.83539 9.11026L 9.09252 11.2712ZM 11.4286 3.94599C 11.4669 3.12229 11.4244 2.21251 11.2904 1.45168C 11.152 0.682139 10.8935 -0.130875 10.4068 -0.762756L 8.4262 0.762756C 8.56395 0.941597 8.72411 1.30611 8.82983 1.89411C 8.93992 2.49081 8.96692 3.11857 8.93147 3.8256L 11.4286 3.94599Z"/>
<path id="path33_fill" fill-rule="evenodd" d="M 14.0278 10.8508C 14.0193 10.6082 14.0091 10.3638 13.9994 10.1189C 12.9969 9.46126 11.3785 9.4692 10.2784 8.91643C 11.9002 8.84557 13.1769 8.45551 14.2816 7.90558C 14.2572 7.29442 14.2339 6.68383 14.21 6.07267C 12.3725 4.81633 10.6939 2.94544 8.53039 1.76728C 7.50745 1.21009 3.91739 -0.223637 2.82906 0.0297279C 2.2133 0.17254 2.15784 0.935696 1.9117 1.65503C 1.38729 3.19546 0.179854 5.64747 0.0745508 7.96624C -0.0595896 10.8951 -0.355629 15.8036 2.8047 15.2004C 5.35433 14.7145 8.31973 13.5415 10.2937 12.4643C 11.5 11.8056 12.1977 10.9914 14.0278 10.8508Z"/>
<path id="path34_stroke" d="M 13.9994 10.1189L 15.2485 10.0697L 15.2231 9.4267L 14.6851 9.07373L 13.9994 10.1189ZM 10.2784 8.91643L 10.2238 7.66762L 5.42596 7.87727L 9.71716 10.0334L 10.2784 8.91643ZM 14.2816 7.90558L 14.8386 9.02459L 15.5629 8.66406L 15.5306 7.8557L 14.2816 7.90558ZM 14.21 6.07267L 15.4591 6.02394L 15.4346 5.39566L 14.9155 5.04079L 14.21 6.07267ZM 8.53039 1.76728L 7.93247 2.865L 7.93258 2.86506L 8.53039 1.76728ZM 2.82906 0.0297279L 3.11147 1.24741L 3.11248 1.24717L 2.82906 0.0297279ZM 1.9117 1.65503L 0.729022 1.25034L 0.728391 1.25219L 1.9117 1.65503ZM 0.0745508 7.96624L 1.32324 8.02344L 1.32326 8.02295L 0.0745508 7.96624ZM 2.8047 15.2004L 2.57071 13.9725L 2.57034 13.9725L 2.8047 15.2004ZM 10.2937 12.4643L 10.8925 13.5616L 10.8928 13.5614L 10.2937 12.4643ZM 15.2771 10.807C 15.2684 10.5601 15.2581 10.3131 15.2485 10.0697L 12.7504 10.1681C 12.7601 10.4146 12.7702 10.6562 12.7786 10.8947L 15.2771 10.807ZM 14.6851 9.07373C 13.9641 8.60079 13.0846 8.40082 12.4484 8.25849C 11.7674 8.10621 11.2355 8.01095 10.8396 7.7995L 9.71716 10.0334C 10.4214 10.3747 11.2488 10.5518 11.9026 10.6982C 12.6013 10.8545 13.0322 10.9794 13.3138 11.1641L 14.6851 9.07373ZM 10.3329 10.1652C 12.1118 10.0775 13.6396 9.61671 14.8386 9.02459L 13.7245 6.78657C 12.7142 7.29431 11.6886 7.6136 10.2238 7.66762L 10.3329 10.1652ZM 15.5306 7.8557C 15.5062 7.24567 15.483 6.63566 15.4591 6.02394L 12.961 6.1214C 12.9848 6.732 13.0081 7.34317 13.0326 7.95547L 15.5306 7.8557ZM 14.9155 5.04079C 14.0609 4.45956 13.2295 3.71687 12.2961 2.93323C 11.3631 2.15025 10.3021 1.31404 9.1282 0.669499L 7.93258 2.86506C 8.92217 3.39868 9.78226 4.087 10.6888 4.84809C 11.595 5.60852 12.5216 6.42945 13.5045 7.10455L 14.9155 5.04079ZM 9.12831 0.66956C 8.56611 0.364819 7.31557 -0.175273 6.10802 -0.588444C 5.50325 -0.794589 4.84874 -0.988004 4.29512 -1.1067C 3.78598 -1.21494 3.11351 -1.31992 2.54563 -1.18772L 3.11248 1.24717C 3.04214 1.28063 3.33819 1.24375 3.77524 1.33865C 4.23282 1.43494 4.74382 1.58727 5.30048 1.77754C 6.41578 2.15719 7.47173 2.61256 7.93247 2.865L 9.12831 0.66956ZM 2.54664 -1.18795C 1.65539 -0.981243 1.2579 -0.296568 1.07412 0.154669C 0.913714 0.562818 0.828471 0.967736 0.729023 1.25034L 3.09438 2.05972C 3.16832 1.84164 3.22744 1.6265 3.27518 1.45761C 3.32275 1.28923 3.35085 1.18825 3.38943 1.0977C 3.42033 1.02185 3.42317 1.0432 3.37604 1.09389C 3.31166 1.16314 3.21395 1.22364 3.11147 1.24741L 2.54664 -1.18795ZM 0.728391 1.25219C 0.483501 1.97473 0.0519538 2.9692 -0.344808 4.10852C -0.738248 5.24303 -1.10743 6.61147 -1.17416 7.90954L 1.32326 8.02295C 1.36184 7.00224 1.64902 5.98529 2.01673 4.92899C 2.38111 3.87751 2.81549 2.87575 3.09501 2.05787L 0.728391 1.25219ZM -1.17414 7.90905C -1.24094 9.3678 -1.34687 11.4793 -1.02142 13.1535C -0.851432 14.0015 -0.532317 14.9353 0.135215 15.6133C 0.88102 16.3709 1.8956 16.6465 3.03906 16.4282L 2.57034 13.9725C 2.13364 14.0559 2.0001 13.9441 1.91676 13.8595C 1.75515 13.6953 1.5641 13.332 1.42982 12.6621C 1.14674 11.3007 1.2559 9.4935 1.32324 8.02344L -1.17414 7.90905ZM 3.0387 16.4283C 5.70277 15.915 8.85001 14.6735 10.8925 13.5616L 9.69492 11.3671C 7.78945 12.4096 5.0059 13.5141 2.57071 13.9725L 3.0387 16.4283ZM 10.8928 13.5614C 12.4171 12.729 12.6504 12.2103 14.1236 12.0972L 13.9321 9.6045C 11.745 9.77252 10.5829 10.8821 9.69456 11.3673L 10.8928 13.5614Z"/>
<path id="path35_fill" fill-rule="evenodd" d="M 0.506891 0.178761C 0.226462 1.77413 -0.0976774 2.22938 0.0277777 3.62121C 4.28814 6.45817 5.08799 -1.25163 0.506891 0.178761Z"/>
<path id="path36_stroke" d="M 0.506891 0.178761L 0.134334 -1.01443L -0.592425 -0.787508L -0.724234 -0.0376431L 0.506891 0.178761ZM 0.0277777 3.62121L -1.21718 3.73343L -1.16342 4.32978L -0.665043 4.66164L 0.0277777 3.62121ZM -0.724234 -0.0376431C -0.850307 0.691045 -0.997146 1.18594 -1.10914 1.72401C -1.22026 2.27031 -1.2849 2.91451 -1.21718 3.73343L 1.27273 3.509C 1.215 2.93608 1.2497 2.65674 1.3394 2.22861C 1.42822 1.79226 1.58366 1.26184 1.73802 0.395165L -0.724234 -0.0376431ZM -0.665043 4.66164C 0.621617 5.51843 1.95998 5.76912 3.10356 5.19688C 4.18906 4.65371 4.71186 3.55421 4.82474 2.56987C 4.93812 1.58128 4.67685 0.415054 3.82453 -0.394293C 2.9103 -1.26242 1.59095 -1.46924 0.134334 -1.01443L 0.879449 1.37195C 1.30704 1.23844 1.59437 1.2358 1.76982 1.26519C 1.93619 1.29305 2.03523 1.35418 2.10306 1.41859C 2.25606 1.56388 2.38752 1.87959 2.34102 2.28503C 2.29404 2.69473 2.10437 2.90135 1.98483 2.96117C 1.92337 2.99192 1.56412 3.14248 0.720598 2.58078L -0.665043 4.66164Z"/>
<path id="path37_fill" fill-rule="evenodd" d="M 2.64932 0C 2.64932 0 1.32437 1.89017 2.27068 2.45711C 3.21699 3.02405 4.16329 2.45654 4.73096 3.40163C 5.29863 4.34672 4.73096 4.91366 4.91999 6.04753C 5.10903 7.18141 6.0559 7.37077 7.00164 7.55956C 7.94738 7.74835 10.5973 8.1265 10.9753 7.18141L 9.83999 10.583L 7.56931 11.3388L 0.378636 7.18141L 0 5.10245L 0 0.945087"/>
<path id="path38_fill" fill-rule="evenodd" d="M 3.58041 0C 3.35312 2.94927 3.11254 5.89452 2.84488 8.8409C 2.44439 13.2403 3.90302 12.4727 7.72151 12.4727C 8.30473 12.4727 11.3125 11.7782 11.5277 11.3388C 12.5597 9.23379 9.80196 9.70151 12.7164 8.11408C 15.1767 6.77441 19.5227 8.92764 18.5288 11.9058C 17.9724 12.568 15.6302 12.1121 14.7906 12.547C 13.3124 13.3123 11.8342 14.0777 10.3558 14.8431C 8.47503 15.8176 4.1281 17.2384 2.12286 15.8766C -2.95801 12.4256 2.44354 3.80308 4.25605 0.203077"/>
<path id="path39_fill" fill-rule="evenodd" d="M 10.1832 5.63537C 5.02585 6.83501 2.46316 3.47987 0.899851 0C -0.496049 0.337895 0.0594157 2.23374 0.411995 3.1998C 1.33514 5.73515 5.05537 9.11014 8.09507 8.65262C 9.40315 8.45589 11.1733 7.26135 10.1832 5.63537Z"/>
<path id="path40_fill" fill-rule="evenodd" d="M 3.47018 9.69712C 3.55135 9.69372 3.63366 9.69089 3.71484 9.68748C 4.88027 7.26949 5.88902 4.70806 7.35928 2.57354C 6.37437 0.282539 -0.0987656 -1.74483 0.00114432 2.36887C 1.40102 2.98003 3.81759 2.4936 5.05852 3.27427C 4.34098 5.24098 3.30555 6.91515 3.47018 9.69712Z"/>
<path id="path41_fill" fill-rule="evenodd" d="M 4.1961 11.0644C 5.30192 9.03988 5.66182 6.91273 7.2337 5.38256C 7.94159 4.69373 9.31819 3.85409 8.63585 1.93841C 8.47633 1.48656 7.3109 0.479108 6.63822 0.281246C 4.18077 -0.443301 -1.54543 0.131574 0.393734 3.19134C 2.42605 3.09666 5.15773 1.87321 6.67682 3.34668C 5.51026 5.20908 3.43054 8.89361 4.1961 11.0644Z"/>
<path id="path42_fill" fill-rule="evenodd" d="M 15.1494 4.44395C 11.4493 2.07018 7.32346 -0.511089 1.26075 0.087598C -0.0346768 1.2124 -0.52855 3.71544 0.729974 5.36863C 1.38507 4.24382 0.973505 2.17507 2.79913 1.86382C 6.23921 1.2759 10.243 3.96546 12.7175 4.90544C 14.2519 7.48898 12.5852 8.43917 11.2029 10.102C 8.37308 13.5087 4.57707 17.7313 4.71502 22.8315C 5.85887 23.6598 5.95765 21.5672 6.1217 21.1862C 7.59935 17.7324 11.3182 13.3154 14.0322 10.3594C 14.6986 9.63144 15.7959 8.93297 15.918 8.45164C 16.2699 7.05187 15.0023 5.37487 15.1494 4.44395Z"/>
<path id="path43_fill" fill-rule="evenodd" d="M 7.21565 2.39985C 6.0559 3.0609 5.77984 5.9727 4.41829 6.05547C 2.47249 6.17339 2.82728 2.27796 2.83506 0C 1.4957 1.21438 1.26017 4.95334 2.24411 6.87356C 1.12274 7.42349 0.621996 6.26694 0 5.85931C 0.799393 11.6591 8.49512 8.54943 7.21565 2.39985Z"/>
<path id="path44_fill" fill-rule="evenodd" d="M 9.32033 6.98468C 7.59802 3.71061 5.16158 0.104884 0.107618 0C 0.00486968 1.05734 -0.0740364 2.66631 0.113295 3.30298C 3.97686 3.67376 6.3622 5.63764 9.32033 6.98468Z"/>
<path id="path45_fill" fill-rule="evenodd" d="M 0 5.09361C 3.22346 3.40073 9.14766 3.21874 13.5289 3.34687C 13.764 2.38817 13.7583 1.20384 13.7674 0.0348121C 8.1355 -0.245822 1.47674 1.14601 0 5.09361Z"/>
<path id="path46_fill" fill-rule="evenodd" d="M 1.36875 7.56308C 3.59782 1.97363 11.2591 2.61711 17.7197 2.77131C 17.4353 2.04563 16.8188 1.18842 16.0525 0.878307C 13.9822 0.0369697 8.27201 -0.601403 5.3979 0.923095C 3.57511 1.89086 2.40401 4.07754 1.40531 5.35939C 0.923013 5.97849 -1.47851 7.55968 1.36875 7.56308Z"/>
<path id="path47_fill" fill-rule="evenodd" d="M 8.22213 13.0166C 5.60631 8.54218 3.10345 3.94663 0 0C 1.3011 3.82066 1.85798 10.2153 2.0544 15.0903C 4.77637 16.3625 7.10723 14.804 8.22213 13.0166Z"/>
<path id="path48_fill" fill-rule="evenodd" d="M 7.84349 3.25413C 4.91489 2.66859 2.85708 -0.174038 0 0.00840308C 1.57017 2.21907 4.32167 3.15094 7.84349 3.25413Z"/>
<path id="path49_fill" fill-rule="evenodd" d="M 7.61189 0.493885C 5.22483 0.242107 2.42111 -0.143921 0 0.0549608C 1.14613 1.8034 5.56203 1.20012 7.61189 0.493885Z"/>
<path id="path50_fill" fill-rule="evenodd" d="M 8.56727 0.0218826C 5.88447 -0.0361719 2.54997 0.0172337 0 0.230913C 1.5083 1.8489 6.82737 0.831301 8.56727 0.0218826Z"/>
<path id="path51_fill" fill-rule="evenodd" d="M 3.22705 11.3933C 3.61193 8.02837 4.94765 4.61897 4.78019 0.933873C 3.29687 0.434287 2.4448 -0.00265249 0.457385 1.21239e-05C 0.317171 3.13189 -0.102337 7.91963 0.0231178 10.9051C 1.00065 10.8405 2.44196 11.6025 3.22705 11.3933Z"/>
<path id="path52_fill" fill-rule="evenodd" d="M 10.3305 2.94141C 8.98338 2.06322 7.83612 0.96676 6.5424 0.0290439C 3.67339 -0.112691 2.10776 0.227472 0 1.87273C 0.0346279 2.00482 0.246369 1.94586 0.254316 2.10801C 3.32541 0.741119 7.22928 2.66474 10.3305 2.94141Z"/>
<path id="path53_fill" fill-rule="evenodd" d="M 0 6.29988C 0.843785 9.95153 4.15001 11.8428 7.15236 13.8537C 10.2513 9.92585 12.1359 4.87454 14.2113 0C 9.3078 1.47625 4.29754 3.87157 0 6.29988Z"/>
<path id="path54_fill" fill-rule="evenodd" d="M 59.1744 20.7025C 59.0489 17.717 59.4684 12.9293 59.6086 9.79738C 61.596 9.79471 62.4481 10.2317 63.9314 10.7312C 64.0989 14.4163 62.7632 17.8257 62.3783 21.1906C 61.5932 21.3999 60.1519 20.6379 59.1744 20.7025ZM 28.2283 37.6815C 29.5389 25.6494 31.437 15.5348 34.9184 4.88015C 42.6451 2.5371 51.9598 2.33291 58.7895 4.4472C 57.5355 10.4607 58.0833 17.782 57.3504 24.1993C 56.7981 29.0227 57.0796 33.8758 56.3224 38.7968C 48.0469 40.5162 36.3498 39.1988 28.2283 37.6815ZM 58.2791 38.7213C 58.2093 33.5538 58.5107 28.4565 58.9058 23.2825C 60.8927 23.5803 62.2409 23.7792 64.087 24.1834C 63.4875 29.1645 63.5613 34.7694 62.3402 39.1756C 60.929 39.1621 59.6864 39.192 58.2791 38.7213ZM 68.3581 39.5542C 67.4152 39.7701 66.3173 39.5626 65.4164 39.5452C 65.8399 35.3328 66.8674 30.6845 67.229 26.2628C 68.6465 26.2188 69.4038 26.8865 70.5697 27.111C 70.6322 30.9923 70.2303 36.3397 68.3581 39.5542ZM 83.6194 25.6286C 86.5741 26.3452 88.4321 29.9594 87.6056 33.6711C 87.0509 36.1657 86.0632 40.8629 85.0062 42.4587C 84.2251 43.639 82.1071 45.1844 80.416 44.1028C 77.6651 42.3435 72.8189 41.8328 70.8127 39.7033C 71.8187 36.3584 72.1309 31.7639 72.5458 27.5256C 75.9825 27.3117 80.2111 28.4701 83.0693 27.2408C 81.0739 26.5953 78.4848 26.5902 76.7608 25.6494C 78.1697 24.9698 81.4685 25.1071 83.6194 25.6286ZM 56.1424 43.5745C 54.067 48.449 52.1824 53.5003 49.0835 57.4282C 46.0811 55.4172 42.7749 53.526 41.9311 49.8743C 46.2286 47.446 51.2389 45.0507 56.1424 43.5745ZM 61.2583 58.6692C 61.0618 53.7942 60.505 47.3995 59.2039 43.5789C 62.3073 47.5255 64.8102 52.121 67.426 56.5954C 66.3111 58.3829 63.9802 59.9414 61.2583 58.6692ZM 55.459 60.7271C 54.2833 60.8535 53.2854 59.3772 51.7566 60.0156C 51.4064 59.629 51.0879 59.21 50.7308 58.8324C 54.1073 54.7685 55.6417 49.0028 58.2496 44.2271C 59.6489 48.8146 59.4877 53.8406 59.796 58.8477C 57.8733 58.7258 56.8066 60.5842 55.459 60.7271ZM 51.7299 65.6425C 51.6045 64.2506 51.9286 63.7954 52.209 62.2C 56.7901 60.7696 55.9903 68.4794 51.7299 65.6425ZM 46.6498 67.3081C 44.6759 68.3853 41.7105 69.5583 39.1608 70.0441C 36.0005 70.6479 36.2966 65.7388 36.4307 62.81C 36.536 60.4912 37.7434 58.0392 38.2678 56.4988C 38.514 55.7794 38.5694 55.0163 39.1852 54.8735C 40.2735 54.6201 43.8636 56.0538 44.8865 56.611C 47.05 57.7892 48.7286 59.6601 50.5662 60.9164C 50.59 61.5276 50.6133 62.1382 50.6377 62.7493C 49.533 63.2993 48.2563 63.6893 46.6345 63.7602C 47.7346 64.313 49.3531 64.305 50.3556 64.9627C 50.3652 65.2076 50.3754 65.4519 50.384 65.6946C 48.5538 65.8352 47.8561 66.6493 46.6498 67.3081ZM 27.7955 70.7285C 26.1572 69.0674 32.3905 66.803 34.3752 66.6812C 34.3641 67.7323 34.975 68.7233 34.8519 69.4773C 32.4948 69.8906 29.397 69.6179 27.7955 70.7285ZM 47.9771 69.9483C 47.9691 69.7862 47.7574 69.8452 47.7228 69.7131C 49.8305 68.0678 51.3962 67.7276 54.2652 67.8694C 55.5589 68.8071 56.7062 69.9035 58.0532 70.7817C 54.9521 70.5051 51.0482 68.5815 47.9771 69.9483ZM 66.5013 64.3384C 66.4127 66.1838 65.9273 69.9789 64.7852 70.6434C 62.3879 72.0409 58.1264 67.8217 56.3212 67.1782C 56.5176 66.6136 56.8418 66.1662 56.8668 65.4445C 57.9345 65.707 59.2345 65.5273 60.1598 65.0732C 59.0898 64.9536 57.9033 64.9615 57.1954 64.4524C 56.936 63.7035 57.259 62.683 57.0864 61.6432C 59.6262 60.9277 62.527 60.5467 65.7377 60.4526C 66.3622 61.2634 66.5751 62.8077 66.5013 64.3384ZM 25.0374 69.1219C 24.5229 69.4881 21.0427 74.0106 20.5659 73.8229C 14.2683 71.3426 8.37981 67.0537 3.1178 62.9972C 8.13481 52.2458 10.16 39.0735 10.5179 26.3777C 16.2651 23.6931 21.3132 19.8231 29.112 19.4189C 28.2095 25.7959 27.3857 31.4852 26.8734 37.489C 24.9139 38.3139 22.1026 37.4516 20.2688 37.7448C 20.2532 39.9518 23.0694 38.7112 23.304 40.1954C 23.4807 41.318 21.7545 41.4031 22.3166 43.1708C 23.7502 42.6503 24.503 41.5008 26.0319 41.0691C 27.4289 44.1215 26.0124 49.5223 26.2137 52.0735C 26.2519 52.5525 26.4532 54.7273 27.5276 54.3456C 28.4785 54.0079 27.4733 48.5618 27.5775 46.1472C 27.6724 43.9226 27.3085 41.77 28.2106 40.3735C 35.7466 41.398 43.4046 42.0602 51.5585 42.2836C 49.7647 43.0523 47.6336 43.7798 45.2972 45.095C 44.0306 45.8081 40.0381 47.2919 39.6726 48.4934C 39.0895 50.4079 41.2027 51.4277 41.5641 53.069C 37.7601 50.997 37.0179 55.055 36.118 57.93C 35.3027 60.5339 34.8386 62.4791 34.6385 63.9809C 31.3616 65.5411 27.858 67.1212 25.0374 69.1219ZM 63.173 73.2757C 68.42 75.8167 69.3657 63.7789 67.3091 59.901C 67.6269 58.7445 68.7203 58.3017 69.1665 57.2619C 66.2384 52.0235 62.9862 47.1336 59.9986 41.9568C 62.221 43.3385 65.3954 42.2039 68.0107 43.2381C 68.9666 43.6157 69.6586 45.8013 70.3824 47.5498C 72.3732 52.3601 74.4634 58.4247 75.3932 63.0152C 75.6033 64.0612 76.1755 66.3403 76.0472 67.2712C 75.8184 68.938 73.554 70.1739 72.4022 71.2046C 70.2802 73.1084 68.9439 74.7837 66.7306 76.5639C 65.8331 75.2407 63.907 74.3517 63.173 73.2757ZM 13.0376 119.747C 10.5374 116.999 11.0608 111.851 11.3635 108.189C 15.8826 111.028 21.8809 107.964 21.8243 103.135C 23.9819 103.193 22.6303 105.827 22.2401 107.523C 20.9646 113.066 24.3888 119.087 22.3953 124.156C 18.5247 123.863 15.3449 122.284 13.0376 119.747ZM 30.927 135.692C 25.2669 134.09 18.0129 129.983 15.687 124.905C 17.488 125.166 18.7382 126.073 20.5149 126.185C 21.1863 126.229 22.066 125.904 22.8377 126.096C 24.3755 126.477 25.6733 129.92 26.8335 131.202C 27.9644 132.453 29.3237 132.987 30.2539 134.128C 30.8516 134.416 31.7352 134.396 31.7692 135.293C 31.5101 135.569 31.2374 135.78 30.927 135.692ZM 60.3909 134.186C 54.5161 137.496 44.5721 139.986 38.3229 136.874C 33.2804 134.364 26.4643 130.209 24.1404 124.944C 26.3113 119.864 23.4974 115.209 23.3178 110.051C 23.2224 107.306 24.6117 104.91 24.7181 101.923C 23.9752 100.699 21.7056 100.548 20.1346 100.632C 19.6057 103.275 18.6799 106.246 15.9547 106.544C 12.0985 106.965 9.27901 103.778 9.10382 100.447C 8.89651 96.53 12.1162 90.038 16.6798 90.4887C 18.4427 90.6628 18.8758 92.4276 20.7965 92.4095C 21.8376 90.3351 19.1906 89.6837 18.9183 88.2C 18.8474 87.8167 19.1378 86.3189 19.3068 85.6164C 20.1357 82.1961 21.9835 77.7694 23.8023 75.1655C 26.1106 71.8625 30.6458 71.3647 35.5249 71.041C 36.3963 72.9159 39.6065 72.7617 41.6983 72.2713C 39.1915 73.2628 36.8609 75.6667 34.9295 77.7944C 32.7109 80.2356 30.4635 82.8543 30.35 86.045C 34.5425 80.2362 38.0062 75.1632 45.6299 72.608C 51.3984 70.6759 58.1355 73.4936 62.5679 76.6021C 64.4071 77.8942 65.505 79.9442 66.8124 81.8208C 71.704 88.848 73.9866 98.8783 73.4847 108.6C 73.2781 112.61 73.2872 116.605 71.9401 119.303C 70.5323 122.123 65.7707 124.647 62.9834 122.096C 62.4668 124.838 65.3012 126.535 68.6306 125.548C 66.2566 128.607 63.7651 132.284 60.3909 134.186ZM 71.3361 43.7206C 75.9269 45.9998 84.5043 49.8555 87.3824 43.7122C 88.4445 41.4477 89.6906 37.6198 90.2407 35.2823C 91.0178 31.9845 89.3982 25.053 86.0041 23.9464C 83.0063 22.9691 79.5083 23.0286 75.8973 23.7531C 75.4722 24.1063 74.9987 24.722 74.6678 25.3637C 72.0894 25.4636 69.6751 25.2255 67.6383 24.167C 67.8313 22.2626 66.5416 21.957 65.3324 21.5648C 64.4361 18.0153 67.1257 13.3798 66.482 10.1432C 66.0227 7.83734 63.1821 7.48079 61.0942 7.04941C 61.0261 5.76802 61.1856 4.69838 61.3281 3.61433C 60.8507 1.85748 58.7094 0.857369 56.6806 0.612435C 50.0054 -0.189253 39.87 -0.549348 33.4493 1.7565C 31.6576 6.1456 30.2462 11.4839 28.7538 16.4958C 22.4918 15.8279 17.4271 19.1943 12.6524 21.3998C 10.9993 22.1652 8.71248 22.5868 8.09491 23.901C 7.49619 25.1733 7.74119 27.6118 7.59263 29.9152C 7.21457 35.7983 6.89082 41.4728 5.33524 47.4965C 4.63678 50.1996 3.41935 52.5848 2.57006 55.1894C 1.78509 57.6033 0.413596 60.5866 0.0559074 62.9938C -0.474467 66.5615 2.88937 66.7599 5.04033 68.306C 8.3654 70.6968 10.9754 72.0189 14.5765 74.1766C 15.6431 74.8156 18.8596 76.4331 19.2254 77.178C 19.9527 78.6549 17.977 80.7373 17.4488 81.8949C 16.6132 83.7256 16.1775 85.2807 16.0578 87.087C 13.0369 87.5638 10.7469 89.3593 9.36371 91.3838C 7.07554 94.7344 5.48868 100.933 7.46843 105.649C 7.62369 106.02 8.39799 106.75 8.5122 107.32C 8.73751 108.444 8.08821 109.937 8.04785 111.131C 7.83985 117.26 9.08612 122.54 13.2172 124.389C 14.8943 131.061 20.8967 133.279 26.5519 136.595C 28.6658 137.835 30.9961 138.627 33.4028 139.511C 42.036 142.684 55.2818 142.087 62.447 136.675C 65.4851 134.38 70.3416 129.534 72.0786 126.026C 76.6665 116.764 76.3407 101.285 73.1317 90.018C 72.7002 88.5055 72.0747 86.2819 71.201 84.4649C 70.5919 83.1961 68.6987 80.6573 68.9286 79.537C 69.1653 78.3788 73.2452 75.285 74.12 74.4425C 75.6953 72.9248 78.688 70.9105 78.9304 68.9954C 79.191 66.9572 78.0312 64.169 77.4437 62.2023C 75.4795 55.6389 73.5631 49.572 71.3361 43.7206Z"/>
<path id="path55_fill" fill-rule="evenodd" d="M 0.128547 4.24637C 0.377584 4.57746 1.74686 5.08034 3.66275 4.15906C 3.66275 4.15906 1.39207 3.78091 1.58099 0L 0.634795 0.189357C 0.634795 0.189357 -0.343073 3.61764 0.128547 4.24637Z"/>
<path id="path56_fill" fill-rule="evenodd" d="M 2.08165 1.03909C 2.08165 0.465286 1.61559 0 1.04054 0C 0.466057 0 0 0.465286 0 1.03909C 0 1.61283 0.466057 2.07885 1.04054 2.07885C 1.61559 2.07885 2.08165 1.61283 2.08165 1.03909Z"/>
<path id="path57_fill" fill-rule="evenodd" d="M 2.08165 1.03909C 2.08165 0.465286 1.61559 0 1.04054 0C 0.466057 0 0 0.465286 0 1.03909C 0 1.61288 0.466057 2.07885 1.04054 2.07885C 1.61559 2.07885 2.08165 1.61288 2.08165 1.03909Z"/>
<path id="path58_fill" fill-rule="evenodd" d="M 21.7772 39.3208C 21.7772 43.2539 21.4632 46.5918 20.8353 49.3343C 20.2073 52.0769 18.797 54.3677 16.6043 56.2067C 14.4117 58.0457 11.1441 58.9652 6.80139 58.9652C 5.20482 58.9652 3.60826 58.8164 2.01168 58.5187L 0 47.8674C 1.68173 47.8249 3.05477 47.7292 4.11915 47.5804C 5.18354 47.4315 6.04568 47.0967 6.7056 46.5758C 7.36552 46.0549 7.83384 45.2524 8.11058 44.1681C 8.32346 43.3177 8.4299 40.8834 8.4299 36.8652L 8.4299 0.605957L 21.7772 0.605957L 21.7772 39.3208ZM 64.4057 31.3482L 41.5109 31.3482C 41.9579 33.3254 43.0542 34.9412 44.7998 36.1955C 46.5454 37.4499 48.5251 38.0771 50.739 38.0771C 54.6134 38.0771 58.8922 36.9928 63.5755 34.8243L 63.5755 41.9358C 61.8937 42.8075 59.8555 43.5994 57.4606 44.3116C 55.0657 45.0238 52.0163 45.38 48.3123 45.38C 44.3102 45.38 40.9042 44.6358 38.0942 43.1476C 35.2842 41.6594 33.1821 39.6397 31.7877 37.0885C 30.3934 34.5372 29.6962 31.6459 29.6962 28.4143C 29.6962 25.2253 30.3934 22.3711 31.7877 19.8518C 33.1821 17.3324 35.2842 15.3552 38.0942 13.9202C 40.9042 12.4851 44.3102 11.7676 48.3123 11.7676C 50.9519 11.7676 53.5011 12.3363 55.9598 13.4737C 58.4186 14.6111 60.4409 16.4714 62.0268 19.0545C 63.6127 21.6376 64.4057 24.9701 64.4057 29.0521L 64.4057 31.3482ZM 53.6129 25.6716C 53.6129 23.5881 53.0966 21.9245 52.0642 20.6808C 51.0317 19.437 49.5469 18.8152 47.6097 18.8152C 45.6939 18.8152 44.1452 19.4477 42.9637 20.7127C 41.7823 21.9776 41.1915 23.6306 41.1915 25.6716L 53.6129 25.6716ZM 104.767 44.8059L 93.2717 44.8059L 93.2717 27.2982C 93.2717 25.5123 92.979 23.955 92.3936 22.6262C 91.8082 21.2975 90.5256 20.6331 88.5459 20.6331C 87.6092 20.6331 86.7843 20.8085 86.0712 21.1593C 85.358 21.5101 84.7194 21.9618 84.1553 22.5146C 83.5912 23.0674 83.1175 23.5989 82.7343 24.1091C 82.3512 24.6194 81.9573 25.1615 81.5529 25.7355L 81.5529 44.8059L 70.0576 44.8059L 70.0576 12.3416L 81.5529 12.3416L 81.5529 16.9976C 83.3623 15.0629 85.1771 13.7076 86.9972 12.9316C 88.8173 12.1556 90.8449 11.7676 93.0801 11.7676C 100.871 11.7676 104.767 16.4235 104.767 25.7355L 104.767 44.8059ZM 150.301 44.8059L 135.709 44.8059L 123.223 29.4029L 123.223 44.8059L 111.6 44.8059L 111.6 0.605957L 123.223 0.605957L 123.223 26.5328L 134.623 12.3416L 148.417 12.3416L 135.709 27.4895L 150.301 44.8059ZM 165.149 4.84732C 165.149 6.18672 164.67 7.32413 163.712 8.25959C 162.754 9.19504 161.616 9.66276 160.296 9.66276C 159.402 9.66276 158.587 9.45016 157.853 9.02495C 157.119 8.59975 156.538 8.02041 156.113 7.28693C 155.687 6.55345 155.474 5.74026 155.474 4.84732C 155.474 3.52919 155.942 2.39178 156.879 1.43506C 157.816 0.47835 158.955 0 160.296 0C 161.616 0 162.754 0.47835 163.712 1.43506C 164.67 2.39178 165.149 3.52919 165.149 4.84732ZM 166.075 44.8059L 154.548 44.8059L 154.548 12.3416L 166.075 12.3416L 166.075 44.8059ZM 208.704 44.8059L 197.209 44.8059L 197.209 27.2982C 197.209 25.5123 196.916 23.955 196.33 22.6262C 195.745 21.2975 194.462 20.6331 192.483 20.6331C 191.546 20.6331 190.721 20.8085 190.008 21.1593C 189.295 21.5101 188.656 21.9618 188.092 22.5146C 187.528 23.0674 187.054 23.5989 186.671 24.1091C 186.288 24.6194 185.894 25.1615 185.49 25.7355L 185.49 44.8059L 173.994 44.8059L 173.994 12.3416L 185.49 12.3416L 185.49 16.9976C 187.299 15.0629 189.114 13.7076 190.934 12.9316C 192.754 12.1556 194.782 11.7676 197.017 11.7676C 204.808 11.7676 208.704 16.4235 208.704 25.7355L 208.704 44.8059ZM 241.018 35.3345C 241.018 38.311 239.927 40.7293 237.745 42.5896C 235.563 44.4498 232.322 45.38 228.022 45.38C 225.617 45.38 223.477 45.162 221.604 44.7262C 219.731 44.2904 217.687 43.6685 215.473 42.8606L 215.473 34.6967C 217.41 35.8022 219.092 36.642 220.518 37.216C 221.945 37.7901 223.509 38.0771 225.212 38.0771C 228.086 38.0771 229.523 37.2905 229.523 35.7172C 229.523 35.1857 229.316 34.7127 228.9 34.2981C 228.485 33.8835 227.762 33.4158 226.729 32.8949C 225.697 32.374 224.318 31.7522 222.594 31.0293C 220.465 30.0939 218.656 28.8395 217.166 27.2663C 215.676 25.693 214.93 23.769 214.93 21.4941C 214.93 19.8783 215.425 18.3264 216.415 16.8381C 217.405 15.3499 218.901 14.1328 220.902 13.1867C 222.903 12.2406 225.319 11.7676 228.15 11.7676C 228.831 11.7676 229.699 11.8154 230.753 11.9111C 231.806 12.0068 233.137 12.2566 234.744 12.6605C 236.351 13.0645 237.879 13.6385 239.326 14.3826L 239.326 22.3233C 238.645 21.9193 238.075 21.5792 237.618 21.3028C 237.16 21.0264 236.548 20.7181 235.782 20.378C 235.015 20.0378 234.116 19.7348 233.083 19.4691C 232.051 19.2033 230.992 19.0705 229.906 19.0705C 228.586 19.0705 227.682 19.3256 227.192 19.8358C 226.703 20.3461 226.458 20.8563 226.458 21.3666C 226.458 21.8981 226.713 22.3924 227.224 22.8495C 227.735 23.3066 228.874 23.8753 230.641 24.5556C 233.195 25.5336 235.239 26.5381 236.772 27.5692C 238.304 28.6003 239.395 29.7324 240.045 30.9655C 240.694 32.1986 241.018 33.6549 241.018 35.3345Z"/>
<path id="path59_fill" fill-rule="evenodd" d="M 77.8841 18.7549L 74.3669 18.7549L 74.3669 0L 77.8834 0L 77.8841 18.7549ZM 42.4827 17.5706C 42.5558 18.0427 42.6732 18.4373 42.8332 18.7534L 46.3752 18.7534L 46.3752 18.5464C 46.0358 17.9038 45.8619 16.9551 45.8537 15.7019L 45.8537 9.97559C 45.8537 8.4939 45.3784 7.34351 44.4276 6.52588C 43.4789 5.7085 42.195 5.29858 40.5778 5.29858C 39.5112 5.29858 38.5488 5.48413 37.6919 5.85425C 36.8343 6.22461 36.172 6.73511 35.7028 7.38599C 35.2337 8.03882 34.9991 8.74609 34.9991 9.51147L 38.5039 9.51147C 38.5039 9.01489 38.6723 8.62378 39.0076 8.33887C 39.3429 8.0542 39.8058 7.91235 40.3964 7.91235C 41.067 7.91235 41.5589 8.09521 41.8694 8.46118C 42.1812 8.82715 42.3365 9.31567 42.3365 9.92676L 42.3365 10.6841L 40.7234 10.6841C 38.7751 10.6924 37.2855 11.0708 36.2548 11.8191C 35.2241 12.5691 34.7094 13.6431 34.7094 15.042C 34.7094 16.1826 35.1316 17.126 35.9767 17.8762C 36.8212 18.6243 37.8865 18.9993 39.1711 18.9993C 40.5302 18.9993 41.6341 18.5222 42.4827 17.5706ZM 33.9084 8.85229C 33.4323 8.78784 33.0115 8.75513 32.6472 8.75513C 31.3212 8.75513 30.4532 9.20654 30.0393 10.1096L 30.0393 18.7563L 26.5345 18.7563L 26.5345 5.54468L 29.8461 5.54468L 29.9427 7.11987C 30.6464 5.90723 31.6206 5.30005 32.8659 5.30005C 33.2537 5.30005 33.6179 5.35352 33.9574 5.45972L 33.9084 8.85229ZM 39.937 16.3008C 40.4543 16.3008 40.9304 16.1848 41.3671 15.9534C 41.8032 15.7207 42.126 15.4097 42.3365 15.0186L 42.3365 12.7471L 41.027 12.7471C 39.2725 12.7471 38.3384 13.3584 38.2259 14.5789L 38.2135 14.7859C 38.2135 15.2256 38.3653 15.5881 38.6737 15.8728C 38.9807 16.1577 39.4009 16.3 39.9349 16.3L 39.937 16.3008ZM 55.7148 5.54395L 53.2766 14.4448L 50.8391 5.54248L 47.177 5.54248L 51.6042 18.7542L 54.9504 18.7542L 59.3783 5.54395L 55.7148 5.54395ZM 66.7991 18.9993C 64.8742 18.9993 63.308 18.4048 62.1007 17.2163C 60.8912 16.0283 60.2862 14.4446 60.2862 12.467L 60.2862 12.1248C 60.2862 10.7979 60.5414 9.61157 61.0507 8.56543C 61.5612 7.51855 62.2814 6.71289 63.2156 6.14819C 64.149 5.5813 65.2143 5.29858 66.4113 5.29858C 68.2051 5.29858 69.6195 5.86816 70.6495 7.00732C 71.6816 8.14795 72.197 9.76367 72.197 11.8557L 72.197 13.2964L 63.8386 13.2964C 63.9525 14.1599 64.2939 14.8523 64.8645 15.3733C 65.4344 15.8943 66.1561 16.1541 67.0288 16.1541C 68.379 16.1541 69.4346 15.6609 70.1942 14.6768L 71.9163 16.6182C 71.3919 17.3669 70.6792 17.9519 69.7823 18.3706C 68.8854 18.7896 67.8898 18.9993 66.7991 18.9993ZM 64.7073 8.86475C 65.1398 8.39233 65.7035 8.15625 66.3989 8.15625C 67.1427 8.15625 67.7167 8.37012 68.121 8.7981C 68.5253 9.22534 68.7357 9.82959 68.7516 10.6111L 68.7516 10.8916L 63.8766 10.8916C 63.998 10.0122 64.2747 9.33716 64.7073 8.86475ZM 87.6948 0.976562L 87.6948 18.7546L 92.5222 18.7534C 94.0256 18.7534 95.3578 18.4199 96.5189 17.7532C 97.678 17.0854 98.5777 16.1367 99.2166 14.9072C 99.8547 13.6792 100.174 12.2705 100.174 10.6838L 100.174 9.0481C 100.174 7.46851 99.852 6.05981 99.2103 4.82349C 98.5673 3.58545 97.6718 2.63525 96.5238 1.97192C 95.3757 1.30859 94.078 0.976562 92.6312 0.976562L 87.6948 0.976562ZM 89.1871 2.25903L 89.1871 17.4851L 92.5333 17.4851C 94.3933 17.4851 95.8863 16.8647 97.0088 15.6235C 98.1334 14.3816 98.6949 12.7026 98.6949 10.5862L 98.6949 9.02319C 98.6949 6.98096 98.1417 5.34448 97.0343 4.11499C 95.9263 2.8855 94.4678 2.26733 92.6561 2.25903L 89.1871 2.25903ZM 107.875 18.9993C 109.792 18.9993 111.186 18.3601 112.059 17.082L 112.083 18.7546L 113.49 18.7546L 113.49 5.54443L 112.035 5.54443L 112.035 15.1038C 111.477 16.8542 110.146 17.7295 108.045 17.7295C 106.023 17.7295 105.013 16.4709 105.013 13.9563L 105.013 5.54443L 103.57 5.54443L 103.57 14.1389C 103.586 15.7437 103.958 16.9536 104.686 17.772C 105.413 18.5894 106.477 18.9993 107.875 18.9993ZM 125.121 15.397C 125.121 14.6726 124.831 14.0913 124.254 13.6516C 123.676 13.2124 122.805 12.8687 121.64 12.6199C 120.474 12.3721 119.572 12.0872 118.929 11.7656C 118.286 11.4441 117.809 11.05 117.498 10.5869C 117.186 10.1228 117.031 9.56152 117.031 8.90234C 117.031 7.86035 117.463 6.99902 118.328 6.31982C 119.193 5.63892 120.301 5.30005 121.651 5.30005C 123.113 5.30005 124.288 5.66479 125.174 6.39258C 126.059 7.12207 126.502 8.07153 126.502 9.24414L 125.046 9.24414C 125.046 8.47095 124.725 7.82715 124.083 7.31519C 123.441 6.80103 122.63 6.54541 121.651 6.54541C 120.697 6.54541 119.932 6.75952 119.354 7.18652C 118.775 7.61377 118.486 8.16943 118.486 8.85376C 118.486 9.51367 118.728 10.0234 119.208 10.3855C 119.689 10.748 120.567 11.0801 121.84 11.3809C 123.112 11.6829 124.066 12.0046 124.701 12.3462C 125.336 12.688 125.807 13.0994 126.114 13.5793C 126.421 14.0598 126.575 14.6421 126.575 15.3254C 126.575 16.4397 126.128 17.3308 125.235 17.9985C 124.342 18.6653 123.176 19 121.737 19C 120.208 19 118.969 18.6277 118.02 17.8818C 117.07 17.1384 116.594 16.1958 116.594 15.0559L 118.05 15.0559C 118.107 15.9104 118.464 16.5771 119.123 17.0522C 119.782 17.5288 120.655 17.7664 121.738 17.7664C 122.748 17.7664 123.565 17.5427 124.187 17.0955C 124.809 16.6475 125.121 16.0813 125.121 15.397ZM 131.292 13.7119L 132.955 12.1003L 138.266 18.7542L 140 18.7542L 133.948 11.1106L 139.516 5.5437L 137.684 5.5437L 132.663 10.5132L 131.292 12.0032L 131.292 0L 129.837 0L 129.837 18.7549L 131.292 18.7549L 131.292 13.7119Z"/>
<path id="path60_fill" d="M 27.5 55C 12.3131 55 0 42.6869 0 27.5C 0 12.3131 12.3131 0 27.5 0C 42.6869 0 55 12.3131 55 27.5C 55 42.6869 42.6869 55 27.5 55Z"/>
<path id="path61_fill" fill-rule="evenodd" d="M 27.2821 38.0084C 25.0521 38.8414 22.6319 39.2982 20.1026 39.2982C 9.00021 39.2982 0 30.5011 0 19.6491C 0 8.79719 9.00021 0 20.1026 0C 22.6319 0 25.0521 0.45614 27.2821 1.29123C 19.7256 4.11509 14.359 11.2702 14.359 19.6491C 14.359 28.0281 19.7256 35.1832 27.2821 38.0084Z"/>
<path id="path62_stroke" d="M 27.2821 1.29123L 28.6823 5.03814L 38.6982 1.29515L 28.6849 -2.45472L 27.2821 1.29123ZM 25.8823 34.2613C 23.9774 34.9885 22.2593 35.3156 20.1026 35.2982L 20.1026 43.2982C 23.0045 43.2809 26.1268 42.6943 28.6818 41.7555L 25.8823 34.2613ZM 20.1026 35.2982C 11.1228 35.2982 4 28.2064 4 19.6491L -4 19.6491C -4 32.7957 6.87759 43.2982 20.1026 43.2982L 20.1026 35.2982ZM 4 19.6491C 4 11.0919 11.1228 4 20.1026 4L 20.1026 -4C 6.87759 -4 -4 6.50251 -4 19.6491L 4 19.6491ZM 20.1026 4C 22.2599 3.98266 23.9763 4.30876 25.8792 5.03718L 28.6849 -2.45472C 26.1279 -3.39647 23.0039 -3.98266 20.1026 -4L 20.1026 4ZM 25.8818 -2.45568C 16.8565 0.917096 10.359 9.50238 10.359 19.6491L 18.359 19.6491C 18.359 13.038 22.5947 7.31308 28.6823 5.03814L 25.8818 -2.45568ZM 10.359 19.6491C 10.359 29.796 16.8566 38.3809 25.8812 41.7551L 28.6829 34.2617C 22.5947 31.9854 18.359 26.2602 18.359 19.6491L 10.359 19.6491Z"/>
<path id="path63_stroke" d="M 0.387695 6.85023L 0.0719529 6.46254L -0.703436 7.09402L -0.387695 7.48172L 0.387695 6.85023ZM 97.254 7.52252L 97.6105 7.87306L 98.3116 7.15997L 97.955 6.80943L 97.254 7.52252ZM 0 7.16598C -0.387695 7.48172 -0.387436 7.48204 -0.387103 7.48244C -0.386894 7.4827 -0.386488 7.4832 -0.38607 7.48371C -0.385359 7.48458 -0.384104 7.48611 -0.382682 7.48784C -0.380087 7.49099 -0.375811 7.49617 -0.370622 7.50242C -0.36075 7.51431 -0.345157 7.53296 -0.325444 7.55624C -0.287052 7.60156 -0.227857 7.67048 -0.151419 7.75706C -0.00070902 7.92773 0.228463 8.1798 0.526767 8.48858C 1.11865 9.10099 2.01023 9.96395 3.16777 10.9275C 5.47181 12.8439 8.91094 15.2171 13.3052 16.9524C 22.1364 20.4327 34.87 21.3652 50.5295 11.3727L 49.9916 10.5297C 34.6066 20.347 22.2099 19.3868 13.6719 16.0221C 9.38161 14.3348 6.07646 12.0474 3.80736 10.1588C 2.67833 9.21988 1.82613 8.39425 1.24587 7.79368C 0.958106 7.49598 0.744118 7.26047 0.598186 7.09518C 0.526303 7.01379 0.473806 6.95264 0.437586 6.90988C 0.419994 6.88911 0.407551 6.87422 0.398714 6.86358C 0.394549 6.85856 0.391801 6.85523 0.389712 6.85269C 0.388792 6.85157 0.38829 6.85096 0.387829 6.8504C 0.38766 6.85019 0.387627 6.85015 0.387543 6.85005C 0.387582 6.8501 0.387695 6.85023 0 7.16598ZM 50.5295 11.3727C 65.9599 1.5264 77.6673 0.618442 85.4798 2.12089C 89.3991 2.87092 92.3273 4.22166 94.3178 5.40182C 95.3049 5.98609 96.0357 6.5155 96.5338 6.90864C 96.7794 7.1023 96.9587 7.25553 97.0822 7.36502C 97.1424 7.41832 97.1851 7.45763 97.2153 7.48587C 97.2297 7.49926 97.2393 7.50841 97.2465 7.51531C 97.2497 7.5184 97.2516 7.5202 97.2532 7.52177C 97.2538 7.52237 97.254 7.52256 97.2543 7.52287C 97.2544 7.52293 97.2543 7.52284 97.2543 7.52288C 97.2542 7.52273 97.254 7.52252 97.6045 7.16598C 97.955 6.80943 97.9547 6.8091 97.9543 6.80871C 97.9541 6.8085 97.9536 6.80805 97.9532 6.80762C 97.9525 6.80696 97.9512 6.80569 97.9498 6.80436C 97.9475 6.80207 97.9434 6.7981 97.9386 6.79356C 97.9299 6.78521 97.9157 6.77167 97.8982 6.75536C 97.8649 6.72416 97.8123 6.67591 97.7455 6.61667C 97.6151 6.5011 97.4139 6.3294 97.1532 6.12358C 96.6387 5.71775 95.8535 5.15 94.8275 4.54149C 92.7918 3.33609 89.7048 1.91878 85.6687 1.13889C 77.5704 -0.418529 65.6058 0.566104 49.9916 10.5297L 50.5295 11.3727Z"/>
<path id="path64_stroke" d="M 0.406252 7.24174L 0.114773 6.83549L -0.69773 7.41844L -0.406252 7.8247L 0.406252 7.24174ZM 78.0657 13.0275L 78.4241 13.3762L 79.1214 12.6595L 78.7631 12.3108L 78.0657 13.0275ZM 0 7.53322C -0.406252 7.8247 -0.405981 7.82507 -0.405673 7.8255C -0.40552 7.82571 -0.405172 7.8262 -0.404865 7.82662C -0.404406 7.82726 -0.403481 7.82853 -0.402561 7.8298C -0.401036 7.8319 -0.398262 7.83569 -0.395199 7.83985C -0.389709 7.84729 -0.380455 7.85972 -0.369411 7.8743C -0.348633 7.9017 -0.315206 7.94494 -0.273277 7.99719C -0.192188 8.09814 -0.064881 8.25034 0.099733 8.4316C 0.422807 8.78682 0.925533 9.29131 1.58905 9.83537C 2.90097 10.9083 4.9478 12.2083 7.69931 13.0109C 13.2405 14.6166 21.6589 14.2345 33.349 6.63273L 32.8038 5.79439C 21.2946 13.2786 13.1748 13.5564 7.97763 12.0504C 5.35995 11.2972 3.48754 10.0984 2.22253 9.06161C 1.59757 8.5508 1.14741 8.09765 0.839704 7.75896C 0.688929 7.59325 0.581377 7.46442 0.506454 7.37108C 0.470377 7.32619 0.44551 7.29397 0.427495 7.2702C 0.419142 7.25919 0.413875 7.2521 0.409693 7.24643C 0.407921 7.24402 0.407071 7.24286 0.406182 7.24164C 0.405894 7.24124 0.405625 7.24087 0.40577 7.24107C 0.405775 7.24108 0.405896 7.24124 0.405899 7.24125C 0.406057 7.24147 0.406252 7.24174 0 7.53322ZM 33.349 6.63273C 44.7678 -0.792664 55.9173 0.787091 64.2535 4.24591C 68.4316 5.97743 71.8728 8.16809 74.2975 9.94249C 75.5056 10.8262 76.4457 11.5964 77.0918 12.1521C 77.413 12.4282 77.656 12.6468 77.8219 12.7992C 77.904 12.8745 77.9649 12.9315 78.0066 12.971C 78.027 12.9903 78.0418 13.0044 78.0521 13.0143C 78.057 13.0191 78.0604 13.0224 78.0629 13.0248C 78.064 13.0259 78.0647 13.0265 78.0653 13.0271C 78.0655 13.0273 78.0656 13.0274 78.0658 13.0275C 78.0658 13.0275 78.0657 13.0275 78.4144 12.6691C 78.7631 12.3108 78.7628 12.3105 78.7625 12.3102C 78.7623 12.31 78.7619 12.3096 78.7615 12.3092C 78.7607 12.3084 78.7594 12.3072 78.7578 12.3057C 78.7549 12.3029 78.7502 12.2984 78.7445 12.2928C 78.7333 12.2821 78.716 12.2655 78.6938 12.2446C 78.6503 12.2034 78.584 12.1413 78.4983 12.0626C 78.3286 11.9067 78.0733 11.6773 77.7438 11.3939C 77.0886 10.8304 76.1179 10.0356 74.888 9.13545C 72.4367 7.34224 68.8933 5.09039 64.6368 3.32226C 56.1038 -0.218199 44.5844 -1.86623 32.8038 5.79439L 33.349 6.63273Z"/>
<path id="path65_fill" fill-rule="evenodd" d="M 17.8982 11.0853L 10.0893 11.0853C 9.88784 11.0853 9.72452 11.2538 9.72452 11.4615L 9.72452 15.3963C 9.72452 15.6039 9.88784 15.773 10.0893 15.773L 13.1355 15.773L 13.1355 20.6616C 13.1355 20.6616 12.4516 20.9019 10.5604 20.9019C 8.32952 20.9019 5.21288 20.0617 5.21288 12.9987C 5.21288 5.93377 8.45826 5.00445 11.505 5.00445C 14.1425 5.00445 15.2785 5.4828 16.0017 5.7136C 16.2289 5.7854 16.439 5.5522 16.439 5.34427L 17.31 1.54274C 17.31 1.44515 17.278 1.32842 17.1706 1.24892C 16.877 1.03301 15.0858 0 10.5604 0C 5.34756 0 0 2.28565 0 13.2741C 0 24.2626 6.12233 25.9 11.2815 25.9C 15.5532 25.9 18.1446 24.0188 18.1446 24.0188C 18.2514 23.9579 18.263 23.8039 18.263 23.7337L 18.263 11.4615C 18.263 11.2538 18.0997 11.0853 17.8982 11.0853Z"/>
<path id="path66_fill" fill-rule="evenodd" d="M 16.8582 0.378844C 16.8582 0.169055 16.6994 0 16.5005 0L 12.1655 0C 11.9676 0 11.8066 0.169055 11.8066 0.378844C 11.8066 0.379643 11.8079 9.14683 11.8079 9.14683L 5.05053 9.14683L 5.05053 0.378844C 5.05053 0.169055 4.8913 0 4.69289 0L 0.358154 0C 0.161017 0 0 0.169055 0 0.378844L 0 24.1204C 0 24.3299 0.161017 24.5 0.358154 24.5L 4.69289 24.5C 4.8913 24.5 5.05053 24.3299 5.05053 24.1204L 5.05053 13.965L 11.8079 13.965C 11.8079 13.965 11.7959 24.1196 11.7959 24.1204C 11.7959 24.3299 11.9567 24.5 12.1551 24.5L 16.5003 24.5C 16.6989 24.5 16.8577 24.3299 16.8582 24.1204L 16.8582 0.378844Z"/>
<path id="path67_fill" fill-rule="evenodd" d="M 5.61939 2.79886C 5.61939 1.25098 4.36163 0 2.80957 0C 1.25904 0 0 1.25098 0 2.79886C 0 4.34549 1.25904 5.6 2.80957 5.6C 4.36163 5.6 5.61939 4.34549 5.61939 2.79886Z"/>
<path id="path68_fill" fill-rule="evenodd" d="M 4.91697 11.3902C 4.91697 10.779 4.91697 0.380074 4.91697 0.380074C 4.91697 0.170913 4.76086 0 4.56814 0L 0.365154 0C 0.172434 0 0 0.215045 0 0.423938C 0 0.423938 0 13.6728 0 16.1985C 0 16.662 0.267186 16.8 0.612796 16.8C 0.612796 16.8 2.4069 16.8 4.39942 16.8C 4.81504 16.8 4.91697 16.5793 4.91697 16.191C 4.91697 15.3455 4.91697 12.0332 4.91697 11.3902Z"/>
<path id="path69_fill" fill-rule="evenodd" d="M 15.7599 0L 11.0351 0C 10.8186 0 10.642 0.166646 10.642 0.371569L 10.642 11.7569C 10.642 11.7569 9.44144 12.5755 7.73772 12.5755C 6.03427 12.5755 5.58222 11.855 5.58222 10.3005C 5.58222 8.74371 5.58222 0.371569 5.58222 0.371569C 5.58222 0.166646 5.4062 0 5.18912 0L 0.393661 0C 0.177413 0 0 0.166646 0 0.371569C 0 0.371569 0 6.43462 0 11.052C 0 15.6702 2.76149 16.8 6.56037 16.8C 9.67724 16.8 12.1901 15.195 12.1901 15.195C 12.1901 15.195 12.3097 16.041 12.3639 16.141C 12.4178 16.241 12.5589 16.3422 12.7114 16.3422L 15.7621 16.3295C 15.9783 16.3295 16.1557 16.1628 16.1557 15.9587L 16.1541 0.371569C 16.1541 0.166646 15.9778 0 15.7599 0Z"/>
<path id="path70_fill" fill-rule="evenodd" d="M 7.92477 20.8465C 6.34214 20.7987 5.26862 20.0831 5.26862 20.0831L 5.26862 12.4946C 5.26862 12.4946 6.32757 11.8481 7.62692 11.7325C 9.26998 11.5858 10.8532 12.0802 10.8532 15.9841C 10.8532 20.1006 10.1387 20.9129 7.92477 20.8465ZM 9.72431 7.34503C 7.13291 7.34503 5.37032 8.49647 5.37032 8.49647L 5.37032 0.38238C 5.37032 0.170633 5.20035 0 4.99098 0L 0.379875 0C 0.170242 0 0 0.170633 0 0.38238L 0 24.3455C 0 24.557 0.170242 24.7287 0.380415 24.7287C 0.380954 24.7287 3.57859 24.7287 3.57967 24.7287C 3.72375 24.7287 3.83274 24.6548 3.91341 24.5255C 3.993 24.3965 4.10767 23.4203 4.10767 23.4203C 4.10767 23.4203 5.99301 25.2 9.56217 25.2C 13.7527 25.2 16.1557 23.0831 16.1557 15.6967C 16.1557 8.31025 12.3176 7.34503 9.72431 7.34503Z"/>
<path id="path71_fill" fill-rule="evenodd" d="M 11.4969 4.85538L 8.05276 4.85538C 8.05276 4.85538 8.04764 0.26199 8.04764 0.260902C 8.04764 0.0867858 7.95874 0 7.75964 0L 3.06646 0C 2.8838 0 2.786 0.0810727 2.786 0.258181L 2.786 5.0061C 2.786 5.0061 0.434025 5.5796 0.274802 5.62557C 0.116656 5.67209 0 5.81955 0 5.99557L 0 8.97921C 0 9.19386 0.16973 9.36689 0.379603 9.36689L 2.786 9.36689C 2.786 9.36689 2.786 12.4874 2.786 16.5448C 2.786 21.8763 6.48936 22.4 8.98817 22.4C 10.1302 22.4 11.4961 22.0295 11.7216 21.9457C 11.858 21.8948 11.9372 21.7522 11.9372 21.5974L 11.9412 18.3154C 11.9412 18.1015 11.762 17.9279 11.5605 17.9279C 11.3595 17.9279 10.8463 18.0106 10.3177 18.0106C 8.6258 18.0106 8.05276 17.2162 8.05276 16.1881C 8.05276 15.1606 8.05249 9.36689 8.05249 9.36689L 11.4969 9.36689C 11.7068 9.36689 11.8768 9.19386 11.8768 8.97921L 11.8768 5.24197C 11.8768 5.02787 11.7068 4.85538 11.4969 4.85538Z"/>
<path id="path72_fill" fill-rule="evenodd" d="M 25.2875 0C 11.3234 0 0 11.2461 0 25.1201C 0 36.219 7.24563 45.6352 17.2931 48.9568C 18.5569 49.1894 19.0209 48.4119 19.0209 47.7484C 19.0209 47.1494 18.9974 45.1705 18.9865 43.0715C 11.9515 44.5911 10.4671 40.1076 10.4671 40.1076C 9.31677 37.204 7.65935 36.4319 7.65935 36.4319C 5.36502 34.8728 7.8323 34.9049 7.8323 34.9049C 10.3716 35.0817 11.7087 37.4935 11.7087 37.4935C 13.9641 41.3339 17.6243 40.2236 19.0674 39.5818C 19.2943 37.9586 19.9497 36.8496 20.6728 36.2227C 15.0562 35.5875 9.15178 33.4335 9.15178 23.8081C 9.15178 21.0655 10.1396 18.8246 11.7572 17.0654C 11.4947 16.4322 10.6291 13.8777 12.0022 10.4175C 12.0022 10.4175 14.1257 9.74236 18.9581 12.9925C 20.9752 12.4359 23.1384 12.1567 25.2875 12.1472C 27.4365 12.1567 29.6014 12.4359 31.6223 12.9925C 36.4488 9.74236 38.5694 10.4175 38.5694 10.4175C 39.9458 13.8777 39.0798 16.4322 38.8173 17.0654C 40.4387 18.8246 41.4198 21.0655 41.4198 23.8081C 41.4198 33.4564 35.5041 35.5808 29.8732 36.2027C 30.7802 36.9823 31.5884 38.511 31.5884 40.8547C 31.5884 44.2154 31.5591 46.9206 31.5591 47.7484C 31.5591 48.4169 32.0143 49.2002 33.2961 48.9535C 43.3381 45.6281 50.5745 36.2152 50.5745 25.1201C 50.5745 11.2461 39.2528 0 25.2875 0Z"/>
<path id="path73_fill" d="M 18.1139 0.538817C 18.0109 0.217997 17.7076 -0.000156637 17.3647 8.43859e-08L 10.034 8.43859e-08C 9.69122 -3.80008e-05 9.38806 0.218106 9.2852 0.538817L 0.0365832 29.3091C -0.0389369 29.5432 0.0038912 29.7986 0.15188 29.9966C 0.299869 30.1947 0.535275 30.3116 0.785614 30.3115L 5.83244 30.3115C 6.18067 30.3116 6.48739 30.0868 6.58584 29.7591L 12.9547 8.59963C 12.9547 8.59963 13.1213 8.07111 13.6982 8.07111C 14.2843 8.07111 14.4274 8.62022 14.4274 8.62086L 17.3822 18.655L 13.3225 18.655C 12.9707 18.655 12.6618 18.8845 12.5665 19.2166L 11.4271 23.1889C 11.3605 23.421 11.4088 23.6703 11.5574 23.8624C 11.7058 24.0548 11.9376 24.1679 12.1836 24.1678L 19.0344 24.1678L 20.8141 29.7699C 20.9164 30.092 21.2203 30.3114 21.5643 30.3115L 26.6133 30.3115C 26.8635 30.3114 27.0988 30.1945 27.2468 29.9965C 27.3947 29.7985 27.4376 29.5432 27.3623 29.3091L 18.1137 0.538603"/>
<path id="path74_fill" fill-rule="evenodd" d="M 5.08905 0L 9.93146 0C 10.1284 0 10.3172 0.0776367 10.4564 0.21582C 10.5956 0.35376 10.6738 0.541016 10.6736 0.736328L 10.6736 23.9836C 10.6736 28.8188 6.82666 32.4263 2.19342 32.4263C 1.64398 32.4263 1.30609 32.2263 1.20996 31.9155L 0.0326538 28.1177C -0.0336304 27.9038 0.0020752 27.6716 0.129639 27.4868C 0.256836 27.3025 0.488403 27.178 0.687378 27.1685C 2.16351 27.094 4.34467 26.1609 4.34467 23.3223L 4.34467 0.736084C 4.34589 0.329102 4.67877 0 5.08905 0ZM 21.1354 0L 16.3511 0C 15.9208 0 15.5718 0.345703 15.5716 0.772461L 15.5716 29.637C 15.5715 29.842 15.6536 30.0386 15.7998 30.1836C 15.946 30.3286 16.1443 30.4102 16.3511 30.4102L 21.1354 30.4102C 21.566 30.4102 21.9151 30.0642 21.9151 29.637L 21.9151 0.772705C 21.915 0.567871 21.8328 0.371094 21.6866 0.226318C 21.5404 0.0812988 21.3421 0 21.1354 0ZM 45.1386 19.6062L 51.7996 29.1343C 51.9977 29.3633 52.0433 29.686 51.916 29.9604C 51.7888 30.2346 51.5121 30.4104 51.2076 30.4102L 45.4857 30.4102C 45.2304 30.4102 44.9914 30.2861 44.8456 30.0784L 38.1869 20.5847L 33.2909 20.5847L 33.2909 29.637C 33.2909 30.064 32.9419 30.4102 32.5114 30.4102L 27.7273 30.4102C 27.5205 30.4102 27.3222 30.3286 27.176 30.1836C 27.0298 30.0386 26.9478 29.842 26.9478 29.637L 26.9478 0.772461C 26.9481 0.345703 27.297 0 27.7273 0L 39.5775 0C 46.4123 0 49.4603 2.5813 49.4603 8.37061L 49.4603 12.2563C 49.4603 15.9539 48.0067 18.4265 45.1386 19.6062ZM 39.3527 5.61987L 33.2908 5.61987L 33.2908 15.0508L 39.3527 15.0508C 42.1673 15.0508 43.1169 14.2219 43.1169 11.7651L 43.1169 8.81714C 43.1169 6.84302 42.4876 5.61987 39.3527 5.61987Z"/>
<path id="path75_fill" fill-rule="evenodd" d="M 12.9952 2.7041C 12.9952 1.20703 14.2139 0 15.7189 0C 17.2247 0 18.4423 1.20703 18.4423 2.7041C 18.4423 4.19702 17.2249 5.40845 15.7189 5.40845C 14.2137 5.40845 12.9952 4.19702 12.9952 2.7041ZM 6.77173 2.46704C 5.26654 2.46704 4.04785 3.67432 4.04785 5.1709C 4.04785 6.66382 5.26654 7.87524 6.77173 7.87524C 8.27777 7.87524 9.4953 6.66382 9.4953 5.1709C 9.4953 3.67432 8.27795 2.46704 6.77173 2.46704ZM 24.6663 2.46704C 23.1605 2.46704 21.9433 3.67432 21.9433 5.1709C 21.9433 6.66382 23.1605 7.87524 24.6663 7.87524C 26.1679 7.87524 27.3895 6.66382 27.3895 5.1709C 27.3895 3.67432 26.1679 2.46899 24.6663 2.46704ZM 31.1054 10.0015C 30.9564 9.88892 30.7742 9.82812 30.5869 9.82788C 30.4843 9.82788 30.3805 9.84644 30.2826 9.88403C 28.4384 10.5835 26.5653 11.1147 24.856 11.5098C 24.5073 11.5903 24.2259 11.8472 24.1091 12.1555C 22.8636 15.5391 19.6833 18.7612 16.3467 22.1357C 16.2128 22.262 16.0253 22.4282 15.72 22.4282C 15.4152 22.4282 15.2295 22.2671 15.0932 22.1357L 15.0659 22.1082C 11.7396 18.7437 8.57336 15.541 7.33087 12.1665C 7.21405 11.8584 6.93237 11.6016 6.58441 11.5205C 4.87396 11.1255 2.99646 10.5779 1.1543 9.87866C 1.05682 9.8418 0.95343 9.82275 0.849121 9.82275C 0.66449 9.82275 0.485596 9.88013 0.334534 9.99487C 0.102173 10.1709 -0.0228271 10.4531 0.003479 10.7422C 0.286011 13.5559 1.40698 16.3066 3.43005 19.189C 5.33124 21.8984 7.81073 24.4065 10.2083 26.8313L 10.2101 26.8333L 10.215 26.8381C 14.6317 31.3069 18.8029 35.5271 19.1689 40.4211C 19.2021 40.8633 19.5734 41.2051 20.0203 41.2051L 25.2116 41.2051C 25.4453 41.2048 25.6686 41.1096 25.8297 40.9419C 25.9908 40.7739 26.0756 40.5481 26.0643 40.3167C 25.9009 37.0435 24.659 33.7654 22.2676 30.2966C 21.7664 29.5693 21.2296 28.8616 20.6682 28.1692C 20.4401 27.8872 20.5356 27.5369 20.7099 27.3601L 20.9398 27.1274L 21.2302 26.8333C 23.6283 24.4077 26.1085 21.8992 28.0103 19.189C 30.0332 16.3062 31.1537 13.5718 31.4365 10.7585C 31.4646 10.4758 31.3353 10.1758 31.1054 10.0015ZM 9.54321 30.384C 9.84619 30.384 10.0264 30.5139 10.1494 30.6414C 11.7057 32.2522 12.752 33.4272 13.606 34.5291C 13.7777 34.7495 14.0098 35.2654 13.7112 35.8142C 12.8502 37.4011 12.3773 38.9114 12.2644 40.418C 12.2294 40.8608 11.858 41.2029 11.4102 41.2048L 6.22791 41.2048C 5.99329 41.2041 5.76898 41.1089 5.60663 40.9409C 5.44574 40.772 5.36096 40.5454 5.3717 40.3132C 5.52759 37.1875 6.65533 34.0769 8.83893 30.7812C 8.92584 30.6497 9.1557 30.384 9.54321 30.384Z"/>
<path id="path76_fill" d="M 3.69729 0.0968985C 5.32409 0.0968985 6.26768 0 6.59919 0C 7.00095 0 7.38449 0.326407 7.38449 0.783245C 7.38449 0.916508 7.35265 1.01188 7.32126 1.09615C 7.10545 1.66818 6.12212 3.72657 4.29137 5.4923C 4.08588 5.69045 3.85317 5.72747 3.6929 5.72747L 3.69115 5.72747C 3.5311 5.72747 3.29861 5.69045 3.09333 5.4923C 1.26236 3.72657 0.278817 1.66818 0.0636669 1.09593C 0.0318335 1.01188 0 0.916508 0 0.783245C 0 0.326407 0.384197 0 0.785957 0C 1.11746 0 2.06039 0.0968985 3.68675 0.0968985L 3.69751 0.0968985"/>
<path id="path77_fill" d="M 14.7656 14.3945C 14.7656 15.9648 14.4922 17.3437 13.9453 18.5312C 13.4062 19.7187 12.6328 20.6328 11.625 21.2734C 10.6172 21.9141 9.45313 22.2344 8.13281 22.2344C 6.14062 22.2344 4.53125 21.5234 3.30469 20.1016C 2.07812 18.6719 1.46484 16.7461 1.46484 14.3242L 1.46484 12.5664C 1.46484 11.0117 1.73828 9.63672 2.28516 8.44141C 2.83984 7.23828 3.62109 6.31641 4.62891 5.67578C 5.63672 5.02734 6.79688 4.70312 8.10938 4.70312C 9.42188 4.70312 10.5781 5.01953 11.5781 5.65234C 12.5859 6.28516 13.3633 7.17969 13.9102 8.33594C 14.457 9.49219 14.7422 10.832 14.7656 12.3555L 14.7656 14.3945ZM 13.3242 12.543C 13.3242 10.4883 12.8594 8.87891 11.9297 7.71484C 11 6.55078 9.72656 5.96875 8.10938 5.96875C 6.52344 5.96875 5.25781 6.55469 4.3125 7.72656C 3.375 8.89063 2.90625 10.5195 2.90625 12.6133L 2.90625 14.3945C 2.90625 16.418 3.375 18.0234 4.3125 19.2109C 5.25 20.3906 6.52344 20.9805 8.13281 20.9805C 9.76562 20.9805 11.0391 20.3984 11.9531 19.2344C 12.8672 18.0625 13.3242 16.4336 13.3242 14.3477L 13.3242 12.543ZM 20.25 6.07422L 20.25 9.32031L 22.875 9.32031L 22.875 10.4688L 20.25 10.4688L 20.25 18.918C 20.25 19.6211 20.375 20.1445 20.625 20.4883C 20.8828 20.832 21.3086 21.0039 21.9023 21.0039C 22.1367 21.0039 22.5156 20.9648 23.0391 20.8867L 23.0977 22.0352C 22.7305 22.168 22.2305 22.2344 21.5977 22.2344C 20.6367 22.2344 19.9375 21.957 19.5 21.4023C 19.0625 20.8398 18.8438 20.0156 18.8438 18.9297L 18.8438 10.4688L 16.5117 10.4688L 16.5117 9.32031L 18.8438 9.32031L 18.8438 6.07422L 20.25 6.07422ZM 27.1758 11.4648C 27.6367 10.707 28.2266 10.1211 28.9453 9.70703C 29.6641 9.29297 30.4492 9.08594 31.3008 9.08594C 32.6602 9.08594 33.6719 9.46875 34.3359 10.2344C 35 11 35.3359 12.1484 35.3438 13.6797L 35.3438 22L 33.9492 22L 33.9492 13.668C 33.9414 12.5352 33.6992 11.6914 33.2227 11.1367C 32.7539 10.582 32 10.3047 30.9609 10.3047C 30.0938 10.3047 29.3242 10.5781 28.6523 11.125C 27.9883 11.6641 27.4961 12.3945 27.1758 13.3164L 27.1758 22L 25.7812 22L 25.7812 4L 27.1758 4L 27.1758 11.4648ZM 43.8633 22.2344C 42.7852 22.2344 41.8086 21.9687 40.9336 21.4375C 40.0664 20.9062 39.3906 20.168 38.9062 19.2227C 38.4219 18.2695 38.1797 17.2031 38.1797 16.0234L 38.1797 15.5195C 38.1797 14.3008 38.4141 13.2031 38.8828 12.2266C 39.3594 11.25 40.0195 10.4844 40.8633 9.92969C 41.707 9.36719 42.6211 9.08594 43.6055 9.08594C 45.1445 9.08594 46.3633 9.61328 47.2617 10.668C 48.168 11.7148 48.6211 13.1484 48.6211 14.9688L 48.6211 15.7539L 39.5742 15.7539L 39.5742 16.0234C 39.5742 17.4609 39.9844 18.6602 40.8047 19.6211C 41.6328 20.5742 42.6719 21.0508 43.9219 21.0508C 44.6719 21.0508 45.332 20.9141 45.9023 20.6406C 46.4805 20.3672 47.0039 19.9297 47.4727 19.3281L 48.3516 19.9961C 47.3203 21.4883 45.8242 22.2344 43.8633 22.2344ZM 43.6055 10.2812C 42.5508 10.2812 41.6602 10.668 40.9336 11.4414C 40.2148 12.2148 39.7773 13.2539 39.6211 14.5586L 47.2266 14.5586L 47.2266 14.4062C 47.1875 13.1875 46.8398 12.1953 46.1836 11.4297C 45.5273 10.6641 44.668 10.2812 43.6055 10.2812ZM 57.2109 10.5156C 56.9141 10.4609 56.5977 10.4336 56.2617 10.4336C 55.3867 10.4336 54.6445 10.6797 54.0352 11.1719C 53.4336 11.6562 53.0039 12.3633 52.7461 13.293L 52.7461 22L 51.3516 22L 51.3516 9.32031L 52.7227 9.32031L 52.7461 11.3359C 53.4883 9.83594 54.6797 9.08594 56.3203 9.08594C 56.7109 9.08594 57.0195 9.13672 57.2461 9.23828L 57.2109 10.5156ZM 76.7109 6.16797L 70.8633 6.16797L 70.8633 22L 69.4219 22L 69.4219 6.16797L 63.5859 6.16797L 63.5859 4.9375L 76.7109 4.9375L 76.7109 6.16797ZM 77.2031 15.4727C 77.2031 14.2539 77.4375 13.1562 77.9062 12.1797C 78.3828 11.2031 79.0508 10.4453 79.9102 9.90625C 80.7773 9.35938 81.7578 9.08594 82.8516 9.08594C 84.5391 9.08594 85.9063 9.67969 86.9531 10.8672C 88 12.0469 88.5234 13.6133 88.5234 15.5664L 88.5234 15.8594C 88.5234 17.0859 88.2852 18.1914 87.8086 19.1758C 87.3398 20.1523 86.6758 20.9062 85.8164 21.4375C 84.957 21.9687 83.9766 22.2344 82.875 22.2344C 81.1953 22.2344 79.8281 21.6445 78.7734 20.4648C 77.7266 19.2773 77.2031 17.707 77.2031 15.7539L 77.2031 15.4727ZM 78.6094 15.8594C 78.6094 17.375 79 18.6211 79.7812 19.5977C 80.5703 20.5664 81.6016 21.0508 82.875 21.0508C 84.1406 21.0508 85.1641 20.5664 85.9453 19.5977C 86.7344 18.6211 87.1289 17.3359 87.1289 15.7422L 87.1289 15.4727C 87.1289 14.5039 86.9492 13.6172 86.5898 12.8125C 86.2305 12.0078 85.7266 11.3867 85.0781 10.9492C 84.4297 10.5039 83.6875 10.2812 82.8516 10.2812C 81.6016 10.2812 80.582 10.7734 79.793 11.7578C 79.0039 12.7344 78.6094 14.0156 78.6094 15.6016L 78.6094 15.8594ZM 90.6562 15.4727C 90.6562 14.2539 90.8906 13.1562 91.3594 12.1797C 91.8359 11.2031 92.5039 10.4453 93.3633 9.90625C 94.2305 9.35938 95.2109 9.08594 96.3047 9.08594C 97.9922 9.08594 99.3594 9.67969 100.406 10.8672C 101.453 12.0469 101.977 13.6133 101.977 15.5664L 101.977 15.8594C 101.977 17.0859 101.738 18.1914 101.262 19.1758C 100.793 20.1523 100.129 20.9062 99.2695 21.4375C 98.4102 21.9687 97.4297 22.2344 96.3281 22.2344C 94.6484 22.2344 93.2812 21.6445 92.2266 20.4648C 91.1797 19.2773 90.6562 17.707 90.6562 15.7539L 90.6562 15.4727ZM 92.0625 15.8594C 92.0625 17.375 92.4531 18.6211 93.2344 19.5977C 94.0234 20.5664 95.0547 21.0508 96.3281 21.0508C 97.5938 21.0508 98.6172 20.5664 99.3984 19.5977C 100.187 18.6211 100.582 17.3359 100.582 15.7422L 100.582 15.4727C 100.582 14.5039 100.402 13.6172 100.043 12.8125C 99.6836 12.0078 99.1797 11.3867 98.5312 10.9492C 97.8828 10.5039 97.1406 10.2812 96.3047 10.2812C 95.0547 10.2812 94.0352 10.7734 93.2461 11.7578C 92.457 12.7344 92.0625 14.0156 92.0625 15.6016L 92.0625 15.8594ZM 106.453 22L 105.047 22L 105.047 4L 106.453 4L 106.453 22ZM 117.867 18.7773C 117.867 18.082 117.586 17.5234 117.023 17.1016C 116.469 16.6797 115.629 16.3516 114.504 16.1172C 113.379 15.875 112.504 15.6016 111.879 15.2969C 111.262 14.9844 110.801 14.6055 110.496 14.1602C 110.199 13.7148 110.051 13.1758 110.051 12.543C 110.051 11.543 110.469 10.7187 111.305 10.0703C 112.141 9.41406 113.211 9.08594 114.516 9.08594C 115.93 9.08594 117.062 9.4375 117.914 10.1406C 118.773 10.8359 119.203 11.7461 119.203 12.8711L 117.797 12.8711C 117.797 12.1289 117.484 11.5117 116.859 11.0195C 116.242 10.5273 115.461 10.2812 114.516 10.2812C 113.594 10.2812 112.852 10.4883 112.289 10.9023C 111.734 11.3086 111.457 11.8398 111.457 12.4961C 111.457 13.1289 111.687 13.6211 112.148 13.9727C 112.617 14.3164 113.465 14.6328 114.691 14.9219C 115.926 15.2109 116.848 15.5195 117.457 15.8477C 118.074 16.1758 118.531 16.5703 118.828 17.0312C 119.125 17.4922 119.273 18.0508 119.273 18.707C 119.273 19.7773 118.84 20.6328 117.973 21.2734C 117.113 21.9141 115.988 22.2344 114.598 22.2344C 113.121 22.2344 111.922 21.8789 111 21.168C 110.086 20.4492 109.629 19.543 109.629 18.4492L 111.035 18.4492C 111.09 19.2695 111.434 19.9102 112.066 20.3711C 112.707 20.8242 113.551 21.0508 114.598 21.0508C 115.574 21.0508 116.363 20.8359 116.965 20.4062C 117.566 19.9766 117.867 19.4336 117.867 18.7773Z"/>
<path id="path78_fill" fill-rule="evenodd" d="M 0.392866 12.5492L 34.2572 0L 37.5786 0.989103L 43.5569 17.1822L 42.941 18.4535L 39.1306 18.8478L 34.2572 21.783L 33.3783 26.6124L 35.4099 31.0554L 40.6399 33.156L 44.5188 31.8077L 47.2607 29.6843L 48.6742 31.8077L 49.8603 34.9845L 48.1684 38.0075L 17.8148 48.7995L 13.9516 49.4324L 11.8526 48.1894L 0.392866 16.5444L 0 14.6629L 0.392866 12.5492Z"/>
<path id="path79_fill" fill-rule="evenodd" d="M 11.6043 49.0649C 11.9676 49.7688 12.9161 50.6738 13.7637 51.1362C 14.7122 51.6389 17.134 51.5988 18.5669 51.0559L 18.8516 50.9516C 19.4207 50.7431 20.1061 50.4919 20.4841 50.372L 20.9763 50.1943C 21.4778 50.0134 22.1534 49.7697 22.7041 49.5676C 23.4911 49.2661 24.3387 48.9643 24.6213 48.8637C 24.9039 48.7834 27.4064 47.8784 30.1712 46.8527C 32.9562 45.8271 36.4476 44.5603 37.941 44.0373C 39.0352 43.6542 40.1078 43.2602 40.7141 43.0375C 40.9353 42.9563 41.0945 42.8979 41.17 42.871C 41.4526 42.7502 43.2285 42.0866 45.1055 41.423C 49.3638 39.8947 49.8683 39.613 50.7966 38.2456C 51.5231 37.2199 51.5635 37.0793 51.5433 35.611C 51.5231 34.0827 50.958 32.1923 50.0902 30.7243C 49.3638 29.4978 47.8501 29.5178 46.6594 30.7646C 44.9844 32.4741 41.937 33.2583 39.8179 32.5544C 38.6473 32.1523 37.0934 31.0664 36.5485 30.2819C 33.7635 26.1394 36.9118 20.6894 42.1792 20.5688C 43.0066 20.5485 43.8542 20.5285 44.056 20.5285C 44.6816 20.5085 45.61 19.4023 45.61 18.7187C 45.61 18.1355 44.2578 14.1132 42.6837 10.051C 42.5222 9.6689 41.8765 7.89937 41.2507 6.12959C 39.717 1.88643 39.3739 1.32319 37.6989 0.478712C 36.6091 -0.064257 34.8735 -0.164843 33.7029 0.27754L 33.5034 0.351026C 33.0181 0.529493 32.0973 0.868116 31.2812 1.16231C 28.2136 2.24824 20.7465 4.96333 19.7778 5.32515C 18.9421 5.64448 17.9527 6.00191 15.1379 7.01899C 13.874 7.47578 12.2421 8.06538 10.0907 8.84443C 2.30359 11.6372 2.30017 11.6401 1.49316 12.3269L 1.47327 12.3437C 0.464172 13.1882 -2.04417e-16 14.3747 0 16.0439C 1.52692e-16 17.2907 0.141296 17.894 1.13019 20.5485C 1.7558 22.238 2.34106 23.8466 2.42175 24.1281C 2.68414 24.9326 4.17755 29.0151 4.39954 29.5581C 4.52063 29.8396 5.40863 32.2326 6.35712 34.8872C 8.23401 40.0756 8.75873 41.5236 9.18256 42.6296C 9.34399 43.0117 9.88892 44.5 10.3934 45.9077C 10.8979 47.3354 11.4429 48.7431 11.6043 49.0649ZM 39.8583 41.1213C 35.3174 42.7502 28.2741 45.3044 24.2379 46.7724C 20.2016 48.2404 16.6698 49.4873 16.3671 49.5476C 15.7213 49.6882 14.4095 49.2258 13.8646 48.7028C 13.5619 48.3811 9.28345 36.9787 2.68408 18.8593C 1.6347 15.9233 1.6347 15.2998 2.68408 14.1535C 3.26935 13.5302 4.29865 13.1079 12.2097 10.2321C 31.0793 3.37446 34.9542 2.00703 35.5596 2.00703C 36.3871 2.00703 37.4365 2.52998 37.8604 3.17354C 38.0621 3.47505 39.4143 7.01436 40.8875 11.0566L 43.5515 18.3969L 41.9167 18.5175C 38.9905 18.7387 36.71 19.9052 35.1964 21.9563C 33.8644 23.7663 33.4608 25.0734 33.5415 27.2453C 33.6021 28.6933 33.7231 29.2966 34.1469 30.2016C 35.6403 33.3991 39.2528 35.3095 42.825 34.8068C 44.944 34.5051 47.0024 33.5397 47.8905 32.4338C 48.0923 32.1723 48.3345 32.0114 48.4353 32.0717C 48.7986 32.2929 49.6462 35.4504 49.5251 36.134C 49.2426 37.6623 48.8188 37.8835 39.8583 41.1213Z"/>
<path id="path80_fill" fill-rule="evenodd" d="M 0 3.88333C 0.0201416 5.91458 1.25122 7.48318 3.08777 7.82498C 5.50952 8.26736 7.7699 6.41726 7.7699 3.96389C 7.7699 2.25442 6.78101 0.86697 5.16638 0.283718C 3.97571 -0.138645 3.41064 -0.0983617 2.17957 0.464627C 0.686157 1.16848 -1.99483e-16 2.25442 0 3.88333ZM 4.03638 2.39529C 5.38855 2.39529 6.01416 4.04422 5.04541 5.09011C 4.37939 5.81399 3.47131 5.79397 2.70435 5.02981C 2.03833 4.36599 1.99805 4.0242 2.42188 3.21975C 2.74475 2.55618 3.08777 2.39529 4.03638 2.39529Z"/>
<path id="path81_fill" d="M 0.415272 2.41322C 0.132733 1.87025 -0.0489 1.3876 0.0116443 1.32727C 0.253821 1.08595 2.45359 0 2.69577 0C 2.83704 0 3.20031 0.442424 3.50303 0.985399L 4.02774 1.9708L 3.38194 2.373C 2.43341 2.93609 1.38398 3.41873 1.12162 3.41873C 1.00053 3.41873 0.677631 2.9562 0.415272 2.41322Z"/>
<path id="path82_fill" d="M 0.635761 2.87576C 0.373403 2.45344 0.0908635 2.01102 0.0101379 1.87025C -0.0705877 1.70937 0.33304 1.34738 1.1403 0.824518C 1.84665 0.382094 2.51263 0 2.61354 0C 2.79517 0 3.92533 1.60882 3.92533 1.87025C 3.92533 2.05124 1.56411 3.61983 1.32193 3.61983C 1.20084 3.61983 0.89812 3.27796 0.635761 2.87576Z"/>
<path id="path83_fill" d="M 0.605442 2.97631C 0.28254 2.53388 0 2.05124 0 1.93058C 0 1.68926 2.09887 0 2.38141 0C 2.6034 0 3.83447 1.50826 3.83447 1.7697C 3.83447 1.93058 1.51361 3.82094 1.31179 3.82094C 1.25125 3.82094 0.948526 3.43884 0.605442 2.97631Z"/>
<path id="path84_fill" d="M 0.609534 2.99642C 0.226087 2.5741 -0.036271 2.15179 0.00409178 2.07135C 0.12518 1.7697 2.12314 0 2.32495 0C 2.58731 0 3.7982 1.26694 3.7982 1.54848C 3.7982 1.83003 1.75987 3.82094 1.47733 3.80083C 1.37643 3.80083 0.972799 3.43884 0.609534 2.99642Z"/>
<path id="path85_fill" d="M 0.746712 3.19752C 0.343084 2.85565 0 2.47355 0 2.35289C 0 2.07135 1.77596 0 1.99796 0C 2.21995 0 3.83447 1.26694 3.83447 1.42782C 3.83447 1.62893 1.81633 3.82094 1.63469 3.82094C 1.57415 3.82094 1.17052 3.53939 0.746712 3.19752Z"/>
<path id="path86_fill" d="M 0.766893 3.15361L 0 2.51008L 0.807256 1.42413C 1.27143 0.820825 1.63469 0.25774 1.63469 0.157189C 1.63469 -0.164574 2.17959 0.0164176 3.00703 0.619723C 3.49138 0.961597 3.85465 1.32358 3.81429 1.42413C 3.63265 1.947 2.09887 3.81724 1.83651 3.81724C 1.67506 3.81724 1.1907 3.51559 0.766893 3.15361Z"/>
<path id="path87_fill" d="M 0.905737 3.49917C 0.461747 3.21763 0.0581184 2.93609 0.0177556 2.89587C -0.0831514 2.81543 0.239751 2.21212 1.14791 0.764187L 1.63227 0L 2.37898 0.442424C 3.7715 1.26694 3.75132 1.24683 2.9037 2.71488C 2.45971 3.43884 2.01571 4.04215 1.91481 4.04215C 1.79372 4.04215 1.34973 3.80083 0.905737 3.49917Z"/>
<path id="path88_fill" d="M 1.44196 3.98191C -0.798175 3.39871 -0.293639 0.0201986 2.02722 8.83601e-05C 4.30772 -0.0200218 4.8728 3.39871 2.69321 3.98191C 2.37031 4.08246 1.80523 4.08246 1.44196 3.98191Z"/>
<path id="path89_fill" fill-rule="evenodd" d="M 0.100891 15.9875L 1.71539 16.1082C 2.60339 16.1887 4.48029 16.2087 5.89294 16.1687C 8.27435 16.1082 8.55695 16.0681 9.66687 15.5049C 12.3308 14.1575 13.239 11.302 11.9272 8.50659C 10.9585 6.47559 9.2027 5.51025 6.11499 5.28906L 4.64172 5.16821L 4.64172 2.59424L 4.64172 0L 2.32086 0L 0 0L 0.0403442 8.00391L 0.100891 15.9875ZM 7.02313 9.37134C 8.07257 10.0552 8.09277 11.845 7.06348 12.3679C 6.7406 12.5288 6.07458 12.6694 5.54987 12.6694L 4.64172 12.6694L 4.64172 10.739L 4.64172 8.80835L 5.61041 8.94922C 6.13513 9.00952 6.76074 9.21045 7.02313 9.37134Z"/>
<path id="path90_fill" fill-rule="evenodd" d="M 0.100891 15.9875L 1.81635 16.1082C 2.76483 16.1887 4.62152 16.2087 5.95355 16.1887C 8.59723 16.1082 9.62653 15.8267 10.8576 14.781C 13.4811 12.5889 12.9161 7.80273 9.86871 6.23413C 8.83942 5.69116 6.86163 5.22876 5.67096 5.22876L 4.64172 5.22876L 4.64172 2.61426L 4.64172 0L 2.32086 0L 0 0L 0.0403442 8.00391L 0.100891 15.9875ZM 7.78998 10.3767C 7.97162 11.3823 7.74969 12.0259 7.06342 12.3677C 6.74054 12.5286 6.05438 12.6694 5.54987 12.6694L 4.62152 12.6694L 4.68207 10.8193L 4.74261 8.94897L 5.7113 8.98926C 6.94232 9.06958 7.6286 9.51196 7.78998 10.3767Z"/>
<path id="path91_fill" d="M 0 8.04408L 0 0L 2.32086 0L 4.64172 0L 4.64172 3.11708L 4.64172 6.23416L 7.1644 6.23416L 9.68707 6.23416L 9.68707 3.11708L 9.68707 0L 12.0079 0L 14.3288 0L 14.3288 8.04408L 14.3288 16.0882L 12.0079 16.0882L 9.68707 16.0882L 9.68707 13.1722L 9.68707 10.2562L 7.1644 10.2562L 4.64172 10.2562L 4.64172 13.1722L 4.64172 16.0882L 2.32086 16.0882L 0 16.0882L 0 8.04408Z"/>
<path id="path92_fill" d="M 0 11.8858C 0 5.0282 0.403628 3.07751 2.09887 1.4687C 3.20884 0.443078 4.46009 0.0207637 6.45805 0.000653512C 8.75873 -0.0194567 10.1916 0.422968 11.342 1.54914C 13.1583 3.31884 13.5215 4.88743 13.5215 11.5037L 13.5215 16.3703L 11.5034 16.3703L 9.50544 16.3703L 9.4449 10.9004C 9.38435 5.8125 9.34399 5.34997 8.96054 4.626C 7.83039 2.4541 5.06553 2.77586 4.339 5.14886C 4.09683 5.95327 4.03628 7.30065 4.03628 11.2825L 4.03628 16.3703L 2.01814 16.3703L 0 16.3703L 0 11.8858Z"/>
<path id="path93_fill" d="M 3.24921 14.7976L 1.7356 14.3552L 1.67506 13.3094L 1.61451 12.2637L 0.8678 12.2034L 0.121088 12.143L 0.0605442 10.6951L 0 9.22706L 0.807256 9.22706L 1.59433 9.22706L 1.67506 5.96921C 1.7356 3.01301 1.79615 2.6108 2.19977 1.82651C 2.56304 1.14276 2.90612 0.841107 3.71338 0.459014C 4.8839 -0.0638512 5.57007 -0.124182 7.08367 0.197581L 8.09274 0.418793L 8.09274 1.90695L 8.09274 3.3951L 7.10385 3.3951C 6.47823 3.3951 6.03424 3.49565 5.87279 3.69675C 5.71134 3.87775 5.59025 4.98381 5.50952 6.61273L 5.40862 9.22706L 6.76077 9.22706L 8.09274 9.22706L 8.09274 10.7353L 8.09274 12.2436L 6.78095 12.2436L 5.46916 12.2436L 5.46916 13.7519C 5.46916 15.5014 5.54989 15.4612 3.24921 14.7976Z"/>
<path id="path94_fill" d="M 5.67098 11.8047C 5.26735 11.684 4.6619 11.322 4.31882 11.0204L 3.71338 10.4774L 3.65283 11.1209L 3.59229 11.7645L 1.79615 11.8248L 0 11.8851L 0.121088 9.00937C 0.201814 7.42066 0.262358 4.74601 0.262358 3.07686L 0.262358 0L 2.15941 0L 4.07664 0L 4.13719 3.80083C 4.19773 7.52121 4.21791 7.62176 4.68209 8.12452C 5.36825 8.84848 6.53878 8.84848 7.10385 8.12452C 7.50748 7.62176 7.52766 7.32011 7.52766 3.80083L 7.52766 0L 9.56599 0L 11.5841 0L 11.5236 4.38402C 11.463 8.58705 11.4429 8.78815 10.9585 9.73333C 10.1714 11.2416 9.28345 11.8449 7.7093 11.9656C 6.96258 12.0259 6.11497 11.9656 5.67098 11.8047Z"/>
<path id="path95_fill" d="M 0 5.93251L 0 0L 2.01814 0L 4.03628 0L 4.03628 5.93251L 4.03628 11.865L 2.01814 11.865L 0 11.865L 0 5.93251Z"/>
</defs>
</svg>
