<svg width="214" height="50" viewBox="0 0 214 50" version="1.1" xmlns="http://www.w3.org/2000/svg" xmlns:xlink="http://www.w3.org/1999/xlink">
<title>docker_logo</title>
<desc>Created using Figma</desc>
<g id="Canvas" transform="translate(-752 -1614)">
<g id="docker_logo">
<g id="SVGID_1_">
<use xlink:href="#path0_fill" transform="translate(752 1614)" fill="#1E9EE9"/>
</g>
<g id="docker_2_">
<use xlink:href="#path1_fill" transform="translate(829 1623)" fill="#FFFFFF"/>
</g>
</g>
</g>
<defs>
<path id="path0_fill" fill-rule="evenodd" d="M 29.4796 0L 36.3394 0L 36.3394 7.0144L 29.4796 7.0144L 29.4796 0ZM 36.3394 8.9928L 29.4796 8.9928L 29.4796 16.0072L 36.3394 16.0072L 36.3394 8.9928ZM 59.0295 20.6833C 58.6777 17.8057 56.9188 15.4675 54.6322 13.6691L 53.7527 12.9496L 53.0491 13.8489C 51.642 15.4675 51.1143 18.3452 51.2902 20.5035C 51.4661 22.1222 51.9938 23.741 52.8732 25C 52.5217 25.1797 52.1263 25.3594 51.7308 25.5391L 51.7237 25.5424C 51.33 25.7213 50.9366 25.9001 50.5867 26.0791C 49.0036 26.6187 47.4206 26.7985 45.8376 26.7985L 0.281433 26.7985L 0.10553 27.8777C -0.246277 31.2949 0.281433 34.8921 1.68854 38.1294L 2.39215 39.3884L 2.39215 39.5682C 6.61353 46.7626 14.1769 50 22.4438 50C 38.2742 50 51.2902 42.9856 57.4465 27.8777C 61.492 28.0575 65.5375 26.9784 67.4723 23.0215L 68 22.1222L 67.1205 21.5826C 64.8339 20.1438 61.6678 19.964 59.0295 20.6833ZM 13.6492 40.2877C 11.7144 40.2877 9.95551 38.6691 9.95551 36.6907C 9.95551 34.7122 11.5385 33.0935 13.6492 33.0935C 15.7599 33.0935 17.343 34.7122 17.343 36.6907C 17.343 38.6691 15.584 40.2877 13.6492 40.2877ZM 29.4796 17.8058L 36.3394 17.8058L 36.3394 24.8202L 29.4796 24.8202L 29.4796 17.8058ZM 44.7822 17.8058L 37.9224 17.8058L 37.9224 24.8202L 44.7822 24.8202L 44.7822 17.8058ZM 12.418 17.8058L 19.2778 17.8058L 19.2778 24.8202L 12.418 24.8202L 12.418 17.8058ZM 27.8965 17.8058L 21.0367 17.8058L 21.0367 24.8202L 27.8965 24.8202L 27.8965 17.8058ZM 3.97516 17.8058L 10.835 17.8058L 10.835 24.8202L 3.97516 24.8202L 3.97516 17.8058ZM 27.8965 8.9928L 21.0367 8.9928L 21.0367 16.0072L 27.8965 16.0072L 27.8965 8.9928ZM 12.418 8.9928L 19.2778 8.9928L 19.2778 16.0072L 12.418 16.0072L 12.418 8.9928Z"/>
<path id="path1_fill" fill-rule="evenodd" d="M 20.6042 2.09668L 20.6042 10.6583C 18.4354 8.73633 15.7243 7.68799 13.0132 7.51318L 12.1095 7.51318C 9.94061 7.51318 7.95251 8.03735 6.14514 9.08582C 2.16888 11.1825 0 14.677 0 19.0452L 0 19.9188C 0 22.0155 0.542236 23.9375 1.62665 25.6847C 3.79553 29.5287 7.41028 31.6255 11.9288 31.6255L 12.8325 31.6255C 15.0013 31.6255 16.9894 31.1012 18.7968 30.0529C 22.7731 27.9562 24.942 24.4617 24.942 20.0935L 24.942 2.09668C 24.942 0.873657 24.219 0 22.9538 0L 22.5923 0C 21.3271 0 20.6042 1.04834 20.6042 2.09668ZM 82.7783 14.677L 87.6583 9.95947C 87.839 9.84302 88.1403 9.55176 88.4883 9.21521C 89.1845 8.54224 90.0681 7.68799 90.5501 7.68799L 91.2731 7.68799C 92.1768 7.86267 92.8997 8.38684 92.8997 9.4353L 92.8997 9.78467C 92.8997 10.2754 92.4543 10.766 92.0638 11.1962C 91.8981 11.3788 91.7422 11.5505 91.6345 11.7067C 91.183 12.2305 90.6864 12.7106 90.1897 13.1908L 90.1886 13.1919C 89.6916 13.6724 89.1946 14.1528 88.7427 14.677L 83.6821 19.5693L 90.1887 25.8595L 91.996 27.6068L 92.719 28.3057C 92.7675 28.3993 92.8159 28.4805 92.8608 28.5557C 92.9836 28.7614 93.0804 28.9235 93.0804 29.1793L 93.0804 29.7035C 92.8997 30.5771 92.1768 31.276 91.2731 31.276L 90.9116 31.276C 90.1887 31.276 89.4657 30.5771 88.9235 30.053C 88.6286 29.7679 88.3145 29.4828 87.9937 29.1917C 87.3314 28.5906 86.6405 27.9636 86.0316 27.2573L 82.7783 24.287L 82.7783 29.1793C 82.7783 30.2277 82.0554 31.276 80.7902 31.276L 80.4287 31.276C 79.1636 31.276 78.4406 30.4023 78.4406 29.1793L 78.4406 2.27148C 78.4406 1.22314 79.1636 0.349487 80.4287 0.349487L 80.7902 0.349487C 82.0554 0.349487 82.7783 1.22314 82.7783 2.27148L 82.7783 14.677ZM 105.009 27.0825C 106.455 27.6068 108.263 27.6068 109.889 27.2573C 110.612 26.9078 112.781 26.0342 113.504 26.209L 113.865 26.209C 114.408 26.3837 114.769 26.7332 114.95 27.2573C 115.492 28.3057 115.311 29.354 114.227 29.8782L 113.865 30.053C 109.889 32.3243 105.732 31.9749 101.756 29.8782C 99.9485 28.8298 98.5026 27.432 97.4182 25.6848L 97.2375 25.3353C 94.7072 21.1418 95.0686 16.599 97.9604 12.5803C 98.8641 11.1825 100.31 10.1342 101.756 9.2605L 102.298 8.91101C 106.094 6.81433 110.07 6.98901 113.865 8.73633C 115.854 9.78467 117.661 11.1825 118.745 13.1045L 118.926 13.454C 119.83 14.8517 118.745 16.0748 117.48 16.9485L 113.685 20.0935C 110.433 22.5382 107.724 24.8083 105.014 27.0782L 105.009 27.0825ZM 106 20.7955L 106.005 20.7911C 107.541 19.5248 109.076 18.2584 110.612 16.9485C 111.697 16.0748 112.781 15.2012 113.865 14.1528C 112.962 13.1045 111.697 12.4056 110.431 11.8815C 108.082 11.0078 105.732 11.3572 103.383 12.5803C 100.491 14.1528 99.2256 16.7738 99.4063 19.9188C 99.4063 21.1418 99.7678 22.365 100.491 23.4133C 101.033 23.9375 101.214 24.287 101.394 24.6365C 102.924 23.3314 104.454 22.0701 105.984 20.8087L 105.989 20.8043L 105.994 20.7999L 106 20.7955ZM 134.831 7.86267L 134.47 7.86267C 132.12 7.86267 129.951 8.56152 127.602 9.95935C 124.348 12.2308 122.36 15.3759 122.36 19.3947L 122.36 29.7035C 122.36 30.9265 123.083 31.8002 124.348 31.8002L 124.71 31.8002C 125.975 31.8002 126.698 30.7518 126.698 29.7035L 126.698 19.9188C 126.698 17.822 127.421 15.9 129.047 14.3275C 130.313 13.1045 132.12 12.0562 133.927 12.0562C 135.373 12.0562 137 11.7067 137 9.95935C 137 8.73633 136.096 7.86267 134.831 7.86267ZM 66.8734 11.7065C 67.5963 11.7065 68.8615 11.7065 69.4037 12.056C 69.7652 12.2308 71.2111 12.9297 72.4763 13.2792L 72.657 13.2792C 73.7415 13.1044 74.4644 12.5802 74.4644 11.5319L 74.4644 11.1824C 74.4644 10.833 74.2836 10.4835 74.1029 10.134L 73.9222 9.95935L 73.7415 9.78467C 71.9341 8.56152 69.7652 8.03735 67.5963 8.03735L 66.6926 8.03735C 64.5237 8.03735 62.5356 8.56152 60.7283 9.60986C 56.752 11.7065 54.5831 15.2012 54.5831 19.5693L 54.5831 20.4429C 54.5831 21.4912 54.5831 22.3649 54.9446 23.4132C 56.752 29.0045 61.4512 32.3243 67.5963 31.9749C 69.223 31.8002 73.9222 31.2759 73.9222 28.8297L 73.9222 28.4803C 73.9222 27.432 73.1992 26.9078 72.2955 26.733L 71.3918 26.733C 71.3113 26.7642 71.2253 26.798 71.1343 26.8339L 71.097 26.8485L 71.0619 26.8624L 71.049 26.8676C 70.1169 27.2357 68.7354 27.7814 67.777 27.7814C 66.5119 27.7814 64.8853 27.6067 63.8008 27.0825C 60.5475 25.6847 58.7401 23.2385 58.7401 19.744C 58.7401 18.5209 58.9208 17.4725 59.4631 16.4242C 60.909 13.4539 63.4393 11.5319 66.8734 11.7065ZM 31.4485 19.5693C 31.4485 22.5397 33.0752 24.8112 35.6055 26.3837C 36.8707 27.0826 38.3167 27.432 39.7625 27.432C 42.8351 27.432 45.1847 25.8595 46.8113 23.4133C 47.5343 22.1903 47.8958 20.7925 47.8958 19.3947C 47.8958 16.599 46.4499 14.3276 44.1003 12.755C 42.8351 11.8815 41.2084 11.532 39.7625 11.532C 36.3285 11.532 33.7982 13.2793 32.3522 16.2496C 31.4485 17.4727 31.4485 18.521 31.4485 19.5693ZM 39.5818 7.68799L 39.0396 7.68799C 36.8707 7.68799 35.0633 8.21216 33.0752 9.08582C 29.0989 11.1825 26.9301 14.677 26.9301 19.0452L 26.9301 19.9188C 26.9301 22.0155 27.4723 23.9375 28.5567 25.6848C 30.7256 29.5288 34.3403 31.6255 38.8588 31.6255L 39.7625 31.6255C 41.9314 31.6255 43.9195 31.1013 45.7269 30.053C 49.7031 27.9562 51.872 24.4617 51.872 20.0935L 51.872 19.22C 51.872 17.298 51.3298 15.5507 50.4261 13.9781C 48.0765 9.95947 44.4617 7.68799 39.5818 7.68799ZM 3.97626 19.5693C 3.97626 22.7145 5.60291 25.1606 8.49475 26.5585C 9.57916 27.0826 10.8444 27.432 12.2902 27.432C 15.5435 27.432 17.8931 26.0343 19.5198 23.4133C 20.2427 22.1903 20.6042 20.7925 20.6042 19.3947C 20.6042 16.599 19.3391 14.5023 16.9894 12.9298C 15.5435 12.0562 14.0977 11.532 12.2902 11.532C 8.8562 11.532 6.32587 13.2793 4.87994 16.2496C 4.33771 17.4727 3.97626 18.521 3.97626 19.5693Z"/>
</defs>
</svg>
