<svg xmlns="http://www.w3.org/2000/svg" xmlns:xlink="http://www.w3.org/1999/xlink" width="527" height="425" version="1.1" viewBox="0 0 527 425"><title>environment_technologies</title><desc>Created using Figma</desc><g id="Canvas" transform="translate(-594 -1239)"><g id="environment_technologies"><g id="amazon_webservices_logo"><g id="g10"><g id="g12"><g id="path14"><use fill="#F68D11" transform="matrix(1 -1.22465e-16 -1.22465e-16 -1 737.358 1285.9)" xlink:href="#path0_fill"/></g><g id="path16"><use fill="#F68D11" transform="matrix(1 -1.22465e-16 -1.22465e-16 -1 763.81 1285.9)" xlink:href="#path1_fill"/></g><g id="path18"><use fill="#F68D11" transform="matrix(1 -1.22465e-16 -1.22465e-16 -1 741.637 1250.29)" xlink:href="#path2_fill"/></g><g id="path20"><use fill="#F68D11" transform="matrix(1 -1.22465e-16 -1.22465e-16 -1 790.263 1285.9)" xlink:href="#path0_fill"/></g><g id="path22"><use fill="#F68D11" transform="matrix(1 -1.22465e-16 -1.22465e-16 -1 816.716 1285.9)" xlink:href="#path1_fill"/></g><g id="path24"><use fill="#F68D11" transform="matrix(1 -1.22465e-16 -1.22465e-16 -1 794.542 1250.29)" xlink:href="#path2_fill"/></g><g id="path26"><use fill="#F68D11" transform="matrix(1 -1.22465e-16 -1.22465e-16 -1 658 1330.45)" xlink:href="#path3_fill"/></g><g id="path28"><use fill="#F68D11" transform="matrix(1 -1.22465e-16 -1.22465e-16 -1 684.453 1330.45)" xlink:href="#path4_fill"/></g><g id="path30"><use fill="#F68D11" transform="matrix(1 -1.22465e-16 -1.22465e-16 -1 662.279 1294.84)" xlink:href="#path5_fill"/></g><g id="path32"><use fill="#F68D11" transform="matrix(1 -1.22465e-16 -1.22465e-16 -1 710.905 1330.45)" xlink:href="#path6_fill"/></g><g id="path34"><use fill="#F68D11" transform="matrix(1 -1.22465e-16 -1.22465e-16 -1 737.358 1330.45)" xlink:href="#path7_fill"/></g><g id="path36"><use fill="#F68D11" transform="matrix(1 -1.22465e-16 -1.22465e-16 -1 715.184 1294.84)" xlink:href="#path5_fill"/></g><g id="path38"><use fill="#F68D11" transform="matrix(1 -1.22465e-16 -1.22465e-16 -1 684.453 1375)" xlink:href="#path6_fill"/></g><g id="path40"><use fill="#F68D11" transform="matrix(1 -1.22465e-16 -1.22465e-16 -1 710.905 1375)" xlink:href="#path8_fill"/></g><g id="path42"><use fill="#F68D11" transform="matrix(1 -1.22465e-16 -1.22465e-16 -1 688.732 1339.39)" xlink:href="#path9_fill"/></g><g id="path44"><use fill="#FFF" transform="matrix(1 -1.22465e-16 -1.22465e-16 -1 767.842 1374.78)" xlink:href="#path10_fill"/></g><g id="path46"><use fill="#FFF" transform="matrix(1 -1.22465e-16 -1.22465e-16 -1 800.293 1374.75)" xlink:href="#path11_fill"/></g><g id="path48"><use fill="#FFF" transform="matrix(1 -1.22465e-16 -1.22465e-16 -1 825.932 1374.46)" xlink:href="#path12_fill"/></g><g id="path50"><use fill="#FFF" transform="matrix(1 -1.22465e-16 -1.22465e-16 -1 854.079 1374.74)" xlink:href="#path13_fill"/></g><g id="path52"><use fill="#FFF" transform="matrix(1 -1.22465e-16 -1.22465e-16 -1 877.574 1374.77)" xlink:href="#path14_fill"/></g><g id="path54"><use fill="#FFF" transform="matrix(1 -1.22465e-16 -1.22465e-16 -1 903.214 1374.67)" xlink:href="#path15_fill"/></g><g id="path56"><use fill="#FFF" transform="matrix(1 -1.22465e-16 -1.22465e-16 -1 918.439 1374.65)" xlink:href="#path16_fill"/></g><g id="path58"><use fill="#FFF" transform="matrix(1 -1.22465e-16 -1.22465e-16 -1 942.058 1344.41)" xlink:href="#path17_fill"/></g><g id="path60"><use fill="#FFF" transform="matrix(1 -1.22465e-16 -1.22465e-16 -1 942.544 1374.95)" xlink:href="#path18_fill"/></g><g id="path62"><use fill="#FFF" transform="matrix(1 -1.22465e-16 -1.22465e-16 -1 950.747 1374.7)" xlink:href="#path19_fill"/></g><g id="path64"><use fill="#FFF" transform="matrix(1 -1.22465e-16 -1.22465e-16 -1 973.178 1374.77)" xlink:href="#path20_fill"/></g><g id="path66"><use fill="#FFF" transform="matrix(1 -1.22465e-16 -1.22465e-16 -1 997.299 1374.74)" xlink:href="#path21_fill"/></g><g id="path68"><use fill="#FFF" transform="matrix(1 -1.22465e-16 -1.22465e-16 -1 912.299 1333.84)" xlink:href="#path22_fill"/></g><g id="path70"><use fill="#FFF" transform="matrix(1 -1.22465e-16 -1.22465e-16 -1 812.084 1334.87)" xlink:href="#path23_fill"/></g><g id="path72"><use fill="#FFF" transform="matrix(1 -1.22465e-16 -1.22465e-16 -1 946.499 1335.7)" xlink:href="#path24_fill"/></g><g id="path74"><use fill="#FFF" transform="matrix(1 -1.22465e-16 -1.22465e-16 -1 987.296 1334.87)" xlink:href="#path25_fill"/></g><g id="path76"><use fill="#FFF" transform="matrix(1 -1.22465e-16 -1.22465e-16 -1 870.771 1335.41)" xlink:href="#path26_fill"/></g><g id="path78"><use fill="#FFF" transform="matrix(1 -1.22465e-16 -1.22465e-16 -1 769.566 1335.41)" xlink:href="#path27_fill"/></g></g></g></g><g id="amazon_line_3" opacity=".282"><use fill="#FFF" transform="matrix(0.848048 0.529919 -0.529919 0.848048 976.488 1387.97)" xlink:href="#path28_stroke"/></g><g id="amazon_line_1" opacity=".282"><use fill="#FFF" transform="matrix(-0.848048 0.529919 0.529919 0.848048 755.773 1388)" xlink:href="#path28_stroke"/></g><g id="amazon_line_2" opacity=".282"><use fill="#FFF" transform="translate(855 1398)" xlink:href="#path29_stroke"/></g><g id="amazon_ec2_label"><use fill="#FFF" transform="translate(594 1462)" xlink:href="#path30_fill"/></g><g id="amazon_ses_label"><use fill="#FFF" transform="translate(788 1492)" xlink:href="#path31_fill"/></g><g id="amazon_rds_label"><use fill="#FFF" transform="translate(983 1462)" xlink:href="#path32_fill"/></g><g id="docker_logo"><g id="SVGID_1_"><use fill="#1E9EE9" transform="translate(752 1614)" xlink:href="#path33_fill"/></g><g id="docker_2_"><use fill="#FFF" transform="translate(829 1623)" xlink:href="#path34_fill"/></g></g></g></g><defs><path id="path0_fill" d="M 20.9808 0L 0 7.03448L 0 37.5172L 21.0065 31.2644L 20.9808 0Z"/><path id="path1_fill" d="M 0 31.2644L 21.0065 37.5172L 20.9333 7.05559L 0 0L 0 31.2644Z"/><path id="path2_fill" d="M 38.9009 5.21099L 19.3228 11.2896L 0 5.21099L 19.3508 0L 38.9009 5.21099Z"/><path id="path3_fill" d="M 21.0065 31.2644L 0 37.5172L 0 7.03448L 20.9809 0L 21.0065 31.2644Z"/><path id="path4_fill" d="M 0 31.2644L 21.0065 37.5172L 20.9336 7.05496L 0 0L 0 31.2644Z"/><path id="path5_fill" d="M 38.9009 5.21099L 19.3228 11.2896L 0 5.21099L 19.3511 0L 38.9009 5.21099Z"/><path id="path6_fill" d="M 20.9809 0L 0 7.03448L 0 37.5172L 21.0065 31.2644L 20.9809 0Z"/><path id="path7_fill" d="M 0 31.2644L 21.0065 37.5172L 20.9333 7.05496L 0 0L 0 31.2644Z"/><path id="path8_fill" d="M 0 31.2644L 21.0065 37.5172L 20.9336 7.05494L 0 0L 0 31.2644Z"/><path id="path9_fill" d="M 38.9009 5.21107L 19.3228 11.2896L 0 5.21107L 19.3511 0L 38.9009 5.21107Z"/><path id="path10_fill" d="M 30.505 26.7271L 28.9614 26.7216C 28.395 26.7216 27.673 26.3372 27.4956 25.714L 22.8127 9.13992L 18.1812 25.678C 18.0419 26.1964 17.5557 26.7216 16.8944 26.7216L 15.0668 26.7216C 14.4086 26.7216 13.9285 26.1894 13.7955 25.6673L 9.48685 9.30117L 5.03503 25.718C 4.8592 26.3183 4.11931 26.7216 3.53891 26.7216L 1.31767 26.7255C 0.843078 26.7255 0.401942 26.5206 0.165425 26.191C 0.00515299 25.9674 -0.039194 25.714 0.0347176 25.4936L 6.91239 1.03258C 7.0641 0.518122 7.50757 0 8.15644 0L 10.3652 0C 10.962 0 11.4848 0.436908 11.6357 1.0567L 15.8689 17.3508L 20.4756 1.03807C 20.6141 0.538578 21.0599 2.49915e-15 21.7118 2.49915e-15L 23.8848 2.49915e-15C 24.4894 2.49915e-15 24.9982 0.421947 25.1476 1.04021L 31.7677 25.4835C 31.8455 25.7189 31.8004 25.9806 31.6424 26.201C 31.4098 26.5256 30.9741 26.7271 30.505 26.7271Z"/><path id="path11_fill" fill-rule="evenodd" d="M 0 13.3616C 7.96484e-16 19.8654 3.58978 26.866 11.4719 26.866C 19.4302 26.866 22.3065 20.1106 22.3455 13.7875C 22.3478 13.5325 22.2373 13.278 22.0342 13.0731C 21.7915 12.826 21.4476 12.6791 21.1154 12.6791L 5.27417 12.6737C 5.28741 10.9658 5.40564 9.28613 6.20544 7.58228C 7.18964 5.49634 9.33777 4.1001 11.6772 4.02747C 14.1086 4.09949 16.0458 5.48132 17.1086 7.91687C 17.3311 8.42395 18.0041 8.77356 18.5915 8.68103L 20.7793 8.26062C 21.1512 8.17847 21.4655 7.95496 21.6312 7.65881C 21.7674 7.41492 21.7946 7.14282 21.7075 6.89221C 20.0798 2.50879 16.3119 -6.05312e-16 11.3691 0C 4.46271 8.45794e-16 -9.94069e-16 5.24438 0 13.3616ZM 5.48346 16.3057L 17.1522 16.3057C 17.0674 19.6791 15.3137 23.012 11.4804 23.1377C 7.87817 23.0063 5.75189 19.5955 5.48346 16.3057Z"/><path id="path12_fill" fill-rule="evenodd" d="M 11.0471 26.8108L 11.4664 26.8108C 14.4315 26.8108 17.3148 25.1833 18.9899 22.5641C 20.4393 20.3038 21.271 17.0641 21.271 13.6758C 21.271 6.86865 18.1247 -8.60856e-16 11.0953 0L 10.6868 0C 8.01825 3.26807e-16 5.52472 1.38733 3.86908 3.74927L 3.15643 1.47717C 3.0047 1.00208 2.55499 0.490601 1.92328 0.490601L 1.25415 0.486938C 0.597534 0.486938 0.00231934 1.01819 0 1.60291L 0 33.7927C 0.00152588 34.4259 0.667542 34.8994 1.2627 34.8994L 3.54077 34.8994C 4.19818 34.8994 4.79333 34.3718 4.79333 33.7927L 4.79572 23.481C 6.37427 25.7189 8.4306 26.8108 11.0471 26.8108ZM 10.6371 3.87354C 15.9252 4.06494 16.1953 11.5428 16.1953 13.0404C 16.1953 14.6567 15.926 22.7268 10.6199 22.9371C 7.24335 22.7939 4.88208 19.0953 4.79572 15.725L 4.79572 11.3254C 4.90619 9.32373 5.33643 7.70581 6.07324 6.53564C 7.07373 4.98828 8.86475 3.94165 10.6371 3.87354Z"/><path id="path13_fill" d="M 18.0682 14.0408C 16.5869 15.1101 14.806 15.4673 13.022 15.8252L 9.60107 16.4623C 7.14643 16.8678 5.72577 17.5291 5.72577 19.7051C 5.72577 22.0054 8.09872 22.8847 10.1107 22.9393C 12.5677 22.877 14.4154 21.7757 15.3125 19.8388C 15.5257 19.3824 15.9979 19.0753 16.4889 19.0753C 16.5729 19.0753 16.6585 19.0847 16.7394 19.1024L 18.8743 19.5763C 19.2228 19.6535 19.548 19.8935 19.7223 20.2055C 19.8616 20.4532 19.8919 20.7236 19.8087 20.9651C 18.5024 24.788 15.1857 26.8083 10.1682 26.8083C 5.63474 26.7982 0.790025 24.773 0.790025 19.1168C 0.790025 15.2508 3.2081 12.7958 7.98202 11.8188L 11.8114 11.0857C 13.9136 10.6815 16.0633 9.96248 16.0633 7.69488C 16.0633 4.33793 12.1748 3.99567 10.9992 3.97124C 8.36169 4.02834 5.37566 5.21022 4.65055 7.71293C 4.50506 8.26311 3.81573 8.65235 3.21121 8.52596L 0.978305 8.06309C 0.642202 7.99197 0.334885 7.77241 0.155941 7.47597C 0.00578378 7.22897 -0.0370072 6.95236 0.0322364 6.69986C 1.18448 2.54725 5.17493 0.0430503 10.7066 0.000916046L 10.8296 0C 15.77 0 21.0488 2.12531 21.0488 8.08724C 21.0488 10.5141 19.9619 12.684 18.0682 14.0408Z"/><path id="path14_fill" fill-rule="evenodd" d="M 0 13.3604C 7.96454e-16 19.8639 3.59058 26.8647 11.4742 26.8647C 19.4341 26.8647 22.3081 20.1088 22.3447 13.7863C 22.347 13.5298 22.2365 13.2751 22.0327 13.0693C 21.7899 12.824 21.4484 12.6779 21.1185 12.6779L 5.27887 12.674C 5.29053 10.962 5.40955 9.28101 6.21094 7.58105C 7.19122 5.49573 9.33856 4.09973 11.6804 4.02466C 14.1093 4.09973 16.0474 5.48169 17.111 7.91565C 17.363 8.49792 18.078 8.7644 18.5907 8.68079L 20.7816 8.26038C 21.1527 8.17981 21.4678 7.95618 21.6335 7.65979C 21.7705 7.41516 21.7977 7.14258 21.7114 6.8916C 20.0822 2.50903 16.3143 -6.05409e-16 11.3707 0C 4.4635 8.45891e-16 -9.93994e-16 5.24377 0 13.3604ZM 5.48505 16.303L 17.1569 16.303C 17.0682 19.679 15.3122 23.0114 11.4805 23.1335C 7.87823 23.0083 5.75189 19.5958 5.48505 16.303Z"/><path id="path15_fill" d="M 11.6633 26.467C 11.3544 26.5011 11.0572 26.5176 10.7685 26.5176C 8.11005 26.5176 5.95105 25.0655 4.45259 22.2915L 4.45804 24.7208C 4.4557 25.3092 3.87141 25.826 3.20777 25.826L 1.22927 25.826C 0.580401 25.826 0.00778017 25.3071 0.00311207 24.7114L 0 1.11227C 0 0.519955 0.572621 0 1.22616 0L 3.53453 0.000916046C 4.13516 0.000916046 4.81126 0.474458 4.8167 1.11227L 4.81826 13.0098C 4.81826 14.9718 5.00032 16.4498 5.93316 18.1984C 7.2659 20.6892 9.12692 21.911 11.6228 21.9306C 12.2483 21.9351 12.7976 22.4838 12.7976 23.1051L 12.7976 25.3125C 12.7976 25.8902 12.2989 26.3973 11.6633 26.467Z"/><path id="path16_fill" d="M 20.6743 26.9179L 18.8514 26.917C 18.2803 26.917 17.5482 26.5051 17.3708 25.9009L 11.4618 7.24332L 5.42748 25.8822C 5.24931 26.5011 4.51564 26.917 3.94146 26.917L 1.33822 26.9194C 0.860514 26.9194 0.398372 26.7054 0.161855 26.3747C 0.003139 26.1534 -0.04043 25.9024 0.0381498 25.6682L 8.2968 1.05609C 8.45552 0.569106 8.87642 0 9.54241 0L 12.6926 0C 13.2707 0 13.7445 0.395384 13.9615 1.05823L 21.972 25.6603C 22.0521 25.8939 22.0094 26.1457 21.8514 26.3677C 21.6133 26.7014 21.152 26.9179 20.6743 26.9179Z"/><path id="path17_fill" d="M 3.04438 6.13469C 1.36542 6.13469 0 4.7593 0 3.06688C 0 1.37485 1.36542 0 3.04438 0C 4.72412 0 6.0911 1.37485 6.0911 3.06688C 6.0911 4.7593 4.72412 6.13469 3.04438 6.13469Z"/><path id="path18_fill" d="M 3.81151 27.3655L 1.31174 27.368C 0.63175 27.368 0.0124483 26.8153 0.0124483 26.2095L 0 1.15196C 0 0.848781 0.155603 0.547737 0.424797 0.324246C 0.671429 0.121211 0.986526 0.00396909 1.30318 0.00396909L 3.82084 0L 3.8224 0C 4.5125 0.00610632 5.11858 0.543768 5.11858 1.15043L 5.11858 26.2095C 5.11858 26.8254 4.50705 27.3655 3.81151 27.3655Z"/><path id="path19_fill" d="M 18.9704 10.1234L 16.883 10.1154C 16.3002 10.1154 15.8116 9.76368 15.5946 9.15278C 14.8321 5.84802 13.1049 4.13551 10.4861 4.05979C 5.38544 4.21214 4.98942 11.3544 4.98942 13.5399C 4.98942 17.898 6.49178 22.601 10.6861 22.7253C 13.2177 22.6471 15.0593 20.8235 15.6117 17.8519C 15.7159 17.2455 16.1796 16.7866 16.813 16.7069L 19.0466 16.6849C 19.7142 16.7576 20.2378 17.265 20.2331 17.8943C 19.4426 23.2645 15.7385 26.7356 10.788 26.7356L 10.6168 26.731L 10.4231 26.7356C 3.22333 26.7356 0 19.9851 0 13.2953C 0 7.1618 2.71761 0 10.3826 0L 10.7499 0C 15.5767 0 19.2201 3.39908 20.2635 8.91032C 20.2868 9.17294 20.1965 9.43548 20.0114 9.64894C 19.7718 9.92555 19.3897 10.1029 18.9704 10.1234Z"/><path id="path20_fill" fill-rule="evenodd" d="M 0 13.3604C 7.96454e-16 19.8639 3.58978 26.8647 11.4727 26.8647C 19.4333 26.8647 22.3081 20.1088 22.3447 13.7863C 22.3486 13.5338 22.2396 13.2788 22.0374 13.0718C 21.7938 12.824 21.45 12.6764 21.1169 12.6764L 5.27576 12.674C 5.28821 10.9646 5.40723 9.28345 6.20935 7.58105C 7.18964 5.49573 9.33618 4.09973 11.6772 4.0238C 14.1055 4.09973 16.0443 5.48169 17.111 7.91565C 17.363 8.49792 18.0757 8.7644 18.5907 8.68079L 20.7785 8.26038C 21.1558 8.17676 21.4616 7.95837 21.6296 7.65979C 21.7658 7.41675 21.7938 7.14319 21.709 6.89062C 20.0783 2.50757 16.3119 -6.05118e-16 11.3707 0C 4.4635 8.45891e-16 -9.93994e-16 5.24377 0 13.3604ZM 5.48193 16.303L 17.1553 16.303C 17.0682 19.679 15.313 23.0114 11.4805 23.1335C 7.87592 23.0083 5.74878 19.5968 5.48193 16.303Z"/><path id="path21_fill" d="M 18.0688 14.0408C 16.5851 15.111 14.8019 15.4679 13.021 15.8252L 9.60009 16.4623C 7.14778 16.8678 5.72789 17.5291 5.72789 19.7051C 5.72789 22.6721 9.39313 22.9201 10.1081 22.9393C 12.5674 22.877 14.4152 21.7757 15.3107 19.8379C 15.5255 19.3815 15.9993 19.0753 16.491 19.0753C 16.5758 19.0753 16.6606 19.0847 16.7431 19.1024L 18.8764 19.5763C 19.2249 19.6535 19.5494 19.8944 19.7236 20.2061C 19.8621 20.454 19.8925 20.7236 19.8092 20.9651C 18.5045 24.788 15.187 26.8083 10.1673 26.8083C 5.63531 26.7982 0.792153 24.773 0.792153 19.1168C 0.792153 15.2499 3.20945 12.7949 7.98259 11.8188L 11.8135 11.0857C 13.9157 10.6815 16.0654 9.96248 16.0654 7.69488C 16.0654 4.33793 12.1769 3.99567 11.0013 3.97124C 8.55599 4.02376 5.42602 5.03833 4.65345 7.70981C 4.51185 8.26311 3.82331 8.65172 3.2079 8.52596L 0.978878 8.06309C 0.641218 7.99103 0.333123 7.76999 0.154179 7.47292C 0.00557801 7.22531 -0.0372129 6.95082 0.0328086 6.69986C 1.18194 2.54725 5.17161 0.0430503 10.7041 0.000916046L 10.827 0C 15.7682 0 21.0478 2.12531 21.0478 8.08724C 21.0478 10.5157 19.9617 12.6862 18.0688 14.0408Z"/><path id="path22_fill" fill-rule="evenodd" d="M 1.44711 34.5017L 1.44711 40.1918C 1.45022 41.0547 2.1022 41.6339 2.88489 41.6331L 28.2599 41.6339C 29.0698 41.6339 29.7234 41.0406 29.7234 40.198L 29.7234 35.3185C 29.7156 34.5017 29.0286 33.4337 27.8118 31.7377L 14.6687 12.8847C 19.5453 13.001 24.7083 12.2674 29.1399 9.76437C 30.1412 9.2002 30.4072 8.36302 30.4889 7.54569L 30.4889 1.47415C 30.4889 0.636971 29.5771 -0.330583 28.6201 0.173476C 20.8096 4.28458 10.4441 4.73338 1.80578 0.125876C 0.924285 -0.347075 0 0.60555 0 1.44273L 0 7.21195C 0 8.13245 0.0186724 9.71372 0.943735 11.1221L 16.1734 33.0683L 2.91523 33.0713C 2.10376 33.0713 1.45489 33.6514 1.44711 34.5017Z"/><path id="path23_fill" fill-rule="evenodd" d="M 9.10125 8.88587e-15L 1.37942 8.88587e-15C 0.645754 0.0482253 0.0583513 0.604184 0 1.31318L 0.00544612 41.1188C 0.00544612 41.9153 0.672985 42.5515 1.49457 42.5515L 8.68423 42.5554C 9.43735 42.5132 10.0395 41.9426 10.0909 41.2189L 10.0909 36.0178L 10.234 36.0178C 12.1059 41.0461 15.6374 43.3878 20.3926 43.3878C 25.2202 43.3878 28.2475 41.0461 30.4096 36.0178C 32.2846 41.0461 36.5349 43.3878 41.0785 43.3878C 44.3213 43.3878 47.8481 42.0497 50.0102 39.0358C 52.4601 35.6835 51.9552 30.8284 51.9552 26.5545L 51.9505 1.4341C 51.9505 0.639903 51.2838 8.88587e-15 50.463 8.88587e-15L 42.7528 8.88587e-15C 41.9764 0.0482253 41.3656 0.670464 41.3656 1.43042L 41.3656 22.5345C 41.3656 24.2088 41.508 28.3987 41.1486 29.9888C 40.5705 32.6716 38.8402 33.4211 36.6096 33.4211C 34.7338 33.4211 32.7872 32.1647 31.9944 30.1588C 31.2024 28.1453 31.2755 24.795 31.2755 22.5345L 31.2755 1.4341C 31.2755 0.639903 30.6088 0 29.7864 0L 22.0747 0C 21.3021 0.0482253 20.6898 0.670464 20.6898 1.43042L 20.6797 22.5345C 20.6797 26.9743 21.4025 33.5051 15.9268 33.5051C 10.378 33.5051 10.5943 27.1408 10.5943 22.5345L 10.5896 1.4341C 10.5927 0.639903 9.92517 8.88587e-15 9.10125 8.88587e-15Z"/><path id="path24_fill" fill-rule="evenodd" d="M 17.44 36.1021C 11.7441 36.1021 11.3855 28.3129 11.3855 23.4528C 11.3855 18.5956 11.3139 8.20996 17.37 8.20996C 23.3522 8.20996 23.6392 16.5863 23.6392 21.6951C 23.6392 25.045 23.4969 29.0645 22.4878 32.2478C 21.6203 35.0131 19.8923 36.1021 17.44 36.1021ZM 17.37 44.2241C 28.8271 44.2241 35.0256 34.3413 35.0256 21.7816C 35.0256 9.63333 28.1767 0 17.37 0C 6.12689 0 0 9.88548 0 22.1983C 0 34.5947 6.19613 44.2241 17.37 44.2241Z"/><path id="path25_fill" fill-rule="evenodd" d="M 9.0888 0L 1.39654 0C 0.621636 0.0482253 0.0108922 0.670464 0.0108922 1.43042L 0 41.254C 0.0637974 41.9794 0.704884 42.5515 1.47979 42.5515L 8.64299 42.5554C 9.31831 42.5179 9.87226 42.0567 10.0139 41.4401L 10.0139 35.3492L 10.1601 35.3492C 12.3191 40.7944 15.3479 43.3878 20.6781 43.3878C 24.138 43.3878 27.527 42.1349 29.6876 38.6997C 31.7042 35.518 31.7042 30.1588 31.7042 26.3051L 31.7042 1.25519C 31.6178 0.549237 30.9915 0 30.2291 0L 22.4863 0C 21.772 0.0467402 21.1979 0.576749 21.1115 1.25519L 21.1115 22.8694C 21.1115 27.2247 21.6172 33.5921 16.2823 33.5921C 14.4097 33.5921 12.6825 32.3327 11.8165 30.4086C 10.7343 27.9804 10.5911 25.5516 10.5911 22.8694L 10.5911 1.4341C 10.5779 0.639903 9.91038 8.88587e-15 9.0888 8.88587e-15"/><path id="path26_fill" fill-rule="evenodd" d="M 30.5294 0.647876C 30.0175 0.188993 29.2846 0.158432 28.7073 0.467402C 26.1437 2.60831 25.6831 3.60087 24.2819 5.63704C 20.0441 1.30068 17.0432 0 11.5559 0C 5.054 0 0 4.0299 0 12.0884C 0 18.3824 3.39293 22.6639 8.23142 24.7639C 12.4203 26.6111 18.271 26.9475 22.7477 27.4528L 22.7477 28.4588C 22.7477 30.3045 22.8916 32.4881 21.807 34.0821C 20.8711 35.5092 19.0653 36.0954 17.4743 36.0954C 14.5295 36.0954 11.913 34.5789 11.2688 31.4372C 11.1381 30.7395 10.6277 30.0465 9.92828 30.0129L 2.44764 30.8271C 1.81434 30.97 1.11334 31.4775 1.29618 32.4462C 3.01559 41.5675 11.2128 44.3234 18.5596 44.3234C 22.3128 44.3234 27.2259 43.3167 30.1871 40.463C 33.941 36.9359 33.5792 32.2356 33.5792 27.1145L 33.5792 15.0319C 33.5792 11.3974 35.0831 9.80216 36.4968 7.84329C 36.9862 7.1368 37.0966 6.29961 36.468 5.78149C 34.8917 4.45423 32.0901 2.01171 30.5504 0.630759L 30.5294 0.647876ZM 22.7477 19.5598C 22.7477 16.5372 22.8192 14.0165 21.3021 11.3324C 20.0744 9.1479 18.1231 7.80603 15.9564 7.80603C 12.9983 7.80603 11.2657 10.0718 11.2657 13.4312C 11.2657 20.0352 17.1646 21.2375 22.7477 21.2375L 22.7477 19.5598Z"/><path id="path27_fill" fill-rule="evenodd" d="M 30.5348 0.647876C 30.0245 0.188993 29.2861 0.158432 28.7088 0.467402C 26.1453 2.60831 25.6862 3.60087 24.2835 5.63704C 20.0479 1.30068 17.0456 0 11.5551 0C 5.05556 0 0 4.0299 0 12.0884C 0 18.3824 3.39605 22.6639 8.23453 24.7639C 12.4242 26.6111 18.2741 26.9475 22.7508 27.4528L 22.7508 28.4588C 22.7508 30.3045 22.8963 32.4881 21.8117 34.0821C 20.8734 35.5092 19.0661 36.0954 17.4797 36.0954C 14.5349 36.0954 11.9153 34.5789 11.2735 31.4372C 11.1397 30.7395 10.6316 30.0465 9.93295 30.0129L 2.4492 30.8271C 1.81745 30.97 1.11568 31.4775 1.29695 32.4462C 3.01637 41.5675 11.2143 44.3234 18.5604 44.3234C 22.3182 44.3234 27.2275 43.3167 30.1894 40.463C 33.9449 36.9359 33.5823 32.2356 33.5823 27.1145L 33.5823 15.0319C 33.5823 11.3974 35.087 9.80216 36.4968 7.84329C 36.9885 7.1368 37.0998 6.29961 36.4727 5.78149C 34.8949 4.45423 32.0917 2.01171 30.5527 0.630759L 30.5348 0.647876ZM 22.7508 19.5598C 22.7508 16.5372 22.8216 14.0165 21.3075 11.3324C 20.0806 9.1479 18.1278 7.80603 15.9641 7.80603C 12.9999 7.80603 11.268 10.0718 11.268 13.4312C 11.268 20.0352 17.1654 21.2375 22.7508 21.2375L 22.7508 19.5598Z"/><path id="path28_stroke" d="M 0.360475 5.22658L 0.0139813 4.8661L -0.706969 5.55909L -0.360475 5.91956L 0.360475 5.22658ZM 97.305 5.97348L 97.7055 6.27293L 98.3044 5.47211L 97.9039 5.17266L 97.305 5.97348ZM 0 5.57307C -0.360475 5.91956 -0.36021 5.91984 -0.359864 5.9202C -0.359639 5.92043 -0.35921 5.92088 -0.358759 5.92134C -0.357981 5.92215 -0.356629 5.92355 -0.355072 5.92516C -0.352205 5.92811 -0.347531 5.93292 -0.341804 5.93878C -0.330846 5.94999 -0.313656 5.96746 -0.291824 5.98941C -0.249169 6.03227 -0.183733 6.09724 -0.0991724 6.17918C 0.0678449 6.34099 0.320508 6.57957 0.648241 6.87278C 1.29917 7.45494 2.27225 8.27508 3.52256 9.19556C 6.01276 11.0277 9.67664 13.3055 14.2413 15.0136C 23.4019 18.4363 36.2625 19.5981 51.0497 10.6339L 50.5313 9.77873C 36.0414 18.5627 23.5067 17.4079 14.5913 14.0769C 10.118 12.4082 6.57374 10.1999 4.11528 8.39015C 2.89125 7.48968 1.95488 6.69993 1.31493 6.12744C 0.997222 5.84332 0.759093 5.61838 0.596678 5.461C 0.516522 5.38335 0.457582 5.32481 0.417039 5.28406C 0.397273 5.2642 0.383159 5.24984 0.373213 5.23967C 0.368488 5.23484 0.36531 5.23157 0.362938 5.22912C 0.361875 5.22803 0.36126 5.22739 0.360727 5.22684C 0.360522 5.22663 0.360459 5.22656 0.360356 5.22645C 0.360375 5.22647 0.360475 5.22658 0 5.57307ZM 51.0497 10.6339C 65.5967 1.81525 77.1865 0.685321 85.1111 1.72982C 89.0827 2.25065 92.1196 3.31317 94.2005 4.2566C 95.2331 4.72403 96.0067 5.15303 96.5354 5.47227C 96.7963 5.62966 96.9881 5.75486 97.1202 5.84426C 97.1847 5.88783 97.2307 5.92011 97.2632 5.94323C 97.2786 5.95423 97.2891 5.96178 97.2968 5.96745C 97.3003 5.97 97.3024 5.97151 97.3041 5.9728C 97.3048 5.97331 97.305 5.97348 97.3054 5.97373C 97.3055 5.97379 97.3054 5.97373 97.3054 5.97376C 97.3053 5.97365 97.305 5.97348 97.6045 5.57307C 97.9039 5.17266 97.9036 5.1724 97.9032 5.17208C 97.9029 5.17191 97.9025 5.17155 97.902 5.17121C 97.9013 5.17067 97.8999 5.16965 97.8984 5.16858C 97.8959 5.16671 97.8916 5.1635 97.8865 5.15982C 97.8772 5.15301 97.862 5.14203 97.8434 5.12875C 97.8077 5.10333 97.7517 5.06413 97.6805 5.01597C 97.5415 4.92192 97.3279 4.78269 97.0521 4.61613C 96.5075 4.28747 95.6822 3.83053 94.6133 3.34574C 92.4911 2.38475 89.314 1.27778 85.2417 0.738393C 77.0786 -0.337547 65.2614 0.849142 50.5313 9.77873L 51.0497 10.6339Z"/><path id="path29_stroke" d="M 2 0.5L 2 0L 1 0L 1 0.5L 2 0.5ZM 1 72.5069L 1 73.0069L 2 73.0069L 2 72.5069L 1 72.5069ZM 1 0.5L 1 72.5069L 2 72.5069L 2 0.5L 1 0.5Z"/><path id="path30_fill" d="M 11.3672 17.2188L 3.62109 17.2188L 1.86328 22L 0.351562 22L 6.80859 4.9375L 8.17969 4.9375L 14.6367 22L 13.1367 22L 11.3672 17.2188ZM 4.06641 15.9883L 10.9102 15.9883L 7.48828 6.69531L 4.06641 15.9883ZM 18.1055 9.32031L 18.1523 11.3828C 18.6211 10.6172 19.207 10.043 19.9102 9.66016C 20.6133 9.27734 21.3945 9.08594 22.2539 9.08594C 24.2539 9.08594 25.5234 9.90625 26.0625 11.5469C 26.5156 10.7578 27.1211 10.1523 27.8789 9.73047C 28.6367 9.30078 29.4727 9.08594 30.3867 9.08594C 33.1055 9.08594 34.4922 10.5703 34.5469 13.5391L 34.5469 22L 33.1406 22L 33.1406 13.6445C 33.1328 12.5117 32.8867 11.6719 32.4023 11.125C 31.9258 10.5781 31.1445 10.3047 30.0586 10.3047C 29.0508 10.3203 28.1992 10.6484 27.5039 11.2891C 26.8086 11.9219 26.4219 12.6953 26.3438 13.6094L 26.3438 22L 24.9375 22L 24.9375 13.5391C 24.9297 12.4531 24.6719 11.6445 24.1641 11.1133C 23.6641 10.5742 22.8906 10.3047 21.8438 10.3047C 20.9609 10.3047 20.2031 10.5586 19.5703 11.0664C 18.9375 11.5664 18.4688 12.3125 18.1641 13.3047L 18.1641 22L 16.7578 22L 16.7578 9.32031L 18.1055 9.32031ZM 46.1133 22C 45.9727 21.6016 45.8828 21.0117 45.8438 20.2305C 45.3516 20.8711 44.7227 21.3672 43.957 21.7188C 43.1992 22.0625 42.3945 22.2344 41.543 22.2344C 40.3242 22.2344 39.3359 21.8945 38.5781 21.2148C 37.8281 20.5352 37.4531 19.6758 37.4531 18.6367C 37.4531 17.4023 37.9648 16.4258 38.9883 15.707C 40.0195 14.9883 41.4531 14.6289 43.2891 14.6289L 45.832 14.6289L 45.832 13.1875C 45.832 12.2813 45.5508 11.5703 44.9883 11.0547C 44.4336 10.5312 43.6211 10.2695 42.5508 10.2695C 41.5742 10.2695 40.7656 10.5195 40.125 11.0195C 39.4844 11.5195 39.1641 12.1211 39.1641 12.8242L 37.7578 12.8125C 37.7578 11.8047 38.2266 10.9336 39.1641 10.1992C 40.1016 9.45703 41.2539 9.08594 42.6211 9.08594C 44.0352 9.08594 45.1484 9.44141 45.9609 10.1523C 46.7812 10.8555 47.2031 11.8398 47.2266 13.1055L 47.2266 19.1055C 47.2266 20.332 47.3555 21.25 47.6133 21.8594L 47.6133 22L 46.1133 22ZM 41.707 20.9922C 42.6445 20.9922 43.4805 20.7656 44.2148 20.3125C 44.957 19.8594 45.4961 19.2539 45.832 18.4961L 45.832 15.707L 43.3242 15.707C 41.9258 15.7227 40.832 15.9805 40.043 16.4805C 39.2539 16.9727 38.8594 17.6523 38.8594 18.5195C 38.8594 19.2305 39.1211 19.8203 39.6445 20.2891C 40.1758 20.7578 40.8633 20.9922 41.707 20.9922ZM 51.9023 20.8164L 60.1406 20.8164L 60.1406 22L 50.168 22L 50.168 20.9688L 57.8555 10.5273L 50.4023 10.5273L 50.4023 9.32031L 59.625 9.32031L 59.625 10.3633L 51.9023 20.8164ZM 61.6875 15.4727C 61.6875 14.2539 61.9219 13.1562 62.3906 12.1797C 62.8672 11.2031 63.5352 10.4453 64.3945 9.90625C 65.2617 9.35938 66.2422 9.08594 67.3359 9.08594C 69.0234 9.08594 70.3906 9.67969 71.4375 10.8672C 72.4844 12.0469 73.0078 13.6133 73.0078 15.5664L 73.0078 15.8594C 73.0078 17.0859 72.7695 18.1914 72.293 19.1758C 71.8242 20.1523 71.1602 20.9062 70.3008 21.4375C 69.4414 21.9687 68.4609 22.2344 67.3594 22.2344C 65.6797 22.2344 64.3125 21.6445 63.2578 20.4648C 62.2109 19.2773 61.6875 17.707 61.6875 15.7539L 61.6875 15.4727ZM 63.0938 15.8594C 63.0938 17.375 63.4844 18.6211 64.2656 19.5977C 65.0547 20.5664 66.0859 21.0508 67.3594 21.0508C 68.625 21.0508 69.6484 20.5664 70.4297 19.5977C 71.2187 18.6211 71.6133 17.3359 71.6133 15.7422L 71.6133 15.4727C 71.6133 14.5039 71.4336 13.6172 71.0742 12.8125C 70.7148 12.0078 70.2109 11.3867 69.5625 10.9492C 68.9141 10.5039 68.1719 10.2812 67.3359 10.2812C 66.0859 10.2812 65.0664 10.7734 64.2773 11.7578C 63.4883 12.7344 63.0938 14.0156 63.0938 15.6016L 63.0938 15.8594ZM 77.25 9.32031L 77.2969 11.4883C 77.7734 10.707 78.3672 10.1133 79.0781 9.70703C 79.7891 9.29297 80.5742 9.08594 81.4336 9.08594C 82.793 9.08594 83.8047 9.46875 84.4688 10.2344C 85.1328 11 85.4687 12.1484 85.4766 13.6797L 85.4766 22L 84.082 22L 84.082 13.668C 84.0742 12.5352 83.832 11.6914 83.3555 11.1367C 82.8867 10.582 82.1328 10.3047 81.0938 10.3047C 80.2266 10.3047 79.457 10.5781 78.7852 11.125C 78.1211 11.6641 77.6289 12.3945 77.3086 13.3164L 77.3086 22L 75.9141 22L 75.9141 9.32031L 77.25 9.32031ZM 104.695 13.8203L 96.7148 13.8203L 96.7148 20.7812L 105.891 20.7812L 105.891 22L 95.2734 22L 95.2734 4.9375L 105.832 4.9375L 105.832 6.16797L 96.7148 6.16797L 96.7148 12.6016L 104.695 12.6016L 104.695 13.8203ZM 121.02 16.6797C 120.824 18.4766 120.18 19.8516 119.086 20.8047C 118 21.7578 116.551 22.2344 114.738 22.2344C 113.473 22.2344 112.352 21.918 111.375 21.2852C 110.406 20.6523 109.656 19.7578 109.125 18.6016C 108.594 17.4375 108.324 16.1094 108.316 14.6172L 108.316 12.4023C 108.316 10.8867 108.582 9.54297 109.113 8.37109C 109.645 7.19922 110.406 6.29688 111.398 5.66406C 112.398 5.02344 113.547 4.70312 114.844 4.70312C 116.672 4.70312 118.113 5.19922 119.168 6.19141C 120.23 7.17578 120.848 8.53906 121.02 10.2812L 119.566 10.2812C 119.207 7.38281 117.633 5.93359 114.844 5.93359C 113.297 5.93359 112.062 6.51172 111.141 7.66797C 110.227 8.82422 109.77 10.4219 109.77 12.4609L 109.77 14.5469C 109.77 16.5156 110.215 18.0859 111.105 19.2578C 112.004 20.4297 113.215 21.0156 114.738 21.0156C 116.246 21.0156 117.383 20.6563 118.148 19.9375C 118.914 19.2109 119.387 18.125 119.566 16.6797L 121.02 16.6797ZM 134.66 22L 123.973 22L 123.973 20.9219L 129.82 14.2891C 130.789 13.1719 131.461 12.25 131.836 11.5234C 132.211 10.7969 132.398 10.0898 132.398 9.40234C 132.398 8.32422 132.082 7.47266 131.449 6.84766C 130.816 6.21484 129.945 5.89844 128.836 5.89844C 127.688 5.89844 126.758 6.26563 126.047 7C 125.344 7.73437 124.992 8.6875 124.992 9.85938L 123.598 9.85938C 123.598 8.89844 123.813 8.02344 124.242 7.23438C 124.68 6.44531 125.297 5.82812 126.094 5.38281C 126.898 4.92969 127.812 4.70312 128.836 4.70312C 130.398 4.70312 131.617 5.11328 132.492 5.93359C 133.375 6.75391 133.816 7.87109 133.816 9.28516C 133.816 10.082 133.566 10.9531 133.066 11.8984C 132.574 12.8438 131.703 14.0234 130.453 15.4375L 125.695 20.8164L 134.66 20.8164L 134.66 22Z"/><path id="path31_fill" d="M 11.3672 17.2188L 3.62109 17.2188L 1.86328 22L 0.351562 22L 6.80859 4.9375L 8.17969 4.9375L 14.6367 22L 13.1367 22L 11.3672 17.2188ZM 4.06641 15.9883L 10.9102 15.9883L 7.48828 6.69531L 4.06641 15.9883ZM 18.1055 9.32031L 18.1523 11.3828C 18.6211 10.6172 19.207 10.043 19.9102 9.66016C 20.6133 9.27734 21.3945 9.08594 22.2539 9.08594C 24.2539 9.08594 25.5234 9.90625 26.0625 11.5469C 26.5156 10.7578 27.1211 10.1523 27.8789 9.73047C 28.6367 9.30078 29.4727 9.08594 30.3867 9.08594C 33.1055 9.08594 34.4922 10.5703 34.5469 13.5391L 34.5469 22L 33.1406 22L 33.1406 13.6445C 33.1328 12.5117 32.8867 11.6719 32.4023 11.125C 31.9258 10.5781 31.1445 10.3047 30.0586 10.3047C 29.0508 10.3203 28.1992 10.6484 27.5039 11.2891C 26.8086 11.9219 26.4219 12.6953 26.3438 13.6094L 26.3438 22L 24.9375 22L 24.9375 13.5391C 24.9297 12.4531 24.6719 11.6445 24.1641 11.1133C 23.6641 10.5742 22.8906 10.3047 21.8438 10.3047C 20.9609 10.3047 20.2031 10.5586 19.5703 11.0664C 18.9375 11.5664 18.4688 12.3125 18.1641 13.3047L 18.1641 22L 16.7578 22L 16.7578 9.32031L 18.1055 9.32031ZM 46.1133 22C 45.9727 21.6016 45.8828 21.0117 45.8438 20.2305C 45.3516 20.8711 44.7227 21.3672 43.957 21.7188C 43.1992 22.0625 42.3945 22.2344 41.543 22.2344C 40.3242 22.2344 39.3359 21.8945 38.5781 21.2148C 37.8281 20.5352 37.4531 19.6758 37.4531 18.6367C 37.4531 17.4023 37.9648 16.4258 38.9883 15.707C 40.0195 14.9883 41.4531 14.6289 43.2891 14.6289L 45.832 14.6289L 45.832 13.1875C 45.832 12.2813 45.5508 11.5703 44.9883 11.0547C 44.4336 10.5312 43.6211 10.2695 42.5508 10.2695C 41.5742 10.2695 40.7656 10.5195 40.125 11.0195C 39.4844 11.5195 39.1641 12.1211 39.1641 12.8242L 37.7578 12.8125C 37.7578 11.8047 38.2266 10.9336 39.1641 10.1992C 40.1016 9.45703 41.2539 9.08594 42.6211 9.08594C 44.0352 9.08594 45.1484 9.44141 45.9609 10.1523C 46.7812 10.8555 47.2031 11.8398 47.2266 13.1055L 47.2266 19.1055C 47.2266 20.332 47.3555 21.25 47.6133 21.8594L 47.6133 22L 46.1133 22ZM 41.707 20.9922C 42.6445 20.9922 43.4805 20.7656 44.2148 20.3125C 44.957 19.8594 45.4961 19.2539 45.832 18.4961L 45.832 15.707L 43.3242 15.707C 41.9258 15.7227 40.832 15.9805 40.043 16.4805C 39.2539 16.9727 38.8594 17.6523 38.8594 18.5195C 38.8594 19.2305 39.1211 19.8203 39.6445 20.2891C 40.1758 20.7578 40.8633 20.9922 41.707 20.9922ZM 51.9023 20.8164L 60.1406 20.8164L 60.1406 22L 50.168 22L 50.168 20.9688L 57.8555 10.5273L 50.4023 10.5273L 50.4023 9.32031L 59.625 9.32031L 59.625 10.3633L 51.9023 20.8164ZM 61.6875 15.4727C 61.6875 14.2539 61.9219 13.1562 62.3906 12.1797C 62.8672 11.2031 63.5352 10.4453 64.3945 9.90625C 65.2617 9.35938 66.2422 9.08594 67.3359 9.08594C 69.0234 9.08594 70.3906 9.67969 71.4375 10.8672C 72.4844 12.0469 73.0078 13.6133 73.0078 15.5664L 73.0078 15.8594C 73.0078 17.0859 72.7695 18.1914 72.293 19.1758C 71.8242 20.1523 71.1602 20.9062 70.3008 21.4375C 69.4414 21.9687 68.4609 22.2344 67.3594 22.2344C 65.6797 22.2344 64.3125 21.6445 63.2578 20.4648C 62.2109 19.2773 61.6875 17.707 61.6875 15.7539L 61.6875 15.4727ZM 63.0938 15.8594C 63.0938 17.375 63.4844 18.6211 64.2656 19.5977C 65.0547 20.5664 66.0859 21.0508 67.3594 21.0508C 68.625 21.0508 69.6484 20.5664 70.4297 19.5977C 71.2187 18.6211 71.6133 17.3359 71.6133 15.7422L 71.6133 15.4727C 71.6133 14.5039 71.4336 13.6172 71.0742 12.8125C 70.7148 12.0078 70.2109 11.3867 69.5625 10.9492C 68.9141 10.5039 68.1719 10.2812 67.3359 10.2812C 66.0859 10.2812 65.0664 10.7734 64.2773 11.7578C 63.4883 12.7344 63.0938 14.0156 63.0938 15.6016L 63.0938 15.8594ZM 77.25 9.32031L 77.2969 11.4883C 77.7734 10.707 78.3672 10.1133 79.0781 9.70703C 79.7891 9.29297 80.5742 9.08594 81.4336 9.08594C 82.793 9.08594 83.8047 9.46875 84.4688 10.2344C 85.1328 11 85.4687 12.1484 85.4766 13.6797L 85.4766 22L 84.082 22L 84.082 13.668C 84.0742 12.5352 83.832 11.6914 83.3555 11.1367C 82.8867 10.582 82.1328 10.3047 81.0938 10.3047C 80.2266 10.3047 79.457 10.5781 78.7852 11.125C 78.1211 11.6641 77.6289 12.3945 77.3086 13.3164L 77.3086 22L 75.9141 22L 75.9141 9.32031L 77.25 9.32031ZM 104.93 17.8047C 104.93 16.8594 104.598 16.1133 103.934 15.5664C 103.27 15.0117 102.055 14.4883 100.289 13.9961C 98.5234 13.4961 97.2344 12.9531 96.4219 12.3672C 95.2656 11.5391 94.6875 10.4531 94.6875 9.10938C 94.6875 7.80469 95.2227 6.74609 96.293 5.93359C 97.3711 5.11328 98.7461 4.70312 100.418 4.70312C 101.551 4.70312 102.562 4.92187 103.453 5.35938C 104.352 5.79688 105.047 6.40625 105.539 7.1875C 106.031 7.96875 106.277 8.83984 106.277 9.80078L 104.824 9.80078C 104.824 8.63672 104.426 7.70312 103.629 7C 102.832 6.28906 101.762 5.93359 100.418 5.93359C 99.1133 5.93359 98.0742 6.22656 97.3008 6.8125C 96.5273 7.39063 96.1406 8.14844 96.1406 9.08594C 96.1406 9.95312 96.4883 10.6602 97.1836 11.207C 97.8789 11.7539 98.9922 12.2383 100.523 12.6602C 102.055 13.0742 103.215 13.5078 104.004 13.9609C 104.793 14.4062 105.387 14.9414 105.785 15.5664C 106.184 16.1914 106.383 16.9297 106.383 17.7812C 106.383 19.125 105.844 20.2031 104.766 21.0156C 103.695 21.8281 102.281 22.2344 100.523 22.2344C 99.3203 22.2344 98.2148 22.0195 97.207 21.5898C 96.207 21.1602 95.4453 20.5586 94.9219 19.7852C 94.4062 19.0117 94.1484 18.125 94.1484 17.125L 95.5898 17.125C 95.5898 18.3281 96.0391 19.2773 96.9375 19.9727C 97.8359 20.668 99.0312 21.0156 100.523 21.0156C 101.852 21.0156 102.918 20.7227 103.723 20.1367C 104.527 19.5508 104.93 18.7734 104.93 17.8047ZM 118.922 13.8203L 110.941 13.8203L 110.941 20.7812L 120.117 20.7812L 120.117 22L 109.5 22L 109.5 4.9375L 120.059 4.9375L 120.059 6.16797L 110.941 6.16797L 110.941 12.6016L 118.922 12.6016L 118.922 13.8203ZM 132.82 17.8047C 132.82 16.8594 132.488 16.1133 131.824 15.5664C 131.16 15.0117 129.945 14.4883 128.18 13.9961C 126.414 13.4961 125.125 12.9531 124.312 12.3672C 123.156 11.5391 122.578 10.4531 122.578 9.10938C 122.578 7.80469 123.113 6.74609 124.184 5.93359C 125.262 5.11328 126.637 4.70312 128.309 4.70312C 129.441 4.70312 130.453 4.92187 131.344 5.35938C 132.242 5.79688 132.938 6.40625 133.43 7.1875C 133.922 7.96875 134.168 8.83984 134.168 9.80078L 132.715 9.80078C 132.715 8.63672 132.316 7.70312 131.52 7C 130.723 6.28906 129.652 5.93359 128.309 5.93359C 127.004 5.93359 125.965 6.22656 125.191 6.8125C 124.418 7.39063 124.031 8.14844 124.031 9.08594C 124.031 9.95312 124.379 10.6602 125.074 11.207C 125.77 11.7539 126.883 12.2383 128.414 12.6602C 129.945 13.0742 131.105 13.5078 131.895 13.9609C 132.684 14.4062 133.277 14.9414 133.676 15.5664C 134.074 16.1914 134.273 16.9297 134.273 17.7812C 134.273 19.125 133.734 20.2031 132.656 21.0156C 131.586 21.8281 130.172 22.2344 128.414 22.2344C 127.211 22.2344 126.105 22.0195 125.098 21.5898C 124.098 21.1602 123.336 20.5586 122.812 19.7852C 122.297 19.0117 122.039 18.125 122.039 17.125L 123.48 17.125C 123.48 18.3281 123.93 19.2773 124.828 19.9727C 125.727 20.668 126.922 21.0156 128.414 21.0156C 129.742 21.0156 130.809 20.7227 131.613 20.1367C 132.418 19.5508 132.82 18.7734 132.82 17.8047Z"/><path id="path32_fill" d="M 11.3672 17.2188L 3.62109 17.2188L 1.86328 22L 0.351562 22L 6.80859 4.9375L 8.17969 4.9375L 14.6367 22L 13.1367 22L 11.3672 17.2188ZM 4.06641 15.9883L 10.9102 15.9883L 7.48828 6.69531L 4.06641 15.9883ZM 18.1055 9.32031L 18.1523 11.3828C 18.6211 10.6172 19.207 10.043 19.9102 9.66016C 20.6133 9.27734 21.3945 9.08594 22.2539 9.08594C 24.2539 9.08594 25.5234 9.90625 26.0625 11.5469C 26.5156 10.7578 27.1211 10.1523 27.8789 9.73047C 28.6367 9.30078 29.4727 9.08594 30.3867 9.08594C 33.1055 9.08594 34.4922 10.5703 34.5469 13.5391L 34.5469 22L 33.1406 22L 33.1406 13.6445C 33.1328 12.5117 32.8867 11.6719 32.4023 11.125C 31.9258 10.5781 31.1445 10.3047 30.0586 10.3047C 29.0508 10.3203 28.1992 10.6484 27.5039 11.2891C 26.8086 11.9219 26.4219 12.6953 26.3438 13.6094L 26.3438 22L 24.9375 22L 24.9375 13.5391C 24.9297 12.4531 24.6719 11.6445 24.1641 11.1133C 23.6641 10.5742 22.8906 10.3047 21.8438 10.3047C 20.9609 10.3047 20.2031 10.5586 19.5703 11.0664C 18.9375 11.5664 18.4688 12.3125 18.1641 13.3047L 18.1641 22L 16.7578 22L 16.7578 9.32031L 18.1055 9.32031ZM 46.1133 22C 45.9727 21.6016 45.8828 21.0117 45.8438 20.2305C 45.3516 20.8711 44.7227 21.3672 43.957 21.7188C 43.1992 22.0625 42.3945 22.2344 41.543 22.2344C 40.3242 22.2344 39.3359 21.8945 38.5781 21.2148C 37.8281 20.5352 37.4531 19.6758 37.4531 18.6367C 37.4531 17.4023 37.9648 16.4258 38.9883 15.707C 40.0195 14.9883 41.4531 14.6289 43.2891 14.6289L 45.832 14.6289L 45.832 13.1875C 45.832 12.2813 45.5508 11.5703 44.9883 11.0547C 44.4336 10.5312 43.6211 10.2695 42.5508 10.2695C 41.5742 10.2695 40.7656 10.5195 40.125 11.0195C 39.4844 11.5195 39.1641 12.1211 39.1641 12.8242L 37.7578 12.8125C 37.7578 11.8047 38.2266 10.9336 39.1641 10.1992C 40.1016 9.45703 41.2539 9.08594 42.6211 9.08594C 44.0352 9.08594 45.1484 9.44141 45.9609 10.1523C 46.7812 10.8555 47.2031 11.8398 47.2266 13.1055L 47.2266 19.1055C 47.2266 20.332 47.3555 21.25 47.6133 21.8594L 47.6133 22L 46.1133 22ZM 41.707 20.9922C 42.6445 20.9922 43.4805 20.7656 44.2148 20.3125C 44.957 19.8594 45.4961 19.2539 45.832 18.4961L 45.832 15.707L 43.3242 15.707C 41.9258 15.7227 40.832 15.9805 40.043 16.4805C 39.2539 16.9727 38.8594 17.6523 38.8594 18.5195C 38.8594 19.2305 39.1211 19.8203 39.6445 20.2891C 40.1758 20.7578 40.8633 20.9922 41.707 20.9922ZM 51.9023 20.8164L 60.1406 20.8164L 60.1406 22L 50.168 22L 50.168 20.9688L 57.8555 10.5273L 50.4023 10.5273L 50.4023 9.32031L 59.625 9.32031L 59.625 10.3633L 51.9023 20.8164ZM 61.6875 15.4727C 61.6875 14.2539 61.9219 13.1562 62.3906 12.1797C 62.8672 11.2031 63.5352 10.4453 64.3945 9.90625C 65.2617 9.35938 66.2422 9.08594 67.3359 9.08594C 69.0234 9.08594 70.3906 9.67969 71.4375 10.8672C 72.4844 12.0469 73.0078 13.6133 73.0078 15.5664L 73.0078 15.8594C 73.0078 17.0859 72.7695 18.1914 72.293 19.1758C 71.8242 20.1523 71.1602 20.9062 70.3008 21.4375C 69.4414 21.9687 68.4609 22.2344 67.3594 22.2344C 65.6797 22.2344 64.3125 21.6445 63.2578 20.4648C 62.2109 19.2773 61.6875 17.707 61.6875 15.7539L 61.6875 15.4727ZM 63.0938 15.8594C 63.0938 17.375 63.4844 18.6211 64.2656 19.5977C 65.0547 20.5664 66.0859 21.0508 67.3594 21.0508C 68.625 21.0508 69.6484 20.5664 70.4297 19.5977C 71.2187 18.6211 71.6133 17.3359 71.6133 15.7422L 71.6133 15.4727C 71.6133 14.5039 71.4336 13.6172 71.0742 12.8125C 70.7148 12.0078 70.2109 11.3867 69.5625 10.9492C 68.9141 10.5039 68.1719 10.2812 67.3359 10.2812C 66.0859 10.2812 65.0664 10.7734 64.2773 11.7578C 63.4883 12.7344 63.0938 14.0156 63.0938 15.6016L 63.0938 15.8594ZM 77.25 9.32031L 77.2969 11.4883C 77.7734 10.707 78.3672 10.1133 79.0781 9.70703C 79.7891 9.29297 80.5742 9.08594 81.4336 9.08594C 82.793 9.08594 83.8047 9.46875 84.4688 10.2344C 85.1328 11 85.4687 12.1484 85.4766 13.6797L 85.4766 22L 84.082 22L 84.082 13.668C 84.0742 12.5352 83.832 11.6914 83.3555 11.1367C 82.8867 10.582 82.1328 10.3047 81.0938 10.3047C 80.2266 10.3047 79.457 10.5781 78.7852 11.125C 78.1211 11.6641 77.6289 12.3945 77.3086 13.3164L 77.3086 22L 75.9141 22L 75.9141 9.32031L 77.25 9.32031ZM 101.648 14.8984L 96.6914 14.8984L 96.6914 22L 95.2383 22L 95.2383 4.9375L 100.781 4.9375C 102.602 4.9375 104.023 5.37891 105.047 6.26172C 106.07 7.14453 106.582 8.37891 106.582 9.96484C 106.582 11.0586 106.262 12.0234 105.621 12.8594C 104.98 13.6953 104.121 14.2734 103.043 14.5938L 107.309 21.8477L 107.309 22L 105.773 22L 101.648 14.8984ZM 96.6914 13.668L 101.109 13.668C 102.32 13.668 103.293 13.3242 104.027 12.6367C 104.762 11.9492 105.129 11.0586 105.129 9.96484C 105.129 8.76172 104.746 7.82812 103.98 7.16406C 103.215 6.5 102.141 6.16797 100.758 6.16797L 96.6914 6.16797L 96.6914 13.668ZM 110.508 22L 110.508 4.9375L 115.277 4.9375C 116.676 4.9375 117.93 5.25781 119.039 5.89844C 120.148 6.53125 121.012 7.44141 121.629 8.62891C 122.254 9.81641 122.566 11.168 122.566 12.6836L 122.566 14.2539C 122.566 15.7773 122.258 17.1289 121.641 18.3086C 121.023 19.4883 120.152 20.3984 119.027 21.0391C 117.91 21.6797 116.625 22 115.172 22L 110.508 22ZM 111.949 6.16797L 111.949 20.7812L 115.184 20.7812C 116.98 20.7812 118.422 20.1875 119.508 19C 120.594 17.8047 121.137 16.1914 121.137 14.1602L 121.137 12.6602C 121.137 10.6992 120.602 9.12891 119.531 7.94922C 118.461 6.76953 117.051 6.17578 115.301 6.16797L 111.949 6.16797ZM 135.891 17.8047C 135.891 16.8594 135.559 16.1133 134.895 15.5664C 134.23 15.0117 133.016 14.4883 131.25 13.9961C 129.484 13.4961 128.195 12.9531 127.383 12.3672C 126.227 11.5391 125.648 10.4531 125.648 9.10938C 125.648 7.80469 126.184 6.74609 127.254 5.93359C 128.332 5.11328 129.707 4.70312 131.379 4.70312C 132.512 4.70312 133.523 4.92187 134.414 5.35938C 135.313 5.79688 136.008 6.40625 136.5 7.1875C 136.992 7.96875 137.238 8.83984 137.238 9.80078L 135.785 9.80078C 135.785 8.63672 135.387 7.70312 134.59 7C 133.793 6.28906 132.723 5.93359 131.379 5.93359C 130.074 5.93359 129.035 6.22656 128.262 6.8125C 127.488 7.39063 127.102 8.14844 127.102 9.08594C 127.102 9.95312 127.449 10.6602 128.145 11.207C 128.84 11.7539 129.953 12.2383 131.484 12.6602C 133.016 13.0742 134.176 13.5078 134.965 13.9609C 135.754 14.4062 136.348 14.9414 136.746 15.5664C 137.145 16.1914 137.344 16.9297 137.344 17.7812C 137.344 19.125 136.805 20.2031 135.727 21.0156C 134.656 21.8281 133.242 22.2344 131.484 22.2344C 130.281 22.2344 129.176 22.0195 128.168 21.5898C 127.168 21.1602 126.406 20.5586 125.883 19.7852C 125.367 19.0117 125.109 18.125 125.109 17.125L 126.551 17.125C 126.551 18.3281 127 19.2773 127.898 19.9727C 128.797 20.668 129.992 21.0156 131.484 21.0156C 132.812 21.0156 133.879 20.7227 134.684 20.1367C 135.488 19.5508 135.891 18.7734 135.891 17.8047Z"/><path id="path33_fill" fill-rule="evenodd" d="M 29.4796 0L 36.3394 0L 36.3394 7.0144L 29.4796 7.0144L 29.4796 0ZM 36.3394 8.9928L 29.4796 8.9928L 29.4796 16.0072L 36.3394 16.0072L 36.3394 8.9928ZM 59.0295 20.6833C 58.6777 17.8057 56.9188 15.4675 54.6322 13.6691L 53.7527 12.9496L 53.0491 13.8489C 51.642 15.4675 51.1143 18.3452 51.2902 20.5035C 51.4661 22.1222 51.9938 23.741 52.8732 25C 52.5217 25.1797 52.1263 25.3594 51.7308 25.5391L 51.7237 25.5424C 51.33 25.7213 50.9366 25.9001 50.5867 26.0791C 49.0036 26.6187 47.4206 26.7985 45.8376 26.7985L 0.281433 26.7985L 0.10553 27.8777C -0.246277 31.2949 0.281433 34.8921 1.68854 38.1294L 2.39215 39.3884L 2.39215 39.5682C 6.61353 46.7626 14.1769 50 22.4438 50C 38.2742 50 51.2902 42.9856 57.4465 27.8777C 61.492 28.0575 65.5375 26.9784 67.4723 23.0215L 68 22.1222L 67.1205 21.5826C 64.8339 20.1438 61.6678 19.964 59.0295 20.6833ZM 13.6492 40.2877C 11.7144 40.2877 9.95551 38.6691 9.95551 36.6907C 9.95551 34.7122 11.5385 33.0935 13.6492 33.0935C 15.7599 33.0935 17.343 34.7122 17.343 36.6907C 17.343 38.6691 15.584 40.2877 13.6492 40.2877ZM 29.4796 17.8058L 36.3394 17.8058L 36.3394 24.8202L 29.4796 24.8202L 29.4796 17.8058ZM 44.7822 17.8058L 37.9224 17.8058L 37.9224 24.8202L 44.7822 24.8202L 44.7822 17.8058ZM 12.418 17.8058L 19.2778 17.8058L 19.2778 24.8202L 12.418 24.8202L 12.418 17.8058ZM 27.8965 17.8058L 21.0367 17.8058L 21.0367 24.8202L 27.8965 24.8202L 27.8965 17.8058ZM 3.97516 17.8058L 10.835 17.8058L 10.835 24.8202L 3.97516 24.8202L 3.97516 17.8058ZM 27.8965 8.9928L 21.0367 8.9928L 21.0367 16.0072L 27.8965 16.0072L 27.8965 8.9928ZM 12.418 8.9928L 19.2778 8.9928L 19.2778 16.0072L 12.418 16.0072L 12.418 8.9928Z"/><path id="path34_fill" fill-rule="evenodd" d="M 20.6042 2.09668L 20.6042 10.6583C 18.4354 8.73633 15.7243 7.68799 13.0132 7.51318L 12.1095 7.51318C 9.94061 7.51318 7.95251 8.03735 6.14514 9.08582C 2.16888 11.1825 0 14.677 0 19.0452L 0 19.9188C 0 22.0155 0.542236 23.9375 1.62665 25.6847C 3.79553 29.5287 7.41028 31.6255 11.9288 31.6255L 12.8325 31.6255C 15.0013 31.6255 16.9894 31.1012 18.7968 30.0529C 22.7731 27.9562 24.942 24.4617 24.942 20.0935L 24.942 2.09668C 24.942 0.873657 24.219 0 22.9538 0L 22.5923 0C 21.3271 0 20.6042 1.04834 20.6042 2.09668ZM 82.7783 14.677L 87.6583 9.95947C 87.839 9.84302 88.1403 9.55176 88.4883 9.21521C 89.1845 8.54224 90.0681 7.68799 90.5501 7.68799L 91.2731 7.68799C 92.1768 7.86267 92.8997 8.38684 92.8997 9.4353L 92.8997 9.78467C 92.8997 10.2754 92.4543 10.766 92.0638 11.1962C 91.8981 11.3788 91.7422 11.5505 91.6345 11.7067C 91.183 12.2305 90.6864 12.7106 90.1897 13.1908L 90.1886 13.1919C 89.6916 13.6724 89.1946 14.1528 88.7427 14.677L 83.6821 19.5693L 90.1887 25.8595L 91.996 27.6068L 92.719 28.3057C 92.7675 28.3993 92.8159 28.4805 92.8608 28.5557C 92.9836 28.7614 93.0804 28.9235 93.0804 29.1793L 93.0804 29.7035C 92.8997 30.5771 92.1768 31.276 91.2731 31.276L 90.9116 31.276C 90.1887 31.276 89.4657 30.5771 88.9235 30.053C 88.6286 29.7679 88.3145 29.4828 87.9937 29.1917C 87.3314 28.5906 86.6405 27.9636 86.0316 27.2573L 82.7783 24.287L 82.7783 29.1793C 82.7783 30.2277 82.0554 31.276 80.7902 31.276L 80.4287 31.276C 79.1636 31.276 78.4406 30.4023 78.4406 29.1793L 78.4406 2.27148C 78.4406 1.22314 79.1636 0.349487 80.4287 0.349487L 80.7902 0.349487C 82.0554 0.349487 82.7783 1.22314 82.7783 2.27148L 82.7783 14.677ZM 105.009 27.0825C 106.455 27.6068 108.263 27.6068 109.889 27.2573C 110.612 26.9078 112.781 26.0342 113.504 26.209L 113.865 26.209C 114.408 26.3837 114.769 26.7332 114.95 27.2573C 115.492 28.3057 115.311 29.354 114.227 29.8782L 113.865 30.053C 109.889 32.3243 105.732 31.9749 101.756 29.8782C 99.9485 28.8298 98.5026 27.432 97.4182 25.6848L 97.2375 25.3353C 94.7072 21.1418 95.0686 16.599 97.9604 12.5803C 98.8641 11.1825 100.31 10.1342 101.756 9.2605L 102.298 8.91101C 106.094 6.81433 110.07 6.98901 113.865 8.73633C 115.854 9.78467 117.661 11.1825 118.745 13.1045L 118.926 13.454C 119.83 14.8517 118.745 16.0748 117.48 16.9485L 113.685 20.0935C 110.433 22.5382 107.724 24.8083 105.014 27.0782L 105.009 27.0825ZM 106 20.7955L 106.005 20.7911C 107.541 19.5248 109.076 18.2584 110.612 16.9485C 111.697 16.0748 112.781 15.2012 113.865 14.1528C 112.962 13.1045 111.697 12.4056 110.431 11.8815C 108.082 11.0078 105.732 11.3572 103.383 12.5803C 100.491 14.1528 99.2256 16.7738 99.4063 19.9188C 99.4063 21.1418 99.7678 22.365 100.491 23.4133C 101.033 23.9375 101.214 24.287 101.394 24.6365C 102.924 23.3314 104.454 22.0701 105.984 20.8087L 105.989 20.8043L 105.994 20.7999L 106 20.7955ZM 134.831 7.86267L 134.47 7.86267C 132.12 7.86267 129.951 8.56152 127.602 9.95935C 124.348 12.2308 122.36 15.3759 122.36 19.3947L 122.36 29.7035C 122.36 30.9265 123.083 31.8002 124.348 31.8002L 124.71 31.8002C 125.975 31.8002 126.698 30.7518 126.698 29.7035L 126.698 19.9188C 126.698 17.822 127.421 15.9 129.047 14.3275C 130.313 13.1045 132.12 12.0562 133.927 12.0562C 135.373 12.0562 137 11.7067 137 9.95935C 137 8.73633 136.096 7.86267 134.831 7.86267ZM 66.8734 11.7065C 67.5963 11.7065 68.8615 11.7065 69.4037 12.056C 69.7652 12.2308 71.2111 12.9297 72.4763 13.2792L 72.657 13.2792C 73.7415 13.1044 74.4644 12.5802 74.4644 11.5319L 74.4644 11.1824C 74.4644 10.833 74.2836 10.4835 74.1029 10.134L 73.9222 9.95935L 73.7415 9.78467C 71.9341 8.56152 69.7652 8.03735 67.5963 8.03735L 66.6926 8.03735C 64.5237 8.03735 62.5356 8.56152 60.7283 9.60986C 56.752 11.7065 54.5831 15.2012 54.5831 19.5693L 54.5831 20.4429C 54.5831 21.4912 54.5831 22.3649 54.9446 23.4132C 56.752 29.0045 61.4512 32.3243 67.5963 31.9749C 69.223 31.8002 73.9222 31.2759 73.9222 28.8297L 73.9222 28.4803C 73.9222 27.432 73.1992 26.9078 72.2955 26.733L 71.3918 26.733C 71.3113 26.7642 71.2253 26.798 71.1343 26.8339L 71.097 26.8485L 71.0619 26.8624L 71.049 26.8676C 70.1169 27.2357 68.7354 27.7814 67.777 27.7814C 66.5119 27.7814 64.8853 27.6067 63.8008 27.0825C 60.5475 25.6847 58.7401 23.2385 58.7401 19.744C 58.7401 18.5209 58.9208 17.4725 59.4631 16.4242C 60.909 13.4539 63.4393 11.5319 66.8734 11.7065ZM 31.4485 19.5693C 31.4485 22.5397 33.0752 24.8112 35.6055 26.3837C 36.8707 27.0826 38.3167 27.432 39.7625 27.432C 42.8351 27.432 45.1847 25.8595 46.8113 23.4133C 47.5343 22.1903 47.8958 20.7925 47.8958 19.3947C 47.8958 16.599 46.4499 14.3276 44.1003 12.755C 42.8351 11.8815 41.2084 11.532 39.7625 11.532C 36.3285 11.532 33.7982 13.2793 32.3522 16.2496C 31.4485 17.4727 31.4485 18.521 31.4485 19.5693ZM 39.5818 7.68799L 39.0396 7.68799C 36.8707 7.68799 35.0633 8.21216 33.0752 9.08582C 29.0989 11.1825 26.9301 14.677 26.9301 19.0452L 26.9301 19.9188C 26.9301 22.0155 27.4723 23.9375 28.5567 25.6848C 30.7256 29.5288 34.3403 31.6255 38.8588 31.6255L 39.7625 31.6255C 41.9314 31.6255 43.9195 31.1013 45.7269 30.053C 49.7031 27.9562 51.872 24.4617 51.872 20.0935L 51.872 19.22C 51.872 17.298 51.3298 15.5507 50.4261 13.9781C 48.0765 9.95947 44.4617 7.68799 39.5818 7.68799ZM 3.97626 19.5693C 3.97626 22.7145 5.60291 25.1606 8.49475 26.5585C 9.57916 27.0826 10.8444 27.432 12.2902 27.432C 15.5435 27.432 17.8931 26.0343 19.5198 23.4133C 20.2427 22.1903 20.6042 20.7925 20.6042 19.3947C 20.6042 16.599 19.3391 14.5023 16.9894 12.9298C 15.5435 12.0562 14.0977 11.532 12.2902 11.532C 8.8562 11.532 6.32587 13.2793 4.87994 16.2496C 4.33771 17.4727 3.97626 18.521 3.97626 19.5693Z"/></defs></svg>