<svg xmlns="http://www.w3.org/2000/svg" xmlns:xlink="http://www.w3.org/1999/xlink" width="162" height="47" version="1.1" viewBox="0 0 162 47"><title>express_js_logo</title><desc>Created using Figma</desc><g id="Canvas" transform="translate(-875 280)"><g id="express_js_logo"><g id="Group"><g id="Shape"><use fill="#65A959" transform="matrix(1 -1.22465e-16 -1.22465e-16 -1 875 -233.005)" xlink:href="#path0_fill"/></g><g id="Shape"><use fill="#65A959" transform="matrix(1 -1.22465e-16 -1.22465e-16 -1 891.787 -246.75)" xlink:href="#path1_fill"/></g></g><g id="Express.js"><use fill="#FFF" transform="translate(929 -265)" xlink:href="#path2_fill"/></g></g></g><defs><path id="path0_fill" d="M 18.3854 46.4711C 16.4323 45.6025 13.898 44.1768 10.1693 41.8825C 8.26457 40.719 5.61732 39.1294 4.2937 38.3592C 1.6626 36.8351 0.790945 36.1468 0.306693 35.1963C 0.0161417 34.59 0 34.0984 0 23.3316L 0 12.106L 0.581102 11.4505C 1.71102 10.1887 5.64961 7.84523 8.03858 7.04223C 10.7181 6.12451 13.5429 7.14055 14.5921 9.40206L 15.0118 10.287L 14.9795 21.234L 14.9311 32.181L 13.8012 32.2302C 13.1878 32.2629 12.5098 32.2302 12.3161 32.181L 11.9449 32.0991L 11.9449 21.8403C 11.9449 10.5328 11.9772 10.9425 10.928 10.3034C 10.2823 9.89369 8.9748 9.8773 8.03858 10.2542C 7.65118 10.4017 6.47283 11.09 5.40748 11.7783C 4.34213 12.483 3.30906 13.1221 3.09921 13.2368L 2.74409 13.4334L 2.74409 23.5119L 2.74409 33.5903L 4.64882 34.8358C 8.7811 37.5726 19.9189 44.0785 20.4193 44.0621C 20.5 44.0457 24.5032 41.735 29.2972 38.9164L 38.0138 33.8034L 38.0138 23.4955L 38.0138 13.204L 29.2972 8.15659C 24.5032 5.37068 20.5 3.10917 20.4032 3.09278C 20.3224 3.09278 19.2571 3.68274 18.0626 4.4038C 16.8681 5.12486 15.7382 5.71482 15.5283 5.71482C 15.2055 5.71482 12.5906 4.48574 12.5906 4.33825C 12.5906 4.19076 17.2394 1.2082 18.3693 0.618238C 20.4839 -0.47974 21.1134 -0.315863 26.5693 2.76503C 33.2197 6.53421 40.1768 10.9917 40.6772 11.8111C 40.9839 12.3355 41 12.6304 41 23.6594C 41 34.5081 40.9839 34.9833 40.6933 35.4749C 40.1768 36.3435 40.2091 36.3107 32.687 40.7026C 30.6531 41.8989 28.1028 43.3902 27.0374 44.0129C 22.0012 46.9955 22.1465 46.9136 20.8228 46.9791C 19.7413 47.0119 19.4831 46.9627 18.3854 46.4711Z"/><path id="path1_fill" d="M 5.05236 18.8456C 3.58346 18.4523 2.72795 18.0098 1.93701 17.2068C 0.968504 16.2236 0.758661 15.6828 0.677953 13.9785C 0.613386 12.5855 0.645669 12.3725 1.03307 11.5695C 1.95315 9.66849 3.55118 8.9802 8.70039 8.27553C 13.1071 7.66919 14.0433 7.22672 14.0433 5.68627C 14.0433 4.96521 13.9787 4.80133 13.4299 4.26054C 12.5421 3.34283 11.5091 3.09701 8.66811 3.06423C 6.11772 3.04785 5.08465 3.27727 4.16457 4.06389C 3.66417 4.48997 2.90551 5.89931 2.90551 6.40733C 2.90551 6.62037 2.66339 6.70231 1.69488 6.80064C 0.145276 6.94813 0 6.83341 0 5.58794C 0.0161417 3.32644 1.63031 1.47462 4.43898 0.540524C 6.18228 -0.0330461 9.89488 -0.180536 11.961 0.245545C 14.4953 0.753565 16.2547 1.93348 17.0457 3.65419C 17.3524 4.34248 17.4331 4.76856 17.4331 5.88292C 17.4331 7.99694 16.7713 9.09492 14.8827 10.0618C 13.7205 10.6518 12.6067 10.9467 9.44291 11.4711C 4.82638 12.2414 4.03543 12.6019 4.03543 13.9457C 4.03543 14.4865 4.13228 14.7159 4.56811 15.1584C 5.27835 15.8794 6.15 16.0925 8.3937 16.0761C 10.4276 16.0761 11.4283 15.8467 12.4291 15.1748C 13.0102 14.7815 13.7205 13.6343 13.7205 13.0771C 13.7205 12.7658 13.9303 12.6838 15.0925 12.5363C 16.2386 12.3889 16.7874 12.6347 16.7874 13.2738C 16.7874 13.9948 15.8835 16.24 15.3024 16.9446C 14.689 17.6985 12.8972 18.5834 11.2669 18.9112C 9.52362 19.2717 6.5374 19.2389 5.05236 18.8456Z"/><path id="path2_fill" fill-rule="evenodd" d="M 9.97266 9.87891L 2.96484 9.87891L 2.96484 15.1289L 11.1562 15.1289L 11.1562 17.4961L 0 17.4961L 0 0.433594L 11.0742 0.433594L 11.0742 2.82422L 2.96484 2.82422L 2.96484 7.53516L 9.97266 7.53516L 9.97266 9.87891ZM 17.8477 8.98828L 20.2617 4.81641L 23.4258 4.81641L 19.5469 11.0625L 23.5547 17.4961L 20.4141 17.4961L 17.8828 13.1602L 15.3633 17.4961L 12.1992 17.4961L 16.207 11.0625L 12.3398 4.81641L 15.4805 4.81641L 17.8477 8.98828ZM 36.4688 11.2852C 36.4688 13.2461 36.0234 14.8105 35.1328 15.9785C 34.2422 17.1465 33.0469 17.7305 31.5469 17.7305C 30.1562 17.7305 29.043 17.2734 28.207 16.3594L 28.207 22.3711L 25.3594 22.3711L 25.3594 4.81641L 27.9844 4.81641L 28.1016 6.10547C 28.9375 5.08984 30.0742 4.58203 31.5117 4.58203C 33.0586 4.58203 34.2715 5.1582 35.1504 6.31055C 36.0293 7.4629 36.4688 9.06249 36.4688 11.1094L 36.4688 11.2852ZM 33.6328 11.0391C 33.6328 9.77343 33.3809 8.76954 32.877 8.02734C 32.373 7.28515 31.6523 6.91406 30.7148 6.91406C 29.5508 6.91406 28.7148 7.39453 28.207 8.35547L 28.207 13.9805C 28.7227 14.9648 29.5664 15.457 30.7383 15.457C 31.6445 15.457 32.3535 15.0918 32.8652 14.3613C 33.377 13.6309 33.6328 12.5234 33.6328 11.0391ZM 45.5156 7.41797C 45.1406 7.35547 44.7539 7.32422 44.3555 7.32422C 43.0508 7.32422 42.1719 7.82421 41.7188 8.82422L 41.7188 17.4961L 38.8711 17.4961L 38.8711 4.81641L 41.5898 4.81641L 41.6602 6.23438C 42.3477 5.13281 43.3008 4.58203 44.5195 4.58203C 44.9258 4.58203 45.2617 4.63672 45.5273 4.74609L 45.5156 7.41797ZM 52.6758 17.7305C 50.8711 17.7305 49.4082 17.1621 48.2871 16.0254C 47.166 14.8887 46.6055 13.375 46.6055 11.4844L 46.6055 11.1328C 46.6055 9.86718 46.8496 8.73633 47.3379 7.74023C 47.8262 6.74414 48.5117 5.96875 49.3945 5.41406C 50.2773 4.85937 51.2617 4.58203 52.3477 4.58203C 54.0742 4.58203 55.4082 5.13281 56.3496 6.23438C 57.291 7.33594 57.7617 8.89452 57.7617 10.9102L 57.7617 12.0586L 49.4766 12.0586C 49.5625 13.1055 49.9121 13.9336 50.5254 14.543C 51.1387 15.1523 51.9102 15.457 52.8398 15.457C 54.1445 15.457 55.207 14.9297 56.0273 13.875L 57.5625 15.3398C 57.0547 16.0977 56.377 16.6855 55.5293 17.1035C 54.6816 17.5215 53.7305 17.7305 52.6758 17.7305ZM 52.3359 6.86719C 51.5547 6.86719 50.9238 7.14062 50.4434 7.6875C 49.9629 8.23438 49.6562 8.99609 49.5234 9.97266L 54.9492 9.97266L 54.9492 9.76172C 54.8867 8.80859 54.6328 8.08789 54.1875 7.59961C 53.7422 7.11133 53.125 6.86719 52.3359 6.86719ZM 67.0781 14.0508C 67.0781 13.543 66.8691 13.1563 66.4512 12.8906C 66.0332 12.625 65.3399 12.3906 64.3711 12.1875C 63.4023 11.9844 62.5938 11.7266 61.9453 11.4141C 60.5234 10.7266 59.8125 9.73048 59.8125 8.42578C 59.8125 7.33203 60.2734 6.41797 61.1953 5.68359C 62.1172 4.94921 63.2891 4.58203 64.7109 4.58203C 66.2266 4.58203 67.4512 4.95703 68.3848 5.70703C 69.3184 6.45704 69.7852 7.42968 69.7852 8.625L 66.9375 8.625C 66.9375 8.07812 66.7344 7.62305 66.3281 7.25977C 65.9219 6.89648 65.3828 6.71484 64.7109 6.71484C 64.0859 6.71484 63.5762 6.85937 63.1816 7.14844C 62.7871 7.4375 62.5898 7.82422 62.5898 8.30859C 62.5898 8.7461 62.7734 9.08594 63.1406 9.32812C 63.5078 9.57031 64.25 9.81445 65.3672 10.0605C 66.4844 10.3066 67.3613 10.5996 67.998 10.9395C 68.6348 11.2793 69.1074 11.6875 69.416 12.1641C 69.7246 12.6406 69.8789 13.2187 69.8789 13.8984C 69.8789 15.0391 69.4063 15.9629 68.4609 16.6699C 67.5156 17.377 66.2774 17.7305 64.7461 17.7305C 63.707 17.7305 62.7813 17.543 61.9688 17.168C 61.1562 16.793 60.5234 16.2773 60.0703 15.6211C 59.6172 14.9648 59.3906 14.2578 59.3906 13.5L 62.1562 13.5C 62.1953 14.1719 62.4492 14.6895 62.918 15.0527C 63.3867 15.416 64.0078 15.5977 64.7812 15.5977C 65.5312 15.5977 66.1016 15.4551 66.4922 15.1699C 66.8828 14.8848 67.0781 14.5117 67.0781 14.0508ZM 79.4648 14.0508C 79.4648 13.543 79.2559 13.1563 78.8379 12.8906C 78.4199 12.625 77.7266 12.3906 76.7578 12.1875C 75.7891 11.9844 74.9805 11.7266 74.332 11.4141C 72.9101 10.7266 72.1992 9.73048 72.1992 8.42578C 72.1992 7.33203 72.6601 6.41797 73.582 5.68359C 74.5039 4.94921 75.6758 4.58203 77.0977 4.58203C 78.6133 4.58203 79.8379 4.95703 80.7715 5.70703C 81.7051 6.45704 82.1719 7.42968 82.1719 8.625L 79.3242 8.625C 79.3242 8.07812 79.1211 7.62305 78.7148 7.25977C 78.3086 6.89648 77.7695 6.71484 77.0977 6.71484C 76.4727 6.71484 75.9629 6.85937 75.5684 7.14844C 75.1738 7.4375 74.9766 7.82422 74.9766 8.30859C 74.9766 8.7461 75.1602 9.08594 75.5273 9.32812C 75.8945 9.57031 76.6367 9.81445 77.7539 10.0605C 78.8711 10.3066 79.748 10.5996 80.3848 10.9395C 81.0215 11.2793 81.4941 11.6875 81.8027 12.1641C 82.1113 12.6406 82.2656 13.2187 82.2656 13.8984C 82.2656 15.0391 81.793 15.9629 80.8477 16.6699C 79.9023 17.377 78.6641 17.7305 77.1328 17.7305C 76.0937 17.7305 75.168 17.543 74.3555 17.168C 73.543 16.793 72.9102 16.2773 72.457 15.6211C 72.0039 14.9648 71.7773 14.2578 71.7773 13.5L 74.543 13.5C 74.582 14.1719 74.8359 14.6895 75.3047 15.0527C 75.7734 15.416 76.3945 15.5977 77.168 15.5977C 77.918 15.5977 78.4883 15.4551 78.8789 15.1699C 79.2695 14.8848 79.4648 14.5117 79.4648 14.0508ZM 86.5195 14.4961C 87.0508 14.4961 87.4609 14.6465 87.75 14.9473C 88.0391 15.248 88.1836 15.625 88.1836 16.0781C 88.1836 16.5234 88.0391 16.8926 87.75 17.1855C 87.4609 17.4785 87.0508 17.625 86.5195 17.625C 86.0117 17.625 85.6094 17.4805 85.3125 17.1914C 85.0156 16.9023 84.8672 16.5313 84.8672 16.0781C 84.8672 15.625 85.0117 15.248 85.3008 14.9473C 85.5898 14.6465 85.9961 14.4961 86.5195 14.4961ZM 94.418 4.81641L 94.418 18.6211C 94.418 19.918 94.0957 20.9082 93.4512 21.5918C 92.8066 22.2754 91.8633 22.6172 90.6211 22.6172C 90.0977 22.6172 89.5938 22.5508 89.1094 22.418L 89.1094 20.168C 89.4062 20.2383 89.7422 20.2734 90.1172 20.2734C 91.0625 20.2734 91.5469 19.7578 91.5703 18.7266L 91.5703 4.81641L 94.418 4.81641ZM 91.3242 1.52344C 91.3242 1.08594 91.4629 0.722658 91.7402 0.433594C 92.0176 0.14453 92.4141 0 92.9297 0C 93.4453 0 93.8438 0.14453 94.125 0.433594C 94.4062 0.722658 94.5469 1.08594 94.5469 1.52344C 94.5469 1.95313 94.4062 2.31055 94.125 2.5957C 93.8438 2.88086 93.4453 3.02344 92.9297 3.02344C 92.4141 3.02344 92.0176 2.88086 91.7402 2.5957C 91.4629 2.31055 91.3242 1.95313 91.3242 1.52344ZM 104.566 14.0508C 104.566 13.543 104.357 13.1563 103.939 12.8906C 103.521 12.625 102.828 12.3906 101.859 12.1875C 100.891 11.9844 100.082 11.7266 99.4336 11.4141C 98.0117 10.7266 97.3008 9.73048 97.3008 8.42578C 97.3008 7.33203 97.7617 6.41797 98.6836 5.68359C 99.6055 4.94921 100.777 4.58203 102.199 4.58203C 103.715 4.58203 104.939 4.95703 105.873 5.70703C 106.807 6.45704 107.273 7.42968 107.273 8.625L 104.426 8.625C 104.426 8.07812 104.223 7.62305 103.816 7.25977C 103.41 6.89648 102.871 6.71484 102.199 6.71484C 101.574 6.71484 101.064 6.85937 100.67 7.14844C 100.275 7.4375 100.078 7.82422 100.078 8.30859C 100.078 8.7461 100.262 9.08594 100.629 9.32812C 100.996 9.57031 101.738 9.81445 102.855 10.0605C 103.973 10.3066 104.85 10.5996 105.486 10.9395C 106.123 11.2793 106.596 11.6875 106.904 12.1641C 107.213 12.6406 107.367 13.2187 107.367 13.8984C 107.367 15.0391 106.895 15.9629 105.949 16.6699C 105.004 17.377 103.766 17.7305 102.234 17.7305C 101.195 17.7305 100.27 17.543 99.457 17.168C 98.6445 16.793 98.0117 16.2773 97.5586 15.6211C 97.1055 14.9648 96.8789 14.2578 96.8789 13.5L 99.6445 13.5C 99.6836 14.1719 99.9375 14.6895 100.406 15.0527C 100.875 15.416 101.496 15.5977 102.27 15.5977C 103.02 15.5977 103.59 15.4551 103.98 15.1699C 104.371 14.8848 104.566 14.5117 104.566 14.0508Z"/></defs></svg>