<svg xmlns="http://www.w3.org/2000/svg" xmlns:xlink="http://www.w3.org/1999/xlink" width="193" height="39" version="1.1" viewBox="0 0 193 39"><title>facebook_logo</title><desc>Created using Figma</desc><g id="Canvas" transform="translate(-875 -676)"><g id="facebook_logo"><g id="Fill 14"><use fill="#135AFF" transform="translate(875 676)" xlink:href="#path0_fill"/></g><g id="Fill 16"><use fill="#135AFF" transform="translate(893.268 688.735)" xlink:href="#path1_fill"/></g><g id="Fill 17"><use fill="#135AFF" transform="translate(919.477 688.735)" xlink:href="#path2_fill"/></g><g id="Fill 18"><use fill="#135AFF" transform="translate(940.922 688.735)" xlink:href="#path3_fill"/></g><g id="Fill 19"><use fill="#135AFF" transform="translate(967.132 676)" xlink:href="#path4_fill"/></g><g id="Fill 20"><use fill="#135AFF" transform="translate(992.547 688.735)" xlink:href="#path5_fill"/></g><g id="Fill 21"><use fill="#135AFF" transform="translate(1019.55 688.735)" xlink:href="#path6_fill"/></g><g id="Fill 22"><use fill="#135AFF" transform="translate(1045.76 676)" xlink:href="#path7_fill"/></g></g></g><defs><path id="path0_fill" fill-rule="evenodd" d="M 15.0474 6.07813C 12.7835 6.07813 12.1274 7.12652 12.1274 9.43176L 12.1274 13.2569L 18.1676 13.2569L 17.5639 19.4423L 12.1274 19.4423L 12.1274 38.2041L 4.88027 38.2041L 4.88027 19.4423L 0 19.4423L 0 13.2569L 4.88027 13.2569L 4.88027 9.53577C 4.88027 3.30139 7.29687 0 14.0406 0C 15.5006 0 17.2106 0.104006 18.2675 0.260709L 18.2675 6.07813"/><path id="path1_fill" fill-rule="evenodd" d="M 7.54346 14.0339C 7.54346 17.794 8.90651 20.2808 12.4149 20.2808C 15.5065 20.2808 17.0779 18.0047 17.0779 14.4057L 17.0779 11.8624C 17.0779 8.26058 15.5065 5.98395 12.4149 5.98395C 8.90651 5.98395 7.54346 8.47404 7.54346 12.2342L 7.54346 14.0339ZM 0 12.3398C 0 5.29641 3.29998 0 10.2151 0C 13.9868 0 16.2906 1.9604 17.3907 4.39491L 17.3907 0.529687L 24.6214 0.529687L 24.6214 25.7352L 17.3907 25.7352L 17.3907 21.9255C 16.3428 24.3605 13.9868 26.2653 10.2151 26.2653C 3.29998 26.2653 0 20.9717 0 13.9284L 0 12.3398Z"/><path id="path2_fill" fill-rule="evenodd" d="M 13.2301 0C 16.24 0 19.0933 0.634784 20.6502 1.69416L 18.9297 7.09566C 17.7466 6.51366 15.8121 5.93119 13.7676 5.93119C 9.57181 5.93119 7.74406 8.31292 7.74406 12.3921L 7.74406 13.8728C 7.74406 17.9519 9.57181 20.3336 13.7676 20.3336C 15.8121 20.3336 17.7466 19.7512 18.9297 19.1692L 20.6502 24.5707C 19.0933 25.6301 16.24 26.2653 13.2301 26.2653C 4.14266 26.2653 0 21.4458 0 13.7149L 0 12.5499C 0 4.8195 4.14266 0 13.2301 0Z"/><path id="path3_fill" fill-rule="evenodd" d="M 7.42065 10.782L 16.3872 10.782L 16.3872 10.1485C 16.3872 7.39996 15.305 5.23322 12.0587 5.23322C 8.70743 5.23322 7.42065 7.39996 7.42065 10.782ZM 0 14.0587L 0 11.8393C 0 4.70503 3.96624 0 12.0587 0C 19.6844 0 23.0329 4.75725 23.0329 11.7339L 23.0329 15.7495L 7.42068 15.7495C 7.57431 19.187 9.06926 20.717 13.1923 20.717C 15.974 20.717 18.9126 20.1357 21.0766 19.187L 22.4148 24.417C 20.4589 25.4742 16.4381 26.2653 12.8819 26.2653C 3.50535 26.2653 0 21.4586 0 14.0587Z"/><path id="path4_fill" fill-rule="evenodd" d="M 17.6942 24.4338C 17.6942 20.964 16.2989 18.3783 12.6014 18.3783C 9.43684 18.3783 7.72144 20.5522 7.72144 24.0703L 7.72144 26.6593C 7.72144 30.1801 9.43684 32.354 12.6014 32.354C 16.2989 32.354 17.6942 29.7656 17.6942 26.2958L 17.6942 24.4338ZM 25.4156 26.1415C 25.4156 33.0262 21.9848 38.2041 14.9061 38.2041C 11.0459 38.2041 8.3642 36.3389 7.29154 33.959L 7.29154 37.6858L 0 37.6858L 0 0.672122L 7.72146 0L 7.72146 16.4615C 8.84709 14.2881 11.3121 12.5288 14.9061 12.5288C 21.9848 12.5288 25.4156 17.703 25.4156 24.5881L 25.4156 26.1415Z"/><path id="path5_fill" fill-rule="evenodd" d="M 17.6945 11.9679C 17.6945 8.63192 16.2988 5.98395 12.7081 5.98395C 9.11402 5.98395 7.72162 8.63192 7.72162 11.9679L 7.72162 14.2969C 7.72162 17.6329 9.11402 20.2808 12.7081 20.2808C 16.2988 20.2808 17.6945 17.6329 17.6945 14.2969L 17.6945 11.9679ZM 0 13.7677L 0 12.4976C 0 5.24363 4.18052 0 12.7081 0C 21.2323 0 25.4156 5.24363 25.4156 12.4976L 25.4156 13.7677C 25.4156 21.0245 21.2323 26.2653 12.7081 26.2653C 4.18052 26.2653 0 21.0245 0 13.7677Z"/><path id="path6_fill" fill-rule="evenodd" d="M 17.6945 11.9679C 17.6945 8.63192 16.2988 5.98395 12.7081 5.98395C 9.11401 5.98395 7.72113 8.63192 7.72113 11.9679L 7.72113 14.2969C 7.72113 17.6329 9.11401 20.2808 12.7081 20.2808C 16.2988 20.2808 17.6945 17.6329 17.6945 14.2969L 17.6945 11.9679ZM 0 13.7677L 0 12.4976C 0 5.24363 4.18052 0 12.7081 0C 21.2323 0 25.4156 5.24363 25.4156 12.4976L 25.4156 13.7677C 25.4156 21.0245 21.2323 26.2653 12.7081 26.2653C 4.18052 26.2653 0 21.0245 0 13.7677Z"/><path id="path7_fill" fill-rule="evenodd" d="M 7.19675 24.6141L 14.2939 12.9504L 21.9403 12.9504L 14.4927 25.0261L 22.2387 37.4082L 14.5949 37.4082L 7.19675 25.4381L 7.19675 37.4082L 0 37.4082L 0 0.670342L 7.19675 0"/></defs></svg>