<svg xmlns="http://www.w3.org/2000/svg" xmlns:xlink="http://www.w3.org/1999/xlink" width="456" height="400" version="1.1" viewBox="0 0 456 400"><title>frontend_technologies</title><desc>Created using Figma</desc><g id="Canvas" transform="translate(-606 1552)"><g id="frontend_technologies"><g id="html_and_css_technologies"><g id="bootstrap_4"><g id="Group 3"><mask id="mask0_outline" mask-type="alpha"><g id="Clip 2"><use fill="#FFF" transform="translate(754.012 -1209.97)" xlink:href="#path0_fill"/></g></mask><g id="Fill 1" mask="url(#mask0_outline)"><use fill="#4D3F71" transform="translate(754 -1209.97)" xlink:href="#path1_fill"/></g></g><g id="Fill 4"><use fill="#FFFFFE" transform="translate(767 -1199)" xlink:href="#path2_fill"/></g><g id="Fill 5"><use fill="#FFF" transform="translate(809 -1198)" xlink:href="#path3_fill"/></g><g id="Fill 6"><use fill="#FFF" transform="translate(829 -1192)" xlink:href="#path4_fill"/></g><g id="Fill 7"><use fill="#FFF" transform="translate(846 -1192)" xlink:href="#path5_fill"/></g><g id="Fill 8"><use fill="#FFF" transform="translate(862 -1198)" xlink:href="#path6_fill"/></g><g id="Fill 9"><use fill="#FFF" transform="translate(870 -1192)" xlink:href="#path7_fill"/></g><g id="Fill 10"><use fill="#FFF" transform="translate(887 -1198)" xlink:href="#path8_fill"/></g><g id="Fill 11"><use fill="#FFF" transform="translate(896 -1192)" xlink:href="#path9_fill"/></g><g id="Fill 12"><use fill="#FFF" transform="translate(905 -1192)" xlink:href="#path10_fill"/></g><g id="Fill 13"><use fill="#FFF" transform="translate(923 -1192)" xlink:href="#path11_fill"/></g><g id="4"><use fill="#FEF641" transform="translate(940 -1210)" xlink:href="#path12_fill"/></g></g><g id="sass"><g id="Shape"><use fill="#CD6799" transform="translate(606 -1222)" xlink:href="#path13_fill"/></g></g><g id="grunt"><g id="Shape"><use fill="#FBA919" transform="translate(1011 -1216)" xlink:href="#path14_fill"/></g><g id="Shape"><use fill="#E78724" transform="translate(1020 -1197)" xlink:href="#path15_fill"/></g><g id="Shape"><use fill="#E78724" transform="translate(1014 -1218)" xlink:href="#path16_fill"/></g><g id="Shape"><use fill="#E78724" transform="translate(1010 -1215)" xlink:href="#path17_fill"/></g><g id="Shape"><use fill="#E78724" transform="translate(1012 -1206)" xlink:href="#path18_fill"/></g><g id="Shape"><use fill="#FDC168" transform="translate(1014 -1217)" xlink:href="#path19_fill"/></g><g id="Shape"><use fill="#FBA919" transform="translate(1011 -1219)" xlink:href="#path20_fill"/></g><g id="Shape"><use fill="#FFF" transform="translate(1019 -1203)" xlink:href="#path21_fill"/></g><g id="Shape"><use fill="#C9C9C9" transform="translate(1020 -1202)" xlink:href="#path22_fill"/></g><g id="Shape"><use fill="#463014" transform="translate(1010 -1223)" xlink:href="#path23_fill"/></g><g id="Shape"><use fill="#463014" transform="translate(1014 -1218)" xlink:href="#path24_fill"/></g><g id="Shape"><use fill="#463014" transform="translate(1018 -1204)" xlink:href="#path25_fill"/></g><g id="Shape"><use fill="#463014" transform="translate(1016 -1204)" xlink:href="#path26_fill"/></g><g id="Shape"><use fill="#463014" transform="translate(1009 -1213)" xlink:href="#path27_fill"/></g><g id="Shape"><use fill="#463014" transform="translate(1010 -1220)" xlink:href="#path28_fill"/></g><g id="Shape"><use fill="#463014" transform="translate(1010 -1220)" xlink:href="#path29_fill"/></g><g id="Shape"><use fill="#463014" transform="translate(1014 -1218)" xlink:href="#path30_fill"/></g><g id="Shape"><use fill="#463014" transform="translate(1014 -1218)" xlink:href="#path31_fill"/></g><g id="Shape"><use fill="#FFF" transform="translate(1010 -1188)" xlink:href="#path32_fill"/></g><g id="Shape"><use fill="#C9C9C9" transform="translate(1011 -1186)" xlink:href="#path33_fill"/></g><g id="Shape"><use fill="#463014" transform="translate(1010 -1188)" xlink:href="#path34_fill"/></g><g id="Shape"><use fill="#463014" transform="translate(1020 -1190)" xlink:href="#path35_fill"/></g><g id="Shape"><use fill="#E78724" transform="translate(1035 -1197)" xlink:href="#path36_fill"/></g><g id="Shape"><use fill="#E78724" transform="translate(1036 -1218)" xlink:href="#path37_fill"/></g><g id="Shape"><use fill="#E78724" transform="translate(1031 -1215)" xlink:href="#path38_fill"/></g><g id="Shape"><use fill="#E78724" transform="translate(1033 -1206)" xlink:href="#path39_fill"/></g><g id="Shape"><use fill="#FDC168" transform="translate(1047 -1217)" xlink:href="#path40_fill"/></g><g id="Shape"><use fill="#FBA919" transform="translate(1032 -1219)" xlink:href="#path41_fill"/></g><g id="Shape"><use fill="#FFF" transform="translate(1036 -1203)" xlink:href="#path42_fill"/></g><g id="Shape"><use fill="#C9C9C9" transform="translate(1036 -1202)" xlink:href="#path43_fill"/></g><g id="Shape"><use fill="#463014" transform="translate(1038 -1220)" xlink:href="#path44_fill"/></g><g id="Shape"><use fill="#463014" transform="translate(1040 -1218)" xlink:href="#path45_fill"/></g><g id="Shape"><use fill="#463014" transform="translate(1036 -1204)" xlink:href="#path46_fill"/></g><g id="Shape"><use fill="#463014" transform="translate(1033 -1204)" xlink:href="#path47_fill"/></g><g id="Shape"><use fill="#463014" transform="translate(1035 -1213)" xlink:href="#path48_fill"/></g><g id="Shape"><use fill="#463014" transform="translate(1019 -1217)" xlink:href="#path49_fill"/></g><g id="Shape"><use fill="#463014" transform="translate(1038 -1220)" xlink:href="#path50_fill"/></g><g id="Shape"><use fill="#463014" transform="translate(1036 -1220)" xlink:href="#path51_fill"/></g><g id="Shape"><use fill="#463014" transform="translate(1040 -1218)" xlink:href="#path52_fill"/></g><g id="Shape"><use fill="#463014" transform="translate(1033 -1218)" xlink:href="#path53_fill"/></g><g id="Shape"><use fill="#E78724" transform="translate(1027 -1205)" xlink:href="#path54_fill"/></g><g id="Shape"><use fill="#463014" transform="translate(1028 -1205)" xlink:href="#path55_fill"/></g><g id="Shape"><use fill="#FFF" transform="translate(1039 -1188)" xlink:href="#path56_fill"/></g><g id="Shape"><use fill="#C9C9C9" transform="translate(1041 -1186)" xlink:href="#path57_fill"/></g><g id="Shape"><use fill="#463014" transform="translate(1039 -1188)" xlink:href="#path58_fill"/></g><g id="Shape"><use fill="#463014" transform="translate(1020 -1181)" xlink:href="#path59_fill"/></g><g id="Shape"><use fill="#463014" transform="translate(1036 -1190)" xlink:href="#path60_fill"/></g><g id="Shape"><use fill="#FFF" transform="translate(1001 -1164)" xlink:href="#path61_fill"/></g></g></g><g id="angular_technologies"><g id="angular_5"><g id="angular_5_text"><g id="polygon14"><use fill="#CCC" transform="translate(712.148 -1518.47)" xlink:href="#path62_fill"/></g><g id="path16"><use fill="#CCC" transform="translate(756.599 -1518.77)" xlink:href="#path63_fill"/></g><g id="path18"><use fill="#CCC" transform="translate(799.28 -1518.47)" xlink:href="#path64_fill"/></g><g id="polygon20"><use fill="#CCC" transform="translate(844.176 -1518.47)" xlink:href="#path65_fill"/></g><g id="polygon22"><use fill="#CCC" transform="translate(873.948 -1524.09)" xlink:href="#path66_fill"/></g><g id="path24"><use fill="#CCC" transform="translate(921.706 -1518.47)" xlink:href="#path67_fill"/></g><g id="polygon30"><use fill="#FFF" transform="translate(713.53 -1519.86)" xlink:href="#path68_fill"/></g><g id="path32"><use fill="#FFF" transform="translate(757.982 -1520.16)" xlink:href="#path69_fill"/></g><g id="path34"><use fill="#FFF" transform="translate(800.661 -1519.86)" xlink:href="#path70_fill"/></g><g id="polygon36"><use fill="#FFF" transform="translate(845.558 -1519.86)" xlink:href="#path71_fill"/></g><g id="polygon38"><use fill="#FFF" transform="translate(875.329 -1525.49)" xlink:href="#path72_fill"/></g><g id="path40"><use fill="#FFF" transform="translate(923.089 -1519.86)" xlink:href="#path73_fill"/></g><g id="5"><use fill="#DBDBDB" transform="translate(982.439 -1532.36)" xlink:href="#path74_fill"/></g><g id="5"><use fill="#E84D3A" transform="translate(985.598 -1533.94)" xlink:href="#path74_fill"/></g></g><g id="angular_logo"><g id="polygon50"><use fill="#B3B3B3" transform="translate(606.332 -1551.48)" xlink:href="#path75_fill"/></g><g id="polygon52"><use fill="#A6120D" transform="translate(655.731 -1545.96)" xlink:href="#path76_fill"/></g><g id="polygon54"><use fill="#DD1B16" transform="translate(611.888 -1545.96)" xlink:href="#path77_fill"/></g><g id="path56"><use fill="#F2F2F2" transform="translate(625.117 -1542.54)" xlink:href="#path78_fill"/></g><g id="polygon58"><use fill="#B3B3B3" transform="translate(655.73 -1542.54)" xlink:href="#path79_fill"/></g></g></g><g id="relation_line_2" opacity=".282"><use fill="#FFF" transform="matrix(0.848048 0.529919 -0.529919 0.848048 855.842 -1449)" xlink:href="#path80_stroke"/></g><g id="relation_line" opacity=".282"><use fill="#FFF" transform="matrix(-0.848048 0.529919 0.529919 0.848048 812.081 -1446.31)" xlink:href="#path81_stroke"/></g><g id="typescript"><g id="Shape"><use fill="#007ACC" transform="matrix(1 -1.22465e-16 -1.22465e-16 -1 848 -1339)" xlink:href="#path82_fill"/></g><g id="Shape"><use fill="#FFF" transform="matrix(-1 -1.22465e-16 1.22465e-16 -1 876 -1342)" xlink:href="#path83_fill"/></g><g id="Shape"><use fill="#FFF" transform="matrix(1 -1.22465e-16 -1.22465e-16 -1 876 -1342)" xlink:href="#path84_fill"/></g><g id="Type Script"><use fill="#FFF" transform="translate(910 -1372)" xlink:href="#path85_fill"/></g></g><g id="angular_material"><g id="angular-white-transparent"><g id="Path 14"><use fill="#9C27B0" transform="translate(661 -1342)" xlink:href="#path86_fill"/></g><g id="Group"><g id="Shape"><use fill="#FFF" transform="translate(659.161 -1344)" xlink:href="#path87_fill"/></g><g id="Shape"><use fill="#FFF" transform="translate(672.779 -1332.07)" xlink:href="#path88_fill"/></g></g><g id="Group"><g id="Shape"><use fill="#CBCBCB" transform="translate(676 -1344)" xlink:href="#path89_fill"/></g><g id="Shape"><use fill="#CBCBCB" transform="translate(676 -1332.16)" xlink:href="#path90_fill"/></g></g></g><g id="Material"><use fill="#FFF" transform="translate(705 -1333)" xlink:href="#path91_fill"/></g></g></g></g></g><defs><path id="path0_fill" fill-rule="evenodd" d="M 22.9793 0L 0 0L 0 45.9586L 45.9586 45.9586L 45.9586 0L 22.9793 0Z"/><path id="path1_fill" fill-rule="evenodd" d="M 45.9707 38.3088C 45.9707 42.5229 42.5229 45.9707 38.3088 45.9707L 7.66171 45.9707C 3.44779 45.9707 0 42.5229 0 38.3088L 0 7.66171C 0 3.44779 3.44779 0 7.66171 0L 38.3088 0C 42.5229 0 45.9707 3.44779 45.9707 7.66171L 45.9707 38.3088Z"/><path id="path2_fill" fill-rule="evenodd" d="M 4.44153 23.1427L 12.2944 23.1427C 13.6447 23.1427 14.6964 22.7722 15.4356 22.0234C 16.1818 21.2822 16.5584 20.2234 16.5584 18.8621C 16.5584 17.5234 16.1888 16.5024 15.4356 15.7763C 14.6823 15.0503 13.6447 14.7024 12.2944 14.7024L 4.44153 14.7024L 4.44153 23.1427ZM 4.44153 11.3067L 11.6904 11.3067C 12.7564 11.3067 13.6447 10.9891 14.3554 10.3387C 15.066 9.68825 15.4214 8.76558 15.4214 7.55552C 15.4214 6.19417 15.1015 5.23369 14.4619 4.68154C 13.8224 4.1294 12.8985 3.84949 11.6904 3.84949L 4.44153 3.84949L 4.44153 11.3067ZM 0 0L 12.3299 0C 14.604 0 16.4306 0.551941 17.8021 1.66371C 19.1737 2.77548 19.863 4.44688 19.863 6.69327C 19.863 8.05462 19.5503 9.21917 18.9249 10.1873C 18.2995 11.1553 17.4042 11.9117 16.2386 12.441L 16.2386 12.5167C 17.8021 12.8722 18.9889 13.6588 19.7919 14.8763C 20.595 16.1015 21 17.6293 21 19.4747C 21 20.5335 20.8223 21.5243 20.4671 22.4395C 20.1117 23.3621 19.5574 24.1562 18.797 24.8218C 18.0366 25.4874 17.0701 26.0167 15.8832 26.41C 14.6964 26.8032 13.2893 27 11.6549 27L 0 27L 0 0Z"/><path id="path3_fill" fill-rule="evenodd" d="M 2.80396 18.5218L 8.0794 18.5218C 8.98499 18.5218 9.62101 18.4883 9.98727 18.4214C 10.6328 18.3068 11.1725 18.1159 11.6062 17.8486C 12.0398 17.5812 12.396 17.192 12.6756 16.6812C 12.955 16.1701 13.0948 15.5804 13.0948 14.9119C 13.0948 14.129 12.8925 13.4484 12.4877 12.8705C 12.083 12.2929 11.5218 11.8871 10.8039 11.653C 10.0859 11.4193 9.05268 11.3021 7.70367 11.3021L 2.80396 11.3021L 2.80396 18.5218ZM 2.80396 8.82393L 7.38576 8.82393C 8.62879 8.82393 9.51978 8.74296 10.0597 8.58044C 10.7727 8.37058 11.31 8.02167 11.6712 7.53467C 12.0327 7.04768 12.2132 6.43669 12.2132 5.70111C 12.2132 5.00426 12.0445 4.39033 11.7073 3.86031C 11.3698 3.33029 10.8883 2.96769 10.262 2.77171C 9.63542 2.57613 8.56111 2.47815 7.03884 2.47815L 2.80396 2.47815L 2.80396 8.82393ZM 0 21L 0 0L 7.94938 0C 9.56815 0 10.8664 0.212595 11.8446 0.637395C 12.8227 1.06239 13.5885 1.7166 14.1428 2.59984C 14.6968 3.48328 14.9738 4.4072 14.9738 5.3718C 14.9738 6.26951 14.7282 7.11461 14.2368 7.9073C 13.7452 8.69998 13.0032 9.33972 12.0108 9.82672C 13.2921 10.1991 14.2776 10.8343 14.9665 11.7319C 15.6554 12.6296 16 13.6896 16 14.912C 16 15.8956 15.7906 16.8099 15.3713 17.6552C 14.9523 18.5003 14.4341 19.1522 13.8176 19.6104C 13.201 20.0688 12.4276 20.4152 11.4977 20.6489C 10.5679 20.883 9.42843 21 8.07943 21L 0 21Z"/><path id="path4_fill" fill-rule="evenodd" d="M 2.789 7.99988C 2.789 9.96025 3.23606 11.4282 4.1306 12.4036C 5.02513 13.3789 6.15081 13.8666 7.50763 13.8666C 8.85437 13.8666 9.9747 13.3766 10.8694 12.3963C 11.7638 11.4162 12.211 9.92207 12.211 7.91348C 12.211 6.02042 11.7613 4.58631 10.8618 3.61075C 9.96214 2.63539 8.84408 2.14771 7.50763 2.14771C 6.15081 2.14771 5.02513 2.63302 4.1306 3.60347C 3.23606 4.5743 2.789 6.03951 2.789 7.99988ZM 0 7.9999C 0 5.16533 0.823934 3.06543 2.47242 1.70078C 3.84921 0.56719 5.52733 0 7.50762 0C 9.70855 0 11.5075 0.689603 12.9045 2.06841C 14.3012 3.44742 15 5.35269 15 7.78381C 15 9.75363 14.6911 11.3033 14.0727 12.4325C 13.4548 13.5616 12.5552 14.4384 11.3745 15.063C 10.1933 15.6877 8.90437 16 7.50762 16C 5.26634 16 3.45464 15.313 2.0727 13.9387C 0.690762 12.5646 0 10.5851 0 7.9999Z"/><path id="path5_fill" fill-rule="evenodd" d="M 2.789 7.99988C 2.789 9.96025 3.23607 11.4282 4.13061 12.4036C 5.02516 13.3789 6.15085 13.8666 7.50749 13.8666C 8.85425 13.8666 9.97459 13.3766 10.8693 12.3963C 11.7639 11.4162 12.2112 9.92207 12.2112 7.91348C 12.2112 6.02042 11.7612 4.58631 10.8619 3.61075C 9.96224 2.63539 8.84396 2.14771 7.50749 2.14771C 6.15085 2.14771 5.02516 2.63302 4.13061 3.60347C 3.23607 4.5743 2.789 6.03951 2.789 7.99988ZM 0 7.9999C 0 5.16533 0.823945 3.06543 2.47245 1.70078C 3.84926 0.56719 5.52741 0 7.50751 0C 9.70847 0 11.5077 0.689603 12.9046 2.06841C 14.3014 3.44742 15 5.35269 15 7.78381C 15 9.75363 14.691 11.3033 14.0727 12.4325C 13.4548 13.5616 12.5551 14.4384 11.3745 15.063C 10.1934 15.6877 8.90429 16 7.50751 16C 5.26642 16 3.45468 15.313 2.07273 13.9387C 0.690772 12.5646 0 10.5851 0 7.9999Z"/><path id="path6_fill" fill-rule="evenodd" d="M 6.64871 18.4603L 7 20.7678C 6.31531 20.9225 5.70277 21 5.16218 21C 4.27915 21 3.59465 20.8498 3.10812 20.5502C 2.62159 20.2504 2.27915 19.8561 2.08118 19.3673C 1.88303 18.8788 1.78376 17.8508 1.78376 16.2835L 1.78376 7.41591L 0 7.41591L 0 5.3843L 1.78376 5.3843L 1.78376 1.56736L 4.20277 0L 4.20277 5.3843L 6.64871 5.3843L 6.64871 7.41591L 4.20277 7.41591L 4.20277 16.4285C 4.20277 17.1737 4.24539 17.6527 4.33118 17.8653C 4.41661 18.0781 4.55627 18.2477 4.75 18.3731C 4.94354 18.499 5.22066 18.562 5.581 18.562C 5.85129 18.562 6.2072 18.5281 6.64871 18.4603Z"/><path id="path7_fill" fill-rule="evenodd" d="M 0 11.0846L 2.62359 10.681C 2.77089 11.7095 3.18102 12.4973 3.85438 13.045C 4.52733 13.5927 5.46834 13.8666 6.67699 13.8666C 7.89511 13.8666 8.79928 13.624 9.38892 13.1387C 9.97856 12.6535 10.2734 12.0842 10.2734 11.4306C 10.2734 10.8445 10.013 10.3834 9.49216 10.0469C 9.12852 9.81621 8.22454 9.52297 6.78003 9.16754C 4.83442 8.68695 3.4857 8.27149 2.73427 7.92059C 1.98223 7.57008 1.41231 7.08456 1.02452 6.46463C 0.636124 5.84489 0.442128 5.16041 0.442128 4.41078C 0.442128 3.72846 0.601712 3.09672 0.921082 2.51516C 1.24045 1.934 1.67513 1.45104 2.22553 1.06668C 2.63828 0.768915 3.20075 0.516612 3.91334 0.30977C 4.62554 0.103322 5.38945 0 6.20528 0C 7.43346 0 8.51211 0.172991 9.44044 0.518776C 10.3692 0.864758 11.0544 1.33315 11.4967 1.92416C 11.9389 2.51516 12.2433 3.30592 12.4106 4.29545L 9.81636 4.64143C 9.69843 3.85363 9.35693 3.23842 8.79184 2.79639C 8.22695 2.35457 7.42863 2.13336 6.39686 2.13336C 5.17835 2.13336 4.30878 2.33036 3.78797 2.72436C 3.26695 3.11856 3.00675 3.57967 3.00675 4.10809C 3.00675 4.44463 3.11482 4.74732 3.33115 5.01615C 3.54708 5.29502 3.88597 5.52568 4.34802 5.70811C 4.61346 5.80416 5.39448 6.02517 6.69168 6.37115C 8.56846 6.86119 9.87774 7.26248 10.6195 7.57461C 11.3615 7.88713 11.9437 8.34116 12.3663 8.93689C 12.7887 9.53281 13 10.2726 13 11.1566C 13 12.0216 12.742 12.836 12.2264 13.5998C 11.7102 14.364 10.9661 14.9548 9.99325 15.373C 9.02045 15.7908 7.91986 16 6.69168 16C 4.65753 16 3.10737 15.5869 2.04119 14.7603C 0.975216 13.9339 0.294819 12.7086 0 11.0846Z"/><path id="path8_fill" fill-rule="evenodd" d="M 6.64852 18.4603L 7 20.7678C 6.31531 20.9225 5.70258 21 5.16218 21C 4.27915 21 3.59465 20.8498 3.10812 20.5502C 2.62159 20.2504 2.27915 19.8561 2.08118 19.3673C 1.88284 18.8788 1.78376 17.8508 1.78376 16.2835L 1.78376 7.41591L 0 7.41591L 0 5.3843L 1.78376 5.3843L 1.78376 1.56736L 4.20277 0L 4.20277 5.3843L 6.64852 5.3843L 6.64852 7.41591L 4.20277 7.41591L 4.20277 16.4285C 4.20277 17.1737 4.24539 17.6527 4.33118 17.8653C 4.41661 18.0781 4.55627 18.2477 4.74982 18.3731C 4.94354 18.499 5.22066 18.562 5.581 18.562C 5.85129 18.562 6.2072 18.5281 6.64852 18.4603Z"/><path id="path9_fill" fill-rule="evenodd" d="M 0 16L 0 0.353629L 2.2461 0.353629L 2.2461 2.72564C 2.81912 1.61567 3.34841 0.883871 3.8336 0.530242C 4.31898 0.176814 4.85263 0 5.43493 0C 6.27601 0 7.13109 0.285035 8 0.854503L 7.14037 3.31482C 6.53043 2.93182 5.9203 2.74032 5.31017 2.74032C 4.7646 2.74032 4.27506 2.91472 3.84061 3.26312C 3.40596 3.61212 3.09645 4.0957 2.9115 4.71445C 2.63436 5.65746 2.4956 6.68878 2.4956 7.8084L 2.4956 16L 0 16Z"/><path id="path10_fill" fill-rule="evenodd" d="M 11.3343 7.97119C 10.3321 8.35555 8.82921 8.68244 6.82519 8.95128C 5.69021 9.10498 4.88734 9.27797 4.41722 9.47025C 3.9469 9.66253 3.58378 9.94357 3.32831 10.3134C 3.07262 10.6835 2.94489 11.0943 2.94489 11.5459C 2.94489 12.2377 3.2234 12.8144 3.78084 13.2757C 4.33786 13.737 5.1535 13.9674 6.22712 13.9674C 7.29049 13.9674 8.23617 13.749 9.06458 13.3115C 9.89279 12.8746 10.5009 12.2763 10.8896 11.517C 11.1861 10.9311 11.3343 10.0662 11.3343 8.92254L 11.3343 7.97119ZM 11.5645 13.7657C 10.5419 14.5824 9.55773 15.1591 8.61184 15.4954C 7.66616 15.8317 6.65117 16 5.56749 16C 3.77811 16 2.40273 15.5891 1.44176 14.7676C 0.480588 13.9458 0 12.896 0 11.618C 0 10.8683 0.181555 10.1836 0.544457 9.56391C 0.907359 8.94397 1.38292 8.44684 1.97114 8.07193C 2.55874 7.69722 3.22088 7.41402 3.95716 7.22154C 4.4991 7.08712 5.31683 6.95723 6.41119 6.83246C 8.64011 6.58252 10.2812 6.28455 11.3343 5.93877C 11.3444 5.58334 11.3498 5.35741 11.3498 5.26117C 11.3498 4.20414 11.0891 3.45943 10.5675 3.02705C 9.862 2.44096 8.81371 2.14773 7.42346 2.14773C 6.12472 2.14773 5.16606 2.36165 4.54768 2.78911C 3.92889 3.21696 3.47154 3.97348 3.17502 5.05945L 0.475562 4.71347C 0.720987 3.6275 1.12493 2.75073 1.68719 2.08278C 2.24944 1.41502 3.06215 0.900774 4.12594 0.540425C 5.1893 0.180076 6.42124 0 7.82217 0C 9.21263 0 10.3426 0.153704 11.2116 0.461309C 12.0807 0.768915 12.72 1.15564 13.129 1.62147C 13.5377 2.0877 13.8242 2.67634 13.9877 3.3874C 14.0799 3.82942 14.1257 4.62707 14.1257 5.78014L 14.1257 9.23957C 14.1257 11.6518 14.1846 13.1772 14.3023 13.8163C 14.4197 14.4553 14.6524 15.0679 15 15.654L 12.1167 15.654C 11.8304 15.1158 11.6464 14.4864 11.5645 13.7657Z"/><path id="path11_fill" fill-rule="evenodd" d="M 2.2984 7.89093C 2.2984 9.8131 2.68823 11.2338 3.46867 12.1528C 4.24872 13.0719 5.19356 13.5313 6.30261 13.5313C 7.43071 13.5313 8.39654 13.0554 9.20007 12.1036C 10.004 11.1518 10.4058 9.67713 10.4058 7.67987C 10.4058 5.77634 10.0132 4.35118 9.22837 3.40383C 8.44332 2.45686 7.50579 1.98328 6.41542 1.98328C 5.33447 1.98328 4.37789 2.48739 3.54625 3.49524C 2.71422 4.50347 2.2984 5.96876 2.2984 7.89093ZM 0 21L 0 0.337613L 2.31243 0.337613L 2.31243 2.2786C 2.85742 1.51907 3.47326 0.949273 4.15956 0.569602C 4.84547 0.189739 5.67731 0 6.65507 0C 7.93333 0 9.06125 0.328395 10.0392 0.984609C 11.0168 1.64102 11.7545 2.56686 12.2529 3.76252C 12.7509 4.958 13 6.26851 13 7.69385C 13 9.22233 12.7251 10.5983 12.1753 11.8222C 11.6253 13.0457 10.8262 13.9837 9.77835 14.6355C 8.73013 15.2869 7.62801 15.613 6.4718 15.613C 5.62591 15.613 4.86665 15.4348 4.19479 15.0783C 3.52255 14.7221 2.97024 14.2719 2.53805 13.7281L 2.53805 21L 0 21Z"/><path id="path12_fill" fill-rule="evenodd" d="M 11.3092 11.9547L 14 11.9547L 14 13.8214L 11.3092 13.8214L 11.3092 18L 8.83159 18L 8.83159 13.8214L 0 13.8214L 0 12.4739L 8.68506 0L 11.3092 0L 11.3092 11.9547ZM 2.79736 11.9547L 8.83162 11.9547L 8.83162 3.12781L 8.53856 3.62231L 2.79736 11.9547Z"/><path id="path13_fill" fill-rule="evenodd" d="M 80.9413 40.2402C 77.662 40.2573 74.8119 41.0416 72.4253 42.2009C 72.2851 41.9253 72.1449 41.6543 72.0077 41.3892C 71.2878 39.9982 70.6493 38.7644 70.5195 37.8193C 70.4904 37.5969 70.4603 37.3892 70.4314 37.1898L 70.4302 37.1818C 70.2892 36.2086 70.1772 35.4359 70.3478 34.1367C 70.4873 33.0746 70.9575 31.7074 71.2412 30.8826L 71.2426 30.8787L 71.2437 30.8752C 71.3776 30.4858 71.4694 30.2191 71.4638 30.1643C 71.4467 29.9938 71.2578 29.1925 69.3691 29.1754C 67.4805 29.1583 65.8494 29.5334 65.6605 30.0278C 65.4717 30.5223 65.1111 31.6476 64.8707 32.8069C 64.5445 34.5118 61.0934 40.5983 59.119 43.7865C 58.4837 42.5419 57.9343 41.4508 57.8141 40.5813C 57.7853 40.3608 57.7554 40.1547 57.7268 39.9569L 57.7256 39.9485L 57.7249 39.9436C 57.5837 38.9706 57.4717 38.1978 57.6424 36.8987C 57.7819 35.8364 58.2521 34.4692 58.5359 33.6444L 58.5375 33.6399C 58.6718 33.2491 58.764 32.9811 58.7584 32.9263C 58.7413 32.7557 58.5524 31.9545 56.6638 31.9374C 54.7751 31.9203 53.144 32.2954 52.9551 32.7898C 52.874 33.0026 52.7896 33.338 52.6883 33.7408L 52.6877 33.7433L 52.6873 33.7449C 52.5533 34.2783 52.3899 34.9291 52.1653 35.5688C 51.7704 36.6941 47.1862 46.8553 45.9843 49.4808C 45.3662 50.8278 44.834 51.9019 44.4562 52.6349C 44.4562 52.6349 44.4391 52.686 44.3876 52.7714C 44.0613 53.4021 43.8725 53.7432 43.8725 53.7432L 43.8725 53.7601C 43.6149 54.2205 43.3402 54.6467 43.2029 54.6467C 43.0999 54.6467 42.911 53.4192 43.2372 51.7484C 43.6949 49.3966 44.5719 46.1742 45.101 44.2302L 45.1025 44.2246C 45.3666 43.2546 45.5436 42.6042 45.5379 42.5419C 45.5379 42.532 45.5408 42.5143 45.5447 42.4897C 45.5818 42.2599 45.7147 41.4373 44.4734 40.9905C 43.4022 40.595 42.8802 41.0393 42.6527 41.233C 42.5958 41.2816 42.5573 41.3143 42.5333 41.3143C 42.4131 41.3143 42.3272 41.6042 42.3272 41.6042C 42.3272 41.6042 43.821 35.4324 39.4771 35.4324C 36.7643 35.4324 33.0214 38.382 31.1671 41.0416C 29.9996 41.6724 27.51 43.0193 24.8487 44.4684C 23.9755 44.9534 23.0768 45.4384 22.2186 45.9015L 21.8097 46.1222C 21.7787 46.0916 21.7479 46.0573 21.7169 46.0227L 21.7137 46.0193L 21.7095 46.0145L 21.7067 46.0114L 21.7039 46.0083C 21.6705 45.9709 21.6371 45.9337 21.6037 45.9005C 19.9802 44.1777 17.9303 42.6112 15.8848 41.0481C 11.3111 37.5529 6.75928 34.0743 7.04401 28.9026C 7.19849 26.1748 8.14282 19.0142 25.7072 10.3192C 40.1639 3.24377 51.6674 5.20447 53.6591 9.552C 56.5092 15.7578 47.4952 27.283 32.5578 28.9537C 26.8575 29.5846 23.8701 27.4023 23.1146 26.584C 22.3248 25.7316 22.2046 25.6804 21.9127 25.8508C 21.4413 26.1016 21.7293 26.8441 21.9025 27.2909L 21.9127 27.3171C 22.3591 28.4764 24.1963 30.5223 27.304 31.5282C 30.0511 32.4148 36.73 32.9092 44.8168 29.8063C 53.8651 26.3282 60.939 16.6614 58.8615 8.56311C 56.7839 0.345459 43.0483 -2.36536 30.0511 2.22083C 22.3248 4.94873 13.9461 9.24512 7.91962 14.8372C 0.759949 21.4863 -0.37323 27.266 0.090332 29.6869C 1.32971 36.0814 8.255 40.8141 13.6844 44.5245L 13.6858 44.5255L 13.6871 44.5265L 13.6895 44.5281C 15.5539 45.8022 17.2416 46.9557 18.4617 48.0146C 18.2629 48.1274 18.0759 48.2286 17.9103 48.3181L 17.9078 48.3195L 17.9033 48.3219L 17.8093 48.3727C 15.4227 49.5491 6.32288 54.2716 4.05652 59.267C 1.48108 64.9272 4.46857 68.985 6.44305 69.5305C 12.5726 71.2184 18.8737 68.1837 22.2561 63.1713C 25.6385 58.1588 25.2264 51.6461 23.664 48.6625C 23.6469 48.6284 23.6297 48.5944 23.5953 48.5602C 23.898 48.3848 24.2047 48.2054 24.5116 48.026L 24.5311 48.0146L 24.5505 48.0033C 24.8574 47.8239 25.1641 47.6445 25.4668 47.4691C 26.6859 46.7531 27.8877 46.0881 28.9179 45.5425C 28.3341 47.1281 27.9049 49.0205 27.6989 51.7484C 27.4413 54.9536 28.7634 59.1135 30.4975 60.7502C 31.2701 61.4663 32.1801 61.4834 32.7639 61.4834C 34.7899 61.4834 35.6998 59.8126 36.7128 57.8348C 37.949 55.4139 39.0651 52.6008 39.0651 52.6008C 39.0651 52.6008 37.6743 60.2047 41.4516 60.2047C 42.8251 60.2047 44.2159 58.4316 44.834 57.528L 44.834 57.545C 44.834 57.545 44.8683 57.4939 44.937 57.3745C 45.0743 57.153 45.1602 57.0165 45.1602 57.0165L 45.1602 56.9824C 45.7096 56.0277 46.9458 53.8624 48.783 50.2651C 51.1523 45.6278 53.4359 39.8311 53.4359 39.8311C 53.4359 39.8311 53.6419 41.2462 54.3459 43.5989C 54.6431 44.5948 55.1724 45.6617 55.702 46.7291L 55.7025 46.7301C 55.9072 47.1426 56.1118 47.5551 56.3032 47.9635C 55.7538 48.7307 55.4103 49.157 55.4103 49.157L 55.4276 49.174L 55.3325 49.2975C 54.913 49.8427 54.4628 50.4277 53.9681 50.9982C 53.6302 51.3984 53.2804 51.8093 52.9323 52.2181L 52.9311 52.2196L 52.9298 52.2211C 51.3515 54.0752 49.8087 55.8876 49.5556 56.488C 49.195 57.3575 49.2809 57.9883 49.9677 58.4998C 50.4656 58.8749 51.3584 58.926 52.2684 58.8749C 53.951 58.7555 55.1357 58.3463 55.7194 58.0906C 56.6294 57.7667 57.6939 57.2722 58.6898 56.5392C 60.5269 55.1923 61.6429 53.2657 61.5399 50.7255C 61.4883 49.3274 61.0248 47.9294 60.4582 46.6166C 60.5422 46.4999 60.622 46.3831 60.7018 46.2664L 60.7031 46.2645L 60.7043 46.2627L 60.7078 46.2577C 60.7891 46.1387 60.8705 46.0197 60.9561 45.9005C 63.8577 41.6895 66.1069 37.0691 66.1069 37.0691C 66.1069 37.0691 66.313 38.4843 67.0169 40.837C 67.2978 41.8131 67.8198 42.8575 68.3387 43.8958L 68.3392 43.8967L 68.3481 43.9144C 68.4606 44.1395 68.5728 44.3641 68.6824 44.5878C 65.9524 46.7871 64.2698 49.3445 63.6689 51.0153C 62.5872 54.1182 63.4285 55.5162 65.0253 55.8401C 65.7464 55.9935 66.7766 55.6526 67.532 55.3287C 68.4935 55.0219 69.6267 54.4933 70.7084 53.709C 72.5455 52.3622 74.314 50.4867 74.2109 47.9464C 74.1594 46.7871 73.8503 45.6448 73.4211 44.5366C 75.739 43.5819 78.7265 43.0533 82.5381 43.4966C 90.7108 44.4514 92.3247 49.5149 92.0157 51.6461C 91.7066 53.7772 89.9897 54.9365 89.4231 55.2946C 88.8565 55.6526 88.6676 55.772 88.7191 56.0277C 88.7878 56.4027 89.0625 56.3857 89.5433 56.3175C 90.2129 56.1981 93.8356 54.5956 93.9902 50.6743C 94.2477 45.6619 89.4402 40.1891 80.9413 40.2402ZM 17.8951 61.3469C 15.1823 64.2794 11.405 65.3876 9.77393 64.4498C 8.02264 63.444 8.70941 59.1135 12.0403 56.0106C 14.0663 54.1182 16.676 52.3621 18.4102 51.288C 18.574 51.189 18.7704 51.0723 18.9945 50.9392L 19.019 50.9246C 19.3295 50.7402 19.6916 50.525 20.0928 50.2821C 20.213 50.2139 20.2816 50.1798 20.2816 50.1798L 20.6937 49.9241C 21.9127 54.3568 20.7452 58.2611 17.8951 61.3469ZM 37.0515 49.5093L 37.0556 49.4985L 37.0573 49.4943C 37.2767 48.9264 37.4742 48.4156 37.64 48.0146C 38.2237 46.5825 40.5244 40.2404 40.0265 39.3708C 39.6316 38.7059 38.0005 39.2515 36.5239 40.8882C 35.614 41.9111 34.0515 44.5366 33.3132 46.736C 31.8538 51.1176 32.4891 55.5504 33.5193 55.8231C 34.5083 56.0897 36.0206 52.1766 37.0515 49.5093ZM 53.9338 55.7549C 53.5389 55.9595 53.1612 56.0958 52.9895 55.9935C 52.8693 55.9254 53.1612 55.6526 53.1612 55.6526C 53.1612 55.6526 55.2043 53.4703 56.0113 52.4814L 56.1574 52.299L 56.1613 52.2942C 56.5915 51.7566 57.086 51.1387 57.6081 50.4526L 57.6081 50.6743C 57.6081 53.2828 55.067 55.0388 53.9338 55.7549ZM 67.2402 49.89C 66.2615 52.0211 66.21 52.7031 66.5019 52.9077C 67.9269 52.3962 70.2963 51.1687 70.3135 47.8782C 70.3307 47.3838 70.2104 46.8552 70.0388 46.3097C 68.5107 47.6566 67.6179 49.0546 67.2402 49.89Z"/><path id="path14_fill" d="M 1.37904 6.96339C 1.37904 6.96339 2.33763 10.7102 2.48899 11.9648C 2.62353 13.2194 0 15.9998 0 17.39C 0 18.7802 0.554978 21.2724 3.58213 22.527C 6.60928 23.7816 7.02972 26.9689 7.02972 28.9186C 7.02972 30.8683 5.91977 34.6151 5.91977 34.6151C 5.91977 34.6151 5.23025 43.9227 8.94692 45.5842C 12.6636 47.2457 11.8395 47.2457 12.6636 47.2457C 13.4876 47.2457 19.5588 49.7549 23.1409 48.7715C 26.723 47.8052 27.6816 46.6862 27.6816 46.6862C 27.6816 46.6862 31.2638 46.9575 32.3737 43.7702C 33.4837 40.5828 34.1732 33.903 33.7528 30.8513C 33.3323 27.7996 32.7942 23.7646 35.2663 22.3744C 37.7553 20.9842 40.362 19.3227 39.9584 17.9325C 39.538 16.5423 37.3349 14.5926 37.3349 14.5926C 37.3349 14.5926 36.7799 11.1171 37.2003 10.2863C 37.6208 9.4556 40.093 7.37028 38.7139 5.84443C 37.3349 4.31859 34.8627 4.31859 34.8627 4.31859L 31.701 4.58985C 31.701 4.58985 26.3194 -0.275899 19.2897 0.0123164C 12.26 0.283578 7.85378 4.58985 7.85378 4.58985C 7.85378 4.58985 5.51614 3.75911 3.44759 4.58985C 1.37904 5.43754 0.958598 4.6068 1.37904 6.96339Z"/><path id="path15_fill" fill-rule="evenodd" d="M 4.73206 3.44177C 5.1825 2.31189 6 0.191162 6 0.191162L 4.73206 0C 4.73206 0 3.34729 0.451904 3.34729 1.56445C 3.34729 4.22388 2.3963 5.26685 2.3963 5.26685C 2.3963 5.26685 4.24817 4.65845 4.73206 3.44177ZM 0.0272217 16.4958C 2.01257 13.4365 4.71533 9.12573 4.71533 9.12573L 2.01257 17C 2.01257 17 -0.273132 16.9652 0.0272217 16.4958Z"/><path id="path16_fill" fill-rule="evenodd" d="M 4.79132 1.02258C 2.88147 -0.44043 0 0.0960693 0 0.0960693C 1.43439 0.402466 1.54565 1.03992 1.76288 2.28406C 1.82214 2.62378 1.8894 3.00879 1.99359 3.4447C 2.47943 5.46045 4.03741 6.15942 4.03741 6.15942L 7.27075 3.65601C 7.27075 3.65601 6.7179 2.50183 4.79132 1.02258ZM 6.9859 21.6674C 10.1019 22.7566 11.7772 20.8221 11.7772 20.8221C 12.5646 19.5054 11.0736 17.6198 10.2694 17.1646C 9.46533 16.7094 3.55157 14.5311 3.55157 15.6202C 3.55157 16.7094 3.86987 20.5782 6.9859 21.6674Z"/><path id="path17_fill" fill-rule="evenodd" d="M 12.8814 0C 10.7458 1.08472 7.79669 2.61023 7.79669 2.61023L 8.94922 3.1864C 8.83057 3.37292 8.77972 3.47461 8.77972 3.47461L 9.96619 4.01697C 9.96619 4.01697 12.8644 6.11865 14.6272 7.45764C 14.0339 5.64404 12.3051 2.77966 12.3051 2.77966C 12.3051 2.77966 11.8306 1.45764 12.8814 0ZM 8.98309 9.91528C 10.6271 10.0339 12.6949 10.8136 13.9492 12.5933C 14.0764 12.7736 14.202 12.9705 14.3296 13.1705L 14.3313 13.1732C 14.6111 13.6115 14.9003 14.0645 15.2373 14.3899C 16.017 15.1187 16.7627 15.4576 17.4237 15.4237C 16.8474 16.1356 13.2373 15.8813 10.7628 12.6271C 9.44073 10.8983 4.83057 10.6949 4.83057 10.6949C 4.83057 10.6949 6.16956 9.69495 8.98309 9.91528ZM 2.0509 15.356C 1.06787 17.1356 6.18652 18.8983 6.18652 18.8983C 8.32208 19.678 8.47461 22.2543 8.54242 24.1526C 8.72888 30.339 6.10175 31.678 5.94922 31.6272C 5.93195 31.6215 5.96301 31.4264 6.01678 31.0887C 6.27991 29.4354 7.08734 24.3621 5.44073 21.3221C 1.32214 19.3899 0.559387 18.3899 0.118713 17C -0.610046 14.7289 2.25433 12.6102 2.25433 12.6102C 2.25433 12.6102 3.01703 13.5763 2.0509 15.356ZM 11.1865 41.0339C 11.1865 41.0339 13.4068 44.3729 20 44.3729L 20 48C 16.7627 48 12.6102 44.6272 12.2203 43.5424L 11.1865 41.0339Z"/><path id="path18_fill" fill-rule="evenodd" d="M 2.64404 5.48328C 2.2218 8.41663 0.796753 8.90002 0.796753 8.90002C 0.771851 8.87646 0.744141 8.85107 0.714417 8.82373C 0.344666 8.48462 -0.338806 7.85767 0.198547 6.91663C 0.535645 6.33423 0.81134 6.00598 1.07904 5.68726C 1.28632 5.44031 1.48889 5.1991 1.71155 4.84998C 2.2218 4.05005 2.13379 0 2.13379 0C 2.13379 0 3.06622 2.53333 2.64404 5.48328ZM 6.88397 24.85C 7.11267 24.2667 7.88678 21.9 8.15063 19.7667C 8.44977 17.2001 8.34418 13.4333 8.34418 13.4333C 8.34418 13.4333 7.67566 15.9 7.07745 16.3C 6.49689 16.7001 5.40613 19.4 5.40613 19.4C 5.40613 19.4 4.82556 23.4333 4.54407 24.7833C 4.85327 24.8378 5.14484 24.7976 5.44525 24.7561L 5.44647 24.756C 5.88062 24.6959 6.33319 24.6334 6.88397 24.85ZM 11.0711 30.35C 11.0711 30.35 11.7045 34 14.2202 34C 16.3666 34 17 30.9166 17 30.2833L 11.0711 30.35Z"/><path id="path19_fill" d="M 1 0.5L 0.50967 0C -0.874793 0.05 1 0.5 1 0.5Z"/><path id="path20_fill" d="M 13.2642 3.6597C 13.2642 3.6597 11.9668 3.46393 11.301 2.60554C 10.6523 1.74714 8.80863 0.0152965 5.85535 0.000236948C 2.91914 -0.0148226 0 0.692975 0 0.692975L 2.54358 2.10857C 2.81671 2.09351 3.27763 2.10857 4.06289 2.12363C 7.25517 2.21399 7.75022 5 7.75022 5L 19 3.62958"/><path id="path21_fill" d="M 8 4.85816C 8 4.85816 6.42719 6.40237 4.00611 5.8992C 1.58504 5.39603 0.118258 4.355 0.012226 2.53319C -0.0938064 0.711374 0.524716 0 0.524716 0C 0.524716 0 3.22854 0.832828 4.5186 1.92592C 5.79099 3.03635 6.74528 4.80611 8 4.85816Z"/><path id="path22_fill" d="M 5.39967 2.96597C 5.39967 2.96597 3.99939 3.66738 2.41725 3.10625C 0.362283 2.34472 0.216799 0 0.216799 0C 0.216799 0 -1.038 4.08822 2.48999 4.86979C 5.32693 5.49104 7 3.68742 7 3.68742L 5.39967 2.96597Z"/><path id="path23_fill" fill-rule="evenodd" d="M 14.6821 6.79028C 14.5452 3.8634 16.995 1.5387 17.8345 1.43835C 17.8431 1.52222 17.8474 1.64563 17.8525 1.79602L 17.8527 1.79871C 17.8784 2.54871 17.927 3.96179 18.6396 4.44873C 18.8795 2.87671 19.719 1.13733 23.0254 0C 22.323 1.823 22.9226 3.36169 23.2311 4.08081C 25.4924 2.09058 27 2.40833 27 2.40833C 27 2.40833 25.441 5.0509 26.0406 6.77356C 23.7186 6.61035 20.7915 6.74255 18.4902 6.84656C 16.3092 6.94507 14.6906 7.01819 14.6821 6.79028ZM 5.0882 11.239C 4.36365 10.6552 4.4884 10.0939 4.62274 9.4895C 4.68854 9.1936 4.75659 8.88733 4.72845 8.56299L 4.71826 8.45593C 4.67169 7.96362 4.63013 7.5238 4.45428 7.25854C 3.54956 5.85754 1.52277 5.35767 1.15436 5.26685C 1.11816 5.25793 1.09796 5.25293 1.09644 5.25146L 0 5.03406L 0.736694 4.19788C 0.839478 4.09753 3.82043 1.30444 8.44604 2.75952C 11.684 3.77979 14.0825 7.24182 14.1681 7.37561L 12.5406 8.12817C 12.5235 8.09473 10.6218 4.8501 7.84644 3.98047C 5.60217 3.27795 3.52917 3.94702 2.63831 4.38184C 3.58057 4.74976 4.81409 5.41882 5.55078 6.55603C 5.89337 7.09119 5.96191 7.77698 6.01331 8.4292C 6.08185 9.29895 6.15039 10.1184 6.81854 10.6536L 5.0882 11.239ZM 3.95746 19.1499C 3.54633 22.361 2.19287 24 2.19287 24C 2.44983 23.5317 2.86102 19.1499 2.86102 19.1499C 2.86102 19.1499 3.47778 16.7916 3.39209 14.4335C 3.83752 15.4036 4.11163 17.8955 3.95746 19.1499Z"/><path id="path24_fill" fill-rule="evenodd" d="M 4.00952 1.75171C 5.19568 2.71655 5.61334 4.59521 5.61334 4.59521L 7 4.03662L 6.99878 4.0304C 6.96069 3.83594 6.69159 2.46228 4.56085 0.956299C 2.42242 -0.567017 0.10022 0.177734 0 0.211548L 0.30072 1.12549C 0.301575 1.12549 0.307373 1.12378 0.317932 1.12048C 0.51947 1.05981 2.43799 0.481201 4.00952 1.75171ZM 2.22192 15.8843C 2.08832 16.9845 2.78998 18 2.78998 18C 3.00714 15.4442 4.1933 15.1735 4.1933 15.1735C 4.1933 15.1735 3.82574 14.2087 2.99042 14.5811C 2.53937 14.7672 2.28876 15.3428 2.22192 15.8843Z"/><path id="path25_fill" d="M 6.90914 5.09861C 6.94122 5.14827 6.95727 5.18138 6.95727 5.18138C 6.95727 5.18138 4.8718 6.80367 2.7382 5.16483C 1.59922 4.28747 1.69547 2.1189 2.04839 1.19188C 2.96279 1.40708 3.73281 1.78782 4.37449 2.23478C 3.55635 1.48985 2.8505 0.92702 2.8505 0.910466L 1.92006 0.645603L 0.123346 0C 0.107304 0.148985 -0.550421 3.32734 1.34254 5.49591C 2.17673 6.45603 6.12308 8.60804 8 4.93307L 6.90914 5.09861Z"/><path id="path26_fill" d="M 8.72769 6.00415C 9.95057 7.91698 13.0497 6.83132 12.9994 4.79786C 12.9994 4.79786 10.9389 5.96968 9.11298 3.8156C 8.04086 2.55761 4.64025 -0.9234 0 0.231192C 3.18284 0.954966 7.42105 3.95346 8.72769 6.00415Z"/><path id="path27_fill" d="M 5.48832 19.8757C 5.79898 20.044 6.86904 21.1211 6.86904 22.7535C 6.86904 23.5613 6.78274 27.6341 6.36853 30.1249C 6.98985 30.5119 7.42132 30.5961 8.04264 31C 8.3533 28.1222 8.57767 23.9316 8.47411 22.2486C 8.3533 20.3301 7.30051 19.0342 6.31675 18.4788C 6.00609 18.3105 5.69543 18.1422 5.36751 17.9739C 3.6934 17.082 1.95025 16.1732 1.95025 14.608C 1.95025 13.3795 2.4335 13.0092 2.95127 12.6053L 3.00305 12.5548C 3.34822 12.2856 3.72792 11.9826 3.96954 11.4777C 4.59086 10.0977 4.69442 6.61401 3.96954 5.72204C 3.60711 5.28447 2.64061 3.78664 2.91675 2.7937C 3.0203 2.40662 3.26193 2.13735 3.67614 1.9354C 4.10761 1.71661 4.67716 1.61564 5.38477 1.61564C 6.76548 1.61564 8.30152 2.01954 9.09543 2.27199C 11.9259 3.16395 15.3431 5.68838 16.3269 6.42888C 16.3614 6.44571 16.3787 6.46254 16.3787 6.46254L 17 6.88328L 16.603 6.24376C 16.5858 6.2101 14.1005 2.2215 9.64772 0.757329C 8.78477 0.471227 7.0934 0 5.41929 0C 4.41827 0 3.58985 0.168295 2.91675 0.504886C 2.10558 0.908795 1.5533 1.56515 1.32893 2.37296C 0.77665 4.37568 2.58883 6.61401 2.65787 6.68132C 2.86497 7.05157 2.96853 9.7443 2.46802 10.8214C 2.39898 10.9729 2.20914 11.1243 1.98477 11.3094C 1.91574 11.3599 1.82944 11.4273 1.74315 11.4946C 1.05279 11.9995 0 12.7736 0 14.5575C 0 16.9978 2.53706 18.3105 4.55634 19.3708C 4.88426 19.5559 5.21218 19.7242 5.48832 19.8757Z"/><path id="path28_fill" d="M 5.02781 8C 3.96131 7.21813 4.75695 6.48137 4.67231 5.59425C 4.62152 5.11309 4.58767 4.67705 4.40145 4.42144C 3.41959 3.03813 1.10036 2.63216 1.08343 2.61712L 0 2.42166L 0.727932 1.66986C 0.829504 1.57964 3.77509 -0.931363 8.34583 0.376766C 11.5453 1.29396 13.9154 4.4064 14 4.52669L 12.3918 5.20331C 12.3748 5.17324 10.4958 2.25626 7.75333 1.47439C 5.53567 0.842881 3.4873 1.44432 2.60701 1.83525C 3.53809 2.16605 4.75695 2.76748 5.48489 3.78993C 5.82346 4.27108 5.89117 4.88756 5.94196 5.47396C 6.00967 6.25583 6.07739 6.99259 6.73761 7.47374L 5.02781 8Z"/><path id="path29_fill" d="M 5.45455 9L 5.38462 8.951C 4.56294 8.31397 4.72028 7.69328 4.86014 7.08893C 4.93007 6.81125 5 6.51724 4.96503 6.22323C 4.91259 5.73321 4.87762 5.25953 4.72028 5.01452C 3.75874 3.59347 1.41608 3.13612 1.3986 3.13612L 0 2.87477L 0.926573 1.86207C 0.926573 1.84574 2.88462 0 6.20629 0C 7.11538 0 8.04196 0.147005 8.96853 0.424682C 12.4126 1.47005 14.8776 4.96552 14.8951 4.99819L 15 5.14519L 13.0245 5.99456L 12.9545 5.88022C 12.7448 5.5372 10.8916 2.67877 8.25175 1.89474C 7.6049 1.69873 6.92308 1.60073 6.22378 1.60073C 4.96503 1.60073 3.95105 1.9274 3.39161 2.13975C 4.3007 2.51543 5.4021 3.16878 6.1014 4.19782C 6.48601 4.75318 6.53846 5.4392 6.60839 6.10889C 6.67832 6.92559 6.74825 7.70962 7.36014 8.1833L 7.58741 8.36298L 5.45455 9Z"/><path id="path30_fill" d="M 5.61337 5C 5.61337 5 5.1957 2.9558 4.00955 1.90608C 2.35561 0.451197 0.317422 1.22468 0.300716 1.22468L 0 0.230203C 0.100239 0.19337 2.42243 -0.616943 4.56086 1.04052C 6.71599 2.69797 6.96659 4.2081 7 4.39227L 5.61337 5Z"/><path id="path31_fill" fill-rule="evenodd" d="M 6.3681 5.01196L 6.33075 4.82446C 6.33075 4.80737 5.86389 2.98328 4.59399 2.06274C 3.88434 1.5343 3.00665 1.27856 2.01685 1.27856C 1.25122 1.27856 0.672302 1.44897 0.616272 1.46606L 0.448181 1.51721L 0 0.272705L 0.168091 0.221558C 0.172791 0.220581 0.179871 0.21875 0.189209 0.216309L 0.197815 0.214111L 0.200073 0.213501L 0.202881 0.212769C 0.369202 0.169434 1.02094 0 1.90485 0C 3.19336 0 4.40723 0.340942 5.41571 0.98877C 7.88074 2.5741 8.17957 4.02319 8.19824 4.1936L 8.21692 4.31299L 6.3681 5.01196ZM 2.01685 0.95459C 3.0813 0.95459 4.03375 1.24438 4.81805 1.80701C 5.93854 2.62524 6.46143 4.05725 6.62952 4.5686L 7.84338 4.12537C 7.73132 3.73328 7.24579 2.55701 5.22894 1.26147C 4.25781 0.647705 3.13733 0.323853 1.90479 0.323853C 1.23254 0.323853 0.709656 0.426147 0.448181 0.477295L 0.672302 1.09094C 0.933716 1.03979 1.41925 0.95459 2.01685 0.95459ZM 11.5597 44.9369C 11.9332 45.2438 12.4747 45.4142 12.9977 45.4142C 13.5392 45.4142 14.0248 45.2267 14.3422 44.9028C 15.2573 43.9993 15.7988 43.0276 15.9296 42.7378C 16.0043 42.5673 16.079 42.2434 15.8175 41.9877C 15.6121 41.8002 15.2386 41.6979 14.7344 41.6979L 11.1488 41.6979C 10.4766 41.6979 10.1591 41.8684 9.99103 42.0217C 9.74823 42.2434 9.71088 42.5332 9.87897 42.9082C 10.3085 43.897 11.2795 44.7152 11.5597 44.9369ZM 13.5579 20.2012L 11.6531 20.0818C 11.6531 20.0818 12.1387 20.866 12.4561 21.8717C 12.8109 23.0139 12.1387 24.6846 12.1387 24.6846C 12.1387 24.6846 14.6597 22.0763 13.5579 20.2012ZM 2.03552 42.4651C 2.03552 43.6925 4.4259 49.5227 11.1862 50L 11.3356 48.3805C 5.62109 47.9884 3.80963 42.9935 3.80963 42.4651L 2.93188 42.4651L 2.03552 42.4651Z"/><path id="path32_fill" d="M 10.9506 8.96966C 10.8519 8.40369 10.8519 7.87203 10.9671 7.35752C 10.5062 6.99736 9.69963 6.87731 9.0906 6.6715C 8.59679 6.34565 6.04543 7.01451 4.18541 4.66491C 1.8645 1.73219 2.35831 0 2.35831 0C 1.76574 0.686016 1.18963 0.42876 0.284308 3.63588C -0.621012 6.84301 0.712277 9.08971 3.19779 11.3364C 4.36648 12.3997 6.02897 12.8285 7.46102 13C 6.98367 12.5026 8.28404 12.4512 9.1729 12.1082C 9.10706 11.3536 9.22228 10.6332 9.76547 10.033C 10.0947 9.67282 10.5062 9.46702 10.9342 9.29551C 10.9506 9.24406 10.9835 9.17546 11 9.12401C 10.9671 9.07256 10.9506 9.02111 10.9506 8.96966Z"/><path id="path33_fill" d="M 8.86703 9.88171C 8.81717 9.73117 8.76731 9.56391 8.73406 9.41337C 8.6842 9.2461 8.48475 8.7443 8.73406 9.31301C 8.66758 9.16247 8.61772 9.02865 8.6011 8.87811C 4.52895 8.87811 0.988672 6.06803 1.67013 0.146785C 1.13826 -0.572462 0.390316 1.58528 0.390316 1.58528C 0.390316 1.58528 -1.65407 7.53998 3.61479 9.84826C 5.36 10.6177 6.92237 11.1697 7.28804 10.9522C 8.0526 11.1028 8.73406 10.5675 9 10.2162C 8.95014 10.0992 8.90027 9.9988 8.86703 9.88171Z"/><path id="path34_fill" d="M 10.6175 8.31615C 10.6175 7.80069 10.7132 7.30241 10.9522 6.80412L 11 6.70103C 9.50206 6.68385 7.76509 6.52921 6.29902 5.89347C 4.6736 5.189 2.64979 2.80069 2.31514 0C 2.31514 0 -0.72854 2.54296 0.163849 7.95533C 1.00843 13.0584 4.96044 14.7079 9.47019 15C 9.47019 14.9656 8.96025 13.8316 9.11961 13.1443C 6.55399 13.3505 3.70153 12.2852 2.31514 9.82818C 1.05624 7.57732 1.40682 3.7457 1.91676 3.19588C 3.1916 7.50859 7.76509 8.38488 10.6175 8.31615Z"/><path id="path35_fill" d="M 2.3628 6.61947C 1.58537 9.03687 0 11 0 11C 0 11 2.17988 10.8864 2.30183 10.4808C 2.39329 10.1726 4.26829 5.48378 5 0C 4.31402 1.20059 2.42378 6.40855 2.3628 6.61947Z"/><path id="path36_fill" fill-rule="evenodd" d="M 1.26794 3.44177C 0.817505 2.31189 0 0.191162 0 0.191162L 1.26794 0C 1.26794 0 2.65271 0.451904 2.65271 1.56445C 2.65271 4.22388 3.60376 5.26685 3.60376 5.26685C 3.60376 5.26685 1.75183 4.65845 1.26794 3.44177ZM 5.97278 16.4958C 3.98743 13.4365 1.28467 9.12573 1.28467 9.12573L 3.98743 17C 3.98743 17 6.27307 16.9652 5.97278 16.4958Z"/><path id="path37_fill" fill-rule="evenodd" d="M 7.21057 1.02258C 9.11963 -0.44043 12 0.0960693 12 0.0960693C 10.5468 0.403809 10.438 1.04541 10.2267 2.29236C 10.17 2.62598 10.1062 3.00293 10.0072 3.42847C 9.52161 5.44421 7.96423 6.14319 7.96423 6.14319L 4.73218 3.65601C 4.73218 3.65601 5.28479 2.50183 7.21057 1.02258ZM 5.01685 21.6674C 1.9021 22.7566 0.227539 20.8221 0.227539 20.8221C -0.576294 19.5054 0.947632 17.636 1.73462 17.1646C 2.53845 16.7094 8.44983 14.5311 8.44983 15.6202C 8.44983 16.7094 8.13159 20.5782 5.01685 21.6674Z"/><path id="path38_fill" fill-rule="evenodd" d="M 7.12439 0C 9.26172 1.08472 12.2133 2.61023 12.2133 2.61023L 11.0598 3.1864C 11.1785 3.37292 11.2294 3.47461 11.2294 3.47461L 10.042 4.01697C 10.042 4.01697 7.14136 6.11865 5.36023 7.45764C 5.95398 5.64404 7.6842 2.77966 7.6842 2.77966C 7.6842 2.77966 8.17603 1.45764 7.12439 0ZM 11.0089 9.91528C 9.36353 10.0339 7.29407 10.8136 6.03882 12.5933C 5.93701 12.7435 5.83411 12.9054 5.72888 13.0709C 5.43054 13.5402 5.11328 14.0391 4.74963 14.3899C 3.96936 15.1187 3.2229 15.4576 2.5614 15.4237C 3.13818 16.1356 6.75122 15.8813 9.22778 12.6271C 10.5509 10.8983 15.1649 10.6949 15.1649 10.6949C 15.1649 10.6949 13.8248 9.69495 11.0089 9.91528ZM 17.9637 15.356C 18.9476 17.1356 13.8248 18.8983 13.8248 18.8983C 11.6875 19.678 11.5348 22.2543 11.4501 24.1526C 11.2634 30.339 13.8927 31.678 14.0454 31.6272C 14.0626 31.6215 14.0316 31.4265 13.9778 31.089C 13.7145 29.4362 12.9061 24.3623 14.5542 21.3221C 18.6763 19.3899 19.4396 18.3899 19.8806 17C 20.61 14.7458 17.7603 12.6102 17.7603 12.6102C 17.7603 12.6102 16.9969 13.5763 17.9637 15.356ZM 8.82068 41.0339C 8.82068 41.0339 6.59863 44.3729 0 44.3729L 0 48C 3.23987 48 7.39587 44.6272 7.78601 43.5424L 8.82068 41.0339Z"/><path id="path39_fill" fill-rule="evenodd" d="M 14.3649 5.48328C 14.7869 8.41663 16.2111 8.90002 16.2111 8.90002C 16.2339 8.87842 16.259 8.8551 16.2859 8.83032C 16.6517 8.4928 17.3331 7.86377 16.8088 6.91663C 16.4719 6.33423 16.1964 6.00598 15.9288 5.68713C 15.7217 5.44031 15.5193 5.1991 15.2968 4.84998C 14.7869 4.05005 14.8748 0 14.8748 0C 14.8748 0 13.943 2.53333 14.3649 5.48328ZM 10.1276 24.85C 9.89905 24.2667 9.12537 21.9 8.86157 19.7667C 8.56274 17.2001 8.66821 13.4333 8.66821 13.4333C 8.66821 13.4333 9.3363 15.9 9.9342 16.3C 10.5144 16.7001 11.6045 19.4 11.6045 19.4C 11.6045 19.4 12.1847 23.4333 12.4661 24.7833C 12.157 24.8378 11.8656 24.7976 11.5654 24.7561L 11.5642 24.756C 11.1304 24.6959 10.678 24.6334 10.1276 24.85ZM 5.92529 30.35C 5.92529 30.35 5.29236 34 2.77808 34C 0.632935 34 0 30.9166 0 30.2833L 5.92529 30.35Z"/><path id="path40_fill" d="M 0 0.5L 0.49033 0C 1.87479 0.05 0 0.5 0 0.5Z"/><path id="path41_fill" d="M 5.73585 3.6597C 5.73585 3.6597 7.03324 3.46393 7.69901 2.60554C 8.34771 1.74714 10.1914 0.0152965 13.1447 0.000236948C 16.0809 -0.0148226 19 0.692975 19 0.692975L 16.4564 2.10857C 16.1833 2.09351 15.7224 2.10857 14.9371 2.12363C 11.7448 2.21399 11.2498 5 11.2498 5L 0 3.62958"/><path id="path42_fill" d="M 0 4.85816C 0 4.85816 1.57281 6.40237 3.99389 5.8992C 6.41496 5.39603 7.88174 4.355 7.98777 2.53319C 8.09381 0.711374 7.47528 0 7.47528 0C 7.47528 0 4.77146 0.832828 3.4814 1.92592C 2.19134 3.019 1.23704 4.80611 0 4.85816Z"/><path id="path43_fill" d="M 1.60033 2.96597C 1.60033 2.96597 3.00061 3.66738 4.58275 3.10625C 6.63772 2.34472 6.7832 0 6.7832 0C 6.7832 0 8.038 4.08822 4.51001 4.86979C 1.67307 5.49104 0 3.68742 0 3.68742L 1.60033 2.96597Z"/><path id="path44_fill" fill-rule="evenodd" d="M 9.43213 6.9314C 9.56494 7.51733 9.68823 8.06152 8.97217 8.62756L 7.26245 8.06006C 7.90564 7.54114 7.99036 6.74658 8.05798 5.90332C 8.10889 5.271 8.17651 4.60608 8.51514 4.08728C 9.24304 2.98462 10.4619 2.33594 11.3929 1.97925C 10.5127 1.55762 8.46436 0.909058 6.2467 1.59009C 3.50427 2.43323 1.62512 5.5791 1.60828 5.61145L 0 4.88184C 0.0845947 4.75208 2.45471 1.39551 5.65417 0.406372C 10.2249 -1.00439 13.1705 1.70361 13.2721 1.8009L 14 2.61157L 12.9166 2.82239C 12.9152 2.82385 12.8951 2.82874 12.8593 2.8374C 12.4951 2.92554 10.4926 3.41003 9.59851 4.76831C 9.42468 5.02563 9.38354 5.45264 9.33752 5.93042L 9.32764 6.03308C 9.2998 6.34753 9.36707 6.64441 9.43213 6.9314ZM 10.0725 16.2975C 10.4789 19.4109 11.8162 21 11.8162 21C 11.5792 20.546 11.156 16.2975 11.156 16.2975C 11.156 16.2975 10.5465 14.0111 10.6312 11.7247C 10.191 12.6653 9.92017 15.0813 10.0725 16.2975Z"/><path id="path45_fill" fill-rule="evenodd" d="M 2.99048 1.75171C 1.80432 2.71655 1.3866 4.59521 1.3866 4.59521L 0 4.03662L 0.0012207 4.03027C 0.0395508 3.83533 0.30896 2.46191 2.43909 0.956299C 4.57751 -0.567017 6.89978 0.177734 7 0.211548L 6.69934 1.12549C 6.69849 1.12549 6.69263 1.12378 6.68213 1.12048C 6.48059 1.05981 4.56201 0.481201 2.99048 1.75171ZM 4.77808 15.8843C 4.91162 16.9845 4.20996 18 4.20996 18C 3.9928 15.4442 2.82336 15.1735 2.82336 15.1735C 2.82336 15.1735 3.19092 14.2087 4.02625 14.5811C 4.46057 14.7672 4.71118 15.3428 4.77808 15.8843Z"/><path id="path46_fill" d="M 1.09086 5.09861C 1.05878 5.14827 1.04273 5.18138 1.04273 5.18138C 1.04273 5.18138 3.1282 6.80367 5.2618 5.16483C 6.40078 4.28747 6.30453 2.1189 5.95161 1.19188C 5.03721 1.40708 4.26719 1.78782 3.62551 2.23478C 4.44365 1.48985 5.1495 0.92702 5.1495 0.910466L 6.07994 0.645603L 7.87665 0C 7.8927 0.148985 8.55042 3.32734 6.65746 5.49591C 5.82327 6.45603 1.87692 8.60804 0 4.93307L 1.09086 5.09861Z"/><path id="path47_fill" d="M 4.27231 6.00415C 3.04943 7.91698 -0.0496514 6.83132 0.000604038 4.79786C 0.000604038 4.79786 2.06108 5.96968 3.88702 3.8156C 4.95914 2.55761 8.3765 -0.9234 13 0.231192C 9.81716 0.954966 5.57895 3.95346 4.27231 6.00415Z"/><path id="path48_fill" d="M 11.4944 19.8757C 11.1838 20.044 10.1137 21.1211 10.1137 22.7535C 10.1137 23.5613 10.2 27.6341 10.6142 30.1249C 9.99289 30.5119 9.56142 30.5961 8.9401 31C 8.62944 28.1222 8.40508 23.9316 8.50863 22.2486C 8.62944 20.3301 9.68223 19.0342 10.666 18.4788C 10.9767 18.3105 11.2873 18.1422 11.6152 17.9739C 13.2893 17.082 15.0325 16.1732 15.0325 14.608C 15.0325 13.3795 14.5492 13.0092 14.0315 12.6053L 13.9797 12.5548C 13.6345 12.2856 13.2548 11.9826 13.0132 11.4777C 12.3919 10.0977 12.2883 6.61401 13.0132 5.72204C 13.3756 5.28447 14.3421 3.78664 14.066 2.7937C 13.9624 2.40662 13.7208 2.13735 13.3066 1.9354C 12.8751 1.71661 12.3056 1.61564 11.598 1.61564C 10.2173 1.61564 8.68122 2.01954 7.88731 2.27199C 5.07411 3.16395 1.65685 5.68838 0.673096 6.42888C 0.638579 6.44571 0.62132 6.46254 0.62132 6.46254L 0 6.88328L 0.396954 6.24376C 0.414213 6.2101 2.89949 2.2215 7.35228 0.757329C 8.21523 0.471227 9.9066 0 11.5807 0C 12.5817 0 13.4102 0.168295 14.0832 0.504886C 14.8944 0.908795 15.4467 1.56515 15.6711 2.37296C 16.2234 4.37568 14.4112 6.61401 14.3421 6.68132C 14.135 7.05157 14.0315 9.7443 14.532 10.8214C 14.601 10.9729 14.7909 11.1243 15.0152 11.3094C 15.0843 11.3599 15.1706 11.4273 15.2569 11.4946C 15.9472 11.9995 17 12.7736 17 14.5575C 17 16.9978 14.4629 18.3105 12.4437 19.3708C 12.0985 19.5559 11.7878 19.7242 11.4944 19.8757Z"/><path id="path49_fill" d="M 25.7945 4.41791C 25.4005 3.8209 24.3729 2.68657 22.0264 1.68657C 19.4058 0.567164 16.357 0 12.9829 0C 9.6087 0 6.57708 0.567164 3.93939 1.68657C 1.59289 2.68657 0.565217 3.8209 0.171278 4.41791L 0 4.61194L 2.02108 5L 2.08959 4.92537L 2.12385 4.86567C 2.1581 4.74627 2.43215 4.1194 4.67589 3.16418C 7.07378 2.14925 9.88274 1.62687 13 1.62687C 16.1173 1.62687 18.9262 2.14925 21.3241 3.16418C 23.5679 4.1194 23.8419 4.74627 23.8762 4.86567L 23.9104 4.92537L 23.9789 5L 26 4.61194L 25.7945 4.41791Z"/><path id="path50_fill" d="M 8.97219 8C 10.0387 7.21813 9.24305 6.48137 9.32769 5.59425C 9.37848 5.11309 9.41233 4.67705 9.59855 4.42144C 10.5804 3.03813 12.8996 2.63216 12.9166 2.61712L 14 2.42166L 13.2721 1.66986C 13.1705 1.57964 10.2249 -0.931363 5.65417 0.376766C 2.45466 1.29396 0.0846433 4.4064 0 4.52669L 1.60822 5.20331C 1.62515 5.17324 3.50423 2.25626 6.24667 1.47439C 8.46433 0.842881 10.5127 1.44432 11.393 1.83525C 10.4619 2.16605 9.24305 2.76748 8.51511 3.78993C 8.17654 4.27108 8.10883 4.88756 8.05804 5.47396C 7.99033 6.25583 7.90568 6.99259 7.26239 7.47374L 8.97219 8Z"/><path id="path51_fill" d="M 7.8603 8.34664L 8.10244 8.16697C 8.75437 7.69328 8.82887 6.90926 8.922 6.09256C 8.97788 5.4392 9.05239 4.75318 9.46216 4.18149C 10.2072 3.15245 11.3807 2.51543 12.3492 2.12341C 11.7718 1.91107 10.6729 1.58439 9.33178 1.58439C 8.58673 1.58439 7.8603 1.6824 7.17113 1.8784C 4.37718 2.67877 2.38417 5.53721 2.16065 5.86388L 2.06752 5.97822L 0 5.14519L 0.111758 4.99819C 0.130384 4.96552 2.75669 1.47005 6.42608 0.424682C 7.41327 0.147005 8.40047 0 9.36903 0C 12.908 0 14.9942 1.84574 15.0128 1.86207L 16 2.87477L 14.5099 3.13612C 14.4913 3.13612 11.9953 3.59347 10.9709 5.01452C 10.8033 5.25953 10.7474 5.71688 10.7101 6.22323C 10.6729 6.51724 10.7474 6.81125 10.8219 7.08893C 10.9709 7.69328 11.1199 8.31397 10.2631 8.951L 10.1886 9L 7.8603 8.34664Z"/><path id="path52_fill" d="M 1.38663 5C 1.38663 5 1.8043 2.9558 2.99045 1.90608C 4.64439 0.451197 6.68258 1.22468 6.69928 1.22468L 7 0.230203C 6.89976 0.19337 4.57757 -0.616943 2.43914 1.04052C 0.284009 2.69797 0.0334129 4.2081 0 4.39227L 1.38663 5Z"/><path id="path53_fill" fill-rule="evenodd" d="M 7.80518 4.1554L 7.7865 4.27368L 9.63452 4.96619L 9.67188 4.7804C 9.67383 4.77856 9.68079 4.75696 9.69312 4.71863C 9.79749 4.39282 10.2889 2.85999 11.4078 2.04395C 12.1359 1.53711 12.9946 1.26685 13.9839 1.26685C 14.7493 1.26685 15.328 1.43579 15.3839 1.45276L 15.552 1.50342L 16 0.270264L 15.8319 0.219604C 15.7573 0.185791 15.0667 0 14.0959 0C 12.8079 0 11.5946 0.337891 10.5865 0.979736C 8.14111 2.55066 7.82385 4.00342 7.80518 4.1554ZM 15.5707 0.4729L 15.3467 1.08105C 15.0853 1.01355 14.6 0.929077 14.0214 0.945923C 12.9574 0.945923 11.9867 1.23303 11.2213 1.79053C 10.1013 2.60132 9.57861 4.02026 9.41064 4.52698L 8.19727 4.08777C 8.30933 3.69934 8.79456 2.53381 10.8107 1.25C 11.7814 0.625 12.8827 0.320923 14.1147 0.320923C 14.7867 0.320923 15.3093 0.405396 15.5707 0.4729ZM 1.66382 44.4933C 0.749146 43.598 0.207764 42.6521 0.0771484 42.348C 0.00244141 42.1791 -0.0909424 41.8582 0.189087 41.6047C 0.394409 41.4189 0.767822 41.3176 1.27173 41.3176L 4.85583 41.3176C 5.52783 41.3176 5.84521 41.4866 6.01318 41.6385C 6.23718 41.8413 6.27454 42.1454 6.12524 42.517C 5.6958 43.4967 4.74377 44.3075 4.44519 44.5271C 4.07178 44.8142 3.53052 45 3.00781 45C 2.48511 44.9832 1.99976 44.7974 1.66382 44.4933ZM 4.37048 19.8817L 2.46643 20C 1.36511 21.858 3.88513 24.4425 3.88513 24.4425C 3.88513 24.4425 3.21313 22.7871 3.56775 21.6554C 3.88513 20.6587 4.37048 19.8817 4.37048 19.8817Z"/><path id="path54_fill" d="M 3.5 0.965753C 2.43192 0.965753 1.05164 0.924658 0 0C 0 0 1.36385 3 3.5 3L 3.5 2.63014L 3.5 3C 5.63615 3 7 0 7 0C 5.94836 0.924658 4.56808 0.965753 3.5 0.965753Z"/><path id="path55_fill" fill-rule="evenodd" d="M 3.01123 0.894409C 3.95325 0.87793 4.92896 0.645996 6.02246 0C 6.02246 0 4.42432 1.92139 2.99438 1.93799C 1.59814 1.92139 0 0 0 0C 1.09351 0.645996 2.08594 0.87793 3.01123 0.894409ZM 9.63928 33.443L 9.75708 35C 15.8468 34.5361 18 28.8547 18 27.6952L 16.4019 27.6952C 16.4019 28.2086 14.787 33.0454 9.63928 33.443Z"/><path id="path56_fill" d="M 0.0493811 8.96966C 0.148143 8.40369 0.148143 7.87203 0.0329207 7.35752C 0.493811 6.99736 1.30037 6.87731 1.9094 6.6715C 2.40321 6.34565 4.97103 7.01451 6.81459 4.66491C 9.1355 1.73219 8.64169 0 8.64169 0C 9.23426 0.686016 9.81037 0.42876 10.7157 3.63588C 11.621 6.84301 10.2877 9.08971 7.80221 11.3364C 6.63352 12.3997 4.97103 12.8285 3.53898 13C 4.01633 12.5026 2.71596 12.4512 1.8271 12.1082C 1.89294 11.3536 1.77772 10.6332 1.23453 10.033C 0.90532 9.67282 0.493811 9.46702 0.0658414 9.29551C 0.0493811 9.24406 0.0164604 9.17546 0 9.12401C 0.0329207 9.07256 0.0329207 9.02111 0.0493811 8.96966Z"/><path id="path57_fill" d="M 0.132968 9.88171C 0.182831 9.73117 0.232694 9.56391 0.265936 9.41337C 0.315799 9.2461 0.515251 8.7443 0.265936 9.31301C 0.33242 9.16247 0.382283 9.02865 0.398904 8.87811C 4.47105 8.87811 8.01133 6.06803 7.32987 0.146785C 7.86174 -0.572462 8.60968 1.58528 8.60968 1.58528C 8.60968 1.58528 10.6541 7.53998 5.38521 9.84826C 3.64 10.6177 2.07763 11.1697 1.71196 10.9522C 0.947398 11.1028 0.265936 10.5675 0 10.2162C 0.066484 10.0992 0.0997261 9.9988 0.132968 9.88171Z"/><path id="path58_fill" d="M 0.382452 8.31615C 0.382452 7.80069 0.286839 7.30241 0.0478065 6.80412L 0 6.70103C 1.49794 6.68385 3.23491 6.52921 4.70098 5.89347C 6.3264 5.189 8.35021 2.80069 8.68486 0C 8.68486 0 11.7285 2.54296 10.8362 7.95533C 9.99157 13.0584 6.03956 14.7079 1.52981 15C 1.52981 14.9656 2.03975 13.8316 1.88039 13.1443C 4.44601 13.3505 7.29847 12.2852 8.68486 9.82818C 9.94376 7.57732 9.59318 3.7457 9.06731 3.19588C 7.82434 7.50859 3.25085 8.38488 0.382452 8.31615Z"/><path id="path59_fill" fill-rule="evenodd" d="M 18.1089 0C 20.5829 0 21.6555 0.755371 22.2438 1.40527C 23.0916 2.35388 23.23 3.65369 22.6417 5.26978C 21.0846 9.59094 18.8701 14 11.5 14C 4.12988 13.9824 1.93268 9.59094 0.358276 5.26978C -0.229919 3.63611 -0.0915527 2.3363 0.756226 1.40527C 1.32715 0.772949 2.41711 0 4.89111 0L 18.1089 0ZM 11.4827 12.4191C 18.3339 12.4015 20.3407 7.14929 21.0847 4.97107C 21.4999 3.75903 21.4653 2.86316 20.9808 2.3186C 20.6521 1.94971 19.9082 1.49304 18.1954 1.49304L 4.77002 1.49304C 3.05725 1.49304 2.31329 1.93213 1.98456 2.3186C 1.50018 2.88074 1.46558 3.75903 1.8808 4.97107C 2.62469 7.14929 4.63159 12.4015 11.4827 12.4191Z"/><path id="path60_fill" d="M 2.6372 6.61947C 3.41463 9.03687 5 11 5 11C 5 11 2.82012 10.8864 2.69817 10.4808C 2.60671 10.1726 0.731707 5.48378 0 0C 0.685976 1.20059 2.56098 6.40855 2.6372 6.61947Z"/><path id="path61_fill" fill-rule="evenodd" d="M 9.4433 0.451294C 9.83325 0.584961 10.1893 0.768799 10.5114 0.952637C 10.8335 1.1532 11.1387 1.37048 11.393 1.57104C 11.4778 1.65454 11.4947 1.77161 11.4269 1.8551L 10.1893 3.62671C 10.0875 3.7605 10.0028 3.7605 9.85022 3.67688C 9.64673 3.55994 8.73126 3.04175 8.52777 2.95825C 8.34131 2.85791 8.15479 2.79114 7.95135 2.74097C 7.74792 2.6908 7.54449 2.64062 7.3241 2.6239C 7.1037 2.6073 6.84937 2.59058 6.57812 2.59058C 6.06946 2.59058 5.61176 2.67407 5.2218 2.84119C 4.81488 3.0083 4.47583 3.22559 4.20453 3.52649C 3.93329 3.82727 3.71289 4.17822 3.5603 4.59607C 3.40771 5.01392 3.32294 5.48193 3.32294 6C 3.32294 6.58496 3.40771 7.10303 3.57727 7.5376C 3.74683 7.97217 3.98413 8.33984 4.2724 8.64062C 4.56061 8.94153 4.91663 9.17554 5.32349 9.32593C 5.73041 9.47632 6.1712 9.55994 6.66284 9.55994C 7.03583 9.55994 7.37494 9.54321 7.66315 9.47632C 7.91748 9.42615 8.13788 9.3761 8.35828 9.29248L 8.35828 7.93872L 6.79852 7.93872C 6.67981 7.93872 6.57812 7.8385 6.57812 7.72144L 6.57812 5.79944C 6.57812 5.6825 6.67981 5.58215 6.79852 5.58215L 11.1556 5.58215C 11.2743 5.58215 11.376 5.6825 11.376 5.79944L 11.376 10.5961C 11.376 10.663 11.3252 10.7299 11.2743 10.7632C 10.9522 10.9805 10.6131 11.181 10.2571 11.3314C 9.90106 11.4819 9.52808 11.6156 9.13812 11.7158C 8.74817 11.8162 8.32434 11.8831 7.88354 11.9331C 7.44275 11.9833 6.96802 12 6.45941 12C 5.54388 12 4.67926 11.8496 3.89941 11.5487C 3.11951 11.2479 2.42438 10.8301 1.84796 10.2953C 1.27155 9.7605 0.813782 9.12537 0.491638 8.39001C 0.169556 7.67126 0 6.85242 0 6C 0 5.11426 0.169556 4.31201 0.474731 3.57666C 0.796814 2.84119 1.25458 2.20618 1.83099 1.67126C 2.42438 1.1532 3.11951 0.735352 3.95026 0.43457C 4.76404 0.150391 5.69647 0 6.69678 0C 7.22235 0 7.71399 0.0334473 8.17175 0.116943C 8.62952 0.200562 9.05334 0.317505 9.4433 0.451294ZM 20.8532 7.11975C 21.0397 7.25342 21.1923 7.43726 21.3279 7.63782L 23.9219 11.532C 23.9558 11.5654 23.9897 11.6156 23.9897 11.6824C 23.9897 11.7994 23.8879 11.8997 23.7693 11.8997L 21.1923 11.8997C 20.6498 11.8997 20.2429 11.6991 19.9886 11.298L 17.9541 8.00549C 17.8863 7.88855 17.8015 7.82166 17.7167 7.77161C 17.6659 7.73816 17.5303 7.70471 17.3099 7.70471L 16.8013 7.70471L 16.8013 11.6991C 16.8013 11.8162 16.6995 11.9164 16.5809 11.9164L 13.7326 11.9164C 13.614 11.9164 13.5122 11.8162 13.5122 11.6991L 13.5122 0.367676C 13.5122 0.25061 13.614 0.150391 13.7326 0.150391L 17.6998 0.150391C 18.5984 0.150391 19.3782 0.25061 20.0225 0.417847C 20.6837 0.584961 21.2093 0.835571 21.6331 1.1532C 22.0569 1.4707 22.3791 1.87183 22.5656 2.3064C 22.7521 2.74097 22.8538 3.22559 22.8538 3.72705C 22.8538 4.11145 22.8029 4.47913 22.6843 4.83008C 22.5656 5.18103 22.3961 5.49854 22.1757 5.79944C 21.9553 6.0835 21.684 6.35095 21.3618 6.58496C 21.1414 6.73535 20.921 6.86902 20.6667 6.98608C 20.6905 7.00366 20.7143 7.01904 20.7374 7.03394L 20.7392 7.03516L 20.7421 7.03711L 20.7431 7.03772C 20.7836 7.06396 20.8217 7.08862 20.8532 7.11975ZM 19.5478 4.5293C 19.48 4.71313 19.3782 4.88025 19.2256 5.01392C 19.0731 5.14758 18.8696 5.26465 18.6323 5.34814C 18.378 5.43176 18.0728 5.46521 17.7167 5.46521L 16.7843 5.46521L 16.7843 2.52368L 17.7167 2.52368C 18.3949 2.52368 18.9036 2.65735 19.2087 2.89136C 19.5139 3.12537 19.6495 3.45959 19.6495 3.89417C 19.6495 4.12817 19.6156 4.34546 19.5478 4.5293ZM 32.7719 0.133667L 35.6201 0.133667C 35.7388 0.133667 35.8235 0.233887 35.8405 0.317505L 35.8405 7.03613C 35.8405 7.77148 35.7048 8.44006 35.4506 9.04175C 35.1963 9.64343 34.8232 10.1782 34.3485 10.6128C 33.8738 11.0474 33.2974 11.3816 32.6193 11.6323C 31.941 11.8829 31.1782 12 30.3474 12C 29.5167 12 28.7538 11.8662 28.0756 11.6323C 27.3975 11.3983 26.821 11.0474 26.3463 10.6128C 25.8716 10.1782 25.4987 9.64343 25.2443 9.04175C 25.007 8.44006 24.8713 7.77148 24.8713 7.05286L 24.8713 0.334229C 24.8713 0.217163 24.973 0.116943 25.0918 0.116943L 27.9399 0.116943C 28.0587 0.116943 28.1604 0.217163 28.1604 0.334229L 28.1604 7.05286C 28.1604 7.42053 28.2113 7.77148 28.313 8.05566C 28.4147 8.35645 28.5503 8.59045 28.7368 8.79102C 28.9233 8.99158 29.1437 9.14197 29.4149 9.24231C 29.9575 9.45959 30.7543 9.45959 31.2969 9.24231C 31.5681 9.14197 31.7886 8.99158 31.975 8.79102C 32.1615 8.60718 32.2971 8.35645 32.3988 8.07239C 32.5006 7.78821 32.5514 7.43726 32.5514 7.06958L 32.5514 0.350952C 32.5514 0.233887 32.6532 0.133667 32.7719 0.133667ZM 48.9966 0.133667L 46.4874 0.133667C 46.3688 0.133667 46.2671 0.233887 46.2671 0.350952L 46.2671 6.35095C 46.2671 6.53479 46.2671 6.71863 46.2841 6.91919L 40.8927 0.601685C 40.8347 0.533081 40.7767 0.47998 40.7241 0.432007C 40.6998 0.409912 40.6768 0.388794 40.6554 0.367676C 40.5706 0.300781 40.4858 0.25061 40.401 0.217285C 40.3163 0.183838 40.2146 0.150391 40.1128 0.150391C 40.0281 0.133667 39.9094 0.133667 39.7737 0.133667L 38.2819 0.133667C 38.1631 0.133667 38.0614 0.233887 38.0614 0.350952L 38.0614 11.6991C 38.0614 11.8162 38.1631 11.9164 38.2819 11.9164L 40.791 11.9164C 40.9097 11.9164 41.0114 11.8162 41.0114 11.6991L 41.0114 5.6156C 41.0114 5.46509 41.0114 5.29797 40.9944 5.13086L 46.3518 11.3983C 46.5214 11.5822 46.6909 11.7325 46.8774 11.7994C 47.047 11.8662 47.2673 11.9164 47.5216 11.9164L 48.9966 11.9164C 49.1154 11.9164 49.217 11.8162 49.217 11.6991L 49.217 0.350952C 49.217 0.233887 49.1154 0.133667 48.9966 0.133667ZM 51.0143 0.133667L 60.7457 0.133667C 60.8644 0.133667 60.9662 0.233887 61 0.350952L 61 2.44006C 61 2.55701 60.8983 2.65735 60.7797 2.65735L 57.5415 2.65735L 57.5415 11.6991C 57.5415 11.8162 57.4397 11.9164 57.321 11.9164L 54.4728 11.9164C 54.3541 11.9164 54.2524 11.8162 54.2524 11.6991L 54.2524 2.65735L 51.0143 2.65735C 50.8955 2.65735 50.7938 2.55701 50.7938 2.44006L 50.7938 0.350952C 50.7938 0.233887 50.8955 0.133667 51.0143 0.133667Z"/><path id="path62_fill" d="M 5.46389 0L 31.3104 34.3296L 31.3104 0L 36.4773 0L 36.4773 42.6155L 31.014 42.6155L 5.16979 7.98427L 5.16979 42.6155L 0 42.6155L 0 0L 5.46389 0Z"/><path id="path63_fill" d="M 33.9669 41.2455C 30.5618 42.5589 26.8876 43.2132 22.9497 43.2132C 7.65207 43.2132 0 35.8133 0 21.0113C 0 7.00437 7.38422 0 22.1503 0C 26.387 0 30.3261 0.597691 33.9663 1.79127L 33.9663 6.55896C 30.3255 5.16795 26.5821 4.47155 22.7409 4.47155C 11.2237 4.47155 5.46628 9.9868 5.46628 21.0113C 5.46628 32.8315 11.1336 38.7446 22.479 38.7446C 24.2883 38.7446 26.2964 38.5051 28.5036 38.0265L 28.5036 23.5447L 33.9669 23.5447L 33.9669 41.2455Z"/><path id="path64_fill" d="M 0 26.1636L 0 0L 5.46031 0L 5.46031 26.163C 5.46031 34.3483 9.49843 38.4455 17.5729 38.4455C 25.6449 38.4455 29.683 34.3477 29.683 26.163L 29.683 0L 35.1463 0L 35.1463 26.163C 35.1463 37.3325 29.2887 42.914 17.5729 42.914C 5.85762 42.9146 3.39105e-14 37.3325 3.39105e-14 26.1636L 0 26.1636Z"/><path id="path65_fill" d="M 27.5581 38.1469L 27.5581 42.6155L 0 42.6155L 0 0L 5.46091 0L 5.46091 38.1469L 27.5581 38.1469Z"/><path id="path66_fill" d="M 20.9989 0L 41.9984 48.2379L 35.9451 48.2379L 30.4788 34.825L 16.5122 34.825L 18.0173 30.3601L 28.6504 30.3601L 20.7639 11.0462L 5.66971 48.2379L 0 48.2379L 20.9989 0Z"/><path id="path67_fill" d="M 0 42.6155L 0 0L 18.0179 0C 26.053 0 30.069 3.40859 30.069 10.2209C 30.069 15.7657 26.143 19.8689 18.2846 22.5281L 32.7863 42.6155L 25.5793 42.6155L 12.1424 23.4544L 12.1424 19.8514C 20.2138 18.5567 24.2496 15.428 24.2496 10.4629C 24.2496 6.53067 22.0053 4.56063 17.5186 4.56063L 5.46449 4.56063L 5.46449 42.6173L 0.00059656 42.6173L 0 42.6155Z"/><path id="path68_fill" d="M 5.4633 0L 31.3075 34.3302L 31.3075 0L 36.4773 0L 36.4773 42.6155L 31.0134 42.6155L 5.1674 7.98427L 5.1674 42.6155L 0 42.6155L 0 0L 5.4633 0Z"/><path id="path69_fill" d="M 33.9663 41.2461C 30.5612 42.5595 26.8887 43.2132 22.9497 43.2132C 7.65088 43.2132 0 35.8139 0 21.0119C 0 7.00497 7.38422 0 22.1533 0C 26.3864 0 30.3261 0.598293 33.9663 1.79127L 33.9663 6.55835C 30.3255 5.16735 26.5821 4.47095 22.7433 4.47095C 11.2255 4.47095 5.46688 9.9862 5.46688 21.0107C 5.46688 32.8315 11.1366 38.7446 22.479 38.7446C 24.2889 38.7446 26.2993 38.5063 28.506 38.0265L 28.506 23.5441L 33.9669 23.5441L 33.9663 41.2461Z"/><path id="path70_fill" d="M 0 26.1666L 0 0L 5.46031 0L 5.46031 26.166C 5.46031 34.3507 9.49843 38.4455 17.5735 38.4455C 25.6449 38.4455 29.683 34.3501 29.683 26.166L 29.683 0L 35.1463 0L 35.1463 26.166C 35.1463 37.3349 29.2887 42.914 17.5735 42.914C 5.85762 42.914 0 37.3362 0 26.1666Z"/><path id="path71_fill" d="M 27.5557 38.1469L 27.5557 42.6155L 0 42.6155L 0 0L 5.46091 0L 5.46091 38.1469L 27.5557 38.1469Z"/><path id="path72_fill" d="M 21.0001 0L 41.9996 48.2403L 35.9427 48.2403L 30.4794 34.8286L 16.5098 34.8286L 18.0185 30.3601L 28.6486 30.3601L 20.7645 11.0462L 5.6703 48.2403L 0 48.2403L 21.0001 0Z"/><path id="path73_fill" d="M 0 42.6155L 0 0L 18.0173 0C 26.053 0 30.0654 3.40618 30.0654 10.2215C 30.0654 15.7633 26.1419 19.8689 18.284 22.5275L 32.7863 42.6155L 25.5763 42.6155L 12.1412 23.4538L 12.1412 19.8472C 20.2132 18.5525 24.2508 15.4268 24.2508 10.4587C 24.2508 6.52645 22.0041 4.55943 17.5144 4.55943L 5.46389 4.55943L 5.46389 42.6155L 0 42.6155Z"/><path id="path74_fill" fill-rule="evenodd" d="M 2.58555 36.7332L 6.25703 0L 43.9026 0L 43.9026 5.7428L 11.5833 5.7428L 8.946 31.1974C 12.9795 28.438 17.7024 27.0584 23.1148 27.0584C 29.9062 27.0584 35.3186 29.2658 39.352 33.6807C 43.3855 38.0956 45.4022 43.9763 45.4022 51.323C 45.4022 59.256 43.4372 65.4127 39.5072 69.7931C 35.5771 74.1735 30.0441 76.3637 22.908 76.3637C 16.3579 76.3637 11.0489 74.5356 6.98098 70.8796C 2.91303 67.2235 0.586061 62.1016 0 55.5137L 5.94676 55.5137C 6.53282 60.6529 8.27374 64.5418 11.1696 67.1804C 14.0654 69.819 17.9782 71.1382 22.908 71.1382C 28.2859 71.1382 32.3452 69.4309 35.0859 66.0163C 37.8266 62.6016 39.1969 57.7384 39.1969 51.4265C 39.1969 45.9078 37.6628 41.4068 34.5946 37.9231C 31.5264 34.4395 27.3379 32.6977 22.0289 32.6977C 19.0986 32.6977 16.5475 33.0685 14.3756 33.8101C 12.2038 34.5516 9.91128 35.9916 7.49809 38.1301L 2.58555 36.7332Z"/><path id="path75_fill" d="M 7.82455 82.3063L 49.5671 105.251L 91.5246 81.9955L 99.3461 17.1187L 49.5144 0L 0 17.4271L 7.82455 82.3063Z"/><path id="path76_fill" d="M 0 94.2514L 37.7192 73.3736L 45.0084 15.3502L 0 0L 0 94.2514Z"/><path id="path77_fill" d="M 43.8419 94.2532L 43.8419 0L 0 15.6287L 6.70479 73.6526L 43.8419 94.2532Z"/><path id="path78_fill" fill-rule="evenodd" d="M 30.6138 52.546L 43.003 46.752L 30.6138 0L 0 68.1125L 11.4174 67.9011L 17.5557 52.546L 30.6138 52.546ZM 30.6958 21.839L 41.8054 43.8348L 30.6132 43.4564L 21.5833 43.4564L 30.6958 21.839Z"/><path id="path79_fill" d="M 10.4222 43.4732L 0.0233533 43.4732L 0 52.5323L 14.379 52.5461L 21.0994 68.1149L 32.024 68.3173L 0 0L 0.0820359 21.839L 10.4222 43.4732Z"/><path id="path80_stroke" d="M 0.362409 3.08047L 0.0179382 2.71806L -0.706879 3.40701L -0.362409 3.76941L 0.362409 3.08047ZM 76.4742 3.82798L 76.8772 4.12389L 77.469 3.31782L 77.066 3.02191L 76.4742 3.82798ZM 0 3.42494C -0.362409 3.76941 -0.362181 3.76965 -0.361875 3.76997C -0.361668 3.77019 -0.361283 3.7706 -0.360869 3.77103C -0.360141 3.77179 -0.358898 3.7731 -0.357443 3.77462C -0.354734 3.77745 -0.350367 3.782 -0.344963 3.7876C -0.33456 3.7984 -0.318356 3.81512 -0.29768 3.83627C -0.257153 3.87771 -0.195297 3.94033 -0.115354 4.01965C 0.0428156 4.17656 0.280838 4.40771 0.588049 4.69296C 1.19877 5.25988 2.10437 6.05987 3.25192 6.96458C 5.53866 8.76653 8.84969 11.0285 12.831 12.7948C 20.8195 16.3343 31.6269 17.9319 42.7261 10.0842L 42.1488 9.2677C 31.421 16.8527 21.0096 15.3248 13.2361 11.8806C 9.3365 10.155 6.13074 7.96065 3.87093 6.17919C 2.7452 5.29219 1.87009 4.51871 1.26842 3.96009C 0.969433 3.68256 0.743339 3.46293 0.588941 3.30974C 0.5126 3.23401 0.456059 3.17676 0.41726 3.13708C 0.398273 3.11767 0.384582 3.10353 0.375006 3.0936C 0.370421 3.08884 0.367277 3.08556 0.364973 3.08316C 0.363921 3.08206 0.363281 3.08139 0.362753 3.08083C 0.362539 3.08061 0.362454 3.08052 0.362346 3.08041C 0.362338 3.0804 0.362409 3.08047 0 3.42494ZM 42.7261 10.0842C 53.5602 2.42409 62.0324 0.904003 67.7577 1.26223C 70.6291 1.4387 72.7956 2.08345 74.2856 2.69417C 75.0215 2.9949 75.5656 3.27832 75.941 3.49412C 76.1248 3.59957 76.2574 3.68296 76.3503 3.74387C 76.395 3.77308 76.4258 3.79408 76.4482 3.8097C 76.4586 3.81689 76.465 3.82145 76.4702 3.82517C 76.4724 3.82672 76.4734 3.82742 76.4745 3.8282C 76.4748 3.82844 76.475 3.82863 76.4749 3.82851C 76.4749 3.82849 76.4747 3.82835 76.4747 3.82835C 76.4744 3.82818 76.4742 3.82798 76.7701 3.42494C 77.066 3.02191 77.0656 3.02164 77.0652 3.02133C 77.065 3.02118 77.0645 3.02084 77.0641 3.02055C 77.0635 3.02011 77.0623 3.01922 77.0611 3.01835C 77.0591 3.01693 77.0555 3.01433 77.0516 3.01152C 77.0446 3.00654 77.0328 2.99816 77.0188 2.98845C 76.9926 2.97027 76.9505 2.9416 76.8983 2.90733C 76.7974 2.84127 76.64 2.74247 76.4391 2.627C 76.0454 2.40097 75.442 2.08764 74.6645 1.76873C 73.1276 1.14015 70.8035 0.454031 67.8201 0.264179C 61.8359 -0.110253 53.1418 1.49517 42.1488 9.2677L 42.7261 10.0842Z"/><path id="path81_stroke" d="M 0.358042 -0.349007L 0.00903514 -0.707049L -0.707049 -0.00903514L -0.358042 0.349007L 0.358042 -0.349007ZM 134.809 28.4397L 135.095 28.8494L 135.915 28.2761L 135.628 27.8664L 134.809 28.4397ZM 0 0C -0.358042 0.349007 -0.357758 0.349298 -0.357358 0.349708C -0.35707 0.350003 -0.356554 0.350531 -0.355978 0.35112C -0.354938 0.352182 -0.353209 0.353947 -0.351132 0.356061C -0.347203 0.360061 -0.340969 0.36639 -0.333129 0.374309C -0.317906 0.389684 -0.2944 0.413298 -0.264114 0.443403C -0.204473 0.50268 -0.113841 0.591774 0.00408106 0.705132C 0.237991 0.929955 0.589484 1.25994 1.04615 1.66789C 1.95532 2.47992 3.30533 3.6217 5.03342 4.91164C 8.4801 7.48345 13.4996 10.6898 19.6687 13.1558C 32.0351 18.0941 49.1107 20.0971 67.8756 8.37149L 67.3457 7.52344C 48.9074 19.045 32.1777 17.0743 20.0396 12.2271C 13.9564 9.80024 9.04882 6.66092 5.63151 4.11021C 3.92759 2.83889 2.61138 1.72521 1.71232 0.922088C 1.26486 0.522469 0.926741 0.204956 0.697064 -0.0158221C 0.583193 -0.125265 0.498538 -0.208498 0.440841 -0.265849C 0.412458 -0.294058 0.391782 -0.314832 0.377491 -0.329267C 0.370574 -0.336253 0.365717 -0.341184 0.362245 -0.344719C 0.360622 -0.346371 0.359572 -0.347442 0.358759 -0.348274C 0.358408 -0.348632 0.358229 -0.348815 0.358054 -0.348995C 0.35799 -0.34906 0.358042 -0.349007 0 0ZM 67.8756 8.37149C 86.2562 -3.11396 102.941 1.85879 115.093 9.7519C 121.182 13.704 126.099 18.3677 129.519 22.0663C 131.226 23.9116 132.547 25.5034 133.447 26.6416C 133.896 27.2088 134.236 27.658 134.466 27.9686C 134.58 28.1229 134.666 28.2406 134.724 28.3212C 134.753 28.361 134.774 28.3907 134.788 28.411C 134.795 28.421 134.8 28.4281 134.804 28.4332C 134.806 28.4356 134.807 28.4372 134.808 28.4384C 134.808 28.439 134.808 28.4393 134.808 28.4396C 134.809 28.4397 134.809 28.4397 135.218 28.1531C 135.628 27.8664 135.628 27.8661 135.627 27.8656C 135.627 27.8652 135.627 27.8646 135.626 27.8638C 135.625 27.8624 135.623 27.86 135.621 27.8572C 135.618 27.8517 135.612 27.8432 135.604 27.8323C 135.589 27.8111 135.566 27.7787 135.536 27.7371C 135.476 27.6546 135.387 27.5312 135.269 27.373C 135.036 27.0584 134.687 26.5967 134.231 26.0212C 133.324 24.8739 131.978 23.2525 130.253 21.3873C 126.81 17.665 121.801 12.9185 115.638 8.91327C 103.288 0.891779 86.1684 -4.23827 67.3457 7.52344L 67.8756 8.37149Z"/><path id="path82_fill" d="M 0 24L 0 0L 24 0L 48 0L 48 24L 48 48L 24 48L 0 48L 0 24Z"/><path id="path83_fill" d="M 15.9856 19.9898L 16 17.997L 13.045 17.997L 10.0901 17.997L 10.0901 8.99849L 10.0901 0L 8 0L 5.90991 0L 5.90991 8.99849L 5.90991 17.997L 2.95495 17.997L 0 17.997L 0 19.9512C 0 21.0325 0.0216216 21.9362 0.0504505 21.9594C 0.0720721 21.9903 3.66847 22.0058 8.02883 21.998L 15.964 21.9749L 15.9856 19.9898Z"/><path id="path84_fill" d="M 9.67504 22.7951C 10.8546 22.479 11.7541 21.9179 12.5798 21.0013C 13.0074 20.5114 13.6415 19.6184 13.6931 19.405C 13.7078 19.3418 11.6877 17.8878 10.4639 17.0739C 10.4197 17.0423 10.2427 17.2477 10.0437 17.5638C 9.4465 18.4963 8.81983 18.8993 7.8614 18.9704C 6.45325 19.0732 5.54643 18.2829 5.5538 16.9633C 5.5538 16.5761 5.60541 16.3469 5.75286 16.0308C 6.06251 15.3433 6.63756 14.9324 8.44383 14.0948C 11.7688 12.5617 13.1917 11.5503 14.0764 10.1121C 15.0644 8.5079 15.2855 5.94759 14.6146 4.04316C 13.8774 1.97278 12.049 0.566189 9.47599 0.099959C 8.67975 -0.050183 6.79239 -0.0264763 5.93717 0.13947C 4.07193 0.495069 2.30252 1.48284 1.21139 2.77881C 0.783779 3.28455 -0.0493169 4.60422 0.00229092 4.69904C 0.0244084 4.73065 0.216094 4.85709 0.429897 4.99142C 0.636328 5.11786 1.41782 5.59989 2.15507 6.05822L 3.4895 6.88795L 3.76965 6.44543C 4.1604 5.80535 5.01561 4.92821 5.53168 4.63582C 7.01356 3.79819 9.04838 3.91672 10.051 4.88079C 10.4786 5.29961 10.6556 5.73423 10.6556 6.37431C 10.6556 6.95117 10.5892 7.20404 10.3091 7.63866C 9.94783 8.19182 9.21058 8.65805 7.11678 9.63002C 4.72071 10.7363 3.68855 11.4238 2.74487 12.5143C 2.1993 13.1465 1.68323 14.158 1.46942 15.0035C 1.29248 15.7068 1.24825 17.469 1.38833 18.1802C 1.88228 20.6615 3.62957 22.3921 6.15098 22.9057C 6.96933 23.0717 8.87144 23.0084 9.67504 22.7951Z"/><path id="path85_fill" fill-rule="evenodd" d="M 14.4747 2.23308L 8.4586 2.23308L 8.4586 18.5175L 6.00329 18.5175L 6.00329 2.23308L 0 2.23308L 0 0.250854L 14.4747 0.250854L 14.4747 2.23308ZM 20.5037 15.1176L 23.7432 4.94299L 26.2885 4.94299L 20.6965 20.6126C 19.831 22.8709 18.4555 24 16.5701 24L 16.1202 23.9623L 15.2332 23.7992L 15.2332 21.9174L 15.8759 21.9676C 16.6815 21.9676 17.3092 21.8087 17.7592 21.4908C 18.2091 21.173 18.5798 20.5917 18.8711 19.747L 19.3982 18.3669L 14.4362 4.94299L 17.0329 4.94299L 20.5037 15.1176ZM 40.159 11.8808C 40.159 13.9467 39.6748 15.6111 38.7064 16.8741C 37.738 18.137 36.4268 18.7685 34.7728 18.7685C 33.0845 18.7685 31.7561 18.2457 30.7877 17.2002L 30.7877 23.7366L 28.4095 23.7366L 28.4095 4.94305L 30.582 4.94305L 30.6977 6.44854C 31.6662 5.2776 33.0116 4.69214 34.7342 4.69214C 36.4054 4.69214 37.7273 5.30687 38.7 6.53636C 39.6727 7.76585 40.159 9.47624 40.159 11.6676L 40.159 11.8808ZM 37.7808 11.6173C 37.7808 10.0867 37.4466 8.87816 36.7782 7.99159C 36.1097 7.10502 35.1927 6.66174 34.0272 6.66174C 32.5874 6.66174 31.5076 7.28484 30.7877 8.53106L 30.7877 15.0172C 31.499 16.2551 32.5874 16.874 34.0529 16.874C 35.1927 16.874 36.099 16.4328 36.7717 15.5504C 37.4445 14.668 37.7808 13.357 37.7808 11.6173ZM 48.9519 18.7685C 47.0665 18.7685 45.5325 18.1642 44.3498 16.9556C 43.1671 15.747 42.5758 14.1307 42.5758 12.1067L 42.5758 11.6801C 42.5758 10.3335 42.8393 9.13124 43.3664 8.07322C 43.8934 7.01519 44.6305 6.18718 45.5774 5.58916C 46.5244 4.99114 47.5507 4.69214 48.6562 4.69214C 50.4645 4.69214 51.87 5.27342 52.8727 6.436C 53.8754 7.59857 54.3767 9.26296 54.3767 11.4292L 54.3767 12.3952L 44.954 12.3952C 44.9883 13.7334 45.3889 14.8145 46.1559 15.6383C 46.9229 16.4621 47.8978 16.8741 49.0804 16.8741C 49.9203 16.8741 50.6316 16.7068 51.2144 16.3722C 51.7971 16.0377 52.307 15.5944 52.7441 15.0424L 54.1967 16.1464C 53.0312 17.8944 51.2829 18.7685 48.9519 18.7685ZM 48.6562 6.599C 47.6963 6.599 46.8908 6.93982 46.2394 7.62148C 45.5881 8.30313 45.1853 9.25869 45.0311 10.4882L 51.9985 10.4882L 51.9985 10.3125C 51.9299 9.13323 51.6043 8.21949 51.0215 7.57129C 50.4387 6.92309 49.6503 6.599 48.6562 6.599ZM 69.5327 10.3753C 67.4159 9.78149 65.8755 9.05176 64.9114 8.1861C 63.9472 7.32044 63.4652 6.25197 63.4652 4.98066C 63.4652 3.54207 64.0544 2.35233 65.2327 1.4114C 66.4111 0.47046 67.943 0 69.8284 0C 71.1139 0 72.2601 0.242549 73.2671 0.727653C 74.2741 1.21276 75.054 1.88186 75.6067 2.73497C 76.1595 3.58809 76.4359 4.52064 76.4359 5.53267L 73.9549 5.53267C 73.9549 4.42864 73.5949 3.5609 72.875 2.92943C 72.1552 2.29796 71.1396 1.98223 69.8284 1.98223C 68.6115 1.98223 67.6623 2.24359 66.981 2.76634C 66.2997 3.28908 65.959 4.01463 65.959 4.94302C 65.959 5.68741 66.2826 6.31678 66.9296 6.83116C 67.5766 7.34553 68.6779 7.81599 70.2333 8.24255C 71.7888 8.66911 73.0057 9.13957 73.8842 9.65395C 74.7626 10.1683 75.4139 10.7684 75.8381 11.4543C 76.2623 12.1401 76.4744 12.9472 76.4744 13.8756C 76.4744 15.356 75.8831 16.5416 74.7004 17.4323C 73.5178 18.3231 71.9366 18.7684 69.9569 18.7684C 68.6714 18.7684 67.4717 18.528 66.3575 18.047C 65.2434 17.5661 64.3843 16.9075 63.7801 16.0711C 63.1759 15.2347 62.8738 14.2854 62.8738 13.2232L 65.3549 13.2232C 65.3549 14.3272 65.7726 15.1992 66.6082 15.839C 67.4438 16.4788 68.56 16.7987 69.9569 16.7987C 71.2596 16.7987 72.258 16.5395 72.9522 16.0209C 73.6463 15.5024 73.9934 14.7956 73.9934 13.9007C 73.9934 13.0057 73.6721 12.3136 73.0293 11.8244C 72.3865 11.3351 71.221 10.8521 69.5327 10.3753ZM 84.843 16.8741C 85.6915 16.8741 86.4328 16.6231 87.0669 16.1213C 87.7011 15.6195 88.0525 14.9922 88.121 14.2394L 90.3707 14.2394C 90.3278 15.0173 90.0536 15.7575 89.548 16.46C 89.0423 17.1626 88.3674 17.723 87.5233 18.1412C 86.6791 18.5594 85.7857 18.7685 84.843 18.7685C 82.949 18.7685 81.4429 18.1516 80.3245 16.918C 79.2061 15.6843 78.6469 13.9969 78.6469 11.8558L 78.6469 11.4668C 78.6469 10.1453 78.8954 8.97024 79.3925 7.94149C 79.8896 6.91273 80.603 6.11399 81.5329 5.54525C 82.4627 4.97651 83.5618 4.69214 84.8302 4.69214C 86.3899 4.69214 87.6861 5.14796 88.7188 6.05962C 89.7515 6.97129 90.3021 8.15476 90.3707 9.61007L 88.121 9.61007C 88.0525 8.73186 87.7118 8.01049 87.0991 7.44593C 86.4863 6.88137 85.73 6.59909 84.8302 6.59909C 83.6218 6.59909 82.6855 7.02355 82.0214 7.87248C 81.3572 8.72142 81.0251 9.9488 81.0251 11.5547L 81.0251 11.9938C 81.0251 13.5578 81.355 14.7622 82.0149 15.6069C 82.6748 16.4517 83.6175 16.8741 84.843 16.8741ZM 99.7677 7.02565C 99.4078 6.9671 99.0179 6.93783 98.5979 6.93783C 97.0382 6.93783 95.9798 7.58602 95.4227 8.88242L 95.4227 18.5175L 93.0446 18.5175L 93.0446 4.94305L 95.3585 4.94305L 95.397 6.51127C 96.1769 5.29851 97.2824 4.69214 98.7136 4.69214C 99.1764 4.69214 99.5278 4.75068 99.7677 4.86778L 99.7677 7.02565ZM 104.537 18.5175L 102.159 18.5175L 102.159 4.94299L 104.537 4.94299L 104.537 18.5175ZM 101.966 1.34239C 101.966 0.96602 102.084 0.648198 102.319 0.388918C 102.555 0.129638 102.904 0 103.367 0C 103.83 0 104.181 0.129638 104.421 0.388918C 104.661 0.648198 104.781 0.96602 104.781 1.34239C 104.781 1.71877 104.661 2.03241 104.421 2.28332C 104.181 2.53424 103.83 2.6597 103.367 2.6597C 102.904 2.6597 102.555 2.53424 102.319 2.28332C 102.084 2.03241 101.966 1.71877 101.966 1.34239ZM 120.091 11.8808C 120.091 13.9467 119.607 15.6111 118.639 16.8741C 117.67 18.137 116.359 18.7685 114.705 18.7685C 113.017 18.7685 111.689 18.2457 110.72 17.2002L 110.72 23.7366L 108.342 23.7366L 108.342 4.94305L 110.514 4.94305L 110.63 6.44854C 111.599 5.2776 112.944 4.69214 114.667 4.69214C 116.338 4.69214 117.66 5.30687 118.632 6.53636C 119.605 7.76585 120.091 9.47624 120.091 11.6676L 120.091 11.8808ZM 117.713 11.6173C 117.713 10.0867 117.379 8.87816 116.711 7.99159C 116.042 7.10502 115.125 6.66174 113.96 6.66174C 112.52 6.66174 111.44 7.28484 110.72 8.53106L 110.72 15.0172C 111.431 16.2551 112.52 16.874 113.985 16.874C 115.125 16.874 116.031 16.4328 116.704 15.5504C 117.377 14.668 117.713 13.357 117.713 11.6173ZM 126.339 1.65601L 126.339 4.94299L 128.936 4.94299L 128.936 6.73703L 126.339 6.73703L 126.339 15.1552C 126.339 15.6989 126.455 16.1066 126.686 16.3784C 126.917 16.6503 127.312 16.7862 127.869 16.7862C 128.143 16.7862 128.52 16.736 129 16.6356L 129 18.5175C 128.374 18.6848 127.766 18.7684 127.175 18.7684C 126.112 18.7684 125.311 18.4548 124.771 17.8275C 124.231 17.2002 123.961 16.3094 123.961 15.1552L 123.961 6.73703L 121.428 6.73703L 121.428 4.94299L 123.961 4.94299L 123.961 1.65601L 126.339 1.65601Z"/><path id="path86_fill" fill-rule="evenodd" d="M 2.18696 25.9821L 14.7145 34L 27.2273 25.9821L 29 5.36725L 14.7145 0L 0 5.36725L 2.18696 25.9821Z"/><path id="path87_fill" d="M 16.66 22.829L 12.24 22.829L 10.1463 28.231L 6.26316 28.231L 6.24526 28.231L 16.66 4.0885L 16.66 4.107L 16.66 0L 0 6.142L 2.54105 28.9155L 16.66 37L 16.66 22.829Z"/><path id="path88_fill" d="M 0 7.5665L 3.04211 7.5665L 3.04211 0L 0 7.5665Z"/><path id="path89_fill" d="M 0 22.829L 4.46702 22.829L 6.58298 28.231L 10.5074 28.231L 10.5255 28.231L 0 4.0885L 0 4.107L 0 0L 16.8372 6.142L 14.2691 28.9155L 0 37L 0 22.829Z"/><path id="path90_fill" d="M 3.07447 7.5665L 0 7.5665L 0 0L 3.07447 7.5665Z"/><path id="path91_fill" fill-rule="evenodd" d="M 2.37097 0.764771L 6.92171 12.1225L 11.4724 0.764771L 13.853 0.764771L 13.853 14.6847L 12.0174 14.6847L 12.0174 9.26394L 12.1895 3.41299L 7.61962 14.6847L 6.21424 14.6847L 1.65394 3.44167L 1.83559 9.26394L 1.83559 14.6847L 0 14.6847L 0 0.764771L 2.37097 0.764771ZM 23.203 14.6847C 23.101 14.4807 23.0182 14.1175 22.9545 13.5948C 22.1323 14.4489 21.1507 14.8759 20.0099 14.8759C 18.9901 14.8759 18.1536 14.5875 17.5003 14.0107C 16.847 13.4339 16.5203 12.7025 16.5203 11.8166C 16.5203 10.7394 16.9298 9.90292 17.7488 9.30699C 18.5678 8.71106 19.7199 8.4131 21.2049 8.4131L 22.9258 8.4131L 22.9258 7.60046C 22.9258 6.98222 22.7409 6.48987 22.3713 6.12339C 22.0016 5.7569 21.4567 5.57367 20.7364 5.57367C 20.1055 5.57367 19.5765 5.733 19.1494 6.05168C 18.7224 6.37036 18.5089 6.75596 18.5089 7.20849L 16.7307 7.20849C 16.7307 6.69223 16.9139 6.1935 17.2804 5.71229C 17.6469 5.23108 18.144 4.85027 18.7718 4.56983C 19.3996 4.28939 20.0895 4.14917 20.8416 4.14917C 22.0335 4.14917 22.9672 4.44713 23.6428 5.04306C 24.3184 5.639 24.6689 6.45959 24.6944 7.50486L 24.6944 12.2659C 24.6944 13.2156 24.8155 13.9709 25.0577 14.5317L 25.0577 14.6847L 23.203 14.6847ZM 20.268 13.3367C 20.8225 13.3367 21.3483 13.1933 21.8455 12.9065C 22.3426 12.6197 22.7027 12.2468 22.9258 11.7879L 22.9258 9.66553L 21.5395 9.66553C 19.3725 9.66553 18.289 10.2997 18.289 11.568C 18.289 12.1225 18.4738 12.5559 18.8435 12.8683C 19.2132 13.1806 19.688 13.3367 20.268 13.3367ZM 29.8666 1.83557L 29.8666 4.34039L 31.7978 4.34039L 31.7978 5.70752L 29.8666 5.70752L 29.8666 12.1225C 29.8666 12.5368 29.9526 12.8475 30.1247 13.0547C 30.2968 13.2618 30.59 13.3654 31.0043 13.3654C 31.2082 13.3654 31.4887 13.3271 31.8456 13.2507L 31.8456 14.6847C 31.3803 14.8122 30.9278 14.8759 30.488 14.8759C 29.6977 14.8759 29.1018 14.6369 28.7002 14.1589C 28.2987 13.6809 28.0979 13.0021 28.0979 12.1225L 28.0979 5.70752L 26.2145 5.70752L 26.2145 4.34039L 28.0979 4.34039L 28.0979 1.83557L 29.8666 1.83557ZM 38.1555 14.8759C 36.7533 14.8759 35.6124 14.4154 34.7328 13.4944C 33.8533 12.5734 33.4135 11.3418 33.4135 9.79935L 33.4135 9.4743C 33.4135 8.44814 33.6095 7.53195 34.0015 6.72569C 34.3935 5.91943 34.9416 5.28845 35.6459 4.83274C 36.3501 4.37702 37.1134 4.14917 37.9356 4.14917C 39.2804 4.14917 40.3257 4.59213 41.0714 5.47806C 41.8171 6.36399 42.1899 7.63232 42.1899 9.28309L 42.1899 10.0192L 35.1822 10.0192C 35.2077 11.039 35.5056 11.8628 36.0761 12.4906C 36.6465 13.1184 37.3715 13.4323 38.2511 13.4323C 38.8757 13.4323 39.4047 13.3048 39.8381 13.0499C 40.2715 12.7949 40.6507 12.4571 40.9758 12.0365L 42.0561 12.8778C 41.1893 14.2099 39.8891 14.8759 38.1555 14.8759ZM 37.9355 5.60242C 37.2217 5.60242 36.6226 5.86214 36.1382 6.38159C 35.6538 6.90104 35.3542 7.62921 35.2395 8.56613L 40.4212 8.56613L 40.4212 8.43229C 40.3702 7.53361 40.128 6.8373 39.6946 6.34335C 39.2612 5.84939 38.6749 5.60242 37.9355 5.60242ZM 49.2359 5.9274C 48.9682 5.88278 48.6782 5.86048 48.3659 5.86048C 47.2059 5.86048 46.4188 6.35442 46.0045 7.34233L 46.0045 14.6847L 44.2358 14.6847L 44.2358 4.34038L 45.9567 4.34038L 45.9854 5.53542C 46.5654 4.61125 47.3876 4.14917 48.452 4.14917C 48.7961 4.14917 49.0575 4.19378 49.2359 4.28302L 49.2359 5.9274ZM 52.7828 14.6848L 51.0142 14.6848L 51.0142 4.34045L 52.7828 4.34045L 52.7828 14.6848ZM 50.8707 1.59657C 50.8707 1.30976 50.9584 1.06756 51.1336 0.86998C 51.3089 0.672398 51.5686 0.573608 51.9128 0.573608C 52.257 0.573608 52.5183 0.672398 52.6968 0.86998C 52.8752 1.06756 52.9644 1.30976 52.9644 1.59657C 52.9644 1.88338 52.8752 2.12239 52.6968 2.3136C 52.5183 2.5048 52.257 2.60041 51.9128 2.60041C 51.5686 2.60041 51.3089 2.5048 51.1336 2.3136C 50.9584 2.12239 50.8707 1.88338 50.8707 1.59657ZM 61.999 14.6847C 61.897 14.4807 61.8142 14.1175 61.7504 13.5948C 60.9282 14.4489 59.9467 14.8759 58.8058 14.8759C 57.786 14.8759 56.9495 14.5875 56.2962 14.0107C 55.6429 13.4339 55.3163 12.7025 55.3163 11.8166C 55.3163 10.7394 55.7258 9.90292 56.5448 9.30699C 57.3638 8.71106 58.5158 8.4131 60.0009 8.4131L 61.7217 8.4131L 61.7217 7.60046C 61.7217 6.98222 61.5369 6.48987 61.1672 6.12339C 60.7976 5.7569 60.2526 5.57367 59.5324 5.57367C 58.9014 5.57367 58.3724 5.733 57.9454 6.05168C 57.5184 6.37036 57.3048 6.75596 57.3048 7.20849L 55.5266 7.20849C 55.5266 6.69223 55.7099 6.1935 56.0763 5.71229C 56.4428 5.23108 56.9399 4.85027 57.5678 4.56983C 58.1956 4.28939 58.8855 4.14917 59.6376 4.14917C 60.8294 4.14917 61.7632 4.44713 62.4388 5.04306C 63.1144 5.639 63.4649 6.45959 63.4904 7.50486L 63.4904 12.2659C 63.4904 13.2156 63.6115 13.9709 63.8537 14.5317L 63.8537 14.6847L 61.999 14.6847ZM 59.064 13.3367C 59.6185 13.3367 60.1443 13.1933 60.6414 12.9065C 61.1386 12.6197 61.4987 12.2468 61.7217 11.7879L 61.7217 9.66553L 60.3355 9.66553C 58.1685 9.66553 57.085 10.2997 57.085 11.568C 57.085 12.1225 57.2698 12.5559 57.6395 12.8683C 58.0091 13.1806 58.484 13.3367 59.064 13.3367ZM 68.1846 14.6847L 66.4159 14.6847L 66.4159 0L 68.1846 0L 68.1846 14.6847Z"/></defs></svg>