<svg width="161" height="49" viewBox="0 0 161 49" version="1.1" xmlns="http://www.w3.org/2000/svg" xmlns:xlink="http://www.w3.org/1999/xlink">
<title>github_logo</title>
<desc>Created using Figma</desc>
<g id="Canvas" transform="translate(-740 -2557)">
<g id="github_logo">
<g id="text">
<g id="Fill 3">
<use xlink:href="#path0_fill" transform="translate(804.623 2569.6)" fill="#FFFFFE"/>
</g>
<g id="Fill 4">
<use xlink:href="#path1_fill" transform="translate(846.768 2570.3)" fill="#FFFFFE"/>
</g>
<g id="Fill 5">
<use xlink:href="#path2_fill" transform="translate(825.696 2571)" fill="#FFFFFE"/>
</g>
<g id="Fill 6">
<use xlink:href="#path3_fill" transform="translate(826.398 2578.7)" fill="#FFFFFE"/>
</g>
<g id="Fill 7">
<use xlink:href="#path4_fill" transform="translate(867.139 2578.7)" fill="#FFFFFE"/>
</g>
<g id="Fill 8">
<use xlink:href="#path5_fill" transform="translate(883.997 2570.3)" fill="#FFFFFE"/>
</g>
<g id="Fill 9">
<use xlink:href="#path6_fill" transform="translate(832.72 2573.1)" fill="#FFFFFE"/>
</g>
</g>
<g id="Fill 51">
<use xlink:href="#path7_fill" transform="translate(740 2557)" fill="#FFFFFE"/>
</g>
</g>
</g>
<defs>
<path id="path0_fill" fill-rule="evenodd" d="M 17.8982 11.0853L 10.0893 11.0853C 9.88784 11.0853 9.72452 11.2538 9.72452 11.4615L 9.72452 15.3963C 9.72452 15.6039 9.88784 15.773 10.0893 15.773L 13.1355 15.773L 13.1355 20.6616C 13.1355 20.6616 12.4516 20.9019 10.5604 20.9019C 8.32952 20.9019 5.21288 20.0617 5.21288 12.9987C 5.21288 5.93377 8.45826 5.00445 11.505 5.00445C 14.1425 5.00445 15.2785 5.4828 16.0017 5.7136C 16.2289 5.7854 16.439 5.5522 16.439 5.34427L 17.31 1.54274C 17.31 1.44515 17.278 1.32842 17.1706 1.24892C 16.877 1.03301 15.0858 0 10.5604 0C 5.34756 0 0 2.28565 0 13.2741C 0 24.2626 6.12233 25.9 11.2815 25.9C 15.5532 25.9 18.1446 24.0188 18.1446 24.0188C 18.2514 23.9579 18.263 23.8039 18.263 23.7337L 18.263 11.4615C 18.263 11.2538 18.0997 11.0853 17.8982 11.0853Z"/>
<path id="path1_fill" fill-rule="evenodd" d="M 16.8582 0.378844C 16.8582 0.169055 16.6994 0 16.5005 0L 12.1655 0C 11.9676 0 11.8066 0.169055 11.8066 0.378844C 11.8066 0.379643 11.8079 9.14683 11.8079 9.14683L 5.05053 9.14683L 5.05053 0.378844C 5.05053 0.169055 4.8913 0 4.69289 0L 0.358154 0C 0.161017 0 0 0.169055 0 0.378844L 0 24.1204C 0 24.3299 0.161017 24.5 0.358154 24.5L 4.69289 24.5C 4.8913 24.5 5.05053 24.3299 5.05053 24.1204L 5.05053 13.965L 11.8079 13.965C 11.8079 13.965 11.7959 24.1196 11.7959 24.1204C 11.7959 24.3299 11.9567 24.5 12.1551 24.5L 16.5003 24.5C 16.6989 24.5 16.8577 24.3299 16.8582 24.1204L 16.8582 0.378844Z"/>
<path id="path2_fill" fill-rule="evenodd" d="M 5.61939 2.79886C 5.61939 1.25098 4.36163 0 2.80957 0C 1.25904 0 0 1.25098 0 2.79886C 0 4.34549 1.25904 5.6 2.80957 5.6C 4.36163 5.6 5.61939 4.34549 5.61939 2.79886Z"/>
<path id="path3_fill" fill-rule="evenodd" d="M 4.91697 11.3902C 4.91697 10.779 4.91697 0.380074 4.91697 0.380074C 4.91697 0.170913 4.76086 0 4.56814 0L 0.365154 0C 0.172434 0 0 0.215045 0 0.423938C 0 0.423938 0 13.6728 0 16.1985C 0 16.662 0.267186 16.8 0.612796 16.8C 0.612796 16.8 2.4069 16.8 4.39942 16.8C 4.81504 16.8 4.91697 16.5793 4.91697 16.191C 4.91697 15.3455 4.91697 12.0332 4.91697 11.3902Z"/>
<path id="path4_fill" fill-rule="evenodd" d="M 15.7599 0L 11.0351 0C 10.8186 0 10.642 0.166646 10.642 0.371569L 10.642 11.7569C 10.642 11.7569 9.44144 12.5755 7.73772 12.5755C 6.03427 12.5755 5.58222 11.855 5.58222 10.3005C 5.58222 8.74371 5.58222 0.371569 5.58222 0.371569C 5.58222 0.166646 5.4062 0 5.18912 0L 0.393661 0C 0.177413 0 0 0.166646 0 0.371569C 0 0.371569 0 6.43462 0 11.052C 0 15.6702 2.76149 16.8 6.56037 16.8C 9.67724 16.8 12.1901 15.195 12.1901 15.195C 12.1901 15.195 12.3097 16.041 12.3639 16.141C 12.4178 16.241 12.5589 16.3422 12.7114 16.3422L 15.7621 16.3295C 15.9783 16.3295 16.1557 16.1628 16.1557 15.9587L 16.1541 0.371569C 16.1541 0.166646 15.9778 0 15.7599 0Z"/>
<path id="path5_fill" fill-rule="evenodd" d="M 7.92477 20.8465C 6.34214 20.7987 5.26862 20.0831 5.26862 20.0831L 5.26862 12.4946C 5.26862 12.4946 6.32757 11.8481 7.62692 11.7325C 9.26998 11.5858 10.8532 12.0802 10.8532 15.9841C 10.8532 20.1006 10.1387 20.9129 7.92477 20.8465ZM 9.72431 7.34503C 7.13291 7.34503 5.37032 8.49647 5.37032 8.49647L 5.37032 0.38238C 5.37032 0.170633 5.20035 0 4.99098 0L 0.379875 0C 0.170242 0 0 0.170633 0 0.38238L 0 24.3455C 0 24.557 0.170242 24.7287 0.380415 24.7287C 0.380954 24.7287 3.57859 24.7287 3.57967 24.7287C 3.72375 24.7287 3.83274 24.6548 3.91341 24.5255C 3.993 24.3965 4.10767 23.4203 4.10767 23.4203C 4.10767 23.4203 5.99301 25.2 9.56217 25.2C 13.7527 25.2 16.1557 23.0831 16.1557 15.6967C 16.1557 8.31025 12.3176 7.34503 9.72431 7.34503Z"/>
<path id="path6_fill" fill-rule="evenodd" d="M 11.4969 4.85538L 8.05276 4.85538C 8.05276 4.85538 8.04764 0.26199 8.04764 0.260902C 8.04764 0.0867858 7.95874 0 7.75964 0L 3.06646 0C 2.8838 0 2.786 0.0810727 2.786 0.258181L 2.786 5.0061C 2.786 5.0061 0.434025 5.5796 0.274802 5.62557C 0.116656 5.67209 0 5.81955 0 5.99557L 0 8.97921C 0 9.19386 0.16973 9.36689 0.379603 9.36689L 2.786 9.36689C 2.786 9.36689 2.786 12.4874 2.786 16.5448C 2.786 21.8763 6.48936 22.4 8.98817 22.4C 10.1302 22.4 11.4961 22.0295 11.7216 21.9457C 11.858 21.8948 11.9372 21.7522 11.9372 21.5974L 11.9412 18.3154C 11.9412 18.1015 11.762 17.9279 11.5605 17.9279C 11.3595 17.9279 10.8463 18.0106 10.3177 18.0106C 8.6258 18.0106 8.05276 17.2162 8.05276 16.1881C 8.05276 15.1606 8.05249 9.36689 8.05249 9.36689L 11.4969 9.36689C 11.7068 9.36689 11.8768 9.19386 11.8768 8.97921L 11.8768 5.24197C 11.8768 5.02787 11.7068 4.85538 11.4969 4.85538Z"/>
<path id="path7_fill" fill-rule="evenodd" d="M 25.2875 0C 11.3234 0 0 11.2461 0 25.1201C 0 36.219 7.24563 45.6352 17.2931 48.9568C 18.5569 49.1894 19.0209 48.4119 19.0209 47.7484C 19.0209 47.1494 18.9974 45.1705 18.9865 43.0715C 11.9515 44.5911 10.4671 40.1076 10.4671 40.1076C 9.31677 37.204 7.65935 36.4319 7.65935 36.4319C 5.36502 34.8728 7.8323 34.9049 7.8323 34.9049C 10.3716 35.0817 11.7087 37.4935 11.7087 37.4935C 13.9641 41.3339 17.6243 40.2236 19.0674 39.5818C 19.2943 37.9586 19.9497 36.8496 20.6728 36.2227C 15.0562 35.5875 9.15178 33.4335 9.15178 23.8081C 9.15178 21.0655 10.1396 18.8246 11.7572 17.0654C 11.4947 16.4322 10.6291 13.8777 12.0022 10.4175C 12.0022 10.4175 14.1257 9.74236 18.9581 12.9925C 20.9752 12.4359 23.1384 12.1567 25.2875 12.1472C 27.4365 12.1567 29.6014 12.4359 31.6223 12.9925C 36.4488 9.74236 38.5694 10.4175 38.5694 10.4175C 39.9458 13.8777 39.0798 16.4322 38.8173 17.0654C 40.4387 18.8246 41.4198 21.0655 41.4198 23.8081C 41.4198 33.4564 35.5041 35.5808 29.8732 36.2027C 30.7802 36.9823 31.5884 38.511 31.5884 40.8547C 31.5884 44.2154 31.5591 46.9206 31.5591 47.7484C 31.5591 48.4169 32.0143 49.2002 33.2961 48.9535C 43.3381 45.6281 50.5745 36.2152 50.5745 25.1201C 50.5745 11.2461 39.2528 0 25.2875 0Z"/>
</defs>
</svg>
