<svg xmlns="http://www.w3.org/2000/svg" xmlns:xlink="http://www.w3.org/1999/xlink" width="51" height="75" version="1.1" viewBox="0 0 51 75"><title>google_places</title><desc>Created using Figma</desc><g id="Canvas" transform="translate(-921 -482)"><g id="google_places"><g id="google_places_logo"><g id="Clipped"><mask id="mask0_outline" mask-type="alpha"><g id="SVGID_1_"><use fill="#FFF" transform="translate(928.247 482.041)" xlink:href="#path0_fill"/></g></mask><g id="Clipped" mask="url(#mask0_outline)"><mask id="mask1_outline" mask-type="alpha"><g id="SVGID_3_"><use fill="#FFF" transform="translate(600.92 134.403)" xlink:href="#path1_fill"/></g></mask><g id="Clipped" mask="url(#mask1_outline)"><mask id="mask2_outline" mask-type="alpha"><g id="SVGID_5_"><use fill="#FFF" transform="translate(928.822 488.615)" xlink:href="#path2_fill"/></g></mask><g id="Clipped" mask="url(#mask2_outline)"><mask id="mask3_outline" mask-type="alpha"><g id="SVGID_7_"><use fill="#FFF" transform="translate(928.247 482.041)" xlink:href="#path0_fill"/></g></mask><g id="Rectangle-path" mask="url(#mask3_outline)"><use fill="#F8D846" transform="translate(925.575 485.349)" xlink:href="#path3_fill"/></g></g></g></g></g><g id="Clipped"><mask id="mask4_outline" mask-type="alpha"><g id="SVGID_1_"><use fill="#FFF" transform="translate(928.247 482.041)" xlink:href="#path0_fill"/></g></mask><g id="Clipped" mask="url(#mask4_outline)"><mask id="mask5_outline" mask-type="alpha"><g id="SVGID_9_"><use fill="#FFF" transform="translate(600.92 134.403)" xlink:href="#path1_fill"/></g></mask><g id="Clipped" mask="url(#mask5_outline)"><mask id="mask6_outline" mask-type="alpha"><g id="SVGID_11_"><use fill="#FFF" transform="translate(922.327 500.316)" xlink:href="#path4_fill"/></g></mask><g id="Clipped" mask="url(#mask6_outline)"><mask id="mask7_outline" mask-type="alpha"><g id="SVGID_13_"><use fill="#FFF" transform="translate(928.247 482.041)" xlink:href="#path0_fill"/></g></mask><g id="Clipped" mask="url(#mask7_outline)"><mask id="mask8_outline" mask-type="alpha"><g id="SVGID_15_"><use fill="#FFF" transform="translate(928.247 499.779)" xlink:href="#path5_fill"/></g></mask><g id="Clipped" mask="url(#mask8_outline)"><mask id="mask9_outline" mask-type="alpha"><g id="SVGID_17_"><use fill="#FFF" transform="translate(928.822 488.326)" xlink:href="#path2_fill"/></g></mask><g id="Clipped" mask="url(#mask9_outline)"><mask id="mask10_outline" mask-type="alpha"><g id="SVGID_19_"><use fill="#FFF" transform="translate(928.247 499.779)" xlink:href="#path6_fill"/></g></mask><g id="Rectangle-path" mask="url(#mask10_outline)"><use fill="#3F8CF4" transform="translate(925.574 485.06)" xlink:href="#path3_fill"/></g></g></g></g></g></g></g></g><g id="Clipped"><mask id="mask11_outline" mask-type="alpha"><g id="SVGID_1_"><use fill="#FFF" transform="translate(928.247 482.041)" xlink:href="#path0_fill"/></g></mask><g id="Clipped" mask="url(#mask11_outline)"><mask id="mask12_outline" mask-type="alpha"><g id="SVGID_21_"><use fill="#FFF" transform="translate(600.92 134.403)" xlink:href="#path1_fill"/></g></mask><g id="Clipped" mask="url(#mask12_outline)"><mask id="mask13_outline" mask-type="alpha"><g id="SVGID_23_"><use fill="#FFF" transform="translate(928.822 488.657)" xlink:href="#path7_fill"/></g></mask><g id="Clipped" mask="url(#mask13_outline)"><mask id="mask14_outline" mask-type="alpha"><g id="SVGID_25_"><use fill="#FFF" transform="translate(928.247 482.041)" xlink:href="#path0_fill"/></g></mask><g id="Group" mask="url(#mask14_outline)"><g id="Clipped"><mask id="mask15_outline" mask-type="alpha"><g id="SVGID_27_"><use fill="#FFF" transform="translate(928.247 503.045)" xlink:href="#path8_fill"/></g></mask><g id="Clipped" mask="url(#mask15_outline)"><mask id="mask16_outline" mask-type="alpha"><g id="SVGID_29_"><use fill="#FFF" transform="translate(912.501 513.464)" xlink:href="#path9_fill"/></g></mask><g id="Clipped" mask="url(#mask16_outline)"><mask id="mask17_outline" mask-type="alpha"><g id="SVGID_31_"><use fill="#FFF" transform="translate(928.247 488.615)" xlink:href="#path10_fill"/></g></mask><g id="Rectangle-path" mask="url(#mask17_outline)"><use fill="#20A362" transform="translate(909.253 510.198)" xlink:href="#path11_fill"/></g></g></g></g><g id="Clipped"><mask id="mask18_outline" mask-type="alpha"><g id="SVGID_27_"><use fill="#FFF" transform="translate(928.247 503.045)" xlink:href="#path8_fill"/></g></mask><g id="Clipped" mask="url(#mask18_outline)"><mask id="mask19_outline" mask-type="alpha"><g id="SVGID_33_"><use fill="#FFF" transform="translate(928.247 488.615)" xlink:href="#path10_fill"/></g></mask><g id="Oval" mask="url(#mask19_outline)"><use fill="#ECECEC" transform="translate(912.501 513.464)" xlink:href="#path12_stroke"/></g></g></g></g></g></g></g></g><g id="Clipped"><mask id="mask20_outline" mask-type="alpha"><g id="SVGID_1_"><use fill="#FFF" transform="translate(928.247 482.041)" xlink:href="#path0_fill"/></g></mask><g id="Clipped" mask="url(#mask20_outline)"><mask id="mask21_outline" mask-type="alpha"><g id="SVGID_35_"><use fill="#FFF" transform="translate(600.92 134.403)" xlink:href="#path1_fill"/></g></mask><g id="Clipped" mask="url(#mask21_outline)"><mask id="mask22_outline" mask-type="alpha"><g id="SVGID_37_"><use fill="#FFF" transform="translate(936.148 482.588)" xlink:href="#path13_fill"/></g></mask><g id="Clipped" mask="url(#mask22_outline)"><mask id="mask23_outline" mask-type="alpha"><g id="SVGID_39_"><use fill="#FFF" transform="translate(928.247 482.041)" xlink:href="#path0_fill"/></g></mask><g id="Rectangle-path" mask="url(#mask23_outline)"><use fill="#DC4A3D" transform="translate(932.892 479.312)" xlink:href="#path14_fill"/></g></g></g></g></g><g id="Clipped"><mask id="mask24_outline" mask-type="alpha"><g id="SVGID_43_"><use fill="#FFF" transform="translate(943.417 489.649)" xlink:href="#path15_fill"/></g></mask><g id="Clipped" mask="url(#mask24_outline)"><mask id="mask25_outline" mask-type="alpha"><g id="SVGID_45_"><use fill="#FFF" transform="translate(928.247 482.041)" xlink:href="#path0_fill"/></g></mask><g id="Rectangle-path" mask="url(#mask25_outline)"><use fill="#812A28" transform="translate(940.087 486.383)" xlink:href="#path16_fill"/></g></g></g></g><g id="google_places_label"><use fill="#FFF" transform="translate(920 539)" xlink:href="#path17_fill"/></g></g></g><defs><path id="path0_fill" fill-rule="evenodd" d="M 0 0L 36.5889 0L 36.5889 42.7106L 0 42.7106L 0 0Z"/><path id="path1_fill" fill-rule="evenodd" d="M 0 0L 892.522 0L 892.522 2238.77L 0 2238.77L 0 0Z"/><path id="path2_fill" fill-rule="evenodd" d="M 35.52 17.8615C 35.52 27.7019 27.5856 35.7231 17.76 35.7231C 7.97556 35.7231 0 27.7433 0 17.8615C 0 8.02115 7.93444 0 17.76 0C 27.5856 0.0413462 35.52 8.02115 35.52 17.8615Z"/><path id="path3_fill" d="M 0 0L 42.0156 0L 42.0156 42.2558L 0 42.2558L 0 0Z"/><path id="path4_fill" fill-rule="evenodd" d="M 46.7433 8.68269L 46.7433 3.26635L 43.7833 3.26635L 43.7833 8.68269L 39.7133 8.68269L 39.7133 4.8375L 36.7533 4.8375C 36.4244 4.8375 36.1367 5.12692 36.1367 5.45769C 36.1367 5.78846 35.8489 6.07788 35.52 6.07788L 34.1222 6.07788L 34.1222 2.56346C 34.1222 2.23269 33.8344 1.94327 33.5056 1.94327L 33.3 1.94327C 32.9711 1.94327 32.6833 1.65385 32.6833 1.32308L 32.6833 0L 29.7233 0L 29.7233 1.94327L 26.3111 1.94327L 26.3111 8.10385L 17.5133 8.10385L 17.5133 2.60481L 11.7578 5.25096L 11.7578 10.0471C 11.7578 10.3779 11.47 10.6673 11.1411 10.6673L 10.9356 10.6673C 10.6067 10.6673 10.3189 10.3779 10.3189 10.0471L 10.3189 9.96442C 10.3189 9.63365 10.0311 9.34423 9.70222 9.34423L 8.01667 9.34423C 7.68778 9.34423 7.4 9.63365 7.4 9.96442L 7.4 10.0471C 7.4 10.3779 7.11222 10.6673 6.78333 10.6673L 6.49556 10.6673C 6.16667 10.6673 5.87889 10.3779 5.87889 10.0471L 5.87889 5.25096L 2.91889 5.25096L 2.91889 8.10385L 0 8.10385L 0 29.2317L 17.4722 29.2317L 22.3644 25.9654L 48.47 25.9654L 48.47 8.68269L 46.7433 8.68269Z"/><path id="path5_fill" fill-rule="evenodd" d="M 0 0L 36.5889 0L 36.5889 24.3115L 0 24.3115L 0 0Z"/><path id="path6_fill" fill-rule="evenodd" d="M 0 0L 36.5889 0L 36.5889 24.9731L 0 24.9731L 0 0Z"/><path id="path7_fill" fill-rule="evenodd" d="M 17.76 35.7231C 27.5686 35.7231 35.52 27.7262 35.52 17.8615C 35.52 7.99688 27.5686 0 17.76 0C 7.95142 0 0 7.99688 0 17.8615C 0 27.7262 7.95142 35.7231 17.76 35.7231Z"/><path id="path8_fill" fill-rule="evenodd" d="M 0 0L 36.5889 0L 36.5889 21.6654L 0 21.6654L 0 0Z"/><path id="path9_fill" fill-rule="evenodd" d="M 34.0811 38.4519C 52.9036 38.4519 68.1622 29.8442 68.1622 19.226C 68.1622 8.60776 52.9036 0 34.0811 0C 15.2586 0 0 8.60776 0 19.226C 0 29.8442 15.2586 38.4519 34.0811 38.4519Z"/><path id="path10_fill" fill-rule="evenodd" d="M 0 0L 36.5889 0L 36.5889 36.1365L 0 36.1365L 0 0Z"/><path id="path11_fill" d="M 0 0L 74.6989 0L 74.6989 45.026L 0 45.026L 0 0Z"/><path id="path12_stroke" d="M 34.0811 40.9264C 43.838 40.9264 52.7932 38.7007 59.3959 34.976C 65.9225 31.2942 70.6367 25.8224 70.6367 19.226L 65.6877 19.226C 65.6877 23.2477 62.7727 27.3889 56.9643 30.6656C 51.2321 33.8992 43.1467 35.9774 34.0811 35.9774L 34.0811 40.9264ZM 70.6367 19.226C 70.6367 12.6295 65.9225 7.15773 59.3959 3.47594C 52.7932 -0.248809 43.838 -2.4745 34.0811 -2.4745L 34.0811 2.4745C 43.1467 2.4745 51.2321 4.55269 56.9643 7.78637C 62.7727 11.063 65.6877 15.2042 65.6877 19.226L 70.6367 19.226ZM 34.0811 -2.4745C 24.3242 -2.4745 15.369 -0.248809 8.76632 3.47594C 2.23975 7.15773 -2.4745 12.6295 -2.4745 19.226L 2.4745 19.226C 2.4745 15.2042 5.38957 11.063 11.1979 7.78637C 16.9302 4.55269 25.0155 2.4745 34.0811 2.4745L 34.0811 -2.4745ZM -2.4745 19.226C -2.4745 25.8224 2.23975 31.2942 8.76632 34.976C 15.369 38.7007 24.3242 40.9264 34.0811 40.9264L 34.0811 35.9774C 25.0155 35.9774 16.9302 33.8992 11.1979 30.6656C 5.38957 27.3889 2.4745 23.2477 2.4745 19.226L -2.4745 19.226Z"/><path id="path13_fill" fill-rule="evenodd" d="M 22.1924 11.1541C 22.1924 4.12526 15.6968 -1.41513 8.42017 0.321409C 5.37795 1.02429 2.91128 3.13295 1.43128 5.90314C -1.61094 11.6089 0.732391 15.8676 3.48684 19.2579C 3.48684 19.2579 9.48906 26.2454 10.7224 37.4916C 10.7224 37.4916 10.7224 37.9051 11.0924 37.9051C 11.4624 37.9051 11.4624 37.4916 11.4624 37.4916C 12.6957 26.2454 18.6979 19.2579 18.6979 19.2579C 20.5479 16.9839 22.1924 14.3378 22.1924 11.1541Z"/><path id="path14_fill" d="M 0 0L 28.6956 0L 28.6956 44.4471L 0 44.4471L 0 0Z"/><path id="path15_fill" fill-rule="evenodd" d="M 7.72889 3.96923C 7.72889 6.16058 6.00222 7.93846 3.86444 7.93846C 1.72667 7.93846 0 6.16058 0 3.96923C 0 1.77788 1.72667 0 3.86444 0C 5.96111 0 7.72889 1.77788 7.72889 3.96923Z"/><path id="path16_fill" d="M 0 0L 14.3067 0L 14.3067 14.4712L 0 14.4712L 0 0Z"/><path id="path17_fill" d="M 2.9541 11.7881L 2.9541 17L 1.87305 17L 1.87305 4.20312L 6.23242 4.20312C 7.5625 4.20312 8.61133 4.54297 9.37891 5.22266C 10.1523 5.90234 10.5391 6.83691 10.5391 8.02637C 10.5391 9.22754 10.167 10.1562 9.42285 10.8125C 8.68457 11.4629 7.6123 11.7881 6.20605 11.7881L 2.9541 11.7881ZM 2.9541 10.874L 6.23242 10.874C 7.28125 10.874 8.08105 10.625 8.63184 10.127C 9.18262 9.62891 9.45801 8.93457 9.45801 8.04395C 9.45801 7.15918 9.18262 6.45606 8.63184 5.93457C 8.08691 5.40723 7.31055 5.1377 6.30273 5.12598L 2.9541 5.12598L 2.9541 10.874ZM 13.8965 17L 12.8418 17L 12.8418 3.5L 13.8965 3.5L 13.8965 17ZM 22.7646 17C 22.6592 16.7012 22.5918 16.2588 22.5625 15.6729C 22.1934 16.1533 21.7217 16.5254 21.1475 16.7891C 20.5791 17.0469 19.9756 17.1758 19.3369 17.1758C 18.4229 17.1758 17.6816 16.9209 17.1133 16.4111C 16.5508 15.9014 16.2695 15.2568 16.2695 14.4775C 16.2695 13.5518 16.6533 12.8193 17.4209 12.2803C 18.1943 11.7412 19.2695 11.4717 20.6465 11.4717L 22.5537 11.4717L 22.5537 10.3906C 22.5537 9.71094 22.3428 9.17773 21.9209 8.79102C 21.5049 8.39844 20.8955 8.20215 20.0928 8.20215C 19.3604 8.20215 18.7539 8.38965 18.2734 8.76465C 17.793 9.13965 17.5527 9.59082 17.5527 10.1182L 16.498 10.1094C 16.498 9.35352 16.8496 8.7002 17.5527 8.14941C 18.2559 7.59277 19.1201 7.31445 20.1455 7.31445C 21.2061 7.31445 22.041 7.58106 22.6504 8.11426C 23.2656 8.6416 23.582 9.37988 23.5996 10.3291L 23.5996 14.8291C 23.5996 15.749 23.6963 16.4375 23.8896 16.8945L 23.8896 17L 22.7646 17ZM 19.46 16.2441C 20.1631 16.2441 20.79 16.0742 21.3408 15.7344C 21.8975 15.3945 22.3018 14.9404 22.5537 14.3721L 22.5537 12.2803L 20.6729 12.2803C 19.624 12.292 18.8037 12.4854 18.2119 12.8604C 17.6201 13.2295 17.3242 13.7393 17.3242 14.3896C 17.3242 14.9229 17.5205 15.3652 17.9131 15.7168C 18.3115 16.0684 18.8271 16.2441 19.46 16.2441ZM 29.9277 16.2881C 30.6602 16.2881 31.2725 16.083 31.7646 15.6729C 32.2627 15.2568 32.5322 14.7207 32.5732 14.0645L 33.584 14.0645C 33.5547 14.6445 33.373 15.1748 33.0391 15.6553C 32.7051 16.1299 32.2598 16.502 31.7031 16.7715C 31.1523 17.041 30.5605 17.1758 29.9277 17.1758C 28.6797 17.1758 27.6895 16.7422 26.957 15.875C 26.2305 15.0078 25.8672 13.8418 25.8672 12.377L 25.8672 12.0605C 25.8672 11.123 26.0312 10.2939 26.3594 9.57324C 26.6875 8.85254 27.1563 8.2959 27.7656 7.90332C 28.3809 7.51074 29.0986 7.31445 29.9189 7.31445C 30.9619 7.31445 31.8203 7.625 32.4941 8.24609C 33.1738 8.86719 33.5371 9.68457 33.584 10.6982L 32.5732 10.6982C 32.5264 9.9541 32.2568 9.35352 31.7646 8.89648C 31.2783 8.43945 30.6631 8.21094 29.9189 8.21094C 28.9697 8.21094 28.2314 8.55371 27.7041 9.23926C 27.1826 9.9248 26.9219 10.8857 26.9219 12.1221L 26.9219 12.4297C 26.9219 13.6426 27.1826 14.5889 27.7041 15.2686C 28.2314 15.9482 28.9727 16.2881 29.9277 16.2881ZM 39.376 17.1758C 38.5674 17.1758 37.835 16.9766 37.1787 16.5781C 36.5283 16.1797 36.0215 15.626 35.6582 14.917C 35.2949 14.2021 35.1133 13.4023 35.1133 12.5176L 35.1133 12.1396C 35.1133 11.2256 35.2891 10.4023 35.6406 9.66992C 35.998 8.9375 36.4932 8.36328 37.126 7.94727C 37.7588 7.52539 38.4443 7.31445 39.1826 7.31445C 40.3369 7.31445 41.251 7.70996 41.9248 8.50098C 42.6045 9.28613 42.9443 10.3613 42.9443 11.7266L 42.9443 12.3154L 36.1592 12.3154L 36.1592 12.5176C 36.1592 13.5957 36.4668 14.4951 37.082 15.2158C 37.7031 15.9307 38.4824 16.2881 39.4199 16.2881C 39.9824 16.2881 40.4775 16.1855 40.9053 15.9805C 41.3389 15.7754 41.7314 15.4473 42.083 14.9961L 42.7422 15.4971C 41.9688 16.6162 40.8467 17.1758 39.376 17.1758ZM 39.1826 8.21094C 38.3916 8.21094 37.7236 8.50098 37.1787 9.08105C 36.6396 9.66113 36.3115 10.4404 36.1943 11.4189L 41.8984 11.4189L 41.8984 11.3047C 41.8691 10.3906 41.6084 9.64648 41.1162 9.07227C 40.624 8.49805 39.9795 8.21094 39.1826 8.21094ZM 50.6875 14.583C 50.6875 14.0615 50.4766 13.6426 50.0547 13.3262C 49.6387 13.0098 49.0088 12.7637 48.165 12.5879C 47.3213 12.4062 46.665 12.2012 46.1963 11.9727C 45.7334 11.7383 45.3877 11.4541 45.1592 11.1201C 44.9365 10.7861 44.8252 10.3818 44.8252 9.90723C 44.8252 9.15723 45.1387 8.53906 45.7656 8.05273C 46.3926 7.56055 47.1953 7.31445 48.1738 7.31445C 49.2344 7.31445 50.084 7.57812 50.7227 8.10547C 51.3672 8.62695 51.6895 9.30957 51.6895 10.1533L 50.6348 10.1533C 50.6348 9.59668 50.4004 9.13379 49.9316 8.76465C 49.4687 8.39551 48.8828 8.21094 48.1738 8.21094C 47.4824 8.21094 46.9258 8.36621 46.5039 8.67676C 46.0879 8.98145 45.8799 9.37988 45.8799 9.87207C 45.8799 10.3467 46.0527 10.7158 46.3984 10.9795C 46.75 11.2373 47.3857 11.4746 48.3057 11.6914C 49.2314 11.9082 49.9229 12.1396 50.3799 12.3857C 50.8428 12.6318 51.1855 12.9277 51.4082 13.2734C 51.6309 13.6191 51.7422 14.0381 51.7422 14.5303C 51.7422 15.333 51.417 15.9746 50.7666 16.4551C 50.1221 16.9355 49.2783 17.1758 48.2354 17.1758C 47.1279 17.1758 46.2285 16.9092 45.5371 16.376C 44.8516 15.8369 44.5088 15.1572 44.5088 14.3369L 45.5635 14.3369C 45.6045 14.9521 45.8623 15.4326 46.3369 15.7783C 46.8174 16.1182 47.4502 16.2881 48.2354 16.2881C 48.9678 16.2881 49.5596 16.127 50.0107 15.8047C 50.4619 15.4824 50.6875 15.0752 50.6875 14.583Z"/></defs></svg>