<svg xmlns="http://www.w3.org/2000/svg" xmlns:xlink="http://www.w3.org/1999/xlink" width="240" height="79" version="1.1" viewBox="0 0 240 79"><title>google_logo</title><desc>Created using Figma</desc><g id="Canvas" transform="translate(-746 -320)"><g id="google_logo"><g id="Shape"><use fill="#EA4335" transform="translate(810 342)" xlink:href="#path0_fill"/></g><g id="Shape"><use fill="#FBBC05" transform="translate(852 342)" xlink:href="#path1_fill"/></g><g id="Shape"><use fill="#4285F4" transform="translate(895 342)" xlink:href="#path2_fill"/></g><g id="Shape"><use fill="#34A853" transform="translate(937 323)" xlink:href="#path3_fill"/></g><g id="Shape"><use fill="#EA4335" transform="translate(950 342)" xlink:href="#path4_fill"/></g><g id="Shape"><use fill="#4285F4" transform="translate(746 320)" xlink:href="#path5_fill"/></g></g></g><defs><path id="path0_fill" fill-rule="evenodd" d="M 20 39C 31.0202 39 40 30.727 40 19.5C 40 8.19388 31.0202 0 20 0C 8.9798 0 0 8.19388 0 19.5C 0 30.727 8.9798 39 20 39ZM 20 7.68396C 26.0405 7.68396 31.2449 12.4842 31.2449 19.5C 31.2449 26.4367 26.0405 31.3161 20 31.3161C 13.9595 31.3161 8.75507 26.4455 8.75507 19.5C 8.75507 12.4842 13.9595 7.68396 20 7.68396Z"/><path id="path1_fill" fill-rule="evenodd" d="M 20 39C 31.0202 39 40 30.727 40 19.5C 40 8.19388 31.0202 0 20 0C 8.9798 0 0 8.20267 0 19.5C 0 30.727 8.9798 39 20 39ZM 20 7.68396C 26.0405 7.68396 31.2449 12.4842 31.2449 19.5C 31.2449 26.4367 26.0405 31.3161 20 31.3161C 13.9595 31.3161 8.75507 26.4455 8.75507 19.5C 8.75507 12.4842 13.9595 7.68396 20 7.68396Z"/><path id="path2_fill" fill-rule="evenodd" d="M 38 36.5269L 38 1.19803L 29.7333 1.19803L 29.7333 4.40167L 29.4294 4.40167C 27.4722 2.08548 23.7188 0 18.9911 0C 9.07996 0 0 8.64362 0 19.7543C 0 30.7852 9.07996 39.3578 18.9911 39.3578C 23.7277 39.3578 27.4812 37.2723 29.4294 34.8851L 29.7333 34.8851L 29.7333 37.716C 29.7333 45.2503 25.6849 49.2527 19.1519 49.2527C 13.8255 49.2527 10.5188 45.4722 9.16931 42.2686L 1.59076 45.4012C 3.77142 50.6193 9.55365 57 19.1609 57C 29.3669 57 38 51.063 38 36.5269ZM 19.7686 7.7562C 25.6938 7.7562 30.35 12.8235 30.35 19.7543C 30.35 26.6142 25.6938 31.6105 19.7686 31.6105C 13.7629 31.6105 8.73145 26.6142 8.73145 19.7543C 8.73145 12.8235 13.7629 7.7562 19.7686 7.7562Z"/><path id="path3_fill" d="M 9 0L 9 58L 0 58L 0 0L 9 0Z"/><path id="path4_fill" fill-rule="evenodd" d="M 35.6304 30.3578L 28.9778 25.9267C 26.7602 29.1797 23.7331 31.3248 19.3683 31.3248C 15.0125 31.3248 11.9061 29.3291 9.90857 25.4168L 36 14.6206L 35.1112 12.4051C 33.4921 8.05319 28.5378 0 18.4092 0C 8.35101 0 0 7.90375 0 19.5C 0 30.4369 8.28064 39 19.3683 39C 28.309 39 33.4833 33.5316 35.6304 30.3578ZM 25.9418 11.6754L 8.50061 18.9109C 8.28064 11.3853 14.3437 7.54327 18.6996 7.54327C 22.0963 7.54327 24.9827 9.24008 25.9418 11.6754Z"/><path id="path5_fill" d="M 31.2293 36.2564L 31.2293 27.9229L 59.5798 27.9229C 59.857 29.3753 60 31.0933 60 32.9531C 60 39.2054 58.2745 46.9367 52.7135 52.4451C 47.3044 58.0244 40.3934 61 31.2383 61C 14.2691 61 0 47.3087 0 30.5C 0 13.6913 14.2691 0 31.2383 0C 40.6258 0 47.3134 3.64866 52.338 8.40433L 46.4014 14.2847C 42.7984 10.9371 37.9169 8.33348 31.2293 8.33348C 18.8377 8.33348 9.14618 18.2256 9.14618 30.5C 9.14618 42.7744 18.8377 52.6665 31.2293 52.6665C 39.2669 52.6665 43.8444 49.4695 46.7769 46.5648C 49.1551 44.2091 50.7197 40.8438 51.3366 36.2475L 31.2293 36.2564Z"/></defs></svg>