<svg xmlns="http://www.w3.org/2000/svg" xmlns:xlink="http://www.w3.org/1999/xlink" width="43" height="71" version="1.1" viewBox="0 0 43 71"><title>google_maps</title><desc>Created using Figma</desc><g id="Canvas" transform="translate(-639 -489)"><g id="google_maps"><g id="google_maps_logo"><g id="Oval"><use fill="#40A459" transform="translate(643 489)" xlink:href="#path0_fill"/></g><g id="Shape"><use fill="#378B4E" transform="translate(658 489)" xlink:href="#path1_fill"/></g><g id="Shape"><use fill="#898790" transform="translate(658 498)" xlink:href="#path2_fill"/></g><g id="Shape"><use fill="#7A797F" transform="translate(668 498)" xlink:href="#path3_fill"/></g><g id="Shape"><use fill="#3D9AE3" transform="translate(645 507)" xlink:href="#path4_fill"/></g><g id="Shape"><use fill="#1D81CE" transform="translate(658 521)" xlink:href="#path5_fill"/></g><g id="Shape"><use fill="#FFF" transform="translate(655 505)" xlink:href="#path6_fill"/></g><g id="Shape"><use fill="#E0E0E3" transform="translate(665 519)" xlink:href="#path7_fill"/></g><g id="Shape"><use fill="#FFCE00" transform="translate(644 497)" xlink:href="#path8_fill"/></g><g id="Shape"><use fill="#CD2900" transform="translate(663 489)" xlink:href="#path9_fill"/></g><g id="Shape"><use fill="#891D00" transform="translate(666 492)" xlink:href="#path10_fill"/></g><g id="Shape"><use fill="#FFF" transform="translate(649 495)" xlink:href="#path11_fill"/></g></g><g id="google_maps_label"><use fill="#FFF" transform="translate(638 539)" xlink:href="#path12_fill"/></g></g></g><defs><path id="path0_fill" d="M 17.5 35C 27.165 35 35 27.165 35 17.5C 35 7.83502 27.165 0 17.5 0C 7.83502 0 0 7.83502 0 17.5C 0 27.165 7.83502 35 17.5 35Z"/><path id="path1_fill" d="M 2.30775 0C 2.17311 0 2.03916 0.00205526 1.90521 0.00500113C 1.87113 0.00575472 1.83713 0.00650831 1.80312 0.00753594C 1.67547 0.0110299 1.5481 0.0156885 1.42122 0.0218542C 1.38839 0.0234299 1.35577 0.0256907 1.32301 0.0274034C 1.22646 0.0326786 1.13012 0.0387073 1.03392 0.0454897C 0.985504 0.0489151 0.93716 0.0522035 0.888886 0.0559715C 0.777377 0.0647406 0.666076 0.0744688 0.555052 0.0852932C 0.497635 0.0909109 0.440495 0.0971451 0.383355 0.103242C 0.314718 0.110641 0.24622 0.118383 0.177791 0.126535C 0.118504 0.133592 0.059079 0.140374 0 0.147979C 8.68066 1.26652 15.3845 8.60865 15.3845 17.5C 15.3845 26.3913 8.68073 33.7335 6.92602e-05 34.852C 0.0592175 34.8596 0.118504 34.8665 0.17786 34.8735C 0.24622 34.8816 0.314788 34.8894 0.383425 34.8968C 0.440634 34.9029 0.497843 34.9092 0.555121 34.9147C 0.666145 34.9255 0.777377 34.9353 0.888955 34.944C 0.93716 34.9479 0.985573 34.9512 1.03399 34.9545C 1.13012 34.9613 1.22646 34.9674 1.32308 34.9726C 1.35584 34.9744 1.38853 34.9766 1.42129 34.9781C 1.54824 34.9843 1.67561 34.989 1.80319 34.9925C 1.8372 34.9934 1.8712 34.9942 1.90528 34.995C 2.03909 34.9979 2.17318 35 2.30782 35C 12.079 35 20 27.1649 20 17.4998C 20 7.83478 12.0789 0 2.30775 0Z"/><path id="path2_fill" d="M 0 6.83039L 7.36645 2.69065C 7.36645 2.69065 15.4246 4.37147 17.2844 1.04814L 17.8709 0L 18.381 1.08584C 19.4401 3.34039 20 5.84684 20 8.33413C 20 14.0674 17.1001 19.425 12.2427 22.6656L 11.7415 23L 0 6.83039Z"/><path id="path3_fill" d="M 10 8.27671C 10 5.27946 9.21713 2.45977 7.83918 0L 7.29247 0.968846C 6.6318 2.13976 5.76225 3.33702 4.89562 4.41409C 5.18659 5.6563 5.34124 6.94895 5.34124 8.27671C 5.34124 13.1204 3.29647 17.4997 0 20.6462L 1.66753 23C 6.67732 19.928 10 14.4563 10 8.27671Z"/><path id="path4_fill" d="M 15.0984 17C 9.09677 17 3.56861 13.94 0.310669 8.81446L 0 8.32576L 9.7632 0L 21 15.9746L 20.284 16.2095C 18.6088 16.7341 16.8642 17 15.0984 17Z"/><path id="path5_fill" d="M 8 1.88732L 6.84988 0C 4.81963 1.47157 2.49137 2.50539 0 2.8773C 0.724326 2.98539 1.46977 3 2.21987 3C 4.24208 3 6.2016 2.63121 8 1.88732Z"/><path id="path6_fill" d="M 0 2.27655L 3.09611 0L 15 16.2806L 14.4214 16.6135C 13.604 17.0838 12.7437 17.4922 11.8644 17.8273L 11.4114 18L 0 2.27655Z"/><path id="path7_fill" d="M 1.26386 4C 2.58446 3.56472 3.83664 2.9954 5 2.30836L 3.21392 0C 2.24197 0.889516 1.16423 1.68008 0 2.35441L 1.26386 4Z"/><path id="path8_fill" d="M 1.32393 17.4651C 0.855392 16.5991 0.457439 15.6869 0.141162 14.7539L 0 14.2051L 20.0307 0L 23 2.26902L 1.61414 18L 1.32393 17.4651Z"/><path id="path9_fill" d="M 6.55303 16.8158C 5.45872 15.713 0 10.0447 0 6.75492C 0 3.03021 3.14022 0 7 0C 10.8598 0 14 3.03021 14 6.75492C 14 10.0425 8.54121 15.7125 7.4469 16.8158C 7.20336 17.0614 6.79664 17.0614 6.55303 16.8158Z"/><path id="path10_fill" d="M 3 6C 1.34573 6 0 4.6542 0 3C 0 1.3458 1.3458 0 3 0C 4.65427 0 6 1.3458 6 3C 6 4.6542 4.65427 6 3 6Z"/><path id="path11_fill" d="M 3.50003 7C 5.42984 7 7 5.42986 7 3.49993C 7 3.19474 6.7526 2.94727 6.44736 2.94727L 4.23685 2.94727C 3.93167 2.94727 3.6842 3.19468 3.6842 3.49993C 3.6842 3.80512 3.9316 4.05259 4.23685 4.05259L 5.83029 4.05259C 5.58024 5.10756 4.63027 5.89475 3.49997 5.89475C 2.17959 5.89475 1.10529 4.82041 1.10529 3.5C 1.10529 2.17959 2.17959 1.10525 3.49997 1.10525C 4.08379 1.10525 4.64606 1.31769 5.08326 1.70336C 5.31228 1.90532 5.66145 1.88335 5.86327 1.65453C 6.06515 1.42564 6.04326 1.07639 5.81444 0.874502C 5.17515 0.310564 4.35321 0 3.49997 0C 1.57016 0 0 1.57014 0 3.50007C 0 5.43 1.57016 7 3.50003 7Z"/><path id="path12_fill" d="M 3.38379 4.20312L 8.10352 15.4971L 12.8408 4.20312L 14.2822 4.20312L 14.2822 17L 13.2012 17L 13.2012 11.4277L 13.2891 5.71484L 8.52539 17L 7.69043 17L 2.94434 5.75879L 3.03223 11.3926L 3.03223 17L 1.95117 17L 1.95117 4.20312L 3.38379 4.20312ZM 23.2822 17C 23.1768 16.7012 23.1094 16.2588 23.0801 15.6729C 22.7109 16.1533 22.2393 16.5254 21.665 16.7891C 21.0967 17.0469 20.4932 17.1758 19.8545 17.1758C 18.9404 17.1758 18.1992 16.9209 17.6309 16.4111C 17.0684 15.9014 16.7871 15.2568 16.7871 14.4775C 16.7871 13.5518 17.1709 12.8193 17.9385 12.2803C 18.7119 11.7412 19.7871 11.4717 21.1641 11.4717L 23.0713 11.4717L 23.0713 10.3906C 23.0713 9.71094 22.8604 9.17773 22.4385 8.79102C 22.0225 8.39844 21.4131 8.20215 20.6104 8.20215C 19.8779 8.20215 19.2715 8.38965 18.791 8.76465C 18.3105 9.13965 18.0703 9.59082 18.0703 10.1182L 17.0156 10.1094C 17.0156 9.35352 17.3672 8.7002 18.0703 8.14941C 18.7734 7.59277 19.6377 7.31445 20.6631 7.31445C 21.7236 7.31445 22.5586 7.58106 23.168 8.11426C 23.7832 8.6416 24.0996 9.37988 24.1172 10.3291L 24.1172 14.8291C 24.1172 15.749 24.2139 16.4375 24.4072 16.8945L 24.4072 17L 23.2822 17ZM 19.9775 16.2441C 20.6807 16.2441 21.3076 16.0742 21.8584 15.7344C 22.415 15.3945 22.8193 14.9404 23.0713 14.3721L 23.0713 12.2803L 21.1904 12.2803C 20.1416 12.292 19.3213 12.4854 18.7295 12.8604C 18.1377 13.2295 17.8418 13.7393 17.8418 14.3896C 17.8418 14.9229 18.0381 15.3652 18.4307 15.7168C 18.8291 16.0684 19.3447 16.2441 19.9775 16.2441ZM 34.5762 12.3418C 34.5762 13.8242 34.248 15.002 33.5918 15.875C 32.9355 16.7422 32.0566 17.1758 30.9551 17.1758C 29.6543 17.1758 28.6582 16.7188 27.9668 15.8047L 27.9668 20.6562L 26.9209 20.6562L 26.9209 7.49023L 27.8965 7.49023L 27.9492 8.83496C 28.6348 7.82129 29.6279 7.31445 30.9287 7.31445C 32.0654 7.31445 32.9561 7.74512 33.6006 8.60645C 34.251 9.46777 34.5762 10.6631 34.5762 12.1924L 34.5762 12.3418ZM 33.5215 12.1572C 33.5215 10.9443 33.2725 9.98633 32.7744 9.2832C 32.2764 8.58008 31.582 8.22852 30.6914 8.22852C 30.0469 8.22852 29.4932 8.38379 29.0303 8.69434C 28.5674 9.00488 28.2129 9.45605 27.9668 10.0479L 27.9668 14.6094C 28.2187 15.1543 28.5791 15.5703 29.0479 15.8574C 29.5166 16.1445 30.0703 16.2881 30.709 16.2881C 31.5938 16.2881 32.2822 15.9365 32.7744 15.2334C 33.2725 14.5244 33.5215 13.499 33.5215 12.1572ZM 42.6094 14.583C 42.6094 14.0615 42.3984 13.6426 41.9766 13.3262C 41.5605 13.0098 40.9307 12.7637 40.0869 12.5879C 39.2432 12.4062 38.5869 12.2012 38.1182 11.9727C 37.6553 11.7383 37.3096 11.4541 37.0811 11.1201C 36.8584 10.7861 36.7471 10.3818 36.7471 9.90723C 36.7471 9.15723 37.0605 8.53906 37.6875 8.05273C 38.3145 7.56055 39.1172 7.31445 40.0957 7.31445C 41.1563 7.31445 42.0059 7.57812 42.6445 8.10547C 43.2891 8.62695 43.6113 9.30957 43.6113 10.1533L 42.5566 10.1533C 42.5566 9.59668 42.3223 9.13379 41.8535 8.76465C 41.3906 8.39551 40.8047 8.21094 40.0957 8.21094C 39.4043 8.21094 38.8477 8.36621 38.4258 8.67676C 38.0098 8.98145 37.8018 9.37988 37.8018 9.87207C 37.8018 10.3467 37.9746 10.7158 38.3203 10.9795C 38.6719 11.2373 39.3076 11.4746 40.2275 11.6914C 41.1533 11.9082 41.8447 12.1396 42.3018 12.3857C 42.7646 12.6318 43.1074 12.9277 43.3301 13.2734C 43.5527 13.6191 43.6641 14.0381 43.6641 14.5303C 43.6641 15.333 43.3389 15.9746 42.6885 16.4551C 42.0439 16.9355 41.2002 17.1758 40.1572 17.1758C 39.0498 17.1758 38.1504 16.9092 37.459 16.376C 36.7734 15.8369 36.4307 15.1572 36.4307 14.3369L 37.4854 14.3369C 37.5264 14.9521 37.7842 15.4326 38.2588 15.7783C 38.7393 16.1182 39.3721 16.2881 40.1572 16.2881C 40.8896 16.2881 41.4814 16.127 41.9326 15.8047C 42.3838 15.4824 42.6094 15.0752 42.6094 14.583Z"/></defs></svg>