<svg width="70" height="68" viewBox="0 0 70 68" version="1.1" xmlns="http://www.w3.org/2000/svg" xmlns:xlink="http://www.w3.org/1999/xlink">
<title>google_calendar</title>
<desc>Created using Figma</desc>
<g id="Canvas" transform="translate(-1050 -489)">
<g id="google_calendar">
<g id="google_calendar_logo">
<g id="Shape">
<use xlink:href="#path0_fill" transform="translate(1069 489)" fill="#E6E6E6"/>
</g>
<g id="Shape">
<use xlink:href="#path1_fill" transform="translate(1066 494)" fill="#3A5BBC"/>
</g>
<g id="Shape">
<use xlink:href="#path2_fill" transform="translate(1067 510)" fill="#518EF8"/>
</g>
<g id="Group">
<g id="Shape">
<use xlink:href="#path3_fill" transform="translate(1074.07 501.671)" fill="#FFFFFF"/>
</g>
<g id="Shape">
<use xlink:href="#path4_fill" transform="translate(1086.5 501.055)" fill="#FFFFFF"/>
</g>
</g>
</g>
<g id="google_calendar_label">
<use xlink:href="#path5_fill" transform="translate(1049 539)" fill="#FFFFFF"/>
</g>
</g>
</g>
<defs>
<path id="path0_fill" fill-rule="evenodd" d="M 30.3773 0L 1.62183 0C 0.725952 0 0 0.725128 0 1.61856L 0 7L 32 7L 32 1.61856C 32.0001 0.725037 31.2731 0 30.3773 0ZM 8.23315 3.23813C 7.80432 3.23813 7.45642 2.89108 7.45642 2.46344C 7.45642 2.0358 7.80432 1.68875 8.23315 1.68875C 8.66187 1.68875 9.00989 2.0358 9.00989 2.46344C 9.00989 2.89108 8.66187 3.23813 8.23315 3.23813ZM 23.1934 2.46344C 23.1934 2.89108 23.5413 3.23813 23.9701 3.23813C 24.3988 3.23813 24.7468 2.89108 24.7468 2.46344C 24.7468 2.0358 24.3988 1.68875 23.9701 1.68875C 23.5413 1.68875 23.1934 2.0358 23.1934 2.46344Z"/>
<path id="path1_fill" d="M 36.9643 2.37919L 34.5017 15.5L 35.5075 29.1442C 35.5813 30.1454 34.8061 31 33.8221 31L 3.17679 31C 2.19383 31 1.41763 30.1454 1.49141 29.1442L 2.49829 15.5L 0.0356871 2.37919C -0.195997 1.14555 0.7298 0 1.96005 0L 35.039 0C 36.2703 0 37.196 1.14555 36.9643 2.37919Z"/>
<path id="path2_fill" d="M 32.311 15L 1.68895 15C 0.706743 15 -0.0688735 14.1729 0.00485381 13.2041L 1.01097 0L 18.6618 0L 32.9901 0L 33.9951 13.2041C 34.0689 14.1729 33.2943 15 32.311 15Z"/>
<path id="path3_fill" d="M 9.39237 4.71795C 9.39237 2.11642 7.28565 0 4.69619 0C 2.10673 0 0 2.11642 0 4.71795L 1.56542 4.71795C 1.56542 3.0084 2.96993 1.6176 4.69626 1.6176C 6.42259 1.6176 7.8271 3.0084 7.8271 4.71795C 7.8271 6.4275 6.42259 7.8183 4.69626 7.8183L 3.23521 7.8183L 3.23521 9.4359L 4.69626 9.4359C 6.42259 9.4359 7.8271 10.8267 7.8271 12.5363C 7.8271 14.2458 6.42259 15.6366 4.69626 15.6366C 2.96993 15.6366 1.56542 14.2458 1.56542 12.5363L 1.03143e-15 12.5363C 1.03143e-15 15.1378 2.10673 17.2542 4.69619 17.2542C 7.28565 17.2542 9.39237 15.1378 9.39237 12.5363C 9.39237 10.9115 8.57061 9.4761 7.32288 8.6271C 8.57069 7.77817 9.39237 6.34267 9.39237 4.71795Z"/>
<path id="path4_fill" d="M 0 3.3732L 0.803032 4.76175L 3.89758 2.85098L 3.89758 17.062L 5.46293 17.062L 5.46293 0L 0 3.3732Z"/>
<path id="path5_fill" d="M 11.0312 13.0098C 10.8848 14.3574 10.4014 15.3887 9.58105 16.1035C 8.7666 16.8184 7.67969 17.1758 6.32031 17.1758C 5.37109 17.1758 4.53027 16.9385 3.79785 16.4639C 3.07129 15.9893 2.50879 15.3184 2.11035 14.4512C 1.71191 13.5781 1.50977 12.582 1.50391 11.4629L 1.50391 9.80176C 1.50391 8.66504 1.70313 7.65723 2.10156 6.77832C 2.5 5.89941 3.07129 5.22266 3.81543 4.74805C 4.56543 4.26758 5.42676 4.02734 6.39941 4.02734C 7.77051 4.02734 8.85156 4.39941 9.64258 5.14355C 10.4395 5.88184 10.9023 6.9043 11.0312 8.21094L 9.94141 8.21094C 9.67188 6.03711 8.49121 4.9502 6.39941 4.9502C 5.23926 4.9502 4.31348 5.38379 3.62207 6.25098C 2.93652 7.11816 2.59375 8.31641 2.59375 9.8457L 2.59375 11.4102C 2.59375 12.8867 2.92773 14.0645 3.5957 14.9434C 4.26953 15.8223 5.17773 16.2617 6.32031 16.2617C 7.45117 16.2617 8.30371 15.9922 8.87793 15.4531C 9.45215 14.9082 9.80664 14.0938 9.94141 13.0098L 11.0312 13.0098ZM 19.416 17C 19.3105 16.7012 19.2432 16.2588 19.2139 15.6729C 18.8447 16.1533 18.373 16.5254 17.7988 16.7891C 17.2305 17.0469 16.627 17.1758 15.9883 17.1758C 15.0742 17.1758 14.333 16.9209 13.7646 16.4111C 13.2021 15.9014 12.9209 15.2568 12.9209 14.4775C 12.9209 13.5518 13.3047 12.8193 14.0723 12.2803C 14.8457 11.7412 15.9209 11.4717 17.2979 11.4717L 19.2051 11.4717L 19.2051 10.3906C 19.2051 9.71094 18.9941 9.17773 18.5723 8.79102C 18.1563 8.39844 17.5469 8.20215 16.7441 8.20215C 16.0117 8.20215 15.4053 8.38965 14.9248 8.76465C 14.4443 9.13965 14.2041 9.59082 14.2041 10.1182L 13.1494 10.1094C 13.1494 9.35352 13.501 8.7002 14.2041 8.14941C 14.9072 7.59277 15.7715 7.31445 16.7969 7.31445C 17.8574 7.31445 18.6924 7.58106 19.3018 8.11426C 19.917 8.6416 20.2334 9.37988 20.251 10.3291L 20.251 14.8291C 20.251 15.749 20.3477 16.4375 20.541 16.8945L 20.541 17L 19.416 17ZM 16.1113 16.2441C 16.8145 16.2441 17.4414 16.0742 17.9922 15.7344C 18.5488 15.3945 18.9531 14.9404 19.2051 14.3721L 19.2051 12.2803L 17.3242 12.2803C 16.2754 12.292 15.4551 12.4854 14.8633 12.8604C 14.2715 13.2295 13.9756 13.7393 13.9756 14.3896C 13.9756 14.9229 14.1719 15.3652 14.5645 15.7168C 14.9629 16.0684 15.4785 16.2441 16.1113 16.2441ZM 24.2412 17L 23.1865 17L 23.1865 3.5L 24.2412 3.5L 24.2412 17ZM 30.7891 17.1758C 29.9805 17.1758 29.248 16.9766 28.5918 16.5781C 27.9414 16.1797 27.4346 15.626 27.0713 14.917C 26.708 14.2021 26.5264 13.4023 26.5264 12.5176L 26.5264 12.1396C 26.5264 11.2256 26.7021 10.4023 27.0537 9.66992C 27.4111 8.9375 27.9062 8.36328 28.5391 7.94727C 29.1719 7.52539 29.8574 7.31445 30.5957 7.31445C 31.75 7.31445 32.6641 7.70996 33.3379 8.50098C 34.0176 9.28613 34.3574 10.3613 34.3574 11.7266L 34.3574 12.3154L 27.5723 12.3154L 27.5723 12.5176C 27.5723 13.5957 27.8799 14.4951 28.4951 15.2158C 29.1162 15.9307 29.8955 16.2881 30.833 16.2881C 31.3955 16.2881 31.8906 16.1855 32.3184 15.9805C 32.752 15.7754 33.1445 15.4473 33.4961 14.9961L 34.1553 15.4971C 33.3818 16.6162 32.2598 17.1758 30.7891 17.1758ZM 30.5957 8.21094C 29.8047 8.21094 29.1367 8.50098 28.5918 9.08105C 28.0527 9.66113 27.7246 10.4404 27.6074 11.4189L 33.3115 11.4189L 33.3115 11.3047C 33.2822 10.3906 33.0215 9.64648 32.5293 9.07227C 32.0371 8.49805 31.3926 8.21094 30.5957 8.21094ZM 37.4072 7.49023L 37.4424 9.11621C 37.7998 8.53027 38.2451 8.08496 38.7783 7.78027C 39.3115 7.46973 39.9004 7.31445 40.5449 7.31445C 41.5645 7.31445 42.3232 7.60156 42.8213 8.17578C 43.3193 8.75 43.5713 9.61133 43.5771 10.7598L 43.5771 17L 42.5312 17L 42.5312 10.751C 42.5254 9.90137 42.3438 9.26855 41.9863 8.85254C 41.6348 8.43652 41.0693 8.22852 40.29 8.22852C 39.6396 8.22852 39.0625 8.43359 38.5586 8.84375C 38.0605 9.24805 37.6914 9.7959 37.4512 10.4873L 37.4512 17L 36.4053 17L 36.4053 7.49023L 37.4072 7.49023ZM 45.8799 12.1572C 45.8799 10.6807 46.208 9.50586 46.8643 8.63281C 47.5264 7.75391 48.4229 7.31445 49.5537 7.31445C 50.8369 7.31445 51.8154 7.82129 52.4893 8.83496L 52.4893 3.5L 53.5352 3.5L 53.5352 17L 52.5508 17L 52.5068 15.7344C 51.833 16.6953 50.8428 17.1758 49.5361 17.1758C 48.4404 17.1758 47.5557 16.7363 46.8818 15.8574C 46.2139 14.9727 45.8799 13.7803 45.8799 12.2803L 45.8799 12.1572ZM 46.9434 12.3418C 46.9434 13.5547 47.1865 14.5127 47.6729 15.2158C 48.1592 15.9131 48.8447 16.2617 49.7295 16.2617C 51.0244 16.2617 51.9443 15.6904 52.4893 14.5479L 52.4893 10.083C 51.9443 8.84668 51.0303 8.22852 49.7471 8.22852C 48.8623 8.22852 48.1738 8.57715 47.6816 9.27441C 47.1895 9.96582 46.9434 10.9883 46.9434 12.3418ZM 62.3066 17C 62.2012 16.7012 62.1338 16.2588 62.1045 15.6729C 61.7354 16.1533 61.2637 16.5254 60.6895 16.7891C 60.1211 17.0469 59.5176 17.1758 58.8789 17.1758C 57.9648 17.1758 57.2236 16.9209 56.6553 16.4111C 56.0928 15.9014 55.8115 15.2568 55.8115 14.4775C 55.8115 13.5518 56.1953 12.8193 56.9629 12.2803C 57.7363 11.7412 58.8115 11.4717 60.1885 11.4717L 62.0957 11.4717L 62.0957 10.3906C 62.0957 9.71094 61.8848 9.17773 61.4629 8.79102C 61.0469 8.39844 60.4375 8.20215 59.6348 8.20215C 58.9023 8.20215 58.2959 8.38965 57.8154 8.76465C 57.335 9.13965 57.0947 9.59082 57.0947 10.1182L 56.04 10.1094C 56.04 9.35352 56.3916 8.7002 57.0947 8.14941C 57.7979 7.59277 58.6621 7.31445 59.6875 7.31445C 60.748 7.31445 61.583 7.58106 62.1924 8.11426C 62.8076 8.6416 63.124 9.37988 63.1416 10.3291L 63.1416 14.8291C 63.1416 15.749 63.2383 16.4375 63.4316 16.8945L 63.4316 17L 62.3066 17ZM 59.002 16.2441C 59.7051 16.2441 60.332 16.0742 60.8828 15.7344C 61.4395 15.3945 61.8437 14.9404 62.0957 14.3721L 62.0957 12.2803L 60.2148 12.2803C 59.166 12.292 58.3457 12.4854 57.7539 12.8604C 57.1621 13.2295 56.8662 13.7393 56.8662 14.3896C 56.8662 14.9229 57.0625 15.3652 57.4551 15.7168C 57.8535 16.0684 58.3691 16.2441 59.002 16.2441ZM 70.3486 8.38672C 70.126 8.3457 69.8887 8.3252 69.6367 8.3252C 68.9805 8.3252 68.4238 8.50977 67.9668 8.87891C 67.5156 9.24219 67.1934 9.77246 67 10.4697L 67 17L 65.9541 17L 65.9541 7.49023L 66.9824 7.49023L 67 9.00195C 67.5566 7.87695 68.4502 7.31445 69.6807 7.31445C 69.9736 7.31445 70.2051 7.35254 70.375 7.42871L 70.3486 8.38672Z"/>
</defs>
</svg>
