<svg xmlns="http://www.w3.org/2000/svg" xmlns:xlink="http://www.w3.org/1999/xlink" width="61" height="71" version="1.1" viewBox="0 0 61 71"><title>grunt_logo</title><desc>Created using Figma</desc><g id="Canvas" transform="translate(-1001 1223)"><g id="grunt_logo"><g id="Shape"><use fill="#FBA919" transform="translate(1011 -1216)" xlink:href="#path0_fill"/></g><g id="Shape"><use fill="#E78724" transform="translate(1020 -1197)" xlink:href="#path1_fill"/></g><g id="Shape"><use fill="#E78724" transform="translate(1014 -1218)" xlink:href="#path2_fill"/></g><g id="Shape"><use fill="#E78724" transform="translate(1010 -1215)" xlink:href="#path3_fill"/></g><g id="Shape"><use fill="#E78724" transform="translate(1012 -1206)" xlink:href="#path4_fill"/></g><g id="Shape"><use fill="#FDC168" transform="translate(1014 -1217)" xlink:href="#path5_fill"/></g><g id="Shape"><use fill="#FBA919" transform="translate(1011 -1219)" xlink:href="#path6_fill"/></g><g id="Shape"><use fill="#FFF" transform="translate(1019 -1203)" xlink:href="#path7_fill"/></g><g id="Shape"><use fill="#C9C9C9" transform="translate(1020 -1202)" xlink:href="#path8_fill"/></g><g id="Shape"><use fill="#463014" transform="translate(1010 -1223)" xlink:href="#path9_fill"/></g><g id="Shape"><use fill="#463014" transform="translate(1014 -1218)" xlink:href="#path10_fill"/></g><g id="Shape"><use fill="#463014" transform="translate(1018 -1204)" xlink:href="#path11_fill"/></g><g id="Shape"><use fill="#463014" transform="translate(1016 -1204)" xlink:href="#path12_fill"/></g><g id="Shape"><use fill="#463014" transform="translate(1009 -1213)" xlink:href="#path13_fill"/></g><g id="Shape"><use fill="#463014" transform="translate(1010 -1220)" xlink:href="#path14_fill"/></g><g id="Shape"><use fill="#463014" transform="translate(1010 -1220)" xlink:href="#path15_fill"/></g><g id="Shape"><use fill="#463014" transform="translate(1014 -1218)" xlink:href="#path16_fill"/></g><g id="Shape"><use fill="#463014" transform="translate(1014 -1218)" xlink:href="#path17_fill"/></g><g id="Shape"><use fill="#FFF" transform="translate(1010 -1188)" xlink:href="#path18_fill"/></g><g id="Shape"><use fill="#C9C9C9" transform="translate(1011 -1186)" xlink:href="#path19_fill"/></g><g id="Shape"><use fill="#463014" transform="translate(1010 -1188)" xlink:href="#path20_fill"/></g><g id="Shape"><use fill="#463014" transform="translate(1020 -1190)" xlink:href="#path21_fill"/></g><g id="Shape"><use fill="#E78724" transform="translate(1035 -1197)" xlink:href="#path22_fill"/></g><g id="Shape"><use fill="#E78724" transform="translate(1036 -1218)" xlink:href="#path23_fill"/></g><g id="Shape"><use fill="#E78724" transform="translate(1031 -1215)" xlink:href="#path24_fill"/></g><g id="Shape"><use fill="#E78724" transform="translate(1033 -1206)" xlink:href="#path25_fill"/></g><g id="Shape"><use fill="#FDC168" transform="translate(1047 -1217)" xlink:href="#path26_fill"/></g><g id="Shape"><use fill="#FBA919" transform="translate(1032 -1219)" xlink:href="#path27_fill"/></g><g id="Shape"><use fill="#FFF" transform="translate(1036 -1203)" xlink:href="#path28_fill"/></g><g id="Shape"><use fill="#C9C9C9" transform="translate(1036 -1202)" xlink:href="#path29_fill"/></g><g id="Shape"><use fill="#463014" transform="translate(1038 -1220)" xlink:href="#path30_fill"/></g><g id="Shape"><use fill="#463014" transform="translate(1040 -1218)" xlink:href="#path31_fill"/></g><g id="Shape"><use fill="#463014" transform="translate(1036 -1204)" xlink:href="#path32_fill"/></g><g id="Shape"><use fill="#463014" transform="translate(1033 -1204)" xlink:href="#path33_fill"/></g><g id="Shape"><use fill="#463014" transform="translate(1035 -1213)" xlink:href="#path34_fill"/></g><g id="Shape"><use fill="#463014" transform="translate(1019 -1217)" xlink:href="#path35_fill"/></g><g id="Shape"><use fill="#463014" transform="translate(1038 -1220)" xlink:href="#path36_fill"/></g><g id="Shape"><use fill="#463014" transform="translate(1036 -1220)" xlink:href="#path37_fill"/></g><g id="Shape"><use fill="#463014" transform="translate(1040 -1218)" xlink:href="#path38_fill"/></g><g id="Shape"><use fill="#463014" transform="translate(1033 -1218)" xlink:href="#path39_fill"/></g><g id="Shape"><use fill="#E78724" transform="translate(1027 -1205)" xlink:href="#path40_fill"/></g><g id="Shape"><use fill="#463014" transform="translate(1028 -1205)" xlink:href="#path41_fill"/></g><g id="Shape"><use fill="#FFF" transform="translate(1039 -1188)" xlink:href="#path42_fill"/></g><g id="Shape"><use fill="#C9C9C9" transform="translate(1041 -1186)" xlink:href="#path43_fill"/></g><g id="Shape"><use fill="#463014" transform="translate(1039 -1188)" xlink:href="#path44_fill"/></g><g id="Shape"><use fill="#463014" transform="translate(1020 -1181)" xlink:href="#path45_fill"/></g><g id="Shape"><use fill="#463014" transform="translate(1036 -1190)" xlink:href="#path46_fill"/></g><g id="Shape"><use fill="#FFF" transform="translate(1001 -1164)" xlink:href="#path47_fill"/></g></g></g><defs><path id="path0_fill" d="M 1.37904 6.96339C 1.37904 6.96339 2.33763 10.7102 2.48899 11.9648C 2.62353 13.2194 0 15.9998 0 17.39C 0 18.7802 0.554978 21.2724 3.58213 22.527C 6.60928 23.7816 7.02972 26.9689 7.02972 28.9186C 7.02972 30.8683 5.91977 34.6151 5.91977 34.6151C 5.91977 34.6151 5.23025 43.9227 8.94692 45.5842C 12.6636 47.2457 11.8395 47.2457 12.6636 47.2457C 13.4876 47.2457 19.5588 49.7549 23.1409 48.7715C 26.723 47.8052 27.6816 46.6862 27.6816 46.6862C 27.6816 46.6862 31.2638 46.9575 32.3737 43.7702C 33.4837 40.5828 34.1732 33.903 33.7528 30.8513C 33.3323 27.7996 32.7942 23.7646 35.2663 22.3744C 37.7553 20.9842 40.362 19.3227 39.9584 17.9325C 39.538 16.5423 37.3349 14.5926 37.3349 14.5926C 37.3349 14.5926 36.7799 11.1171 37.2003 10.2863C 37.6208 9.4556 40.093 7.37028 38.7139 5.84443C 37.3349 4.31859 34.8627 4.31859 34.8627 4.31859L 31.701 4.58985C 31.701 4.58985 26.3194 -0.275899 19.2897 0.0123164C 12.26 0.283578 7.85378 4.58985 7.85378 4.58985C 7.85378 4.58985 5.51614 3.75911 3.44759 4.58985C 1.37904 5.43754 0.958598 4.6068 1.37904 6.96339Z"/><path id="path1_fill" fill-rule="evenodd" d="M 4.73206 3.44177C 5.1825 2.31189 6 0.191162 6 0.191162L 4.73206 0C 4.73206 0 3.34729 0.451904 3.34729 1.56445C 3.34729 4.22388 2.3963 5.26685 2.3963 5.26685C 2.3963 5.26685 4.24817 4.65845 4.73206 3.44177ZM 0.0272217 16.4958C 2.01257 13.4365 4.71533 9.12573 4.71533 9.12573L 2.01257 17C 2.01257 17 -0.273132 16.9652 0.0272217 16.4958Z"/><path id="path2_fill" fill-rule="evenodd" d="M 4.79132 1.02258C 2.88147 -0.44043 0 0.0960693 0 0.0960693C 1.43439 0.402466 1.54565 1.03992 1.76288 2.28406C 1.82214 2.62378 1.8894 3.00879 1.99359 3.4447C 2.47943 5.46045 4.03741 6.15942 4.03741 6.15942L 7.27075 3.65601C 7.27075 3.65601 6.7179 2.50183 4.79132 1.02258ZM 6.9859 21.6674C 10.1019 22.7566 11.7772 20.8221 11.7772 20.8221C 12.5646 19.5054 11.0736 17.6198 10.2694 17.1646C 9.46533 16.7094 3.55157 14.5311 3.55157 15.6202C 3.55157 16.7094 3.86987 20.5782 6.9859 21.6674Z"/><path id="path3_fill" fill-rule="evenodd" d="M 12.8814 0C 10.7458 1.08472 7.79669 2.61023 7.79669 2.61023L 8.94922 3.1864C 8.83057 3.37292 8.77972 3.47461 8.77972 3.47461L 9.96619 4.01697C 9.96619 4.01697 12.8644 6.11865 14.6272 7.45764C 14.0339 5.64404 12.3051 2.77966 12.3051 2.77966C 12.3051 2.77966 11.8306 1.45764 12.8814 0ZM 8.98309 9.91528C 10.6271 10.0339 12.6949 10.8136 13.9492 12.5933C 14.0764 12.7736 14.202 12.9705 14.3296 13.1705L 14.3313 13.1732C 14.6111 13.6115 14.9003 14.0645 15.2373 14.3899C 16.017 15.1187 16.7627 15.4576 17.4237 15.4237C 16.8474 16.1356 13.2373 15.8813 10.7628 12.6271C 9.44073 10.8983 4.83057 10.6949 4.83057 10.6949C 4.83057 10.6949 6.16956 9.69495 8.98309 9.91528ZM 2.0509 15.356C 1.06787 17.1356 6.18652 18.8983 6.18652 18.8983C 8.32208 19.678 8.47461 22.2543 8.54242 24.1526C 8.72888 30.339 6.10175 31.678 5.94922 31.6272C 5.93195 31.6215 5.96301 31.4264 6.01678 31.0887C 6.27991 29.4354 7.08734 24.3621 5.44073 21.3221C 1.32214 19.3899 0.559387 18.3899 0.118713 17C -0.610046 14.7289 2.25433 12.6102 2.25433 12.6102C 2.25433 12.6102 3.01703 13.5763 2.0509 15.356ZM 11.1865 41.0339C 11.1865 41.0339 13.4068 44.3729 20 44.3729L 20 48C 16.7627 48 12.6102 44.6272 12.2203 43.5424L 11.1865 41.0339Z"/><path id="path4_fill" fill-rule="evenodd" d="M 2.64404 5.48328C 2.2218 8.41663 0.796753 8.90002 0.796753 8.90002C 0.771851 8.87646 0.744141 8.85107 0.714417 8.82373C 0.344666 8.48462 -0.338806 7.85767 0.198547 6.91663C 0.535645 6.33423 0.81134 6.00598 1.07904 5.68726C 1.28632 5.44031 1.48889 5.1991 1.71155 4.84998C 2.2218 4.05005 2.13379 0 2.13379 0C 2.13379 0 3.06622 2.53333 2.64404 5.48328ZM 6.88397 24.85C 7.11267 24.2667 7.88678 21.9 8.15063 19.7667C 8.44977 17.2001 8.34418 13.4333 8.34418 13.4333C 8.34418 13.4333 7.67566 15.9 7.07745 16.3C 6.49689 16.7001 5.40613 19.4 5.40613 19.4C 5.40613 19.4 4.82556 23.4333 4.54407 24.7833C 4.85327 24.8378 5.14484 24.7976 5.44525 24.7561L 5.44647 24.756C 5.88062 24.6959 6.33319 24.6334 6.88397 24.85ZM 11.0711 30.35C 11.0711 30.35 11.7045 34 14.2202 34C 16.3666 34 17 30.9166 17 30.2833L 11.0711 30.35Z"/><path id="path5_fill" d="M 1 0.5L 0.50967 0C -0.874793 0.05 1 0.5 1 0.5Z"/><path id="path6_fill" d="M 13.2642 3.6597C 13.2642 3.6597 11.9668 3.46393 11.301 2.60554C 10.6523 1.74714 8.80863 0.0152965 5.85535 0.000236948C 2.91914 -0.0148226 0 0.692975 0 0.692975L 2.54358 2.10857C 2.81671 2.09351 3.27763 2.10857 4.06289 2.12363C 7.25517 2.21399 7.75022 5 7.75022 5L 19 3.62958"/><path id="path7_fill" d="M 8 4.85816C 8 4.85816 6.42719 6.40237 4.00611 5.8992C 1.58504 5.39603 0.118258 4.355 0.012226 2.53319C -0.0938064 0.711374 0.524716 0 0.524716 0C 0.524716 0 3.22854 0.832828 4.5186 1.92592C 5.79099 3.03635 6.74528 4.80611 8 4.85816Z"/><path id="path8_fill" d="M 5.39967 2.96597C 5.39967 2.96597 3.99939 3.66738 2.41725 3.10625C 0.362283 2.34472 0.216799 0 0.216799 0C 0.216799 0 -1.038 4.08822 2.48999 4.86979C 5.32693 5.49104 7 3.68742 7 3.68742L 5.39967 2.96597Z"/><path id="path9_fill" fill-rule="evenodd" d="M 14.6821 6.79028C 14.5452 3.8634 16.995 1.5387 17.8345 1.43835C 17.8431 1.52222 17.8474 1.64563 17.8525 1.79602L 17.8527 1.79871C 17.8784 2.54871 17.927 3.96179 18.6396 4.44873C 18.8795 2.87671 19.719 1.13733 23.0254 0C 22.323 1.823 22.9226 3.36169 23.2311 4.08081C 25.4924 2.09058 27 2.40833 27 2.40833C 27 2.40833 25.441 5.0509 26.0406 6.77356C 23.7186 6.61035 20.7915 6.74255 18.4902 6.84656C 16.3092 6.94507 14.6906 7.01819 14.6821 6.79028ZM 5.0882 11.239C 4.36365 10.6552 4.4884 10.0939 4.62274 9.4895C 4.68854 9.1936 4.75659 8.88733 4.72845 8.56299L 4.71826 8.45593C 4.67169 7.96362 4.63013 7.5238 4.45428 7.25854C 3.54956 5.85754 1.52277 5.35767 1.15436 5.26685C 1.11816 5.25793 1.09796 5.25293 1.09644 5.25146L 0 5.03406L 0.736694 4.19788C 0.839478 4.09753 3.82043 1.30444 8.44604 2.75952C 11.684 3.77979 14.0825 7.24182 14.1681 7.37561L 12.5406 8.12817C 12.5235 8.09473 10.6218 4.8501 7.84644 3.98047C 5.60217 3.27795 3.52917 3.94702 2.63831 4.38184C 3.58057 4.74976 4.81409 5.41882 5.55078 6.55603C 5.89337 7.09119 5.96191 7.77698 6.01331 8.4292C 6.08185 9.29895 6.15039 10.1184 6.81854 10.6536L 5.0882 11.239ZM 3.95746 19.1499C 3.54633 22.361 2.19287 24 2.19287 24C 2.44983 23.5317 2.86102 19.1499 2.86102 19.1499C 2.86102 19.1499 3.47778 16.7916 3.39209 14.4335C 3.83752 15.4036 4.11163 17.8955 3.95746 19.1499Z"/><path id="path10_fill" fill-rule="evenodd" d="M 4.00952 1.75171C 5.19568 2.71655 5.61334 4.59521 5.61334 4.59521L 7 4.03662L 6.99878 4.0304C 6.96069 3.83594 6.69159 2.46228 4.56085 0.956299C 2.42242 -0.567017 0.10022 0.177734 0 0.211548L 0.30072 1.12549C 0.301575 1.12549 0.307373 1.12378 0.317932 1.12048C 0.51947 1.05981 2.43799 0.481201 4.00952 1.75171ZM 2.22192 15.8843C 2.08832 16.9845 2.78998 18 2.78998 18C 3.00714 15.4442 4.1933 15.1735 4.1933 15.1735C 4.1933 15.1735 3.82574 14.2087 2.99042 14.5811C 2.53937 14.7672 2.28876 15.3428 2.22192 15.8843Z"/><path id="path11_fill" d="M 6.90914 5.09861C 6.94122 5.14827 6.95727 5.18138 6.95727 5.18138C 6.95727 5.18138 4.8718 6.80367 2.7382 5.16483C 1.59922 4.28747 1.69547 2.1189 2.04839 1.19188C 2.96279 1.40708 3.73281 1.78782 4.37449 2.23478C 3.55635 1.48985 2.8505 0.92702 2.8505 0.910466L 1.92006 0.645603L 0.123346 0C 0.107304 0.148985 -0.550421 3.32734 1.34254 5.49591C 2.17673 6.45603 6.12308 8.60804 8 4.93307L 6.90914 5.09861Z"/><path id="path12_fill" d="M 8.72769 6.00415C 9.95057 7.91698 13.0497 6.83132 12.9994 4.79786C 12.9994 4.79786 10.9389 5.96968 9.11298 3.8156C 8.04086 2.55761 4.64025 -0.9234 0 0.231192C 3.18284 0.954966 7.42105 3.95346 8.72769 6.00415Z"/><path id="path13_fill" d="M 5.48832 19.8757C 5.79898 20.044 6.86904 21.1211 6.86904 22.7535C 6.86904 23.5613 6.78274 27.6341 6.36853 30.1249C 6.98985 30.5119 7.42132 30.5961 8.04264 31C 8.3533 28.1222 8.57767 23.9316 8.47411 22.2486C 8.3533 20.3301 7.30051 19.0342 6.31675 18.4788C 6.00609 18.3105 5.69543 18.1422 5.36751 17.9739C 3.6934 17.082 1.95025 16.1732 1.95025 14.608C 1.95025 13.3795 2.4335 13.0092 2.95127 12.6053L 3.00305 12.5548C 3.34822 12.2856 3.72792 11.9826 3.96954 11.4777C 4.59086 10.0977 4.69442 6.61401 3.96954 5.72204C 3.60711 5.28447 2.64061 3.78664 2.91675 2.7937C 3.0203 2.40662 3.26193 2.13735 3.67614 1.9354C 4.10761 1.71661 4.67716 1.61564 5.38477 1.61564C 6.76548 1.61564 8.30152 2.01954 9.09543 2.27199C 11.9259 3.16395 15.3431 5.68838 16.3269 6.42888C 16.3614 6.44571 16.3787 6.46254 16.3787 6.46254L 17 6.88328L 16.603 6.24376C 16.5858 6.2101 14.1005 2.2215 9.64772 0.757329C 8.78477 0.471227 7.0934 0 5.41929 0C 4.41827 0 3.58985 0.168295 2.91675 0.504886C 2.10558 0.908795 1.5533 1.56515 1.32893 2.37296C 0.77665 4.37568 2.58883 6.61401 2.65787 6.68132C 2.86497 7.05157 2.96853 9.7443 2.46802 10.8214C 2.39898 10.9729 2.20914 11.1243 1.98477 11.3094C 1.91574 11.3599 1.82944 11.4273 1.74315 11.4946C 1.05279 11.9995 0 12.7736 0 14.5575C 0 16.9978 2.53706 18.3105 4.55634 19.3708C 4.88426 19.5559 5.21218 19.7242 5.48832 19.8757Z"/><path id="path14_fill" d="M 5.02781 8C 3.96131 7.21813 4.75695 6.48137 4.67231 5.59425C 4.62152 5.11309 4.58767 4.67705 4.40145 4.42144C 3.41959 3.03813 1.10036 2.63216 1.08343 2.61712L 0 2.42166L 0.727932 1.66986C 0.829504 1.57964 3.77509 -0.931363 8.34583 0.376766C 11.5453 1.29396 13.9154 4.4064 14 4.52669L 12.3918 5.20331C 12.3748 5.17324 10.4958 2.25626 7.75333 1.47439C 5.53567 0.842881 3.4873 1.44432 2.60701 1.83525C 3.53809 2.16605 4.75695 2.76748 5.48489 3.78993C 5.82346 4.27108 5.89117 4.88756 5.94196 5.47396C 6.00967 6.25583 6.07739 6.99259 6.73761 7.47374L 5.02781 8Z"/><path id="path15_fill" d="M 5.45455 9L 5.38462 8.951C 4.56294 8.31397 4.72028 7.69328 4.86014 7.08893C 4.93007 6.81125 5 6.51724 4.96503 6.22323C 4.91259 5.73321 4.87762 5.25953 4.72028 5.01452C 3.75874 3.59347 1.41608 3.13612 1.3986 3.13612L 0 2.87477L 0.926573 1.86207C 0.926573 1.84574 2.88462 0 6.20629 0C 7.11538 0 8.04196 0.147005 8.96853 0.424682C 12.4126 1.47005 14.8776 4.96552 14.8951 4.99819L 15 5.14519L 13.0245 5.99456L 12.9545 5.88022C 12.7448 5.5372 10.8916 2.67877 8.25175 1.89474C 7.6049 1.69873 6.92308 1.60073 6.22378 1.60073C 4.96503 1.60073 3.95105 1.9274 3.39161 2.13975C 4.3007 2.51543 5.4021 3.16878 6.1014 4.19782C 6.48601 4.75318 6.53846 5.4392 6.60839 6.10889C 6.67832 6.92559 6.74825 7.70962 7.36014 8.1833L 7.58741 8.36298L 5.45455 9Z"/><path id="path16_fill" d="M 5.61337 5C 5.61337 5 5.1957 2.9558 4.00955 1.90608C 2.35561 0.451197 0.317422 1.22468 0.300716 1.22468L 0 0.230203C 0.100239 0.19337 2.42243 -0.616943 4.56086 1.04052C 6.71599 2.69797 6.96659 4.2081 7 4.39227L 5.61337 5Z"/><path id="path17_fill" fill-rule="evenodd" d="M 6.3681 5.01196L 6.33075 4.82446C 6.33075 4.80737 5.86389 2.98328 4.59399 2.06274C 3.88434 1.5343 3.00665 1.27856 2.01685 1.27856C 1.25122 1.27856 0.672302 1.44897 0.616272 1.46606L 0.448181 1.51721L 0 0.272705L 0.168091 0.221558C 0.172791 0.220581 0.179871 0.21875 0.189209 0.216309L 0.197815 0.214111L 0.200073 0.213501L 0.202881 0.212769C 0.369202 0.169434 1.02094 0 1.90485 0C 3.19336 0 4.40723 0.340942 5.41571 0.98877C 7.88074 2.5741 8.17957 4.02319 8.19824 4.1936L 8.21692 4.31299L 6.3681 5.01196ZM 2.01685 0.95459C 3.0813 0.95459 4.03375 1.24438 4.81805 1.80701C 5.93854 2.62524 6.46143 4.05725 6.62952 4.5686L 7.84338 4.12537C 7.73132 3.73328 7.24579 2.55701 5.22894 1.26147C 4.25781 0.647705 3.13733 0.323853 1.90479 0.323853C 1.23254 0.323853 0.709656 0.426147 0.448181 0.477295L 0.672302 1.09094C 0.933716 1.03979 1.41925 0.95459 2.01685 0.95459ZM 11.5597 44.9369C 11.9332 45.2438 12.4747 45.4142 12.9977 45.4142C 13.5392 45.4142 14.0248 45.2267 14.3422 44.9028C 15.2573 43.9993 15.7988 43.0276 15.9296 42.7378C 16.0043 42.5673 16.079 42.2434 15.8175 41.9877C 15.6121 41.8002 15.2386 41.6979 14.7344 41.6979L 11.1488 41.6979C 10.4766 41.6979 10.1591 41.8684 9.99103 42.0217C 9.74823 42.2434 9.71088 42.5332 9.87897 42.9082C 10.3085 43.897 11.2795 44.7152 11.5597 44.9369ZM 13.5579 20.2012L 11.6531 20.0818C 11.6531 20.0818 12.1387 20.866 12.4561 21.8717C 12.8109 23.0139 12.1387 24.6846 12.1387 24.6846C 12.1387 24.6846 14.6597 22.0763 13.5579 20.2012ZM 2.03552 42.4651C 2.03552 43.6925 4.4259 49.5227 11.1862 50L 11.3356 48.3805C 5.62109 47.9884 3.80963 42.9935 3.80963 42.4651L 2.93188 42.4651L 2.03552 42.4651Z"/><path id="path18_fill" d="M 10.9506 8.96966C 10.8519 8.40369 10.8519 7.87203 10.9671 7.35752C 10.5062 6.99736 9.69963 6.87731 9.0906 6.6715C 8.59679 6.34565 6.04543 7.01451 4.18541 4.66491C 1.8645 1.73219 2.35831 0 2.35831 0C 1.76574 0.686016 1.18963 0.42876 0.284308 3.63588C -0.621012 6.84301 0.712277 9.08971 3.19779 11.3364C 4.36648 12.3997 6.02897 12.8285 7.46102 13C 6.98367 12.5026 8.28404 12.4512 9.1729 12.1082C 9.10706 11.3536 9.22228 10.6332 9.76547 10.033C 10.0947 9.67282 10.5062 9.46702 10.9342 9.29551C 10.9506 9.24406 10.9835 9.17546 11 9.12401C 10.9671 9.07256 10.9506 9.02111 10.9506 8.96966Z"/><path id="path19_fill" d="M 8.86703 9.88171C 8.81717 9.73117 8.76731 9.56391 8.73406 9.41337C 8.6842 9.2461 8.48475 8.7443 8.73406 9.31301C 8.66758 9.16247 8.61772 9.02865 8.6011 8.87811C 4.52895 8.87811 0.988672 6.06803 1.67013 0.146785C 1.13826 -0.572462 0.390316 1.58528 0.390316 1.58528C 0.390316 1.58528 -1.65407 7.53998 3.61479 9.84826C 5.36 10.6177 6.92237 11.1697 7.28804 10.9522C 8.0526 11.1028 8.73406 10.5675 9 10.2162C 8.95014 10.0992 8.90027 9.9988 8.86703 9.88171Z"/><path id="path20_fill" d="M 10.6175 8.31615C 10.6175 7.80069 10.7132 7.30241 10.9522 6.80412L 11 6.70103C 9.50206 6.68385 7.76509 6.52921 6.29902 5.89347C 4.6736 5.189 2.64979 2.80069 2.31514 0C 2.31514 0 -0.72854 2.54296 0.163849 7.95533C 1.00843 13.0584 4.96044 14.7079 9.47019 15C 9.47019 14.9656 8.96025 13.8316 9.11961 13.1443C 6.55399 13.3505 3.70153 12.2852 2.31514 9.82818C 1.05624 7.57732 1.40682 3.7457 1.91676 3.19588C 3.1916 7.50859 7.76509 8.38488 10.6175 8.31615Z"/><path id="path21_fill" d="M 2.3628 6.61947C 1.58537 9.03687 0 11 0 11C 0 11 2.17988 10.8864 2.30183 10.4808C 2.39329 10.1726 4.26829 5.48378 5 0C 4.31402 1.20059 2.42378 6.40855 2.3628 6.61947Z"/><path id="path22_fill" fill-rule="evenodd" d="M 1.26794 3.44177C 0.817505 2.31189 0 0.191162 0 0.191162L 1.26794 0C 1.26794 0 2.65271 0.451904 2.65271 1.56445C 2.65271 4.22388 3.60376 5.26685 3.60376 5.26685C 3.60376 5.26685 1.75183 4.65845 1.26794 3.44177ZM 5.97278 16.4958C 3.98743 13.4365 1.28467 9.12573 1.28467 9.12573L 3.98743 17C 3.98743 17 6.27307 16.9652 5.97278 16.4958Z"/><path id="path23_fill" fill-rule="evenodd" d="M 7.21057 1.02258C 9.11963 -0.44043 12 0.0960693 12 0.0960693C 10.5468 0.403809 10.438 1.04541 10.2267 2.29236C 10.17 2.62598 10.1062 3.00293 10.0072 3.42847C 9.52161 5.44421 7.96423 6.14319 7.96423 6.14319L 4.73218 3.65601C 4.73218 3.65601 5.28479 2.50183 7.21057 1.02258ZM 5.01685 21.6674C 1.9021 22.7566 0.227539 20.8221 0.227539 20.8221C -0.576294 19.5054 0.947632 17.636 1.73462 17.1646C 2.53845 16.7094 8.44983 14.5311 8.44983 15.6202C 8.44983 16.7094 8.13159 20.5782 5.01685 21.6674Z"/><path id="path24_fill" fill-rule="evenodd" d="M 7.12439 0C 9.26172 1.08472 12.2133 2.61023 12.2133 2.61023L 11.0598 3.1864C 11.1785 3.37292 11.2294 3.47461 11.2294 3.47461L 10.042 4.01697C 10.042 4.01697 7.14136 6.11865 5.36023 7.45764C 5.95398 5.64404 7.6842 2.77966 7.6842 2.77966C 7.6842 2.77966 8.17603 1.45764 7.12439 0ZM 11.0089 9.91528C 9.36353 10.0339 7.29407 10.8136 6.03882 12.5933C 5.93701 12.7435 5.83411 12.9054 5.72888 13.0709C 5.43054 13.5402 5.11328 14.0391 4.74963 14.3899C 3.96936 15.1187 3.2229 15.4576 2.5614 15.4237C 3.13818 16.1356 6.75122 15.8813 9.22778 12.6271C 10.5509 10.8983 15.1649 10.6949 15.1649 10.6949C 15.1649 10.6949 13.8248 9.69495 11.0089 9.91528ZM 17.9637 15.356C 18.9476 17.1356 13.8248 18.8983 13.8248 18.8983C 11.6875 19.678 11.5348 22.2543 11.4501 24.1526C 11.2634 30.339 13.8927 31.678 14.0454 31.6272C 14.0626 31.6215 14.0316 31.4265 13.9778 31.089C 13.7145 29.4362 12.9061 24.3623 14.5542 21.3221C 18.6763 19.3899 19.4396 18.3899 19.8806 17C 20.61 14.7458 17.7603 12.6102 17.7603 12.6102C 17.7603 12.6102 16.9969 13.5763 17.9637 15.356ZM 8.82068 41.0339C 8.82068 41.0339 6.59863 44.3729 0 44.3729L 0 48C 3.23987 48 7.39587 44.6272 7.78601 43.5424L 8.82068 41.0339Z"/><path id="path25_fill" fill-rule="evenodd" d="M 14.3649 5.48328C 14.7869 8.41663 16.2111 8.90002 16.2111 8.90002C 16.2339 8.87842 16.259 8.8551 16.2859 8.83032C 16.6517 8.4928 17.3331 7.86377 16.8088 6.91663C 16.4719 6.33423 16.1964 6.00598 15.9288 5.68713C 15.7217 5.44031 15.5193 5.1991 15.2968 4.84998C 14.7869 4.05005 14.8748 0 14.8748 0C 14.8748 0 13.943 2.53333 14.3649 5.48328ZM 10.1276 24.85C 9.89905 24.2667 9.12537 21.9 8.86157 19.7667C 8.56274 17.2001 8.66821 13.4333 8.66821 13.4333C 8.66821 13.4333 9.3363 15.9 9.9342 16.3C 10.5144 16.7001 11.6045 19.4 11.6045 19.4C 11.6045 19.4 12.1847 23.4333 12.4661 24.7833C 12.157 24.8378 11.8656 24.7976 11.5654 24.7561L 11.5642 24.756C 11.1304 24.6959 10.678 24.6334 10.1276 24.85ZM 5.92529 30.35C 5.92529 30.35 5.29236 34 2.77808 34C 0.632935 34 0 30.9166 0 30.2833L 5.92529 30.35Z"/><path id="path26_fill" d="M 0 0.5L 0.49033 0C 1.87479 0.05 0 0.5 0 0.5Z"/><path id="path27_fill" d="M 5.73585 3.6597C 5.73585 3.6597 7.03324 3.46393 7.69901 2.60554C 8.34771 1.74714 10.1914 0.0152965 13.1447 0.000236948C 16.0809 -0.0148226 19 0.692975 19 0.692975L 16.4564 2.10857C 16.1833 2.09351 15.7224 2.10857 14.9371 2.12363C 11.7448 2.21399 11.2498 5 11.2498 5L 0 3.62958"/><path id="path28_fill" d="M 0 4.85816C 0 4.85816 1.57281 6.40237 3.99389 5.8992C 6.41496 5.39603 7.88174 4.355 7.98777 2.53319C 8.09381 0.711374 7.47528 0 7.47528 0C 7.47528 0 4.77146 0.832828 3.4814 1.92592C 2.19134 3.019 1.23704 4.80611 0 4.85816Z"/><path id="path29_fill" d="M 1.60033 2.96597C 1.60033 2.96597 3.00061 3.66738 4.58275 3.10625C 6.63772 2.34472 6.7832 0 6.7832 0C 6.7832 0 8.038 4.08822 4.51001 4.86979C 1.67307 5.49104 0 3.68742 0 3.68742L 1.60033 2.96597Z"/><path id="path30_fill" fill-rule="evenodd" d="M 9.43213 6.9314C 9.56494 7.51733 9.68823 8.06152 8.97217 8.62756L 7.26245 8.06006C 7.90564 7.54114 7.99036 6.74658 8.05798 5.90332C 8.10889 5.271 8.17651 4.60608 8.51514 4.08728C 9.24304 2.98462 10.4619 2.33594 11.3929 1.97925C 10.5127 1.55762 8.46436 0.909058 6.2467 1.59009C 3.50427 2.43323 1.62512 5.5791 1.60828 5.61145L 0 4.88184C 0.0845947 4.75208 2.45471 1.39551 5.65417 0.406372C 10.2249 -1.00439 13.1705 1.70361 13.2721 1.8009L 14 2.61157L 12.9166 2.82239C 12.9152 2.82385 12.8951 2.82874 12.8593 2.8374C 12.4951 2.92554 10.4926 3.41003 9.59851 4.76831C 9.42468 5.02563 9.38354 5.45264 9.33752 5.93042L 9.32764 6.03308C 9.2998 6.34753 9.36707 6.64441 9.43213 6.9314ZM 10.0725 16.2975C 10.4789 19.4109 11.8162 21 11.8162 21C 11.5792 20.546 11.156 16.2975 11.156 16.2975C 11.156 16.2975 10.5465 14.0111 10.6312 11.7247C 10.191 12.6653 9.92017 15.0813 10.0725 16.2975Z"/><path id="path31_fill" fill-rule="evenodd" d="M 2.99048 1.75171C 1.80432 2.71655 1.3866 4.59521 1.3866 4.59521L 0 4.03662L 0.0012207 4.03027C 0.0395508 3.83533 0.30896 2.46191 2.43909 0.956299C 4.57751 -0.567017 6.89978 0.177734 7 0.211548L 6.69934 1.12549C 6.69849 1.12549 6.69263 1.12378 6.68213 1.12048C 6.48059 1.05981 4.56201 0.481201 2.99048 1.75171ZM 4.77808 15.8843C 4.91162 16.9845 4.20996 18 4.20996 18C 3.9928 15.4442 2.82336 15.1735 2.82336 15.1735C 2.82336 15.1735 3.19092 14.2087 4.02625 14.5811C 4.46057 14.7672 4.71118 15.3428 4.77808 15.8843Z"/><path id="path32_fill" d="M 1.09086 5.09861C 1.05878 5.14827 1.04273 5.18138 1.04273 5.18138C 1.04273 5.18138 3.1282 6.80367 5.2618 5.16483C 6.40078 4.28747 6.30453 2.1189 5.95161 1.19188C 5.03721 1.40708 4.26719 1.78782 3.62551 2.23478C 4.44365 1.48985 5.1495 0.92702 5.1495 0.910466L 6.07994 0.645603L 7.87665 0C 7.8927 0.148985 8.55042 3.32734 6.65746 5.49591C 5.82327 6.45603 1.87692 8.60804 0 4.93307L 1.09086 5.09861Z"/><path id="path33_fill" d="M 4.27231 6.00415C 3.04943 7.91698 -0.0496514 6.83132 0.000604038 4.79786C 0.000604038 4.79786 2.06108 5.96968 3.88702 3.8156C 4.95914 2.55761 8.3765 -0.9234 13 0.231192C 9.81716 0.954966 5.57895 3.95346 4.27231 6.00415Z"/><path id="path34_fill" d="M 11.4944 19.8757C 11.1838 20.044 10.1137 21.1211 10.1137 22.7535C 10.1137 23.5613 10.2 27.6341 10.6142 30.1249C 9.99289 30.5119 9.56142 30.5961 8.9401 31C 8.62944 28.1222 8.40508 23.9316 8.50863 22.2486C 8.62944 20.3301 9.68223 19.0342 10.666 18.4788C 10.9767 18.3105 11.2873 18.1422 11.6152 17.9739C 13.2893 17.082 15.0325 16.1732 15.0325 14.608C 15.0325 13.3795 14.5492 13.0092 14.0315 12.6053L 13.9797 12.5548C 13.6345 12.2856 13.2548 11.9826 13.0132 11.4777C 12.3919 10.0977 12.2883 6.61401 13.0132 5.72204C 13.3756 5.28447 14.3421 3.78664 14.066 2.7937C 13.9624 2.40662 13.7208 2.13735 13.3066 1.9354C 12.8751 1.71661 12.3056 1.61564 11.598 1.61564C 10.2173 1.61564 8.68122 2.01954 7.88731 2.27199C 5.07411 3.16395 1.65685 5.68838 0.673096 6.42888C 0.638579 6.44571 0.62132 6.46254 0.62132 6.46254L 0 6.88328L 0.396954 6.24376C 0.414213 6.2101 2.89949 2.2215 7.35228 0.757329C 8.21523 0.471227 9.9066 0 11.5807 0C 12.5817 0 13.4102 0.168295 14.0832 0.504886C 14.8944 0.908795 15.4467 1.56515 15.6711 2.37296C 16.2234 4.37568 14.4112 6.61401 14.3421 6.68132C 14.135 7.05157 14.0315 9.7443 14.532 10.8214C 14.601 10.9729 14.7909 11.1243 15.0152 11.3094C 15.0843 11.3599 15.1706 11.4273 15.2569 11.4946C 15.9472 11.9995 17 12.7736 17 14.5575C 17 16.9978 14.4629 18.3105 12.4437 19.3708C 12.0985 19.5559 11.7878 19.7242 11.4944 19.8757Z"/><path id="path35_fill" d="M 25.7945 4.41791C 25.4005 3.8209 24.3729 2.68657 22.0264 1.68657C 19.4058 0.567164 16.357 0 12.9829 0C 9.6087 0 6.57708 0.567164 3.93939 1.68657C 1.59289 2.68657 0.565217 3.8209 0.171278 4.41791L 0 4.61194L 2.02108 5L 2.08959 4.92537L 2.12385 4.86567C 2.1581 4.74627 2.43215 4.1194 4.67589 3.16418C 7.07378 2.14925 9.88274 1.62687 13 1.62687C 16.1173 1.62687 18.9262 2.14925 21.3241 3.16418C 23.5679 4.1194 23.8419 4.74627 23.8762 4.86567L 23.9104 4.92537L 23.9789 5L 26 4.61194L 25.7945 4.41791Z"/><path id="path36_fill" d="M 8.97219 8C 10.0387 7.21813 9.24305 6.48137 9.32769 5.59425C 9.37848 5.11309 9.41233 4.67705 9.59855 4.42144C 10.5804 3.03813 12.8996 2.63216 12.9166 2.61712L 14 2.42166L 13.2721 1.66986C 13.1705 1.57964 10.2249 -0.931363 5.65417 0.376766C 2.45466 1.29396 0.0846433 4.4064 0 4.52669L 1.60822 5.20331C 1.62515 5.17324 3.50423 2.25626 6.24667 1.47439C 8.46433 0.842881 10.5127 1.44432 11.393 1.83525C 10.4619 2.16605 9.24305 2.76748 8.51511 3.78993C 8.17654 4.27108 8.10883 4.88756 8.05804 5.47396C 7.99033 6.25583 7.90568 6.99259 7.26239 7.47374L 8.97219 8Z"/><path id="path37_fill" d="M 7.8603 8.34664L 8.10244 8.16697C 8.75437 7.69328 8.82887 6.90926 8.922 6.09256C 8.97788 5.4392 9.05239 4.75318 9.46216 4.18149C 10.2072 3.15245 11.3807 2.51543 12.3492 2.12341C 11.7718 1.91107 10.6729 1.58439 9.33178 1.58439C 8.58673 1.58439 7.8603 1.6824 7.17113 1.8784C 4.37718 2.67877 2.38417 5.53721 2.16065 5.86388L 2.06752 5.97822L 0 5.14519L 0.111758 4.99819C 0.130384 4.96552 2.75669 1.47005 6.42608 0.424682C 7.41327 0.147005 8.40047 0 9.36903 0C 12.908 0 14.9942 1.84574 15.0128 1.86207L 16 2.87477L 14.5099 3.13612C 14.4913 3.13612 11.9953 3.59347 10.9709 5.01452C 10.8033 5.25953 10.7474 5.71688 10.7101 6.22323C 10.6729 6.51724 10.7474 6.81125 10.8219 7.08893C 10.9709 7.69328 11.1199 8.31397 10.2631 8.951L 10.1886 9L 7.8603 8.34664Z"/><path id="path38_fill" d="M 1.38663 5C 1.38663 5 1.8043 2.9558 2.99045 1.90608C 4.64439 0.451197 6.68258 1.22468 6.69928 1.22468L 7 0.230203C 6.89976 0.19337 4.57757 -0.616943 2.43914 1.04052C 0.284009 2.69797 0.0334129 4.2081 0 4.39227L 1.38663 5Z"/><path id="path39_fill" fill-rule="evenodd" d="M 7.80518 4.1554L 7.7865 4.27368L 9.63452 4.96619L 9.67188 4.7804C 9.67383 4.77856 9.68079 4.75696 9.69312 4.71863C 9.79749 4.39282 10.2889 2.85999 11.4078 2.04395C 12.1359 1.53711 12.9946 1.26685 13.9839 1.26685C 14.7493 1.26685 15.328 1.43579 15.3839 1.45276L 15.552 1.50342L 16 0.270264L 15.8319 0.219604C 15.7573 0.185791 15.0667 0 14.0959 0C 12.8079 0 11.5946 0.337891 10.5865 0.979736C 8.14111 2.55066 7.82385 4.00342 7.80518 4.1554ZM 15.5707 0.4729L 15.3467 1.08105C 15.0853 1.01355 14.6 0.929077 14.0214 0.945923C 12.9574 0.945923 11.9867 1.23303 11.2213 1.79053C 10.1013 2.60132 9.57861 4.02026 9.41064 4.52698L 8.19727 4.08777C 8.30933 3.69934 8.79456 2.53381 10.8107 1.25C 11.7814 0.625 12.8827 0.320923 14.1147 0.320923C 14.7867 0.320923 15.3093 0.405396 15.5707 0.4729ZM 1.66382 44.4933C 0.749146 43.598 0.207764 42.6521 0.0771484 42.348C 0.00244141 42.1791 -0.0909424 41.8582 0.189087 41.6047C 0.394409 41.4189 0.767822 41.3176 1.27173 41.3176L 4.85583 41.3176C 5.52783 41.3176 5.84521 41.4866 6.01318 41.6385C 6.23718 41.8413 6.27454 42.1454 6.12524 42.517C 5.6958 43.4967 4.74377 44.3075 4.44519 44.5271C 4.07178 44.8142 3.53052 45 3.00781 45C 2.48511 44.9832 1.99976 44.7974 1.66382 44.4933ZM 4.37048 19.8817L 2.46643 20C 1.36511 21.858 3.88513 24.4425 3.88513 24.4425C 3.88513 24.4425 3.21313 22.7871 3.56775 21.6554C 3.88513 20.6587 4.37048 19.8817 4.37048 19.8817Z"/><path id="path40_fill" d="M 3.5 0.965753C 2.43192 0.965753 1.05164 0.924658 0 0C 0 0 1.36385 3 3.5 3L 3.5 2.63014L 3.5 3C 5.63615 3 7 0 7 0C 5.94836 0.924658 4.56808 0.965753 3.5 0.965753Z"/><path id="path41_fill" fill-rule="evenodd" d="M 3.01123 0.894409C 3.95325 0.87793 4.92896 0.645996 6.02246 0C 6.02246 0 4.42432 1.92139 2.99438 1.93799C 1.59814 1.92139 0 0 0 0C 1.09351 0.645996 2.08594 0.87793 3.01123 0.894409ZM 9.63928 33.443L 9.75708 35C 15.8468 34.5361 18 28.8547 18 27.6952L 16.4019 27.6952C 16.4019 28.2086 14.787 33.0454 9.63928 33.443Z"/><path id="path42_fill" d="M 0.0493811 8.96966C 0.148143 8.40369 0.148143 7.87203 0.0329207 7.35752C 0.493811 6.99736 1.30037 6.87731 1.9094 6.6715C 2.40321 6.34565 4.97103 7.01451 6.81459 4.66491C 9.1355 1.73219 8.64169 0 8.64169 0C 9.23426 0.686016 9.81037 0.42876 10.7157 3.63588C 11.621 6.84301 10.2877 9.08971 7.80221 11.3364C 6.63352 12.3997 4.97103 12.8285 3.53898 13C 4.01633 12.5026 2.71596 12.4512 1.8271 12.1082C 1.89294 11.3536 1.77772 10.6332 1.23453 10.033C 0.90532 9.67282 0.493811 9.46702 0.0658414 9.29551C 0.0493811 9.24406 0.0164604 9.17546 0 9.12401C 0.0329207 9.07256 0.0329207 9.02111 0.0493811 8.96966Z"/><path id="path43_fill" d="M 0.132968 9.88171C 0.182831 9.73117 0.232694 9.56391 0.265936 9.41337C 0.315799 9.2461 0.515251 8.7443 0.265936 9.31301C 0.33242 9.16247 0.382283 9.02865 0.398904 8.87811C 4.47105 8.87811 8.01133 6.06803 7.32987 0.146785C 7.86174 -0.572462 8.60968 1.58528 8.60968 1.58528C 8.60968 1.58528 10.6541 7.53998 5.38521 9.84826C 3.64 10.6177 2.07763 11.1697 1.71196 10.9522C 0.947398 11.1028 0.265936 10.5675 0 10.2162C 0.066484 10.0992 0.0997261 9.9988 0.132968 9.88171Z"/><path id="path44_fill" d="M 0.382452 8.31615C 0.382452 7.80069 0.286839 7.30241 0.0478065 6.80412L 0 6.70103C 1.49794 6.68385 3.23491 6.52921 4.70098 5.89347C 6.3264 5.189 8.35021 2.80069 8.68486 0C 8.68486 0 11.7285 2.54296 10.8362 7.95533C 9.99157 13.0584 6.03956 14.7079 1.52981 15C 1.52981 14.9656 2.03975 13.8316 1.88039 13.1443C 4.44601 13.3505 7.29847 12.2852 8.68486 9.82818C 9.94376 7.57732 9.59318 3.7457 9.06731 3.19588C 7.82434 7.50859 3.25085 8.38488 0.382452 8.31615Z"/><path id="path45_fill" fill-rule="evenodd" d="M 18.1089 0C 20.5829 0 21.6555 0.755371 22.2438 1.40527C 23.0916 2.35388 23.23 3.65369 22.6417 5.26978C 21.0846 9.59094 18.8701 14 11.5 14C 4.12988 13.9824 1.93268 9.59094 0.358276 5.26978C -0.229919 3.63611 -0.0915527 2.3363 0.756226 1.40527C 1.32715 0.772949 2.41711 0 4.89111 0L 18.1089 0ZM 11.4827 12.4191C 18.3339 12.4015 20.3407 7.14929 21.0847 4.97107C 21.4999 3.75903 21.4653 2.86316 20.9808 2.3186C 20.6521 1.94971 19.9082 1.49304 18.1954 1.49304L 4.77002 1.49304C 3.05725 1.49304 2.31329 1.93213 1.98456 2.3186C 1.50018 2.88074 1.46558 3.75903 1.8808 4.97107C 2.62469 7.14929 4.63159 12.4015 11.4827 12.4191Z"/><path id="path46_fill" d="M 2.6372 6.61947C 3.41463 9.03687 5 11 5 11C 5 11 2.82012 10.8864 2.69817 10.4808C 2.60671 10.1726 0.731707 5.48378 0 0C 0.685976 1.20059 2.56098 6.40855 2.6372 6.61947Z"/><path id="path47_fill" fill-rule="evenodd" d="M 9.4433 0.451294C 9.83325 0.584961 10.1893 0.768799 10.5114 0.952637C 10.8335 1.1532 11.1387 1.37048 11.393 1.57104C 11.4778 1.65454 11.4947 1.77161 11.4269 1.8551L 10.1893 3.62671C 10.0875 3.7605 10.0028 3.7605 9.85022 3.67688C 9.64673 3.55994 8.73126 3.04175 8.52777 2.95825C 8.34131 2.85791 8.15479 2.79114 7.95135 2.74097C 7.74792 2.6908 7.54449 2.64062 7.3241 2.6239C 7.1037 2.6073 6.84937 2.59058 6.57812 2.59058C 6.06946 2.59058 5.61176 2.67407 5.2218 2.84119C 4.81488 3.0083 4.47583 3.22559 4.20453 3.52649C 3.93329 3.82727 3.71289 4.17822 3.5603 4.59607C 3.40771 5.01392 3.32294 5.48193 3.32294 6C 3.32294 6.58496 3.40771 7.10303 3.57727 7.5376C 3.74683 7.97217 3.98413 8.33984 4.2724 8.64062C 4.56061 8.94153 4.91663 9.17554 5.32349 9.32593C 5.73041 9.47632 6.1712 9.55994 6.66284 9.55994C 7.03583 9.55994 7.37494 9.54321 7.66315 9.47632C 7.91748 9.42615 8.13788 9.3761 8.35828 9.29248L 8.35828 7.93872L 6.79852 7.93872C 6.67981 7.93872 6.57812 7.8385 6.57812 7.72144L 6.57812 5.79944C 6.57812 5.6825 6.67981 5.58215 6.79852 5.58215L 11.1556 5.58215C 11.2743 5.58215 11.376 5.6825 11.376 5.79944L 11.376 10.5961C 11.376 10.663 11.3252 10.7299 11.2743 10.7632C 10.9522 10.9805 10.6131 11.181 10.2571 11.3314C 9.90106 11.4819 9.52808 11.6156 9.13812 11.7158C 8.74817 11.8162 8.32434 11.8831 7.88354 11.9331C 7.44275 11.9833 6.96802 12 6.45941 12C 5.54388 12 4.67926 11.8496 3.89941 11.5487C 3.11951 11.2479 2.42438 10.8301 1.84796 10.2953C 1.27155 9.7605 0.813782 9.12537 0.491638 8.39001C 0.169556 7.67126 0 6.85242 0 6C 0 5.11426 0.169556 4.31201 0.474731 3.57666C 0.796814 2.84119 1.25458 2.20618 1.83099 1.67126C 2.42438 1.1532 3.11951 0.735352 3.95026 0.43457C 4.76404 0.150391 5.69647 0 6.69678 0C 7.22235 0 7.71399 0.0334473 8.17175 0.116943C 8.62952 0.200562 9.05334 0.317505 9.4433 0.451294ZM 20.8532 7.11975C 21.0397 7.25342 21.1923 7.43726 21.3279 7.63782L 23.9219 11.532C 23.9558 11.5654 23.9897 11.6156 23.9897 11.6824C 23.9897 11.7994 23.8879 11.8997 23.7693 11.8997L 21.1923 11.8997C 20.6498 11.8997 20.2429 11.6991 19.9886 11.298L 17.9541 8.00549C 17.8863 7.88855 17.8015 7.82166 17.7167 7.77161C 17.6659 7.73816 17.5303 7.70471 17.3099 7.70471L 16.8013 7.70471L 16.8013 11.6991C 16.8013 11.8162 16.6995 11.9164 16.5809 11.9164L 13.7326 11.9164C 13.614 11.9164 13.5122 11.8162 13.5122 11.6991L 13.5122 0.367676C 13.5122 0.25061 13.614 0.150391 13.7326 0.150391L 17.6998 0.150391C 18.5984 0.150391 19.3782 0.25061 20.0225 0.417847C 20.6837 0.584961 21.2093 0.835571 21.6331 1.1532C 22.0569 1.4707 22.3791 1.87183 22.5656 2.3064C 22.7521 2.74097 22.8538 3.22559 22.8538 3.72705C 22.8538 4.11145 22.8029 4.47913 22.6843 4.83008C 22.5656 5.18103 22.3961 5.49854 22.1757 5.79944C 21.9553 6.0835 21.684 6.35095 21.3618 6.58496C 21.1414 6.73535 20.921 6.86902 20.6667 6.98608C 20.6905 7.00366 20.7143 7.01904 20.7374 7.03394L 20.7392 7.03516L 20.7421 7.03711L 20.7431 7.03772C 20.7836 7.06396 20.8217 7.08862 20.8532 7.11975ZM 19.5478 4.5293C 19.48 4.71313 19.3782 4.88025 19.2256 5.01392C 19.0731 5.14758 18.8696 5.26465 18.6323 5.34814C 18.378 5.43176 18.0728 5.46521 17.7167 5.46521L 16.7843 5.46521L 16.7843 2.52368L 17.7167 2.52368C 18.3949 2.52368 18.9036 2.65735 19.2087 2.89136C 19.5139 3.12537 19.6495 3.45959 19.6495 3.89417C 19.6495 4.12817 19.6156 4.34546 19.5478 4.5293ZM 32.7719 0.133667L 35.6201 0.133667C 35.7388 0.133667 35.8235 0.233887 35.8405 0.317505L 35.8405 7.03613C 35.8405 7.77148 35.7048 8.44006 35.4506 9.04175C 35.1963 9.64343 34.8232 10.1782 34.3485 10.6128C 33.8738 11.0474 33.2974 11.3816 32.6193 11.6323C 31.941 11.8829 31.1782 12 30.3474 12C 29.5167 12 28.7538 11.8662 28.0756 11.6323C 27.3975 11.3983 26.821 11.0474 26.3463 10.6128C 25.8716 10.1782 25.4987 9.64343 25.2443 9.04175C 25.007 8.44006 24.8713 7.77148 24.8713 7.05286L 24.8713 0.334229C 24.8713 0.217163 24.973 0.116943 25.0918 0.116943L 27.9399 0.116943C 28.0587 0.116943 28.1604 0.217163 28.1604 0.334229L 28.1604 7.05286C 28.1604 7.42053 28.2113 7.77148 28.313 8.05566C 28.4147 8.35645 28.5503 8.59045 28.7368 8.79102C 28.9233 8.99158 29.1437 9.14197 29.4149 9.24231C 29.9575 9.45959 30.7543 9.45959 31.2969 9.24231C 31.5681 9.14197 31.7886 8.99158 31.975 8.79102C 32.1615 8.60718 32.2971 8.35645 32.3988 8.07239C 32.5006 7.78821 32.5514 7.43726 32.5514 7.06958L 32.5514 0.350952C 32.5514 0.233887 32.6532 0.133667 32.7719 0.133667ZM 48.9966 0.133667L 46.4874 0.133667C 46.3688 0.133667 46.2671 0.233887 46.2671 0.350952L 46.2671 6.35095C 46.2671 6.53479 46.2671 6.71863 46.2841 6.91919L 40.8927 0.601685C 40.8347 0.533081 40.7767 0.47998 40.7241 0.432007C 40.6998 0.409912 40.6768 0.388794 40.6554 0.367676C 40.5706 0.300781 40.4858 0.25061 40.401 0.217285C 40.3163 0.183838 40.2146 0.150391 40.1128 0.150391C 40.0281 0.133667 39.9094 0.133667 39.7737 0.133667L 38.2819 0.133667C 38.1631 0.133667 38.0614 0.233887 38.0614 0.350952L 38.0614 11.6991C 38.0614 11.8162 38.1631 11.9164 38.2819 11.9164L 40.791 11.9164C 40.9097 11.9164 41.0114 11.8162 41.0114 11.6991L 41.0114 5.6156C 41.0114 5.46509 41.0114 5.29797 40.9944 5.13086L 46.3518 11.3983C 46.5214 11.5822 46.6909 11.7325 46.8774 11.7994C 47.047 11.8662 47.2673 11.9164 47.5216 11.9164L 48.9966 11.9164C 49.1154 11.9164 49.217 11.8162 49.217 11.6991L 49.217 0.350952C 49.217 0.233887 49.1154 0.133667 48.9966 0.133667ZM 51.0143 0.133667L 60.7457 0.133667C 60.8644 0.133667 60.9662 0.233887 61 0.350952L 61 2.44006C 61 2.55701 60.8983 2.65735 60.7797 2.65735L 57.5415 2.65735L 57.5415 11.6991C 57.5415 11.8162 57.4397 11.9164 57.321 11.9164L 54.4728 11.9164C 54.3541 11.9164 54.2524 11.8162 54.2524 11.6991L 54.2524 2.65735L 51.0143 2.65735C 50.8955 2.65735 50.7938 2.55701 50.7938 2.44006L 50.7938 0.350952C 50.7938 0.233887 50.8955 0.133667 51.0143 0.133667Z"/></defs></svg>