<svg xmlns="http://www.w3.org/2000/svg" xmlns:xlink="http://www.w3.org/1999/xlink" width="372" height="142" version="1.1" viewBox="0 0 372 142"><title>jenkins_logo</title><desc>Created using Figma</desc><g id="Canvas" transform="translate(-671 -2180)"><g id="jenkins_logo"><g id="g10"><g id="g3393"><g id="path22"><use fill="#D33833" transform="matrix(1 -1.22465e-16 -1.22465e-16 -1 672.543 2299.46)" xlink:href="#path0_fill"/></g><g id="path24"><use fill="#EF3D3A" transform="matrix(1 -1.22465e-16 -1.22465e-16 -1 671.918 2261.28)" xlink:href="#path1_fill"/></g><g id="path26"><use fill="#231F20" transform="matrix(1 -1.22465e-16 -1.22465e-16 -1 671 2301.19)" xlink:href="#path2_fill"/></g><g id="path28"><use fill="#F0D6B7" transform="matrix(1 -1.22465e-16 -1.22465e-16 -1 689.761 2251.45)" xlink:href="#path3_fill"/></g><g id="path30"><use fill="#335061" transform="matrix(1 -1.22465e-16 -1.22465e-16 -1 683.328 2304.56)" xlink:href="#path4_fill"/></g><g id="path32"><use fill="#6D6B6D" transform="matrix(1 -1.22465e-16 -1.22465e-16 -1 691.086 2220.08)" xlink:href="#path5_fill"/></g><g id="path34"><use fill="#DCD9D8" transform="matrix(1 -1.22465e-16 -1.22465e-16 -1 695.249 2198.35)" xlink:href="#path6_fill"/></g><g id="path36"><use fill="#DCD9D8" transform="matrix(1 -1.22465e-16 -1.22465e-16 -1 691.086 2215.74)" xlink:href="#path7_fill"/></g><g id="path38"><use fill="#F7E4CD" transform="matrix(1 -1.22465e-16 -1.22465e-16 -1 699.979 2250.83)" xlink:href="#path8_fill"/></g><g id="path40"><use fill="#F7E4CD" transform="matrix(1 -1.22465e-16 -1.22465e-16 -1 734.788 2228.4)" xlink:href="#path9_fill"/></g><g id="path42"><use fill="#F7E4CD" transform="matrix(1 -1.22465e-16 -1.22465e-16 -1 747.08 2212.2)" xlink:href="#path10_fill"/></g><g id="path44"><use fill="#F7E4CD" transform="matrix(1 -1.22465e-16 -1.22465e-16 -1 723.443 2212.93)" xlink:href="#path11_fill"/></g><g id="path46"><use fill="#F7E4CD" transform="matrix(1 -1.22465e-16 -1.22465e-16 -1 689.572 2231.23)" xlink:href="#path12_fill"/></g><g id="path48"><use fill="#F7E4CD" transform="matrix(1 -1.22465e-16 -1.22465e-16 -1 705.085 2207.99)" xlink:href="#path13_fill"/></g><g id="path50"><use fill="#F7E4CD" transform="matrix(1 -1.22465e-16 -1.22465e-16 -1 743.501 2199.86)" xlink:href="#path14_fill"/></g><g id="path52"><use fill="#F7E4CD" transform="matrix(1 -1.22465e-16 -1.22465e-16 -1 714.262 2206.36)" xlink:href="#path15_fill"/></g><g id="path54"><use fill="#49728B" transform="matrix(1 -1.22465e-16 -1.22465e-16 -1 683.328 2297.75)" xlink:href="#path16_fill"/></g><g id="path56"><use fill="#49728B" transform="matrix(1 -1.22465e-16 -1.22465e-16 -1 708.305 2282.07)" xlink:href="#path17_fill"/></g><g id="path58"><use fill="#49728B" transform="matrix(1 -1.22465e-16 -1.22465e-16 -1 700.736 2286.79)" xlink:href="#path18_fill"/></g><g id="path60"><use fill="#335061" transform="matrix(1 -1.22465e-16 -1.22465e-16 -1 738.392 2300.02)" xlink:href="#path19_fill"/></g><g id="path62"><use fill="#335061" transform="matrix(1 -1.22465e-16 -1.22465e-16 -1 740.284 2281.88)" xlink:href="#path20_fill"/></g><g id="path64"><use fill="#49728B" transform="matrix(1 -1.22465e-16 -1.22465e-16 -1 738.392 2287.43)" xlink:href="#path21_fill"/></g><g id="path66"><use fill="#49728B" transform="matrix(1 -1.22465e-16 -1.22465e-16 -1 745.204 2257.31)" xlink:href="#path22_fill"/></g><g id="path68"><use fill="#FFF" transform="matrix(1 -1.22465e-16 -1.22465e-16 -1 709.63 2321)" xlink:href="#path23_fill"/></g><g id="path70"><use fill="#DCD9D8" transform="matrix(1 -1.22465e-16 -1.22465e-16 -1 723.821 2319.86)" xlink:href="#path24_fill"/></g><g id="path72"><use fill="#FFF" transform="matrix(1 -1.22465e-16 -1.22465e-16 -1 745.393 2297.57)" xlink:href="#path25_fill"/></g><g id="path74"><use fill="#DCD9D8" transform="matrix(1 -1.22465e-16 -1.22465e-16 -1 747.285 2297.75)" xlink:href="#path26_fill"/></g><g id="path76"><use fill="#FFF" transform="matrix(1 -1.22465e-16 -1.22465e-16 -1 731.334 2280.37)" xlink:href="#path27_fill"/></g><g id="path78"><use fill="#DCD9D8" transform="matrix(1 -1.22465e-16 -1.22465e-16 -1 731.012 2278.67)" xlink:href="#path28_fill"/></g><g id="path80"><use fill="#FFF" transform="matrix(1 -1.22465e-16 -1.22465e-16 -1 707.359 2257.5)" xlink:href="#path29_fill"/></g><g id="path82"><use fill="#DCD9D8" transform="matrix(1 -1.22465e-16 -1.22465e-16 -1 708.495 2256.56)" xlink:href="#path30_fill"/></g><g id="path84"><use fill="#D33833" transform="matrix(1 -1.22465e-16 -1.22465e-16 -1 737.982 2261.55)" xlink:href="#path31_fill"/></g><g id="path86"><use fill="#D33833" transform="matrix(1 -1.22465e-16 -1.22465e-16 -1 737.982 2261.55)" xlink:href="#path32_stroke"/></g><g id="path88"><use fill="#D33833" transform="matrix(1 -1.22465e-16 -1.22465e-16 -1 718.017 2267.16)" xlink:href="#path33_fill"/></g><g id="path90"><use fill="#D33833" transform="matrix(1 -1.22465e-16 -1.22465e-16 -1 718.017 2267.16)" xlink:href="#path34_stroke"/></g><g id="path92"><use fill="#D33833" transform="matrix(1 -1.22465e-16 -1.22465e-16 -1 733.363 2259.98)" xlink:href="#path35_fill"/></g><g id="path94"><use fill="#D33833" transform="matrix(1 -1.22465e-16 -1.22465e-16 -1 733.363 2259.98)" xlink:href="#path36_stroke"/></g><g id="path96"><use fill="#EF3D3A" transform="matrix(1 -1.22465e-16 -1.22465e-16 -1 737.389 2261.09)" xlink:href="#path37_fill"/></g><g id="path98"><use fill="#EF3D3A" transform="matrix(1 -1.22465e-16 -1.22465e-16 -1 716.59 2267.33)" xlink:href="#path38_fill"/></g><g id="path100"><use fill="#231F20" transform="matrix(1 -1.22465e-16 -1.22465e-16 -1 714.966 2206.01)" xlink:href="#path39_fill"/></g><g id="path102"><use fill="#231F20" transform="matrix(1 -1.22465e-16 -1.22465e-16 -1 746.808 2215.94)" xlink:href="#path40_fill"/></g><g id="path104"><use fill="#231F20" transform="matrix(1 -1.22465e-16 -1.22465e-16 -1 723.594 2217.37)" xlink:href="#path41_fill"/></g><g id="path106"><use fill="#231F20" transform="matrix(1 -1.22465e-16 -1.22465e-16 -1 734.206 2231.32)" xlink:href="#path42_fill"/></g><g id="path108"><use fill="#231F20" transform="matrix(1 -1.22465e-16 -1.22465e-16 -1 693.361 2226.78)" xlink:href="#path43_fill"/></g><g id="path110"><use fill="#231F20" transform="matrix(1 -1.22465e-16 -1.22465e-16 -1 742.391 2236.28)" xlink:href="#path44_fill"/></g><g id="path112"><use fill="#231F20" transform="matrix(1 -1.22465e-16 -1.22465e-16 -1 727.498 2236.51)" xlink:href="#path45_fill"/></g><g id="path114"><use fill="#231F20" transform="matrix(1 -1.22465e-16 -1.22465e-16 -1 725.517 2242.14)" xlink:href="#path46_fill"/></g><g id="path116"><use fill="#81B0C4" transform="matrix(1 -1.22465e-16 -1.22465e-16 -1 740.864 2278.42)" xlink:href="#path47_fill"/></g><g id="path118"><use fill="#231F20" transform="matrix(1 -1.22465e-16 -1.22465e-16 -1 755.319 2284.74)" xlink:href="#path48_fill"/></g><g id="path120"><use fill="#231F20" transform="matrix(1 -1.22465e-16 -1.22465e-16 -1 756.842 2286.56)" xlink:href="#path49_fill"/></g><g id="path122"><use fill="#231F20" transform="matrix(1 -1.22465e-16 -1.22465e-16 -1 756.714 2290.03)" xlink:href="#path50_fill"/></g><g id="path124"><use fill="#DCD9D8" transform="matrix(1 -1.22465e-16 -1.22465e-16 -1 740.812 2312.2)" xlink:href="#path51_fill"/></g><g id="path126"><use fill="#F0D6B7" transform="matrix(1 -1.22465e-16 -1.22465e-16 -1 729.383 2254.16)" xlink:href="#path52_fill"/></g><g id="path128"><use fill="#81B0C4" transform="matrix(1 -1.22465e-16 -1.22465e-16 -1 723.591 2278.43)" xlink:href="#path53_fill"/></g><g id="path130"><use fill="#231F20" transform="matrix(1 -1.22465e-16 -1.22465e-16 -1 681.66 2322)" xlink:href="#path54_fill"/></g><g id="path132"><use fill="#F7E4CD" transform="matrix(1 -1.22465e-16 -1.22465e-16 -1 722.24 2237.09)" xlink:href="#path55_fill"/></g><g id="path134"><use fill="#1D1919" transform="matrix(1 -1.22465e-16 -1.22465e-16 -1 736.878 2266.38)" xlink:href="#path56_fill"/></g><g id="path136"><use fill="#1D1919" transform="matrix(1 -1.22465e-16 -1.22465e-16 -1 737.919 2271.2)" xlink:href="#path57_fill"/></g></g><g id="text5675"><g id="Jenkins"><use fill="#FFF" transform="translate(801.599 2227.56)" xlink:href="#path58_fill"/></g></g></g></g></g><defs><path id="path0_fill" fill-rule="evenodd" d="M 99.3418 50.7406C 99.3418 22.7175 77.1033 0 49.6707 0C 22.2385 0 0 22.7175 0 50.7406C 0 78.7643 22.2385 101.482 49.6707 101.482C 77.1033 101.482 99.3418 78.7643 99.3418 50.7406Z"/><path id="path1_fill" d="M 2.64942 0C 2.64942 0 -0.946415 52.9141 47.8734 54.4261L 44.4676 60.0955L 17.9765 51.2133L 10.4074 42.5204L 3.78476 29.8584L 0 15.118L 1.13534 5.29124"/><path id="path2_fill" fill-rule="evenodd" d="M 0 52.2808C -1.76608e-15 37.8596 5.72589 24.7859 14.9878 15.3259C 24.2475 5.86426 37.0653 1.73264e-15 51.2134 0C 65.3615 -1.73265e-15 78.1807 5.86426 87.4388 15.3259C 96.7014 24.7859 102.428 37.8596 102.427 52.2808C 102.428 66.7031 96.7014 79.7766 87.4388 89.2373C 78.1807 98.6995 65.3615 104.564 51.2134 104.563C 37.0653 104.564 24.2475 98.6995 14.9878 89.2373C 5.72589 79.7766 1.76638e-15 66.7043 0 52.2808ZM 3.08606 52.2808C 3.08606 65.8833 8.47888 78.179 17.1938 87.0845C 25.9128 95.9866 37.929 101.481 51.2134 101.482C 64.4981 101.481 76.5151 95.9866 85.2334 87.0845C 93.9477 78.179 99.3417 65.8833 99.3417 52.2808C 99.3417 38.6809 93.9477 26.3835 85.2334 17.4797C 76.5151 8.57593 64.4981 3.08179 51.2134 3.08179C 37.929 3.08179 25.9128 8.57593 17.1938 17.4797C 8.47888 26.3835 3.08606 38.6809 3.08606 52.2808Z"/><path id="path3_fill" fill-rule="evenodd" d="M 53.3618 2.45654L 45.7925 1.32267L 35.5743 0.188791L 28.9512 0L 22.5179 0.188791L 17.5978 1.70082L 13.2456 6.42512L 9.83954 16.0631L 9.08272 18.142L 4.54136 19.6535L 1.89216 24.0002L 0 30.2365L 2.08176 35.7171L 7.00119 37.4179L 10.9749 35.5278L 12.8675 31.3704L 15.1382 31.7486L 15.8948 32.6931L 15.1382 37.0398L 14.9486 42.5204L 16.0839 50.0794L 16.0396 54.3972L 19.4899 59.9061L 25.5451 64.2529L 36.142 68.7884L 47.8735 67.0875L 58.0916 59.7173L 62.8226 52.1584L 65.8499 46.6778L 66.6066 33.0712L 64.336 21.3543L 60.1732 10.9606L 56.1995 5.48003"/><path id="path4_fill" fill-rule="evenodd" d="M 53.3611 22.8669L 26.3017 21.733L 26.3017 17.1975L 28.5724 1.32323L 27.4371 0L 8.51505 6.42568L 7.19011 8.69344L 5.29795 30.0477L 0.946419 42.8985L 0 45.922L 15.1375 56.3157L 19.8684 58.2059L 24.0311 53.1034L 27.6262 49.8906L 31.7895 48.5679L 33.6814 48.001L 35.9521 38.1742L 37.6551 36.0954L 42.0076 37.6073L 38.9796 31.7486L 55.4422 24.0008L 53.3611 22.8669Z"/><path id="path5_fill" fill-rule="evenodd" d="M 0.757272 4.34672L 5.6767 6.04753L 9.65039 4.15736L 11.543 0L 13.8137 0.378148L 14.3813 2.6459L 13.246 6.99205L 14.3813 17.3863L 13.4349 23.0557L 16.841 27.0243L 24.2207 32.8824L 22.1391 35.7171L 11.7319 30.6147L 7.37971 27.2131L 4.91988 21.9218L 1.13534 16.8194L 0 10.7718L 0.757272 4.34672Z"/><path id="path6_fill" fill-rule="evenodd" d="M 4.35176 0.378148C 4.35176 0.378148 7.19011 7.3702 18.5435 10.7718C 29.8969 14.1735 19.1112 13.2289 19.1112 13.2289L 6.81204 8.50408L 2.08108 3.77978L 0 0L 4.35176 0.378148Z"/><path id="path7_fill" fill-rule="evenodd" d="M 2.83835 1.32267C 2.83835 1.32267 -1.13534 14.5516 14.0026 16.4412L 13.4349 18.709L 3.02795 16.2519L 0 6.42512L 0.757272 0L 2.83835 1.32267Z"/><path id="path8_fill" fill-rule="evenodd" d="M 0 18.8432L 2.4776 21.2408C 2.4776 21.2408 3.59585 21.111 3.78477 19.7883C 3.97369 18.4651 4.54136 6.55935 12.6779 0.133666C 13.4201 -0.452548 6.62312 1.07932 6.62312 1.07932L 0.56767 10.5279"/><path id="path9_fill" fill-rule="evenodd" d="M 0.00938056 0C 0.00938056 0 0.45046 5.72835 1.99509 5.28784C 3.53972 4.84733 3.53972 3.30469 3.53972 3.30469C 3.53972 3.30469 -0.211443 0.881023 0.00938056 0Z"/><path id="path10_fill" d="M 3.42192 4.77736C 3.42192 4.77736 0.303138 4.11971 0.0158969 1.37573C -0.271344 -1.36882 3.42192 0.808788 3.98959 0.997579"/><path id="path11_fill" d="M 4.16329 5.32408C 4.16329 5.32408 0 4.75714 0 2.1118C 0 -0.5341 4.73107 -0.34531 6.05545 0.788567"/><path id="path12_fill" fill-rule="evenodd" d="M 12.2991 11.3388C 12.2991 11.3388 5.10835 15.6855 4.35176 11.5276C 3.59494 7.3702 1.89148 4.34615 5.4871 0L 3.02727 0.755729L 0.75659 6.61391L 0 12.2833L 4.35176 16.8194L 9.27164 16.4412L 12.11 14.1735L 12.2991 11.3388Z"/><path id="path13_fill" fill-rule="evenodd" d="M 0.192299 0C 0.192299 0 3.40917 16.63 19.6827 19.8429C 33.0804 22.4876 40.1183 19.2759 42.7677 16.2524C 42.7677 16.2524 30.8466 30.4253 19.4931 26.0792C 8.13968 21.7325 -0.185769 13.7953 0.00315142 8.69344C 0.325361 0.00340176 0.192299 0 0.192299 0Z"/><path id="path14_fill" fill-rule="evenodd" d="M 5.6767 6.23632C 5.6767 6.23632 0.189602 6.42512 5.07345e-09 1.51146C 5.07345e-09 1.51146 -0.000567675 0.755729 0.378068 0C 0.378068 0 4.73096 4.91366 7.37971 2.26775"/><path id="path15_fill" fill-rule="evenodd" d="M 10.8877 5.99017C 10.8877 5.99017 9.94307 13.5321 3.50467 9.14745C -0.658165 6.31275 -0.279415 2.34418 0.477175 1.58845C 1.23399 0.832158 1.02821 -0.690073 1.60434 0.354795C 2.18018 1.39966 1.99058 4.80129 4.07234 5.74581C 6.15387 6.6909 9.56608 7.74654 10.8877 5.99017Z"/><path id="path16_fill" fill-rule="evenodd" d="M 24.0311 46.3002L 6.24437 38.363C 6.24437 38.363 13.6241 9.07102 9.83931 0L 7.19011 0.94452L 7.00096 12.0946L 2.08176 33.26L 0 39.1188L 18.5435 51.5908L 24.0311 46.3002Z"/><path id="path17_fill" fill-rule="evenodd" d="M 0.882556 14.4137L 3.40602 11.3388L 3.40602 0L 0.378068 0C 0.378068 0 0 7.93714 0 8.88234C 0 9.82731 0.378068 13.2289 0.378068 13.2289"/><path id="path18_fill" fill-rule="evenodd" d="M 8.51505 3.02337L 0 2.64579L 2.46028 0.944973L 8.51505 0"/><path id="path19_fill" fill-rule="evenodd" d="M 0 18.142L 7.00107 18.3309L 8.70408 0.94452L 1.51341 0L 8.06707e-15 18.142"/><path id="path20_fill" fill-rule="evenodd" d="M 8.06707e-15 0L 10.5967 0.566939C 10.5967 0.566939 14.9485 11.5277 14.9485 12.0946C 14.9485 12.6616 18.7331 27.9688 18.7331 27.9688L 10.2181 36.8504L 8.51505 38.3625L 3.97369 33.827L 3.97369 16.2519L 0 0"/><path id="path21_fill" fill-rule="evenodd" d="M 6.62244 6.86898L 0 5.5462L 0.945738 0.25439C 3.40545 -0.879487 7.56874 2.14456 7.56874 2.14456"/><path id="path22_fill" fill-rule="evenodd" d="M 0 9.82675L 13.2454 0L 13.6241 4.53551L 3.59505 13.7953L 0 9.82675Z"/><path id="path23_fill" fill-rule="evenodd" d="M 6.18828 1.88973L 2.27068 17.7662L 0.322209 29.4808L 0 38.176L 17.7311 39.1187L 28.7624 39.1206L 27.7593 19.2759L 29.4623 3.96857L 29.2733 1.13388L 14.8927 0L 6.18828 1.88973Z"/><path id="path24_fill" fill-rule="evenodd" d="M 12.1103 38.1738C 12.1103 38.1738 11.1646 18.5196 14.0029 4.53553C 14.0029 4.53553 8.32624 0.944525 0 0L 15.895 0.566939L 17.787 1.70082L 15.5163 32.6931L 14.9487 39.3081"/><path id="path25_fill" fill-rule="evenodd" d="M 2.02545 0L 9.40516 2.07885L 23.4073 2.83469L 25.4889 9.25975L 21.7043 20.4098L 17.3525 20.9767L 11.2972 19.087L 5.48767 16.2541L 2.40351 16.8193L 0 15.8761"/><path id="path26_fill" fill-rule="evenodd" d="M 0 3.96857C 0 3.96857 4.91943 6.23587 5.6767 6.04697L 3.59562 16.4412L 6.05534 17.3857C 6.05534 17.3857 7.75834 7.55911 7.75834 6.42523C 7.75834 6.42523 18.3545 5.85829 19.3008 5.85829C 19.3008 5.85829 21.5715 10.2049 21.0038 14.7404L 23.0854 8.69298L 23.2745 5.29135L 20.2471 0.755843L 16.8411 0L 11.1644 0.188904L 9.27232 2.64534L 2.64932 1.70082L 0.56767 0.94452"/><path id="path27_fill" d="M 8.51505 0L 4.35232 10.5831L 0 16.8194C 0 16.8194 0.945738 19.4653 2.27068 19.4653C 3.59562 19.4653 6.623 19.4653 6.623 19.4653L 10.7857 17.9533L 10.4077 10.9611L 8.51505 0Z"/><path id="path28_fill" fill-rule="evenodd" d="M 9.65039 1.89017C 9.65039 1.89017 4.35176 12.0946 4.35176 13.6065C 4.35176 13.6065 5.2975 15.8743 6.62244 15.3073C 7.94738 14.7404 10.7857 13.2289 10.7857 13.2289L 10.7857 16.8194L 4.35176 18.1426L 0 17.5757L 7.37971 0.189357L 8.89312 0"/><path id="path29_fill" d="M 10.1622 5.66882L 4.92011 6.23803L 0 7.75005L 0 6.04923L 2.40397 3.40163L 9.97283 0"/><path id="path30_fill" fill-rule="evenodd" d="M 0.56767 4.15566C 0.56767 4.15566 6.43397 1.69855 8.32613 2.26549L 8.51437 0L 3.2171 1.13161L 0 3.39936L 0.56767 4.15566Z"/><path id="path31_fill" fill-rule="evenodd" d="M 9.41651 0C 6.20577 0.0941118 3.30497 0.475095 0.765219 1.19057C 0.937791 2.23034 0.614787 3.25083 0.874212 3.99975C 1.5821 4.50886 2.76853 4.50093 3.83858 4.62055C 2.91328 5.07467 1.61332 5.25439 0.545531 4.99189C 0.520553 5.71361 0.196414 6.16092 0 6.72559C 1.80519 7.36907 6.06669 11.5877 8.46396 10.1907C 9.60611 9.52627 10.0915 5.73118 10.18 3.8858C 10.2538 2.35506 10.0409 0.810722 9.41651 0Z"/><path id="path32_stroke" d="M 9.41651 0L 10.4068 -0.762756L 10.0175 -1.26815L 9.37988 -1.24946L 9.41651 0ZM 0.765219 1.19057L 0.426273 -0.012598L -0.651195 0.290936L -0.467912 1.39524L 0.765219 1.19057ZM 0.874212 3.99975L -0.306932 4.4089L -0.177261 4.78324L 0.144365 5.01455L 0.874212 3.99975ZM 3.83858 4.62055L 4.38931 5.74269L 8.23676 3.85444L 3.97746 3.37829L 3.83858 4.62055ZM 0.545531 4.99189L 0.843932 3.77803L -0.650493 3.41066L -0.703721 4.94866L 0.545531 4.99189ZM 0 6.72559L -1.18062 6.31493L -1.58814 7.48653L -0.419706 7.90303L 0 6.72559ZM 8.46396 10.1907L 7.83539 9.11026L 7.83461 9.11071L 8.46396 10.1907ZM 10.18 3.8858L 8.93147 3.8256L 8.93146 3.82588L 10.18 3.8858ZM 9.37988 -1.24946C 6.10594 -1.1519 3.05346 -0.749341 0.426273 -0.012598L 1.10416 2.39374C 3.55649 1.69953 6.30559 1.34012 9.45313 1.24946L 9.37988 -1.24946ZM -0.467912 1.39524C -0.397185 1.76767 -0.433516 2.14513 -0.460907 2.63448C -0.485173 3.0687 -0.530743 3.76278 -0.306932 4.4089L 2.05536 3.59061C 2.01974 3.48779 2.00596 3.29717 2.0352 2.77397C 2.06131 2.30591 2.10019 1.65323 1.99835 0.985906L -0.467912 1.39524ZM 0.144365 5.01455C 0.74926 5.44959 1.46985 5.60892 2.038 5.6928C 2.6171 5.77682 3.20317 5.8067 3.69971 5.86281L 3.97746 3.37829C 3.40394 3.31477 2.86177 3.28882 2.40316 3.21961C 1.93361 3.15029 1.70705 3.05902 1.60406 2.98495L 0.144365 5.01455ZM 3.28786 3.49841C 2.60695 3.83258 1.60668 3.96554 0.843932 3.77803L 0.247129 6.20575C 1.61996 6.54323 3.21962 6.31675 4.38931 5.74269L 3.28786 3.49841ZM -0.703721 4.94866C -0.70051 5.15064 -0.734826 5.23426 -0.824043 5.45465C -0.909286 5.67229 -1.05071 5.95083 -1.18062 6.31493L 1.18062 7.13626C 1.30463 6.73915 1.70277 6.11964 1.79478 5.03513L -0.703721 4.94866ZM -0.419706 7.90303C -0.144608 8.00109 0.324939 8.28545 1.04983 8.77249C 1.73067 9.22987 2.53266 9.79067 3.36384 10.2934C 4.19714 10.7956 5.16719 11.2855 6.05433 11.5349C 6.98696 11.7898 8.08933 11.8558 9.0933 11.2707L 7.83461 9.11071C 7.63995 9.22414 7.31066 9.28659 6.71362 9.12337C 6.07107 8.95457 5.41344 8.61146 4.65606 8.15325C 3.89656 7.69549 3.14487 7.1683 2.44406 6.69737C 1.78729 6.2561 1.0472 5.77184 0.419706 5.54816L -0.419706 7.90303ZM 9.09252 11.2712C 9.74094 10.894 10.1185 10.2115 10.3481 9.68247C 10.5856 9.1288 10.7916 8.41798 10.9384 7.74731C 11.2267 6.41529 11.3823 4.90175 11.4286 3.94571L 8.93146 3.82588C 8.88923 4.71523 8.75784 6.02192 8.49576 7.21491C 8.36744 7.80674 8.23241 8.28461 8.05484 8.68707C 7.86947 9.11415 7.75806 9.15525 7.83539 9.11026L 9.09252 11.2712ZM 11.4286 3.94599C 11.4669 3.12229 11.4244 2.21251 11.2904 1.45168C 11.152 0.682139 10.8935 -0.130875 10.4068 -0.762756L 8.4262 0.762756C 8.56395 0.941597 8.72411 1.30611 8.82983 1.89411C 8.93992 2.49081 8.96692 3.11857 8.93147 3.8256L 11.4286 3.94599Z"/><path id="path33_fill" fill-rule="evenodd" d="M 14.0278 10.8508C 14.0193 10.6082 14.0091 10.3638 13.9994 10.1189C 12.9969 9.46126 11.3785 9.4692 10.2784 8.91643C 11.9002 8.84557 13.1769 8.45551 14.2816 7.90558C 14.2572 7.29442 14.2339 6.68383 14.21 6.07267C 12.3725 4.81633 10.6939 2.94544 8.53039 1.76728C 7.50745 1.21009 3.91739 -0.223637 2.82906 0.0297279C 2.2133 0.17254 2.15784 0.935696 1.9117 1.65503C 1.38729 3.19546 0.179854 5.64747 0.0745508 7.96624C -0.0595896 10.8951 -0.355629 15.8036 2.8047 15.2004C 5.35433 14.7145 8.31973 13.5415 10.2937 12.4643C 11.5 11.8056 12.1977 10.9914 14.0278 10.8508Z"/><path id="path34_stroke" d="M 13.9994 10.1189L 15.2485 10.0697L 15.2231 9.4267L 14.6851 9.07373L 13.9994 10.1189ZM 10.2784 8.91643L 10.2238 7.66762L 5.42596 7.87727L 9.71716 10.0334L 10.2784 8.91643ZM 14.2816 7.90558L 14.8386 9.02459L 15.5629 8.66406L 15.5306 7.8557L 14.2816 7.90558ZM 14.21 6.07267L 15.4591 6.02394L 15.4346 5.39566L 14.9155 5.04079L 14.21 6.07267ZM 8.53039 1.76728L 7.93247 2.865L 7.93258 2.86506L 8.53039 1.76728ZM 2.82906 0.0297279L 3.11147 1.24741L 3.11248 1.24717L 2.82906 0.0297279ZM 1.9117 1.65503L 0.729022 1.25034L 0.728391 1.25219L 1.9117 1.65503ZM 0.0745508 7.96624L 1.32324 8.02344L 1.32326 8.02295L 0.0745508 7.96624ZM 2.8047 15.2004L 2.57071 13.9725L 2.57034 13.9725L 2.8047 15.2004ZM 10.2937 12.4643L 10.8925 13.5616L 10.8928 13.5614L 10.2937 12.4643ZM 15.2771 10.807C 15.2684 10.5601 15.2581 10.3131 15.2485 10.0697L 12.7504 10.1681C 12.7601 10.4146 12.7702 10.6562 12.7786 10.8947L 15.2771 10.807ZM 14.6851 9.07373C 13.9641 8.60079 13.0846 8.40082 12.4484 8.25849C 11.7674 8.10621 11.2355 8.01095 10.8396 7.7995L 9.71716 10.0334C 10.4214 10.3747 11.2488 10.5518 11.9026 10.6982C 12.6013 10.8545 13.0322 10.9794 13.3138 11.1641L 14.6851 9.07373ZM 10.3329 10.1652C 12.1118 10.0775 13.6396 9.61671 14.8386 9.02459L 13.7245 6.78657C 12.7142 7.29431 11.6886 7.6136 10.2238 7.66762L 10.3329 10.1652ZM 15.5306 7.8557C 15.5062 7.24567 15.483 6.63566 15.4591 6.02394L 12.961 6.1214C 12.9848 6.732 13.0081 7.34317 13.0326 7.95547L 15.5306 7.8557ZM 14.9155 5.04079C 14.0609 4.45956 13.2295 3.71687 12.2961 2.93323C 11.3631 2.15025 10.3021 1.31404 9.1282 0.669499L 7.93258 2.86506C 8.92217 3.39868 9.78226 4.087 10.6888 4.84809C 11.595 5.60852 12.5216 6.42945 13.5045 7.10455L 14.9155 5.04079ZM 9.12831 0.66956C 8.56611 0.364819 7.31557 -0.175273 6.10802 -0.588444C 5.50325 -0.794589 4.84874 -0.988004 4.29512 -1.1067C 3.78598 -1.21494 3.11351 -1.31992 2.54563 -1.18772L 3.11248 1.24717C 3.04214 1.28063 3.33819 1.24375 3.77524 1.33865C 4.23282 1.43494 4.74382 1.58727 5.30048 1.77754C 6.41578 2.15719 7.47173 2.61256 7.93247 2.865L 9.12831 0.66956ZM 2.54664 -1.18795C 1.65539 -0.981243 1.2579 -0.296568 1.07412 0.154669C 0.913714 0.562818 0.828471 0.967736 0.729023 1.25034L 3.09438 2.05972C 3.16832 1.84164 3.22744 1.6265 3.27518 1.45761C 3.32275 1.28923 3.35085 1.18825 3.38943 1.0977C 3.42033 1.02185 3.42317 1.0432 3.37604 1.09389C 3.31166 1.16314 3.21395 1.22364 3.11147 1.24741L 2.54664 -1.18795ZM 0.728391 1.25219C 0.483501 1.97473 0.0519538 2.9692 -0.344808 4.10852C -0.738248 5.24303 -1.10743 6.61147 -1.17416 7.90954L 1.32326 8.02295C 1.36184 7.00224 1.64902 5.98529 2.01673 4.92899C 2.38111 3.87751 2.81549 2.87575 3.09501 2.05787L 0.728391 1.25219ZM -1.17414 7.90905C -1.24094 9.3678 -1.34687 11.4793 -1.02142 13.1535C -0.851432 14.0015 -0.532317 14.9353 0.135215 15.6133C 0.88102 16.3709 1.8956 16.6465 3.03906 16.4282L 2.57034 13.9725C 2.13364 14.0559 2.0001 13.9441 1.91676 13.8595C 1.75515 13.6953 1.5641 13.332 1.42982 12.6621C 1.14674 11.3007 1.2559 9.4935 1.32324 8.02344L -1.17414 7.90905ZM 3.0387 16.4283C 5.70277 15.915 8.85001 14.6735 10.8925 13.5616L 9.69492 11.3671C 7.78945 12.4096 5.0059 13.5141 2.57071 13.9725L 3.0387 16.4283ZM 10.8928 13.5614C 12.4171 12.729 12.6504 12.2103 14.1236 12.0972L 13.9321 9.6045C 11.745 9.77252 10.5829 10.8821 9.69456 11.3673L 10.8928 13.5614Z"/><path id="path35_fill" fill-rule="evenodd" d="M 0.506891 0.178761C 0.226462 1.77413 -0.0976774 2.22938 0.0277777 3.62121C 4.28814 6.45817 5.08799 -1.25163 0.506891 0.178761Z"/><path id="path36_stroke" d="M 0.506891 0.178761L 0.134334 -1.01443L -0.592425 -0.787508L -0.724234 -0.0376431L 0.506891 0.178761ZM 0.0277777 3.62121L -1.21718 3.73343L -1.16342 4.32978L -0.665043 4.66164L 0.0277777 3.62121ZM -0.724234 -0.0376431C -0.850307 0.691045 -0.997146 1.18594 -1.10914 1.72401C -1.22026 2.27031 -1.2849 2.91451 -1.21718 3.73343L 1.27273 3.509C 1.215 2.93608 1.2497 2.65674 1.3394 2.22861C 1.42822 1.79226 1.58366 1.26184 1.73802 0.395165L -0.724234 -0.0376431ZM -0.665043 4.66164C 0.621617 5.51843 1.95998 5.76912 3.10356 5.19688C 4.18906 4.65371 4.71186 3.55421 4.82474 2.56987C 4.93812 1.58128 4.67685 0.415054 3.82453 -0.394293C 2.9103 -1.26242 1.59095 -1.46924 0.134334 -1.01443L 0.879449 1.37195C 1.30704 1.23844 1.59437 1.2358 1.76982 1.26519C 1.93619 1.29305 2.03523 1.35418 2.10306 1.41859C 2.25606 1.56388 2.38752 1.87959 2.34102 2.28503C 2.29404 2.69473 2.10437 2.90135 1.98483 2.96117C 1.92337 2.99192 1.56412 3.14248 0.720598 2.58078L -0.665043 4.66164Z"/><path id="path37_fill" fill-rule="evenodd" d="M 2.64932 0C 2.64932 0 1.32437 1.89017 2.27068 2.45711C 3.21699 3.02405 4.16329 2.45654 4.73096 3.40163C 5.29863 4.34672 4.73096 4.91366 4.91999 6.04753C 5.10903 7.18141 6.0559 7.37077 7.00164 7.55956C 7.94738 7.74835 10.5973 8.1265 10.9753 7.18141L 9.83999 10.583L 7.56931 11.3388L 0.378636 7.18141L 0 5.10245L 0 0.945087"/><path id="path38_fill" fill-rule="evenodd" d="M 3.58041 0C 3.35312 2.94927 3.11254 5.89452 2.84488 8.8409C 2.44439 13.2403 3.90302 12.4727 7.72151 12.4727C 8.30473 12.4727 11.3125 11.7782 11.5277 11.3388C 12.5597 9.23379 9.80196 9.70151 12.7164 8.11408C 15.1767 6.77441 19.5227 8.92764 18.5288 11.9058C 17.9724 12.568 15.6302 12.1121 14.7906 12.547C 13.3124 13.3123 11.8342 14.0777 10.3558 14.8431C 8.47503 15.8176 4.1281 17.2384 2.12286 15.8766C -2.95801 12.4256 2.44354 3.80308 4.25605 0.203077"/><path id="path39_fill" fill-rule="evenodd" d="M 10.1832 5.63537C 5.02585 6.83501 2.46316 3.47987 0.899851 0C -0.496049 0.337895 0.0594157 2.23374 0.411995 3.1998C 1.33514 5.73515 5.05537 9.11014 8.09507 8.65262C 9.40315 8.45589 11.1733 7.26135 10.1832 5.63537Z"/><path id="path40_fill" fill-rule="evenodd" d="M 3.47018 9.69712C 3.55135 9.69372 3.63366 9.69089 3.71484 9.68748C 4.88027 7.26949 5.88902 4.70806 7.35928 2.57354C 6.37437 0.282539 -0.0987656 -1.74483 0.00114432 2.36887C 1.40102 2.98003 3.81759 2.4936 5.05852 3.27427C 4.34098 5.24098 3.30555 6.91515 3.47018 9.69712Z"/><path id="path41_fill" fill-rule="evenodd" d="M 4.1961 11.0644C 5.30192 9.03988 5.66182 6.91273 7.2337 5.38256C 7.94159 4.69373 9.31819 3.85409 8.63585 1.93841C 8.47633 1.48656 7.3109 0.479108 6.63822 0.281246C 4.18077 -0.443301 -1.54543 0.131574 0.393734 3.19134C 2.42605 3.09666 5.15773 1.87321 6.67682 3.34668C 5.51026 5.20908 3.43054 8.89361 4.1961 11.0644Z"/><path id="path42_fill" fill-rule="evenodd" d="M 15.1494 4.44395C 11.4493 2.07018 7.32346 -0.511089 1.26075 0.087598C -0.0346768 1.2124 -0.52855 3.71544 0.729974 5.36863C 1.38507 4.24382 0.973505 2.17507 2.79913 1.86382C 6.23921 1.2759 10.243 3.96546 12.7175 4.90544C 14.2519 7.48898 12.5852 8.43917 11.2029 10.102C 8.37308 13.5087 4.57707 17.7313 4.71502 22.8315C 5.85887 23.6598 5.95765 21.5672 6.1217 21.1862C 7.59935 17.7324 11.3182 13.3154 14.0322 10.3594C 14.6986 9.63144 15.7959 8.93297 15.918 8.45164C 16.2699 7.05187 15.0023 5.37487 15.1494 4.44395Z"/><path id="path43_fill" fill-rule="evenodd" d="M 7.21565 2.39985C 6.0559 3.0609 5.77984 5.9727 4.41829 6.05547C 2.47249 6.17339 2.82728 2.27796 2.83506 0C 1.4957 1.21438 1.26017 4.95334 2.24411 6.87356C 1.12274 7.42349 0.621996 6.26694 0 5.85931C 0.799393 11.6591 8.49512 8.54943 7.21565 2.39985Z"/><path id="path44_fill" fill-rule="evenodd" d="M 9.32033 6.98468C 7.59802 3.71061 5.16158 0.104884 0.107618 0C 0.00486968 1.05734 -0.0740364 2.66631 0.113295 3.30298C 3.97686 3.67376 6.3622 5.63764 9.32033 6.98468Z"/><path id="path45_fill" fill-rule="evenodd" d="M 0 5.09361C 3.22346 3.40073 9.14766 3.21874 13.5289 3.34687C 13.764 2.38817 13.7583 1.20384 13.7674 0.0348121C 8.1355 -0.245822 1.47674 1.14601 0 5.09361Z"/><path id="path46_fill" fill-rule="evenodd" d="M 1.36875 7.56308C 3.59782 1.97363 11.2591 2.61711 17.7197 2.77131C 17.4353 2.04563 16.8188 1.18842 16.0525 0.878307C 13.9822 0.0369697 8.27201 -0.601403 5.3979 0.923095C 3.57511 1.89086 2.40401 4.07754 1.40531 5.35939C 0.923013 5.97849 -1.47851 7.55968 1.36875 7.56308Z"/><path id="path47_fill" fill-rule="evenodd" d="M 8.22213 13.0166C 5.60631 8.54218 3.10345 3.94663 0 0C 1.3011 3.82066 1.85798 10.2153 2.0544 15.0903C 4.77637 16.3625 7.10723 14.804 8.22213 13.0166Z"/><path id="path48_fill" fill-rule="evenodd" d="M 7.84349 3.25413C 4.91489 2.66859 2.85708 -0.174038 0 0.00840308C 1.57017 2.21907 4.32167 3.15094 7.84349 3.25413Z"/><path id="path49_fill" fill-rule="evenodd" d="M 7.61189 0.493885C 5.22483 0.242107 2.42111 -0.143921 0 0.0549608C 1.14613 1.8034 5.56203 1.20012 7.61189 0.493885Z"/><path id="path50_fill" fill-rule="evenodd" d="M 8.56727 0.0218826C 5.88447 -0.0361719 2.54997 0.0172337 0 0.230913C 1.5083 1.8489 6.82737 0.831301 8.56727 0.0218826Z"/><path id="path51_fill" fill-rule="evenodd" d="M 3.22705 11.3933C 3.61193 8.02837 4.94765 4.61897 4.78019 0.933873C 3.29687 0.434287 2.4448 -0.00265249 0.457385 1.21239e-05C 0.317171 3.13189 -0.102337 7.91963 0.0231178 10.9051C 1.00065 10.8405 2.44196 11.6025 3.22705 11.3933Z"/><path id="path52_fill" fill-rule="evenodd" d="M 10.3305 2.94141C 8.98338 2.06322 7.83612 0.96676 6.5424 0.0290439C 3.67339 -0.112691 2.10776 0.227472 0 1.87273C 0.0346279 2.00482 0.246369 1.94586 0.254316 2.10801C 3.32541 0.741119 7.22928 2.66474 10.3305 2.94141Z"/><path id="path53_fill" fill-rule="evenodd" d="M 0 6.29988C 0.843785 9.95153 4.15001 11.8428 7.15236 13.8537C 10.2513 9.92585 12.1359 4.87454 14.2113 0C 9.3078 1.47625 4.29754 3.87157 0 6.29988Z"/><path id="path54_fill" fill-rule="evenodd" d="M 59.1744 20.7025C 59.0489 17.717 59.4684 12.9293 59.6086 9.79738C 61.596 9.79471 62.4481 10.2317 63.9314 10.7312C 64.0989 14.4163 62.7632 17.8257 62.3783 21.1906C 61.5932 21.3999 60.1519 20.6379 59.1744 20.7025ZM 28.2283 37.6815C 29.5389 25.6494 31.437 15.5348 34.9184 4.88015C 42.6451 2.5371 51.9598 2.33291 58.7895 4.4472C 57.5355 10.4607 58.0833 17.782 57.3504 24.1993C 56.7981 29.0227 57.0796 33.8758 56.3224 38.7968C 48.0469 40.5162 36.3498 39.1988 28.2283 37.6815ZM 58.2791 38.7213C 58.2093 33.5538 58.5107 28.4565 58.9058 23.2825C 60.8927 23.5803 62.2409 23.7792 64.087 24.1834C 63.4875 29.1645 63.5613 34.7694 62.3402 39.1756C 60.929 39.1621 59.6864 39.192 58.2791 38.7213ZM 68.3581 39.5542C 67.4152 39.7701 66.3173 39.5626 65.4164 39.5452C 65.8399 35.3328 66.8674 30.6845 67.229 26.2628C 68.6465 26.2188 69.4038 26.8865 70.5697 27.111C 70.6322 30.9923 70.2303 36.3397 68.3581 39.5542ZM 83.6194 25.6286C 86.5741 26.3452 88.4321 29.9594 87.6056 33.6711C 87.0509 36.1657 86.0632 40.8629 85.0062 42.4587C 84.2251 43.639 82.1071 45.1844 80.416 44.1028C 77.6651 42.3435 72.8189 41.8328 70.8127 39.7033C 71.8187 36.3584 72.1309 31.7639 72.5458 27.5256C 75.9825 27.3117 80.2111 28.4701 83.0693 27.2408C 81.0739 26.5953 78.4848 26.5902 76.7608 25.6494C 78.1697 24.9698 81.4685 25.1071 83.6194 25.6286ZM 56.1424 43.5745C 54.067 48.449 52.1824 53.5003 49.0835 57.4282C 46.0811 55.4172 42.7749 53.526 41.9311 49.8743C 46.2286 47.446 51.2389 45.0507 56.1424 43.5745ZM 61.2583 58.6692C 61.0618 53.7942 60.505 47.3995 59.2039 43.5789C 62.3073 47.5255 64.8102 52.121 67.426 56.5954C 66.3111 58.3829 63.9802 59.9414 61.2583 58.6692ZM 55.459 60.7271C 54.2833 60.8535 53.2854 59.3772 51.7566 60.0156C 51.4064 59.629 51.0879 59.21 50.7308 58.8324C 54.1073 54.7685 55.6417 49.0028 58.2496 44.2271C 59.6489 48.8146 59.4877 53.8406 59.796 58.8477C 57.8733 58.7258 56.8066 60.5842 55.459 60.7271ZM 51.7299 65.6425C 51.6045 64.2506 51.9286 63.7954 52.209 62.2C 56.7901 60.7696 55.9903 68.4794 51.7299 65.6425ZM 46.6498 67.3081C 44.6759 68.3853 41.7105 69.5583 39.1608 70.0441C 36.0005 70.6479 36.2966 65.7388 36.4307 62.81C 36.536 60.4912 37.7434 58.0392 38.2678 56.4988C 38.514 55.7794 38.5694 55.0163 39.1852 54.8735C 40.2735 54.6201 43.8636 56.0538 44.8865 56.611C 47.05 57.7892 48.7286 59.6601 50.5662 60.9164C 50.59 61.5276 50.6133 62.1382 50.6377 62.7493C 49.533 63.2993 48.2563 63.6893 46.6345 63.7602C 47.7346 64.313 49.3531 64.305 50.3556 64.9627C 50.3652 65.2076 50.3754 65.4519 50.384 65.6946C 48.5538 65.8352 47.8561 66.6493 46.6498 67.3081ZM 27.7955 70.7285C 26.1572 69.0674 32.3905 66.803 34.3752 66.6812C 34.3641 67.7323 34.975 68.7233 34.8519 69.4773C 32.4948 69.8906 29.397 69.6179 27.7955 70.7285ZM 47.9771 69.9483C 47.9691 69.7862 47.7574 69.8452 47.7228 69.7131C 49.8305 68.0678 51.3962 67.7276 54.2652 67.8694C 55.5589 68.8071 56.7062 69.9035 58.0532 70.7817C 54.9521 70.5051 51.0482 68.5815 47.9771 69.9483ZM 66.5013 64.3384C 66.4127 66.1838 65.9273 69.9789 64.7852 70.6434C 62.3879 72.0409 58.1264 67.8217 56.3212 67.1782C 56.5176 66.6136 56.8418 66.1662 56.8668 65.4445C 57.9345 65.707 59.2345 65.5273 60.1598 65.0732C 59.0898 64.9536 57.9033 64.9615 57.1954 64.4524C 56.936 63.7035 57.259 62.683 57.0864 61.6432C 59.6262 60.9277 62.527 60.5467 65.7377 60.4526C 66.3622 61.2634 66.5751 62.8077 66.5013 64.3384ZM 25.0374 69.1219C 24.5229 69.4881 21.0427 74.0106 20.5659 73.8229C 14.2683 71.3426 8.37981 67.0537 3.1178 62.9972C 8.13481 52.2458 10.16 39.0735 10.5179 26.3777C 16.2651 23.6931 21.3132 19.8231 29.112 19.4189C 28.2095 25.7959 27.3857 31.4852 26.8734 37.489C 24.9139 38.3139 22.1026 37.4516 20.2688 37.7448C 20.2532 39.9518 23.0694 38.7112 23.304 40.1954C 23.4807 41.318 21.7545 41.4031 22.3166 43.1708C 23.7502 42.6503 24.503 41.5008 26.0319 41.0691C 27.4289 44.1215 26.0124 49.5223 26.2137 52.0735C 26.2519 52.5525 26.4532 54.7273 27.5276 54.3456C 28.4785 54.0079 27.4733 48.5618 27.5775 46.1472C 27.6724 43.9226 27.3085 41.77 28.2106 40.3735C 35.7466 41.398 43.4046 42.0602 51.5585 42.2836C 49.7647 43.0523 47.6336 43.7798 45.2972 45.095C 44.0306 45.8081 40.0381 47.2919 39.6726 48.4934C 39.0895 50.4079 41.2027 51.4277 41.5641 53.069C 37.7601 50.997 37.0179 55.055 36.118 57.93C 35.3027 60.5339 34.8386 62.4791 34.6385 63.9809C 31.3616 65.5411 27.858 67.1212 25.0374 69.1219ZM 63.173 73.2757C 68.42 75.8167 69.3657 63.7789 67.3091 59.901C 67.6269 58.7445 68.7203 58.3017 69.1665 57.2619C 66.2384 52.0235 62.9862 47.1336 59.9986 41.9568C 62.221 43.3385 65.3954 42.2039 68.0107 43.2381C 68.9666 43.6157 69.6586 45.8013 70.3824 47.5498C 72.3732 52.3601 74.4634 58.4247 75.3932 63.0152C 75.6033 64.0612 76.1755 66.3403 76.0472 67.2712C 75.8184 68.938 73.554 70.1739 72.4022 71.2046C 70.2802 73.1084 68.9439 74.7837 66.7306 76.5639C 65.8331 75.2407 63.907 74.3517 63.173 73.2757ZM 13.0376 119.747C 10.5374 116.999 11.0608 111.851 11.3635 108.189C 15.8826 111.028 21.8809 107.964 21.8243 103.135C 23.9819 103.193 22.6303 105.827 22.2401 107.523C 20.9646 113.066 24.3888 119.087 22.3953 124.156C 18.5247 123.863 15.3449 122.284 13.0376 119.747ZM 30.927 135.692C 25.2669 134.09 18.0129 129.983 15.687 124.905C 17.488 125.166 18.7382 126.073 20.5149 126.185C 21.1863 126.229 22.066 125.904 22.8377 126.096C 24.3755 126.477 25.6733 129.92 26.8335 131.202C 27.9644 132.453 29.3237 132.987 30.2539 134.128C 30.8516 134.416 31.7352 134.396 31.7692 135.293C 31.5101 135.569 31.2374 135.78 30.927 135.692ZM 60.3909 134.186C 54.5161 137.496 44.5721 139.986 38.3229 136.874C 33.2804 134.364 26.4643 130.209 24.1404 124.944C 26.3113 119.864 23.4974 115.209 23.3178 110.051C 23.2224 107.306 24.6117 104.91 24.7181 101.923C 23.9752 100.699 21.7056 100.548 20.1346 100.632C 19.6057 103.275 18.6799 106.246 15.9547 106.544C 12.0985 106.965 9.27901 103.778 9.10382 100.447C 8.89651 96.53 12.1162 90.038 16.6798 90.4887C 18.4427 90.6628 18.8758 92.4276 20.7965 92.4095C 21.8376 90.3351 19.1906 89.6837 18.9183 88.2C 18.8474 87.8167 19.1378 86.3189 19.3068 85.6164C 20.1357 82.1961 21.9835 77.7694 23.8023 75.1655C 26.1106 71.8625 30.6458 71.3647 35.5249 71.041C 36.3963 72.9159 39.6065 72.7617 41.6983 72.2713C 39.1915 73.2628 36.8609 75.6667 34.9295 77.7944C 32.7109 80.2356 30.4635 82.8543 30.35 86.045C 34.5425 80.2362 38.0062 75.1632 45.6299 72.608C 51.3984 70.6759 58.1355 73.4936 62.5679 76.6021C 64.4071 77.8942 65.505 79.9442 66.8124 81.8208C 71.704 88.848 73.9866 98.8783 73.4847 108.6C 73.2781 112.61 73.2872 116.605 71.9401 119.303C 70.5323 122.123 65.7707 124.647 62.9834 122.096C 62.4668 124.838 65.3012 126.535 68.6306 125.548C 66.2566 128.607 63.7651 132.284 60.3909 134.186ZM 71.3361 43.7206C 75.9269 45.9998 84.5043 49.8555 87.3824 43.7122C 88.4445 41.4477 89.6906 37.6198 90.2407 35.2823C 91.0178 31.9845 89.3982 25.053 86.0041 23.9464C 83.0063 22.9691 79.5083 23.0286 75.8973 23.7531C 75.4722 24.1063 74.9987 24.722 74.6678 25.3637C 72.0894 25.4636 69.6751 25.2255 67.6383 24.167C 67.8313 22.2626 66.5416 21.957 65.3324 21.5648C 64.4361 18.0153 67.1257 13.3798 66.482 10.1432C 66.0227 7.83734 63.1821 7.48079 61.0942 7.04941C 61.0261 5.76802 61.1856 4.69838 61.3281 3.61433C 60.8507 1.85748 58.7094 0.857369 56.6806 0.612435C 50.0054 -0.189253 39.87 -0.549348 33.4493 1.7565C 31.6576 6.1456 30.2462 11.4839 28.7538 16.4958C 22.4918 15.8279 17.4271 19.1943 12.6524 21.3998C 10.9993 22.1652 8.71248 22.5868 8.09491 23.901C 7.49619 25.1733 7.74119 27.6118 7.59263 29.9152C 7.21457 35.7983 6.89082 41.4728 5.33524 47.4965C 4.63678 50.1996 3.41935 52.5848 2.57006 55.1894C 1.78509 57.6033 0.413596 60.5866 0.0559074 62.9938C -0.474467 66.5615 2.88937 66.7599 5.04033 68.306C 8.3654 70.6968 10.9754 72.0189 14.5765 74.1766C 15.6431 74.8156 18.8596 76.4331 19.2254 77.178C 19.9527 78.6549 17.977 80.7373 17.4488 81.8949C 16.6132 83.7256 16.1775 85.2807 16.0578 87.087C 13.0369 87.5638 10.7469 89.3593 9.36371 91.3838C 7.07554 94.7344 5.48868 100.933 7.46843 105.649C 7.62369 106.02 8.39799 106.75 8.5122 107.32C 8.73751 108.444 8.08821 109.937 8.04785 111.131C 7.83985 117.26 9.08612 122.54 13.2172 124.389C 14.8943 131.061 20.8967 133.279 26.5519 136.595C 28.6658 137.835 30.9961 138.627 33.4028 139.511C 42.036 142.684 55.2818 142.087 62.447 136.675C 65.4851 134.38 70.3416 129.534 72.0786 126.026C 76.6665 116.764 76.3407 101.285 73.1317 90.018C 72.7002 88.5055 72.0747 86.2819 71.201 84.4649C 70.5919 83.1961 68.6987 80.6573 68.9286 79.537C 69.1653 78.3788 73.2452 75.285 74.12 74.4425C 75.6953 72.9248 78.688 70.9105 78.9304 68.9954C 79.191 66.9572 78.0312 64.169 77.4437 62.2023C 75.4795 55.6389 73.5631 49.572 71.3361 43.7206Z"/><path id="path55_fill" fill-rule="evenodd" d="M 0.128547 4.24637C 0.377584 4.57746 1.74686 5.08034 3.66275 4.15906C 3.66275 4.15906 1.39207 3.78091 1.58099 0L 0.634795 0.189357C 0.634795 0.189357 -0.343073 3.61764 0.128547 4.24637Z"/><path id="path56_fill" fill-rule="evenodd" d="M 2.08165 1.03909C 2.08165 0.465286 1.61559 0 1.04054 0C 0.466057 0 0 0.465286 0 1.03909C 0 1.61283 0.466057 2.07885 1.04054 2.07885C 1.61559 2.07885 2.08165 1.61283 2.08165 1.03909Z"/><path id="path57_fill" fill-rule="evenodd" d="M 2.08165 1.03909C 2.08165 0.465286 1.61559 0 1.04054 0C 0.466057 0 0 0.465286 0 1.03909C 0 1.61288 0.466057 2.07885 1.04054 2.07885C 1.61559 2.07885 2.08165 1.61288 2.08165 1.03909Z"/><path id="path58_fill" fill-rule="evenodd" d="M 21.7772 39.3208C 21.7772 43.2539 21.4632 46.5918 20.8353 49.3343C 20.2073 52.0769 18.797 54.3677 16.6043 56.2067C 14.4117 58.0457 11.1441 58.9652 6.80139 58.9652C 5.20482 58.9652 3.60826 58.8164 2.01168 58.5187L 0 47.8674C 1.68173 47.8249 3.05477 47.7292 4.11915 47.5804C 5.18354 47.4315 6.04568 47.0967 6.7056 46.5758C 7.36552 46.0549 7.83384 45.2524 8.11058 44.1681C 8.32346 43.3177 8.4299 40.8834 8.4299 36.8652L 8.4299 0.605957L 21.7772 0.605957L 21.7772 39.3208ZM 64.4057 31.3482L 41.5109 31.3482C 41.9579 33.3254 43.0542 34.9412 44.7998 36.1955C 46.5454 37.4499 48.5251 38.0771 50.739 38.0771C 54.6134 38.0771 58.8922 36.9928 63.5755 34.8243L 63.5755 41.9358C 61.8937 42.8075 59.8555 43.5994 57.4606 44.3116C 55.0657 45.0238 52.0163 45.38 48.3123 45.38C 44.3102 45.38 40.9042 44.6358 38.0942 43.1476C 35.2842 41.6594 33.1821 39.6397 31.7877 37.0885C 30.3934 34.5372 29.6962 31.6459 29.6962 28.4143C 29.6962 25.2253 30.3934 22.3711 31.7877 19.8518C 33.1821 17.3324 35.2842 15.3552 38.0942 13.9202C 40.9042 12.4851 44.3102 11.7676 48.3123 11.7676C 50.9519 11.7676 53.5011 12.3363 55.9598 13.4737C 58.4186 14.6111 60.4409 16.4714 62.0268 19.0545C 63.6127 21.6376 64.4057 24.9701 64.4057 29.0521L 64.4057 31.3482ZM 53.6129 25.6716C 53.6129 23.5881 53.0966 21.9245 52.0642 20.6808C 51.0317 19.437 49.5469 18.8152 47.6097 18.8152C 45.6939 18.8152 44.1452 19.4477 42.9637 20.7127C 41.7823 21.9776 41.1915 23.6306 41.1915 25.6716L 53.6129 25.6716ZM 104.767 44.8059L 93.2717 44.8059L 93.2717 27.2982C 93.2717 25.5123 92.979 23.955 92.3936 22.6262C 91.8082 21.2975 90.5256 20.6331 88.5459 20.6331C 87.6092 20.6331 86.7843 20.8085 86.0712 21.1593C 85.358 21.5101 84.7194 21.9618 84.1553 22.5146C 83.5912 23.0674 83.1175 23.5989 82.7343 24.1091C 82.3512 24.6194 81.9573 25.1615 81.5529 25.7355L 81.5529 44.8059L 70.0576 44.8059L 70.0576 12.3416L 81.5529 12.3416L 81.5529 16.9976C 83.3623 15.0629 85.1771 13.7076 86.9972 12.9316C 88.8173 12.1556 90.8449 11.7676 93.0801 11.7676C 100.871 11.7676 104.767 16.4235 104.767 25.7355L 104.767 44.8059ZM 150.301 44.8059L 135.709 44.8059L 123.223 29.4029L 123.223 44.8059L 111.6 44.8059L 111.6 0.605957L 123.223 0.605957L 123.223 26.5328L 134.623 12.3416L 148.417 12.3416L 135.709 27.4895L 150.301 44.8059ZM 165.149 4.84732C 165.149 6.18672 164.67 7.32413 163.712 8.25959C 162.754 9.19504 161.616 9.66276 160.296 9.66276C 159.402 9.66276 158.587 9.45016 157.853 9.02495C 157.119 8.59975 156.538 8.02041 156.113 7.28693C 155.687 6.55345 155.474 5.74026 155.474 4.84732C 155.474 3.52919 155.942 2.39178 156.879 1.43506C 157.816 0.47835 158.955 0 160.296 0C 161.616 0 162.754 0.47835 163.712 1.43506C 164.67 2.39178 165.149 3.52919 165.149 4.84732ZM 166.075 44.8059L 154.548 44.8059L 154.548 12.3416L 166.075 12.3416L 166.075 44.8059ZM 208.704 44.8059L 197.209 44.8059L 197.209 27.2982C 197.209 25.5123 196.916 23.955 196.33 22.6262C 195.745 21.2975 194.462 20.6331 192.483 20.6331C 191.546 20.6331 190.721 20.8085 190.008 21.1593C 189.295 21.5101 188.656 21.9618 188.092 22.5146C 187.528 23.0674 187.054 23.5989 186.671 24.1091C 186.288 24.6194 185.894 25.1615 185.49 25.7355L 185.49 44.8059L 173.994 44.8059L 173.994 12.3416L 185.49 12.3416L 185.49 16.9976C 187.299 15.0629 189.114 13.7076 190.934 12.9316C 192.754 12.1556 194.782 11.7676 197.017 11.7676C 204.808 11.7676 208.704 16.4235 208.704 25.7355L 208.704 44.8059ZM 241.018 35.3345C 241.018 38.311 239.927 40.7293 237.745 42.5896C 235.563 44.4498 232.322 45.38 228.022 45.38C 225.617 45.38 223.477 45.162 221.604 44.7262C 219.731 44.2904 217.687 43.6685 215.473 42.8606L 215.473 34.6967C 217.41 35.8022 219.092 36.642 220.518 37.216C 221.945 37.7901 223.509 38.0771 225.212 38.0771C 228.086 38.0771 229.523 37.2905 229.523 35.7172C 229.523 35.1857 229.316 34.7127 228.9 34.2981C 228.485 33.8835 227.762 33.4158 226.729 32.8949C 225.697 32.374 224.318 31.7522 222.594 31.0293C 220.465 30.0939 218.656 28.8395 217.166 27.2663C 215.676 25.693 214.93 23.769 214.93 21.4941C 214.93 19.8783 215.425 18.3264 216.415 16.8381C 217.405 15.3499 218.901 14.1328 220.902 13.1867C 222.903 12.2406 225.319 11.7676 228.15 11.7676C 228.831 11.7676 229.699 11.8154 230.753 11.9111C 231.806 12.0068 233.137 12.2566 234.744 12.6605C 236.351 13.0645 237.879 13.6385 239.326 14.3826L 239.326 22.3233C 238.645 21.9193 238.075 21.5792 237.618 21.3028C 237.16 21.0264 236.548 20.7181 235.782 20.378C 235.015 20.0378 234.116 19.7348 233.083 19.4691C 232.051 19.2033 230.992 19.0705 229.906 19.0705C 228.586 19.0705 227.682 19.3256 227.192 19.8358C 226.703 20.3461 226.458 20.8563 226.458 21.3666C 226.458 21.8981 226.713 22.3924 227.224 22.8495C 227.735 23.3066 228.874 23.8753 230.641 24.5556C 233.195 25.5336 235.239 26.5381 236.772 27.5692C 238.304 28.6003 239.395 29.7324 240.045 30.9655C 240.694 32.1986 241.018 33.6549 241.018 35.3345Z"/></defs></svg>