<svg width="111" height="43" viewBox="0 0 111 43" version="1.1" xmlns="http://www.w3.org/2000/svg" xmlns:xlink="http://www.w3.org/1999/xlink">
<title>jira_logo</title>
<desc>Created using Figma</desc>
<g id="Canvas" transform="translate(-946 -2557)">
<g id="jira_logo">
<g id="Shape">
<use xlink:href="#path0_fill" transform="translate(1029.6 2567.57)" fill="#2BC5FC"/>
</g>
<g id="Shape">
<use xlink:href="#path1_fill" transform="translate(979.721 2567.57)" fill="#2BC5FC"/>
</g>
<g id="Group">
<g id="Shape">
<use xlink:href="#path2_fill" transform="translate(946 2557.21)" fill="#2BC5FC"/>
</g>
<g id="Shape">
<use xlink:href="#path3_fill" transform="translate(958.028 2569.63)" fill="#2BC5FC"/>
</g>
</g>
</g>
</g>
<defs>
<path id="path0_fill" d="M 18.1139 0.538817C 18.0109 0.217997 17.7076 -0.000156637 17.3647 8.43859e-08L 10.034 8.43859e-08C 9.69122 -3.80008e-05 9.38806 0.218106 9.2852 0.538817L 0.0365832 29.3091C -0.0389369 29.5432 0.0038912 29.7986 0.15188 29.9966C 0.299869 30.1947 0.535275 30.3116 0.785614 30.3115L 5.83244 30.3115C 6.18067 30.3116 6.48739 30.0868 6.58584 29.7591L 12.9547 8.59963C 12.9547 8.59963 13.1213 8.07111 13.6982 8.07111C 14.2843 8.07111 14.4274 8.62022 14.4274 8.62086L 17.3822 18.655L 13.3225 18.655C 12.9707 18.655 12.6618 18.8845 12.5665 19.2166L 11.4271 23.1889C 11.3605 23.421 11.4088 23.6703 11.5574 23.8624C 11.7058 24.0548 11.9376 24.1679 12.1836 24.1678L 19.0344 24.1678L 20.8141 29.7699C 20.9164 30.092 21.2203 30.3114 21.5643 30.3115L 26.6133 30.3115C 26.8635 30.3114 27.0988 30.1945 27.2468 29.9965C 27.3947 29.7985 27.4376 29.5432 27.3623 29.3091L 18.1137 0.538603"/>
<path id="path1_fill" fill-rule="evenodd" d="M 5.08905 0L 9.93146 0C 10.1284 0 10.3172 0.0776367 10.4564 0.21582C 10.5956 0.35376 10.6738 0.541016 10.6736 0.736328L 10.6736 23.9836C 10.6736 28.8188 6.82666 32.4263 2.19342 32.4263C 1.64398 32.4263 1.30609 32.2263 1.20996 31.9155L 0.0326538 28.1177C -0.0336304 27.9038 0.0020752 27.6716 0.129639 27.4868C 0.256836 27.3025 0.488403 27.178 0.687378 27.1685C 2.16351 27.094 4.34467 26.1609 4.34467 23.3223L 4.34467 0.736084C 4.34589 0.329102 4.67877 0 5.08905 0ZM 21.1354 0L 16.3511 0C 15.9208 0 15.5718 0.345703 15.5716 0.772461L 15.5716 29.637C 15.5715 29.842 15.6536 30.0386 15.7998 30.1836C 15.946 30.3286 16.1443 30.4102 16.3511 30.4102L 21.1354 30.4102C 21.566 30.4102 21.9151 30.0642 21.9151 29.637L 21.9151 0.772705C 21.915 0.567871 21.8328 0.371094 21.6866 0.226318C 21.5404 0.0812988 21.3421 0 21.1354 0ZM 45.1386 19.6062L 51.7996 29.1343C 51.9977 29.3633 52.0433 29.686 51.916 29.9604C 51.7888 30.2346 51.5121 30.4104 51.2076 30.4102L 45.4857 30.4102C 45.2304 30.4102 44.9914 30.2861 44.8456 30.0784L 38.1869 20.5847L 33.2909 20.5847L 33.2909 29.637C 33.2909 30.064 32.9419 30.4102 32.5114 30.4102L 27.7273 30.4102C 27.5205 30.4102 27.3222 30.3286 27.176 30.1836C 27.0298 30.0386 26.9478 29.842 26.9478 29.637L 26.9478 0.772461C 26.9481 0.345703 27.297 0 27.7273 0L 39.5775 0C 46.4123 0 49.4603 2.5813 49.4603 8.37061L 49.4603 12.2563C 49.4603 15.9539 48.0067 18.4265 45.1386 19.6062ZM 39.3527 5.61987L 33.2908 5.61987L 33.2908 15.0508L 39.3527 15.0508C 42.1673 15.0508 43.1169 14.2219 43.1169 11.7651L 43.1169 8.81714C 43.1169 6.84302 42.4876 5.61987 39.3527 5.61987Z"/>
<path id="path2_fill" fill-rule="evenodd" d="M 12.9952 2.7041C 12.9952 1.20703 14.2139 0 15.7189 0C 17.2247 0 18.4423 1.20703 18.4423 2.7041C 18.4423 4.19702 17.2249 5.40845 15.7189 5.40845C 14.2137 5.40845 12.9952 4.19702 12.9952 2.7041ZM 6.77173 2.46704C 5.26654 2.46704 4.04785 3.67432 4.04785 5.1709C 4.04785 6.66382 5.26654 7.87524 6.77173 7.87524C 8.27777 7.87524 9.4953 6.66382 9.4953 5.1709C 9.4953 3.67432 8.27795 2.46704 6.77173 2.46704ZM 24.6663 2.46704C 23.1605 2.46704 21.9433 3.67432 21.9433 5.1709C 21.9433 6.66382 23.1605 7.87524 24.6663 7.87524C 26.1679 7.87524 27.3895 6.66382 27.3895 5.1709C 27.3895 3.67432 26.1679 2.46899 24.6663 2.46704ZM 31.1054 10.0015C 30.9564 9.88892 30.7742 9.82812 30.5869 9.82788C 30.4843 9.82788 30.3805 9.84644 30.2826 9.88403C 28.4384 10.5835 26.5653 11.1147 24.856 11.5098C 24.5073 11.5903 24.2259 11.8472 24.1091 12.1555C 22.8636 15.5391 19.6833 18.7612 16.3467 22.1357C 16.2128 22.262 16.0253 22.4282 15.72 22.4282C 15.4152 22.4282 15.2295 22.2671 15.0932 22.1357L 15.0659 22.1082C 11.7396 18.7437 8.57336 15.541 7.33087 12.1665C 7.21405 11.8584 6.93237 11.6016 6.58441 11.5205C 4.87396 11.1255 2.99646 10.5779 1.1543 9.87866C 1.05682 9.8418 0.95343 9.82275 0.849121 9.82275C 0.66449 9.82275 0.485596 9.88013 0.334534 9.99487C 0.102173 10.1709 -0.0228271 10.4531 0.003479 10.7422C 0.286011 13.5559 1.40698 16.3066 3.43005 19.189C 5.33124 21.8984 7.81073 24.4065 10.2083 26.8313L 10.2101 26.8333L 10.215 26.8381C 14.6317 31.3069 18.8029 35.5271 19.1689 40.4211C 19.2021 40.8633 19.5734 41.2051 20.0203 41.2051L 25.2116 41.2051C 25.4453 41.2048 25.6686 41.1096 25.8297 40.9419C 25.9908 40.7739 26.0756 40.5481 26.0643 40.3167C 25.9009 37.0435 24.659 33.7654 22.2676 30.2966C 21.7664 29.5693 21.2296 28.8616 20.6682 28.1692C 20.4401 27.8872 20.5356 27.5369 20.7099 27.3601L 20.9398 27.1274L 21.2302 26.8333C 23.6283 24.4077 26.1085 21.8992 28.0103 19.189C 30.0332 16.3062 31.1537 13.5718 31.4365 10.7585C 31.4646 10.4758 31.3353 10.1758 31.1054 10.0015ZM 9.54321 30.384C 9.84619 30.384 10.0264 30.5139 10.1494 30.6414C 11.7057 32.2522 12.752 33.4272 13.606 34.5291C 13.7777 34.7495 14.0098 35.2654 13.7112 35.8142C 12.8502 37.4011 12.3773 38.9114 12.2644 40.418C 12.2294 40.8608 11.858 41.2029 11.4102 41.2048L 6.22791 41.2048C 5.99329 41.2041 5.76898 41.1089 5.60663 40.9409C 5.44574 40.772 5.36096 40.5454 5.3717 40.3132C 5.52759 37.1875 6.65533 34.0769 8.83893 30.7812C 8.92584 30.6497 9.1557 30.384 9.54321 30.384Z"/>
<path id="path3_fill" d="M 3.69729 0.0968985C 5.32409 0.0968985 6.26768 0 6.59919 0C 7.00095 0 7.38449 0.326407 7.38449 0.783245C 7.38449 0.916508 7.35265 1.01188 7.32126 1.09615C 7.10545 1.66818 6.12212 3.72657 4.29137 5.4923C 4.08588 5.69045 3.85317 5.72747 3.6929 5.72747L 3.69115 5.72747C 3.5311 5.72747 3.29861 5.69045 3.09333 5.4923C 1.26236 3.72657 0.278817 1.66818 0.0636669 1.09593C 0.0318335 1.01188 0 0.916508 0 0.783245C 0 0.326407 0.384197 0 0.785957 0C 1.11746 0 2.06039 0.0968985 3.68675 0.0968985L 3.69751 0.0968985"/>
</defs>
</svg>
