<svg xmlns="http://www.w3.org/2000/svg" xmlns:xlink="http://www.w3.org/1999/xlink" width="368" height="101" version="1.1" viewBox="0 0 368 101"><title>laravel_logo</title><desc>Created using Figma</desc><g id="Canvas" transform="translate(-630 604)"><g id="laravel_logo"><g id="Shape"><use fill="#F0543F" transform="translate(630 -604)" xlink:href="#path0_fill"/></g><g id="Group"><g id="Shape"><use fill="#FFF" transform="translate(814 -572)" xlink:href="#path1_fill"/></g><g id="Shape"><use fill="#FFF" transform="translate(824.895 -561)" xlink:href="#path2_fill"/></g><g id="Shape"><use fill="#FFF" transform="translate(864.842 -561)" xlink:href="#path3_fill"/></g><g id="Shape"><use fill="#FFF" transform="translate(883 -561)" xlink:href="#path4_fill"/></g><g id="Shape"><use fill="#FFF" transform="translate(920.526 -559.778)" xlink:href="#path5_fill"/></g><g id="Shape"><use fill="#FFF" transform="translate(954.421 -561)" xlink:href="#path6_fill"/></g><g id="Shape"><use fill="#FFF" transform="translate(994.368 -572)" xlink:href="#path1_fill"/></g></g></g></g><defs><path id="path0_fill" fill-rule="evenodd" d="M 91.1461 99.8918C 91.5743 100.594 92.3328 101 93.1279 101C 93.3848 101 93.6417 100.958 93.8925 100.873L 144.692 83.2637C 145.377 83.0215 145.909 82.4826 146.129 81.7983C 146.35 81.1141 146.233 80.3693 145.811 79.7819L 128.905 56.1901L 148.295 50.9703C 149.047 50.7705 149.646 50.2073 149.885 49.4747C 150.13 48.7419 149.977 47.9366 149.494 47.3371L 131.088 24.587C 130.532 23.9027 129.626 23.5878 128.758 23.7937L 107.484 28.7652C 106.738 28.9408 106.126 29.4737 105.857 30.1821C 105.582 30.8967 105.686 31.696 106.132 32.3137L 121.314 53.5015L 75.8482 65.7394L 36.7012 1.11023C 36.2302 0.329041 35.3249 -0.100891 34.4135 0.0202637L 2.00098 4.33167C 1.25476 4.43463 0.60022 4.88879 0.25769 5.55487C -0.0909424 6.22095 -0.0848389 7.01422 0.269958 7.67426L 38.4138 78.7101C 38.9154 79.6547 40.0164 80.121 41.0563 79.8425L 73.6829 71.0561L 91.1461 99.8918ZM 94.392 96.1905L 78.629 70.0613L 124.279 57.7143L 140.323 80.1981L 94.392 96.1905ZM 6.0484 8.46698L 41.7718 74.5476L 71.371 66.6312L 33.6714 4.80951L 6.0484 8.46698ZM 125.853 51.7023L 111.29 32.5886L 128.252 28.8571L 143.952 47.1169L 125.853 51.7023Z"/><path id="path1_fill" d="M 0 0L 3.63158 0L 3.63158 42.7778L 0 42.7778L 0 0Z"/><path id="path2_fill" fill-rule="evenodd" d="M 32.6842 32.1938L 32.6842 0.806152L 32.6842 0.793335L 28.7043 0.793335L 28.7043 6.56415C 27.1302 4.3761 25.3002 2.73828 23.2142 1.63782C 21.1283 0.550232 18.7864 0 16.2141 0C 11.7479 0 7.93433 1.59949 4.76056 4.81116C 1.58685 8.02289 0 11.8871 0 16.4041C 0 21.0233 1.57404 24.9387 4.72217 28.1633C 7.85754 31.3878 11.6583 33 16.0989 33C 18.5944 33 20.8979 32.4754 23.0095 31.4389C 25.1082 30.4025 27.015 28.8542 28.7043 26.7941L 28.7043 32.1938L 32.6842 32.1938ZM 10.3274 5.54053C 12.2214 4.44012 14.2946 3.88989 16.5469 3.88989C 20.0405 3.88989 22.9839 5.10547 25.3898 7.52386C 27.7829 9.96783 28.973 13.0004 28.973 16.6343C 28.973 19.0143 28.4355 21.1512 27.3734 23.0578C 26.3112 24.9644 24.7883 26.4742 22.8047 27.5875C 20.8212 28.7007 18.7352 29.2637 16.5213 29.2637C 14.3329 29.2637 12.2726 28.7007 10.3658 27.5746C 8.45905 26.4486 6.93616 24.8876 5.79718 22.8658C 4.6582 20.8569 4.09515 18.7457 4.09515 16.532C 4.09515 14.3055 4.6582 12.1943 5.78436 10.1982C 6.91052 8.20203 8.42065 6.64093 10.3274 5.54053Z"/><path id="path3_fill" d="M 0 0.808338L 4.0865 0.808338L 4.0865 5.32998C 5.30484 3.54911 6.59932 2.2103 7.94457 1.32618C 9.3025 0.44206 10.7112 0 12.1834 0C 13.2875 0 14.4677 0.353648 15.7368 1.04831L 13.6428 4.40797C 12.8052 4.04169 12.0945 3.86486 11.5234 3.86486C 10.1909 3.86486 8.89639 4.40797 7.66537 5.5068C 6.42165 6.59301 5.48251 8.29809 4.83527 10.5842C 4.34032 12.3524 4.0865 15.9141 4.0865 21.2946L 4.0865 31.7778L 0 31.7778L 0 0.808338Z"/><path id="path4_fill" fill-rule="evenodd" d="M 32.6842 32.1938L 32.6842 0.806152L 32.6842 0.793335L 28.7043 0.793335L 28.7043 6.56415C 27.1302 4.3761 25.3002 2.73828 23.2142 1.63782C 21.1283 0.550232 18.7864 0 16.2141 0C 11.7479 0 7.93433 1.59949 4.76056 4.81116C 1.58685 8.02289 0 11.8871 0 16.4041C 0 21.0233 1.57404 24.9387 4.72217 28.1633C 7.85754 31.3878 11.6583 33 16.0989 33C 18.5944 33 20.8979 32.4754 23.0095 31.4389C 25.1082 30.4025 27.015 28.8542 28.7043 26.7941L 28.7043 32.1938L 32.6842 32.1938ZM 10.3146 5.54053C 12.2086 4.44012 14.2817 3.88989 16.5341 3.88989C 20.0405 3.88989 22.9839 5.10547 25.377 7.52386C 27.7701 9.96783 28.9602 13.0004 28.9602 16.6343C 28.9602 19.0143 28.4227 21.1512 27.3605 23.0578C 26.2984 24.9644 24.7755 26.4742 22.7919 27.5875C 20.8083 28.7007 18.7224 29.2637 16.5085 29.2637C 14.3201 29.2637 12.2598 28.7007 10.353 27.5746C 8.44623 26.4486 6.92334 24.8876 5.78436 22.8658C 4.64539 20.8569 4.08234 18.7457 4.08234 16.532C 4.08234 14.3055 4.64539 12.1943 5.77155 10.1982C 6.89771 8.20203 8.40784 6.64093 10.3146 5.54053Z"/><path id="path5_fill" d="M 0 0L 4.22584 0L 14.5766 22.272L 24.8016 0L 29.0526 0L 14.9288 30.5556L 14.1867 30.5556L 0 0Z"/><path id="path6_fill" fill-rule="evenodd" d="M 31.6257 23.5659L 28.1921 21.7739C 26.9529 23.822 25.7911 25.3068 24.7326 26.2541C 23.6741 27.1757 22.3704 27.9182 20.8472 28.4686C 19.311 29.019 17.7491 29.3006 16.1356 29.3006C 12.8052 29.3006 9.99115 28.1486 7.71924 25.806C 5.44739 23.4636 4.27271 20.481 4.19525 16.8328L 32.6842 16.8328C 32.6455 12.5318 31.4708 8.96045 29.186 6.09308C 25.9589 2.03528 21.6475 0 16.2518 0C 11.0109 0 6.82855 1.97131 3.70471 5.93951C 1.2392 9.06287 0 12.6086 0 16.5896C 0 20.8138 1.44574 24.6156 4.36304 27.9694C 7.2804 31.3231 11.3207 33 16.4841 33C 18.8076 33 20.8988 32.6544 22.7447 31.9504C 24.5906 31.2463 26.2558 30.2223 27.7274 28.8782C 29.1989 27.5341 30.5027 25.7548 31.6257 23.5659ZM 25.817 8.14117C 26.8625 9.43402 27.6499 11.1621 28.1921 13.3126L 4.58252 13.3126C 5.42157 10.4325 6.66077 8.26917 8.28723 6.82269C 10.5204 4.83862 13.1924 3.85297 16.3034 3.85297C 18.188 3.85297 19.9952 4.237 21.6992 5.03064C 23.4031 5.81146 24.7714 6.84833 25.817 8.14117Z"/></defs></svg>