<svg width="165" height="46" viewBox="0 0 165 46" version="1.1" xmlns="http://www.w3.org/2000/svg" xmlns:xlink="http://www.w3.org/1999/xlink">
<title>loop_back_logo</title>
<desc>Created using Figma</desc>
<g id="Canvas" transform="translate(-637 280)">
<g id="loop_back_logo">
<g id="Loop Back">
<use xlink:href="#path0_fill" transform="translate(688 -272)" fill="#FFFFFF"/>
</g>
<g id="loopback">
<g id="Shape">
<use xlink:href="#path1_fill" transform="translate(637 -280)" fill="#FFFFFF"/>
</g>
<g id="Shape">
<use xlink:href="#path2_fill" transform="translate(646 -265)" fill="#07582A"/>
</g>
<g id="Shape">
<use xlink:href="#path3_fill" transform="translate(646 -273)" fill="#6CB433"/>
</g>
</g>
</g>
</g>
<defs>
<path id="path0_fill" d="M 5.03906 19.1758L 12.5039 19.1758L 12.5039 22L 1.52344 22L 1.52344 4.9375L 5.03906 4.9375L 5.03906 19.1758ZM 13.7812 15.543C 13.7812 14.2852 14.0234 13.1641 14.5078 12.1797C 14.9922 11.1953 15.6875 10.4336 16.5938 9.89453C 17.5078 9.35547 18.5664 9.08594 19.7695 9.08594C 21.4805 9.08594 22.875 9.60937 23.9531 10.6562C 25.0391 11.7031 25.6445 13.125 25.7695 14.9219L 25.793 15.7891C 25.793 17.7344 25.25 19.2969 24.1641 20.4766C 23.0781 21.6484 21.6211 22.2344 19.793 22.2344C 17.9648 22.2344 16.5039 21.6484 15.4102 20.4766C 14.3242 19.3047 13.7812 17.7109 13.7812 15.6953L 13.7812 15.543ZM 17.168 15.7891C 17.168 16.9922 17.3945 17.9141 17.8477 18.5547C 18.3008 19.1875 18.9492 19.5039 19.793 19.5039C 20.6133 19.5039 21.2539 19.1914 21.7148 18.5664C 22.1758 17.9336 22.4062 16.9258 22.4062 15.543C 22.4062 14.3633 22.1758 13.4492 21.7148 12.8008C 21.2539 12.1523 20.6055 11.8281 19.7695 11.8281C 18.9414 11.8281 18.3008 12.1523 17.8477 12.8008C 17.3945 13.4414 17.168 14.4375 17.168 15.7891ZM 27.3516 15.543C 27.3516 14.2852 27.5937 13.1641 28.0781 12.1797C 28.5625 11.1953 29.2578 10.4336 30.1641 9.89453C 31.0781 9.35547 32.1367 9.08594 33.3398 9.08594C 35.0508 9.08594 36.4453 9.60937 37.5234 10.6562C 38.6094 11.7031 39.2148 13.125 39.3398 14.9219L 39.3633 15.7891C 39.3633 17.7344 38.8203 19.2969 37.7344 20.4766C 36.6484 21.6484 35.1914 22.2344 33.3633 22.2344C 31.5352 22.2344 30.0742 21.6484 28.9805 20.4766C 27.8945 19.3047 27.3516 17.7109 27.3516 15.6953L 27.3516 15.543ZM 30.7383 15.7891C 30.7383 16.9922 30.9648 17.9141 31.418 18.5547C 31.8711 19.1875 32.5195 19.5039 33.3633 19.5039C 34.1836 19.5039 34.8242 19.1914 35.2852 18.5664C 35.7461 17.9336 35.9766 16.9258 35.9766 15.543C 35.9766 14.3633 35.7461 13.4492 35.2852 12.8008C 34.8242 12.1523 34.1758 11.8281 33.3398 11.8281C 32.5117 11.8281 31.8711 12.1523 31.418 12.8008C 30.9648 13.4414 30.7383 14.4375 30.7383 15.7891ZM 52.8633 15.7773C 52.8633 17.7305 52.418 19.2969 51.5273 20.4766C 50.6445 21.6484 49.4492 22.2344 47.9414 22.2344C 46.6602 22.2344 45.625 21.7891 44.8359 20.8984L 44.8359 26.875L 41.4492 26.875L 41.4492 9.32031L 44.5898 9.32031L 44.707 10.5625C 45.5273 9.57812 46.5977 9.08594 47.918 9.08594C 49.4805 9.08594 50.6953 9.66406 51.5625 10.8203C 52.4297 11.9766 52.8633 13.5703 52.8633 15.6016L 52.8633 15.7773ZM 49.4766 15.5312C 49.4766 14.3516 49.2656 13.4414 48.8438 12.8008C 48.4297 12.1602 47.8242 11.8398 47.0273 11.8398C 45.9648 11.8398 45.2344 12.2461 44.8359 13.0586L 44.8359 18.25C 45.25 19.0859 45.9883 19.5039 47.0508 19.5039C 48.668 19.5039 49.4766 18.1797 49.4766 15.5312ZM 61.1719 22L 61.1719 4.9375L 67.1484 4.9375C 69.2188 4.9375 70.7891 5.33594 71.8594 6.13281C 72.9297 6.92188 73.4648 8.08203 73.4648 9.61328C 73.4648 10.4492 73.25 11.1875 72.8203 11.8281C 72.3906 12.4609 71.793 12.9258 71.0273 13.2227C 71.9023 13.4414 72.5898 13.8828 73.0898 14.5469C 73.5977 15.2109 73.8516 16.0234 73.8516 16.9844C 73.8516 18.625 73.3281 19.8672 72.2812 20.7109C 71.2344 21.5547 69.7422 21.9844 67.8047 22L 61.1719 22ZM 64.6875 14.5703L 64.6875 19.1758L 67.6992 19.1758C 68.5273 19.1758 69.1719 18.9805 69.6328 18.5898C 70.1016 18.1914 70.3359 17.6445 70.3359 16.9492C 70.3359 15.3867 69.5273 14.5938 67.9102 14.5703L 64.6875 14.5703ZM 64.6875 12.0859L 67.2891 12.0859C 69.0625 12.0547 69.9492 11.3477 69.9492 9.96484C 69.9492 9.19141 69.7227 8.63672 69.2695 8.30078C 68.8242 7.95703 68.1172 7.78516 67.1484 7.78516L 64.6875 7.78516L 64.6875 12.0859ZM 83.625 22C 83.4688 21.6953 83.3555 21.3164 83.2852 20.8633C 82.4648 21.7773 81.3984 22.2344 80.0859 22.2344C 78.8438 22.2344 77.8125 21.875 76.9922 21.1562C 76.1797 20.4375 75.7734 19.5312 75.7734 18.4375C 75.7734 17.0938 76.2695 16.0625 77.2617 15.3438C 78.2617 14.625 79.7031 14.2617 81.5859 14.2539L 83.1445 14.2539L 83.1445 13.5273C 83.1445 12.9414 82.9922 12.4727 82.6875 12.1211C 82.3906 11.7695 81.918 11.5938 81.2695 11.5938C 80.6992 11.5938 80.25 11.7305 79.9219 12.0039C 79.6016 12.2773 79.4414 12.6523 79.4414 13.1289L 76.0547 13.1289C 76.0547 12.3945 76.2813 11.7148 76.7344 11.0898C 77.1875 10.4648 77.8281 9.97656 78.6562 9.625C 79.4844 9.26563 80.4141 9.08594 81.4453 9.08594C 83.0078 9.08594 84.2461 9.48047 85.1602 10.2695C 86.082 11.0508 86.543 12.1523 86.543 13.5742L 86.543 19.0703C 86.5508 20.2734 86.7188 21.1836 87.0469 21.8008L 87.0469 22L 83.625 22ZM 80.8242 19.6445C 81.3242 19.6445 81.7852 19.5352 82.207 19.3164C 82.6289 19.0898 82.9414 18.7891 83.1445 18.4141L 83.1445 16.2344L 81.8789 16.2344C 80.1836 16.2344 79.2813 16.8203 79.1719 17.9922L 79.1602 18.1914C 79.1602 18.6133 79.3086 18.9609 79.6055 19.2344C 79.9023 19.5078 80.3086 19.6445 80.8242 19.6445ZM 94.418 19.5039C 95.043 19.5039 95.5508 19.332 95.9414 18.9883C 96.332 18.6445 96.5352 18.1875 96.5508 17.6172L 99.7266 17.6172C 99.7187 18.4766 99.4844 19.2656 99.0234 19.9844C 98.5625 20.6953 97.9297 21.25 97.125 21.6484C 96.3281 22.0391 95.4453 22.2344 94.4766 22.2344C 92.6641 22.2344 91.2344 21.6602 90.1875 20.5117C 89.1406 19.3555 88.6172 17.7617 88.6172 15.7305L 88.6172 15.5078C 88.6172 13.5547 89.1367 11.9961 90.1758 10.832C 91.2148 9.66797 92.6406 9.08594 94.4531 9.08594C 96.0391 9.08594 97.3086 9.53906 98.2617 10.4453C 99.2227 11.3438 99.7109 12.543 99.7266 14.043L 96.5508 14.043C 96.5352 13.3867 96.332 12.8555 95.9414 12.4492C 95.5508 12.0352 95.0352 11.8281 94.3945 11.8281C 93.6055 11.8281 93.0078 12.1172 92.6016 12.6953C 92.2031 13.2656 92.0039 14.1953 92.0039 15.4844L 92.0039 15.8359C 92.0039 17.1406 92.2031 18.0781 92.6016 18.6484C 93 19.2188 93.6055 19.5039 94.418 19.5039ZM 106.266 16.9141L 105.047 18.1328L 105.047 22L 101.66 22L 101.66 4L 105.047 4L 105.047 13.9727L 105.703 13.1289L 108.949 9.32031L 113.016 9.32031L 108.434 14.6055L 113.414 22L 109.523 22L 106.266 16.9141Z"/>
<path id="path1_fill" d="M 0 11.5185L 19.5 0L 39 11.5185L 39 34.5553L 19.5 46L 0 34.5554L 0 11.5185Z"/>
<path id="path2_fill" d="M 22 16.9194L 3.64289 16.9194L 3.64289 0L 0 0L 0 20.7949L 10.4286 20.7949L 10.4286 24L 22 16.9193L 22 16.9194Z"/>
<path id="path3_fill" d="M 17.765 14.5385C 18.5284 13.3077 18.9449 11.8463 18.9449 10.3077C 18.9449 6.07695 15.822 2.61546 12.0052 2.61546L 10.0622 2.61546L 10.0622 0L 0 6.53842L 11.9359 6.53842C 13.8095 6.53842 15.2669 8.23079 15.2669 10.2308C 15.2669 12.2308 13.7401 13.9232 11.9359 13.9232L 4.57995 13.9232L 4.57995 17.923L 15.128 17.923C 16.9323 17.923 18.459 19.6154 18.459 21.6154C 18.459 22.5385 18.1815 23.3847 17.6263 24L 21.6511 24C 21.8594 23.2309 21.9981 22.4616 21.9981 21.6154C 22.0676 18.3847 20.2633 15.6154 17.765 14.5385Z"/>
</defs>
</svg>
