<svg width="19" height="16" viewBox="0 0 19 16" version="1.1" xmlns="http://www.w3.org/2000/svg" xmlns:xlink="http://www.w3.org/1999/xlink">
<title>next-arrow</title>
<g id="Canvas" transform="translate(-174 -562)">
<g id="next-arrow">
<g id="Line 3">
<use xlink:href="#path0_stroke" transform="matrix(6.12323e-17 -1 1 6.12323e-17 190.012 577.5)" fill="#fff"/>
</g>
<g id="Line 2">
<use xlink:href="#path1_stroke" transform="matrix(6.12323e-17 -1 1 6.12323e-17 175.012 570.5)" fill="#fff"/>
</g>
<g id="Path 2">
<use xlink:href="#path2_stroke" transform="matrix(6.12323e-17 -1 1 6.12323e-17 183.012 574.5)" fill="#fff"/>
</g>
</g>
</g>
<defs>
<path id="path0_stroke" d="M 0.5 0.5C -0.0522847 0.5 -0.5 0.947715 -0.5 1.5C -0.5 2.05228 -0.0522847 2.5 0.5 2.5L 0.5 0.5ZM 14.5 2.5C 15.0523 2.5 15.5 2.05228 15.5 1.5C 15.5 0.947715 15.0523 0.5 14.5 0.5L 14.5 2.5ZM 0.5 2.5L 14.5 2.5L 14.5 0.5L 0.5 0.5L 0.5 2.5Z"/>
<path id="path1_stroke" d="M 2 0C 2 -0.552285 1.55228 -1 1 -1C 0.447715 -1 0 -0.552285 0 0L 2 0ZM 0 13.0671C 0 13.6194 0.447715 14.0671 1 14.0671C 1.55228 14.0671 2 13.6194 2 13.0671L 0 13.0671ZM 0 0L 0 13.0671L 2 13.0671L 2 0L 0 0Z"/>
<path id="path2_stroke" d="M 0.730002 -0.683445C 0.352546 -1.08661 -0.280276 -1.10746 -0.683445 -0.730002C -1.08661 -0.352546 -1.10746 0.280276 -0.730002 0.683445L 0.730002 -0.683445ZM 5 5.34061L 4.27 6.02405C 4.45907 6.226 4.72335 6.34061 5 6.34061C 5.27665 6.34061 5.54093 6.226 5.73 6.02405L 5 5.34061ZM 10.73 0.683445C 11.1075 0.280276 11.0866 -0.352546 10.6834 -0.730002C 10.2803 -1.10746 9.64745 -1.08661 9.27 -0.683445L 10.73 0.683445ZM -0.730002 0.683445L 4.27 6.02405L 5.73 4.65716L 0.730002 -0.683445L -0.730002 0.683445ZM 5.73 6.02405L 10.73 0.683445L 9.27 -0.683445L 4.27 4.65716L 5.73 6.02405Z"/>
</defs>
</svg>
