<svg xmlns="http://www.w3.org/2000/svg" xmlns:xlink="http://www.w3.org/1999/xlink" width="85" height="30" version="1.1" viewBox="0 0 85 30"><title>php7_logo</title><desc>Created using Figma</desc><g id="Canvas" transform="translate(-904 423)"><g id="php7_logo"><g id="Shape"><use fill="#FFF" transform="translate(904 -417)" xlink:href="#path0_fill"/></g><g id="Shape"><use fill="#FFF" transform="translate(926 -423)" xlink:href="#path1_fill"/></g><g id="Shape"><use fill="#FFF" transform="translate(944 -417)" xlink:href="#path2_fill"/></g><g id="Shape"><use fill="#FFF" transform="translate(969 -423)" xlink:href="#path3_fill"/></g></g></g><defs><path id="path0_fill" fill-rule="evenodd" d="M 20.4476 2.28253C 19.1249 0.790894 17.0439 0.00100708 14.2038 0.00100708L 14.2038 0L 4.51318 0L 0 24L 5.02679 24L 6.22235 17.6202L 10.5613 17.6202C 12.0308 17.6202 13.4465 17.4643 14.8074 17.1524C 16.1683 16.8415 17.4392 16.1053 18.622 14.9478C 19.5897 14.0354 20.3371 13.0096 20.8644 11.8744C 21.3918 10.7392 21.7313 9.57974 21.8809 8.39899C 22.2468 5.81671 21.7694 3.77417 20.4476 2.28253ZM 6.93359 13.8471L 8.82184 3.82886C 8.82184 3.82886 10.1064 3.85114 10.3774 3.82785C 10.6642 3.82483 10.9539 3.81702 11.2413 3.8093C 12.0126 3.78854 12.7668 3.76825 13.4005 3.84201C 14.1216 3.92606 14.7125 4.0415 15.2839 4.27036C 16.5674 4.7858 17.0596 6.04556 16.6917 8.38278C 16.2397 11.1656 15.2438 12.5073 13.6676 13.2294C 12.2099 13.8977 10.2141 13.9028 7.90411 13.8805C 7.73486 13.8805 7.09796 13.8694 6.93359 13.8471Z"/><path id="path1_fill" d="M 9.65353 5.7563e-15L 8.43294 6.37975L 12.9846 6.37975C 15.4725 6.48101 17.3466 6.90228 18.6079 7.79241C 19.8692 8.68354 20.2734 10.3808 19.8205 12.8739L 17.6922 24L 12.5536 24L 14.5856 13.3803C 14.7981 12.2673 14.7048 11.4765 14.3055 11.0086C 13.9053 10.5408 13.07 10.2613 11.7729 10.2613L 7.70693 10.2025L 5.06512 24L 0 24L 4.58841 0L 9.65353 0L 9.65353 5.7563e-15Z"/><path id="path2_fill" fill-rule="evenodd" d="M 20.4476 2.28253C 19.1249 0.790894 17.0439 0.00100708 14.2038 0.00100708L 14.2038 0L 4.51318 0L 0 24L 5.02582 24L 6.22137 17.6202L 10.5604 17.6202C 12.0308 17.6202 13.4465 17.4643 14.8074 17.1524C 16.1683 16.8415 17.4392 16.1053 18.622 14.9478C 19.5897 14.0354 20.3371 13.0096 20.8644 11.8744C 21.3918 10.7392 21.7313 9.57974 21.8809 8.39899C 22.2468 5.81671 21.7694 3.77417 20.4476 2.28253ZM 6.93359 13.8471L 8.82184 3.82886C 8.82184 3.82886 10.1064 3.85114 10.3774 3.82785C 10.6642 3.82483 10.9539 3.81702 11.2413 3.8093C 12.0126 3.78854 12.7668 3.76825 13.4005 3.84201C 14.1216 3.92606 14.7125 4.0415 15.2839 4.27036C 16.5674 4.7858 17.0596 6.04556 16.6917 8.38278C 16.2397 11.1656 15.2438 12.5073 13.6676 13.2294C 12.2099 13.8977 10.2141 13.9028 7.90411 13.8805C 7.73486 13.8805 7.09796 13.8694 6.93359 13.8471Z"/><path id="path3_fill" d="M 0 4.1519L 0.00377983 0L 20 0L 20 4.15494L 6.50035 24L 0.452634 24L 14.4512 4.1519L 0 4.1519Z"/></defs></svg>