<svg xmlns="http://www.w3.org/2000/svg" xmlns:xlink="http://www.w3.org/1999/xlink" width="89" height="73" version="1.1" viewBox="0 0 89 73"><title>phpunit_logo</title><desc>Created using Figma</desc><g id="Canvas" transform="translate(-987 -2370)"><g id="phpunit_logo"><g id="Path 2"><use fill="#94A6FC" transform="matrix(1 -1.22465e-16 -1.22465e-16 -1 988.196 2420.45)" xlink:href="#path0_fill"/></g><g id="Shape"><use fill="#FFF" transform="matrix(1 -1.22465e-16 -1.22465e-16 -1 987 2421.5)" xlink:href="#path1_fill"/></g><g id="Shape"><use fill="#FFF" transform="matrix(1 -1.22465e-16 -1.22465e-16 -1 1025.04 2398.76)" xlink:href="#path2_fill"/></g><g id="Shape"><use fill="#FFF" transform="matrix(1 -1.22465e-16 -1.22465e-16 -1 1033.63 2399.38)" xlink:href="#path3_fill"/></g><g id="Shape"><use fill="#FFF" transform="matrix(1 -1.22465e-16 -1.22465e-16 -1 1038.78 2402.4)" xlink:href="#path4_fill"/></g><g id="Shape"><use fill="#FFF" transform="matrix(1 -1.22465e-16 -1.22465e-16 -1 1043.71 2405.82)" xlink:href="#path5_fill"/></g><g id="Shape"><use fill="#FFF" transform="matrix(1 -1.22465e-16 -1.22465e-16 -1 1048.19 2409.64)" xlink:href="#path6_fill"/></g><g id="Shape"><use fill="#FFF" transform="matrix(1 -1.22465e-16 -1.22465e-16 -1 1052.39 2413.86)" xlink:href="#path7_fill"/></g><g id="Shape"><use fill="#FFF" transform="matrix(1 -1.22465e-16 -1.22465e-16 -1 1056 2418.48)" xlink:href="#path8_fill"/></g><g id="Shape"><use fill="#FFF" transform="matrix(1 -1.22465e-16 -1.22465e-16 -1 1059.45 2423.53)" xlink:href="#path9_fill"/></g><g id="Shape"><use fill="#FFF" transform="matrix(1 -1.22465e-16 -1.22465e-16 -1 1062.51 2429.75)" xlink:href="#path10_fill"/></g><g id="Shape"><use fill="#FFF" transform="matrix(1 -1.22465e-16 -1.22465e-16 -1 987.404 2442.62)" xlink:href="#path11_fill"/></g><g id="Shape"><use fill="#FFF" transform="matrix(1 -1.22465e-16 -1.22465e-16 -1 1018.28 2442.62)" xlink:href="#path12_fill"/></g><g id="Shape"><use fill="#FFF" transform="matrix(1 -1.22465e-16 -1.22465e-16 -1 1001.53 2442.62)" xlink:href="#path13_fill"/></g><g id="Shape"><use fill="#FFF" transform="matrix(1 -1.22465e-16 -1.22465e-16 -1 1032.61 2442.9)" xlink:href="#path14_fill"/></g><g id="Shape"><use fill="#FFF" transform="matrix(1 -1.22465e-16 -1.22465e-16 -1 1067.91 2443)" xlink:href="#path15_fill"/></g><g id="Shape"><use fill="#FFF" transform="matrix(1 -1.22465e-16 -1.22465e-16 -1 1048.49 2442.62)" xlink:href="#path16_fill"/></g><g id="Shape"><use fill="#FFF" transform="matrix(1 -1.22465e-16 -1.22465e-16 -1 1062.48 2442.62)" xlink:href="#path17_fill"/></g></g></g><defs><path id="path0_fill" fill-rule="evenodd" d="M 0.392866 12.5492L 34.2572 0L 37.5786 0.989103L 43.5569 17.1822L 42.941 18.4535L 39.1306 18.8478L 34.2572 21.783L 33.3783 26.6124L 35.4099 31.0554L 40.6399 33.156L 44.5188 31.8077L 47.2607 29.6843L 48.6742 31.8077L 49.8603 34.9845L 48.1684 38.0075L 17.8148 48.7995L 13.9516 49.4324L 11.8526 48.1894L 0.392866 16.5444L 0 14.6629L 0.392866 12.5492Z"/><path id="path1_fill" fill-rule="evenodd" d="M 11.6043 49.0649C 11.9676 49.7687 12.9161 50.6738 13.7637 51.1362C 14.7122 51.6389 17.134 51.5988 18.5669 51.0559L 18.8516 50.9516C 19.4207 50.7431 20.1061 50.4919 20.4841 50.372L 20.9763 50.1943C 21.4778 50.0134 22.1534 49.7697 22.7041 49.5676C 23.4911 49.2661 24.3387 48.9643 24.6213 48.8637C 24.9039 48.7834 27.4064 47.8784 30.1712 46.8527C 32.9562 45.8271 36.4476 44.5603 37.941 44.0373C 39.0352 43.6542 40.1078 43.2602 40.7141 43.0375C 40.9353 42.9562 41.0945 42.8979 41.17 42.871C 41.4526 42.7502 43.2285 42.0866 45.1055 41.423C 49.3638 39.8947 49.8683 39.613 50.7966 38.2456C 51.5231 37.2199 51.5635 37.0793 51.5433 35.611C 51.5231 34.0827 50.958 32.1923 50.0902 30.7243C 49.3638 29.4978 47.8501 29.5178 46.6594 30.7646C 44.9844 32.4741 41.937 33.2583 39.8179 32.5544C 38.6473 32.1523 37.0934 31.0664 36.5485 30.2819C 33.7635 26.1394 36.9118 20.6894 42.1792 20.5688C 43.0066 20.5485 43.8542 20.5285 44.056 20.5285C 44.6816 20.5085 45.61 19.4023 45.61 18.7187C 45.61 18.1355 44.2578 14.1132 42.6837 10.051C 42.5222 9.6689 41.8765 7.89937 41.2507 6.12959C 39.717 1.88643 39.3739 1.32319 37.6989 0.478712C 36.6091 -0.064257 34.8735 -0.164843 33.7029 0.27754L 33.5034 0.351026C 33.0181 0.529493 32.0973 0.868116 31.2812 1.16231C 28.2136 2.24824 20.7465 4.96333 19.7778 5.32515C 18.9421 5.64448 17.9527 6.0019 15.1379 7.01899C 13.874 7.47578 12.2421 8.06538 10.0907 8.84443C 2.30359 11.6372 2.30017 11.6401 1.49316 12.3269L 1.47327 12.3437C 0.464172 13.1882 -2.04417e-16 14.3747 0 16.0439C 1.52692e-16 17.2907 0.141296 17.894 1.13019 20.5485C 1.7558 22.238 2.34106 23.8466 2.42175 24.1281C 2.68414 24.9326 4.17755 29.0151 4.39954 29.5581C 4.52063 29.8396 5.40863 32.2326 6.35712 34.8872C 8.23401 40.0756 8.75873 41.5236 9.18256 42.6296C 9.34399 43.0117 9.88892 44.5 10.3934 45.9077C 10.8979 47.3354 11.4429 48.7431 11.6043 49.0649ZM 39.8583 41.1213C 35.3174 42.7502 28.2741 45.3044 24.2379 46.7724C 20.2016 48.2404 16.6698 49.4873 16.3671 49.5476C 15.7213 49.6882 14.4095 49.2258 13.8646 48.7028C 13.5619 48.3811 9.28345 36.9787 2.68408 18.8593C 1.6347 15.9233 1.6347 15.2998 2.68408 14.1535C 3.26935 13.5302 4.29865 13.1079 12.2097 10.2321C 31.0793 3.37446 34.9542 2.00703 35.5596 2.00703C 36.3871 2.00703 37.4365 2.52998 37.8604 3.17354C 38.0621 3.47505 39.4143 7.01436 40.8875 11.0566L 43.5515 18.3969L 41.9167 18.5175C 38.9905 18.7387 36.71 19.9052 35.1964 21.9563C 33.8644 23.7663 33.4608 25.0734 33.5415 27.2453C 33.6021 28.6933 33.7231 29.2966 34.1469 30.2016C 35.6403 33.3991 39.2528 35.3095 42.825 34.8068C 44.944 34.5051 47.0024 33.5397 47.8905 32.4338C 48.0923 32.1723 48.3345 32.0114 48.4353 32.0717C 48.7986 32.2929 49.6462 35.4504 49.5251 36.134C 49.2426 37.6623 48.8188 37.8835 39.8583 41.1213Z"/><path id="path2_fill" fill-rule="evenodd" d="M 0 3.88333C 0.0201416 5.91458 1.25122 7.48318 3.08777 7.82498C 5.50952 8.26736 7.7699 6.41726 7.7699 3.96389C 7.7699 2.25442 6.78101 0.86697 5.16638 0.283718C 3.97571 -0.138645 3.41064 -0.0983617 2.17957 0.464627C 0.686157 1.16848 -1.99483e-16 2.25442 0 3.88333ZM 4.03638 2.39529C 5.38855 2.39529 6.01416 4.04422 5.04541 5.09012C 4.37939 5.81399 3.47131 5.79397 2.70435 5.02981C 2.03833 4.36599 1.99805 4.0242 2.42188 3.21975C 2.74475 2.55618 3.08777 2.39529 4.03638 2.39529Z"/><path id="path3_fill" d="M 0.415272 2.41322C 0.132733 1.87025 -0.0489 1.3876 0.0116443 1.32727C 0.253821 1.08595 2.45359 0 2.69577 0C 2.83704 0 3.20031 0.442424 3.50303 0.985399L 4.02774 1.9708L 3.38194 2.373C 2.43341 2.93609 1.38398 3.41873 1.12162 3.41873C 1.00053 3.41873 0.677631 2.9562 0.415272 2.41322Z"/><path id="path4_fill" d="M 0.635761 2.87576C 0.373403 2.45344 0.0908635 2.01102 0.0101379 1.87025C -0.0705877 1.70937 0.33304 1.34738 1.1403 0.824518C 1.84665 0.382094 2.51263 0 2.61354 0C 2.79517 0 3.92533 1.60882 3.92533 1.87025C 3.92533 2.05124 1.56411 3.61983 1.32193 3.61983C 1.20084 3.61983 0.89812 3.27796 0.635761 2.87576Z"/><path id="path5_fill" d="M 0.605442 2.97631C 0.28254 2.53388 0 2.05124 0 1.93058C 0 1.68926 2.09887 0 2.38141 0C 2.6034 0 3.83447 1.50826 3.83447 1.7697C 3.83447 1.93058 1.51361 3.82094 1.31179 3.82094C 1.25125 3.82094 0.948526 3.43884 0.605442 2.97631Z"/><path id="path6_fill" d="M 0.609534 2.99642C 0.226087 2.5741 -0.036271 2.15179 0.00409178 2.07135C 0.12518 1.7697 2.12314 0 2.32495 0C 2.58731 0 3.7982 1.26694 3.7982 1.54848C 3.7982 1.83003 1.75987 3.82094 1.47733 3.80083C 1.37643 3.80083 0.972799 3.43884 0.609534 2.99642Z"/><path id="path7_fill" d="M 0.746712 3.19752C 0.343084 2.85565 0 2.47355 0 2.35289C 0 2.07135 1.77596 0 1.99796 0C 2.21995 0 3.83447 1.26694 3.83447 1.42782C 3.83447 1.62893 1.81633 3.82094 1.63469 3.82094C 1.57415 3.82094 1.17052 3.53939 0.746712 3.19752Z"/><path id="path8_fill" d="M 0.766893 3.15361L 0 2.51008L 0.807256 1.42413C 1.27143 0.820825 1.63469 0.25774 1.63469 0.157189C 1.63469 -0.164574 2.17959 0.0164176 3.00703 0.619723C 3.49138 0.961597 3.85465 1.32358 3.81429 1.42413C 3.63265 1.947 2.09887 3.81724 1.83651 3.81724C 1.67506 3.81724 1.1907 3.51559 0.766893 3.15361Z"/><path id="path9_fill" d="M 0.905737 3.49917C 0.461747 3.21763 0.0581184 2.93609 0.0177556 2.89587C -0.0831514 2.81543 0.239751 2.21212 1.14791 0.764187L 1.63227 0L 2.37898 0.442424C 3.7715 1.26694 3.75132 1.24683 2.9037 2.71488C 2.45971 3.43884 2.01571 4.04215 1.91481 4.04215C 1.79372 4.04215 1.34973 3.80083 0.905737 3.49917Z"/><path id="path10_fill" d="M 1.44196 3.98191C -0.798175 3.39871 -0.293639 0.0201986 2.02722 8.83601e-05C 4.30772 -0.0200218 4.8728 3.39871 2.69321 3.98191C 2.37031 4.08246 1.80523 4.08246 1.44196 3.98191Z"/><path id="path11_fill" fill-rule="evenodd" d="M 0.100891 15.9875L 1.71539 16.1082C 2.60339 16.1887 4.48029 16.2087 5.89294 16.1687C 8.27435 16.1082 8.55695 16.0681 9.66687 15.5049C 12.3308 14.1575 13.239 11.302 11.9272 8.50659C 10.9585 6.47559 9.2027 5.51025 6.11499 5.28906L 4.64172 5.16821L 4.64172 2.59424L 4.64172 0L 2.32086 0L 0 0L 0.0403442 8.00391L 0.100891 15.9875ZM 7.02313 9.37134C 8.07257 10.0552 8.09277 11.845 7.06348 12.3679C 6.7406 12.5288 6.07458 12.6694 5.54987 12.6694L 4.64172 12.6694L 4.64172 10.739L 4.64172 8.80835L 5.61041 8.94922C 6.13513 9.00952 6.76074 9.21045 7.02313 9.37134Z"/><path id="path12_fill" fill-rule="evenodd" d="M 0.100891 15.9875L 1.81635 16.1082C 2.76483 16.1887 4.62152 16.2087 5.95355 16.1887C 8.59723 16.1082 9.62653 15.8267 10.8576 14.781C 13.4811 12.5889 12.9161 7.80273 9.86871 6.23413C 8.83942 5.69116 6.86163 5.22876 5.67096 5.22876L 4.64172 5.22876L 4.64172 2.61426L 4.64172 0L 2.32086 0L 0 0L 0.0403442 8.00391L 0.100891 15.9875ZM 7.78998 10.3767C 7.97162 11.3823 7.74969 12.0259 7.06342 12.3677C 6.74054 12.5286 6.05438 12.6694 5.54987 12.6694L 4.62152 12.6694L 4.68207 10.8193L 4.74261 8.94897L 5.7113 8.98926C 6.94232 9.06958 7.6286 9.51196 7.78998 10.3767Z"/><path id="path13_fill" d="M 0 8.04408L 0 0L 2.32086 0L 4.64172 0L 4.64172 3.11708L 4.64172 6.23416L 7.1644 6.23416L 9.68707 6.23416L 9.68707 3.11708L 9.68707 0L 12.0079 0L 14.3288 0L 14.3288 8.04408L 14.3288 16.0882L 12.0079 16.0882L 9.68707 16.0882L 9.68707 13.1722L 9.68707 10.2562L 7.1644 10.2562L 4.64172 10.2562L 4.64172 13.1722L 4.64172 16.0882L 2.32086 16.0882L 0 16.0882L 0 8.04408Z"/><path id="path14_fill" d="M 0 11.8858C 0 5.0282 0.403628 3.07751 2.09887 1.4687C 3.20884 0.443078 4.46009 0.0207637 6.45805 0.000653512C 8.75873 -0.0194567 10.1916 0.422968 11.342 1.54914C 13.1583 3.31884 13.5215 4.88743 13.5215 11.5037L 13.5215 16.3703L 11.5034 16.3703L 9.50544 16.3703L 9.4449 10.9004C 9.38435 5.8125 9.34399 5.34997 8.96054 4.626C 7.83039 2.4541 5.06553 2.77586 4.339 5.14886C 4.09683 5.95327 4.03628 7.30065 4.03628 11.2825L 4.03628 16.3703L 2.01814 16.3703L 0 16.3703L 0 11.8858Z"/><path id="path15_fill" d="M 3.24921 14.7976L 1.7356 14.3552L 1.67506 13.3094L 1.61451 12.2637L 0.8678 12.2034L 0.121088 12.143L 0.0605442 10.6951L 0 9.22706L 0.807256 9.22706L 1.59433 9.22706L 1.67506 5.96921C 1.7356 3.01301 1.79615 2.6108 2.19977 1.82651C 2.56304 1.14276 2.90612 0.841107 3.71338 0.459014C 4.8839 -0.0638512 5.57007 -0.124182 7.08367 0.197581L 8.09274 0.418793L 8.09274 1.90695L 8.09274 3.3951L 7.10385 3.3951C 6.47823 3.3951 6.03424 3.49565 5.87279 3.69675C 5.71134 3.87775 5.59025 4.98381 5.50952 6.61273L 5.40862 9.22706L 6.76077 9.22706L 8.09274 9.22706L 8.09274 10.7353L 8.09274 12.2436L 6.78095 12.2436L 5.46916 12.2436L 5.46916 13.7519C 5.46916 15.5014 5.54989 15.4612 3.24921 14.7976Z"/><path id="path16_fill" d="M 5.67098 11.8047C 5.26735 11.684 4.6619 11.322 4.31882 11.0204L 3.71338 10.4774L 3.65283 11.1209L 3.59229 11.7645L 1.79615 11.8248L 0 11.8851L 0.121088 9.00937C 0.201814 7.42066 0.262358 4.74601 0.262358 3.07686L 0.262358 0L 2.15941 0L 4.07664 0L 4.13719 3.80083C 4.19773 7.52121 4.21791 7.62176 4.68209 8.12452C 5.36825 8.84848 6.53878 8.84848 7.10385 8.12452C 7.50748 7.62176 7.52766 7.32011 7.52766 3.80083L 7.52766 0L 9.56599 0L 11.5841 0L 11.5236 4.38402C 11.463 8.58705 11.4429 8.78815 10.9585 9.73333C 10.1714 11.2416 9.28345 11.8449 7.7093 11.9656C 6.96258 12.0259 6.11497 11.9656 5.67098 11.8047Z"/><path id="path17_fill" d="M 0 5.93251L 0 0L 2.01814 0L 4.03628 0L 4.03628 5.93251L 4.03628 11.865L 2.01814 11.865L 0 11.865L 0 5.93251Z"/></defs></svg>