<svg width="100" height="27" viewBox="0 0 100 27" version="1.1" xmlns="http://www.w3.org/2000/svg" xmlns:xlink="http://www.w3.org/1999/xlink">
<title>rest_logo</title>
<desc>Created using Figma</desc>
<g id="Canvas" transform="translate(-678 423)">
<g id="rest_logo">
<use xlink:href="#path0_fill" transform="translate(678 -427)" fill="#FFFFFF"/>
</g>
</g>
<defs>
<path id="path0_fill" d="M 8.01172 30.9219C 4.73047 30.0013 3.08984 27.8822 3.08984 24.5645L 3.08984 21.8438C 3.08984 19.9206 2.27865 18.959 0.65625 18.959L 0.65625 16.1289C 2.24219 16.1289 3.05339 15.222 3.08984 13.4082L 3.08984 10.5098C 3.08984 8.82357 3.5 7.46094 4.32031 6.42188C 5.14062 5.38281 6.37109 4.63086 8.01172 4.16602L 8.77734 6.36719C 8.08464 6.6224 7.56055 7.06901 7.20508 7.70703C 6.84961 8.33594 6.66276 9.21094 6.64453 10.332L 6.64453 13.2031C 6.64453 15.263 5.82878 16.7077 4.19727 17.5371C 5.82878 18.3757 6.64453 19.8294 6.64453 21.8984L 6.64453 24.7969C 6.6901 26.9297 7.40104 28.2331 8.77734 28.707L 8.01172 30.9219ZM 25.3613 18.7129L 22.0938 18.7129L 22.0938 26L 17.9922 26L 17.9922 6.09375L 25.3887 6.09375C 27.7402 6.09375 29.554 6.61784 30.8301 7.66602C 32.1061 8.71419 32.7441 10.1953 32.7441 12.1094C 32.7441 13.4674 32.4479 14.6022 31.8555 15.5137C 31.2721 16.416 30.3835 17.1361 29.1895 17.6738L 33.4961 25.8086L 33.4961 26L 29.0938 26L 25.3613 18.7129ZM 22.0938 15.3906L 25.4023 15.3906C 26.4323 15.3906 27.2298 15.1309 27.7949 14.6113C 28.36 14.0827 28.6426 13.3581 28.6426 12.4375C 28.6426 11.4987 28.3737 10.7604 27.8359 10.2227C 27.3073 9.6849 26.4915 9.41602 25.3887 9.41602L 22.0938 9.41602L 22.0938 15.3906ZM 47.8516 17.373L 39.9766 17.373L 39.9766 22.7051L 49.2188 22.7051L 49.2188 26L 35.875 26L 35.875 6.09375L 49.1914 6.09375L 49.1914 9.41602L 39.9766 9.41602L 39.9766 14.1602L 47.8516 14.1602L 47.8516 17.373ZM 61.9473 20.7773C 61.9473 20.0026 61.6738 19.4102 61.127 19C 60.5801 18.5807 59.5957 18.1432 58.1738 17.6875C 56.752 17.2227 55.6263 16.7669 54.7969 16.3203C 52.5365 15.099 51.4062 13.4538 51.4062 11.3848C 51.4062 10.3092 51.707 9.35221 52.3086 8.51367C 52.9193 7.66602 53.7897 7.00521 54.9199 6.53125C 56.0592 6.05729 57.3353 5.82031 58.748 5.82031C 60.1699 5.82031 61.4368 6.08008 62.5488 6.59961C 63.6608 7.11003 64.5221 7.83464 65.1328 8.77344C 65.7526 9.71224 66.0625 10.7786 66.0625 11.9727L 61.9609 11.9727C 61.9609 11.0612 61.6738 10.3548 61.0996 9.85352C 60.5254 9.3431 59.7188 9.08789 58.6797 9.08789C 57.6771 9.08789 56.8978 9.30208 56.3418 9.73047C 55.7858 10.1497 55.5078 10.7057 55.5078 11.3984C 55.5078 12.0456 55.8314 12.5879 56.4785 13.0254C 57.1348 13.4629 58.0964 13.873 59.3633 14.2559C 61.6966 14.9577 63.3965 15.8281 64.4629 16.8672C 65.5293 17.9062 66.0625 19.2005 66.0625 20.75C 66.0625 22.4727 65.4108 23.8262 64.1074 24.8105C 62.804 25.7858 61.0495 26.2734 58.8438 26.2734C 57.3125 26.2734 55.918 25.9954 54.6602 25.4395C 53.4023 24.8743 52.4408 24.1042 51.7754 23.1289C 51.1191 22.1536 50.791 21.0234 50.791 19.7383L 54.9062 19.7383C 54.9062 21.9349 56.2188 23.0332 58.8438 23.0332C 59.819 23.0332 60.5801 22.8372 61.127 22.4453C 61.6738 22.0443 61.9473 21.4883 61.9473 20.7773ZM 83.8359 9.41602L 77.7383 9.41602L 77.7383 26L 73.6367 26L 73.6367 9.41602L 67.6211 9.41602L 67.6211 6.09375L 83.8359 6.09375L 83.8359 9.41602ZM 91.0273 28.707C 92.4128 28.2148 93.1237 26.8932 93.1602 24.7422L 93.1602 21.8438C 93.1602 19.7839 93.9941 18.3529 95.6621 17.5508C 93.9941 16.7487 93.1602 15.2949 93.1602 13.1895L 93.1602 10.332C 93.1237 8.20833 92.4128 6.88672 91.0273 6.36719L 91.793 4.16602C 93.4245 4.62175 94.6504 5.36914 95.4707 6.4082C 96.291 7.43815 96.7057 8.79167 96.7148 10.4688L 96.7148 13.4082C 96.7513 15.222 97.5625 16.1289 99.1484 16.1289L 99.1484 18.959C 97.526 18.959 96.7148 19.9115 96.7148 21.8164L 96.7148 24.7832C 96.6419 27.9733 95.0013 30.0195 91.793 30.9219L 91.0273 28.707Z"/>
</defs>
</svg>
