<svg xmlns="http://www.w3.org/2000/svg" xmlns:xlink="http://www.w3.org/1999/xlink" width="94" height="70" version="1.1" viewBox="0 0 94 70"><title>sass_logo</title><desc>Created using Figma</desc><g id="Canvas" transform="translate(-606 1222)"><g id="sass_logo"><g id="Shape"><use fill="#CD6799" transform="translate(606 -1222)" xlink:href="#path0_fill"/></g></g></g><defs><path id="path0_fill" fill-rule="evenodd" d="M 80.9413 40.2402C 77.662 40.2573 74.8119 41.0416 72.4253 42.2009C 72.2851 41.9253 72.1449 41.6543 72.0077 41.3892C 71.2878 39.9982 70.6493 38.7644 70.5195 37.8193C 70.4904 37.5969 70.4603 37.3892 70.4314 37.1898L 70.4302 37.1818C 70.2892 36.2086 70.1772 35.4359 70.3478 34.1367C 70.4873 33.0746 70.9575 31.7074 71.2412 30.8826L 71.2426 30.8787L 71.2437 30.8752C 71.3776 30.4858 71.4694 30.2191 71.4638 30.1643C 71.4467 29.9938 71.2578 29.1925 69.3691 29.1754C 67.4805 29.1583 65.8494 29.5334 65.6605 30.0278C 65.4717 30.5223 65.1111 31.6476 64.8707 32.8069C 64.5445 34.5118 61.0934 40.5983 59.119 43.7865C 58.4837 42.5419 57.9343 41.4508 57.8141 40.5813C 57.7853 40.3608 57.7554 40.1547 57.7268 39.9569L 57.7256 39.9485L 57.7249 39.9436C 57.5837 38.9706 57.4717 38.1978 57.6424 36.8987C 57.7819 35.8364 58.2521 34.4692 58.5359 33.6444L 58.5375 33.6399C 58.6718 33.2491 58.764 32.9811 58.7584 32.9263C 58.7413 32.7557 58.5524 31.9545 56.6638 31.9374C 54.7751 31.9203 53.144 32.2954 52.9551 32.7898C 52.874 33.0026 52.7896 33.338 52.6883 33.7408L 52.6877 33.7433L 52.6873 33.7449C 52.5533 34.2783 52.3899 34.9291 52.1653 35.5688C 51.7704 36.6941 47.1862 46.8553 45.9843 49.4808C 45.3662 50.8278 44.834 51.9019 44.4562 52.6349C 44.4562 52.6349 44.4391 52.686 44.3876 52.7714C 44.0613 53.4021 43.8725 53.7432 43.8725 53.7432L 43.8725 53.7601C 43.6149 54.2205 43.3402 54.6467 43.2029 54.6467C 43.0999 54.6467 42.911 53.4192 43.2372 51.7484C 43.6949 49.3966 44.5719 46.1742 45.101 44.2302L 45.1025 44.2246C 45.3666 43.2546 45.5436 42.6042 45.5379 42.5419C 45.5379 42.532 45.5408 42.5143 45.5447 42.4897C 45.5818 42.2599 45.7147 41.4373 44.4734 40.9905C 43.4022 40.595 42.8802 41.0393 42.6527 41.233C 42.5958 41.2816 42.5573 41.3143 42.5333 41.3143C 42.4131 41.3143 42.3272 41.6042 42.3272 41.6042C 42.3272 41.6042 43.821 35.4324 39.4771 35.4324C 36.7643 35.4324 33.0214 38.382 31.1671 41.0416C 29.9996 41.6724 27.51 43.0193 24.8487 44.4684C 23.9755 44.9534 23.0768 45.4384 22.2186 45.9015L 21.8097 46.1222C 21.7787 46.0916 21.7479 46.0573 21.7169 46.0227L 21.7137 46.0193L 21.7095 46.0145L 21.7067 46.0114L 21.7039 46.0083C 21.6705 45.9709 21.6371 45.9337 21.6037 45.9005C 19.9802 44.1777 17.9303 42.6112 15.8848 41.0481C 11.3111 37.5529 6.75928 34.0743 7.04401 28.9026C 7.19849 26.1748 8.14282 19.0142 25.7072 10.3192C 40.1639 3.24377 51.6674 5.20447 53.6591 9.552C 56.5092 15.7578 47.4952 27.283 32.5578 28.9537C 26.8575 29.5846 23.8701 27.4023 23.1146 26.584C 22.3248 25.7316 22.2046 25.6804 21.9127 25.8508C 21.4413 26.1016 21.7293 26.8441 21.9025 27.2909L 21.9127 27.3171C 22.3591 28.4764 24.1963 30.5223 27.304 31.5282C 30.0511 32.4148 36.73 32.9092 44.8168 29.8063C 53.8651 26.3282 60.939 16.6614 58.8615 8.56311C 56.7839 0.345459 43.0483 -2.36536 30.0511 2.22083C 22.3248 4.94873 13.9461 9.24512 7.91962 14.8372C 0.759949 21.4863 -0.37323 27.266 0.090332 29.6869C 1.32971 36.0814 8.255 40.8141 13.6844 44.5245L 13.6858 44.5255L 13.6871 44.5265L 13.6895 44.5281C 15.5539 45.8022 17.2416 46.9557 18.4617 48.0146C 18.2629 48.1274 18.0759 48.2286 17.9103 48.3181L 17.9078 48.3195L 17.9033 48.3219L 17.8093 48.3727C 15.4227 49.5491 6.32288 54.2716 4.05652 59.267C 1.48108 64.9272 4.46857 68.985 6.44305 69.5305C 12.5726 71.2184 18.8737 68.1837 22.2561 63.1713C 25.6385 58.1588 25.2264 51.6461 23.664 48.6625C 23.6469 48.6284 23.6297 48.5944 23.5953 48.5602C 23.898 48.3848 24.2047 48.2054 24.5116 48.026L 24.5311 48.0146L 24.5505 48.0033C 24.8574 47.8239 25.1641 47.6445 25.4668 47.4691C 26.6859 46.7531 27.8877 46.0881 28.9179 45.5425C 28.3341 47.1281 27.9049 49.0205 27.6989 51.7484C 27.4413 54.9536 28.7634 59.1135 30.4975 60.7502C 31.2701 61.4663 32.1801 61.4834 32.7639 61.4834C 34.7899 61.4834 35.6998 59.8126 36.7128 57.8348C 37.949 55.4139 39.0651 52.6008 39.0651 52.6008C 39.0651 52.6008 37.6743 60.2047 41.4516 60.2047C 42.8251 60.2047 44.2159 58.4316 44.834 57.528L 44.834 57.545C 44.834 57.545 44.8683 57.4939 44.937 57.3745C 45.0743 57.153 45.1602 57.0165 45.1602 57.0165L 45.1602 56.9824C 45.7096 56.0277 46.9458 53.8624 48.783 50.2651C 51.1523 45.6278 53.4359 39.8311 53.4359 39.8311C 53.4359 39.8311 53.6419 41.2462 54.3459 43.5989C 54.6431 44.5948 55.1724 45.6617 55.702 46.7291L 55.7025 46.7301C 55.9072 47.1426 56.1118 47.5551 56.3032 47.9635C 55.7538 48.7307 55.4103 49.157 55.4103 49.157L 55.4276 49.174L 55.3325 49.2975C 54.913 49.8427 54.4628 50.4277 53.9681 50.9982C 53.6302 51.3984 53.2804 51.8093 52.9323 52.2181L 52.9311 52.2196L 52.9298 52.2211C 51.3515 54.0752 49.8087 55.8876 49.5556 56.488C 49.195 57.3575 49.2809 57.9883 49.9677 58.4998C 50.4656 58.8749 51.3584 58.926 52.2684 58.8749C 53.951 58.7555 55.1357 58.3463 55.7194 58.0906C 56.6294 57.7667 57.6939 57.2722 58.6898 56.5392C 60.5269 55.1923 61.6429 53.2657 61.5399 50.7255C 61.4883 49.3274 61.0248 47.9294 60.4582 46.6166C 60.5422 46.4999 60.622 46.3831 60.7018 46.2664L 60.7031 46.2645L 60.7043 46.2627L 60.7078 46.2577C 60.7891 46.1387 60.8705 46.0197 60.9561 45.9005C 63.8577 41.6895 66.1069 37.0691 66.1069 37.0691C 66.1069 37.0691 66.313 38.4843 67.0169 40.837C 67.2978 41.8131 67.8198 42.8575 68.3387 43.8958L 68.3392 43.8967L 68.3481 43.9144C 68.4606 44.1395 68.5728 44.3641 68.6824 44.5878C 65.9524 46.7871 64.2698 49.3445 63.6689 51.0153C 62.5872 54.1182 63.4285 55.5162 65.0253 55.8401C 65.7464 55.9935 66.7766 55.6526 67.532 55.3287C 68.4935 55.0219 69.6267 54.4933 70.7084 53.709C 72.5455 52.3622 74.314 50.4867 74.2109 47.9464C 74.1594 46.7871 73.8503 45.6448 73.4211 44.5366C 75.739 43.5819 78.7265 43.0533 82.5381 43.4966C 90.7108 44.4514 92.3247 49.5149 92.0157 51.6461C 91.7066 53.7772 89.9897 54.9365 89.4231 55.2946C 88.8565 55.6526 88.6676 55.772 88.7191 56.0277C 88.7878 56.4027 89.0625 56.3857 89.5433 56.3175C 90.2129 56.1981 93.8356 54.5956 93.9902 50.6743C 94.2477 45.6619 89.4402 40.1891 80.9413 40.2402ZM 17.8951 61.3469C 15.1823 64.2794 11.405 65.3876 9.77393 64.4498C 8.02264 63.444 8.70941 59.1135 12.0403 56.0106C 14.0663 54.1182 16.676 52.3621 18.4102 51.288C 18.574 51.189 18.7704 51.0723 18.9945 50.9392L 19.019 50.9246C 19.3295 50.7402 19.6916 50.525 20.0928 50.2821C 20.213 50.2139 20.2816 50.1798 20.2816 50.1798L 20.6937 49.9241C 21.9127 54.3568 20.7452 58.2611 17.8951 61.3469ZM 37.0515 49.5093L 37.0556 49.4985L 37.0573 49.4943C 37.2767 48.9264 37.4742 48.4156 37.64 48.0146C 38.2237 46.5825 40.5244 40.2404 40.0265 39.3708C 39.6316 38.7059 38.0005 39.2515 36.5239 40.8882C 35.614 41.9111 34.0515 44.5366 33.3132 46.736C 31.8538 51.1176 32.4891 55.5504 33.5193 55.8231C 34.5083 56.0897 36.0206 52.1766 37.0515 49.5093ZM 53.9338 55.7549C 53.5389 55.9595 53.1612 56.0958 52.9895 55.9935C 52.8693 55.9254 53.1612 55.6526 53.1612 55.6526C 53.1612 55.6526 55.2043 53.4703 56.0113 52.4814L 56.1574 52.299L 56.1613 52.2942C 56.5915 51.7566 57.086 51.1387 57.6081 50.4526L 57.6081 50.6743C 57.6081 53.2828 55.067 55.0388 53.9338 55.7549ZM 67.2402 49.89C 66.2615 52.0211 66.21 52.7031 66.5019 52.9077C 67.9269 52.3962 70.2963 51.1687 70.3135 47.8782C 70.3307 47.3838 70.2104 46.8552 70.0388 46.3097C 68.5107 47.6566 67.6179 49.0546 67.2402 49.89Z"/></defs></svg>