<svg width="240" height="55" viewBox="0 0 240 55" version="1.1" xmlns="http://www.w3.org/2000/svg" xmlns:xlink="http://www.w3.org/1999/xlink">
<title>technologies_links_5</title>
<desc>Created using Figma</desc>
<g id="Canvas" transform="translate(-779 -2308)">
<g id="technologies_links_5">
<g id="jenkins_line_1" opacity="0.282495">
<use xlink:href="#path0_stroke" transform="matrix(-0.848048 0.529919 0.529919 0.848048 858.929 2303.65)" fill="#FFFFFF"/>
</g>
<g id="jenkins_line_2" opacity="0.282495">
<use xlink:href="#path1_stroke" transform="matrix(-0.848048 -0.529919 0.529919 -0.848048 1013.85 2361.3)" fill="#FFFFFF"/>
</g>
</g>
</g>
<defs>
<path id="path0_stroke" d="M 0.387695 6.85023L 0.0719529 6.46254L -0.703436 7.09402L -0.387695 7.48172L 0.387695 6.85023ZM 97.254 7.52252L 97.6105 7.87306L 98.3116 7.15997L 97.955 6.80943L 97.254 7.52252ZM 0 7.16598C -0.387695 7.48172 -0.387436 7.48204 -0.387103 7.48244C -0.386894 7.4827 -0.386488 7.4832 -0.38607 7.48371C -0.385359 7.48458 -0.384104 7.48611 -0.382682 7.48784C -0.380087 7.49099 -0.375811 7.49617 -0.370622 7.50242C -0.36075 7.51431 -0.345157 7.53296 -0.325444 7.55624C -0.287052 7.60156 -0.227857 7.67048 -0.151419 7.75706C -0.00070902 7.92773 0.228463 8.1798 0.526767 8.48858C 1.11865 9.10099 2.01023 9.96395 3.16777 10.9275C 5.47181 12.8439 8.91094 15.2171 13.3052 16.9524C 22.1364 20.4327 34.87 21.3652 50.5295 11.3727L 49.9916 10.5297C 34.6066 20.347 22.2099 19.3868 13.6719 16.0221C 9.38161 14.3348 6.07646 12.0474 3.80736 10.1588C 2.67833 9.21988 1.82613 8.39425 1.24587 7.79368C 0.958106 7.49598 0.744118 7.26047 0.598186 7.09518C 0.526303 7.01379 0.473806 6.95264 0.437586 6.90988C 0.419994 6.88911 0.407551 6.87422 0.398714 6.86358C 0.394549 6.85856 0.391801 6.85523 0.389712 6.85269C 0.388792 6.85157 0.38829 6.85096 0.387829 6.8504C 0.38766 6.85019 0.387627 6.85015 0.387543 6.85005C 0.387582 6.8501 0.387695 6.85023 0 7.16598ZM 50.5295 11.3727C 65.9599 1.5264 77.6673 0.618442 85.4798 2.12089C 89.3991 2.87092 92.3273 4.22166 94.3178 5.40182C 95.3049 5.98609 96.0357 6.5155 96.5338 6.90864C 96.7794 7.1023 96.9587 7.25553 97.0822 7.36502C 97.1424 7.41832 97.1851 7.45763 97.2153 7.48587C 97.2297 7.49926 97.2393 7.50841 97.2465 7.51531C 97.2497 7.5184 97.2516 7.5202 97.2532 7.52177C 97.2538 7.52237 97.254 7.52256 97.2543 7.52287C 97.2544 7.52293 97.2543 7.52284 97.2543 7.52288C 97.2542 7.52273 97.254 7.52252 97.6045 7.16598C 97.955 6.80943 97.9547 6.8091 97.9543 6.80871C 97.9541 6.8085 97.9536 6.80805 97.9532 6.80762C 97.9525 6.80696 97.9512 6.80569 97.9498 6.80436C 97.9475 6.80207 97.9434 6.7981 97.9386 6.79356C 97.9299 6.78521 97.9157 6.77167 97.8982 6.75536C 97.8649 6.72416 97.8123 6.67591 97.7455 6.61667C 97.6151 6.5011 97.4139 6.3294 97.1532 6.12358C 96.6387 5.71775 95.8535 5.15 94.8275 4.54149C 92.7918 3.33609 89.7048 1.91878 85.6687 1.13889C 77.5704 -0.418529 65.6058 0.566104 49.9916 10.5297L 50.5295 11.3727Z"/>
<path id="path1_stroke" d="M 0.406252 7.24174L 0.114773 6.83549L -0.69773 7.41844L -0.406252 7.8247L 0.406252 7.24174ZM 78.0657 13.0275L 78.4241 13.3762L 79.1214 12.6595L 78.7631 12.3108L 78.0657 13.0275ZM 0 7.53322C -0.406252 7.8247 -0.405981 7.82507 -0.405673 7.8255C -0.40552 7.82571 -0.405172 7.8262 -0.404865 7.82662C -0.404406 7.82726 -0.403481 7.82853 -0.402561 7.8298C -0.401036 7.8319 -0.398262 7.83569 -0.395199 7.83985C -0.389709 7.84729 -0.380455 7.85972 -0.369411 7.8743C -0.348633 7.9017 -0.315206 7.94494 -0.273277 7.99719C -0.192188 8.09814 -0.064881 8.25034 0.099733 8.4316C 0.422807 8.78682 0.925533 9.29131 1.58905 9.83537C 2.90097 10.9083 4.9478 12.2083 7.69931 13.0109C 13.2405 14.6166 21.6589 14.2345 33.349 6.63273L 32.8038 5.79439C 21.2946 13.2786 13.1748 13.5564 7.97763 12.0504C 5.35995 11.2972 3.48754 10.0984 2.22253 9.06161C 1.59757 8.5508 1.14741 8.09765 0.839704 7.75896C 0.688929 7.59325 0.581377 7.46442 0.506454 7.37108C 0.470377 7.32619 0.44551 7.29397 0.427495 7.2702C 0.419142 7.25919 0.413875 7.2521 0.409693 7.24643C 0.407921 7.24402 0.407071 7.24286 0.406182 7.24164C 0.405894 7.24124 0.405625 7.24087 0.40577 7.24107C 0.405775 7.24108 0.405896 7.24124 0.405899 7.24125C 0.406057 7.24147 0.406252 7.24174 0 7.53322ZM 33.349 6.63273C 44.7678 -0.792664 55.9173 0.787091 64.2535 4.24591C 68.4316 5.97743 71.8728 8.16809 74.2975 9.94249C 75.5056 10.8262 76.4457 11.5964 77.0918 12.1521C 77.413 12.4282 77.656 12.6468 77.8219 12.7992C 77.904 12.8745 77.9649 12.9315 78.0066 12.971C 78.027 12.9903 78.0418 13.0044 78.0521 13.0143C 78.057 13.0191 78.0604 13.0224 78.0629 13.0248C 78.064 13.0259 78.0647 13.0265 78.0653 13.0271C 78.0655 13.0273 78.0656 13.0274 78.0658 13.0275C 78.0658 13.0275 78.0657 13.0275 78.4144 12.6691C 78.7631 12.3108 78.7628 12.3105 78.7625 12.3102C 78.7623 12.31 78.7619 12.3096 78.7615 12.3092C 78.7607 12.3084 78.7594 12.3072 78.7578 12.3057C 78.7549 12.3029 78.7502 12.2984 78.7445 12.2928C 78.7333 12.2821 78.716 12.2655 78.6938 12.2446C 78.6503 12.2034 78.584 12.1413 78.4983 12.0626C 78.3286 11.9067 78.0733 11.6773 77.7438 11.3939C 77.0886 10.8304 76.1179 10.0356 74.888 9.13545C 72.4367 7.34224 68.8933 5.09039 64.6368 3.32226C 56.1038 -0.218199 44.5844 -1.86623 32.8038 5.79439L 33.349 6.63273Z"/>
</defs>
</svg>
