<svg width="1230" height="54" viewBox="0 0 1230 54" version="1.1" xmlns="http://www.w3.org/2000/svg"
     xmlns:xlink="http://www.w3.org/1999/xlink">
    <title>technologies_diagram</title>
    <desc>Created using Figma</desc>
    <g id="Canvas" transform="translate(104 1738)">
        <g id="technologies_diagram">
            <g id="technologies_line">
                <g id="default_line">
                    <use xlink:href="#path0_stroke" transform="translate(-60 -1700)" fill="#FFFFFF"/>
                </g>
                <g id="action_line">
                    <use xlink:href="#path0_stroke" transform="translate(-60 -1700)" fill="#FFFA1C"/>
                </g>
            </g>
            <g id="backend_dot">
                <g id="Oval 23">
                    <use xlink:href="#path1_fill" transform="translate(201 -1711)" fill="#FFFFFF"/>
                    <use xlink:href="#path2_stroke" transform="translate(201 -1711)" fill="#FFFA1C"/>
                </g>
                <g id="Back End">
                    <use xlink:href="#path3_fill" transform="translate(187 -1740)" fill="#BCBCBC"/>
                </g>
            </g>
            <g id="frontend_dot">
                <g id="Oval 23">
                    <use xlink:href="#path1_fill" transform="translate(-86 -1711)" fill="#FEF641"/>
                    <use xlink:href="#path2_stroke" transform="translate(-86 -1711)" fill="#FFFA1C"/>
                </g>
                <g id="Front End">
                    <use xlink:href="#path4_fill" transform="translate(-104 -1740)" fill="#FEF44E"/>
                </g>
            </g>
            <g id="environment_dot">
                <g id="Oval 23">
                    <use xlink:href="#path1_fill" transform="translate(786 -1711)" fill="#FFFFFF"/>
                    <use xlink:href="#path2_stroke" transform="translate(786 -1711)" fill="#FFFA1C"/>
                </g>
                <g id="Environment">
                    <use xlink:href="#path5_fill" transform="translate(766 -1740)" fill="#BCBCBC"/>
                </g>
            </g>
            <g id="api_dot">
                <g id="Oval 23 Copy">
                    <use xlink:href="#path1_fill" transform="translate(492 -1711)" fill="#FFFFFF"/>
                    <use xlink:href="#path2_stroke" transform="translate(492 -1711)" fill="#FFFA1C"/>
                </g>
                <g id="API">
                    <use xlink:href="#path6_fill" transform="translate(494 -1740)" fill="#BCBCBC"/>
                </g>
            </g>
            <g id="deployment_dot">
                <g id="Oval 23 Copy 2">
                    <use xlink:href="#path1_fill" transform="translate(1070 -1711)" fill="#FFFFFF"/>
                    <use xlink:href="#path2_stroke" transform="translate(1070 -1711)" fill="#FFFA1C"/>
                </g>
                <g id="Deployment">
                    <use xlink:href="#path7_fill" transform="translate(1052 -1740)" fill="#BCBCBC"/>
                </g>
            </g>
        </g>
    </g>
    <defs>
        <path id="path0_stroke"
              d="M 0.5 0L -1 0L -1 3L 0.5 3L 0.5 0ZM 1140.31 3L 1141.81 3L 1141.81 0L 1140.31 0L 1140.31 3ZM 0.5 3L 1140.31 3L 1140.31 0L 0.5 0L 0.5 3Z"/>
        <path id="path1_fill" fill-rule="evenodd"
              d="M 12.5 25C 19.4036 25 25 19.4036 25 12.5C 25 5.59644 19.4036 0 12.5 0C 5.59644 0 0 5.59644 0 12.5C 0 19.4036 5.59644 25 12.5 25Z"/>
        <path id="path2_stroke"
              d="M 12.5 27C 20.5081 27 27 20.5081 27 12.5L 23 12.5C 23 18.299 18.299 23 12.5 23L 12.5 27ZM 27 12.5C 27 4.49187 20.5081 -2 12.5 -2L 12.5 2C 18.299 2 23 6.70101 23 12.5L 27 12.5ZM 12.5 -2C 4.49187 -2 -2 4.49187 -2 12.5L 2 12.5C 2 6.70101 6.70101 2 12.5 2L 12.5 -2ZM -2 12.5C -2 20.5081 4.49187 27 12.5 27L 12.5 23C 6.70101 23 2 18.299 2 12.5L -2 12.5Z"/>
        <path id="path3_fill"
              d="M 1.25781 13L 1.25781 3.04688L 4.19727 3.04688C 5.26367 3.04688 6.07259 3.2679 6.62402 3.70996C 7.17546 4.14746 7.45117 4.7946 7.45117 5.65137C 7.45117 6.16634 7.3099 6.61523 7.02734 6.99805C 6.74935 7.3763 6.36654 7.64746 5.87891 7.81152C 6.45768 7.93913 6.92253 8.22396 7.27344 8.66602C 7.62891 9.10807 7.80664 9.61849 7.80664 10.1973C 7.80664 11.0768 7.52181 11.765 6.95215 12.2617C 6.38704 12.7539 5.59863 13 4.58691 13L 1.25781 13ZM 2.09863 8.21484L 2.09863 12.2891L 4.62109 12.2891C 5.34115 12.2891 5.91081 12.1068 6.33008 11.7422C 6.75391 11.373 6.96582 10.8626 6.96582 10.2109C 6.96582 9.5957 6.76302 9.11035 6.35742 8.75488C 5.95638 8.39486 5.40039 8.21484 4.68945 8.21484L 2.09863 8.21484ZM 2.09863 7.51074L 4.39551 7.51074C 5.09733 7.49707 5.63965 7.33301 6.02246 7.01855C 6.40983 6.69954 6.60352 6.23698 6.60352 5.63086C 6.60352 4.99284 6.40299 4.52344 6.00195 4.22266C 5.60547 3.91732 5.00391 3.76465 4.19727 3.76465L 2.09863 3.76465L 2.09863 7.51074ZM 14.3213 13C 14.2393 12.7676 14.1868 12.4235 14.1641 11.9678C 13.877 12.3415 13.5101 12.6309 13.0635 12.8359C 12.6214 13.0365 12.152 13.1367 11.6553 13.1367C 10.9443 13.1367 10.3678 12.9385 9.92578 12.542C 9.48828 12.1455 9.26953 11.6442 9.26953 11.0381C 9.26953 10.318 9.56803 9.74837 10.165 9.3291C 10.7666 8.90983 11.6029 8.7002 12.6738 8.7002L 14.1572 8.7002L 14.1572 7.85938C 14.1572 7.33073 13.9932 6.91602 13.665 6.61523C 13.3415 6.3099 12.8675 6.15723 12.2432 6.15723C 11.6735 6.15723 11.2018 6.30306 10.8281 6.59473C 10.4544 6.88639 10.2676 7.2373 10.2676 7.64746L 9.44727 7.64062C 9.44727 7.05273 9.7207 6.5446 10.2676 6.11621C 10.8145 5.68327 11.4867 5.4668 12.2842 5.4668C 13.109 5.4668 13.7585 5.67415 14.2324 6.08887C 14.7109 6.49902 14.957 7.07324 14.9707 7.81152L 14.9707 11.3115C 14.9707 12.027 15.0459 12.5625 15.1963 12.918L 15.1963 13L 14.3213 13ZM 11.751 12.4121C 12.2979 12.4121 12.7855 12.2799 13.2139 12.0156C 13.6468 11.7513 13.9613 11.3981 14.1572 10.9561L 14.1572 9.3291L 12.6943 9.3291C 11.8786 9.33822 11.2406 9.48861 10.7803 9.78027C 10.32 10.0674 10.0898 10.4639 10.0898 10.9697C 10.0898 11.3844 10.2425 11.7285 10.5479 12.002C 10.8577 12.2754 11.2588 12.4121 11.751 12.4121ZM 19.8926 12.4463C 20.4622 12.4463 20.9385 12.2868 21.3213 11.9678C 21.7087 11.6442 21.9183 11.2272 21.9502 10.7168L 22.7363 10.7168C 22.7135 11.168 22.5723 11.5804 22.3125 11.9541C 22.0527 12.3232 21.7064 12.6126 21.2734 12.8223C 20.8451 13.0319 20.3848 13.1367 19.8926 13.1367C 18.9219 13.1367 18.1517 12.7995 17.582 12.125C 17.0169 11.4505 16.7344 10.5436 16.7344 9.4043L 16.7344 9.1582C 16.7344 8.42904 16.862 7.78418 17.1172 7.22363C 17.3724 6.66309 17.737 6.23014 18.2109 5.9248C 18.6895 5.61947 19.2477 5.4668 19.8857 5.4668C 20.6969 5.4668 21.3646 5.70833 21.8887 6.19141C 22.4173 6.67448 22.6999 7.31022 22.7363 8.09863L 21.9502 8.09863C 21.9137 7.51986 21.7041 7.05273 21.3213 6.69727C 20.943 6.3418 20.4645 6.16406 19.8857 6.16406C 19.1475 6.16406 18.5732 6.43066 18.1631 6.96387C 17.7575 7.49707 17.5547 8.24447 17.5547 9.20605L 17.5547 9.44531C 17.5547 10.3887 17.7575 11.1247 18.1631 11.6533C 18.5732 12.182 19.1497 12.4463 19.8926 12.4463ZM 26.1338 9.27441L 25.1973 10.1768L 25.1973 13L 24.377 13L 24.377 2.5L 25.1973 2.5L 25.1973 9.21973L 25.9697 8.38574L 28.7998 5.60352L 29.832 5.60352L 26.6943 8.7207L 30.1055 13L 29.1279 13L 26.1338 9.27441ZM 40.332 8.22852L 35.6768 8.22852L 35.6768 12.2891L 41.0293 12.2891L 41.0293 13L 34.8359 13L 34.8359 3.04688L 40.9951 3.04688L 40.9951 3.76465L 35.6768 3.76465L 35.6768 7.51758L 40.332 7.51758L 40.332 8.22852ZM 43.3945 5.60352L 43.4219 6.86816C 43.6999 6.41243 44.0462 6.06608 44.4609 5.8291C 44.8757 5.58756 45.3337 5.4668 45.835 5.4668C 46.6279 5.4668 47.2181 5.6901 47.6055 6.13672C 47.9928 6.58333 48.1888 7.25326 48.1934 8.14648L 48.1934 13L 47.3799 13L 47.3799 8.13965C 47.3753 7.47884 47.234 6.98665 46.9561 6.66309C 46.6826 6.33952 46.2428 6.17773 45.6367 6.17773C 45.1309 6.17773 44.682 6.33724 44.29 6.65625C 43.9027 6.9707 43.6156 7.39681 43.4287 7.93457L 43.4287 13L 42.6152 13L 42.6152 5.60352L 43.3945 5.60352ZM 49.9844 9.2334C 49.9844 8.08496 50.2396 7.17122 50.75 6.49219C 51.265 5.80859 51.9622 5.4668 52.8418 5.4668C 53.8398 5.4668 54.6009 5.861 55.125 6.64941L 55.125 2.5L 55.9385 2.5L 55.9385 13L 55.1729 13L 55.1387 12.0156C 54.6146 12.763 53.8444 13.1367 52.8281 13.1367C 51.9759 13.1367 51.2878 12.7949 50.7637 12.1113C 50.2441 11.4232 49.9844 10.4958 49.9844 9.3291L 49.9844 9.2334ZM 50.8115 9.37695C 50.8115 10.3203 51.0007 11.0654 51.3789 11.6123C 51.7572 12.1546 52.2904 12.4258 52.9785 12.4258C 53.9857 12.4258 54.7012 11.9814 55.125 11.0928L 55.125 7.62012C 54.7012 6.65853 53.9902 6.17773 52.9922 6.17773C 52.304 6.17773 51.7686 6.44889 51.3857 6.99121C 51.0029 7.52897 50.8115 8.32422 50.8115 9.37695Z"/>
        <path id="path4_fill"
              d="M 6.87695 8.93262L 2.93945 8.93262L 2.93945 13L 0.888672 13L 0.888672 3.04688L 7.36914 3.04688L 7.36914 4.70801L 2.93945 4.70801L 2.93945 7.27832L 6.87695 7.27832L 6.87695 8.93262ZM 12.4072 7.45605C 12.1383 7.4196 11.9014 7.40137 11.6963 7.40137C 10.9489 7.40137 10.459 7.6543 10.2266 8.16016L 10.2266 13L 8.25098 13L 8.25098 5.60352L 10.1172 5.60352L 10.1719 6.48535C 10.5684 5.80631 11.1175 5.4668 11.8193 5.4668C 12.0381 5.4668 12.2432 5.49642 12.4346 5.55566L 12.4072 7.45605ZM 12.8105 9.2334C 12.8105 8.49967 12.9518 7.8457 13.2344 7.27148C 13.5169 6.69727 13.9225 6.25293 14.4512 5.93848C 14.9844 5.62402 15.6019 5.4668 16.3037 5.4668C 17.3018 5.4668 18.1152 5.77214 18.7441 6.38281C 19.3776 6.99349 19.7308 7.82292 19.8037 8.87109L 19.8174 9.37695C 19.8174 10.5117 19.5007 11.4232 18.8672 12.1113C 18.2337 12.7949 17.3838 13.1367 16.3174 13.1367C 15.251 13.1367 14.3988 12.7949 13.7607 12.1113C 13.1273 11.4277 12.8105 10.498 12.8105 9.32227L 12.8105 9.2334ZM 14.7861 9.37695C 14.7861 10.0788 14.9183 10.6165 15.1826 10.9902C 15.4469 11.3594 15.8252 11.5439 16.3174 11.5439C 16.7959 11.5439 17.1696 11.3617 17.4385 10.9971C 17.7074 10.6279 17.8418 10.04 17.8418 9.2334C 17.8418 8.54525 17.7074 8.01204 17.4385 7.63379C 17.1696 7.25553 16.7913 7.06641 16.3037 7.06641C 15.8206 7.06641 15.4469 7.25553 15.1826 7.63379C 14.9183 8.00749 14.7861 8.58854 14.7861 9.37695ZM 22.8525 5.60352L 22.9141 6.45801C 23.4427 5.7972 24.1514 5.4668 25.04 5.4668C 25.8239 5.4668 26.4072 5.69694 26.79 6.15723C 27.1729 6.61751 27.3688 7.30566 27.3779 8.22168L 27.3779 13L 25.4023 13L 25.4023 8.26953C 25.4023 7.85026 25.3112 7.5472 25.1289 7.36035C 24.9466 7.16895 24.6436 7.07324 24.2197 7.07324C 23.6637 7.07324 23.2467 7.31022 22.9688 7.78418L 22.9688 13L 20.9932 13L 20.9932 5.60352L 22.8525 5.60352ZM 31.2471 3.78516L 31.2471 5.60352L 32.5117 5.60352L 32.5117 7.05273L 31.2471 7.05273L 31.2471 10.7441C 31.2471 11.0176 31.2995 11.2135 31.4043 11.332C 31.5091 11.4505 31.7096 11.5098 32.0059 11.5098C 32.2246 11.5098 32.4183 11.4938 32.5869 11.4619L 32.5869 12.959C 32.1995 13.0775 31.8008 13.1367 31.3906 13.1367C 30.0052 13.1367 29.2988 12.4372 29.2715 11.0381L 29.2715 7.05273L 28.1914 7.05273L 28.1914 5.60352L 29.2715 5.60352L 29.2715 3.78516L 31.2471 3.78516ZM 43.2168 8.68652L 39.2793 8.68652L 39.2793 11.3525L 43.9004 11.3525L 43.9004 13L 37.2285 13L 37.2285 3.04688L 43.8867 3.04688L 43.8867 4.70801L 39.2793 4.70801L 39.2793 7.08008L 43.2168 7.08008L 43.2168 8.68652ZM 46.792 5.60352L 46.8535 6.45801C 47.3822 5.7972 48.0908 5.4668 48.9795 5.4668C 49.7633 5.4668 50.3467 5.69694 50.7295 6.15723C 51.1123 6.61751 51.3083 7.30566 51.3174 8.22168L 51.3174 13L 49.3418 13L 49.3418 8.26953C 49.3418 7.85026 49.2507 7.5472 49.0684 7.36035C 48.8861 7.16895 48.583 7.07324 48.1592 7.07324C 47.6032 7.07324 47.1862 7.31022 46.9082 7.78418L 46.9082 13L 44.9326 13L 44.9326 5.60352L 46.792 5.60352ZM 52.5137 9.24707C 52.5137 8.09408 52.7712 7.17578 53.2861 6.49219C 53.8057 5.80859 54.5143 5.4668 55.4121 5.4668C 56.1322 5.4668 56.7269 5.73568 57.1963 6.27344L 57.1963 2.5L 59.1787 2.5L 59.1787 13L 57.3945 13L 57.2988 12.2139C 56.8066 12.8291 56.1732 13.1367 55.3984 13.1367C 54.528 13.1367 53.8285 12.7949 53.2998 12.1113C 52.7757 11.4232 52.5137 10.4684 52.5137 9.24707ZM 54.4893 9.39062C 54.4893 10.0833 54.61 10.6143 54.8516 10.9834C 55.0931 11.3525 55.444 11.5371 55.9043 11.5371C 56.515 11.5371 56.9456 11.2796 57.1963 10.7646L 57.1963 7.8457C 56.9502 7.33073 56.5241 7.07324 55.918 7.07324C 54.9655 7.07324 54.4893 7.8457 54.4893 9.39062Z"/>
        <path id="path5_fill"
              d="M 6.75391 8.22852L 2.09863 8.22852L 2.09863 12.2891L 7.45117 12.2891L 7.45117 13L 1.25781 13L 1.25781 3.04688L 7.41699 3.04688L 7.41699 3.76465L 2.09863 3.76465L 2.09863 7.51758L 6.75391 7.51758L 6.75391 8.22852ZM 9.81641 5.60352L 9.84375 6.86816C 10.1217 6.41243 10.4681 6.06608 10.8828 5.8291C 11.2975 5.58756 11.7555 5.4668 12.2568 5.4668C 13.0498 5.4668 13.64 5.6901 14.0273 6.13672C 14.4147 6.58333 14.6107 7.25326 14.6152 8.14648L 14.6152 13L 13.8018 13L 13.8018 8.13965C 13.7972 7.47884 13.6559 6.98665 13.3779 6.66309C 13.1045 6.33952 12.6647 6.17773 12.0586 6.17773C 11.5527 6.17773 11.1038 6.33724 10.7119 6.65625C 10.3245 6.9707 10.0374 7.39681 9.85059 7.93457L 9.85059 13L 9.03711 13L 9.03711 5.60352L 9.81641 5.60352ZM 19.0381 11.8721L 21.2871 5.60352L 22.1279 5.60352L 19.3662 13L 18.7031 13L 15.9277 5.60352L 16.7686 5.60352L 19.0381 11.8721ZM 24.3906 13L 23.5703 13L 23.5703 5.60352L 24.3906 5.60352L 24.3906 13ZM 23.4268 3.46387C 23.4268 3.30892 23.4769 3.17904 23.5771 3.07422C 23.6774 2.96484 23.8141 2.91016 23.9873 2.91016C 24.1605 2.91016 24.2972 2.96484 24.3975 3.07422C 24.5023 3.17904 24.5547 3.30892 24.5547 3.46387C 24.5547 3.61881 24.5023 3.7487 24.3975 3.85352C 24.2972 3.95833 24.1605 4.01074 23.9873 4.01074C 23.8141 4.01074 23.6774 3.95833 23.5771 3.85352C 23.4769 3.7487 23.4268 3.61881 23.4268 3.46387ZM 30.0371 6.30078C 29.8639 6.26888 29.6794 6.25293 29.4834 6.25293C 28.973 6.25293 28.54 6.39648 28.1846 6.68359C 27.8337 6.96615 27.583 7.37858 27.4326 7.9209L 27.4326 13L 26.6191 13L 26.6191 5.60352L 27.4189 5.60352L 27.4326 6.7793C 27.8656 5.9043 28.5605 5.4668 29.5176 5.4668C 29.7454 5.4668 29.9255 5.49642 30.0576 5.55566L 30.0371 6.30078ZM 30.748 9.19238C 30.748 8.48145 30.8848 7.84115 31.1582 7.27148C 31.4362 6.70182 31.8258 6.25977 32.3271 5.94531C 32.833 5.6263 33.4049 5.4668 34.043 5.4668C 35.0273 5.4668 35.8249 5.81315 36.4355 6.50586C 37.0462 7.19401 37.3516 8.10775 37.3516 9.24707L 37.3516 9.41797C 37.3516 10.1335 37.2126 10.7783 36.9346 11.3525C 36.6611 11.9222 36.2738 12.362 35.7725 12.6719C 35.2712 12.9818 34.6992 13.1367 34.0566 13.1367C 33.0768 13.1367 32.2793 12.7926 31.6641 12.1045C 31.0534 11.4118 30.748 10.4958 30.748 9.35645L 30.748 9.19238ZM 31.5684 9.41797C 31.5684 10.3021 31.7962 11.029 32.252 11.5986C 32.7122 12.1637 33.3138 12.4463 34.0566 12.4463C 34.7949 12.4463 35.3919 12.1637 35.8477 11.5986C 36.3079 11.029 36.5381 10.2793 36.5381 9.34961L 36.5381 9.19238C 36.5381 8.62728 36.4333 8.11003 36.2236 7.64062C 36.014 7.17122 35.7201 6.80892 35.3418 6.55371C 34.9635 6.29395 34.5306 6.16406 34.043 6.16406C 33.3138 6.16406 32.7191 6.45117 32.2588 7.02539C 31.7985 7.59505 31.5684 8.34245 31.5684 9.26758L 31.5684 9.41797ZM 39.8262 5.60352L 39.8535 6.86816C 40.1315 6.41243 40.4779 6.06608 40.8926 5.8291C 41.3073 5.58756 41.7653 5.4668 42.2666 5.4668C 43.0596 5.4668 43.6497 5.6901 44.0371 6.13672C 44.4245 6.58333 44.6204 7.25326 44.625 8.14648L 44.625 13L 43.8115 13L 43.8115 8.13965C 43.807 7.47884 43.6657 6.98665 43.3877 6.66309C 43.1143 6.33952 42.6745 6.17773 42.0684 6.17773C 41.5625 6.17773 41.1136 6.33724 40.7217 6.65625C 40.3343 6.9707 40.0472 7.39681 39.8604 7.93457L 39.8604 13L 39.0469 13L 39.0469 5.60352L 39.8262 5.60352ZM 47.4893 5.60352L 47.5166 6.80664C 47.79 6.36003 48.1318 6.02507 48.542 5.80176C 48.9521 5.57845 49.4079 5.4668 49.9092 5.4668C 51.0758 5.4668 51.8164 5.94531 52.1309 6.90234C 52.3952 6.44206 52.7484 6.08887 53.1904 5.84277C 53.6325 5.59212 54.1201 5.4668 54.6533 5.4668C 56.2393 5.4668 57.0482 6.33268 57.0801 8.06445L 57.0801 13L 56.2598 13L 56.2598 8.12598C 56.2552 7.46517 56.1117 6.97526 55.8291 6.65625C 55.5511 6.33724 55.0954 6.17773 54.4619 6.17773C 53.874 6.18685 53.3773 6.37826 52.9717 6.75195C 52.5661 7.12109 52.3405 7.57227 52.2949 8.10547L 52.2949 13L 51.4746 13L 51.4746 8.06445C 51.4701 7.43099 51.3197 6.95931 51.0234 6.64941C 50.7318 6.33496 50.2806 6.17773 49.6699 6.17773C 49.1549 6.17773 48.7129 6.32585 48.3438 6.62207C 47.9746 6.91374 47.7012 7.34896 47.5234 7.92773L 47.5234 13L 46.7031 13L 46.7031 5.60352L 47.4893 5.60352ZM 62.0225 13.1367C 61.3936 13.1367 60.8239 12.9818 60.3135 12.6719C 59.8076 12.362 59.4134 11.9313 59.1309 11.3799C 58.8483 10.8239 58.707 10.2018 58.707 9.51367L 58.707 9.21973C 58.707 8.50879 58.8438 7.86849 59.1172 7.29883C 59.3952 6.72917 59.7803 6.28255 60.2725 5.95898C 60.7646 5.63086 61.2979 5.4668 61.8721 5.4668C 62.7699 5.4668 63.4808 5.77441 64.0049 6.38965C 64.5335 7.00033 64.7979 7.83659 64.7979 8.89844L 64.7979 9.35645L 59.5205 9.35645L 59.5205 9.51367C 59.5205 10.3522 59.7598 11.0518 60.2383 11.6123C 60.7214 12.1683 61.3275 12.4463 62.0566 12.4463C 62.4941 12.4463 62.8792 12.3665 63.2119 12.207C 63.5492 12.0475 63.8545 11.7923 64.1279 11.4414L 64.6406 11.8311C 64.0391 12.7015 63.1663 13.1367 62.0225 13.1367ZM 61.8721 6.16406C 61.2568 6.16406 60.7373 6.38965 60.3135 6.84082C 59.8942 7.29199 59.639 7.89811 59.5479 8.65918L 63.9844 8.65918L 63.9844 8.57031C 63.9616 7.85938 63.7588 7.2806 63.376 6.83398C 62.9932 6.38737 62.4919 6.16406 61.8721 6.16406ZM 67.1699 5.60352L 67.1973 6.86816C 67.4753 6.41243 67.8216 6.06608 68.2363 5.8291C 68.651 5.58756 69.109 5.4668 69.6104 5.4668C 70.4033 5.4668 70.9935 5.6901 71.3809 6.13672C 71.7682 6.58333 71.9642 7.25326 71.9688 8.14648L 71.9688 13L 71.1553 13L 71.1553 8.13965C 71.1507 7.47884 71.0094 6.98665 70.7314 6.66309C 70.458 6.33952 70.0182 6.17773 69.4121 6.17773C 68.9062 6.17773 68.4574 6.33724 68.0654 6.65625C 67.6781 6.9707 67.391 7.39681 67.2041 7.93457L 67.2041 13L 66.3906 13L 66.3906 5.60352L 67.1699 5.60352ZM 75.3594 3.70996L 75.3594 5.60352L 76.8906 5.60352L 76.8906 6.27344L 75.3594 6.27344L 75.3594 11.2021C 75.3594 11.6123 75.4323 11.9176 75.5781 12.1182C 75.7285 12.3187 75.9769 12.4189 76.3232 12.4189C 76.46 12.4189 76.681 12.3962 76.9863 12.3506L 77.0205 13.0205C 76.8063 13.098 76.5146 13.1367 76.1455 13.1367C 75.585 13.1367 75.1771 12.9749 74.9219 12.6514C 74.6667 12.3232 74.5391 11.8424 74.5391 11.209L 74.5391 6.27344L 73.1787 6.27344L 73.1787 5.60352L 74.5391 5.60352L 74.5391 3.70996L 75.3594 3.70996Z"/>
        <path id="path6_fill"
              d="M 6.63086 10.2109L 2.1123 10.2109L 1.08691 13L 0.205078 13L 3.97168 3.04688L 4.77148 3.04688L 8.53809 13L 7.66309 13L 6.63086 10.2109ZM 2.37207 9.49316L 6.36426 9.49316L 4.36816 4.07227L 2.37207 9.49316ZM 10.8486 8.94629L 10.8486 13L 10.0078 13L 10.0078 3.04688L 13.3984 3.04688C 14.4329 3.04688 15.2487 3.3112 15.8457 3.83984C 16.4473 4.36849 16.748 5.09538 16.748 6.02051C 16.748 6.95475 16.4587 7.67708 15.8799 8.1875C 15.3057 8.69336 14.4717 8.94629 13.3779 8.94629L 10.8486 8.94629ZM 10.8486 8.23535L 13.3984 8.23535C 14.2142 8.23535 14.8363 8.04167 15.2646 7.6543C 15.693 7.26693 15.9072 6.72689 15.9072 6.03418C 15.9072 5.34603 15.693 4.79915 15.2646 4.39355C 14.8408 3.9834 14.237 3.77376 13.4531 3.76465L 10.8486 3.76465L 10.8486 8.23535ZM 19.6602 13L 18.8193 13L 18.8193 3.04688L 19.6602 3.04688L 19.6602 13Z"/>
        <path id="path7_fill"
              d="M 1.25781 13L 1.25781 3.04688L 4.04004 3.04688C 4.85579 3.04688 5.58724 3.23372 6.23438 3.60742C 6.88151 3.97656 7.38509 4.50749 7.74512 5.2002C 8.1097 5.8929 8.29199 6.68132 8.29199 7.56543L 8.29199 8.48145C 8.29199 9.37012 8.11198 10.1585 7.75195 10.8467C 7.39193 11.5348 6.88379 12.0658 6.22754 12.4395C 5.57585 12.8132 4.82617 13 3.97852 13L 1.25781 13ZM 2.09863 3.76465L 2.09863 12.2891L 3.98535 12.2891C 5.03353 12.2891 5.87435 11.9427 6.50781 11.25C 7.14128 10.5527 7.45801 9.61165 7.45801 8.42676L 7.45801 7.55176C 7.45801 6.40788 7.14583 5.49186 6.52148 4.80371C 5.89714 4.11556 5.07454 3.76921 4.05371 3.76465L 2.09863 3.76465ZM 13.1045 13.1367C 12.4756 13.1367 11.9059 12.9818 11.3955 12.6719C 10.8896 12.362 10.4954 11.9313 10.2129 11.3799C 9.93034 10.8239 9.78906 10.2018 9.78906 9.51367L 9.78906 9.21973C 9.78906 8.50879 9.92578 7.86849 10.1992 7.29883C 10.4772 6.72917 10.8623 6.28255 11.3545 5.95898C 11.8467 5.63086 12.3799 5.4668 12.9541 5.4668C 13.8519 5.4668 14.5628 5.77441 15.0869 6.38965C 15.6156 7.00033 15.8799 7.83659 15.8799 8.89844L 15.8799 9.35645L 10.6025 9.35645L 10.6025 9.51367C 10.6025 10.3522 10.8418 11.0518 11.3203 11.6123C 11.8034 12.1683 12.4095 12.4463 13.1387 12.4463C 13.5762 12.4463 13.9613 12.3665 14.2939 12.207C 14.6312 12.0475 14.9365 11.7923 15.21 11.4414L 15.7227 11.8311C 15.1211 12.7015 14.2484 13.1367 13.1045 13.1367ZM 12.9541 6.16406C 12.3389 6.16406 11.8193 6.38965 11.3955 6.84082C 10.9762 7.29199 10.721 7.89811 10.6299 8.65918L 15.0664 8.65918L 15.0664 8.57031C 15.0436 7.85938 14.8408 7.2806 14.458 6.83398C 14.0752 6.38737 13.5739 6.16406 12.9541 6.16406ZM 23.4199 9.37695C 23.4199 10.5299 23.1647 11.446 22.6543 12.125C 22.1439 12.7995 21.4603 13.1367 20.6035 13.1367C 19.5918 13.1367 18.8171 12.7812 18.2793 12.0703L 18.2793 15.8438L 17.4658 15.8438L 17.4658 5.60352L 18.2246 5.60352L 18.2656 6.64941C 18.7988 5.861 19.5713 5.4668 20.583 5.4668C 21.4671 5.4668 22.1598 5.80176 22.6611 6.47168C 23.167 7.1416 23.4199 8.07129 23.4199 9.26074L 23.4199 9.37695ZM 22.5996 9.2334C 22.5996 8.29004 22.4059 7.54492 22.0186 6.99805C 21.6312 6.45117 21.0911 6.17773 20.3984 6.17773C 19.8971 6.17773 19.4665 6.2985 19.1064 6.54004C 18.7464 6.78158 18.4707 7.13249 18.2793 7.59277L 18.2793 11.1406C 18.4753 11.5645 18.7555 11.888 19.1201 12.1113C 19.4847 12.3346 19.9154 12.4463 20.4121 12.4463C 21.1003 12.4463 21.6357 12.1729 22.0186 11.626C 22.4059 11.0745 22.5996 10.277 22.5996 9.2334ZM 26.1543 13L 25.334 13L 25.334 2.5L 26.1543 2.5L 26.1543 13ZM 27.9316 9.19238C 27.9316 8.48145 28.0684 7.84115 28.3418 7.27148C 28.6198 6.70182 29.0094 6.25977 29.5107 5.94531C 30.0166 5.6263 30.5885 5.4668 31.2266 5.4668C 32.2109 5.4668 33.0085 5.81315 33.6191 6.50586C 34.2298 7.19401 34.5352 8.10775 34.5352 9.24707L 34.5352 9.41797C 34.5352 10.1335 34.3962 10.7783 34.1182 11.3525C 33.8447 11.9222 33.4574 12.362 32.9561 12.6719C 32.4548 12.9818 31.8828 13.1367 31.2402 13.1367C 30.2604 13.1367 29.4629 12.7926 28.8477 12.1045C 28.237 11.4118 27.9316 10.4958 27.9316 9.35645L 27.9316 9.19238ZM 28.752 9.41797C 28.752 10.3021 28.9798 11.029 29.4355 11.5986C 29.8958 12.1637 30.4974 12.4463 31.2402 12.4463C 31.9785 12.4463 32.5755 12.1637 33.0312 11.5986C 33.4915 11.029 33.7217 10.2793 33.7217 9.34961L 33.7217 9.19238C 33.7217 8.62728 33.6169 8.11003 33.4072 7.64062C 33.1976 7.17122 32.9036 6.80892 32.5254 6.55371C 32.1471 6.29395 31.7142 6.16406 31.2266 6.16406C 30.4974 6.16406 29.9027 6.45117 29.4424 7.02539C 28.9821 7.59505 28.752 8.34245 28.752 9.26758L 28.752 9.41797ZM 38.4658 11.8242L 40.626 5.60352L 41.5078 5.60352L 38.3496 14.2578L 38.1855 14.6406C 37.7799 15.5384 37.1533 15.9873 36.3057 15.9873C 36.1097 15.9873 35.9001 15.9554 35.6768 15.8916L 35.6699 15.2148L 36.0938 15.2559C 36.4948 15.2559 36.8184 15.1556 37.0645 14.9551C 37.3151 14.7591 37.527 14.4196 37.7002 13.9365L 38.0625 12.9385L 35.2734 5.60352L 36.1689 5.60352L 38.4658 11.8242ZM 43.5244 5.60352L 43.5518 6.80664C 43.8252 6.36003 44.167 6.02507 44.5771 5.80176C 44.9873 5.57845 45.443 5.4668 45.9443 5.4668C 47.111 5.4668 47.8516 5.94531 48.166 6.90234C 48.4303 6.44206 48.7835 6.08887 49.2256 5.84277C 49.6676 5.59212 50.1553 5.4668 50.6885 5.4668C 52.2744 5.4668 53.0833 6.33268 53.1152 8.06445L 53.1152 13L 52.2949 13L 52.2949 8.12598C 52.2904 7.46517 52.1468 6.97526 51.8643 6.65625C 51.5863 6.33724 51.1305 6.17773 50.4971 6.17773C 49.9092 6.18685 49.4124 6.37826 49.0068 6.75195C 48.6012 7.12109 48.3757 7.57227 48.3301 8.10547L 48.3301 13L 47.5098 13L 47.5098 8.06445C 47.5052 7.43099 47.3548 6.95931 47.0586 6.64941C 46.7669 6.33496 46.3158 6.17773 45.7051 6.17773C 45.1901 6.17773 44.748 6.32585 44.3789 6.62207C 44.0098 6.91374 43.7363 7.34896 43.5586 7.92773L 43.5586 13L 42.7383 13L 42.7383 5.60352L 43.5244 5.60352ZM 58.0576 13.1367C 57.4287 13.1367 56.859 12.9818 56.3486 12.6719C 55.8428 12.362 55.4486 11.9313 55.166 11.3799C 54.8835 10.8239 54.7422 10.2018 54.7422 9.51367L 54.7422 9.21973C 54.7422 8.50879 54.8789 7.86849 55.1523 7.29883C 55.4303 6.72917 55.8154 6.28255 56.3076 5.95898C 56.7998 5.63086 57.333 5.4668 57.9072 5.4668C 58.805 5.4668 59.516 5.77441 60.04 6.38965C 60.5687 7.00033 60.833 7.83659 60.833 8.89844L 60.833 9.35645L 55.5557 9.35645L 55.5557 9.51367C 55.5557 10.3522 55.7949 11.0518 56.2734 11.6123C 56.7565 12.1683 57.3626 12.4463 58.0918 12.4463C 58.5293 12.4463 58.9144 12.3665 59.2471 12.207C 59.5843 12.0475 59.8896 11.7923 60.1631 11.4414L 60.6758 11.8311C 60.0742 12.7015 59.2015 13.1367 58.0576 13.1367ZM 57.9072 6.16406C 57.292 6.16406 56.7725 6.38965 56.3486 6.84082C 55.9294 7.29199 55.6742 7.89811 55.583 8.65918L 60.0195 8.65918L 60.0195 8.57031C 59.9967 7.85938 59.7939 7.2806 59.4111 6.83398C 59.0283 6.38737 58.527 6.16406 57.9072 6.16406ZM 63.2051 5.60352L 63.2324 6.86816C 63.5104 6.41243 63.8568 6.06608 64.2715 5.8291C 64.6862 5.58756 65.1442 5.4668 65.6455 5.4668C 66.4385 5.4668 67.0286 5.6901 67.416 6.13672C 67.8034 6.58333 67.9993 7.25326 68.0039 8.14648L 68.0039 13L 67.1904 13L 67.1904 8.13965C 67.1859 7.47884 67.0446 6.98665 66.7666 6.66309C 66.4932 6.33952 66.0534 6.17773 65.4473 6.17773C 64.9414 6.17773 64.4925 6.33724 64.1006 6.65625C 63.7132 6.9707 63.4261 7.39681 63.2393 7.93457L 63.2393 13L 62.4258 13L 62.4258 5.60352L 63.2051 5.60352ZM 71.3945 3.70996L 71.3945 5.60352L 72.9258 5.60352L 72.9258 6.27344L 71.3945 6.27344L 71.3945 11.2021C 71.3945 11.6123 71.4674 11.9176 71.6133 12.1182C 71.7637 12.3187 72.012 12.4189 72.3584 12.4189C 72.4951 12.4189 72.7161 12.3962 73.0215 12.3506L 73.0557 13.0205C 72.8415 13.098 72.5498 13.1367 72.1807 13.1367C 71.6201 13.1367 71.2122 12.9749 70.957 12.6514C 70.7018 12.3232 70.5742 11.8424 70.5742 11.209L 70.5742 6.27344L 69.2139 6.27344L 69.2139 5.60352L 70.5742 5.60352L 70.5742 3.70996L 71.3945 3.70996Z"/>
    </defs>
</svg>
