<svg xmlns="http://www.w3.org/2000/svg" xmlns:xlink="http://www.w3.org/1999/xlink" width="382" height="54" version="1.1" viewBox="0 0 382 54"><title>technologies_links_3</title><desc>Created using Figma</desc><g id="Canvas" transform="translate(-675 -399)"><g id="technologies_links_3"><g id="google_relation_line_4" opacity=".282"><use fill="#FFF" transform="matrix(0.848048 0.529919 -0.529919 0.848048 976.007 395.736)" xlink:href="#path0_stroke"/></g><g id="google_relation_line_1" opacity=".282"><use fill="#FFF" transform="matrix(-0.848048 0.529919 0.529919 0.848048 755.773 395)" xlink:href="#path1_stroke"/></g><g id="google_relation_line_2" opacity=".282"><use fill="#FFF" transform="matrix(-0.848048 0.529919 0.529919 0.848048 851.4 400)" xlink:href="#path2_stroke"/></g><g id="google_relation_line_3" opacity=".282"><use fill="#FFF" transform="matrix(0.848048 0.529919 -0.529919 0.848048 895.909 400)" xlink:href="#path2_stroke"/></g></g></g><defs><path id="path0_stroke" d="M 0.360475 4.3189L 0.0139813 3.95843L -0.706969 4.65142L -0.360475 5.01189L 0.360475 4.3189ZM 97.305 5.06581L 97.7055 5.36526L 98.3044 4.56443L 97.9039 4.26499L 97.305 5.06581ZM 0 4.6654C -0.360475 5.01189 -0.36021 5.01217 -0.359864 5.01253C -0.359639 5.01276 -0.35921 5.01321 -0.358759 5.01367C -0.357981 5.01448 -0.356629 5.01588 -0.355072 5.01748C -0.352205 5.02044 -0.347531 5.02525 -0.341804 5.03111C -0.330846 5.04231 -0.313656 5.05979 -0.291824 5.08173C -0.249169 5.1246 -0.183733 5.18957 -0.0991724 5.27151C 0.0678449 5.43332 0.320508 5.67189 0.648241 5.9651C 1.29917 6.54727 2.27225 7.36741 3.52256 8.28788C 6.01276 10.12 9.67664 12.3978 14.2413 14.106C 23.4019 17.5286 36.2625 18.6904 51.0497 9.7262L 50.5313 8.87106C 36.0414 17.655 23.5067 16.5002 14.5913 13.1692C 10.118 11.5005 6.57374 9.29221 4.11528 7.48248C 2.89125 6.58201 1.95488 5.79226 1.31493 5.21977C 0.997222 4.93565 0.759093 4.7107 0.596678 4.55333C 0.516522 4.47568 0.457582 4.41714 0.417039 4.37639C 0.397273 4.35653 0.383159 4.34217 0.373213 4.332C 0.368488 4.32717 0.36531 4.3239 0.362938 4.32145C 0.361875 4.32035 0.36126 4.31972 0.360727 4.31917C 0.360522 4.31895 0.360459 4.31889 0.360356 4.31878C 0.360375 4.3188 0.360475 4.3189 0 4.6654ZM 51.0497 9.7262C 65.5967 0.907574 77.1865 -0.222352 85.1111 0.822146C 89.0827 1.34298 92.1196 2.40549 94.2005 3.34893C 95.2331 3.81635 96.0067 4.24536 96.5354 4.5646C 96.7963 4.72199 96.9881 4.84719 97.1202 4.93658C 97.1847 4.98016 97.2307 5.01243 97.2632 5.03556C 97.2786 5.04655 97.2891 5.05411 97.2968 5.05978C 97.3003 5.06233 97.3024 5.06383 97.3041 5.06513C 97.3048 5.06564 97.305 5.0658 97.3054 5.06606C 97.3055 5.06612 97.3054 5.06606 97.3054 5.06608C 97.3053 5.06597 97.305 5.06581 97.6045 4.6654C 97.9039 4.26499 97.9036 4.26472 97.9032 4.26441C 97.9029 4.26424 97.9025 4.26388 97.902 4.26354C 97.9013 4.263 97.8999 4.26198 97.8984 4.26091C 97.8959 4.25904 97.8916 4.25583 97.8865 4.25214C 97.8772 4.24534 97.862 4.23435 97.8434 4.22108C 97.8077 4.19565 97.7517 4.15645 97.6805 4.1083C 97.5415 4.01425 97.3279 3.87502 97.0521 3.70846C 96.5075 3.3798 95.6822 2.92286 94.6133 2.43807C 92.4911 1.47707 89.314 0.370108 85.2417 -0.169279C 77.0786 -1.24522 65.2614 -0.0585309 50.5313 8.87106L 51.0497 9.7262Z"/><path id="path1_stroke" d="M 0.360475 5.22658L 0.0139813 4.8661L -0.706969 5.55909L -0.360475 5.91956L 0.360475 5.22658ZM 97.305 5.97348L 97.7055 6.27293L 98.3044 5.47211L 97.9039 5.17266L 97.305 5.97348ZM 0 5.57307C -0.360475 5.91956 -0.36021 5.91984 -0.359864 5.9202C -0.359639 5.92043 -0.35921 5.92088 -0.358759 5.92134C -0.357981 5.92215 -0.356629 5.92355 -0.355072 5.92516C -0.352205 5.92811 -0.347531 5.93292 -0.341804 5.93878C -0.330846 5.94999 -0.313656 5.96746 -0.291824 5.98941C -0.249169 6.03227 -0.183733 6.09724 -0.0991724 6.17918C 0.0678449 6.34099 0.320508 6.57957 0.648241 6.87278C 1.29917 7.45494 2.27225 8.27508 3.52256 9.19556C 6.01276 11.0277 9.67664 13.3055 14.2413 15.0136C 23.4019 18.4363 36.2625 19.5981 51.0497 10.6339L 50.5313 9.77873C 36.0414 18.5627 23.5067 17.4079 14.5913 14.0769C 10.118 12.4082 6.57374 10.1999 4.11528 8.39015C 2.89125 7.48968 1.95488 6.69993 1.31493 6.12744C 0.997222 5.84332 0.759093 5.61838 0.596678 5.461C 0.516522 5.38335 0.457582 5.32481 0.417039 5.28406C 0.397273 5.2642 0.383159 5.24984 0.373213 5.23967C 0.368488 5.23484 0.36531 5.23157 0.362938 5.22912C 0.361875 5.22803 0.36126 5.22739 0.360727 5.22684C 0.360522 5.22663 0.360459 5.22656 0.360356 5.22645C 0.360375 5.22647 0.360475 5.22658 0 5.57307ZM 51.0497 10.6339C 65.5967 1.81525 77.1865 0.685321 85.1111 1.72982C 89.0827 2.25065 92.1196 3.31317 94.2005 4.2566C 95.2331 4.72403 96.0067 5.15303 96.5354 5.47227C 96.7963 5.62966 96.9881 5.75486 97.1202 5.84426C 97.1847 5.88783 97.2307 5.92011 97.2632 5.94323C 97.2786 5.95423 97.2891 5.96178 97.2968 5.96745C 97.3003 5.97 97.3024 5.97151 97.3041 5.9728C 97.3048 5.97331 97.305 5.97348 97.3054 5.97373C 97.3055 5.97379 97.3054 5.97373 97.3054 5.97376C 97.3053 5.97365 97.305 5.97348 97.6045 5.57307C 97.9039 5.17266 97.9036 5.1724 97.9032 5.17208C 97.9029 5.17191 97.9025 5.17155 97.902 5.17121C 97.9013 5.17067 97.8999 5.16965 97.8984 5.16858C 97.8959 5.16671 97.8916 5.1635 97.8865 5.15982C 97.8772 5.15301 97.862 5.14203 97.8434 5.12875C 97.8077 5.10333 97.7517 5.06413 97.6805 5.01597C 97.5415 4.92192 97.3279 4.78269 97.0521 4.61613C 96.5075 4.28747 95.6822 3.83053 94.6133 3.34574C 92.4911 2.38475 89.314 1.27778 85.2417 0.738393C 77.0786 -0.337547 65.2614 0.849142 50.5313 9.77873L 51.0497 10.6339Z"/><path id="path2_stroke" d="M 66.614 17.92L 66.9319 18.306L 67.7038 17.6703L 67.386 17.2843L 66.614 17.92ZM 0.39986 -0.300187L 0.0996723 -0.700047L -0.700047 -0.0996723L -0.39986 0.300187L 0.39986 -0.300187ZM 67 17.6022C 67.386 17.2843 67.3858 17.2841 67.3855 17.2838C 67.3853 17.2836 67.385 17.2832 67.3847 17.2828C 67.3842 17.2822 67.3833 17.2811 67.3823 17.2799C 67.3805 17.2777 67.3775 17.2741 67.3739 17.2698C 67.3671 17.2618 67.3563 17.2489 67.3429 17.2331C 67.3168 17.2026 67.2764 17.1557 67.2248 17.0971C 67.1233 16.9822 66.9688 16.8113 66.7695 16.6022C 66.375 16.1885 65.7821 15.6014 65.0233 14.9415C 63.5151 13.631 61.2814 11.9798 58.5083 10.7052C 52.9233 8.14429 45.0751 7.07111 36.0752 12.9405L 36.6214 13.7782C 45.29 8.12482 52.7677 9.17307 58.0914 11.6142C 60.7727 12.8407 62.889 14.4108 64.3673 15.6962C 65.1018 16.3343 65.6612 16.8888 66.0457 17.2923C 66.236 17.4918 66.3776 17.6484 66.475 17.7588C 66.5227 17.8129 66.5574 17.8531 66.5816 17.8815C 66.5932 17.8952 66.6013 17.9048 66.6072 17.9118C 66.6099 17.915 66.6116 17.9171 66.6129 17.9187C 66.6135 17.9194 66.6138 17.9197 66.6141 17.9201C 66.6142 17.9202 66.6142 17.9202 66.6142 17.9202C 66.6141 17.9202 66.614 17.92 67 17.6022ZM 36.0752 12.9405C 27.5017 18.5318 18.6563 15.3314 11.8338 10.5901C 8.42524 8.22316 5.57665 5.50789 3.55878 3.36499C 2.55262 2.29679 1.76433 1.38177 1.22211 0.72757C 0.952238 0.402009 0.746961 0.145339 0.607097 -0.0324875C 0.537739 -0.120663 0.485994 -0.187525 0.450688 -0.233502C 0.433311 -0.25613 0.420619 -0.272786 0.411849 -0.284339C 0.407599 -0.289936 0.404605 -0.293895 0.40247 -0.296724C 0.401469 -0.29805 0.400817 -0.298915 0.400315 -0.299582C 0.400097 -0.299871 0.399983 -0.300022 0.399874 -0.300168C 0.399831 -0.300225 0.39986 -0.300187 0 0C -0.39986 0.300187 -0.399689 0.300414 -0.399447 0.300736C -0.399271 0.30097 -0.398958 0.301386 -0.398607 0.301853C -0.397971 0.302697 -0.396918 0.304096 -0.395648 0.305778C -0.393242 0.308965 -0.389432 0.314002 -0.384636 0.320319C -0.375314 0.332599 -0.360944 0.351455 -0.342438 0.375555C -0.305977 0.423033 -0.250675 0.494483 -0.178905 0.585737C -0.0365109 0.766767 0.17679 1.03342 0.452202 1.36572C 1.00055 2.02725 1.80966 2.96613 2.83079 4.05058C 4.86753 6.21299 7.79317 8.99807 11.2631 11.4113C 18.1976 16.2304 27.5264 19.7096 36.6214 13.7782L 36.0752 12.9405Z"/></defs></svg>