<svg xmlns="http://www.w3.org/2000/svg" xmlns:xlink="http://www.w3.org/1999/xlink" width="209" height="97" version="1.1" viewBox="0 0 209 97"><title>technologies_links</title><desc>Created using Figma</desc><g id="Canvas" transform="translate(-711 1447)"><g id="technologies_links"><g id="relation_line_2" opacity=".282"><use fill="#FFF" transform="matrix(0.848048 0.529919 -0.529919 0.848048 855.842 -1449)" xlink:href="#path0_stroke"/></g><g id="relation_line" opacity=".282"><use fill="#FFF" transform="matrix(-0.848048 0.529919 0.529919 0.848048 812.081 -1446.31)" xlink:href="#path1_stroke"/></g></g></g><defs><path id="path0_stroke" d="M 0.362409 3.08047L 0.0179382 2.71806L -0.706879 3.40701L -0.362409 3.76941L 0.362409 3.08047ZM 76.4742 3.82798L 76.8772 4.12389L 77.469 3.31782L 77.066 3.02191L 76.4742 3.82798ZM 0 3.42494C -0.362409 3.76941 -0.362181 3.76965 -0.361875 3.76997C -0.361668 3.77019 -0.361283 3.7706 -0.360869 3.77103C -0.360141 3.77179 -0.358898 3.7731 -0.357443 3.77462C -0.354734 3.77745 -0.350367 3.782 -0.344963 3.7876C -0.33456 3.7984 -0.318356 3.81512 -0.29768 3.83627C -0.257153 3.87771 -0.195297 3.94033 -0.115354 4.01965C 0.0428156 4.17656 0.280838 4.40771 0.588049 4.69296C 1.19877 5.25988 2.10437 6.05987 3.25192 6.96458C 5.53866 8.76653 8.84969 11.0285 12.831 12.7948C 20.8195 16.3343 31.6269 17.9319 42.7261 10.0842L 42.1488 9.2677C 31.421 16.8527 21.0096 15.3248 13.2361 11.8806C 9.3365 10.155 6.13074 7.96065 3.87093 6.17919C 2.7452 5.29219 1.87009 4.51871 1.26842 3.96009C 0.969433 3.68256 0.743339 3.46293 0.588941 3.30974C 0.5126 3.23401 0.456059 3.17676 0.41726 3.13708C 0.398273 3.11767 0.384582 3.10353 0.375006 3.0936C 0.370421 3.08884 0.367277 3.08556 0.364973 3.08316C 0.363921 3.08206 0.363281 3.08139 0.362753 3.08083C 0.362539 3.08061 0.362454 3.08052 0.362346 3.08041C 0.362338 3.0804 0.362409 3.08047 0 3.42494ZM 42.7261 10.0842C 53.5602 2.42409 62.0324 0.904003 67.7577 1.26223C 70.6291 1.4387 72.7956 2.08345 74.2856 2.69417C 75.0215 2.9949 75.5656 3.27832 75.941 3.49412C 76.1248 3.59957 76.2574 3.68296 76.3503 3.74387C 76.395 3.77308 76.4258 3.79408 76.4482 3.8097C 76.4586 3.81689 76.465 3.82145 76.4702 3.82517C 76.4724 3.82672 76.4734 3.82742 76.4745 3.8282C 76.4748 3.82844 76.475 3.82863 76.4749 3.82851C 76.4749 3.82849 76.4747 3.82835 76.4747 3.82835C 76.4744 3.82818 76.4742 3.82798 76.7701 3.42494C 77.066 3.02191 77.0656 3.02164 77.0652 3.02133C 77.065 3.02118 77.0645 3.02084 77.0641 3.02055C 77.0635 3.02011 77.0623 3.01922 77.0611 3.01835C 77.0591 3.01693 77.0555 3.01433 77.0516 3.01152C 77.0446 3.00654 77.0328 2.99816 77.0188 2.98845C 76.9926 2.97027 76.9505 2.9416 76.8983 2.90733C 76.7974 2.84127 76.64 2.74247 76.4391 2.627C 76.0454 2.40097 75.442 2.08764 74.6645 1.76873C 73.1276 1.14015 70.8035 0.454031 67.8201 0.264179C 61.8359 -0.110253 53.1418 1.49517 42.1488 9.2677L 42.7261 10.0842Z"/><path id="path1_stroke" d="M 0.358042 -0.349007L 0.00903514 -0.707049L -0.707049 -0.00903514L -0.358042 0.349007L 0.358042 -0.349007ZM 134.809 28.4397L 135.095 28.8494L 135.915 28.2761L 135.628 27.8664L 134.809 28.4397ZM 0 0C -0.358042 0.349007 -0.357758 0.349298 -0.357358 0.349708C -0.35707 0.350003 -0.356554 0.350531 -0.355978 0.35112C -0.354938 0.352182 -0.353209 0.353947 -0.351132 0.356061C -0.347203 0.360061 -0.340969 0.36639 -0.333129 0.374309C -0.317906 0.389684 -0.2944 0.413298 -0.264114 0.443403C -0.204473 0.50268 -0.113841 0.591774 0.00408106 0.705132C 0.237991 0.929955 0.589484 1.25994 1.04615 1.66789C 1.95532 2.47992 3.30533 3.6217 5.03342 4.91164C 8.4801 7.48345 13.4996 10.6898 19.6687 13.1558C 32.0351 18.0941 49.1107 20.0971 67.8756 8.37149L 67.3457 7.52344C 48.9074 19.045 32.1777 17.0743 20.0396 12.2271C 13.9564 9.80024 9.04882 6.66092 5.63151 4.11021C 3.92759 2.83889 2.61138 1.72521 1.71232 0.922088C 1.26486 0.522469 0.926741 0.204956 0.697064 -0.0158221C 0.583193 -0.125265 0.498538 -0.208498 0.440841 -0.265849C 0.412458 -0.294058 0.391782 -0.314832 0.377491 -0.329267C 0.370574 -0.336253 0.365717 -0.341184 0.362245 -0.344719C 0.360622 -0.346372 0.359572 -0.347443 0.358759 -0.348274C 0.358408 -0.348632 0.358229 -0.348815 0.358054 -0.348995C 0.35799 -0.34906 0.358042 -0.349007 0 0ZM 67.8756 8.37149C 86.2562 -3.11396 102.941 1.85879 115.093 9.7519C 121.182 13.704 126.099 18.3677 129.519 22.0663C 131.226 23.9116 132.547 25.5034 133.447 26.6416C 133.896 27.2088 134.236 27.658 134.466 27.9686C 134.58 28.1229 134.666 28.2406 134.724 28.3212C 134.753 28.361 134.774 28.3907 134.788 28.411C 134.795 28.4209 134.8 28.4281 134.804 28.4332C 134.806 28.4356 134.807 28.4372 134.808 28.4384C 134.808 28.439 134.808 28.4393 134.808 28.4396C 134.809 28.4397 134.809 28.4397 135.218 28.1531C 135.628 27.8664 135.628 27.8661 135.627 27.8656C 135.627 27.8652 135.627 27.8646 135.626 27.8638C 135.625 27.8624 135.623 27.86 135.621 27.8572C 135.618 27.8517 135.611 27.8432 135.604 27.8323C 135.589 27.8111 135.566 27.7787 135.536 27.7371C 135.476 27.6546 135.387 27.5312 135.269 27.373C 135.036 27.0584 134.687 26.5967 134.231 26.0212C 133.324 24.8738 131.978 23.2525 130.253 21.3873C 126.81 17.665 121.801 12.9185 115.638 8.91327C 103.288 0.891779 86.1684 -4.23827 67.3457 7.52344L 67.8756 8.37149Z"/></defs></svg>