<svg width="191" height="48" viewBox="0 0 191 48" version="1.1" xmlns="http://www.w3.org/2000/svg" xmlns:xlink="http://www.w3.org/1999/xlink">
<title>typescript_logo</title>
<desc>Created using Figma</desc>
<g id="Canvas" transform="translate(-848 1387)">
<g id="typescript_logo">
<g id="Shape">
<use xlink:href="#path0_fill" transform="matrix(1 -1.22465e-16 -1.22465e-16 -1 848 -1339)" fill="#007ACC"/>
</g>
<g id="Shape">
<use xlink:href="#path1_fill" transform="matrix(-1 -1.22465e-16 1.22465e-16 -1 876 -1342)" fill="#FFFFFF"/>
</g>
<g id="Shape">
<use xlink:href="#path2_fill" transform="matrix(1 -1.22465e-16 -1.22465e-16 -1 876 -1342)" fill="#FFFFFF"/>
</g>
<g id="Type Script">
<use xlink:href="#path3_fill" transform="translate(910 -1372)" fill="#FFFFFF"/>
</g>
</g>
</g>
<defs>
<path id="path0_fill" d="M 0 24L 0 0L 24 0L 48 0L 48 24L 48 48L 24 48L 0 48L 0 24Z"/>
<path id="path1_fill" d="M 15.9856 19.9898L 16 17.997L 13.045 17.997L 10.0901 17.997L 10.0901 8.99849L 10.0901 0L 8 0L 5.90991 0L 5.90991 8.99849L 5.90991 17.997L 2.95495 17.997L 0 17.997L 0 19.9512C 0 21.0325 0.0216216 21.9362 0.0504505 21.9594C 0.0720721 21.9903 3.66847 22.0058 8.02883 21.998L 15.964 21.9749L 15.9856 19.9898Z"/>
<path id="path2_fill" d="M 9.67504 22.7951C 10.8546 22.479 11.7541 21.9179 12.5798 21.0013C 13.0074 20.5114 13.6415 19.6184 13.6931 19.405C 13.7078 19.3418 11.6877 17.8878 10.4639 17.0739C 10.4197 17.0423 10.2427 17.2477 10.0437 17.5638C 9.4465 18.4963 8.81983 18.8993 7.8614 18.9704C 6.45325 19.0732 5.54643 18.2829 5.5538 16.9633C 5.5538 16.5761 5.60541 16.3469 5.75286 16.0308C 6.06251 15.3433 6.63756 14.9324 8.44383 14.0948C 11.7688 12.5617 13.1917 11.5503 14.0764 10.1121C 15.0644 8.5079 15.2855 5.94759 14.6146 4.04316C 13.8774 1.97278 12.049 0.566189 9.47599 0.099959C 8.67975 -0.050183 6.79239 -0.0264763 5.93717 0.13947C 4.07193 0.495069 2.30252 1.48284 1.21139 2.77881C 0.783779 3.28455 -0.0493169 4.60422 0.00229092 4.69904C 0.0244084 4.73065 0.216094 4.85709 0.429897 4.99142C 0.636328 5.11786 1.41782 5.59989 2.15507 6.05822L 3.4895 6.88795L 3.76965 6.44543C 4.1604 5.80535 5.01561 4.92821 5.53168 4.63582C 7.01356 3.79819 9.04838 3.91672 10.051 4.88079C 10.4786 5.29961 10.6556 5.73423 10.6556 6.37431C 10.6556 6.95117 10.5892 7.20404 10.3091 7.63866C 9.94783 8.19182 9.21058 8.65805 7.11678 9.63002C 4.72071 10.7363 3.68855 11.4238 2.74487 12.5143C 2.1993 13.1465 1.68323 14.158 1.46942 15.0035C 1.29248 15.7068 1.24825 17.469 1.38833 18.1802C 1.88228 20.6615 3.62957 22.3921 6.15098 22.9057C 6.96933 23.0717 8.87144 23.0084 9.67504 22.7951Z"/>
<path id="path3_fill" fill-rule="evenodd" d="M 14.4747 2.23308L 8.4586 2.23308L 8.4586 18.5175L 6.00329 18.5175L 6.00329 2.23308L 0 2.23308L 0 0.250854L 14.4747 0.250854L 14.4747 2.23308ZM 20.5037 15.1176L 23.7432 4.94299L 26.2885 4.94299L 20.6965 20.6126C 19.831 22.8709 18.4555 24 16.5701 24L 16.1202 23.9623L 15.2332 23.7992L 15.2332 21.9174L 15.8759 21.9676C 16.6815 21.9676 17.3092 21.8087 17.7592 21.4908C 18.2091 21.173 18.5798 20.5917 18.8711 19.747L 19.3982 18.3669L 14.4362 4.94299L 17.0329 4.94299L 20.5037 15.1176ZM 40.159 11.8808C 40.159 13.9467 39.6748 15.6111 38.7064 16.8741C 37.738 18.137 36.4268 18.7685 34.7728 18.7685C 33.0845 18.7685 31.7561 18.2457 30.7877 17.2002L 30.7877 23.7366L 28.4095 23.7366L 28.4095 4.94305L 30.582 4.94305L 30.6977 6.44854C 31.6662 5.2776 33.0116 4.69214 34.7342 4.69214C 36.4054 4.69214 37.7273 5.30687 38.7 6.53636C 39.6727 7.76585 40.159 9.47624 40.159 11.6676L 40.159 11.8808ZM 37.7808 11.6173C 37.7808 10.0867 37.4466 8.87816 36.7782 7.99159C 36.1097 7.10502 35.1927 6.66174 34.0272 6.66174C 32.5874 6.66174 31.5076 7.28484 30.7877 8.53106L 30.7877 15.0172C 31.499 16.2551 32.5874 16.874 34.0529 16.874C 35.1927 16.874 36.099 16.4328 36.7717 15.5504C 37.4445 14.668 37.7808 13.357 37.7808 11.6173ZM 48.9519 18.7685C 47.0665 18.7685 45.5325 18.1642 44.3498 16.9556C 43.1671 15.747 42.5758 14.1307 42.5758 12.1067L 42.5758 11.6801C 42.5758 10.3335 42.8393 9.13124 43.3664 8.07322C 43.8934 7.01519 44.6305 6.18718 45.5774 5.58916C 46.5244 4.99114 47.5507 4.69214 48.6562 4.69214C 50.4645 4.69214 51.87 5.27342 52.8727 6.436C 53.8754 7.59857 54.3767 9.26296 54.3767 11.4292L 54.3767 12.3952L 44.954 12.3952C 44.9883 13.7334 45.3889 14.8145 46.1559 15.6383C 46.9229 16.4621 47.8978 16.8741 49.0804 16.8741C 49.9203 16.8741 50.6316 16.7068 51.2144 16.3722C 51.7971 16.0377 52.307 15.5944 52.7441 15.0424L 54.1967 16.1464C 53.0312 17.8944 51.2829 18.7685 48.9519 18.7685ZM 48.6562 6.599C 47.6963 6.599 46.8908 6.93982 46.2394 7.62148C 45.5881 8.30313 45.1853 9.25869 45.0311 10.4882L 51.9985 10.4882L 51.9985 10.3125C 51.9299 9.13323 51.6043 8.21949 51.0215 7.57129C 50.4387 6.92309 49.6503 6.599 48.6562 6.599ZM 69.5327 10.3753C 67.4159 9.78149 65.8755 9.05176 64.9114 8.1861C 63.9472 7.32044 63.4652 6.25197 63.4652 4.98066C 63.4652 3.54207 64.0544 2.35233 65.2327 1.4114C 66.4111 0.47046 67.943 0 69.8284 0C 71.1139 0 72.2601 0.242549 73.2671 0.727653C 74.2741 1.21276 75.054 1.88186 75.6067 2.73497C 76.1595 3.58809 76.4359 4.52064 76.4359 5.53267L 73.9549 5.53267C 73.9549 4.42864 73.5949 3.5609 72.875 2.92943C 72.1552 2.29796 71.1396 1.98223 69.8284 1.98223C 68.6115 1.98223 67.6623 2.24359 66.981 2.76634C 66.2997 3.28908 65.959 4.01463 65.959 4.94302C 65.959 5.68741 66.2826 6.31678 66.9296 6.83116C 67.5766 7.34553 68.6779 7.81599 70.2333 8.24255C 71.7888 8.66911 73.0057 9.13957 73.8842 9.65395C 74.7626 10.1683 75.4139 10.7684 75.8381 11.4543C 76.2623 12.1401 76.4744 12.9472 76.4744 13.8756C 76.4744 15.356 75.8831 16.5416 74.7004 17.4323C 73.5178 18.3231 71.9366 18.7684 69.9569 18.7684C 68.6714 18.7684 67.4717 18.528 66.3575 18.047C 65.2434 17.5661 64.3843 16.9075 63.7801 16.0711C 63.1759 15.2347 62.8738 14.2854 62.8738 13.2232L 65.3549 13.2232C 65.3549 14.3272 65.7726 15.1992 66.6082 15.839C 67.4438 16.4788 68.56 16.7987 69.9569 16.7987C 71.2596 16.7987 72.258 16.5395 72.9522 16.0209C 73.6463 15.5024 73.9934 14.7956 73.9934 13.9007C 73.9934 13.0057 73.6721 12.3136 73.0293 11.8244C 72.3865 11.3351 71.221 10.8521 69.5327 10.3753ZM 84.843 16.8741C 85.6915 16.8741 86.4328 16.6231 87.0669 16.1213C 87.7011 15.6195 88.0525 14.9922 88.121 14.2394L 90.3707 14.2394C 90.3278 15.0173 90.0536 15.7575 89.548 16.46C 89.0423 17.1626 88.3674 17.723 87.5233 18.1412C 86.6791 18.5594 85.7857 18.7685 84.843 18.7685C 82.949 18.7685 81.4429 18.1516 80.3245 16.918C 79.2061 15.6843 78.6469 13.9969 78.6469 11.8558L 78.6469 11.4668C 78.6469 10.1453 78.8954 8.97024 79.3925 7.94149C 79.8896 6.91273 80.603 6.11399 81.5329 5.54525C 82.4627 4.97651 83.5618 4.69214 84.8302 4.69214C 86.3899 4.69214 87.6861 5.14796 88.7188 6.05962C 89.7515 6.97129 90.3021 8.15476 90.3707 9.61007L 88.121 9.61007C 88.0525 8.73186 87.7118 8.01049 87.0991 7.44593C 86.4863 6.88137 85.73 6.59909 84.8302 6.59909C 83.6218 6.59909 82.6855 7.02355 82.0214 7.87248C 81.3572 8.72142 81.0251 9.9488 81.0251 11.5547L 81.0251 11.9938C 81.0251 13.5578 81.355 14.7622 82.0149 15.6069C 82.6748 16.4517 83.6175 16.8741 84.843 16.8741ZM 99.7677 7.02565C 99.4078 6.9671 99.0179 6.93783 98.5979 6.93783C 97.0382 6.93783 95.9798 7.58602 95.4227 8.88242L 95.4227 18.5175L 93.0446 18.5175L 93.0446 4.94305L 95.3585 4.94305L 95.397 6.51127C 96.1769 5.29851 97.2824 4.69214 98.7136 4.69214C 99.1764 4.69214 99.5278 4.75068 99.7677 4.86778L 99.7677 7.02565ZM 104.537 18.5175L 102.159 18.5175L 102.159 4.94299L 104.537 4.94299L 104.537 18.5175ZM 101.966 1.34239C 101.966 0.96602 102.084 0.648198 102.319 0.388918C 102.555 0.129638 102.904 0 103.367 0C 103.83 0 104.181 0.129638 104.421 0.388918C 104.661 0.648198 104.781 0.96602 104.781 1.34239C 104.781 1.71877 104.661 2.03241 104.421 2.28332C 104.181 2.53424 103.83 2.6597 103.367 2.6597C 102.904 2.6597 102.555 2.53424 102.319 2.28332C 102.084 2.03241 101.966 1.71877 101.966 1.34239ZM 120.091 11.8808C 120.091 13.9467 119.607 15.6111 118.639 16.8741C 117.67 18.137 116.359 18.7685 114.705 18.7685C 113.017 18.7685 111.689 18.2457 110.72 17.2002L 110.72 23.7366L 108.342 23.7366L 108.342 4.94305L 110.514 4.94305L 110.63 6.44854C 111.599 5.2776 112.944 4.69214 114.667 4.69214C 116.338 4.69214 117.66 5.30687 118.632 6.53636C 119.605 7.76585 120.091 9.47624 120.091 11.6676L 120.091 11.8808ZM 117.713 11.6173C 117.713 10.0867 117.379 8.87816 116.711 7.99159C 116.042 7.10502 115.125 6.66174 113.96 6.66174C 112.52 6.66174 111.44 7.28484 110.72 8.53106L 110.72 15.0172C 111.431 16.2551 112.52 16.874 113.985 16.874C 115.125 16.874 116.031 16.4328 116.704 15.5504C 117.377 14.668 117.713 13.357 117.713 11.6173ZM 126.339 1.65601L 126.339 4.94299L 128.936 4.94299L 128.936 6.73703L 126.339 6.73703L 126.339 15.1552C 126.339 15.6989 126.455 16.1066 126.686 16.3784C 126.917 16.6503 127.312 16.7862 127.869 16.7862C 128.143 16.7862 128.52 16.736 129 16.6356L 129 18.5175C 128.374 18.6848 127.766 18.7684 127.175 18.7684C 126.112 18.7684 125.311 18.4548 124.771 17.8275C 124.231 17.2002 123.961 16.3094 123.961 15.1552L 123.961 6.73703L 121.428 6.73703L 121.428 4.94299L 123.961 4.94299L 123.961 1.65601L 126.339 1.65601Z"/>
</defs>
</svg>
