<svg width="114" height="25" viewBox="0 0 114 25" version="1.1" xmlns="http://www.w3.org/2000/svg" xmlns:xlink="http://www.w3.org/1999/xlink">
<title>youtube_logo</title>
<desc>Created using Figma</desc>
<g id="Canvas" transform="translate(-721 -683)">
<g id="youtube_logo">
<g id="Group">
<g id="Shape">
<use xlink:href="#path0_fill" transform="translate(721 683)" fill="#FF0000"/>
</g>
<g id="Shape">
<use xlink:href="#path1_fill" transform="translate(735.291 690.147)" fill="#FFFFFF"/>
</g>
</g>
<g id="Group">
<g id="Shape">
<use xlink:href="#path2_fill" transform="translate(771.152 690.977)" fill="#FFFFFF"/>
</g>
<g id="Shape">
<use xlink:href="#path3_fill" transform="translate(825.421 690.918)" fill="#FFFFFF"/>
</g>
<g id="Shape">
<use xlink:href="#path4_fill" transform="translate(760.214 685.493)" fill="#FFFFFF"/>
</g>
<g id="Shape">
<use xlink:href="#path5_fill" transform="translate(783.058 691.27)" fill="#FFFFFF"/>
</g>
<g id="Shape">
<use xlink:href="#path5_fill" transform="translate(801.641 691.27)" fill="#FFFFFF"/>
</g>
<g id="Shape">
<use xlink:href="#path6_fill" transform="translate(792.002 685.493)" fill="#FFFFFF"/>
</g>
<g id="Shape">
<use xlink:href="#path7_fill" transform="translate(813.637 684.701)" fill="#FFFFFF"/>
</g>
</g>
</g>
</g>
<defs>
<path id="path0_fill" d="M 34.9626 3.91176C 34.5509 2.38235 33.3453 1.17647 31.8162 0.764706C 29.0228 0 17.8488 0 17.8488 0C 17.8488 0 6.67494 0 3.88146 0.735294C 2.38181 1.14706 1.1468 2.38235 0.735126 3.91176C 0 6.70588 0 12.5 0 12.5C 0 12.5 0 18.3235 0.735126 21.0882C 1.1468 22.6176 2.3524 23.8235 3.88146 24.2353C 6.70434 25 17.8488 25 17.8488 25C 17.8488 25 29.0228 25 31.8162 24.2647C 33.3453 23.8529 34.5509 22.6471 34.9626 21.1176C 35.6977 18.3235 35.6977 12.5294 35.6977 12.5294C 35.6977 12.5294 35.7271 6.70588 34.9626 3.91176Z"/>
<path id="path1_fill" d="M 0 10.7059L 9.29199 5.35294L 0 0L 0 10.7059Z"/>
<path id="path2_fill" fill-rule="evenodd" d="M 0.453247 13.2258C 0.755432 14.2522 1.2691 14.9854 1.99426 15.4545C 2.71948 15.9238 3.74683 16.1584 5.01593 16.1877C 6.25482 16.1877 7.25195 15.9531 7.97717 15.4839C 8.70239 15.0146 9.21606 14.2522 9.54846 13.2551C 9.8808 12.2288 10.0319 10.9091 10.0319 9.23755L 10.0319 6.97949C 10.0319 5.27856 9.85059 3.92963 9.51819 2.93256C 9.18585 1.93549 8.67218 1.17303 7.94696 0.703796C 7.22174 0.234619 6.25482 0 5.07635 0C 3.86774 0 2.90082 0.234619 2.14539 0.703796C 1.42017 1.17303 0.876282 1.90613 0.513672 2.93256C 0.181274 3.95892 0 5.30792 0 6.97949L 0 9.23755C 0 10.8798 0.151062 12.2288 0.453247 13.2258ZM 6.37567 10.4985C 6.37567 11.6422 6.28503 12.4926 6.07349 12.9911C 5.862 13.519 5.5296 13.7537 5.04614 13.7537C 4.53247 13.7537 4.16986 13.4897 3.98859 12.9911C 3.77704 12.4926 3.6864 11.6422 3.6864 10.4985L 3.6864 5.63049C 3.6864 4.51611 3.77704 3.69501 3.98859 3.16711C 4.16986 2.66858 4.53247 2.40466 5.01593 2.40466C 5.5296 2.40466 5.862 2.63928 6.07349 3.16711C 6.28503 3.69501 6.37567 4.51611 6.37567 5.63049L 6.37567 10.4985Z"/>
<path id="path3_fill" fill-rule="evenodd" d="M 3.50513 10.1173L 3.50513 9.3255L 3.50513 9.26685L 9.57867 9.26685L 9.57867 6.59827C 9.57867 4.95599 9.45776 3.66571 9.18585 2.72729C 8.91388 1.81818 8.46063 1.11438 7.7959 0.6745C 7.1311 0.234619 6.16418 0 4.92529 0C 3.14252 0 1.87341 0.527832 1.11804 1.61292C 0.36261 2.69794 0 4.3988 0 6.74487L 0 9.47217C 0 11.7595 0.36261 13.4311 1.08777 14.5161C 1.81299 15.6012 3.05188 16.1584 4.83466 16.1584C 6.31525 16.1584 7.4635 15.8065 8.27936 15.1027C 9.09515 14.3988 9.48798 13.3138 9.48798 11.8768C 9.48798 11.6422 9.48798 11.4662 9.45776 11.3196L 6.34546 11.1437C 6.31525 12.1115 6.22461 12.7859 6.01312 13.1965C 5.80157 13.6071 5.43896 13.8123 4.89508 13.8123C 4.47205 13.8123 4.16986 13.695 3.98859 13.4604C 3.7771 13.2551 3.65619 12.8739 3.59576 12.3754C 3.53534 11.8768 3.50513 11.1144 3.50513 10.1173ZM 3.59576 3.84161C 3.65619 3.34308 3.7771 2.99115 3.95837 2.75659C 4.13965 2.52197 4.41162 2.40466 4.83466 2.43402C 5.19727 2.43402 5.49939 2.55127 5.68073 2.75659C 5.862 2.96185 6.01312 3.31378 6.07355 3.84161C 6.13397 4.36951 6.16418 5.13196 6.16418 6.12903L 6.16418 7.24341L 3.50513 7.24341L 3.50513 6.12903C 3.50513 5.1026 3.53534 4.34015 3.59576 3.84161Z"/>
<path id="path4_fill" d="M 4.10945 14.4575L 0 0L 3.59577 0L 5.04616 6.53959C 5.40876 8.15249 5.68071 9.53079 5.86201 10.6745L 5.95266 10.6745C 6.07353 9.85337 6.34548 8.5044 6.76851 6.56891L 8.27934 0L 11.8751 0L 7.70522 14.4575L 7.70522 21.3783L 4.13967 21.3783L 4.13967 14.4575L 4.10945 14.4575Z"/>
<path id="path5_fill" d="M 9.82038 0L 9.82038 15.6305L 6.98002 15.6305L 6.67786 13.7243L 6.58721 13.7243C 5.8318 15.1613 4.65335 15.8944 3.11231 15.8944C 2.05473 15.8944 1.2691 15.5425 0.755414 14.868C 0.241732 14.1935 0 13.1378 0 11.6716L 0 0L 3.62599 0L 3.62599 11.4663C 3.62599 12.1701 3.71664 12.6686 3.86772 12.9619C 4.0188 13.2551 4.29075 13.4018 4.65335 13.4018C 4.95552 13.4018 5.25768 13.3138 5.55985 13.1085C 5.86201 12.9326 6.07353 12.6979 6.19439 12.4047L 6.19439 0L 9.82038 0Z"/>
<path id="path6_fill" d="M 10.7269 2.84457L 7.13111 2.84457L 7.13111 21.3783L 3.59577 21.3783L 3.59577 2.84457L 0 2.84457L 0 0L 10.7269 0L 10.7269 2.84457Z"/>
<path id="path7_fill" fill-rule="evenodd" d="M 8.76282 6.92084C 9.24628 7.36072 9.60889 8.06451 9.82037 9.06158C 10.0319 10.0293 10.1226 11.4077 10.1528 13.1965L 10.1528 15.6599C 10.1528 17.9766 9.85059 19.7067 9.27649 20.7918C 8.70239 21.8768 7.82611 22.434 6.58722 22.434C 5.89221 22.434 5.2879 22.2581 4.71381 21.9648C 4.13965 21.6422 3.71661 21.2317 3.4447 20.7038L 3.35406 20.7038L 2.99146 22.1701L 0 22.1701L 0 0L 3.50513 0L 3.50513 8.24048L 3.53534 8.24048C 3.83752 7.65393 4.29077 7.1554 4.86487 6.80353C 5.43896 6.4223 6.07355 6.24634 6.73828 6.24634C 7.58435 6.24634 8.27936 6.48096 8.76282 6.92084ZM 6.34546 18.0939C 6.43616 17.4487 6.49658 16.5689 6.49658 15.4252L 6.52679 15.4252L 6.52679 13.3724C 6.52679 12.1701 6.49658 11.2317 6.40588 10.5572C 6.31525 9.91205 6.1944 9.44281 5.98291 9.1496C 5.80157 8.88562 5.49939 8.73901 5.13684 8.73901C 4.80444 8.73901 4.47205 8.88562 4.16986 9.1496C 3.86774 9.44281 3.65619 9.79474 3.53534 10.2053L 3.53534 19.0616C 3.6864 19.3255 3.89795 19.5308 4.13965 19.6774C 4.38141 19.824 4.65338 19.8827 4.95551 19.8827C 5.31812 19.8827 5.6203 19.7361 5.862 19.4722C 6.07355 19.2083 6.25482 18.739 6.34546 18.0939Z"/>
</defs>
</svg>
