<svg width="85" height="54" viewBox="0 0 85 54" version="1.1" xmlns="http://www.w3.org/2000/svg" xmlns:xlink="http://www.w3.org/1999/xlink">
<title>technologies__environment_line_1</title>
<desc>Created using Figma</desc>
<g id="Canvas" transform="translate(-675 -1392)">
<g id="technologies__environment_line_1" opacity="0.282495">
<use xlink:href="#path0_stroke" transform="matrix(-0.848048 0.529919 0.529919 0.848048 755.773 1388)" fill="#FFFFFF"/>
</g>
</g>
<defs>
<path id="path0_stroke" d="M 0.360475 5.22658L 0.0139813 4.8661L -0.706969 5.55909L -0.360475 5.91956L 0.360475 5.22658ZM 97.305 5.97348L 97.7055 6.27293L 98.3044 5.47211L 97.9039 5.17266L 97.305 5.97348ZM 0 5.57307C -0.360475 5.91956 -0.36021 5.91984 -0.359864 5.9202C -0.359639 5.92043 -0.35921 5.92088 -0.358759 5.92134C -0.357981 5.92215 -0.356629 5.92355 -0.355072 5.92516C -0.352205 5.92811 -0.347531 5.93292 -0.341804 5.93878C -0.330846 5.94999 -0.313656 5.96746 -0.291824 5.98941C -0.249169 6.03227 -0.183733 6.09724 -0.0991724 6.17918C 0.0678449 6.34099 0.320508 6.57957 0.648241 6.87278C 1.29917 7.45494 2.27225 8.27508 3.52256 9.19556C 6.01276 11.0277 9.67664 13.3055 14.2413 15.0136C 23.4019 18.4363 36.2625 19.5981 51.0497 10.6339L 50.5313 9.77873C 36.0414 18.5627 23.5067 17.4079 14.5913 14.0769C 10.118 12.4082 6.57374 10.1999 4.11528 8.39015C 2.89125 7.48968 1.95488 6.69993 1.31493 6.12744C 0.997222 5.84332 0.759093 5.61838 0.596678 5.461C 0.516522 5.38335 0.457582 5.32481 0.417039 5.28406C 0.397273 5.2642 0.383159 5.24984 0.373213 5.23967C 0.368488 5.23484 0.36531 5.23157 0.362938 5.22912C 0.361875 5.22803 0.36126 5.22739 0.360727 5.22684C 0.360522 5.22663 0.360459 5.22656 0.360356 5.22645C 0.360375 5.22647 0.360475 5.22658 0 5.57307ZM 51.0497 10.6339C 65.5967 1.81525 77.1865 0.685321 85.1111 1.72982C 89.0827 2.25065 92.1196 3.31317 94.2005 4.2566C 95.2331 4.72403 96.0067 5.15303 96.5354 5.47227C 96.7963 5.62966 96.9881 5.75486 97.1202 5.84426C 97.1847 5.88783 97.2307 5.92011 97.2632 5.94323C 97.2786 5.95423 97.2891 5.96178 97.2968 5.96745C 97.3003 5.97 97.3024 5.97151 97.3041 5.9728C 97.3048 5.97331 97.305 5.97348 97.3054 5.97373C 97.3055 5.97379 97.3054 5.97373 97.3054 5.97376C 97.3053 5.97365 97.305 5.97348 97.6045 5.57307C 97.9039 5.17266 97.9036 5.1724 97.9032 5.17208C 97.9029 5.17191 97.9025 5.17155 97.902 5.17121C 97.9013 5.17067 97.8999 5.16965 97.8984 5.16858C 97.8959 5.16671 97.8916 5.1635 97.8865 5.15982C 97.8772 5.15301 97.862 5.14203 97.8434 5.12875C 97.8077 5.10333 97.7517 5.06413 97.6805 5.01597C 97.5415 4.92192 97.3279 4.78269 97.0521 4.61613C 96.5075 4.28747 95.6822 3.83053 94.6133 3.34574C 92.4911 2.38475 89.314 1.27778 85.2417 0.738393C 77.0786 -0.337547 65.2614 0.849142 50.5313 9.77873L 51.0497 10.6339Z"/>
</defs>
</svg>
