<svg xmlns="http://www.w3.org/2000/svg" xmlns:xlink="http://www.w3.org/1999/xlink" width="85" height="54" version="1.1" viewBox="0 0 85 54"><title>technologies__back-end_line_2</title><desc>Created using Figma</desc><g id="Canvas" transform="translate(-852 509)"><g id="technologies__back-end_line_2" opacity=".282"><use fill="#FFF" transform="matrix(0.848048 0.529919 -0.529919 0.848048 855.842 -512)" xlink:href="#path0_stroke"/></g></g><defs><path id="path0_stroke" d="M 0.362409 4.00996L 0.0179383 3.64755L -0.706879 4.33649L -0.362409 4.6989L 0.362409 4.00996ZM 97.3086 4.75746L 97.7116 5.05337L 98.3034 4.24731L 97.9004 3.95139L 97.3086 4.75746ZM 0 4.35443C -0.362409 4.6989 -0.36216 4.69916 -0.361811 4.69953C -0.361561 4.69979 -0.361112 4.70026 -0.360613 4.70078C -0.359715 4.70173 -0.358217 4.7033 -0.356422 4.70517C -0.353032 4.70871 -0.347646 4.71433 -0.340887 4.72134C -0.327772 4.73494 -0.307511 4.75586 -0.281453 4.78251C -0.230163 4.83495 -0.152241 4.91384 -0.0510914 5.0142C 0.149492 5.21319 0.450492 5.50551 0.83996 5.86712C 1.6152 6.58677 2.76242 7.60027 4.21844 8.7481C 7.12212 11.0363 11.3174 13.903 16.3682 16.1431C 26.4955 20.6303 40.182 22.6519 54.2431 12.7102L 53.6658 11.8936C 39.9762 21.5728 26.6855 19.6207 16.7733 15.2289C 11.8042 13.0295 7.7142 10.2304 4.83745 7.96272C 3.40326 6.83259 2.28651 5.8456 1.52033 5.13425C 1.13909 4.78036 0.850015 4.49956 0.653203 4.30429C 0.555656 4.20752 0.483049 4.134 0.433486 4.08332C 0.409118 4.05841 0.39137 4.04008 0.379083 4.02733C 0.373142 4.02117 0.368979 4.01683 0.365994 4.01371C 0.364602 4.01226 0.363707 4.01132 0.363009 4.01059C 0.36271 4.01027 0.36256 4.01012 0.36241 4.00996C 0.36236 4.00991 0.362409 4.00996 0 4.35443ZM 54.2431 12.7102C 68.039 2.9559 78.8406 1.01171 86.1547 1.46935C 89.8206 1.69554 92.5965 2.52087 94.4972 3.29975C 95.4384 3.68457 96.1382 4.04896 96.6181 4.32472C 96.854 4.46015 97.0259 4.56825 97.1452 4.64639C 97.203 4.68421 97.2437 4.71196 97.2728 4.73217C 97.2864 4.74165 97.2953 4.74796 97.3022 4.75287C 97.3052 4.755 97.3068 4.75615 97.3083 4.75724C 97.3088 4.75763 97.3089 4.75768 97.3091 4.75788C 97.3092 4.7579 97.309 4.75779 97.309 4.7578C 97.3088 4.75766 97.3086 4.75746 97.6045 4.35443C 97.9004 3.95139 97.9 3.95111 97.8996 3.95079C 97.8993 3.95062 97.8988 3.95025 97.8984 3.94992C 97.8977 3.94941 97.8963 3.9484 97.8949 3.94739C 97.8925 3.94567 97.8883 3.94262 97.8835 3.93922C 97.8749 3.93305 97.8606 3.92292 97.8433 3.91091C 97.8105 3.88815 97.7586 3.85274 97.6931 3.80985C 97.5659 3.72657 97.3692 3.60304 97.1162 3.4576C 96.6181 3.17161 95.859 2.77731 94.8761 2.37431C 92.9284 1.57758 89.995 0.710863 86.2172 0.471303C 78.644 -0.00254599 67.6206 2.02699 53.6658 11.8936L 54.2431 12.7102Z"/></defs></svg>