<svg xmlns="http://www.w3.org/2000/svg" xmlns:xlink="http://www.w3.org/1999/xlink" width="85" height="54" version="1.1" viewBox="0 0 85 54"><title>technologies__deployment_line_1</title><desc>Created using Figma</desc><g id="Canvas" transform="translate(-779 -2309)"><g id="technologies__deployment_line_1" opacity=".282"><use fill="#FFF" transform="matrix(-0.848048 0.529919 0.529919 0.848048 858.929 2303.65)" xlink:href="#path0_stroke"/></g></g><defs><path id="path0_stroke" d="M 0.387695 6.85023L 0.0719529 6.46254L -0.703436 7.09402L -0.387695 7.48172L 0.387695 6.85023ZM 97.254 7.52252L 97.6105 7.87306L 98.3116 7.15997L 97.955 6.80943L 97.254 7.52252ZM 0 7.16598C -0.387695 7.48172 -0.387436 7.48204 -0.387103 7.48244C -0.386894 7.4827 -0.386488 7.4832 -0.38607 7.48371C -0.385359 7.48458 -0.384104 7.48611 -0.382682 7.48784C -0.380087 7.49099 -0.375811 7.49617 -0.370622 7.50242C -0.36075 7.51431 -0.345157 7.53296 -0.325444 7.55624C -0.287052 7.60156 -0.227857 7.67048 -0.151419 7.75706C -0.00070902 7.92773 0.228463 8.1798 0.526767 8.48858C 1.11865 9.10099 2.01023 9.96395 3.16777 10.9275C 5.47181 12.8439 8.91094 15.2171 13.3052 16.9524C 22.1364 20.4327 34.87 21.3652 50.5295 11.3727L 49.9916 10.5297C 34.6066 20.347 22.2099 19.3868 13.6719 16.0221C 9.38161 14.3348 6.07646 12.0474 3.80736 10.1588C 2.67833 9.21988 1.82613 8.39425 1.24587 7.79368C 0.958106 7.49598 0.744118 7.26047 0.598186 7.09518C 0.526303 7.01379 0.473806 6.95264 0.437586 6.90988C 0.419994 6.88911 0.407551 6.87422 0.398714 6.86358C 0.394549 6.85856 0.391801 6.85523 0.389712 6.85269C 0.388792 6.85157 0.38829 6.85096 0.387829 6.8504C 0.38766 6.85019 0.387627 6.85015 0.387543 6.85005C 0.387582 6.8501 0.387695 6.85023 0 7.16598ZM 50.5295 11.3727C 65.9599 1.5264 77.6673 0.618442 85.4798 2.12089C 89.3991 2.87092 92.3273 4.22166 94.3178 5.40182C 95.3049 5.98609 96.0357 6.5155 96.5338 6.90864C 96.7794 7.1023 96.9587 7.25553 97.0822 7.36502C 97.1424 7.41832 97.1851 7.45763 97.2153 7.48587C 97.2297 7.49926 97.2393 7.50841 97.2465 7.51531C 97.2497 7.5184 97.2516 7.5202 97.2532 7.52177C 97.2538 7.52237 97.254 7.52256 97.2543 7.52287C 97.2544 7.52293 97.2543 7.52284 97.2543 7.52288C 97.2542 7.52273 97.254 7.52252 97.6045 7.16598C 97.955 6.80943 97.9547 6.8091 97.9543 6.80871C 97.9541 6.8085 97.9536 6.80805 97.9532 6.80762C 97.9525 6.80696 97.9512 6.80569 97.9498 6.80436C 97.9475 6.80207 97.9434 6.7981 97.9386 6.79356C 97.9299 6.78521 97.9157 6.77167 97.8982 6.75536C 97.8649 6.72416 97.8123 6.67591 97.7455 6.61667C 97.6151 6.5011 97.4139 6.3294 97.1532 6.12358C 96.6387 5.71775 95.8535 5.15 94.8275 4.54149C 92.7918 3.33609 89.7048 1.91878 85.6687 1.13889C 77.5704 -0.418529 65.6058 0.566104 49.9916 10.5297L 50.5295 11.3727Z"/></defs></svg>