<svg width="49" height="52" viewBox="0 0 49 52" version="1.1" xmlns="http://www.w3.org/2000/svg" xmlns:xlink="http://www.w3.org/1999/xlink">
<title>technologies__api_line_3</title>
<desc>Created using Figma</desc>
<g id="Canvas" transform="translate(-895 -399)">
<g id="technologies__api_line_3" opacity="0.282495">
<use xlink:href="#path0_stroke" transform="matrix(0.848048 0.529919 -0.529919 0.848048 895.909 400)" fill="#FFFFFF"/>
</g>
</g>
<defs>
<path id="path0_stroke" d="M 66.614 17.92L 66.9319 18.306L 67.7038 17.6703L 67.386 17.2843L 66.614 17.92ZM 0.39986 -0.300187L 0.0996723 -0.700047L -0.700047 -0.0996723L -0.39986 0.300187L 0.39986 -0.300187ZM 67 17.6022C 67.386 17.2843 67.3858 17.2841 67.3855 17.2838C 67.3853 17.2836 67.385 17.2832 67.3847 17.2828C 67.3842 17.2822 67.3833 17.2811 67.3823 17.2799C 67.3805 17.2777 67.3775 17.2741 67.3739 17.2698C 67.3671 17.2618 67.3563 17.2489 67.3429 17.2331C 67.3168 17.2026 67.2764 17.1557 67.2248 17.0971C 67.1233 16.9822 66.9688 16.8113 66.7695 16.6022C 66.375 16.1885 65.7821 15.6014 65.0233 14.9415C 63.5151 13.631 61.2814 11.9798 58.5083 10.7052C 52.9233 8.14429 45.0751 7.07111 36.0752 12.9405L 36.6214 13.7782C 45.29 8.12482 52.7677 9.17307 58.0914 11.6142C 60.7727 12.8407 62.889 14.4108 64.3673 15.6962C 65.1018 16.3343 65.6612 16.8888 66.0457 17.2923C 66.236 17.4918 66.3776 17.6484 66.475 17.7588C 66.5227 17.8129 66.5574 17.8531 66.5816 17.8815C 66.5932 17.8952 66.6013 17.9048 66.6072 17.9118C 66.6099 17.915 66.6116 17.9171 66.6129 17.9187C 66.6135 17.9194 66.6138 17.9197 66.6141 17.9201C 66.6142 17.9202 66.6142 17.9202 66.6142 17.9202C 66.6141 17.9202 66.614 17.92 67 17.6022ZM 36.0752 12.9405C 27.5017 18.5318 18.6563 15.3314 11.8338 10.5901C 8.42524 8.22316 5.57665 5.50789 3.55878 3.36499C 2.55262 2.29679 1.76433 1.38177 1.22211 0.72757C 0.952238 0.402009 0.746961 0.145339 0.607097 -0.0324875C 0.537739 -0.120663 0.485994 -0.187525 0.450688 -0.233502C 0.433311 -0.25613 0.420619 -0.272786 0.411849 -0.284339C 0.407599 -0.289936 0.404605 -0.293895 0.40247 -0.296724C 0.401469 -0.29805 0.400817 -0.298915 0.400315 -0.299582C 0.400097 -0.299871 0.399983 -0.300022 0.399874 -0.300168C 0.399831 -0.300225 0.39986 -0.300187 0 0C -0.39986 0.300187 -0.399689 0.300414 -0.399447 0.300736C -0.399271 0.30097 -0.398958 0.301386 -0.398607 0.301853C -0.397971 0.302697 -0.396918 0.304096 -0.395648 0.305778C -0.393242 0.308965 -0.389432 0.314002 -0.384636 0.320319C -0.375314 0.332599 -0.360944 0.351455 -0.342438 0.375555C -0.305977 0.423033 -0.250675 0.494483 -0.178905 0.585737C -0.0365109 0.766767 0.17679 1.03342 0.452202 1.36572C 1.00055 2.02725 1.80966 2.96613 2.83079 4.05058C 4.86753 6.21299 7.79317 8.99807 11.2631 11.4113C 18.1976 16.2304 27.5264 19.7096 36.6214 13.7782L 36.0752 12.9405Z"/>
</defs>
</svg>
