<svg width="67" height="43" viewBox="0 0 67 43" version="1.1" xmlns="http://www.w3.org/2000/svg" xmlns:xlink="http://www.w3.org/1999/xlink">
<title>technologies__front-end_line_2</title>
<desc>Created using Figma</desc>
<g id="Canvas" transform="translate(-853 1447)">
<g id="technologies__front-end_line_2" opacity="0.282495">
<use xlink:href="#path0_stroke" transform="matrix(0.848048 0.529919 -0.529919 0.848048 855.842 -1449)" fill="#FFFFFF"/>
</g>
</g>
<defs>
<path id="path0_stroke" d="M 0.362409 3.08047L 0.0179382 2.71806L -0.706879 3.40701L -0.362409 3.76941L 0.362409 3.08047ZM 76.4742 3.82798L 76.8772 4.12389L 77.469 3.31782L 77.066 3.02191L 76.4742 3.82798ZM 0 3.42494C -0.362409 3.76941 -0.362181 3.76965 -0.361875 3.76997C -0.361668 3.77019 -0.361283 3.7706 -0.360869 3.77103C -0.360141 3.77179 -0.358898 3.7731 -0.357443 3.77462C -0.354734 3.77745 -0.350367 3.782 -0.344963 3.7876C -0.33456 3.7984 -0.318356 3.81512 -0.29768 3.83627C -0.257153 3.87771 -0.195297 3.94033 -0.115354 4.01965C 0.0428156 4.17656 0.280838 4.40771 0.588049 4.69296C 1.19877 5.25988 2.10437 6.05987 3.25192 6.96458C 5.53866 8.76653 8.84969 11.0285 12.831 12.7948C 20.8195 16.3343 31.6269 17.9319 42.7261 10.0842L 42.1488 9.2677C 31.421 16.8527 21.0096 15.3248 13.2361 11.8806C 9.3365 10.155 6.13074 7.96065 3.87093 6.17919C 2.7452 5.29219 1.87009 4.51871 1.26842 3.96009C 0.969433 3.68256 0.743339 3.46293 0.588941 3.30974C 0.5126 3.23401 0.456059 3.17676 0.41726 3.13708C 0.398273 3.11767 0.384582 3.10353 0.375006 3.0936C 0.370421 3.08884 0.367277 3.08556 0.364973 3.08316C 0.363921 3.08206 0.363281 3.08139 0.362753 3.08083C 0.362539 3.08061 0.362454 3.08052 0.362346 3.08041C 0.362338 3.0804 0.362409 3.08047 0 3.42494ZM 42.7261 10.0842C 53.5602 2.42409 62.0324 0.904003 67.7577 1.26223C 70.6291 1.4387 72.7956 2.08345 74.2856 2.69417C 75.0215 2.9949 75.5656 3.27832 75.941 3.49412C 76.1248 3.59957 76.2574 3.68296 76.3503 3.74387C 76.395 3.77308 76.4258 3.79408 76.4482 3.8097C 76.4586 3.81689 76.465 3.82145 76.4702 3.82517C 76.4724 3.82672 76.4734 3.82742 76.4745 3.8282C 76.4748 3.82844 76.475 3.82863 76.4749 3.82851C 76.4749 3.82849 76.4747 3.82835 76.4747 3.82835C 76.4744 3.82818 76.4742 3.82798 76.7701 3.42494C 77.066 3.02191 77.0656 3.02164 77.0652 3.02133C 77.065 3.02118 77.0645 3.02084 77.0641 3.02055C 77.0635 3.02011 77.0623 3.01922 77.0611 3.01835C 77.0591 3.01693 77.0555 3.01433 77.0516 3.01152C 77.0446 3.00654 77.0328 2.99816 77.0188 2.98845C 76.9926 2.97027 76.9505 2.9416 76.8983 2.90733C 76.7974 2.84127 76.64 2.74247 76.4391 2.627C 76.0454 2.40097 75.442 2.08764 74.6645 1.76873C 73.1276 1.14015 70.8035 0.454031 67.8201 0.264179C 61.8359 -0.110253 53.1418 1.49517 42.1488 9.2677L 42.7261 10.0842Z"/>
</defs>
</svg>
