<svg width="102" height="97" viewBox="0 0 102 97" version="1.1" xmlns="http://www.w3.org/2000/svg" xmlns:xlink="http://www.w3.org/1999/xlink">
<title>technologies__front-end_line_1</title>
<desc>Created using Figma</desc>
<g id="Canvas" transform="translate(-711 1447)">
<g id="technologies__front-end_line_1" opacity="0.282495">
<use xlink:href="#path0_stroke" transform="matrix(-0.848048 0.529919 0.529919 0.848048 812.081 -1446.31)" fill="#FFFFFF"/>
</g>
</g>
<defs>
<path id="path0_stroke" d="M 0.358042 -0.349007L 0.00903514 -0.707049L -0.707049 -0.00903514L -0.358042 0.349007L 0.358042 -0.349007ZM 134.809 28.4397L 135.095 28.8494L 135.915 28.2761L 135.628 27.8664L 134.809 28.4397ZM 0 0C -0.358042 0.349007 -0.357758 0.349298 -0.357358 0.349708C -0.35707 0.350003 -0.356554 0.350531 -0.355978 0.35112C -0.354938 0.352182 -0.353209 0.353947 -0.351132 0.356061C -0.347203 0.360061 -0.340969 0.36639 -0.333129 0.374309C -0.317906 0.389684 -0.2944 0.413298 -0.264114 0.443403C -0.204473 0.50268 -0.113841 0.591774 0.00408106 0.705132C 0.237991 0.929955 0.589484 1.25994 1.04615 1.66789C 1.95532 2.47992 3.30533 3.6217 5.03342 4.91164C 8.4801 7.48345 13.4996 10.6898 19.6687 13.1558C 32.0351 18.0941 49.1107 20.0971 67.8756 8.37149L 67.3457 7.52344C 48.9074 19.045 32.1777 17.0743 20.0396 12.2271C 13.9564 9.80024 9.04882 6.66092 5.63151 4.11021C 3.92759 2.83889 2.61138 1.72521 1.71232 0.922088C 1.26486 0.522469 0.926741 0.204956 0.697064 -0.0158221C 0.583193 -0.125265 0.498538 -0.208498 0.440841 -0.265849C 0.412458 -0.294058 0.391782 -0.314832 0.377491 -0.329267C 0.370574 -0.336253 0.365717 -0.341184 0.362245 -0.344719C 0.360622 -0.346372 0.359572 -0.347443 0.358759 -0.348274C 0.358408 -0.348632 0.358229 -0.348815 0.358054 -0.348995C 0.35799 -0.34906 0.358042 -0.349007 0 0ZM 67.8756 8.37149C 86.2562 -3.11396 102.941 1.85879 115.093 9.7519C 121.182 13.704 126.099 18.3677 129.519 22.0663C 131.226 23.9116 132.547 25.5034 133.447 26.6416C 133.896 27.2088 134.236 27.658 134.466 27.9686C 134.58 28.1229 134.666 28.2406 134.724 28.3212C 134.753 28.361 134.774 28.3907 134.788 28.411C 134.795 28.4209 134.8 28.4281 134.804 28.4332C 134.806 28.4356 134.807 28.4372 134.808 28.4384C 134.808 28.439 134.808 28.4393 134.808 28.4396C 134.809 28.4397 134.809 28.4397 135.218 28.1531C 135.628 27.8664 135.628 27.8661 135.627 27.8656C 135.627 27.8652 135.627 27.8646 135.626 27.8638C 135.625 27.8624 135.623 27.86 135.621 27.8572C 135.618 27.8517 135.611 27.8432 135.604 27.8323C 135.589 27.8111 135.566 27.7787 135.536 27.7371C 135.476 27.6546 135.387 27.5312 135.269 27.373C 135.036 27.0584 134.687 26.5967 134.231 26.0212C 133.324 24.8738 131.978 23.2525 130.253 21.3873C 126.81 17.665 121.801 12.9185 115.638 8.91327C 103.288 0.891779 86.1684 -4.23827 67.3457 7.52344L 67.8756 8.37149Z"/>
</defs>
</svg>
