<svg xmlns="http://www.w3.org/2000/svg" xmlns:xlink="http://www.w3.org/1999/xlink" width="66" height="48" version="1.1" viewBox="0 0 66 48"><title>technologies__deployment_line_2</title><desc>Created using Figma</desc><g id="Canvas" transform="translate(-953 -2308)"><g id="technologies__deployment_line_2" opacity=".282"><use fill="#FFF" transform="matrix(-0.848048 -0.529919 0.529919 -0.848048 1013.85 2361.3)" xlink:href="#path0_stroke"/></g></g><defs><path id="path0_stroke" d="M 0.406252 7.24174L 0.114773 6.83549L -0.69773 7.41844L -0.406252 7.8247L 0.406252 7.24174ZM 78.0657 13.0275L 78.4241 13.3762L 79.1214 12.6595L 78.7631 12.3108L 78.0657 13.0275ZM 0 7.53322C -0.406252 7.8247 -0.405981 7.82507 -0.405673 7.8255C -0.40552 7.82571 -0.405172 7.8262 -0.404865 7.82662C -0.404406 7.82726 -0.403481 7.82853 -0.402561 7.8298C -0.401036 7.8319 -0.398262 7.83569 -0.395199 7.83985C -0.389709 7.84729 -0.380455 7.85972 -0.369411 7.8743C -0.348633 7.9017 -0.315206 7.94494 -0.273277 7.99719C -0.192188 8.09814 -0.064881 8.25034 0.099733 8.4316C 0.422807 8.78682 0.925533 9.29131 1.58905 9.83537C 2.90097 10.9083 4.9478 12.2083 7.69931 13.0109C 13.2405 14.6166 21.6589 14.2345 33.349 6.63273L 32.8038 5.79439C 21.2946 13.2786 13.1748 13.5564 7.97763 12.0504C 5.35995 11.2972 3.48754 10.0984 2.22253 9.06161C 1.59757 8.5508 1.14741 8.09765 0.839704 7.75896C 0.688929 7.59325 0.581377 7.46442 0.506454 7.37108C 0.470377 7.32619 0.44551 7.29397 0.427495 7.2702C 0.419142 7.25919 0.413875 7.2521 0.409693 7.24643C 0.407921 7.24402 0.407071 7.24286 0.406182 7.24164C 0.405894 7.24124 0.405625 7.24087 0.40577 7.24107C 0.405775 7.24108 0.405896 7.24124 0.405899 7.24125C 0.406057 7.24147 0.406252 7.24174 0 7.53322ZM 33.349 6.63273C 44.7678 -0.792664 55.9173 0.787091 64.2535 4.24591C 68.4316 5.97743 71.8728 8.16809 74.2975 9.94249C 75.5056 10.8262 76.4457 11.5964 77.0918 12.1521C 77.413 12.4282 77.656 12.6468 77.8219 12.7992C 77.904 12.8745 77.9649 12.9315 78.0066 12.971C 78.027 12.9903 78.0418 13.0044 78.0521 13.0143C 78.057 13.0191 78.0604 13.0224 78.0629 13.0248C 78.064 13.0259 78.0647 13.0265 78.0653 13.0271C 78.0655 13.0273 78.0656 13.0274 78.0658 13.0275C 78.0658 13.0275 78.0657 13.0275 78.4144 12.6691C 78.7631 12.3108 78.7628 12.3105 78.7625 12.3102C 78.7623 12.31 78.7619 12.3096 78.7615 12.3092C 78.7607 12.3084 78.7594 12.3072 78.7578 12.3057C 78.7549 12.3029 78.7502 12.2984 78.7445 12.2928C 78.7333 12.2821 78.716 12.2655 78.6938 12.2446C 78.6503 12.2034 78.584 12.1413 78.4983 12.0626C 78.3286 11.9067 78.0733 11.6773 77.7438 11.3939C 77.0886 10.8304 76.1179 10.0356 74.888 9.13545C 72.4367 7.34224 68.8933 5.09039 64.6368 3.32226C 56.1038 -0.218199 44.5844 -1.86623 32.8038 5.79439L 33.349 6.63273Z"/></defs></svg>