<svg xmlns="http://www.w3.org/2000/svg" xmlns:xlink="http://www.w3.org/1999/xlink" width="85" height="54" version="1.1" viewBox="0 0 85 54"><title>technologies__api_line_4</title><desc>Created using Figma</desc><g id="Canvas" transform="translate(-972 -399)"><g id="technologies__api_line_4" opacity=".282"><use fill="#FFF" transform="matrix(0.848048 0.529919 -0.529919 0.848048 976.007 395.736)" xlink:href="#path0_stroke"/></g></g><defs><path id="path0_stroke" d="M 0.360475 4.3189L 0.0139813 3.95843L -0.706969 4.65142L -0.360475 5.01189L 0.360475 4.3189ZM 97.305 5.06581L 97.7055 5.36526L 98.3044 4.56443L 97.9039 4.26499L 97.305 5.06581ZM 0 4.6654C -0.360475 5.01189 -0.36021 5.01217 -0.359864 5.01253C -0.359639 5.01276 -0.35921 5.01321 -0.358759 5.01367C -0.357981 5.01448 -0.356629 5.01588 -0.355072 5.01748C -0.352205 5.02044 -0.347531 5.02525 -0.341804 5.03111C -0.330846 5.04231 -0.313656 5.05979 -0.291824 5.08173C -0.249169 5.1246 -0.183733 5.18957 -0.0991724 5.27151C 0.0678449 5.43332 0.320508 5.67189 0.648241 5.9651C 1.29917 6.54727 2.27225 7.36741 3.52256 8.28788C 6.01276 10.12 9.67664 12.3978 14.2413 14.106C 23.4019 17.5286 36.2625 18.6904 51.0497 9.7262L 50.5313 8.87106C 36.0414 17.655 23.5067 16.5002 14.5913 13.1692C 10.118 11.5005 6.57374 9.29221 4.11528 7.48248C 2.89125 6.58201 1.95488 5.79226 1.31493 5.21977C 0.997222 4.93565 0.759093 4.7107 0.596678 4.55333C 0.516522 4.47568 0.457582 4.41714 0.417039 4.37639C 0.397273 4.35653 0.383159 4.34217 0.373213 4.332C 0.368488 4.32717 0.36531 4.3239 0.362938 4.32145C 0.361875 4.32035 0.36126 4.31972 0.360727 4.31917C 0.360522 4.31895 0.360459 4.31889 0.360356 4.31878C 0.360375 4.3188 0.360475 4.3189 0 4.6654ZM 51.0497 9.7262C 65.5967 0.907574 77.1865 -0.222352 85.1111 0.822146C 89.0827 1.34298 92.1196 2.40549 94.2005 3.34893C 95.2331 3.81635 96.0067 4.24536 96.5354 4.5646C 96.7963 4.72199 96.9881 4.84719 97.1202 4.93658C 97.1847 4.98016 97.2307 5.01243 97.2632 5.03556C 97.2786 5.04655 97.2891 5.05411 97.2968 5.05978C 97.3003 5.06233 97.3024 5.06383 97.3041 5.06513C 97.3048 5.06564 97.305 5.0658 97.3054 5.06606C 97.3055 5.06612 97.3054 5.06606 97.3054 5.06608C 97.3053 5.06597 97.305 5.06581 97.6045 4.6654C 97.9039 4.26499 97.9036 4.26472 97.9032 4.26441C 97.9029 4.26424 97.9025 4.26388 97.902 4.26354C 97.9013 4.263 97.8999 4.26198 97.8984 4.26091C 97.8959 4.25904 97.8916 4.25583 97.8865 4.25214C 97.8772 4.24534 97.862 4.23435 97.8434 4.22108C 97.8077 4.19565 97.7517 4.15645 97.6805 4.1083C 97.5415 4.01425 97.3279 3.87502 97.0521 3.70846C 96.5075 3.3798 95.6822 2.92286 94.6133 2.43807C 92.4911 1.47707 89.314 0.370108 85.2417 -0.169279C 77.0786 -1.24522 65.2614 -0.0585309 50.5313 8.87106L 51.0497 9.7262Z"/></defs></svg>