<svg width="27" height="49" viewBox="0 0 27 49" version="1.1" xmlns="http://www.w3.org/2000/svg" xmlns:xlink="http://www.w3.org/1999/xlink">
<title>arrow_to_fullscreen_button</title>
<desc>Created using Figma</desc>
<g id="Canvas" transform="translate(-487 -698)">
<g id="arrow_to_fullscreen_button">
<g id="Path 12">
<use xlink:href="#path0_stroke" transform="matrix(-0.707107 0.707107 -0.707107 -0.707107 506.589 708.914)" fill="#009FE3"/>
</g>
<g id="Path 11">
<use xlink:href="#path1_stroke" transform="matrix(-0.707107 0.707107 -0.707107 -0.707107 527.688 730.013)" fill="#009FE3"/>
</g>
</g>
</g>
<defs>
<path id="path0_stroke" d="M 6.26849 0.212883C 6.38606 -0.326742 6.04392 -0.859506 5.50429 -0.977078C 4.96467 -1.09465 4.43191 -0.752508 4.31433 -0.212883L 6.26849 0.212883ZM 15.8949 11.0566C 16.4275 10.9103 16.7406 10.3601 16.5944 9.82748C 16.4482 9.29491 15.8979 8.98173 15.3653 9.12797L 15.8949 11.0566ZM 5.29141 0C 4.31433 -0.212883 4.31435 -0.212959 4.31436 -0.213001C 4.31435 -0.21297 4.31435 -0.212978 4.31434 -0.212915C 4.31431 -0.212789 4.31426 -0.212527 4.31417 -0.21213C 4.314 -0.211336 4.3137 -0.210002 4.31329 -0.208134C 4.31247 -0.204397 4.31118 -0.198527 4.30941 -0.190578C 4.30589 -0.174681 4.30049 -0.150475 4.29325 -0.118412C 4.27876 -0.0542792 4.25691 0.0412611 4.22795 0.164609C 4.17003 0.411356 4.08372 0.769074 3.97109 1.209C 3.74559 2.08976 3.4157 3.29555 2.998 4.59768C 2.57955 5.90214 2.0775 7.28896 1.50986 8.53678C 0.935908 9.79844 0.322919 10.8546 -0.296772 11.5444L 1.19102 12.881C 2.01258 11.9665 2.72575 10.694 3.33034 9.36494C 3.94123 8.02206 4.4701 6.55624 4.90241 5.20859C 5.33546 3.85862 5.67618 2.61284 5.9086 1.70506C 6.02492 1.25071 6.1144 0.879916 6.17502 0.621717C 6.20533 0.492591 6.22845 0.39155 6.2441 0.322219C 6.25194 0.287552 6.2579 0.260805 6.26198 0.242434C 6.26401 0.233247 6.26558 0.226154 6.26667 0.22121C 6.26721 0.218738 6.26763 0.216804 6.26794 0.215414C 6.26809 0.214718 6.26821 0.214159 6.2683 0.213737C 6.26835 0.213526 6.2684 0.213313 6.26842 0.213207C 6.26846 0.213028 6.26849 0.212883 5.29141 0ZM -0.296772 11.5444C -0.509952 11.7817 -0.702271 12.0376 -0.830704 12.3092C -0.9568 12.5758 -1.06887 12.9614 -0.949326 13.3853C -0.822373 13.8355 -0.499663 14.1049 -0.214147 14.2493C 0.0561936 14.3861 0.351314 14.4447 0.607427 14.4727C 1.58715 14.5799 3.13848 14.3361 4.79917 13.9836C 8.20487 13.2609 12.774 11.9135 15.8949 11.0566L 15.3653 9.12797C 12.1766 10.0036 7.71298 11.3207 4.38397 12.0272C 2.67731 12.3894 1.43579 12.5514 0.824821 12.4846C 0.68326 12.4691 0.65584 12.4481 0.688583 12.4646C 0.7365 12.4889 0.906553 12.5976 0.975597 12.8425C 1.03723 13.061 0.962002 13.1966 0.977301 13.1642C 0.990262 13.1368 1.04389 13.0448 1.19102 12.881L -0.296772 11.5444Z"/>
<path id="path1_stroke" d="M 22.7961 -0.203532C 22.6837 -0.744257 22.1543 -1.09148 21.6135 -0.979068C 21.0728 -0.866661 20.7256 -0.337192 20.838 0.203532L 22.7961 -0.203532ZM -0.527516 42.4884C -0.996707 42.7798 -1.14088 43.3963 -0.849545 43.8655C -0.558206 44.3347 0.0583248 44.4789 0.527516 44.1875L -0.527516 42.4884ZM 21.8171 0C 20.838 0.203532 20.8379 0.203096 20.8379 0.202761C 20.8379 0.202783 20.8378 0.202546 20.8378 0.202589C 20.8378 0.202673 20.8379 0.203156 20.8381 0.204034C 20.8385 0.205791 20.8391 0.209132 20.8401 0.214039C 20.8421 0.223853 20.8452 0.239932 20.8494 0.26214C 20.8578 0.306558 20.8704 0.375479 20.8861 0.467817C 20.9175 0.652509 20.961 0.930769 21.0075 1.2939C 21.1006 2.02032 21.2053 3.08534 21.248 4.41953C 21.3335 7.08935 21.1701 10.8276 20.1732 15.0836C 18.1846 23.5731 12.8717 34.1684 -0.527516 42.4884L 0.527516 44.1875C 14.4304 35.5547 20.0261 24.4809 22.1205 15.5397C 23.165 11.0803 23.3368 7.16273 23.247 4.35557C 23.2021 2.95128 23.0916 1.82252 22.9913 1.03979C 22.9412 0.648342 22.8936 0.343179 22.8579 0.133094C 22.8401 0.0280428 22.8252 -0.0532633 22.8145 -0.109726C 22.8092 -0.137958 22.8049 -0.159983 22.8018 -0.175662C 22.8002 -0.183502 22.799 -0.189755 22.798 -0.194406C 22.7975 -0.196731 22.7972 -0.198656 22.7968 -0.200178C 22.7967 -0.200938 22.7965 -0.201778 22.7964 -0.202158C 22.7963 -0.202895 22.7961 -0.203532 21.8171 0Z"/>
</defs>
</svg>
