<svg xmlns="http://www.w3.org/2000/svg" xmlns:xlink="http://www.w3.org/1999/xlink" width="364" height="269" version="1.1" viewBox="0 0 364 269"><title>fullscreen_mode_button</title><desc>Created using Figma</desc><g id="Canvas" transform="translate(-322 -510)"><g id="fullscreen_mode_button"><g id="Group"><g id="Full Screen"><use fill="#128FDC" transform="translate(416 592.459)" xlink:href="#path0_fill"/></g><g id="full size"><g id="Rectangle 8"><mask id="mask0_outline_ins"><use fill="#fff" transform="translate(487 628.459)" xlink:href="#path1_fill"/></mask><g mask="url(#mask0_outline_ins)"><use fill="#009FE3" transform="translate(487 628.459)" xlink:href="#path2_stroke_2x"/></g></g><g id="Path 17"><use fill="#009FE3" transform="translate(520 624.459)" xlink:href="#path3_stroke"/></g><g id="Path 17 Copy 2"><use fill="#009FE3" transform="matrix(1 0 0 -1 520 657.459)" xlink:href="#path3_stroke"/></g><g id="Path 17 Copy"><use fill="#009FE3" transform="matrix(-1 0 0 1 490 624.459)" xlink:href="#path4_stroke"/></g><g id="Path 17 Copy 3"><use fill="#009FE3" transform="matrix(-1 0 0 -1 490 657.459)" xlink:href="#path4_stroke"/></g></g><g id="Rectangle 9"><mask id="mask1_outline_ins"><use fill="#fff" transform="translate(400 573.459)" xlink:href="#path5_fill"/></mask><g mask="url(#mask1_outline_ins)"><use fill="#007CBB" transform="translate(400 573.459)" xlink:href="#path6_stroke_2x"/></g></g></g><g id="Group 4 Copy 2"><g id="Path 12"><use fill="#009FE3" transform="matrix(-0.707107 0.707107 -0.707107 -0.707107 506.589 708.914)" xlink:href="#path7_stroke"/></g><g id="Path 11"><use fill="#009FE3" transform="matrix(-0.707107 0.707107 -0.707107 -0.707107 527.688 730.013)" xlink:href="#path8_stroke"/></g></g><g id="Click for a better e"><use fill="#118CDC" transform="translate(392 757.901)" xlink:href="#path9_fill"/></g><g id="Presentation starts"><use fill="#118CDC" transform="translate(320.5 506.793)" xlink:href="#path10_fill"/></g></g></g><defs><path id="path0_fill" d="M 47.2672 9.97656L 42.4938 9.97656L 42.4938 15L 40.9938 15L 40.9938 3.625L 48.0407 3.625L 48.0407 4.85938L 42.4938 4.85938L 42.4938 8.75L 47.2672 8.75L 47.2672 9.97656ZM 57.8454 3.625L 57.8454 11.3594C 57.8402 12.4323 57.5016 13.3099 56.8297 13.9922C 56.1631 14.6745 55.2568 15.0573 54.111 15.1406L 53.7126 15.1562C 52.4678 15.1562 51.4756 14.8203 50.736 14.1484C 49.9964 13.4766 49.6214 12.5521 49.611 11.375L 49.611 3.625L 51.0954 3.625L 51.0954 11.3281C 51.0954 12.151 51.3219 12.7917 51.7751 13.25C 52.2282 13.7031 52.874 13.9297 53.7126 13.9297C 54.5615 13.9297 55.21 13.7031 55.6579 13.25C 56.111 12.7969 56.3376 12.1589 56.3376 11.3359L 56.3376 3.625L 57.8454 3.625ZM 61.7204 13.7734L 67.111 13.7734L 67.111 15L 60.2126 15L 60.2126 3.625L 61.7204 3.625L 61.7204 13.7734ZM 70.3297 13.7734L 75.7204 13.7734L 75.7204 15L 68.8219 15L 68.8219 3.625L 70.3297 3.625L 70.3297 13.7734ZM 84.7516 9.92969C 83.4652 9.5599 82.5277 9.10677 81.9391 8.57031C 81.3558 8.02865 81.0641 7.36198 81.0641 6.57031C 81.0641 5.67448 81.4209 4.9349 82.1344 4.35156C 82.8532 3.76302 83.7855 3.46875 84.9313 3.46875C 85.7126 3.46875 86.4079 3.61979 87.0172 3.92188C 87.6318 4.22396 88.1058 4.64062 88.4391 5.17188C 88.7777 5.70312 88.9469 6.28385 88.9469 6.91406L 87.4391 6.91406C 87.4391 6.22656 87.2204 5.6875 86.7829 5.29688C 86.3454 4.90104 85.7282 4.70312 84.9313 4.70312C 84.1917 4.70312 83.6136 4.86719 83.1969 5.19531C 82.7855 5.51823 82.5797 5.96875 82.5797 6.54688C 82.5797 7.01042 82.7751 7.40365 83.1657 7.72656C 83.5615 8.04427 84.2308 8.33594 85.1735 8.60156C 86.1214 8.86719 86.861 9.16146 87.3922 9.48438C 87.9287 9.80208 88.3245 10.1745 88.5797 10.6016C 88.8402 11.0286 88.9704 11.5312 88.9704 12.1094C 88.9704 13.0312 88.611 13.7708 87.8922 14.3281C 87.1735 14.8802 86.2126 15.1562 85.0094 15.1562C 84.2282 15.1562 83.499 15.0078 82.8219 14.7109C 82.1448 14.4089 81.6214 13.9974 81.2516 13.4766C 80.887 12.9557 80.7047 12.3646 80.7047 11.7031L 82.2126 11.7031C 82.2126 12.3906 82.4652 12.9349 82.9704 13.3359C 83.4808 13.7318 84.1605 13.9297 85.0094 13.9297C 85.8011 13.9297 86.4079 13.7682 86.8297 13.4453C 87.2516 13.1224 87.4626 12.6823 87.4626 12.125C 87.4626 11.5677 87.2672 11.138 86.8766 10.8359C 86.486 10.5286 85.7777 10.2266 84.7516 9.92969ZM 99.2672 11.3906C 99.1266 12.5938 98.6813 13.5234 97.9313 14.1797C 97.1865 14.8307 96.1943 15.1562 94.9547 15.1562C 93.611 15.1562 92.5329 14.6745 91.7204 13.7109C 90.9131 12.7474 90.5094 11.4583 90.5094 9.84375L 90.5094 8.75C 90.5094 7.69271 90.6969 6.76302 91.0719 5.96094C 91.4521 5.15885 91.9886 4.54427 92.6813 4.11719C 93.374 3.6849 94.1761 3.46875 95.0876 3.46875C 96.2959 3.46875 97.2646 3.80729 97.9938 4.48438C 98.723 5.15625 99.1475 6.08854 99.2672 7.28125L 97.7594 7.28125C 97.6292 6.375 97.3454 5.71875 96.9079 5.3125C 96.4756 4.90625 95.8688 4.70312 95.0876 4.70312C 94.1292 4.70312 93.3766 5.05729 92.8297 5.76562C 92.2881 6.47396 92.0172 7.48177 92.0172 8.78906L 92.0172 9.89062C 92.0172 11.125 92.2751 12.1068 92.7907 12.8359C 93.3063 13.5651 94.0277 13.9297 94.9547 13.9297C 95.7881 13.9297 96.4261 13.7422 96.8688 13.3672C 97.3167 12.987 97.6136 12.3281 97.7594 11.3906L 99.2672 11.3906ZM 105.494 10.3984L 102.822 10.3984L 102.822 15L 101.314 15L 101.314 3.625L 105.08 3.625C 106.361 3.625 107.345 3.91667 108.033 4.5C 108.726 5.08333 109.072 5.93229 109.072 7.04688C 109.072 7.75521 108.879 8.3724 108.494 8.89844C 108.114 9.42448 107.582 9.81771 106.9 10.0781L 109.572 14.9062L 109.572 15L 107.963 15L 105.494 10.3984ZM 102.822 9.17188L 105.127 9.17188C 105.871 9.17188 106.463 8.97917 106.9 8.59375C 107.343 8.20833 107.564 7.69271 107.564 7.04688C 107.564 6.34375 107.353 5.80469 106.931 5.42969C 106.515 5.05469 105.91 4.86458 105.119 4.85938L 102.822 4.85938L 102.822 9.17188ZM 117.611 9.74219L 112.681 9.74219L 112.681 13.7734L 118.408 13.7734L 118.408 15L 111.181 15L 111.181 3.625L 118.33 3.625L 118.33 4.85938L 112.681 4.85938L 112.681 8.51562L 117.611 8.51562L 117.611 9.74219ZM 126.705 9.74219L 121.775 9.74219L 121.775 13.7734L 127.502 13.7734L 127.502 15L 120.275 15L 120.275 3.625L 127.423 3.625L 127.423 4.85938L 121.775 4.85938L 121.775 8.51562L 126.705 8.51562L 126.705 9.74219ZM 138.111 15L 136.603 15L 130.877 6.23438L 130.877 15L 129.369 15L 129.369 3.625L 130.877 3.625L 136.619 12.4297L 136.619 3.625L 138.111 3.625L 138.111 15Z"/><path id="path1_fill" fill-rule="evenodd" d="M 0 0L 37 0L 37 25L 0 25L 0 0Z"/><path id="path2_stroke_2x" d="M 0 0L 0 -2C -1.10457 -2 -2 -1.10457 -2 4.44089e-16L 0 0ZM 37 0L 39 0C 39 -1.10457 38.1046 -2 37 -2L 37 0ZM 37 25L 37 27C 38.1046 27 39 26.1046 39 25L 37 25ZM 0 25L -2 25C -2 26.1046 -1.10457 27 4.44089e-16 27L 0 25ZM 0 2L 37 2L 37 -2L 0 -2L 0 2ZM 35 0L 35 25L 39 25L 39 0L 35 0ZM 37 23L 0 23L 0 27L 37 27L 37 23ZM 2 25L 2 0L -2 0L -2 25L 2 25Z"/><path id="path3_stroke" d="M 0 -1C -0.552285 -1 -1 -0.552285 -1 0C -1 0.552285 -0.552285 1 0 1L 0 -1ZM 8 0L 9 0C 9 -0.552285 8.55228 -1 8 -1L 8 0ZM 7 6C 7 6.55228 7.44772 7 8 7C 8.55228 7 9 6.55228 9 6L 7 6ZM 0 1L 8 1L 8 -1L 0 -1L 0 1ZM 7 0L 7 6L 9 6L 9 0L 7 0Z"/><path id="path4_stroke" d="M 0 -1C -0.552285 -1 -1 -0.552285 -1 0C -1 0.552285 -0.552285 1 0 1L 0 -1ZM 7 0L 8 0C 8 -0.552285 7.55228 -1 7 -1L 7 0ZM 6 6C 6 6.55228 6.44772 7 7 7C 7.55228 7 8 6.55228 8 6L 6 6ZM 0 1L 7 1L 7 -1L 0 -1L 0 1ZM 6 0L 6 6L 8 6L 8 0L 6 0Z"/><path id="path5_fill" fill-rule="evenodd" d="M 0 10C 0 4.47715 4.47715 0 10 0L 198 0C 203.523 0 208 4.47715 208 10L 208 103C 208 108.523 203.523 113 198 113L 10 113C 4.47715 113 0 108.523 0 103L 0 10Z"/><path id="path6_stroke_2x" d="M 10 1L 198 1L 198 -1L 10 -1L 10 1ZM 207 10L 207 103L 209 103L 209 10L 207 10ZM 198 112L 10 112L 10 114L 198 114L 198 112ZM 1 103L 1 10L -1 10L -1 103L 1 103ZM 10 112C 5.02944 112 1 107.971 1 103L -1 103C -1 109.075 3.92487 114 10 114L 10 112ZM 207 103C 207 107.971 202.971 112 198 112L 198 114C 204.075 114 209 109.075 209 103L 207 103ZM 198 1C 202.971 1 207 5.02944 207 10L 209 10C 209 3.92487 204.075 -1 198 -1L 198 1ZM 10 -1C 3.92487 -1 -1 3.92487 -1 10L 1 10C 1 5.02944 5.02944 1 10 1L 10 -1Z"/><path id="path7_stroke" d="M 6.26849 0.212883C 6.38606 -0.326742 6.04392 -0.859506 5.50429 -0.977078C 4.96467 -1.09465 4.43191 -0.752508 4.31433 -0.212883L 6.26849 0.212883ZM 15.8949 11.0566C 16.4275 10.9103 16.7406 10.3601 16.5944 9.82748C 16.4482 9.29491 15.8979 8.98173 15.3653 9.12797L 15.8949 11.0566ZM 5.29141 0C 4.31433 -0.212883 4.31435 -0.212959 4.31436 -0.213001C 4.31435 -0.21297 4.31435 -0.212978 4.31434 -0.212915C 4.31431 -0.212789 4.31426 -0.212527 4.31417 -0.21213C 4.314 -0.211336 4.3137 -0.210002 4.31329 -0.208134C 4.31247 -0.204397 4.31118 -0.198527 4.30941 -0.190578C 4.30589 -0.174681 4.30049 -0.150475 4.29325 -0.118412C 4.27876 -0.0542792 4.25691 0.0412611 4.22795 0.164609C 4.17003 0.411356 4.08372 0.769074 3.97109 1.209C 3.74559 2.08976 3.4157 3.29555 2.998 4.59768C 2.57955 5.90214 2.0775 7.28896 1.50986 8.53678C 0.935908 9.79844 0.322919 10.8546 -0.296772 11.5444L 1.19102 12.881C 2.01258 11.9665 2.72575 10.694 3.33034 9.36494C 3.94123 8.02206 4.4701 6.55624 4.90241 5.20859C 5.33546 3.85862 5.67618 2.61284 5.9086 1.70506C 6.02492 1.25071 6.1144 0.879916 6.17502 0.621717C 6.20533 0.492591 6.22845 0.39155 6.2441 0.322219C 6.25194 0.287552 6.2579 0.260805 6.26198 0.242434C 6.26401 0.233247 6.26558 0.226154 6.26667 0.22121C 6.26721 0.218738 6.26763 0.216804 6.26794 0.215414C 6.26809 0.214718 6.26821 0.214159 6.2683 0.213737C 6.26835 0.213526 6.2684 0.213313 6.26842 0.213207C 6.26846 0.213028 6.26849 0.212883 5.29141 0ZM -0.296772 11.5444C -0.509952 11.7817 -0.702271 12.0376 -0.830704 12.3092C -0.9568 12.5758 -1.06887 12.9614 -0.949326 13.3853C -0.822373 13.8355 -0.499663 14.1049 -0.214147 14.2493C 0.0561936 14.3861 0.351314 14.4447 0.607427 14.4727C 1.58715 14.5799 3.13848 14.3361 4.79917 13.9836C 8.20487 13.2609 12.774 11.9135 15.8949 11.0566L 15.3653 9.12797C 12.1766 10.0036 7.71298 11.3207 4.38397 12.0272C 2.67731 12.3894 1.43579 12.5514 0.824821 12.4846C 0.68326 12.4691 0.65584 12.4481 0.688583 12.4646C 0.7365 12.4889 0.906553 12.5976 0.975597 12.8425C 1.03723 13.061 0.962002 13.1966 0.977301 13.1642C 0.990262 13.1368 1.04389 13.0448 1.19102 12.881L -0.296772 11.5444Z"/><path id="path8_stroke" d="M 22.7961 -0.203532C 22.6837 -0.744257 22.1543 -1.09148 21.6135 -0.979068C 21.0728 -0.866661 20.7256 -0.337192 20.838 0.203532L 22.7961 -0.203532ZM -0.527516 42.4884C -0.996707 42.7798 -1.14088 43.3963 -0.849545 43.8655C -0.558206 44.3347 0.0583248 44.4789 0.527516 44.1875L -0.527516 42.4884ZM 21.8171 0C 20.838 0.203532 20.8379 0.203096 20.8379 0.202761C 20.8379 0.202783 20.8378 0.202546 20.8378 0.202589C 20.8378 0.202673 20.8379 0.203156 20.8381 0.204034C 20.8385 0.205791 20.8391 0.209132 20.8401 0.214039C 20.8421 0.223853 20.8452 0.239932 20.8494 0.26214C 20.8578 0.306558 20.8704 0.375479 20.8861 0.467817C 20.9175 0.652509 20.961 0.930769 21.0075 1.2939C 21.1006 2.02032 21.2053 3.08534 21.248 4.41953C 21.3335 7.08935 21.1701 10.8276 20.1732 15.0836C 18.1846 23.5731 12.8717 34.1684 -0.527516 42.4884L 0.527516 44.1875C 14.4304 35.5547 20.0261 24.4809 22.1205 15.5397C 23.165 11.0803 23.3368 7.16273 23.247 4.35557C 23.2021 2.95128 23.0916 1.82252 22.9913 1.03979C 22.9412 0.648342 22.8936 0.343179 22.8579 0.133094C 22.8401 0.0280428 22.8252 -0.0532633 22.8145 -0.109726C 22.8092 -0.137958 22.8049 -0.159983 22.8018 -0.175662C 22.8002 -0.183502 22.799 -0.189755 22.798 -0.194406C 22.7975 -0.196731 22.7972 -0.198656 22.7968 -0.200178C 22.7967 -0.200938 22.7965 -0.201778 22.7964 -0.202158C 22.7963 -0.202895 22.7961 -0.203532 21.8171 0Z"/><path id="path9_fill" d="M 11.3115 12.7373C 11.2119 14.1143 10.7021 15.1982 9.78223 15.9893C 8.86816 16.7803 7.66113 17.1758 6.16113 17.1758C 4.52051 17.1758 3.22852 16.625 2.28516 15.5234C 1.34766 14.416 0.878906 12.8984 0.878906 10.9707L 0.878906 10.1885C 0.878906 8.95801 1.0957 7.87402 1.5293 6.93652C 1.96289 5.99902 2.58105 5.28125 3.38379 4.7832C 4.19238 4.2793 5.12988 4.02734 6.19629 4.02734C 7.67285 4.02734 8.8623 4.42285 9.76465 5.21387C 10.667 6.00488 11.1885 7.11523 11.3291 8.54492L 8.69238 8.54492C 8.62793 7.71875 8.39648 7.12109 7.99805 6.75195C 7.60547 6.37695 7.00488 6.18945 6.19629 6.18945C 5.31738 6.18945 4.6582 6.50586 4.21875 7.13867C 3.78516 7.76562 3.5625 8.74121 3.55078 10.0654L 3.55078 11.0322C 3.55078 12.415 3.75879 13.4258 4.1748 14.0645C 4.59668 14.7031 5.25879 15.0225 6.16113 15.0225C 6.97559 15.0225 7.58203 14.8379 7.98047 14.4688C 8.38477 14.0938 8.61621 13.5166 8.6748 12.7373L 11.3115 12.7373ZM 15.5566 17L 13.0078 17L 13.0078 3.5L 15.5566 3.5L 15.5566 17ZM 20.3379 17L 17.7891 17L 17.7891 7.49023L 20.3379 7.49023L 20.3379 17ZM 17.6396 5.0293C 17.6396 4.64844 17.7656 4.33496 18.0176 4.08887C 18.2754 3.84277 18.624 3.71973 19.0635 3.71973C 19.4971 3.71973 19.8428 3.84277 20.1006 4.08887C 20.3584 4.33496 20.4873 4.64844 20.4873 5.0293C 20.4873 5.41602 20.3555 5.73242 20.0918 5.97852C 19.834 6.22461 19.4912 6.34766 19.0635 6.34766C 18.6357 6.34766 18.29 6.22461 18.0264 5.97852C 17.7686 5.73242 17.6396 5.41602 17.6396 5.0293ZM 26.3936 15.1279C 26.8623 15.1279 27.2432 14.999 27.5361 14.7412C 27.8291 14.4834 27.9814 14.1406 27.9932 13.7129L 30.375 13.7129C 30.3691 14.3574 30.1934 14.9492 29.8477 15.4883C 29.502 16.0215 29.0273 16.4375 28.4238 16.7363C 27.8262 17.0293 27.1641 17.1758 26.4375 17.1758C 25.0781 17.1758 24.0059 16.7451 23.2207 15.8838C 22.4355 15.0166 22.043 13.8213 22.043 12.2979L 22.043 12.1309C 22.043 10.666 22.4326 9.49707 23.2119 8.62402C 23.9912 7.75098 25.0605 7.31445 26.4199 7.31445C 27.6094 7.31445 28.5615 7.6543 29.2764 8.33398C 29.9971 9.00781 30.3633 9.90723 30.375 11.0322L 27.9932 11.0322C 27.9814 10.54 27.8291 10.1416 27.5361 9.83691C 27.2432 9.52637 26.8564 9.37109 26.376 9.37109C 25.7842 9.37109 25.3359 9.58789 25.0312 10.0215C 24.7324 10.4492 24.583 11.1465 24.583 12.1133L 24.583 12.377C 24.583 13.3555 24.7324 14.0586 25.0312 14.4863C 25.3301 14.9141 25.7842 15.1279 26.3936 15.1279ZM 35.2793 13.1855L 34.3652 14.0996L 34.3652 17L 31.8252 17L 31.8252 3.5L 34.3652 3.5L 34.3652 10.9795L 34.8574 10.3467L 37.292 7.49023L 40.3418 7.49023L 36.9053 11.4541L 40.6406 17L 37.7227 17L 35.2793 13.1855ZM 46.9775 17L 46.9775 8.74707L 45.4746 8.74707L 45.4746 7.49023L 46.9775 7.49023L 46.9775 6.51465C 46.9775 5.49512 47.25 4.70703 47.7949 4.15039C 48.3398 3.59375 49.1104 3.31543 50.1064 3.31543C 50.4814 3.31543 50.8535 3.36523 51.2227 3.46484L 51.1348 4.7832C 50.8594 4.73047 50.5664 4.7041 50.2559 4.7041C 49.7285 4.7041 49.3213 4.85938 49.0342 5.16992C 48.7471 5.47461 48.6035 5.91406 48.6035 6.48828L 48.6035 7.49023L 50.6338 7.49023L 50.6338 8.74707L 48.6035 8.74707L 48.6035 17L 46.9775 17ZM 52.0049 12.1572C 52.0049 11.2256 52.1865 10.3877 52.5498 9.64355C 52.9189 8.89941 53.4287 8.3252 54.0791 7.9209C 54.7354 7.5166 55.4824 7.31445 56.3203 7.31445C 57.6152 7.31445 58.6611 7.7627 59.458 8.65918C 60.2607 9.55566 60.6621 10.748 60.6621 12.2363L 60.6621 12.3506C 60.6621 13.2764 60.4834 14.1084 60.126 14.8467C 59.7744 15.5791 59.2676 16.1504 58.6055 16.5605C 57.9492 16.9707 57.1934 17.1758 56.3379 17.1758C 55.0488 17.1758 54.0029 16.7275 53.2002 15.8311C 52.4033 14.9346 52.0049 13.748 52.0049 12.2715L 52.0049 12.1572ZM 53.6396 12.3506C 53.6396 13.4053 53.8828 14.252 54.3691 14.8906C 54.8613 15.5293 55.5176 15.8486 56.3379 15.8486C 57.1641 15.8486 57.8203 15.5264 58.3066 14.8818C 58.793 14.2314 59.0361 13.3232 59.0361 12.1572C 59.0361 11.1143 58.7871 10.2705 58.2891 9.62598C 57.7969 8.97559 57.1406 8.65039 56.3203 8.65039C 55.5176 8.65039 54.8701 8.96973 54.3779 9.6084C 53.8857 10.2471 53.6396 11.1611 53.6396 12.3506ZM 67.2979 8.94922C 67.0518 8.9082 66.7852 8.8877 66.498 8.8877C 65.4316 8.8877 64.708 9.3418 64.3271 10.25L 64.3271 17L 62.7012 17L 62.7012 7.49023L 64.2832 7.49023L 64.3096 8.58887C 64.8428 7.73926 65.5986 7.31445 66.5771 7.31445C 66.8936 7.31445 67.1338 7.35547 67.2979 7.4375L 67.2979 8.94922ZM 79.1367 17C 79.043 16.8125 78.9668 16.4785 78.9082 15.998C 78.1523 16.7832 77.25 17.1758 76.2012 17.1758C 75.2637 17.1758 74.4932 16.9121 73.8896 16.3848C 73.292 15.8516 72.9932 15.1777 72.9932 14.3633C 72.9932 13.373 73.3682 12.6055 74.1182 12.0605C 74.874 11.5098 75.9346 11.2344 77.2998 11.2344L 78.8818 11.2344L 78.8818 10.4873C 78.8818 9.91895 78.7119 9.46777 78.3721 9.13379C 78.0322 8.79395 77.5312 8.62402 76.8691 8.62402C 76.2891 8.62402 75.8027 8.77051 75.4102 9.06348C 75.0176 9.35645 74.8213 9.71094 74.8213 10.127L 73.1865 10.127C 73.1865 9.65234 73.3535 9.19531 73.6875 8.75586C 74.0273 8.31055 74.4844 7.95898 75.0586 7.70117C 75.6387 7.44336 76.2744 7.31445 76.9658 7.31445C 78.0615 7.31445 78.9199 7.58984 79.541 8.14062C 80.1621 8.68555 80.4844 9.43848 80.5078 10.3994L 80.5078 14.7764C 80.5078 15.6494 80.6191 16.3438 80.8418 16.8594L 80.8418 17L 79.1367 17ZM 76.4385 15.7607C 76.9482 15.7607 77.4316 15.6289 77.8887 15.3652C 78.3457 15.1016 78.6768 14.7588 78.8818 14.3369L 78.8818 12.3857L 77.6074 12.3857C 75.6152 12.3857 74.6191 12.9688 74.6191 14.1348C 74.6191 14.6445 74.7891 15.043 75.1289 15.3301C 75.4688 15.6172 75.9053 15.7607 76.4385 15.7607ZM 95.5723 12.3506C 95.5723 13.8037 95.2383 14.9727 94.5703 15.8574C 93.9023 16.7363 93.0059 17.1758 91.8809 17.1758C 90.6797 17.1758 89.751 16.751 89.0947 15.9014L 89.0156 17L 87.5215 17L 87.5215 3.5L 89.1475 3.5L 89.1475 8.53613C 89.8037 7.72168 90.709 7.31445 91.8633 7.31445C 93.0176 7.31445 93.9229 7.75098 94.5791 8.62402C 95.2412 9.49707 95.5723 10.6924 95.5723 12.21L 95.5723 12.3506ZM 93.9463 12.166C 93.9463 11.0586 93.7324 10.2031 93.3047 9.59961C 92.877 8.99609 92.2617 8.69434 91.459 8.69434C 90.3867 8.69434 89.6162 9.19238 89.1475 10.1885L 89.1475 14.3018C 89.6455 15.2979 90.4219 15.7959 91.4766 15.7959C 92.2559 15.7959 92.8623 15.4941 93.2959 14.8906C 93.7295 14.2871 93.9463 13.3789 93.9463 12.166ZM 101.575 17.1758C 100.286 17.1758 99.2373 16.7539 98.4287 15.9102C 97.6201 15.0605 97.2158 13.9268 97.2158 12.5088L 97.2158 12.21C 97.2158 11.2666 97.3945 10.4258 97.752 9.6875C 98.1152 8.94336 98.6191 8.36328 99.2637 7.94727C 99.9141 7.52539 100.617 7.31445 101.373 7.31445C 102.609 7.31445 103.57 7.72168 104.256 8.53613C 104.941 9.35059 105.284 10.5166 105.284 12.0342L 105.284 12.7109L 98.8418 12.7109C 98.8652 13.6484 99.1377 14.4072 99.6592 14.9873C 100.187 15.5615 100.854 15.8486 101.663 15.8486C 102.237 15.8486 102.724 15.7314 103.122 15.4971C 103.521 15.2627 103.869 14.9521 104.168 14.5654L 105.161 15.3389C 104.364 16.5635 103.169 17.1758 101.575 17.1758ZM 101.373 8.65039C 100.717 8.65039 100.166 8.89062 99.7207 9.37109C 99.2754 9.8457 99 10.5137 98.8945 11.375L 103.658 11.375L 103.658 11.252C 103.611 10.4258 103.389 9.78711 102.99 9.33594C 102.592 8.87891 102.053 8.65039 101.373 8.65039ZM 109.38 5.1875L 109.38 7.49023L 111.155 7.49023L 111.155 8.74707L 109.38 8.74707L 109.38 14.6445C 109.38 15.0254 109.459 15.3125 109.617 15.5059C 109.775 15.6934 110.045 15.7871 110.426 15.7871C 110.613 15.7871 110.871 15.752 111.199 15.6816L 111.199 17C 110.771 17.1172 110.355 17.1758 109.951 17.1758C 109.225 17.1758 108.677 16.9561 108.308 16.5166C 107.938 16.0771 107.754 15.4531 107.754 14.6445L 107.754 8.74707L 106.022 8.74707L 106.022 7.49023L 107.754 7.49023L 107.754 5.1875L 109.38 5.1875ZM 115.269 5.1875L 115.269 7.49023L 117.044 7.49023L 117.044 8.74707L 115.269 8.74707L 115.269 14.6445C 115.269 15.0254 115.348 15.3125 115.506 15.5059C 115.664 15.6934 115.934 15.7871 116.314 15.7871C 116.502 15.7871 116.76 15.752 117.088 15.6816L 117.088 17C 116.66 17.1172 116.244 17.1758 115.84 17.1758C 115.113 17.1758 114.565 16.9561 114.196 16.5166C 113.827 16.0771 113.643 15.4531 113.643 14.6445L 113.643 8.74707L 111.911 8.74707L 111.911 7.49023L 113.643 7.49023L 113.643 5.1875L 115.269 5.1875ZM 122.897 17.1758C 121.608 17.1758 120.56 16.7539 119.751 15.9102C 118.942 15.0605 118.538 13.9268 118.538 12.5088L 118.538 12.21C 118.538 11.2666 118.717 10.4258 119.074 9.6875C 119.438 8.94336 119.941 8.36328 120.586 7.94727C 121.236 7.52539 121.939 7.31445 122.695 7.31445C 123.932 7.31445 124.893 7.72168 125.578 8.53613C 126.264 9.35059 126.606 10.5166 126.606 12.0342L 126.606 12.7109L 120.164 12.7109C 120.188 13.6484 120.46 14.4072 120.981 14.9873C 121.509 15.5615 122.177 15.8486 122.985 15.8486C 123.56 15.8486 124.046 15.7314 124.444 15.4971C 124.843 15.2627 125.191 14.9521 125.49 14.5654L 126.483 15.3389C 125.687 16.5635 124.491 17.1758 122.897 17.1758ZM 122.695 8.65039C 122.039 8.65039 121.488 8.89062 121.043 9.37109C 120.598 9.8457 120.322 10.5137 120.217 11.375L 124.98 11.375L 124.98 11.252C 124.934 10.4258 124.711 9.78711 124.312 9.33594C 123.914 8.87891 123.375 8.65039 122.695 8.65039ZM 133.093 8.94922C 132.847 8.9082 132.58 8.8877 132.293 8.8877C 131.227 8.8877 130.503 9.3418 130.122 10.25L 130.122 17L 128.496 17L 128.496 7.49023L 130.078 7.49023L 130.104 8.58887C 130.638 7.73926 131.394 7.31445 132.372 7.31445C 132.688 7.31445 132.929 7.35547 133.093 7.4375L 133.093 8.94922ZM 143.007 17.1758C 141.718 17.1758 140.669 16.7539 139.86 15.9102C 139.052 15.0605 138.647 13.9268 138.647 12.5088L 138.647 12.21C 138.647 11.2666 138.826 10.4258 139.184 9.6875C 139.547 8.94336 140.051 8.36328 140.695 7.94727C 141.346 7.52539 142.049 7.31445 142.805 7.31445C 144.041 7.31445 145.002 7.72168 145.688 8.53613C 146.373 9.35059 146.716 10.5166 146.716 12.0342L 146.716 12.7109L 140.273 12.7109C 140.297 13.6484 140.569 14.4072 141.091 14.9873C 141.618 15.5615 142.286 15.8486 143.095 15.8486C 143.669 15.8486 144.155 15.7314 144.554 15.4971C 144.952 15.2627 145.301 14.9521 145.6 14.5654L 146.593 15.3389C 145.796 16.5635 144.601 17.1758 143.007 17.1758ZM 142.805 8.65039C 142.148 8.65039 141.598 8.89062 141.152 9.37109C 140.707 9.8457 140.432 10.5137 140.326 11.375L 145.09 11.375L 145.09 11.252C 145.043 10.4258 144.82 9.78711 144.422 9.33594C 144.023 8.87891 143.484 8.65039 142.805 8.65039ZM 151.796 10.9619L 153.905 7.49023L 155.804 7.49023L 152.692 12.1924L 155.9 17L 154.02 17L 151.822 13.4404L 149.625 17L 147.735 17L 150.943 12.1924L 147.832 7.49023L 149.713 7.49023L 151.796 10.9619ZM 165.568 12.3506C 165.568 13.7979 165.237 14.9639 164.575 15.8486C 163.913 16.7334 163.017 17.1758 161.886 17.1758C 160.731 17.1758 159.823 16.8096 159.161 16.0771L 159.161 20.6562L 157.535 20.6562L 157.535 7.49023L 159.021 7.49023L 159.1 8.54492C 159.762 7.72461 160.682 7.31445 161.859 7.31445C 163.002 7.31445 163.904 7.74512 164.566 8.60645C 165.234 9.46777 165.568 10.666 165.568 12.2012L 165.568 12.3506ZM 163.942 12.166C 163.942 11.0938 163.714 10.2471 163.257 9.62598C 162.8 9.00488 162.173 8.69434 161.376 8.69434C 160.392 8.69434 159.653 9.13086 159.161 10.0039L 159.161 14.5479C 159.647 15.415 160.392 15.8486 161.394 15.8486C 162.173 15.8486 162.791 15.541 163.248 14.9258C 163.711 14.3047 163.942 13.3848 163.942 12.166ZM 171.589 17.1758C 170.3 17.1758 169.251 16.7539 168.442 15.9102C 167.634 15.0605 167.229 13.9268 167.229 12.5088L 167.229 12.21C 167.229 11.2666 167.408 10.4258 167.766 9.6875C 168.129 8.94336 168.633 8.36328 169.277 7.94727C 169.928 7.52539 170.631 7.31445 171.387 7.31445C 172.623 7.31445 173.584 7.72168 174.27 8.53613C 174.955 9.35059 175.298 10.5166 175.298 12.0342L 175.298 12.7109L 168.855 12.7109C 168.879 13.6484 169.151 14.4072 169.673 14.9873C 170.2 15.5615 170.868 15.8486 171.677 15.8486C 172.251 15.8486 172.737 15.7314 173.136 15.4971C 173.534 15.2627 173.883 14.9521 174.182 14.5654L 175.175 15.3389C 174.378 16.5635 173.183 17.1758 171.589 17.1758ZM 171.387 8.65039C 170.73 8.65039 170.18 8.89062 169.734 9.37109C 169.289 9.8457 169.014 10.5137 168.908 11.375L 173.672 11.375L 173.672 11.252C 173.625 10.4258 173.402 9.78711 173.004 9.33594C 172.605 8.87891 172.066 8.65039 171.387 8.65039ZM 181.784 8.94922C 181.538 8.9082 181.271 8.8877 180.984 8.8877C 179.918 8.8877 179.194 9.3418 178.813 10.25L 178.813 17L 177.188 17L 177.188 7.49023L 178.77 7.49023L 178.796 8.58887C 179.329 7.73926 180.085 7.31445 181.063 7.31445C 181.38 7.31445 181.62 7.35547 181.784 7.4375L 181.784 8.94922ZM 185.054 17L 183.428 17L 183.428 7.49023L 185.054 7.49023L 185.054 17ZM 183.296 4.96777C 183.296 4.7041 183.375 4.48145 183.533 4.2998C 183.697 4.11816 183.938 4.02734 184.254 4.02734C 184.57 4.02734 184.811 4.11816 184.975 4.2998C 185.139 4.48145 185.221 4.7041 185.221 4.96777C 185.221 5.23145 185.139 5.45117 184.975 5.62695C 184.811 5.80273 184.57 5.89062 184.254 5.89062C 183.938 5.89062 183.697 5.80273 183.533 5.62695C 183.375 5.45117 183.296 5.23145 183.296 4.96777ZM 191.61 17.1758C 190.321 17.1758 189.272 16.7539 188.464 15.9102C 187.655 15.0605 187.251 13.9268 187.251 12.5088L 187.251 12.21C 187.251 11.2666 187.43 10.4258 187.787 9.6875C 188.15 8.94336 188.654 8.36328 189.299 7.94727C 189.949 7.52539 190.652 7.31445 191.408 7.31445C 192.645 7.31445 193.605 7.72168 194.291 8.53613C 194.977 9.35059 195.319 10.5166 195.319 12.0342L 195.319 12.7109L 188.877 12.7109C 188.9 13.6484 189.173 14.4072 189.694 14.9873C 190.222 15.5615 190.89 15.8486 191.698 15.8486C 192.272 15.8486 192.759 15.7314 193.157 15.4971C 193.556 15.2627 193.904 14.9521 194.203 14.5654L 195.196 15.3389C 194.399 16.5635 193.204 17.1758 191.61 17.1758ZM 191.408 8.65039C 190.752 8.65039 190.201 8.89062 189.756 9.37109C 189.311 9.8457 189.035 10.5137 188.93 11.375L 193.693 11.375L 193.693 11.252C 193.646 10.4258 193.424 9.78711 193.025 9.33594C 192.627 8.87891 192.088 8.65039 191.408 8.65039ZM 198.747 7.49023L 198.8 8.68555C 199.526 7.77148 200.476 7.31445 201.647 7.31445C 203.657 7.31445 204.671 8.44824 204.688 10.7158L 204.688 17L 203.062 17L 203.062 10.707C 203.057 10.0215 202.898 9.51465 202.588 9.18652C 202.283 8.8584 201.806 8.69434 201.155 8.69434C 200.628 8.69434 200.165 8.83496 199.767 9.11621C 199.368 9.39746 199.058 9.7666 198.835 10.2236L 198.835 17L 197.209 17L 197.209 7.49023L 198.747 7.49023ZM 210.955 15.8486C 211.535 15.8486 212.042 15.6729 212.476 15.3213C 212.909 14.9697 213.149 14.5303 213.196 14.0029L 214.734 14.0029C 214.705 14.5479 214.518 15.0664 214.172 15.5586C 213.826 16.0508 213.363 16.4434 212.783 16.7363C 212.209 17.0293 211.6 17.1758 210.955 17.1758C 209.66 17.1758 208.629 16.7451 207.861 15.8838C 207.1 15.0166 206.719 13.833 206.719 12.333L 206.719 12.0605C 206.719 11.1348 206.889 10.3115 207.229 9.59082C 207.568 8.87012 208.055 8.31055 208.688 7.91211C 209.326 7.51367 210.079 7.31445 210.946 7.31445C 212.013 7.31445 212.897 7.63379 213.601 8.27246C 214.31 8.91113 214.688 9.74023 214.734 10.7598L 213.196 10.7598C 213.149 10.1445 212.915 9.64062 212.493 9.24805C 212.077 8.84961 211.562 8.65039 210.946 8.65039C 210.12 8.65039 209.479 8.94922 209.021 9.54688C 208.57 10.1387 208.345 10.9971 208.345 12.1221L 208.345 12.4297C 208.345 13.5254 208.57 14.3691 209.021 14.9609C 209.473 15.5527 210.117 15.8486 210.955 15.8486ZM 220.509 17.1758C 219.22 17.1758 218.171 16.7539 217.362 15.9102C 216.554 15.0605 216.149 13.9268 216.149 12.5088L 216.149 12.21C 216.149 11.2666 216.328 10.4258 216.686 9.6875C 217.049 8.94336 217.553 8.36328 218.197 7.94727C 218.848 7.52539 219.551 7.31445 220.307 7.31445C 221.543 7.31445 222.504 7.72168 223.189 8.53613C 223.875 9.35059 224.218 10.5166 224.218 12.0342L 224.218 12.7109L 217.775 12.7109C 217.799 13.6484 218.071 14.4072 218.593 14.9873C 219.12 15.5615 219.788 15.8486 220.597 15.8486C 221.171 15.8486 221.657 15.7314 222.056 15.4971C 222.454 15.2627 222.803 14.9521 223.102 14.5654L 224.095 15.3389C 223.298 16.5635 222.103 17.1758 220.509 17.1758ZM 220.307 8.65039C 219.65 8.65039 219.1 8.89062 218.654 9.37109C 218.209 9.8457 217.934 10.5137 217.828 11.375L 222.592 11.375L 222.592 11.252C 222.545 10.4258 222.322 9.78711 221.924 9.33594C 221.525 8.87891 220.986 8.65039 220.307 8.65039Z"/><path id="path10_fill" d="M 4.60156 15.3203L 4.60156 22L 2.35156 22L 2.35156 4.9375L 8.64453 4.9375C 10.5117 4.9375 11.9727 5.41406 13.0273 6.36719C 14.0898 7.32031 14.6211 8.58203 14.6211 10.1523C 14.6211 11.8086 14.1016 13.0859 13.0625 13.9844C 12.0312 14.875 10.5508 15.3203 8.62109 15.3203L 4.60156 15.3203ZM 4.60156 13.4805L 8.64453 13.4805C 9.84766 13.4805 10.7695 13.1992 11.4102 12.6367C 12.0508 12.0664 12.3711 11.2461 12.3711 10.1758C 12.3711 9.16016 12.0508 8.34766 11.4102 7.73828C 10.7695 7.12891 9.89062 6.8125 8.77344 6.78906L 4.60156 6.78906L 4.60156 13.4805ZM 23.2812 11.2656C 22.9531 11.2109 22.5977 11.1836 22.2148 11.1836C 20.793 11.1836 19.8281 11.7891 19.3203 13L 19.3203 22L 17.1523 22L 17.1523 9.32031L 19.2617 9.32031L 19.2969 10.7852C 20.0078 9.65234 21.0156 9.08594 22.3203 9.08594C 22.7422 9.08594 23.0625 9.14062 23.2812 9.25L 23.2812 11.2656ZM 30.3125 22.2344C 28.5938 22.2344 27.1953 21.6719 26.1172 20.5469C 25.0391 19.4141 24.5 17.9023 24.5 16.0117L 24.5 15.6133C 24.5 14.3555 24.7383 13.2344 25.2148 12.25C 25.6992 11.2578 26.3711 10.4844 27.2305 9.92969C 28.0977 9.36719 29.0352 9.08594 30.043 9.08594C 31.6914 9.08594 32.9727 9.62891 33.8867 10.7148C 34.8008 11.8008 35.2578 13.3555 35.2578 15.3789L 35.2578 16.2812L 26.668 16.2812C 26.6992 17.5312 27.0625 18.543 27.7578 19.3164C 28.4609 20.082 29.3516 20.4648 30.4297 20.4648C 31.1953 20.4648 31.8438 20.3086 32.375 19.9961C 32.9062 19.6836 33.3711 19.2695 33.7695 18.7539L 35.0938 19.7852C 34.0312 21.418 32.4375 22.2344 30.3125 22.2344ZM 30.043 10.8672C 29.168 10.8672 28.4336 11.1875 27.8398 11.8281C 27.2461 12.4609 26.8789 13.3516 26.7383 14.5L 33.0898 14.5L 33.0898 14.3359C 33.0273 13.2344 32.7305 12.3828 32.1992 11.7812C 31.668 11.1719 30.9492 10.8672 30.043 10.8672ZM 45.1602 18.6367C 45.1602 18.0508 44.9375 17.5977 44.4922 17.2773C 44.0547 16.9492 43.2852 16.668 42.1836 16.4336C 41.0898 16.1992 40.2188 15.918 39.5703 15.5898C 38.9297 15.2617 38.4531 14.8711 38.1406 14.418C 37.8359 13.9648 37.6836 13.4258 37.6836 12.8008C 37.6836 11.7617 38.1211 10.8828 38.9961 10.1641C 39.8789 9.44531 41.0039 9.08594 42.3711 9.08594C 43.8086 9.08594 44.9727 9.45703 45.8633 10.1992C 46.7617 10.9414 47.2109 11.8906 47.2109 13.0469L 45.0312 13.0469C 45.0312 12.4531 44.7773 11.9414 44.2695 11.5117C 43.7695 11.082 43.1367 10.8672 42.3711 10.8672C 41.582 10.8672 40.9648 11.0391 40.5195 11.3828C 40.0742 11.7266 39.8516 12.1758 39.8516 12.7305C 39.8516 13.2539 40.0586 13.6484 40.4727 13.9141C 40.8867 14.1797 41.6328 14.4336 42.7109 14.6758C 43.7969 14.918 44.6758 15.207 45.3477 15.543C 46.0195 15.8789 46.5156 16.2852 46.8359 16.7617C 47.1641 17.2305 47.3281 17.8047 47.3281 18.4844C 47.3281 19.6172 46.875 20.5273 45.9688 21.2148C 45.0625 21.8945 43.8867 22.2344 42.4414 22.2344C 41.4258 22.2344 40.5273 22.0547 39.7461 21.6953C 38.9648 21.3359 38.3516 20.8359 37.9062 20.1953C 37.4688 19.5469 37.25 18.8477 37.25 18.0977L 39.418 18.0977C 39.457 18.8242 39.7461 19.4023 40.2852 19.832C 40.832 20.2539 41.5508 20.4648 42.4414 20.4648C 43.2617 20.4648 43.918 20.3008 44.4102 19.9727C 44.9102 19.6367 45.1602 19.1914 45.1602 18.6367ZM 55.4141 22.2344C 53.6953 22.2344 52.2969 21.6719 51.2188 20.5469C 50.1406 19.4141 49.6016 17.9023 49.6016 16.0117L 49.6016 15.6133C 49.6016 14.3555 49.8398 13.2344 50.3164 12.25C 50.8008 11.2578 51.4727 10.4844 52.332 9.92969C 53.1992 9.36719 54.1367 9.08594 55.1445 9.08594C 56.793 9.08594 58.0742 9.62891 58.9883 10.7148C 59.9023 11.8008 60.3594 13.3555 60.3594 15.3789L 60.3594 16.2812L 51.7695 16.2812C 51.8008 17.5312 52.1641 18.543 52.8594 19.3164C 53.5625 20.082 54.4531 20.4648 55.5312 20.4648C 56.2969 20.4648 56.9453 20.3086 57.4766 19.9961C 58.0078 19.6836 58.4727 19.2695 58.8711 18.7539L 60.1953 19.7852C 59.1328 21.418 57.5391 22.2344 55.4141 22.2344ZM 55.1445 10.8672C 54.2695 10.8672 53.5352 11.1875 52.9414 11.8281C 52.3477 12.4609 51.9805 13.3516 51.8398 14.5L 58.1914 14.5L 58.1914 14.3359C 58.1289 13.2344 57.832 12.3828 57.3008 11.7812C 56.7695 11.1719 56.0508 10.8672 55.1445 10.8672ZM 64.9297 9.32031L 65 10.9141C 65.9688 9.69531 67.2344 9.08594 68.7969 9.08594C 71.4766 9.08594 72.8281 10.5977 72.8516 13.6211L 72.8516 22L 70.6836 22L 70.6836 13.6094C 70.6758 12.6953 70.4648 12.0195 70.0508 11.582C 69.6445 11.1445 69.0078 10.9258 68.1406 10.9258C 67.4375 10.9258 66.8203 11.1133 66.2891 11.4883C 65.7578 11.8633 65.3438 12.3555 65.0469 12.9648L 65.0469 22L 62.8789 22L 62.8789 9.32031L 64.9297 9.32031ZM 79.0625 6.25L 79.0625 9.32031L 81.4297 9.32031L 81.4297 10.9961L 79.0625 10.9961L 79.0625 18.8594C 79.0625 19.3672 79.168 19.75 79.3789 20.0078C 79.5898 20.2578 79.9492 20.3828 80.457 20.3828C 80.707 20.3828 81.0508 20.3359 81.4883 20.2422L 81.4883 22C 80.918 22.1562 80.3633 22.2344 79.8242 22.2344C 78.8555 22.2344 78.125 21.9414 77.6328 21.3555C 77.1406 20.7695 76.8945 19.9375 76.8945 18.8594L 76.8945 10.9961L 74.5859 10.9961L 74.5859 9.32031L 76.8945 9.32031L 76.8945 6.25L 79.0625 6.25ZM 91.8008 22C 91.6758 21.75 91.5742 21.3047 91.4961 20.6641C 90.4883 21.7109 89.2852 22.2344 87.8867 22.2344C 86.6367 22.2344 85.6094 21.8828 84.8047 21.1797C 84.0078 20.4688 83.6094 19.5703 83.6094 18.4844C 83.6094 17.1641 84.1094 16.1406 85.1094 15.4141C 86.1172 14.6797 87.5312 14.3125 89.3516 14.3125L 91.4609 14.3125L 91.4609 13.3164C 91.4609 12.5586 91.2344 11.957 90.7812 11.5117C 90.3281 11.0586 89.6602 10.832 88.7773 10.832C 88.0039 10.832 87.3555 11.0273 86.832 11.418C 86.3086 11.8086 86.0469 12.2812 86.0469 12.8359L 83.8672 12.8359C 83.8672 12.2031 84.0898 11.5938 84.5352 11.0078C 84.9883 10.4141 85.5977 9.94531 86.3633 9.60156C 87.1367 9.25781 87.9844 9.08594 88.9062 9.08594C 90.3672 9.08594 91.5117 9.45312 92.3398 10.1875C 93.168 10.9141 93.5977 11.918 93.6289 13.1992L 93.6289 19.0352C 93.6289 20.1992 93.7773 21.125 94.0742 21.8125L 94.0742 22L 91.8008 22ZM 88.2031 20.3477C 88.8828 20.3477 89.5273 20.1719 90.1367 19.8203C 90.7461 19.4688 91.1875 19.0117 91.4609 18.4492L 91.4609 15.8477L 89.7617 15.8477C 87.1055 15.8477 85.7773 16.625 85.7773 18.1797C 85.7773 18.8594 86.0039 19.3906 86.457 19.7734C 86.9102 20.1562 87.4922 20.3477 88.2031 20.3477ZM 99.9688 6.25L 99.9688 9.32031L 102.336 9.32031L 102.336 10.9961L 99.9688 10.9961L 99.9688 18.8594C 99.9688 19.3672 100.074 19.75 100.285 20.0078C 100.496 20.2578 100.855 20.3828 101.363 20.3828C 101.613 20.3828 101.957 20.3359 102.395 20.2422L 102.395 22C 101.824 22.1562 101.27 22.2344 100.73 22.2344C 99.7617 22.2344 99.0312 21.9414 98.5391 21.3555C 98.0469 20.7695 97.8008 19.9375 97.8008 18.8594L 97.8008 10.9961L 95.4922 10.9961L 95.4922 9.32031L 97.8008 9.32031L 97.8008 6.25L 99.9688 6.25ZM 107.234 22L 105.066 22L 105.066 9.32031L 107.234 9.32031L 107.234 22ZM 104.891 5.95703C 104.891 5.60547 104.996 5.30859 105.207 5.06641C 105.426 4.82422 105.746 4.70312 106.168 4.70312C 106.59 4.70312 106.91 4.82422 107.129 5.06641C 107.348 5.30859 107.457 5.60547 107.457 5.95703C 107.457 6.30859 107.348 6.60156 107.129 6.83594C 106.91 7.07031 106.59 7.1875 106.168 7.1875C 105.746 7.1875 105.426 7.07031 105.207 6.83594C 104.996 6.60156 104.891 6.30859 104.891 5.95703ZM 110.141 15.543C 110.141 14.3008 110.383 13.1836 110.867 12.1914C 111.359 11.1992 112.039 10.4336 112.906 9.89453C 113.781 9.35547 114.777 9.08594 115.895 9.08594C 117.621 9.08594 119.016 9.68359 120.078 10.8789C 121.148 12.0742 121.684 13.6641 121.684 15.6484L 121.684 15.8008C 121.684 17.0352 121.445 18.1445 120.969 19.1289C 120.5 20.1055 119.824 20.8672 118.941 21.4141C 118.066 21.9609 117.059 22.2344 115.918 22.2344C 114.199 22.2344 112.805 21.6367 111.734 20.4414C 110.672 19.2461 110.141 17.6641 110.141 15.6953L 110.141 15.543ZM 112.32 15.8008C 112.32 17.207 112.645 18.3359 113.293 19.1875C 113.949 20.0391 114.824 20.4648 115.918 20.4648C 117.02 20.4648 117.895 20.0352 118.543 19.1758C 119.191 18.3086 119.516 17.0977 119.516 15.543C 119.516 14.1523 119.184 13.0273 118.52 12.168C 117.863 11.3008 116.988 10.8672 115.895 10.8672C 114.824 10.8672 113.961 11.293 113.305 12.1445C 112.648 12.9961 112.32 14.2148 112.32 15.8008ZM 126.453 9.32031L 126.523 10.9141C 127.492 9.69531 128.758 9.08594 130.32 9.08594C 133 9.08594 134.352 10.5977 134.375 13.6211L 134.375 22L 132.207 22L 132.207 13.6094C 132.199 12.6953 131.988 12.0195 131.574 11.582C 131.168 11.1445 130.531 10.9258 129.664 10.9258C 128.961 10.9258 128.344 11.1133 127.812 11.4883C 127.281 11.8633 126.867 12.3555 126.57 12.9648L 126.57 22L 124.402 22L 124.402 9.32031L 126.453 9.32031ZM 150.98 18.6367C 150.98 18.0508 150.758 17.5977 150.312 17.2773C 149.875 16.9492 149.105 16.668 148.004 16.4336C 146.91 16.1992 146.039 15.918 145.391 15.5898C 144.75 15.2617 144.273 14.8711 143.961 14.418C 143.656 13.9648 143.504 13.4258 143.504 12.8008C 143.504 11.7617 143.941 10.8828 144.816 10.1641C 145.699 9.44531 146.824 9.08594 148.191 9.08594C 149.629 9.08594 150.793 9.45703 151.684 10.1992C 152.582 10.9414 153.031 11.8906 153.031 13.0469L 150.852 13.0469C 150.852 12.4531 150.598 11.9414 150.09 11.5117C 149.59 11.082 148.957 10.8672 148.191 10.8672C 147.402 10.8672 146.785 11.0391 146.34 11.3828C 145.895 11.7266 145.672 12.1758 145.672 12.7305C 145.672 13.2539 145.879 13.6484 146.293 13.9141C 146.707 14.1797 147.453 14.4336 148.531 14.6758C 149.617 14.918 150.496 15.207 151.168 15.543C 151.84 15.8789 152.336 16.2852 152.656 16.7617C 152.984 17.2305 153.148 17.8047 153.148 18.4844C 153.148 19.6172 152.695 20.5273 151.789 21.2148C 150.883 21.8945 149.707 22.2344 148.262 22.2344C 147.246 22.2344 146.348 22.0547 145.566 21.6953C 144.785 21.3359 144.172 20.8359 143.727 20.1953C 143.289 19.5469 143.07 18.8477 143.07 18.0977L 145.238 18.0977C 145.277 18.8242 145.566 19.4023 146.105 19.832C 146.652 20.2539 147.371 20.4648 148.262 20.4648C 149.082 20.4648 149.738 20.3008 150.23 19.9727C 150.73 19.6367 150.98 19.1914 150.98 18.6367ZM 158.914 6.25L 158.914 9.32031L 161.281 9.32031L 161.281 10.9961L 158.914 10.9961L 158.914 18.8594C 158.914 19.3672 159.02 19.75 159.23 20.0078C 159.441 20.2578 159.801 20.3828 160.309 20.3828C 160.559 20.3828 160.902 20.3359 161.34 20.2422L 161.34 22C 160.77 22.1562 160.215 22.2344 159.676 22.2344C 158.707 22.2344 157.977 21.9414 157.484 21.3555C 156.992 20.7695 156.746 19.9375 156.746 18.8594L 156.746 10.9961L 154.438 10.9961L 154.438 9.32031L 156.746 9.32031L 156.746 6.25L 158.914 6.25ZM 171.652 22C 171.527 21.75 171.426 21.3047 171.348 20.6641C 170.34 21.7109 169.137 22.2344 167.738 22.2344C 166.488 22.2344 165.461 21.8828 164.656 21.1797C 163.859 20.4688 163.461 19.5703 163.461 18.4844C 163.461 17.1641 163.961 16.1406 164.961 15.4141C 165.969 14.6797 167.383 14.3125 169.203 14.3125L 171.312 14.3125L 171.312 13.3164C 171.312 12.5586 171.086 11.957 170.633 11.5117C 170.18 11.0586 169.512 10.832 168.629 10.832C 167.855 10.832 167.207 11.0273 166.684 11.418C 166.16 11.8086 165.898 12.2812 165.898 12.8359L 163.719 12.8359C 163.719 12.2031 163.941 11.5938 164.387 11.0078C 164.84 10.4141 165.449 9.94531 166.215 9.60156C 166.988 9.25781 167.836 9.08594 168.758 9.08594C 170.219 9.08594 171.363 9.45312 172.191 10.1875C 173.02 10.9141 173.449 11.918 173.48 13.1992L 173.48 19.0352C 173.48 20.1992 173.629 21.125 173.926 21.8125L 173.926 22L 171.652 22ZM 168.055 20.3477C 168.734 20.3477 169.379 20.1719 169.988 19.8203C 170.598 19.4688 171.039 19.0117 171.312 18.4492L 171.312 15.8477L 169.613 15.8477C 166.957 15.8477 165.629 16.625 165.629 18.1797C 165.629 18.8594 165.855 19.3906 166.309 19.7734C 166.762 20.1562 167.344 20.3477 168.055 20.3477ZM 183.008 11.2656C 182.68 11.2109 182.324 11.1836 181.941 11.1836C 180.52 11.1836 179.555 11.7891 179.047 13L 179.047 22L 176.879 22L 176.879 9.32031L 178.988 9.32031L 179.023 10.7852C 179.734 9.65234 180.742 9.08594 182.047 9.08594C 182.469 9.08594 182.789 9.14062 183.008 9.25L 183.008 11.2656ZM 188.539 6.25L 188.539 9.32031L 190.906 9.32031L 190.906 10.9961L 188.539 10.9961L 188.539 18.8594C 188.539 19.3672 188.645 19.75 188.855 20.0078C 189.066 20.2578 189.426 20.3828 189.934 20.3828C 190.184 20.3828 190.527 20.3359 190.965 20.2422L 190.965 22C 190.395 22.1562 189.84 22.2344 189.301 22.2344C 188.332 22.2344 187.602 21.9414 187.109 21.3555C 186.617 20.7695 186.371 19.9375 186.371 18.8594L 186.371 10.9961L 184.062 10.9961L 184.062 9.32031L 186.371 9.32031L 186.371 6.25L 188.539 6.25ZM 200.832 18.6367C 200.832 18.0508 200.609 17.5977 200.164 17.2773C 199.727 16.9492 198.957 16.668 197.855 16.4336C 196.762 16.1992 195.891 15.918 195.242 15.5898C 194.602 15.2617 194.125 14.8711 193.812 14.418C 193.508 13.9648 193.355 13.4258 193.355 12.8008C 193.355 11.7617 193.793 10.8828 194.668 10.1641C 195.551 9.44531 196.676 9.08594 198.043 9.08594C 199.48 9.08594 200.645 9.45703 201.535 10.1992C 202.434 10.9414 202.883 11.8906 202.883 13.0469L 200.703 13.0469C 200.703 12.4531 200.449 11.9414 199.941 11.5117C 199.441 11.082 198.809 10.8672 198.043 10.8672C 197.254 10.8672 196.637 11.0391 196.191 11.3828C 195.746 11.7266 195.523 12.1758 195.523 12.7305C 195.523 13.2539 195.73 13.6484 196.145 13.9141C 196.559 14.1797 197.305 14.4336 198.383 14.6758C 199.469 14.918 200.348 15.207 201.02 15.543C 201.691 15.8789 202.188 16.2852 202.508 16.7617C 202.836 17.2305 203 17.8047 203 18.4844C 203 19.6172 202.547 20.5273 201.641 21.2148C 200.734 21.8945 199.559 22.2344 198.113 22.2344C 197.098 22.2344 196.199 22.0547 195.418 21.6953C 194.637 21.3359 194.023 20.8359 193.578 20.1953C 193.141 19.5469 192.922 18.8477 192.922 18.0977L 195.09 18.0977C 195.129 18.8242 195.418 19.4023 195.957 19.832C 196.504 20.2539 197.223 20.4648 198.113 20.4648C 198.934 20.4648 199.59 20.3008 200.082 19.9727C 200.582 19.6367 200.832 19.1914 200.832 18.6367ZM 214.133 22L 211.965 22L 211.965 9.32031L 214.133 9.32031L 214.133 22ZM 211.789 5.95703C 211.789 5.60547 211.895 5.30859 212.105 5.06641C 212.324 4.82422 212.645 4.70312 213.066 4.70312C 213.488 4.70312 213.809 4.82422 214.027 5.06641C 214.246 5.30859 214.355 5.60547 214.355 5.95703C 214.355 6.30859 214.246 6.60156 214.027 6.83594C 213.809 7.07031 213.488 7.1875 213.066 7.1875C 212.645 7.1875 212.324 7.07031 212.105 6.83594C 211.895 6.60156 211.789 6.30859 211.789 5.95703ZM 219.664 9.32031L 219.734 10.9141C 220.703 9.69531 221.969 9.08594 223.531 9.08594C 226.211 9.08594 227.562 10.5977 227.586 13.6211L 227.586 22L 225.418 22L 225.418 13.6094C 225.41 12.6953 225.199 12.0195 224.785 11.582C 224.379 11.1445 223.742 10.9258 222.875 10.9258C 222.172 10.9258 221.555 11.1133 221.023 11.4883C 220.492 11.8633 220.078 12.3555 219.781 12.9648L 219.781 22L 217.613 22L 217.613 9.32031L 219.664 9.32031ZM 247.449 9.47266C 247.449 10.3008 247.242 11.0352 246.828 11.6758C 246.414 12.3164 245.844 12.8281 245.117 13.2109C 245.945 13.6094 246.602 14.1602 247.086 14.8633C 247.57 15.5586 247.812 16.3789 247.812 17.3242C 247.812 18.8398 247.297 20.0391 246.266 20.9219C 245.234 21.7969 243.832 22.2344 242.059 22.2344C 240.285 22.2344 238.879 21.793 237.84 20.9102C 236.801 20.0273 236.281 18.832 236.281 17.3242C 236.281 16.3789 236.523 15.5547 237.008 14.8516C 237.492 14.1484 238.145 13.6016 238.965 13.2109C 238.238 12.8281 237.668 12.3164 237.254 11.6758C 236.848 11.0352 236.645 10.3008 236.645 9.47266C 236.645 8.01953 237.129 6.86328 238.098 6.00391C 239.066 5.13672 240.383 4.70312 242.047 4.70312C 243.703 4.70312 245.016 5.13281 245.984 5.99219C 246.961 6.84375 247.449 8.00391 247.449 9.47266ZM 244.414 17.0781C 244.414 16.3359 244.199 15.7422 243.77 15.2969C 243.34 14.8516 242.762 14.6289 242.035 14.6289C 241.316 14.6289 240.742 14.8516 240.312 15.2969C 239.883 15.7344 239.668 16.3281 239.668 17.0781C 239.668 17.8047 239.879 18.3906 240.301 18.8359C 240.723 19.2812 241.309 19.5039 242.059 19.5039C 242.793 19.5039 243.367 19.2891 243.781 18.8594C 244.203 18.4297 244.414 17.8359 244.414 17.0781ZM 244.062 9.63672C 244.062 8.97266 243.887 8.44141 243.535 8.04297C 243.184 7.63672 242.688 7.43359 242.047 7.43359C 241.414 7.43359 240.922 7.62891 240.57 8.01953C 240.219 8.41016 240.043 8.94922 240.043 9.63672C 240.043 10.3164 240.219 10.8633 240.57 11.2773C 240.922 11.6914 241.418 11.8984 242.059 11.8984C 242.699 11.8984 243.191 11.6914 243.535 11.2773C 243.887 10.8633 244.062 10.3164 244.062 9.63672ZM 263.094 18.4961C 263.094 18.082 262.887 17.7578 262.473 17.5234C 262.066 17.2812 261.41 17.0664 260.504 16.8789C 257.488 16.2461 255.98 14.9648 255.98 13.0352C 255.98 11.9102 256.445 10.9727 257.375 10.2227C 258.312 9.46484 259.535 9.08594 261.043 9.08594C 262.652 9.08594 263.938 9.46484 264.898 10.2227C 265.867 10.9805 266.352 11.9648 266.352 13.1758L 262.965 13.1758C 262.965 12.6914 262.809 12.293 262.496 11.9805C 262.184 11.6602 261.695 11.5 261.031 11.5C 260.461 11.5 260.02 11.6289 259.707 11.8867C 259.395 12.1445 259.238 12.4727 259.238 12.8711C 259.238 13.2461 259.414 13.5508 259.766 13.7852C 260.125 14.0117 260.727 14.2109 261.57 14.3828C 262.414 14.5469 263.125 14.7344 263.703 14.9453C 265.492 15.6016 266.387 16.7383 266.387 18.3555C 266.387 19.5117 265.891 20.4492 264.898 21.168C 263.906 21.8789 262.625 22.2344 261.055 22.2344C 259.992 22.2344 259.047 22.0469 258.219 21.6719C 257.398 21.2891 256.754 20.7695 256.285 20.1133C 255.816 19.4492 255.582 18.7344 255.582 17.9688L 258.793 17.9688C 258.824 18.5703 259.047 19.0312 259.461 19.3516C 259.875 19.6719 260.43 19.832 261.125 19.832C 261.773 19.832 262.262 19.7109 262.59 19.4688C 262.926 19.2188 263.094 18.8945 263.094 18.4961ZM 274.414 22.2344C 272.555 22.2344 271.039 21.6641 269.867 20.5234C 268.703 19.3828 268.121 17.8633 268.121 15.9648L 268.121 15.6367C 268.121 14.3633 268.367 13.2266 268.859 12.2266C 269.352 11.2188 270.047 10.4453 270.945 9.90625C 271.852 9.35938 272.883 9.08594 274.039 9.08594C 275.773 9.08594 277.137 9.63281 278.129 10.7266C 279.129 11.8203 279.629 13.3711 279.629 15.3789L 279.629 16.7617L 271.555 16.7617C 271.664 17.5898 271.992 18.2539 272.539 18.7539C 273.094 19.2539 273.793 19.5039 274.637 19.5039C 275.941 19.5039 276.961 19.0312 277.695 18.0859L 279.359 19.9492C 278.852 20.668 278.164 21.2305 277.297 21.6367C 276.43 22.0352 275.469 22.2344 274.414 22.2344ZM 274.027 11.8281C 273.355 11.8281 272.809 12.0547 272.387 12.5078C 271.973 12.9609 271.707 13.6094 271.59 14.4531L 276.301 14.4531L 276.301 14.1836C 276.285 13.4336 276.082 12.8555 275.691 12.4492C 275.301 12.0352 274.746 11.8281 274.027 11.8281ZM 286.836 19.5039C 287.461 19.5039 287.969 19.332 288.359 18.9883C 288.75 18.6445 288.953 18.1875 288.969 17.6172L 292.145 17.6172C 292.137 18.4766 291.902 19.2656 291.441 19.9844C 290.98 20.6953 290.348 21.25 289.543 21.6484C 288.746 22.0391 287.863 22.2344 286.895 22.2344C 285.082 22.2344 283.652 21.6602 282.605 20.5117C 281.559 19.3555 281.035 17.7617 281.035 15.7305L 281.035 15.5078C 281.035 13.5547 281.555 11.9961 282.594 10.832C 283.633 9.66797 285.059 9.08594 286.871 9.08594C 288.457 9.08594 289.727 9.53906 290.68 10.4453C 291.641 11.3438 292.129 12.543 292.145 14.043L 288.969 14.043C 288.953 13.3867 288.75 12.8555 288.359 12.4492C 287.969 12.0352 287.453 11.8281 286.812 11.8281C 286.023 11.8281 285.426 12.1172 285.02 12.6953C 284.621 13.2656 284.422 14.1953 284.422 15.4844L 284.422 15.8359C 284.422 17.1406 284.621 18.0781 285.02 18.6484C 285.418 19.2188 286.023 19.5039 286.836 19.5039ZM 293.551 15.543C 293.551 14.2852 293.793 13.1641 294.277 12.1797C 294.762 11.1953 295.457 10.4336 296.363 9.89453C 297.277 9.35547 298.336 9.08594 299.539 9.08594C 301.25 9.08594 302.645 9.60938 303.723 10.6562C 304.809 11.7031 305.414 13.125 305.539 14.9219L 305.562 15.7891C 305.562 17.7344 305.02 19.2969 303.934 20.4766C 302.848 21.6484 301.391 22.2344 299.562 22.2344C 297.734 22.2344 296.273 21.6484 295.18 20.4766C 294.094 19.3047 293.551 17.7109 293.551 15.6953L 293.551 15.543ZM 296.938 15.7891C 296.938 16.9922 297.164 17.9141 297.617 18.5547C 298.07 19.1875 298.719 19.5039 299.562 19.5039C 300.383 19.5039 301.023 19.1914 301.484 18.5664C 301.945 17.9336 302.176 16.9258 302.176 15.543C 302.176 14.3633 301.945 13.4492 301.484 12.8008C 301.023 12.1523 300.375 11.8281 299.539 11.8281C 298.711 11.8281 298.07 12.1523 297.617 12.8008C 297.164 13.4414 296.938 14.4375 296.938 15.7891ZM 310.766 9.32031L 310.871 10.7852C 311.777 9.65234 312.992 9.08594 314.516 9.08594C 315.859 9.08594 316.859 9.48047 317.516 10.2695C 318.172 11.0586 318.508 12.2383 318.523 13.8086L 318.523 22L 315.137 22L 315.137 13.8906C 315.137 13.1719 314.98 12.6523 314.668 12.332C 314.355 12.0039 313.836 11.8398 313.109 11.8398C 312.156 11.8398 311.441 12.2461 310.965 13.0586L 310.965 22L 307.578 22L 307.578 9.32031L 310.766 9.32031ZM 320.574 15.5664C 320.574 13.5898 321.016 12.0156 321.898 10.8438C 322.789 9.67188 324.004 9.08594 325.543 9.08594C 326.777 9.08594 327.797 9.54688 328.602 10.4688L 328.602 4L 332 4L 332 22L 328.941 22L 328.777 20.6523C 327.934 21.707 326.848 22.2344 325.52 22.2344C 324.027 22.2344 322.828 21.6484 321.922 20.4766C 321.023 19.2969 320.574 17.6602 320.574 15.5664ZM 323.961 15.8125C 323.961 17 324.168 17.9102 324.582 18.543C 324.996 19.1758 325.598 19.4922 326.387 19.4922C 327.434 19.4922 328.172 19.0508 328.602 18.168L 328.602 13.1641C 328.18 12.2812 327.449 11.8398 326.41 11.8398C 324.777 11.8398 323.961 13.1641 323.961 15.8125ZM 341.492 18.4961C 341.492 18.082 341.285 17.7578 340.871 17.5234C 340.465 17.2812 339.809 17.0664 338.902 16.8789C 335.887 16.2461 334.379 14.9648 334.379 13.0352C 334.379 11.9102 334.844 10.9727 335.773 10.2227C 336.711 9.46484 337.934 9.08594 339.441 9.08594C 341.051 9.08594 342.336 9.46484 343.297 10.2227C 344.266 10.9805 344.75 11.9648 344.75 13.1758L 341.363 13.1758C 341.363 12.6914 341.207 12.293 340.895 11.9805C 340.582 11.6602 340.094 11.5 339.43 11.5C 338.859 11.5 338.418 11.6289 338.105 11.8867C 337.793 12.1445 337.637 12.4727 337.637 12.8711C 337.637 13.2461 337.812 13.5508 338.164 13.7852C 338.523 14.0117 339.125 14.2109 339.969 14.3828C 340.812 14.5469 341.523 14.7344 342.102 14.9453C 343.891 15.6016 344.785 16.7383 344.785 18.3555C 344.785 19.5117 344.289 20.4492 343.297 21.168C 342.305 21.8789 341.023 22.2344 339.453 22.2344C 338.391 22.2344 337.445 22.0469 336.617 21.6719C 335.797 21.2891 335.152 20.7695 334.684 20.1133C 334.215 19.4492 333.98 18.7344 333.98 17.9688L 337.191 17.9688C 337.223 18.5703 337.445 19.0312 337.859 19.3516C 338.273 19.6719 338.828 19.832 339.523 19.832C 340.172 19.832 340.66 19.7109 340.988 19.4688C 341.324 19.2188 341.492 18.8945 341.492 18.4961ZM 347.152 20.3359C 347.152 19.7969 347.332 19.3594 347.691 19.0234C 348.059 18.6875 348.516 18.5195 349.062 18.5195C 349.617 18.5195 350.074 18.6875 350.434 19.0234C 350.801 19.3594 350.984 19.7969 350.984 20.3359C 350.984 20.8672 350.805 21.3008 350.445 21.6367C 350.086 21.9648 349.625 22.1289 349.062 22.1289C 348.508 22.1289 348.051 21.9648 347.691 21.6367C 347.332 21.3008 347.152 20.8672 347.152 20.3359ZM 354.137 20.3359C 354.137 19.7969 354.316 19.3594 354.676 19.0234C 355.043 18.6875 355.5 18.5195 356.047 18.5195C 356.602 18.5195 357.059 18.6875 357.418 19.0234C 357.785 19.3594 357.969 19.7969 357.969 20.3359C 357.969 20.8672 357.789 21.3008 357.43 21.6367C 357.07 21.9648 356.609 22.1289 356.047 22.1289C 355.492 22.1289 355.035 21.9648 354.676 21.6367C 354.316 21.3008 354.137 20.8672 354.137 20.3359ZM 361.121 20.3359C 361.121 19.7969 361.301 19.3594 361.66 19.0234C 362.027 18.6875 362.484 18.5195 363.031 18.5195C 363.586 18.5195 364.043 18.6875 364.402 19.0234C 364.77 19.3594 364.953 19.7969 364.953 20.3359C 364.953 20.8672 364.773 21.3008 364.414 21.6367C 364.055 21.9648 363.594 22.1289 363.031 22.1289C 362.477 22.1289 362.02 21.9648 361.66 21.6367C 361.301 21.3008 361.121 20.8672 361.121 20.3359Z"/></defs></svg>