<svg width="208" height="114" viewBox="0 0 208 114" version="1.1" xmlns="http://www.w3.org/2000/svg" xmlns:xlink="http://www.w3.org/1999/xlink">
<title>fullscreen_button</title>
<desc>Created using Figma</desc>
<g id="Canvas" transform="translate(-400 -573)">
<g id="fullscreen_button">
<g id="Full Screen">
<use xlink:href="#path0_fill" transform="translate(416 592.459)" fill="#128FDC"/>
</g>
<g id="full size">
<g id="Rectangle 8">
<mask id="mask0_outline_ins">
<use xlink:href="#path1_fill" fill="white" transform="translate(487 628.459)"/>
</mask>
<g mask="url(#mask0_outline_ins)">
<use xlink:href="#path2_stroke_2x" transform="translate(487 628.459)" fill="#009FE3"/>
</g>
</g>
<g id="Path 17">
<use xlink:href="#path3_stroke" transform="translate(520 624.459)" fill="#009FE3"/>
</g>
<g id="Path 17 Copy 2">
<use xlink:href="#path3_stroke" transform="matrix(1 0 0 -1 520 657.459)" fill="#009FE3"/>
</g>
<g id="Path 17 Copy">
<use xlink:href="#path4_stroke" transform="matrix(-1 0 0 1 490 624.459)" fill="#009FE3"/>
</g>
<g id="Path 17 Copy 3">
<use xlink:href="#path4_stroke" transform="matrix(-1 0 0 -1 490 657.459)" fill="#009FE3"/>
</g>
</g>
<g id="Rectangle 9">
<mask id="mask1_outline_ins">
<use xlink:href="#path5_fill" fill="white" transform="translate(400 573.459)"/>
</mask>
<g mask="url(#mask1_outline_ins)">
<use xlink:href="#path6_stroke_2x" transform="translate(400 573.459)" fill="#007CBB"/>
</g>
</g>
</g>
</g>
<defs>
<path id="path0_fill" d="M 47.2672 9.97656L 42.4938 9.97656L 42.4938 15L 40.9938 15L 40.9938 3.625L 48.0407 3.625L 48.0407 4.85938L 42.4938 4.85938L 42.4938 8.75L 47.2672 8.75L 47.2672 9.97656ZM 57.8454 3.625L 57.8454 11.3594C 57.8402 12.4323 57.5016 13.3099 56.8297 13.9922C 56.1631 14.6745 55.2568 15.0573 54.111 15.1406L 53.7126 15.1562C 52.4678 15.1562 51.4756 14.8203 50.736 14.1484C 49.9964 13.4766 49.6214 12.5521 49.611 11.375L 49.611 3.625L 51.0954 3.625L 51.0954 11.3281C 51.0954 12.151 51.3219 12.7917 51.7751 13.25C 52.2282 13.7031 52.874 13.9297 53.7126 13.9297C 54.5615 13.9297 55.21 13.7031 55.6579 13.25C 56.111 12.7969 56.3376 12.1589 56.3376 11.3359L 56.3376 3.625L 57.8454 3.625ZM 61.7204 13.7734L 67.111 13.7734L 67.111 15L 60.2126 15L 60.2126 3.625L 61.7204 3.625L 61.7204 13.7734ZM 70.3297 13.7734L 75.7204 13.7734L 75.7204 15L 68.8219 15L 68.8219 3.625L 70.3297 3.625L 70.3297 13.7734ZM 84.7516 9.92969C 83.4652 9.5599 82.5277 9.10677 81.9391 8.57031C 81.3558 8.02865 81.0641 7.36198 81.0641 6.57031C 81.0641 5.67448 81.4209 4.9349 82.1344 4.35156C 82.8532 3.76302 83.7855 3.46875 84.9313 3.46875C 85.7126 3.46875 86.4079 3.61979 87.0172 3.92188C 87.6318 4.22396 88.1058 4.64062 88.4391 5.17188C 88.7777 5.70312 88.9469 6.28385 88.9469 6.91406L 87.4391 6.91406C 87.4391 6.22656 87.2204 5.6875 86.7829 5.29688C 86.3454 4.90104 85.7282 4.70312 84.9313 4.70312C 84.1917 4.70312 83.6136 4.86719 83.1969 5.19531C 82.7855 5.51823 82.5797 5.96875 82.5797 6.54688C 82.5797 7.01042 82.7751 7.40365 83.1657 7.72656C 83.5615 8.04427 84.2308 8.33594 85.1735 8.60156C 86.1214 8.86719 86.861 9.16146 87.3922 9.48438C 87.9287 9.80208 88.3245 10.1745 88.5797 10.6016C 88.8402 11.0286 88.9704 11.5312 88.9704 12.1094C 88.9704 13.0312 88.611 13.7708 87.8922 14.3281C 87.1735 14.8802 86.2126 15.1562 85.0094 15.1562C 84.2282 15.1562 83.499 15.0078 82.8219 14.7109C 82.1448 14.4089 81.6214 13.9974 81.2516 13.4766C 80.887 12.9557 80.7047 12.3646 80.7047 11.7031L 82.2126 11.7031C 82.2126 12.3906 82.4652 12.9349 82.9704 13.3359C 83.4808 13.7318 84.1605 13.9297 85.0094 13.9297C 85.8011 13.9297 86.4079 13.7682 86.8297 13.4453C 87.2516 13.1224 87.4626 12.6823 87.4626 12.125C 87.4626 11.5677 87.2672 11.138 86.8766 10.8359C 86.486 10.5286 85.7777 10.2266 84.7516 9.92969ZM 99.2672 11.3906C 99.1266 12.5938 98.6813 13.5234 97.9313 14.1797C 97.1865 14.8307 96.1943 15.1562 94.9547 15.1562C 93.611 15.1562 92.5329 14.6745 91.7204 13.7109C 90.9131 12.7474 90.5094 11.4583 90.5094 9.84375L 90.5094 8.75C 90.5094 7.69271 90.6969 6.76302 91.0719 5.96094C 91.4521 5.15885 91.9886 4.54427 92.6813 4.11719C 93.374 3.6849 94.1761 3.46875 95.0876 3.46875C 96.2959 3.46875 97.2646 3.80729 97.9938 4.48438C 98.723 5.15625 99.1475 6.08854 99.2672 7.28125L 97.7594 7.28125C 97.6292 6.375 97.3454 5.71875 96.9079 5.3125C 96.4756 4.90625 95.8688 4.70312 95.0876 4.70312C 94.1292 4.70312 93.3766 5.05729 92.8297 5.76562C 92.2881 6.47396 92.0172 7.48177 92.0172 8.78906L 92.0172 9.89062C 92.0172 11.125 92.2751 12.1068 92.7907 12.8359C 93.3063 13.5651 94.0277 13.9297 94.9547 13.9297C 95.7881 13.9297 96.4261 13.7422 96.8688 13.3672C 97.3167 12.987 97.6136 12.3281 97.7594 11.3906L 99.2672 11.3906ZM 105.494 10.3984L 102.822 10.3984L 102.822 15L 101.314 15L 101.314 3.625L 105.08 3.625C 106.361 3.625 107.345 3.91667 108.033 4.5C 108.726 5.08333 109.072 5.93229 109.072 7.04688C 109.072 7.75521 108.879 8.3724 108.494 8.89844C 108.114 9.42448 107.582 9.81771 106.9 10.0781L 109.572 14.9062L 109.572 15L 107.963 15L 105.494 10.3984ZM 102.822 9.17188L 105.127 9.17188C 105.871 9.17188 106.463 8.97917 106.9 8.59375C 107.343 8.20833 107.564 7.69271 107.564 7.04688C 107.564 6.34375 107.353 5.80469 106.931 5.42969C 106.515 5.05469 105.91 4.86458 105.119 4.85938L 102.822 4.85938L 102.822 9.17188ZM 117.611 9.74219L 112.681 9.74219L 112.681 13.7734L 118.408 13.7734L 118.408 15L 111.181 15L 111.181 3.625L 118.33 3.625L 118.33 4.85938L 112.681 4.85938L 112.681 8.51562L 117.611 8.51562L 117.611 9.74219ZM 126.705 9.74219L 121.775 9.74219L 121.775 13.7734L 127.502 13.7734L 127.502 15L 120.275 15L 120.275 3.625L 127.423 3.625L 127.423 4.85938L 121.775 4.85938L 121.775 8.51562L 126.705 8.51562L 126.705 9.74219ZM 138.111 15L 136.603 15L 130.877 6.23438L 130.877 15L 129.369 15L 129.369 3.625L 130.877 3.625L 136.619 12.4297L 136.619 3.625L 138.111 3.625L 138.111 15Z"/>
<path id="path1_fill" fill-rule="evenodd" d="M 0 0L 37 0L 37 25L 0 25L 0 0Z"/>
<path id="path2_stroke_2x" d="M 0 0L 0 -2C -1.10457 -2 -2 -1.10457 -2 4.44089e-16L 0 0ZM 37 0L 39 0C 39 -1.10457 38.1046 -2 37 -2L 37 0ZM 37 25L 37 27C 38.1046 27 39 26.1046 39 25L 37 25ZM 0 25L -2 25C -2 26.1046 -1.10457 27 4.44089e-16 27L 0 25ZM 0 2L 37 2L 37 -2L 0 -2L 0 2ZM 35 0L 35 25L 39 25L 39 0L 35 0ZM 37 23L 0 23L 0 27L 37 27L 37 23ZM 2 25L 2 0L -2 0L -2 25L 2 25Z"/>
<path id="path3_stroke" d="M 0 -1C -0.552285 -1 -1 -0.552285 -1 0C -1 0.552285 -0.552285 1 0 1L 0 -1ZM 8 0L 9 0C 9 -0.552285 8.55228 -1 8 -1L 8 0ZM 7 6C 7 6.55228 7.44772 7 8 7C 8.55228 7 9 6.55228 9 6L 7 6ZM 0 1L 8 1L 8 -1L 0 -1L 0 1ZM 7 0L 7 6L 9 6L 9 0L 7 0Z"/>
<path id="path4_stroke" d="M 0 -1C -0.552285 -1 -1 -0.552285 -1 0C -1 0.552285 -0.552285 1 0 1L 0 -1ZM 7 0L 8 0C 8 -0.552285 7.55228 -1 7 -1L 7 0ZM 6 6C 6 6.55228 6.44772 7 7 7C 7.55228 7 8 6.55228 8 6L 6 6ZM 0 1L 7 1L 7 -1L 0 -1L 0 1ZM 6 0L 6 6L 8 6L 8 0L 6 0Z"/>
<path id="path5_fill" fill-rule="evenodd" d="M 0 10C 0 4.47715 4.47715 0 10 0L 198 0C 203.523 0 208 4.47715 208 10L 208 103C 208 108.523 203.523 113 198 113L 10 113C 4.47715 113 0 108.523 0 103L 0 10Z"/>
<path id="path6_stroke_2x" d="M 10 1L 198 1L 198 -1L 10 -1L 10 1ZM 207 10L 207 103L 209 103L 209 10L 207 10ZM 198 112L 10 112L 10 114L 198 114L 198 112ZM 1 103L 1 10L -1 10L -1 103L 1 103ZM 10 112C 5.02944 112 1 107.971 1 103L -1 103C -1 109.075 3.92487 114 10 114L 10 112ZM 207 103C 207 107.971 202.971 112 198 112L 198 114C 204.075 114 209 109.075 209 103L 207 103ZM 198 1C 202.971 1 207 5.02944 207 10L 209 10C 209 3.92487 204.075 -1 198 -1L 198 1ZM 10 -1C 3.92487 -1 -1 3.92487 -1 10L 1 10C 1 5.02944 5.02944 1 10 1L 10 -1Z"/>
</defs>
</svg>
