<svg version="1.1" id="logo-loading" xmlns="http://www.w3.org/2000/svg" xmlns:xlink="http://www.w3.org/1999/xlink" viewBox="0 0 330 95" xml:space="preserve">
    <style type="text/css">
    #middle-slice {
        -webkit-animation: rotationY 4s infinite cubic-bezier(.9, .22, .39, .83) alternate-reverse;
        -o-animation: rotationY 4s infinite cubic-bezier(.9, .22, .39, .83) alternate-reverse;
        animation: rotationY 4s infinite cubic-bezier(.9, .22, .39, .83) alternate-reverse;
        transform-origin: 46px 47px 0;
        -webkit-transform-origin: 46px 47px 0;
    }

    #bottom-slice {
        -webkit-animation: rotationY 4s infinite cubic-bezier(.9, .22, .39, .83) alternate;
        -o-animation: rotationY 4s infinite cubic-bezier(.9, .22, .39, .83) alternate;
        animation: rotationY 4s infinite cubic-bezier(.9, .22, .39, .83) alternate;
        transform-origin: 46px 47px 0;
        -webkit-transform-origin: 46px 47px 0;
    }

    .st0 {
        fill-rule: evenodd;
        clip-rule: evenodd;
        fill: #005B94;
    }

    .st1 {
        fill-rule: evenodd;
        clip-rule: evenodd;
        fill: #009FE3;
    }

    .st2 {
        fill: #009FE3;
    }

    .st3 {
        fill: #005B94;
    }

    @keyframes rotationY {
        33% {
            -webkit-transform: rotateY(360deg);
            transform: rotateY(360deg);
        }
        66% {
            -webkit-transform: rotateX(360deg);
            transform: rotateX(360deg);
        }
    }

    @keyframes changeColor {
        50% {
            fill: #009FE3;
        }
    }
    </style>
    <g id="bottom-slice">
        <path class="st0" d="M87.4,37.2 L87.4,60.6 C87.4,75.7 75.1,88 60,88 L27.8,88 C12.6,88 0.3,75.7 0.3,60.6 L0.3,37.2 L19.5,37.2 L19.5,60.6 C19.5,67.7 25.3,73.5 32.4,73.5 L55.3,73.5 C62.4,73.5 68.2,67.7 68.2,60.6 L68.2,37.2 L87.4,37.2 L87.4,37.2 Z"></path>
        <path class="st1" d="M68.3,1.2c9.3,3,16.5,10.8,18.6,20.5H68.3L68.3,1.2L68.3,1.2z M27.8-0.1h26.1v14.5H32.4c-5.1,0-9.5,3-11.6,7.3
                H0.9C3.5,9.3,14.6-0.1,27.8-0.1L27.8-0.1z" />
    </g>
    <path id="middle-slice" class="st0" d="M37.6,29.9 L50.2,29.9 C52.2,29.9 53.9,31.5 53.9,33.6 L53.9,55.3 C53.9,57.3 52.3,59 50.2,59 C46,59 41.8,59 37.6,59 C35.6,59 33.9,57.4 33.9,55.3 C33.9,48.1 33.9,40.8 33.9,33.6 C33.9,31.6 35.6,29.9 37.6,29.9 L37.6,29.9 Z"></path>
    <path class="st2" d="M276.4,43.3V29h8.5v14.4c0,6.8,1.1,7.5,6.4,7.5h5.4v7h-6.4C280.9,57.9,276.4,54.5,276.4,43.3L276.4,43.3z
         M256.5,46.5c0.4,4,1.9,4.4,6.3,4.4h8.6v7h-9.6c-9.3,0-13.9-3.4-13.9-14.7c0-11.3,4.5-14.3,13.9-14.3h9.6v7h-8.6
        c-4.1,0-5.7,0.3-6.2,3.7h11.8v6.8H256.5L256.5,46.5z M216.3,29v28.9h13.1c9.3,0,13.9-3.4,13.9-14.7c0-11.3-4.5-14.3-13.9-14.3H216.3
        L216.3,29z M234.9,43.4c0,6.8-1.1,7.5-6.4,7.5h-4.1V36h4.1C233.7,36,234.9,36.5,234.9,43.4L234.9,43.4z M314.6,28.3
        c9.3,0,14.4,3.1,14.4,14.8c0,11.9-5,15.4-14.4,15.4c-9.4,0-14.4-3.5-14.4-15.4C300.2,31.4,305.2,28.3,314.6,28.3L314.6,28.3z
         M314.6,51.2c5.3,0,5.9-0.7,5.9-8.1c0-6.9-0.6-7.5-5.9-7.5c-5.4,0-5.9,0.6-5.9,7.5C308.6,50.5,309.2,51.2,314.6,51.2L314.6,51.2z" />
    <path class="st3" d="M166.5,46.5c0.4,4,1.9,4.4,6.3,4.4h8.6v7h-9.6c-9.3,0-13.9-3.4-13.9-14.7c0-11.3,4.5-14.3,13.9-14.3h9.6v7h-8.6
        c-4.1,0-5.7,0.3-6.2,3.7h11.8v6.8H166.5L166.5,46.5z M130,57.9c-9.3,0-13.9-3.4-13.9-14.7V29h8.5l0,14.4c0,6.7,1.1,7.5,6.2,7.5V29
        h7.9v21.9c5.2,0,6.3-0.8,6.3-7.5l0-14.4h8.5v14.3c0,11.3-4.5,14.7-13.9,14.7C136.5,57.9,133.3,57.9,130,57.9L130,57.9z M194.3,35.7
        h6.8c0.7,0,1.2,0.4,1.2,2.1c0,1.8-0.5,2-1.2,2h-6.8V35.7L194.3,35.7z M194.3,51.1v-4.9h6.8c1,0,1.7,0.5,1.7,2.5
        c0,1.9-0.6,2.4-1.5,2.4H194.3L194.3,51.1z M204.6,42.8c5.2-0.4,6.3-2.7,6.3-6.8c0-4.9-1.5-7-7.3-7h-17.2v28.9h17.2
        c4.7,0,7.8-1.8,7.8-7.7C211.3,45.5,210.1,43.1,204.6,42.8L204.6,42.8z" />
    <path class="st3" d="M224.7,68.7c-0.8-0.3-2.2-0.5-3.6-0.5c-3.4,0-4.8,1.1-4.8,3.8c0,2,1,2.7,3.2,3c2,0.2,2.2,0.4,2.2,0.9
        c0,0.5-0.2,0.7-1.7,0.7c-1.2,0-2.3-0.2-3-0.3l-0.6,2.5c0.9,0.3,2.2,0.5,3.6,0.5c3.5,0,4.8-0.8,4.8-3.6c0-2-1.1-3-3.5-3.3
        c-1.8-0.2-2-0.3-2-0.9c0-0.4,0.2-0.7,1.7-0.7c1.3,0,2.3,0.2,3,0.3L224.7,68.7L224.7,68.7z M236.3,79.1V71h3.5v-2.6h-9.9V71h3.5v8.1
        H236.3L236.3,79.1z M251.7,68.5h2.9v7.9c0,2.3-1.9,3-4.6,3c-2.8,0-4.6-0.6-4.6-3v-7.9h2.9v7.2c0,0.6,0.4,0.9,1.7,0.9
        c1.3,0,1.7-0.3,1.7-0.9V68.5L251.7,68.5z M260.8,68.5v10.6h4.8c3.4,0,5.1-1.2,5.1-5.4c0-4.1-1.7-5.2-5.1-5.2H260.8L260.8,68.5z
         M267.6,73.8c0,2.5-0.4,2.8-2.4,2.8h-1.5V71h1.5C267.2,71,267.6,71.2,267.6,73.8L267.6,73.8z M279.4,68.5v10.6h-2.9V68.5H279.4
        L279.4,68.5z M291.4,68.2c3.4,0,5.3,1.1,5.3,5.4c0,4.4-1.8,5.7-5.3,5.7c-3.4,0-5.3-1.3-5.3-5.7C286.1,69.3,287.9,68.2,291.4,68.2
        L291.4,68.2z M291.4,76.6c2,0,2.2-0.3,2.2-3c0-2.5-0.2-2.8-2.2-2.8c-2,0-2.2,0.2-2.2,2.8C289.2,76.4,289.4,76.6,291.4,76.6
        L291.4,76.6z" />
</svg>