<svg xmlns="http://www.w3.org/2000/svg" xmlns:xlink="http://www.w3.org/1999/xlink" width="35" height="46"><defs><clipPath id="clip_0"><rect width="1396.8" height="860.39" x="-1139.725" y="-705.47" clip-rule="evenodd"/></clipPath></defs><g clip-path="url(#clip_0)"><path fill="#FFF" fill-rule="evenodd" stroke="none" d="M28.0541 2.83973C32.238 5.74617 34.99 10.6038 34.99 16.1C34.99 20.263 33.4006 24.0503 30.8175 26.9115L33.0004 29.1111L32.4625 29.6531C29.0569 33.0847 24.5785 35.0489 19.7821 35.2398L19.7821 42.1667L27.3906 42.1667L27.3906 46L10.6519 46L10.6519 42.1667L18.2604 42.1667L18.2604 35.2406C13.4572 35.0535 8.97271 33.0886 5.56334 29.6531C1.97593 26.0383 0 21.2259 0 16.1C0 10.9741 1.97593 6.1617 5.56182 2.5461L6.09974 2.00407L8.28262 4.20363C8.73761 3.78733 9.21314 3.39557 9.71302 3.03293L9.71378 3.0015L10.0409 2.77687C10.4564 2.49243 10.8855 2.23713 11.3215 1.99487C11.3975 1.95347 11.4744 1.91437 11.5505 1.87373C11.9066 1.6836 12.2687 1.50727 12.637 1.3455C12.729 1.30487 12.8196 1.26423 12.9124 1.22513C13.8064 0.851767 14.7308 0.5612 15.6781 0.358033C15.7945 0.332733 15.9132 0.313567 16.0311 0.291333C16.3963 0.222333 16.7646 0.164833 17.1359 0.121133C17.2728 0.105033 17.4083 0.0881667 17.546 0.0751333C18.0314 0.0306667 18.5199 0 19.0121 0C19.4976 0 19.9799 0.0299 20.46 0.0736C20.6038 0.0866333 20.7461 0.104267 20.8892 0.121133C21.246 0.1633 21.5998 0.2185 21.9513 0.284433C22.0814 0.308967 22.213 0.3289 22.3424 0.3565C22.7852 0.451567 23.2234 0.565033 23.6556 0.697667C23.7918 0.739833 23.9242 0.790433 24.0596 0.835667C24.3662 0.939167 24.6713 1.05033 24.9719 1.173C25.1355 1.2397 25.2975 1.30793 25.4581 1.38C25.7502 1.51033 26.0378 1.65217 26.3224 1.80013C26.4502 1.86683 26.5811 1.92817 26.7066 1.99793C27.0642 2.1965 27.4165 2.4081 27.7604 2.63503L27.9339 2.75003C27.9369 2.75157 27.9392 2.75387 27.9422 2.7554L28.0526 2.82823L28.0541 2.83973ZM13.3035 2.72243C12.5746 3.03907 11.8807 3.42163 11.2195 3.8502C11.2149 3.98973 11.2089 4.13157 11.2012 4.27877C11.3618 4.66363 11.5231 5.03317 11.6928 5.42263C12.5746 7.44817 13.782 10.2227 15.4179 10.8545C15.8462 11.0201 16.2776 11.0837 16.7357 11.1504C17.0963 11.2033 17.4638 11.257 17.8427 11.3605L17.6647 11.1044C17.6464 11.076 17.6304 11.0477 17.616 11.0193C17.4988 10.9802 17.3839 10.9273 17.2728 10.8598C16.6938 10.5095 16.3393 9.8509 16.3697 9.18237C16.4313 7.82997 17.196 7.74333 18.2559 7.6245L18.3692 7.61147C19.2396 7.22967 19.9533 7.21817 20.4935 7.57543C20.5932 7.64137 20.6845 7.71803 20.7659 7.8039C20.8207 7.66437 20.8952 7.53173 20.9873 7.4106C22.5288 5.39273 23.8877 4.3769 26.2554 3.51363C26.193 3.4776 26.1345 3.43697 26.0721 3.4017C25.9442 3.32887 25.8149 3.2591 25.6848 3.19087C25.4124 3.0475 25.1339 2.91257 24.8517 2.78607C24.7581 2.74467 24.6668 2.6979 24.5724 2.65803C24.2148 2.507 23.8473 2.37437 23.476 2.25247C23.349 2.2103 23.2204 2.17197 23.0918 2.13363C22.7624 2.03627 22.4291 1.9481 22.0905 1.87373C22.0183 1.8584 21.9475 1.8377 21.8752 1.82313C21.4712 1.7411 21.0596 1.68053 20.6442 1.633C20.5346 1.61997 20.425 1.61 20.3155 1.60003C19.8856 1.56093 19.4519 1.53333 19.0121 1.53333C18.567 1.53333 18.128 1.56093 17.6936 1.6008C17.5772 1.61153 17.4615 1.62457 17.3459 1.63837C16.9784 1.68053 16.6147 1.73573 16.2556 1.80627C16.1871 1.8193 16.1186 1.8285 16.0509 1.84307C15.6203 1.93353 15.1965 2.0447 14.781 2.17273C14.7149 2.19267 14.6502 2.2172 14.584 2.23867C14.2226 2.35597 13.868 2.48707 13.5196 2.63197C13.448 2.66187 13.375 2.691 13.3035 2.72243ZM6.63842 28.5691C13.2814 35.2613 23.979 35.4399 30.8365 29.0988L29.7409 27.9956C26.9022 30.5977 23.1436 32.2 19.0121 32.2C10.2022 32.2 3.03427 24.9772 3.03427 16.1C3.03427 11.937 4.62445 8.14967 7.20754 5.28847L6.11191 4.18523C3.14612 7.43973 1.5217 11.6418 1.5217 16.1C1.5217 20.8158 3.33937 25.244 6.63842 28.5691ZM9.82791 4.97567C9.81421 4.9473 9.81041 4.91433 9.799 4.8852C6.59886 7.55857 4.55597 11.5935 4.55521 16.1C4.55521 24.1324 11.0399 30.6667 19.0114 30.6667C26.9828 30.6667 33.4675 24.1324 33.4675 16.1C33.4675 11.3428 31.1819 7.1231 27.6699 4.46353C27.5086 4.63143 27.3115 4.76637 27.0825 4.84533C24.7733 5.6442 23.6313 6.46147 22.194 8.3444C22.1742 8.37047 22.1704 8.40573 22.1742 8.418C22.3819 9.13637 22.3142 9.70063 21.9726 10.0955C21.6409 10.4796 21.1296 10.6222 20.4463 10.521L20.3588 10.5072C20.4623 10.731 20.476 10.9879 20.3938 11.2432C20.9888 11.4502 21.3449 11.8174 21.51 12.3901C21.5663 12.5848 21.6599 12.6784 21.7299 12.7021C21.825 12.7297 21.9399 12.6607 22.0008 12.6132C22.9229 11.9178 23.7401 12.315 24.3366 12.6063C24.6668 12.7665 25.0069 12.9329 25.417 12.9858C25.7989 13.0372 26.123 13.1936 26.3574 13.4404C26.8839 13.997 27.2643 14.6495 27.5991 15.2252C28.0016 15.9152 28.3493 16.5125 28.8058 16.7509C30.4321 17.6032 29.5428 19.9543 29.0109 21.3605L29.0105 21.3616C28.9306 21.5732 28.8568 21.7672 28.8012 21.9313L28.7274 22.1498L28.5106 22.3376C27.8091 22.8589 27.4028 23.4447 26.9326 24.1232C26.4883 24.7641 25.9846 25.4917 25.1872 26.1824C24.0421 27.1753 23.0583 27.7763 21.9003 28.1926C21.7261 28.2547 21.5473 28.2846 21.3715 28.2846C20.9211 28.2846 20.4859 28.0876 20.1808 27.7227C19.7593 27.2197 19.6916 26.5251 20.0089 25.9517C21.6424 23.0054 21.3244 22.0961 20.9896 21.817C19.0388 20.1902 18.3274 17.779 19.178 15.676C19.1925 15.6408 19.1308 15.5702 19.0517 15.5281C18.4324 15.1976 18.3441 14.5283 18.2726 13.9909C18.2285 13.6513 18.1813 13.2994 18.0276 13.0724C18.028 13.0742 18.016 13.0666 18.0018 13.0575C17.9909 13.0506 17.9787 13.0429 17.9698 13.0379C17.5193 12.8156 17.0545 12.7481 16.5165 12.6692C16.0212 12.5963 15.459 12.5143 14.8723 12.2874C12.6431 11.4264 11.3435 8.44023 10.2989 6.0398C10.1338 5.66107 9.97779 5.3015 9.82791 4.97567ZM18.1159 9.56953L18.6348 9.26057L19.0875 9.68607C19.1438 9.7451 19.1871 9.80567 19.2199 9.86623C19.4633 9.88233 19.649 9.92757 19.7912 9.98277L19.7981 9.73973C19.8179 9.0183 19.6589 8.8573 19.6573 8.85653C19.6573 8.85653 19.4648 8.78677 18.8942 9.05433L18.7824 9.10647L18.424 9.14787C18.2292 9.16933 18.0314 9.19233 17.8914 9.21457C17.8906 9.22683 17.8899 9.2391 17.8891 9.2529C17.8853 9.33417 17.9264 9.42847 17.9964 9.49823C18.0512 9.55343 18.1006 9.56953 18.1151 9.56953L18.1159 9.56953ZM18.9779 11.8826C18.8645 11.789 18.7451 11.7131 18.6446 11.6633C18.5039 11.5943 18.3654 11.5353 18.2285 11.4854L18.4491 11.4479C18.6013 11.4226 18.7413 11.4072 18.86 11.4003C18.8729 11.5659 18.9117 11.7292 18.9779 11.8826ZM21.9604 20.6356C20.5323 19.4442 19.9936 17.7246 20.5871 16.2549C20.8922 15.5012 20.5841 14.6625 19.8536 14.224C19.8255 14.1212 19.7996 13.925 19.7806 13.7885C19.7289 13.3944 19.6657 12.9199 19.4352 12.4652C19.5599 12.558 19.7015 12.6301 19.8544 12.6776C19.9921 12.7205 20.0286 12.7558 20.0499 12.8179C20.2394 13.4757 20.6769 13.9641 21.2498 14.1565C21.7999 14.3397 22.4071 14.2247 22.9161 13.8376L22.9173 13.8366C23.0669 13.724 23.0942 13.7034 23.6746 13.9855C24.0726 14.1795 24.5679 14.421 25.2564 14.4977C25.6612 14.9262 25.98 15.4721 26.2874 16.0011C26.766 16.8207 27.2598 17.6694 28.1051 18.1117C28.3858 18.2582 28.2123 19.1682 27.5884 20.8142C27.5314 20.966 27.4774 21.1094 27.4302 21.2397C26.6397 21.8676 26.155 22.5668 25.6848 23.2446C25.2542 23.8671 24.8463 24.4544 24.1943 25.0194C23.1869 25.8934 22.3736 26.3933 21.3365 26.6984C22.4093 24.7672 23.6396 22.0363 21.9604 20.6356ZM25.8689 43.7L25.8689 44.4667L12.1736 44.4667L12.1736 43.7L25.8689 43.7Z" transform="matrix(0.97 0 0 0.97 0.0292969 0.689972)"/></g></svg>