<?xml version="1.0" encoding="utf-8" ?>
<svg xmlns="http://www.w3.org/2000/svg" xmlns:xlink="http://www.w3.org/1999/xlink" width="44" height="49">
	<defs>
		<clipPath id="clip_0">
			<rect x="-640" y="-728" width="1440" height="887" clip-rule="evenodd"/>
		</clipPath>
	</defs>
	<g clip-path="url(#clip_0)">
		<path fill="rgb(255,255,255)" stroke="none" transform="translate(9.51563 -3.05176e-05)" d="M1.44049 19.4422C1.44049 22.7947 2.60328 26.1905 4.63074 28.759C6.75901 31.4551 9.53516 32.94 12.4477 32.94C15.3597 32.94 18.1324 31.456 20.2551 28.7614C22.2758 26.1962 23.4347 22.8016 23.4347 19.4481L23.4347 16.4474C25.5843 9.46694 24.7866 3.57297 24.0873 1.94733C24.0862 1.9449 24.0848 1.94256 24.0837 1.94013C24.077 1.92516 24.0697 1.91066 24.0621 1.89615C24.058 1.88829 24.0541 1.88025 24.0498 1.87267C24.0426 1.86004 24.0348 1.84797 24.0269 1.8358C24.0211 1.82682 24.0155 1.81774 24.0093 1.80904C24.0026 1.79959 23.9953 1.7907 23.9883 1.78163C23.9801 1.77124 23.9721 1.76067 23.9635 1.75075C23.9577 1.7442 23.9516 1.73812 23.9457 1.73176C23.9351 1.72034 23.9244 1.70902 23.9132 1.69845C23.9081 1.69367 23.9027 1.68928 23.8974 1.68469C23.8848 1.67356 23.8723 1.66252 23.8591 1.65222C23.8535 1.64792 23.8477 1.64408 23.8419 1.63997C23.8287 1.63033 23.8154 1.62069 23.8016 1.61199C23.7945 1.6075 23.787 1.60357 23.7797 1.59936C23.7669 1.59187 23.7541 1.58429 23.7409 1.57765C23.7317 1.57297 23.7221 1.56904 23.7127 1.56474C23.7009 1.5594 23.6893 1.55388 23.6773 1.54921C23.6665 1.545 23.6554 1.54163 23.6444 1.53798C23.6331 1.53414 23.6219 1.53021 23.6104 1.52694C23.5994 1.52385 23.5883 1.5216 23.5771 1.51908C23.5651 1.51627 23.553 1.51328 23.5407 1.51112C23.5307 1.50935 23.5205 1.50841 23.5103 1.5071C23.4964 1.50523 23.4826 1.50336 23.4685 1.50233C23.4599 1.50177 23.4514 1.50177 23.4427 1.50139C23.4267 1.50083 23.4109 1.50046 23.3949 1.50093C23.3873 1.50111 23.3796 1.50195 23.372 1.50242C23.3552 1.50355 23.3385 1.50486 23.3216 1.5071C23.3191 1.50748 23.3166 1.50738 23.3141 1.50785C21.4793 1.77596 19.258 1.31977 16.9064 0.836781L16.905 0.836506C12.9609 0.0264032 8.88553 -0.808589 5.69904 1.5158C5.6511 1.5057 5.60153 1.50036 5.55067 1.50036C2.28249 1.50036 0 4.2707 0 8.23738C0 11.3038 1.2613 17.0252 1.44049 17.8225L1.44049 19.4422ZM5.7541 2.96749C5.68943 2.98668 5.62128 2.99744 5.55067 2.99744C3.51634 2.99744 1.46354 4.61764 1.46354 8.23738C1.46354 9.81482 1.83784 12.2304 2.20236 14.2085C2.84696 12.0459 3.67523 10.2774 3.73185 10.1575C3.73249 10.1561 3.73331 10.1548 3.73395 10.1534C3.74091 10.1389 3.74877 10.1249 3.75664 10.111C3.76112 10.1031 3.76515 10.0949 3.76981 10.0872C3.77603 10.0772 3.78289 10.0675 3.78957 10.0578C3.79689 10.0471 3.80375 10.036 3.81143 10.0258C3.81262 10.0244 3.8139 10.0231 3.815 10.0216C3.85287 9.97211 3.89623 9.92888 3.94352 9.89155C4.0166 9.83353 4.10112 9.78946 4.19396 9.76299C4.20247 9.76055 4.21089 9.75756 4.21948 9.7555C4.22991 9.75297 4.24071 9.7512 4.25132 9.74914C4.26485 9.74642 4.27839 9.74352 4.29211 9.74156C4.29394 9.74137 4.29559 9.74081 4.29742 9.74062C14.8423 8.35302 21.306 11.921 21.576 12.0735C21.7201 12.1549 21.833 12.2836 21.8968 12.4387L22.5655 14.0663C23.7925 8.90526 23.3658 4.71645 22.9157 3.05526C22.6582 3.07472 22.3975 3.08492 22.1332 3.08492C20.4172 3.08492 18.5595 2.70336 16.6169 2.30429L16.6163 2.30417C12.9138 1.5437 9.08544 0.757367 6.3987 2.84492C6.20762 2.99341 5.96833 3.03028 5.7541 2.96749ZM19.1155 27.8221C17.2762 30.157 14.9082 31.4429 12.4478 31.4429C9.98621 31.4429 7.61445 30.1557 5.76947 27.8185C3.94846 25.5117 2.90403 22.4586 2.90403 19.4423L2.90403 18.5897C2.90403 15.9232 4.38221 12.3225 4.88476 11.1757C9.94093 10.5679 13.9688 11.1751 16.4809 11.8028C18.6843 12.3536 20.1302 13.013 20.6515 13.2719L21.9713 16.4841L21.9713 19.4483C21.9713 22.466 20.9304 25.5183 19.1155 27.8221Z" fill-rule="evenodd"/>
	</g>
	<defs>
		<clipPath id="clip_1">
			<rect x="-640" y="-728" width="1440" height="887" clip-rule="evenodd"/>
		</clipPath>
	</defs>
	<g clip-path="url(#clip_1)">
		<path fill="rgb(255,255,255)" stroke="none" transform="translate(0.00195313 31.4432)" d="M42.5107 7.30246C41.524 5.82404 40.148 4.79769 38.5315 4.33449C38.5157 4.32999 38.4998 4.32606 38.4838 4.3226L32.6457 3.07344L31.0743 0.635861C31.0662 0.623321 31.0577 0.610876 31.0488 0.598804C30.8107 0.273999 30.4483 0.0597078 30.0542 0.0107671C29.6604 -0.03808 29.2582 0.0812305 28.951 0.338286C28.9462 0.342216 28.9416 0.34624 28.937 0.350264L21.9551 6.49836L14.9732 0.350264C14.9685 0.34624 14.9638 0.342216 14.9592 0.338286C14.6521 0.0812305 14.2499 -0.0381736 13.8561 0.0107671C13.4621 0.0596142 13.0996 0.273999 12.8614 0.598804C12.8525 0.610876 12.8441 0.623228 12.8359 0.635861L11.2645 3.07344L5.42636 4.3226C5.41035 4.32606 5.39444 4.32999 5.3787 4.33449C3.76214 4.79779 2.38615 5.82404 1.39949 7.30246C0.49699 8.65465 0 10.2867 0 11.8978L0 13.7547C0 15.2518 1.31314 16.4699 2.92733 16.4699L19.7576 16.4699L19.7603 16.47L19.7633 16.4699L24.1467 16.4699L24.1497 16.47L24.1524 16.4699L40.9827 16.4699C42.5969 16.4699 43.91 15.2518 43.91 13.7547L43.91 11.8978C43.9102 10.2867 43.4132 8.65465 42.5107 7.30246ZM20.8801 7.52733L14.0333 1.49817L12.5995 3.72212L17.6522 10.8292L19.2419 9.2031L19.2425 9.20254L20.8801 7.52733ZM29.877 1.49817L31.3108 3.72221L26.258 10.8293L24.6684 9.2032L24.6678 9.20264L23.0302 7.52742L29.877 1.49817ZM1.46362 13.7547L1.46362 11.8978C1.46362 9.47607 2.93611 6.60251 5.75074 5.78268L11.3959 4.57479L16.9722 12.4183C17.0981 12.5954 17.2934 12.7072 17.5068 12.7243C17.5259 12.7258 17.545 12.7266 17.5641 12.7266C17.7573 12.7266 17.9437 12.6482 18.0814 12.5073L19.2031 11.3599C19.3229 11.6468 19.4997 11.9028 19.7185 12.1139L19.1596 14.9726L2.92733 14.9726C2.12032 14.9727 1.46362 14.4263 1.46362 13.7547ZM40.9829 14.9727C41.7899 14.9727 42.4466 14.4263 42.4466 13.7547L42.4466 11.8979C42.4466 9.47616 40.9742 6.6026 38.1594 5.78278L32.5143 4.57489L26.938 12.4184C26.8121 12.5955 26.6168 12.7073 26.4034 12.7244C26.3843 12.7259 26.3652 12.7266 26.3461 12.7266C26.1528 12.7266 25.9665 12.6483 25.8287 12.5074L24.7071 11.36C24.5873 11.6469 24.4105 11.903 24.1917 12.114L24.7506 14.9727L40.9829 14.9727ZM23.4188 10.4808C23.4188 10.8936 23.0905 11.2294 22.687 11.2294L21.2233 11.2294C20.8197 11.2294 20.4915 10.8936 20.4915 10.4808L20.4915 10.0422L21.9552 8.54488L23.4189 10.0422L23.4189 10.4808L23.4188 10.4808ZM22.687 12.7267L21.2233 12.7267C21.1793 12.7267 21.1356 12.725 21.0923 12.7224L20.6523 14.9728L23.258 14.9728L22.818 12.7224C22.7746 12.725 22.731 12.7267 22.687 12.7267Z" fill-rule="evenodd"/>
	</g>
</svg>
