<svg xmlns:dc="http://purl.org/dc/elements/1.1/" xmlns:cc="http://creativecommons.org/ns#" xmlns:rdf="http://www.w3.org/1999/02/22-rdf-syntax-ns#" xmlns:svg="http://www.w3.org/2000/svg" xmlns="http://www.w3.org/2000/svg" xmlns:sodipodi="http://sodipodi.sourceforge.net/DTD/sodipodi-0.dtd" xmlns:inkscape="http://www.inkscape.org/namespaces/inkscape" viewBox="0 0 424.82401 540.8724875" version="1.1" x="0px" y="0px"><g transform="translate(-157.931,-327.8085)"><path style="" d="m 322.96,327.8085 c -43.372,0 -78.662,33.1551 -83.013,75.3259 l -53.48,0 21.117,-21.0367 c 3.355,-3.3542 3.355,-8.5381 0,-11.8935 -3.189,-3.1901 -8.538,-3.1901 -11.892,0 l -35.358,35.2764 c -0.828,0.8277 -1.283,1.8776 -1.782,2.9131 -0.828,1.9871 -0.828,4.3222 0,6.3103 0.495,0.9955 0.951,1.9689 1.782,2.6726 l 34.225,34.3051 c 1.658,1.615 3.831,2.4281 5.987,2.4281 2.154,0 4.207,-0.8167 5.905,-2.3443 3.355,-3.3543 3.355,-8.704 0,-11.8934 l -19.984,-19.9033 53.48,0 c 2.155,21.5826 12.585,40.6625 27.995,54.2083 l 0,-24.434 c -7.705,-10.7294 -12.056,-23.8995 -12.056,-38.1081 0,-36.9929 30.162,-66.9921 67.155,-66.9921 36.826,0 66.911,29.9992 66.911,66.9921 0,14.5815 -4.666,28.0639 -12.703,38.9171 l 0,24.434 c 18.062,-15.2445 29.451,-37.9558 29.451,-63.4321 0,-46.1889 -37.676,-83.74 -83.74,-83.74 z m -0.485,58.6585 c -20.919,0 -37.945,16.985 -37.945,37.9463 l 0,157.933 0,71.8466 -42.316,-42.3957 c -7.913,-7.9124 -18.646,-12.1362 -29.209,-12.1362 -8.823,0 -17.555,2.9277 -24.514,9.2231 -16.281,14.6644 -16.743,39.7715 -1.458,55.0986 l 72.25,72.2512 c 15.576,15.5759 36.702,24.2726 58.74,24.2726 l 214.812,0 c 27.59,0 49.92,-22.3314 49.92,-49.9203 l 0,-128.2399 -0.485,0 0,-33.415 0.07,0 c 0,-18.5171 -12.599,-35.3999 -30.826,-38.7553 -2.402,-0.4557 -4.8,-0.7292 -7.119,-0.7292 -17.897,0 -32.796,12.3933 -36.814,29.0462 -3.811,-16.9015 -18.914,-29.5318 -36.976,-29.5318 -18.268,0 -33.452,12.9463 -37.056,30.1793 -3.601,-17.233 -18.867,-30.1793 -37.136,-30.1793 -16.901,0 -31.117,11.0906 -36.004,26.3762 l 0,-108.8215 c 0,-20.5467 -15.418,-38.9726 -35.924,-40.0496 -0.664,0 -1.36,0 -2.024,0 z m 0.07,16.6674 1.13,0.073 c 11.061,0.5798 20.065,10.9985 20.065,23.3016 l 0,108.8217 c 0,8.2438 5.998,15.3436 14.159,16.5864 0.872,0.1088 1.718,0.1823 2.589,0.1823 7.167,0 13.702,-4.6501 15.939,-11.6507 2.819,-8.8234 10.871,-14.7255 19.984,-14.7255 9.943,0 18.683,7.0943 20.713,16.829 1.615,7.788 8.471,13.269 16.424,13.269 7.954,0 14.768,-5.481 16.425,-13.269 2.031,-9.7347 10.77,-16.829 20.713,-16.829 9.942,0 18.436,6.7705 20.631,16.5055 1.738,7.5807 8.435,12.9847 16.181,13.0263 l 0.182,0 c 7.748,0 14.44,-5.2444 16.262,-12.7835 2.32,-9.5694 10.695,-16.2627 20.47,-16.2627 1.324,0 2.717,0.073 4.127,0.3282 9.693,1.7828 17.071,11.3942 17.071,22.3307 l 0,33.415 c 0,1.3673 0.219,2.6798 0.569,3.9643 l 0,124.3561 -0.07,0 c 0,18.2684 -14.861,33.1723 -33.172,33.1723 l -214.812,0 c -17.73,0 -34.416,-6.947 -46.926,-19.4985 l -72.252,-72.2512 c -4.142,-4.1842 -6.396,-9.6524 -6.23,-15.5348 0.182,-5.8822 2.647,-11.2754 7.039,-15.2109 4.516,-4.0593 9.746,-4.9351 13.35,-4.9351 6.38,0 12.717,2.6835 17.314,7.2818 l 42.397,42.3961 c 3.19,3.1901 7.463,4.8545 11.812,4.8545 2.155,0 4.321,-0.4229 6.392,-1.2943 6.255,-2.6105 10.356,-8.7014 10.356,-15.4537 l 0,-71.7657 0,-158.0144 c 0,-5.6753 2.214,-10.9495 6.231,-14.9677 4.018,-4.0181 9.334,-6.2298 14.968,-6.2298 z" fill="#fff"/></g><text x="0" y="447.69799" fill="#fff" font-size="5px" font-weight="bold" font-family="'Helvetica Neue', Helvetica, Arial-Unicode, Arial, Sans-serif">Created by Hopkins</text><text x="0" y="452.69799" fill="#fff" font-size="5px" font-weight="bold" font-family="'Helvetica Neue', Helvetica, Arial-Unicode, Arial, Sans-serif">from the Noun Project</text></svg>