<svg xmlns="http://www.w3.org/2000/svg" xmlns:xlink="http://www.w3.org/1999/xlink" width="22" height="25" version="1.1" viewBox="0 0 22 25"><title>reload</title><desc>Created using Figma</desc><g id="Canvas" transform="translate(-771 -131)"><g id="reload"><g id="Shape"><use fill="#E6866C" transform="matrix(-0.965926 0.258819 -0.258819 -0.965926 793.961 151.855)" xlink:href="#path0_fill"/><use fill="#E6866C" transform="matrix(-0.965926 0.258819 -0.258819 -0.965926 793.961 151.855)" xlink:href="#path1_stroke"/></g></g></g><defs><path id="path0_fill" d="M 19.5165 10.1217C 19.5165 4.54057 15.139 0 9.75829 0C 4.37759 0 0 4.54057 0 10.1217C 0 10.4532 0.259147 10.722 0.578778 10.722C 0.898408 10.722 1.15756 10.4532 1.15756 10.1217C 1.15756 5.20261 5.01581 1.20071 9.75824 1.20071C 14.5007 1.20071 18.3589 5.20265 18.3589 10.1217C 18.3589 15.0407 14.5007 19.0426 9.75824 19.0426L 8.7541 19.0426L 10.1899 17.3756C 10.4029 17.1283 10.3822 16.7488 10.1439 16.5279C 9.90553 16.307 9.53956 16.3284 9.32662 16.5757L 7.27415 18.9587C 6.93817 19.3488 6.93817 19.9371 7.27415 20.3273L 9.32662 22.7103C 9.44099 22.8431 9.59936 22.9107 9.75846 22.9107C 9.89569 22.9107 10.0335 22.8603 10.1439 22.7581C 10.3823 22.5372 10.4029 22.1576 10.1899 21.9104L 8.7541 20.2433L 9.75824 20.2433C 15.139 20.2433 19.5165 15.7027 19.5165 10.1217Z"/><path id="path1_stroke" d="M 8.7541 19.0426L 8.37525 18.7163L 7.66357 19.5426L 8.7541 19.5426L 8.7541 19.0426ZM 10.1899 17.3756L 9.8111 17.0492L 9.81106 17.0493L 10.1899 17.3756ZM 9.32662 16.5757L 8.94777 16.2494L 8.94777 16.2494L 9.32662 16.5757ZM 7.27415 18.9587L 6.8953 18.6324L 6.89529 18.6324L 7.27415 18.9587ZM 7.27415 20.3273L 6.89529 20.6535L 6.8953 20.6536L 7.27415 20.3273ZM 9.32662 22.7103L 9.7055 22.384L 9.70547 22.384L 9.32662 22.7103ZM 10.1439 22.7581L 10.4836 23.125L 10.4837 23.1248L 10.1439 22.7581ZM 10.1899 21.9104L 9.81106 22.2367L 9.8111 22.2367L 10.1899 21.9104ZM 8.7541 20.2433L 8.7541 19.7433L 7.66357 19.7433L 8.37525 20.5696L 8.7541 20.2433ZM 20.0165 10.1217C 20.0165 4.28182 15.4322 -0.5 9.75829 -0.5L 9.75829 0.5C 14.8458 0.5 19.0165 4.79932 19.0165 10.1217L 20.0165 10.1217ZM 9.75829 -0.5C 4.08437 -0.5 -0.5 4.28182 -0.5 10.1217L 0.5 10.1217C 0.5 4.79933 4.6708 0.5 9.75829 0.5L 9.75829 -0.5ZM -0.5 10.1217C -0.5 10.712 -0.0340689 11.222 0.578778 11.222L 0.578778 10.222C 0.552363 10.222 0.5 10.1945 0.5 10.1217L -0.5 10.1217ZM 0.578778 11.222C 1.19165 11.222 1.65756 10.7119 1.65756 10.1217L 0.657555 10.1217C 0.657555 10.1945 0.605168 10.222 0.578778 10.222L 0.578778 11.222ZM 1.65756 10.1217C 1.65756 5.46136 5.30903 1.70071 9.75824 1.70071L 9.75824 0.700709C 4.7226 0.700709 0.657555 4.94386 0.657555 10.1217L 1.65756 10.1217ZM 9.75824 1.70071C 14.2075 1.70071 17.8589 5.46141 17.8589 10.1217L 18.8589 10.1217C 18.8589 4.9439 14.7939 0.700709 9.75824 0.700709L 9.75824 1.70071ZM 17.8589 10.1217C 17.8589 14.7819 14.2075 18.5426 9.75824 18.5426L 9.75824 19.5426C 14.7939 19.5426 18.8589 15.2995 18.8589 10.1217L 17.8589 10.1217ZM 9.75824 18.5426L 8.7541 18.5426L 8.7541 19.5426L 9.75824 19.5426L 9.75824 18.5426ZM 9.13295 19.3689L 10.5688 17.7019L 9.81106 17.0493L 8.37525 18.7163L 9.13295 19.3689ZM 10.5687 17.7019C 10.9562 17.2521 10.9207 16.5661 10.4838 16.1612L 9.80399 16.8946C 9.82212 16.9114 9.83514 16.937 9.83688 16.969C 9.83863 17.001 9.82845 17.0291 9.8111 17.0492L 10.5687 17.7019ZM 10.4838 16.1612C 10.036 15.7462 9.34414 15.7892 8.94777 16.2494L 9.70547 16.902C 9.72205 16.8827 9.73979 16.8763 9.75494 16.8754C 9.76999 16.8745 9.78693 16.8788 9.80399 16.8946L 10.4838 16.1612ZM 8.94777 16.2494L 6.8953 18.6324L 7.653 19.285L 9.70547 16.902L 8.94777 16.2494ZM 6.89529 18.6324C 6.39779 19.2101 6.39779 20.0759 6.89529 20.6535L 7.65301 20.001C 7.47855 19.7984 7.47855 19.4876 7.65301 19.285L 6.89529 18.6324ZM 6.8953 20.6536L 8.94777 23.0366L 9.70547 22.384L 7.653 20.001L 6.8953 20.6536ZM 8.94774 23.0365C 9.15889 23.2817 9.45658 23.4107 9.75846 23.4107L 9.75846 22.4107C 9.7497 22.4107 9.74085 22.4088 9.73245 22.405C 9.72445 22.4014 9.71511 22.3952 9.7055 22.384L 8.94774 23.0365ZM 9.75846 23.4107C 10.0192 23.4107 10.279 23.3144 10.4836 23.125L 9.80421 22.3912C 9.79541 22.3993 9.7873 22.4039 9.7804 22.4065C 9.77324 22.4093 9.76585 22.4107 9.75846 22.4107L 9.75846 23.4107ZM 10.4837 23.1248C 10.9208 22.7198 10.9562 22.0338 10.5687 21.584L 9.8111 22.2367C 9.82847 22.2569 9.83864 22.2849 9.8369 22.317C 9.83516 22.349 9.82215 22.3745 9.80403 22.3913L 10.4837 23.1248ZM 10.5688 21.5841L 9.13295 19.917L 8.37525 20.5696L 9.81106 22.2367L 10.5688 21.5841ZM 8.7541 20.7433L 9.75824 20.7433L 9.75824 19.7433L 8.7541 19.7433L 8.7541 20.7433ZM 9.75824 20.7433C 15.4322 20.7433 20.0165 15.9615 20.0165 10.1217L 19.0165 10.1217C 19.0165 15.444 14.8458 19.7433 9.75824 19.7433L 9.75824 20.7433Z"/></defs></svg>