<svg xmlns="http://www.w3.org/2000/svg" xmlns:xlink="http://www.w3.org/1999/xlink" width="240" height="240" x="0" y="0" class="loading" enable-background="new 0 0 240 240" version="1.1" viewBox="0 0 240 240" xml:space="preserve"><defs><pattern id="water" width=".25" height="1.1" patternContentUnits="objectBoundingBox"><path fill="url(#bubbleLoaderGradient)" d="M0.25,1H0c0,0,0-0.659,0-0.916c0.083-0.103,0.158,0.134,0.25,0C0.25,0.127,0.25,1,0.25,1z"/></pattern><pattern id="water-text" width=".25" height="1.1" patternContentUnits="objectBoundingBox"><path fill="#fff" d="M0.25,1H0c0,0,0-0.659,0-0.916c0.083-0.103,0.158,0.134,0.25,0C0.25,0.127,0.25,1,0.25,1z"/></pattern><linearGradient id="bubbleLoaderGradient" x1="0" x2="0" y1="0" y2="1"><stop offset="0%" stop-color="#e28975"/><stop offset="50%" stop-color="#d45869"/></linearGradient><mask id="bubbleLoaderCircleMask"><use x="0" y="0" fill="#fff" opacity="1" xlink:href="#circle"/></mask><pattern id="ldp-9b2805fe3f7b" width="197" height="200" x="0" y="0" patternUnits="userSpaceOnUse"><circle cx="77.196" cy="215.922" r="8.724" fill="#E4646B" stroke="none" stroke-width="0" transform="translate(0 -148.233)"><animateTransform attributeName="transform" begin="-4.45095089916959s" dur="2.25s" keyTimes="0;1" repeatCount="indefinite" type="translate" values="0 0;0 -200"/></circle><circle cx="83.878" cy="170.924" r="8.725" fill="#D94666" stroke="none" stroke-width="0" transform="translate(0 -187.504)"><animateTransform attributeName="transform" begin="-3.4864725707420936s" dur="0.75s" keyTimes="0;1" repeatCount="indefinite" type="translate" values="0 0;0 -200"/></circle><circle cx="83.878" cy="370.924" r="8.725" fill="#D94666" stroke="none" stroke-width="0" transform="translate(0 -187.504)"><animateTransform attributeName="transform" begin="-3.4864725707420936s" dur="0.75s" keyTimes="0;1" repeatCount="indefinite" type="translate" values="0 0;0 -200"/></circle><circle cx="66.815" cy="166.598" r="9.015" fill="#E87A6A" stroke="none" stroke-width="0" transform="translate(0 -165.259)"><animateTransform attributeName="transform" begin="-2.6530546785733233s" dur="0.75s" keyTimes="0;1" repeatCount="indefinite" type="translate" values="0 0;0 -200"/></circle><circle cx="66.815" cy="366.598" r="9.015" fill="#E87A6A" stroke="none" stroke-width="0" transform="translate(0 -165.259)"><animateTransform attributeName="transform" begin="-2.6530546785733233s" dur="0.75s" keyTimes="0;1" repeatCount="indefinite" type="translate" values="0 0;0 -200"/></circle><circle cx="181.236" cy="52.083" r="8.97" fill="#E87A6A" stroke="none" stroke-width="0" transform="translate(0 -120.571)"><animateTransform attributeName="transform" begin="-4.139754621295559s" dur="2.25s" keyTimes="0;1" repeatCount="indefinite" type="translate" values="0 0;0 -200"/></circle><circle cx="181.236" cy="252.083" r="8.97" fill="#E87A6A" stroke="none" stroke-width="0" transform="translate(0 -120.571)"><animateTransform attributeName="transform" begin="-4.139754621295559s" dur="2.25s" keyTimes="0;1" repeatCount="indefinite" type="translate" values="0 0;0 -200"/></circle><circle cx="123.814" cy="29.437" r="3.328" fill="#E87A6A" stroke="none" stroke-width="0" transform="translate(0 -8.52142)"><animateTransform attributeName="transform" begin="-1.3472439503006675s" dur="1.5s" keyTimes="0;1" repeatCount="indefinite" type="translate" values="0 0;0 -200"/></circle><circle cx="123.814" cy="229.437" r="3.328" fill="#E87A6A" stroke="none" stroke-width="0" transform="translate(0 -8.52142)"><animateTransform attributeName="transform" begin="-1.3472439503006675s" dur="1.5s" keyTimes="0;1" repeatCount="indefinite" type="translate" values="0 0;0 -200"/></circle><circle cx="147.737" cy="143.379" r="9.964" fill="#D94666" stroke="none" stroke-width="0" transform="translate(0 -62.5847)"><animateTransform attributeName="transform" begin="-4.191488593689704s" dur="4.5s" keyTimes="0;1" repeatCount="indefinite" type="translate" values="0 0;0 -200"/></circle><circle cx="147.737" cy="343.379" r="9.964" fill="#D94666" stroke="none" stroke-width="0" transform="translate(0 -62.5847)"><animateTransform attributeName="transform" begin="-4.191488593689704s" dur="4.5s" keyTimes="0;1" repeatCount="indefinite" type="translate" values="0 0;0 -200"/></circle></pattern><text id="text" x="120" y="120" alignment-baseline="middle" class="text" font-size="60" text-anchor="middle">30%</text><mask id="text_mask"><use x="0" y="0" fill="#fff" opacity="1" xlink:href="#text"/></mask></defs><circle id="circle" cx="120" cy="120" r="120" fill="#fff"/><rect width="1600" height="300" x="0" y="0" fill="url(#water)" class="water-fill" mask="url(#bubbleLoaderCircleMask)"/><rect width="100%" height="100%" x="0" y="0" fill="url(#ldp-9b2805fe3f7b)" mask="url(#bubbleLoaderCircleMask)"/><text x="120" y="120" fill="#262626" alignment-baseline="middle" class="text" font-size="60" text-anchor="middle">30%</text><rect width="1600" height="300" x="0" y="0" fill="url(#water-text)" class="water-fill" mask="url(#text_mask)"/><style>@-webkit-keyframes wave{0%{x:-400px}}@keyframes wave{0%{x:-400px}}@-webkit-keyframes fill-up{0%{y:240px}}@keyframes fill-up{0%{y:240px}}*{font-family:&apos;Roboto&apos;,sans-serif}.water-fill{-webkit-animation:wave .7s infinite linear,fill-up 6s forwards ease-out alternate;animation:wave .7s infinite linear,fill-up 6s forwards ease-out alternate}</style></svg>