<svg xmlns="http://www.w3.org/2000/svg" xmlns:xlink="http://www.w3.org/1999/xlink" width="104" height="16"><defs><clipPath id="clip_0"><rect width="1440" height="887" x="-806" y="-549" clip-rule="evenodd"/></clipPath></defs><g clip-path="url(#clip_0)"><path fill="#FFF" stroke="none" d="M0.469388 0.938776L3.7551 0.938776C4.01467 0.938776 4.22449 0.728959 4.22449 0.469388C4.22449 0.209816 4.01467 0 3.7551 0L0.469388 0C0.209816 0 0 0.209816 0 0.469388C0 0.728959 0.209816 0.938776 0.469388 0.938776Z" transform="matrix(0.913545 -0.406737 0.406737 0.913545 45.2783 12.2615)"/></g><defs><clipPath id="clip_1"><rect width="1440" height="887" x="-806" y="-549" clip-rule="evenodd"/></clipPath></defs><g clip-path="url(#clip_1)"><path fill="#FFF" stroke="none" d="M5.16327 0L0.469388 0C0.209816 0 8.88178e-16 0.209816 8.88178e-16 0.469388C8.88178e-16 0.728959 0.209816 0.938776 0.469388 0.938776L5.16327 0.938776C5.42284 0.938776 5.63265 0.728959 5.63265 0.469388C5.63265 0.209816 5.42284 0 5.16327 0Z" transform="matrix(0.913545 -0.406737 0.406737 0.913545 46.042 13.9767)"/></g><defs><clipPath id="clip_2"><rect width="1440" height="887" x="-806" y="-549" clip-rule="evenodd"/></clipPath></defs><g clip-path="url(#clip_2)"><path fill="#FFF" stroke="none" d="M0.136122 0.130255C0.0511633 0.218969 0 0.34148 0 0.46352C0 0.585561 0.0511633 0.707602 0.136122 0.796786C0.224837 0.881276 0.342184 0.932908 0.469388 0.932908C0.591429 0.932908 0.713469 0.881276 0.802653 0.796786C0.887143 0.707602 0.938776 0.585561 0.938776 0.46352C0.938776 0.34148 0.887143 0.218969 0.802653 0.130255C0.62898 -0.0434184 0.309796 -0.0434184 0.136122 0.130255Z" transform="matrix(0.913545 -0.406737 0.406737 0.913545 51.6191 11.5001)"/></g><defs><clipPath id="clip_3"><rect width="1440" height="887" x="-806" y="-549" clip-rule="evenodd"/></clipPath></defs><g clip-path="url(#clip_3)"><path fill="#FFF" stroke="none" d="M0.287862 0.575723L2.30289 0.575723C2.46208 0.575723 2.59076 0.447049 2.59076 0.287862C2.59076 0.128674 2.46208 0 2.30289 0L0.287862 0C0.128674 0 0 0.128674 0 0.287862C0 0.447049 0.128674 0.575723 0.287862 0.575723Z" transform="matrix(0.913545 -0.406737 0.406737 0.913545 96.917 9.38293)"/></g><defs><clipPath id="clip_4"><rect width="1440" height="887" x="-806" y="-549" clip-rule="evenodd"/></clipPath></defs><g clip-path="url(#clip_4)"><path fill="#FFF" stroke="none" d="M3.16648 -1.13687e-13L0.287862 -1.13687e-13C0.128674 -1.13687e-13 -8.88178e-16 0.128674 -8.88178e-16 0.287862C-8.88178e-16 0.447049 0.128674 0.575723 0.287862 0.575723L3.16648 0.575723C3.32567 0.575723 3.45434 0.447049 3.45434 0.287862C3.45434 0.128674 3.32567 -1.13687e-13 3.16648 -1.13687e-13Z" transform="matrix(0.913545 -0.406737 0.406737 0.913545 97.3848 10.4348)"/></g><defs><clipPath id="clip_5"><rect width="1440" height="887" x="-806" y="-549" clip-rule="evenodd"/></clipPath></defs><g clip-path="url(#clip_5)"><path fill="#FFF" stroke="none" d="M0.0834799 0.0798816C0.0313769 0.134287 0 0.209419 0 0.284263C0 0.359107 0.0313769 0.433951 0.0834799 0.488645C0.137886 0.54046 0.209851 0.572125 0.287862 0.572125C0.362706 0.572125 0.43755 0.54046 0.492243 0.488645C0.544059 0.433951 0.575723 0.359107 0.575723 0.284263C0.575723 0.209419 0.544059 0.134287 0.492243 0.0798816C0.385735 -0.0266272 0.189989 -0.0266272 0.0834799 0.0798816Z" transform="matrix(0.913545 -0.406737 0.406737 0.913545 100.806 8.91605)"/></g><defs><clipPath id="clip_6"><rect width="1440" height="887" x="-806" y="-549" clip-rule="evenodd"/></clipPath></defs><g clip-path="url(#clip_6)"><path fill="#FFF" fill-rule="evenodd" stroke="none" d="M0 0L1.72717 0L1.72717 2.87862L0 2.87862L0 0ZM0.575723 2.30289L1.15145 2.30289L1.15145 0.575723L0.575723 0.575723L0.575723 2.30289Z" transform="matrix(0.913545 -0.406737 0.406737 0.913545 97.7002 0.526367)"/></g><defs><clipPath id="clip_7"><rect width="1440" height="887" x="-806" y="-549" clip-rule="evenodd"/></clipPath></defs><g clip-path="url(#clip_7)"><path fill="#FFF" stroke="none" d="M0.287862 0.575723L2.30289 0.575723C2.46208 0.575723 2.59076 0.447049 2.59076 0.287862C2.59076 0.128674 2.46208 0 2.30289 0L0.287862 0C0.128674 0 0 0.128674 0 0.287862C0 0.447049 0.128674 0.575723 0.287862 0.575723Z" transform="matrix(0.913545 -0.406737 0.406737 0.913545 -0.973633 9.38293)"/></g><defs><clipPath id="clip_8"><rect width="1440" height="887" x="-806" y="-549" clip-rule="evenodd"/></clipPath></defs><g clip-path="url(#clip_8)"><path fill="#FFF" stroke="none" d="M3.16648 -1.13687e-13L0.287862 -1.13687e-13C0.128674 -1.13687e-13 -8.88178e-16 0.128674 -8.88178e-16 0.287862C-8.88178e-16 0.447049 0.128674 0.575723 0.287862 0.575723L3.16648 0.575723C3.32567 0.575723 3.45434 0.447049 3.45434 0.287862C3.45434 0.128674 3.32567 -1.13687e-13 3.16648 -1.13687e-13Z" transform="matrix(0.913545 -0.406737 0.406737 0.913545 -0.505859 10.4348)"/></g><defs><clipPath id="clip_9"><rect width="1440" height="887" x="-806" y="-549" clip-rule="evenodd"/></clipPath></defs><g clip-path="url(#clip_9)"><path fill="#FFF" stroke="none" d="M0.0834799 0.0798816C0.0313769 0.134287 0 0.209419 0 0.284263C0 0.359107 0.0313769 0.433951 0.0834799 0.488645C0.137886 0.54046 0.209851 0.572125 0.287862 0.572125C0.362706 0.572125 0.43755 0.54046 0.492243 0.488645C0.544059 0.433951 0.575723 0.359107 0.575723 0.284263C0.575723 0.209419 0.544059 0.134287 0.492243 0.0798816C0.385735 -0.0266272 0.189989 -0.0266272 0.0834799 0.0798816Z" transform="matrix(0.913545 -0.406737 0.406737 0.913545 2.91504 8.91605)"/></g><defs><clipPath id="clip_10"><rect width="1440" height="887" x="-806" y="-549" clip-rule="evenodd"/></clipPath></defs><g clip-path="url(#clip_10)"><path fill="#FFF" fill-rule="evenodd" stroke="none" d="M0 0L1.73 0L1.73 2.88L0 2.88L0 0ZM0.576667 2.304L1.15333 2.304L1.15333 0.576L0.576667 0.576L0.576667 2.304Z" transform="matrix(0.913545 -0.406737 0.406737 0.913545 -0.19043 0.526367)"/></g></svg>