<svg xmlns="http://www.w3.org/2000/svg" xmlns:xlink="http://www.w3.org/1999/xlink" width="64" height="41" version="1.1" viewBox="0 0 64 41"><title>arrow-left</title><desc>Created using Figma</desc><g id="Canvas" transform="translate(934 -879)"><g id="arrow-left"><g id="Vector"><use fill="#FFF" transform="matrix(0.788011 0.615662 -0.615662 0.788011 -921.302 894.096)" xlink:href="#path0_stroke"/></g><g id="Vector"><use fill="#FFF" transform="matrix(0.788011 0.615662 -0.615662 0.788011 -895.445 861)" xlink:href="#path1_stroke"/></g></g></g><defs><path id="path0_stroke" d="M 0.629348 17.1899L 1.37325 17.8582L 0.629348 17.1899ZM 6.4708 -0.212883C 4.63376 8.21866 2.40229 13.72 -0.114549 16.5216L 1.37325 17.8582C 4.26604 14.6381 6.58026 8.67958 8.42496 0.212883L 6.4708 -0.212883ZM -0.114549 16.5216C -0.401151 16.8406 -0.643587 17.1674 -0.800832 17.4999C -0.95574 17.8275 -1.07532 18.264 -0.943972 18.7297C -0.805219 19.2218 -0.451402 19.5239 -0.117471 19.6928C 0.201285 19.8541 0.562129 19.929 0.899277 19.9659C 2.20314 20.1084 4.32356 19.7819 6.67042 19.2839C 11.4485 18.2699 17.8582 16.3796 22.2648 15.1696L 21.7352 13.241C 17.2608 14.4696 10.9566 16.3297 6.25523 17.3275C 3.8624 17.8353 2.05178 18.0799 1.11667 17.9777C 0.894075 17.9534 0.800932 17.9161 0.785259 17.9081C 0.78476 17.9079 0.923706 17.9839 0.98095 18.1869C 1.03079 18.3636 0.963062 18.4482 1.00717 18.355C 1.04895 18.2666 1.15269 18.1037 1.37325 17.8582L -0.114549 16.5216Z"/><path id="path1_stroke" d="M 29.7294 0.203532C 32.2623 12.3877 31.0035 23.427 25.9983 33.3694C 20.9858 43.3264 12.1752 52.2629 -0.527516 60.1505L 0.527516 61.8495C 13.444 53.8292 22.5611 44.645 27.7847 34.2687C 33.0157 23.8777 34.3015 12.371 31.6875 -0.203532L 29.7294 0.203532Z"/></defs></svg>