<svg width="322" height="155" viewBox="0 0 322 155" version="1.1" xmlns="http://www.w3.org/2000/svg" xmlns:xlink="http://www.w3.org/1999/xlink">
<title>start-animation</title>
<desc>Created using Figma</desc>
<g id="Canvas" transform="translate(934 -813)">
<g id="start-animation">
<g id="Group 12">
<g id="lamp toggler caption">
<g id="Vector">
<use xlink:href="#path0_stroke" transform="matrix(0.788011 0.615662 -0.615662 0.788011 -921.302 894.096)" fill="#FFFFFF"/>
</g>
<g id="Vector">
<use xlink:href="#path1_stroke" transform="matrix(0.788011 0.615662 -0.615662 0.788011 -895.445 861)" fill="#FFFFFF"/>
</g>
</g>
<g id="Group 10">
<g id="That looks like a system developed in haste.">
<use xlink:href="#path2_fill" transform="translate(-865.445 809)" fill="#FFFFFF"/>
</g>
</g>
<g id="Click-and-see-like-c">
<use xlink:href="#path3_fill" transform="translate(-804.445 931)" fill="#FFFFFF"/>
</g>
<g id="Group-9">
<g id="Oval-2">
<use xlink:href="#path4_fill" transform="translate(-860.445 927)" fill="#F6E94A"/>
</g>
<g id="Shape">
<use xlink:href="#path5_fill" transform="translate(-862.445 924)" fill="#FFFFFF"/>
</g>
<g id="Group">
<g id="reload">
<g id="Shape">
<use xlink:href="#path6_fill" transform="matrix(-0.965926 0.258819 -0.258819 -0.965926 -828.794 955.335)" fill="#E6866C"/>
<use xlink:href="#path7_stroke" transform="matrix(-0.965926 0.258819 -0.258819 -0.965926 -828.794 955.335)" fill="#E6866C"/>
</g>
</g>
</g>
</g>
</g>
</g>
</g>
<defs>
<path id="path0_stroke" d="M 0.629348 17.1899L 1.37325 17.8582L 0.629348 17.1899ZM 6.4708 -0.212883C 4.63376 8.21866 2.40229 13.72 -0.114549 16.5216L 1.37325 17.8582C 4.26604 14.6381 6.58026 8.67958 8.42496 0.212883L 6.4708 -0.212883ZM -0.114549 16.5216C -0.401151 16.8406 -0.643587 17.1674 -0.800832 17.4999C -0.95574 17.8275 -1.07532 18.264 -0.943972 18.7297C -0.805219 19.2218 -0.451402 19.5239 -0.117471 19.6928C 0.201285 19.8541 0.562129 19.929 0.899277 19.9659C 2.20314 20.1084 4.32356 19.7819 6.67042 19.2839C 11.4485 18.2699 17.8582 16.3796 22.2648 15.1696L 21.7352 13.241C 17.2608 14.4696 10.9566 16.3297 6.25523 17.3275C 3.8624 17.8353 2.05178 18.0799 1.11667 17.9777C 0.894075 17.9534 0.800932 17.9161 0.785259 17.9081C 0.78476 17.9079 0.923706 17.9839 0.98095 18.1869C 1.03079 18.3636 0.963062 18.4482 1.00717 18.355C 1.04895 18.2666 1.15269 18.1037 1.37325 17.8582L -0.114549 16.5216Z"/>
<path id="path1_stroke" d="M 29.7294 0.203532C 32.2623 12.3877 31.0035 23.427 25.9983 33.3694C 20.9858 43.3264 12.1752 52.2629 -0.527516 60.1505L 0.527516 61.8495C 13.444 53.8292 22.5611 44.645 27.7847 34.2687C 33.0157 23.8777 34.3015 12.371 31.6875 -0.203532L 29.7294 0.203532Z"/>
<path id="path2_fill" d="M 11.4746 6.32422L 6.9043 6.32422L 6.9043 19L 5.03906 19L 5.03906 6.32422L 0.478516 6.32422L 0.478516 4.78125L 11.4746 4.78125L 11.4746 6.32422ZM 15.1074 9.71289C 15.9082 8.72982 16.9499 8.23828 18.2324 8.23828C 20.4655 8.23828 21.5918 9.49805 21.6113 12.0176L 21.6113 19L 19.8047 19L 19.8047 12.0078C 19.7982 11.2461 19.6224 10.6829 19.2773 10.3184C 18.9388 9.95378 18.4082 9.77148 17.6855 9.77148C 17.0996 9.77148 16.5853 9.92773 16.1426 10.2402C 15.6999 10.5527 15.3548 10.9629 15.1074 11.4707L 15.1074 19L 13.3008 19L 13.3008 4L 15.1074 4L 15.1074 9.71289ZM 30.8398 19C 30.7357 18.7917 30.651 18.4206 30.5859 17.8867C 29.7461 18.7591 28.7435 19.1953 27.5781 19.1953C 26.5365 19.1953 25.6803 18.9023 25.0098 18.3164C 24.3457 17.724 24.0137 16.9753 24.0137 16.0703C 24.0137 14.9701 24.4303 14.1172 25.2637 13.5117C 26.1035 12.8997 27.2819 12.5938 28.7988 12.5938L 30.5566 12.5938L 30.5566 11.7637C 30.5566 11.1322 30.3678 10.6309 29.9902 10.2598C 29.6126 9.88216 29.056 9.69336 28.3203 9.69336C 27.6758 9.69336 27.1354 9.85612 26.6992 10.1816C 26.263 10.5072 26.0449 10.901 26.0449 11.3633L 24.2285 11.3633C 24.2285 10.8359 24.4141 10.3281 24.7852 9.83984C 25.1628 9.34505 25.6706 8.95443 26.3086 8.66797C 26.9531 8.38151 27.6595 8.23828 28.4277 8.23828C 29.6452 8.23828 30.599 8.54427 31.2891 9.15625C 31.9792 9.76172 32.3372 10.5983 32.3633 11.666L 32.3633 16.5293C 32.3633 17.4993 32.487 18.2708 32.7344 18.8438L 32.7344 19L 30.8398 19ZM 27.8418 17.623C 28.4082 17.623 28.9453 17.4766 29.4531 17.1836C 29.9609 16.8906 30.3288 16.5098 30.5566 16.041L 30.5566 13.873L 29.1406 13.873C 26.9271 13.873 25.8203 14.5208 25.8203 15.8164C 25.8203 16.3828 26.0091 16.8255 26.3867 17.1445C 26.7643 17.4635 27.2493 17.623 27.8418 17.623ZM 37.6465 5.875L 37.6465 8.43359L 39.6191 8.43359L 39.6191 9.83008L 37.6465 9.83008L 37.6465 16.3828C 37.6465 16.806 37.7344 17.125 37.9102 17.3398C 38.0859 17.5482 38.3854 17.6523 38.8086 17.6523C 39.0169 17.6523 39.3034 17.6133 39.668 17.5352L 39.668 19C 39.1927 19.1302 38.7305 19.1953 38.2812 19.1953C 37.474 19.1953 36.8652 18.9512 36.4551 18.4629C 36.0449 17.9746 35.8398 17.2812 35.8398 16.3828L 35.8398 9.83008L 33.916 9.83008L 33.916 8.43359L 35.8398 8.43359L 35.8398 5.875L 37.6465 5.875ZM 48.6621 19L 46.8555 19L 46.8555 4L 48.6621 4L 48.6621 19ZM 51.084 13.6191C 51.084 12.584 51.2858 11.653 51.6895 10.8262C 52.0996 9.99935 52.666 9.36133 53.3887 8.91211C 54.1178 8.46289 54.9479 8.23828 55.8789 8.23828C 57.3177 8.23828 58.4798 8.73633 59.3652 9.73242C 60.2572 10.7285 60.7031 12.0534 60.7031 13.707L 60.7031 13.834C 60.7031 14.8626 60.5046 15.7871 60.1074 16.6074C 59.7168 17.4212 59.1536 18.056 58.418 18.5117C 57.6888 18.9674 56.849 19.1953 55.8984 19.1953C 54.4661 19.1953 53.304 18.6973 52.4121 17.7012C 51.5267 16.7051 51.084 15.3867 51.084 13.7461L 51.084 13.6191ZM 52.9004 13.834C 52.9004 15.0059 53.1706 15.9466 53.7109 16.6562C 54.2578 17.3659 54.987 17.7207 55.8984 17.7207C 56.8164 17.7207 57.5456 17.3626 58.0859 16.6465C 58.6263 15.9238 58.8965 14.9147 58.8965 13.6191C 58.8965 12.4603 58.6198 11.5228 58.0664 10.8066C 57.5195 10.084 56.7904 9.72266 55.8789 9.72266C 54.987 9.72266 54.2676 10.0775 53.7207 10.7871C 53.1738 11.4967 52.9004 12.5124 52.9004 13.834ZM 62.4902 13.6191C 62.4902 12.584 62.6921 11.653 63.0957 10.8262C 63.5059 9.99935 64.0723 9.36133 64.7949 8.91211C 65.5241 8.46289 66.3542 8.23828 67.2852 8.23828C 68.724 8.23828 69.8861 8.73633 70.7715 9.73242C 71.6634 10.7285 72.1094 12.0534 72.1094 13.707L 72.1094 13.834C 72.1094 14.8626 71.9108 15.7871 71.5137 16.6074C 71.123 17.4212 70.5599 18.056 69.8242 18.5117C 69.0951 18.9674 68.2552 19.1953 67.3047 19.1953C 65.8724 19.1953 64.7103 18.6973 63.8184 17.7012C 62.9329 16.7051 62.4902 15.3867 62.4902 13.7461L 62.4902 13.6191ZM 64.3066 13.834C 64.3066 15.0059 64.5768 15.9466 65.1172 16.6562C 65.6641 17.3659 66.3932 17.7207 67.3047 17.7207C 68.2227 17.7207 68.9518 17.3626 69.4922 16.6465C 70.0326 15.9238 70.3027 14.9147 70.3027 13.6191C 70.3027 12.4603 70.026 11.5228 69.4727 10.8066C 68.9258 10.084 68.1966 9.72266 67.2852 9.72266C 66.3932 9.72266 65.6738 10.0775 65.127 10.7871C 64.5801 11.4967 64.3066 12.5124 64.3066 13.834ZM 77.3242 14.1074L 76.1914 15.2891L 76.1914 19L 74.3848 19L 74.3848 4L 76.1914 4L 76.1914 13.0723L 77.1582 11.9102L 80.4492 8.43359L 82.6465 8.43359L 78.5352 12.8477L 83.125 19L 81.0059 19L 77.3242 14.1074ZM 90.6641 16.1973C 90.6641 15.709 90.4785 15.3314 90.1074 15.0645C 89.7428 14.791 89.1016 14.5566 88.1836 14.3613C 87.2721 14.166 86.5462 13.9316 86.0059 13.6582C 85.472 13.3848 85.0749 13.0592 84.8145 12.6816C 84.5605 12.304 84.4336 11.8548 84.4336 11.334C 84.4336 10.4681 84.7982 9.73568 85.5273 9.13672C 86.263 8.53776 87.2005 8.23828 88.3398 8.23828C 89.5378 8.23828 90.5078 8.54753 91.25 9.16602C 91.9987 9.78451 92.373 10.5755 92.373 11.5391L 90.5566 11.5391C 90.5566 11.0443 90.3451 10.6178 89.9219 10.2598C 89.5052 9.90169 88.9779 9.72266 88.3398 9.72266C 87.6823 9.72266 87.168 9.86589 86.7969 10.1523C 86.4258 10.4388 86.2402 10.8132 86.2402 11.2754C 86.2402 11.7116 86.4128 12.0404 86.7578 12.2617C 87.1029 12.4831 87.7246 12.6947 88.623 12.8965C 89.528 13.0983 90.2604 13.3392 90.8203 13.6191C 91.3802 13.8991 91.7936 14.2376 92.0605 14.6348C 92.334 15.0254 92.4707 15.5039 92.4707 16.0703C 92.4707 17.0143 92.0931 17.7728 91.3379 18.3457C 90.5827 18.9121 89.6029 19.1953 88.3984 19.1953C 87.5521 19.1953 86.8034 19.0456 86.1523 18.7461C 85.5013 18.4466 84.9902 18.0299 84.6191 17.4961C 84.2546 16.9557 84.0723 16.373 84.0723 15.748L 85.8789 15.748C 85.9115 16.3535 86.1523 16.8353 86.6016 17.1934C 87.0573 17.5449 87.6562 17.7207 88.3984 17.7207C 89.082 17.7207 89.6289 17.584 90.0391 17.3105C 90.4557 17.0306 90.6641 16.6595 90.6641 16.1973ZM 3.33008 42L 1.52344 42L 1.52344 27L 3.33008 27L 3.33008 42ZM 8.19336 42L 6.38672 42L 6.38672 31.4336L 8.19336 31.4336L 8.19336 42ZM 6.24023 28.6309C 6.24023 28.3379 6.32812 28.0905 6.50391 27.8887C 6.6862 27.6868 6.95312 27.5859 7.30469 27.5859C 7.65625 27.5859 7.92318 27.6868 8.10547 27.8887C 8.28776 28.0905 8.37891 28.3379 8.37891 28.6309C 8.37891 28.9238 8.28776 29.168 8.10547 29.3633C 7.92318 29.5586 7.65625 29.6562 7.30469 29.6562C 6.95312 29.6562 6.6862 29.5586 6.50391 29.3633C 6.32812 29.168 6.24023 28.9238 6.24023 28.6309ZM 14.043 37.1074L 12.9102 38.2891L 12.9102 42L 11.1035 42L 11.1035 27L 12.9102 27L 12.9102 36.0723L 13.877 34.9102L 17.168 31.4336L 19.3652 31.4336L 15.2539 35.8477L 19.8438 42L 17.7246 42L 14.043 37.1074ZM 25.4199 42.1953C 23.9876 42.1953 22.8223 41.7266 21.9238 40.7891C 21.0254 39.8451 20.5762 38.5853 20.5762 37.0098L 20.5762 36.6777C 20.5762 35.6296 20.7747 34.6953 21.1719 33.875C 21.5755 33.0482 22.1354 32.4036 22.8516 31.9414C 23.5742 31.4727 24.3555 31.2383 25.1953 31.2383C 26.569 31.2383 27.6367 31.6908 28.3984 32.5957C 29.1602 33.5007 29.541 34.7962 29.541 36.4824L 29.541 37.2344L 22.3828 37.2344C 22.4089 38.276 22.7116 39.1191 23.291 39.7637C 23.877 40.4017 24.6191 40.7207 25.5176 40.7207C 26.1556 40.7207 26.696 40.5905 27.1387 40.3301C 27.5814 40.0697 27.9688 39.7246 28.3008 39.2949L 29.4043 40.1543C 28.5189 41.515 27.1908 42.1953 25.4199 42.1953ZM 25.1953 32.7227C 24.4661 32.7227 23.8542 32.9896 23.3594 33.5234C 22.8646 34.0508 22.5586 34.793 22.4414 35.75L 27.7344 35.75L 27.7344 35.6133C 27.6823 34.6953 27.4349 33.9857 26.9922 33.4844C 26.5495 32.9766 25.9505 32.7227 25.1953 32.7227ZM 43.125 42C 43.0208 41.7917 42.9362 41.4206 42.8711 40.8867C 42.0312 41.7591 41.0286 42.1953 39.8633 42.1953C 38.8216 42.1953 37.9655 41.9023 37.2949 41.3164C 36.6309 40.724 36.2988 39.9753 36.2988 39.0703C 36.2988 37.9701 36.7155 37.1172 37.5488 36.5117C 38.3887 35.8997 39.5671 35.5938 41.084 35.5938L 42.8418 35.5938L 42.8418 34.7637C 42.8418 34.1322 42.653 33.6309 42.2754 33.2598C 41.8978 32.8822 41.3411 32.6934 40.6055 32.6934C 39.9609 32.6934 39.4206 32.8561 38.9844 33.1816C 38.5482 33.5072 38.3301 33.901 38.3301 34.3633L 36.5137 34.3633C 36.5137 33.8359 36.6992 33.3281 37.0703 32.8398C 37.4479 32.3451 37.9557 31.9544 38.5938 31.668C 39.2383 31.3815 39.9447 31.2383 40.7129 31.2383C 41.9303 31.2383 42.8841 31.5443 43.5742 32.1562C 44.2643 32.7617 44.6224 33.5983 44.6484 34.666L 44.6484 39.5293C 44.6484 40.4993 44.7721 41.2708 45.0195 41.8438L 45.0195 42L 43.125 42ZM 40.127 40.623C 40.6934 40.623 41.2305 40.4766 41.7383 40.1836C 42.2461 39.8906 42.6139 39.5098 42.8418 39.041L 42.8418 36.873L 41.4258 36.873C 39.2122 36.873 38.1055 37.5208 38.1055 38.8164C 38.1055 39.3828 38.2943 39.8255 38.6719 40.1445C 39.0495 40.4635 39.5345 40.623 40.127 40.623ZM 58.5938 39.1973C 58.5938 38.709 58.4082 38.3314 58.0371 38.0645C 57.6725 37.791 57.0312 37.5566 56.1133 37.3613C 55.2018 37.166 54.4759 36.9316 53.9355 36.6582C 53.4017 36.3848 53.0046 36.0592 52.7441 35.6816C 52.4902 35.304 52.3633 34.8548 52.3633 34.334C 52.3633 33.4681 52.7279 32.7357 53.457 32.1367C 54.1927 31.5378 55.1302 31.2383 56.2695 31.2383C 57.4674 31.2383 58.4375 31.5475 59.1797 32.166C 59.9284 32.7845 60.3027 33.5755 60.3027 34.5391L 58.4863 34.5391C 58.4863 34.0443 58.2747 33.6178 57.8516 33.2598C 57.4349 32.9017 56.9076 32.7227 56.2695 32.7227C 55.612 32.7227 55.0977 32.8659 54.7266 33.1523C 54.3555 33.4388 54.1699 33.8132 54.1699 34.2754C 54.1699 34.7116 54.3424 35.0404 54.6875 35.2617C 55.0326 35.4831 55.6543 35.6947 56.5527 35.8965C 57.4577 36.0983 58.1901 36.3392 58.75 36.6191C 59.3099 36.8991 59.7233 37.2376 59.9902 37.6348C 60.2637 38.0254 60.4004 38.5039 60.4004 39.0703C 60.4004 40.0143 60.0228 40.7728 59.2676 41.3457C 58.5124 41.9121 57.5326 42.1953 56.3281 42.1953C 55.4818 42.1953 54.7331 42.0456 54.082 41.7461C 53.431 41.4466 52.9199 41.0299 52.5488 40.4961C 52.1842 39.9557 52.002 39.373 52.002 38.748L 53.8086 38.748C 53.8411 39.3535 54.082 39.8353 54.5312 40.1934C 54.987 40.5449 55.5859 40.7207 56.3281 40.7207C 57.0117 40.7207 57.5586 40.584 57.9688 40.3105C 58.3854 40.0306 58.5938 39.6595 58.5938 39.1973ZM 66.2109 39.3535L 68.6719 31.4336L 70.6055 31.4336L 66.3574 43.6309C 65.6999 45.3887 64.6549 46.2676 63.2227 46.2676L 62.8809 46.2383L 62.207 46.1113L 62.207 44.6465L 62.6953 44.6855C 63.3073 44.6855 63.7826 44.5618 64.1211 44.3145C 64.4661 44.0671 64.7493 43.6146 64.9707 42.957L 65.3711 41.8828L 61.6016 31.4336L 63.5742 31.4336L 66.2109 39.3535ZM 78.3789 39.1973C 78.3789 38.709 78.1934 38.3314 77.8223 38.0645C 77.4577 37.791 76.8164 37.5566 75.8984 37.3613C 74.987 37.166 74.2611 36.9316 73.7207 36.6582C 73.1868 36.3848 72.7897 36.0592 72.5293 35.6816C 72.2754 35.304 72.1484 34.8548 72.1484 34.334C 72.1484 33.4681 72.513 32.7357 73.2422 32.1367C 73.9779 31.5378 74.9154 31.2383 76.0547 31.2383C 77.2526 31.2383 78.2227 31.5475 78.9648 32.166C 79.7135 32.7845 80.0879 33.5755 80.0879 34.5391L 78.2715 34.5391C 78.2715 34.0443 78.0599 33.6178 77.6367 33.2598C 77.2201 32.9017 76.6927 32.7227 76.0547 32.7227C 75.3971 32.7227 74.8828 32.8659 74.5117 33.1523C 74.1406 33.4388 73.9551 33.8132 73.9551 34.2754C 73.9551 34.7116 74.1276 35.0404 74.4727 35.2617C 74.8177 35.4831 75.4395 35.6947 76.3379 35.8965C 77.2428 36.0983 77.9753 36.3392 78.5352 36.6191C 79.0951 36.8991 79.5085 37.2376 79.7754 37.6348C 80.0488 38.0254 80.1855 38.5039 80.1855 39.0703C 80.1855 40.0143 79.8079 40.7728 79.0527 41.3457C 78.2975 41.9121 77.3177 42.1953 76.1133 42.1953C 75.2669 42.1953 74.5182 42.0456 73.8672 41.7461C 73.2161 41.4466 72.7051 41.0299 72.334 40.4961C 71.9694 39.9557 71.7871 39.373 71.7871 38.748L 73.5938 38.748C 73.6263 39.3535 73.8672 39.8353 74.3164 40.1934C 74.7721 40.5449 75.3711 40.7207 76.1133 40.7207C 76.7969 40.7207 77.3438 40.584 77.7539 40.3105C 78.1706 40.0306 78.3789 39.6595 78.3789 39.1973ZM 84.9902 28.875L 84.9902 31.4336L 86.9629 31.4336L 86.9629 32.8301L 84.9902 32.8301L 84.9902 39.3828C 84.9902 39.806 85.0781 40.125 85.2539 40.3398C 85.4297 40.5482 85.7292 40.6523 86.1523 40.6523C 86.3607 40.6523 86.6471 40.6133 87.0117 40.5352L 87.0117 42C 86.5365 42.1302 86.0742 42.1953 85.625 42.1953C 84.8177 42.1953 84.209 41.9512 83.7988 41.4629C 83.3887 40.9746 83.1836 40.2812 83.1836 39.3828L 83.1836 32.8301L 81.2598 32.8301L 81.2598 31.4336L 83.1836 31.4336L 83.1836 28.875L 84.9902 28.875ZM 93.4668 42.1953C 92.0345 42.1953 90.8691 41.7266 89.9707 40.7891C 89.0723 39.8451 88.623 38.5853 88.623 37.0098L 88.623 36.6777C 88.623 35.6296 88.8216 34.6953 89.2188 33.875C 89.6224 33.0482 90.1823 32.4036 90.8984 31.9414C 91.6211 31.4727 92.4023 31.2383 93.2422 31.2383C 94.6159 31.2383 95.6836 31.6908 96.4453 32.5957C 97.207 33.5007 97.5879 34.7962 97.5879 36.4824L 97.5879 37.2344L 90.4297 37.2344C 90.4557 38.276 90.7585 39.1191 91.3379 39.7637C 91.9238 40.4017 92.666 40.7207 93.5645 40.7207C 94.2025 40.7207 94.7428 40.5905 95.1855 40.3301C 95.6283 40.0697 96.0156 39.7246 96.3477 39.2949L 97.4512 40.1543C 96.5658 41.515 95.2376 42.1953 93.4668 42.1953ZM 93.2422 32.7227C 92.513 32.7227 91.901 32.9896 91.4062 33.5234C 90.9115 34.0508 90.6055 34.793 90.4883 35.75L 95.7812 35.75L 95.7812 35.6133C 95.7292 34.6953 95.4818 33.9857 95.0391 33.4844C 94.5964 32.9766 93.9974 32.7227 93.2422 32.7227ZM 101.387 31.4336L 101.436 32.6055C 102.21 31.694 103.255 31.2383 104.57 31.2383C 106.048 31.2383 107.054 31.8047 107.588 32.9375C 107.939 32.4297 108.395 32.0195 108.955 31.707C 109.521 31.3945 110.189 31.2383 110.957 31.2383C 113.275 31.2383 114.453 32.4655 114.492 34.9199L 114.492 42L 112.686 42L 112.686 35.0273C 112.686 34.2721 112.513 33.709 112.168 33.3379C 111.823 32.9603 111.243 32.7715 110.43 32.7715C 109.759 32.7715 109.202 32.9733 108.76 33.377C 108.317 33.7741 108.06 34.3112 107.988 34.9883L 107.988 42L 106.172 42L 106.172 35.0762C 106.172 33.5397 105.42 32.7715 103.916 32.7715C 102.731 32.7715 101.921 33.276 101.484 34.2852L 101.484 42L 99.6777 42L 99.6777 31.4336L 101.387 31.4336ZM 0.927734 59.6289C 0.927734 58.0078 1.31185 56.7057 2.08008 55.7227C 2.84831 54.7331 3.85417 54.2383 5.09766 54.2383C 6.33464 54.2383 7.31445 54.6615 8.03711 55.5078L 8.03711 50L 9.84375 50L 9.84375 65L 8.18359 65L 8.0957 63.8672C 7.37305 64.7526 6.36719 65.1953 5.07812 65.1953C 3.85417 65.1953 2.85482 64.694 2.08008 63.6914C 1.31185 62.6888 0.927734 61.3802 0.927734 59.7656L 0.927734 59.6289ZM 2.73438 59.834C 2.73438 61.0319 2.98177 61.9694 3.47656 62.6465C 3.97135 63.3236 4.65495 63.6621 5.52734 63.6621C 6.67318 63.6621 7.50977 63.1478 8.03711 62.1191L 8.03711 57.2656C 7.49674 56.2695 6.66667 55.7715 5.54688 55.7715C 4.66146 55.7715 3.97135 56.1133 3.47656 56.7969C 2.98177 57.4805 2.73438 58.4928 2.73438 59.834ZM 17.041 65.1953C 15.6087 65.1953 14.4434 64.7266 13.5449 63.7891C 12.6465 62.8451 12.1973 61.5853 12.1973 60.0098L 12.1973 59.6777C 12.1973 58.6296 12.3958 57.6953 12.793 56.875C 13.1966 56.0482 13.7565 55.4036 14.4727 54.9414C 15.1953 54.4727 15.9766 54.2383 16.8164 54.2383C 18.1901 54.2383 19.2578 54.6908 20.0195 55.5957C 20.7812 56.5007 21.1621 57.7962 21.1621 59.4824L 21.1621 60.2344L 14.0039 60.2344C 14.0299 61.276 14.3327 62.1191 14.9121 62.7637C 15.498 63.4017 16.2402 63.7207 17.1387 63.7207C 17.7767 63.7207 18.3171 63.5905 18.7598 63.3301C 19.2025 63.0697 19.5898 62.7246 19.9219 62.2949L 21.0254 63.1543C 20.14 64.515 18.8118 65.1953 17.041 65.1953ZM 16.8164 55.7227C 16.0872 55.7227 15.4753 55.9896 14.9805 56.5234C 14.4857 57.0508 14.1797 57.793 14.0625 58.75L 19.3555 58.75L 19.3555 58.6133C 19.3034 57.6953 19.056 56.9857 18.6133 56.4844C 18.1706 55.9766 17.5716 55.7227 16.8164 55.7227ZM 26.6113 62.5488L 29.2285 54.4336L 31.0742 54.4336L 27.2852 65L 25.9082 65L 22.0801 54.4336L 23.9258 54.4336L 26.6113 62.5488ZM 37.0605 65.1953C 35.6283 65.1953 34.4629 64.7266 33.5645 63.7891C 32.666 62.8451 32.2168 61.5853 32.2168 60.0098L 32.2168 59.6777C 32.2168 58.6296 32.4154 57.6953 32.8125 56.875C 33.2161 56.0482 33.776 55.4036 34.4922 54.9414C 35.2148 54.4727 35.9961 54.2383 36.8359 54.2383C 38.2096 54.2383 39.2773 54.6908 40.0391 55.5957C 40.8008 56.5007 41.1816 57.7962 41.1816 59.4824L 41.1816 60.2344L 34.0234 60.2344C 34.0495 61.276 34.3522 62.1191 34.9316 62.7637C 35.5176 63.4017 36.2598 63.7207 37.1582 63.7207C 37.7962 63.7207 38.3366 63.5905 38.7793 63.3301C 39.222 63.0697 39.6094 62.7246 39.9414 62.2949L 41.0449 63.1543C 40.1595 64.515 38.8314 65.1953 37.0605 65.1953ZM 36.8359 55.7227C 36.1068 55.7227 35.4948 55.9896 35 56.5234C 34.5052 57.0508 34.1992 57.793 34.082 58.75L 39.375 58.75L 39.375 58.6133C 39.3229 57.6953 39.0755 56.9857 38.6328 56.4844C 38.1901 55.9766 37.5911 55.7227 36.8359 55.7227ZM 45.2441 65L 43.4375 65L 43.4375 50L 45.2441 50L 45.2441 65ZM 47.666 59.6191C 47.666 58.584 47.8678 57.653 48.2715 56.8262C 48.6816 55.9993 49.248 55.3613 49.9707 54.9121C 50.6999 54.4629 51.5299 54.2383 52.4609 54.2383C 53.8997 54.2383 55.0618 54.7363 55.9473 55.7324C 56.8392 56.7285 57.2852 58.0534 57.2852 59.707L 57.2852 59.834C 57.2852 60.8626 57.0866 61.7871 56.6895 62.6074C 56.2988 63.4212 55.7357 64.056 55 64.5117C 54.2708 64.9674 53.431 65.1953 52.4805 65.1953C 51.0482 65.1953 49.8861 64.6973 48.9941 63.7012C 48.1087 62.7051 47.666 61.3867 47.666 59.7461L 47.666 59.6191ZM 49.4824 59.834C 49.4824 61.0059 49.7526 61.9466 50.293 62.6562C 50.8398 63.3659 51.569 63.7207 52.4805 63.7207C 53.3984 63.7207 54.1276 63.3626 54.668 62.6465C 55.2083 61.9238 55.4785 60.9147 55.4785 59.6191C 55.4785 58.4603 55.2018 57.5228 54.6484 56.8066C 54.1016 56.084 53.3724 55.7227 52.4609 55.7227C 51.569 55.7227 50.8496 56.0775 50.3027 56.7871C 49.7559 57.4967 49.4824 58.5124 49.4824 59.834ZM 68.4766 59.834C 68.4766 61.4421 68.1087 62.7376 67.373 63.7207C 66.6374 64.7038 65.6413 65.1953 64.3848 65.1953C 63.1022 65.1953 62.0931 64.7884 61.3574 63.9746L 61.3574 69.0625L 59.5508 69.0625L 59.5508 54.4336L 61.2012 54.4336L 61.2891 55.6055C 62.0247 54.694 63.0469 54.2383 64.3555 54.2383C 65.625 54.2383 66.6276 54.7168 67.3633 55.6738C 68.1055 56.6309 68.4766 57.9622 68.4766 59.668L 68.4766 59.834ZM 66.6699 59.6289C 66.6699 58.4375 66.416 57.4967 65.9082 56.8066C 65.4004 56.1165 64.7038 55.7715 63.8184 55.7715C 62.7246 55.7715 61.9043 56.2565 61.3574 57.2266L 61.3574 62.2754C 61.8978 63.2389 62.7246 63.7207 63.8379 63.7207C 64.7038 63.7207 65.3906 63.3789 65.8984 62.6953C 66.4128 62.0052 66.6699 60.9831 66.6699 59.6289ZM 75.166 65.1953C 73.7337 65.1953 72.5684 64.7266 71.6699 63.7891C 70.7715 62.8451 70.3223 61.5853 70.3223 60.0098L 70.3223 59.6777C 70.3223 58.6296 70.5208 57.6953 70.918 56.875C 71.3216 56.0482 71.8815 55.4036 72.5977 54.9414C 73.3203 54.4727 74.1016 54.2383 74.9414 54.2383C 76.3151 54.2383 77.3828 54.6908 78.1445 55.5957C 78.9062 56.5007 79.2871 57.7962 79.2871 59.4824L 79.2871 60.2344L 72.1289 60.2344C 72.1549 61.276 72.4577 62.1191 73.0371 62.7637C 73.623 63.4017 74.3652 63.7207 75.2637 63.7207C 75.9017 63.7207 76.4421 63.5905 76.8848 63.3301C 77.3275 63.0697 77.7148 62.7246 78.0469 62.2949L 79.1504 63.1543C 78.265 64.515 76.9368 65.1953 75.166 65.1953ZM 74.9414 55.7227C 74.2122 55.7227 73.6003 55.9896 73.1055 56.5234C 72.6107 57.0508 72.3047 57.793 72.1875 58.75L 77.4805 58.75L 77.4805 58.6133C 77.4284 57.6953 77.181 56.9857 76.7383 56.4844C 76.2956 55.9766 75.6966 55.7227 74.9414 55.7227ZM 80.9473 59.6289C 80.9473 58.0078 81.3314 56.7057 82.0996 55.7227C 82.8678 54.7331 83.8737 54.2383 85.1172 54.2383C 86.3542 54.2383 87.334 54.6615 88.0566 55.5078L 88.0566 50L 89.8633 50L 89.8633 65L 88.2031 65L 88.1152 63.8672C 87.3926 64.7526 86.3867 65.1953 85.0977 65.1953C 83.8737 65.1953 82.8743 64.694 82.0996 63.6914C 81.3314 62.6888 80.9473 61.3802 80.9473 59.7656L 80.9473 59.6289ZM 82.7539 59.834C 82.7539 61.0319 83.0013 61.9694 83.4961 62.6465C 83.9909 63.3236 84.6745 63.6621 85.5469 63.6621C 86.6927 63.6621 87.5293 63.1478 88.0566 62.1191L 88.0566 57.2656C 87.5163 56.2695 86.6862 55.7715 85.5664 55.7715C 84.681 55.7715 83.9909 56.1133 83.4961 56.7969C 83.0013 57.4805 82.7539 58.4928 82.7539 59.834ZM 99.5996 65L 97.793 65L 97.793 54.4336L 99.5996 54.4336L 99.5996 65ZM 97.6465 51.6309C 97.6465 51.3379 97.7344 51.0905 97.9102 50.8887C 98.0924 50.6868 98.3594 50.5859 98.7109 50.5859C 99.0625 50.5859 99.3294 50.6868 99.5117 50.8887C 99.694 51.0905 99.7852 51.3379 99.7852 51.6309C 99.7852 51.9238 99.694 52.168 99.5117 52.3633C 99.3294 52.5586 99.0625 52.6562 98.7109 52.6562C 98.3594 52.6562 98.0924 52.5586 97.9102 52.3633C 97.7344 52.168 97.6465 51.9238 97.6465 51.6309ZM 104.209 54.4336L 104.268 55.7617C 105.075 54.7461 106.13 54.2383 107.432 54.2383C 109.665 54.2383 110.791 55.498 110.811 58.0176L 110.811 65L 109.004 65L 109.004 58.0078C 108.997 57.2461 108.822 56.6829 108.477 56.3184C 108.138 55.9538 107.607 55.7715 106.885 55.7715C 106.299 55.7715 105.785 55.9277 105.342 56.2402C 104.899 56.5527 104.554 56.9629 104.307 57.4707L 104.307 65L 102.5 65L 102.5 54.4336L 104.209 54.4336ZM 120.303 55.7129C 121.104 54.7298 122.145 54.2383 123.428 54.2383C 125.661 54.2383 126.787 55.498 126.807 58.0176L 126.807 65L 125 65L 125 58.0078C 124.993 57.2461 124.818 56.6829 124.473 56.3184C 124.134 55.9538 123.604 55.7715 122.881 55.7715C 122.295 55.7715 121.781 55.9277 121.338 56.2402C 120.895 56.5527 120.55 56.9629 120.303 57.4707L 120.303 65L 118.496 65L 118.496 50L 120.303 50L 120.303 55.7129ZM 136.035 65C 135.931 64.7917 135.846 64.4206 135.781 63.8867C 134.941 64.7591 133.939 65.1953 132.773 65.1953C 131.732 65.1953 130.876 64.9023 130.205 64.3164C 129.541 63.724 129.209 62.9753 129.209 62.0703C 129.209 60.9701 129.626 60.1172 130.459 59.5117C 131.299 58.8997 132.477 58.5938 133.994 58.5938L 135.752 58.5938L 135.752 57.7637C 135.752 57.1322 135.563 56.6309 135.186 56.2598C 134.808 55.8822 134.251 55.6934 133.516 55.6934C 132.871 55.6934 132.331 55.8561 131.895 56.1816C 131.458 56.5072 131.24 56.901 131.24 57.3633L 129.424 57.3633C 129.424 56.8359 129.609 56.3281 129.98 55.8398C 130.358 55.3451 130.866 54.9544 131.504 54.668C 132.148 54.3815 132.855 54.2383 133.623 54.2383C 134.84 54.2383 135.794 54.5443 136.484 55.1562C 137.174 55.7617 137.533 56.5983 137.559 57.666L 137.559 62.5293C 137.559 63.4993 137.682 64.2708 137.93 64.8438L 137.93 65L 136.035 65ZM 133.037 63.623C 133.604 63.623 134.141 63.4766 134.648 63.1836C 135.156 62.8906 135.524 62.5098 135.752 62.041L 135.752 59.873L 134.336 59.873C 132.122 59.873 131.016 60.5208 131.016 61.8164C 131.016 62.3828 131.204 62.8255 131.582 63.1445C 131.96 63.4635 132.445 63.623 133.037 63.623ZM 146.543 62.1973C 146.543 61.709 146.357 61.3314 145.986 61.0645C 145.622 60.791 144.98 60.5566 144.062 60.3613C 143.151 60.166 142.425 59.9316 141.885 59.6582C 141.351 59.3848 140.954 59.0592 140.693 58.6816C 140.439 58.304 140.312 57.8548 140.312 57.334C 140.312 56.4681 140.677 55.7357 141.406 55.1367C 142.142 54.5378 143.079 54.2383 144.219 54.2383C 145.417 54.2383 146.387 54.5475 147.129 55.166C 147.878 55.7845 148.252 56.5755 148.252 57.5391L 146.436 57.5391C 146.436 57.0443 146.224 56.6178 145.801 56.2598C 145.384 55.9017 144.857 55.7227 144.219 55.7227C 143.561 55.7227 143.047 55.8659 142.676 56.1523C 142.305 56.4388 142.119 56.8132 142.119 57.2754C 142.119 57.7116 142.292 58.0404 142.637 58.2617C 142.982 58.4831 143.604 58.6947 144.502 58.8965C 145.407 59.0983 146.139 59.3392 146.699 59.6191C 147.259 59.8991 147.673 60.2376 147.939 60.6348C 148.213 61.0254 148.35 61.5039 148.35 62.0703C 148.35 63.0143 147.972 63.7728 147.217 64.3457C 146.462 64.9121 145.482 65.1953 144.277 65.1953C 143.431 65.1953 142.682 65.0456 142.031 64.7461C 141.38 64.4466 140.869 64.0299 140.498 63.4961C 140.133 62.9557 139.951 62.373 139.951 61.748L 141.758 61.748C 141.79 62.3535 142.031 62.8353 142.48 63.1934C 142.936 63.5449 143.535 63.7207 144.277 63.7207C 144.961 63.7207 145.508 63.584 145.918 63.3105C 146.335 63.0306 146.543 62.6595 146.543 62.1973ZM 153.154 51.875L 153.154 54.4336L 155.127 54.4336L 155.127 55.8301L 153.154 55.8301L 153.154 62.3828C 153.154 62.806 153.242 63.125 153.418 63.3398C 153.594 63.5482 153.893 63.6523 154.316 63.6523C 154.525 63.6523 154.811 63.6133 155.176 63.5352L 155.176 65C 154.701 65.1302 154.238 65.1953 153.789 65.1953C 152.982 65.1953 152.373 64.9512 151.963 64.4629C 151.553 63.9746 151.348 63.2812 151.348 62.3828L 151.348 55.8301L 149.424 55.8301L 149.424 54.4336L 151.348 54.4336L 151.348 51.875L 153.154 51.875ZM 161.631 65.1953C 160.199 65.1953 159.033 64.7266 158.135 63.7891C 157.236 62.8451 156.787 61.5853 156.787 60.0098L 156.787 59.6777C 156.787 58.6296 156.986 57.6953 157.383 56.875C 157.786 56.0482 158.346 55.4036 159.062 54.9414C 159.785 54.4727 160.566 54.2383 161.406 54.2383C 162.78 54.2383 163.848 54.6908 164.609 55.5957C 165.371 56.5007 165.752 57.7962 165.752 59.4824L 165.752 60.2344L 158.594 60.2344C 158.62 61.276 158.923 62.1191 159.502 62.7637C 160.088 63.4017 160.83 63.7207 161.729 63.7207C 162.367 63.7207 162.907 63.5905 163.35 63.3301C 163.792 63.0697 164.18 62.7246 164.512 62.2949L 165.615 63.1543C 164.73 64.515 163.402 65.1953 161.631 65.1953ZM 161.406 55.7227C 160.677 55.7227 160.065 55.9896 159.57 56.5234C 159.076 57.0508 158.77 57.793 158.652 58.75L 163.945 58.75L 163.945 58.6133C 163.893 57.6953 163.646 56.9857 163.203 56.4844C 162.76 55.9766 162.161 55.7227 161.406 55.7227ZM 167.891 64.0527C 167.891 63.7402 167.982 63.4798 168.164 63.2715C 168.353 63.0632 168.633 62.959 169.004 62.959C 169.375 62.959 169.655 63.0632 169.844 63.2715C 170.039 63.4798 170.137 63.7402 170.137 64.0527C 170.137 64.3522 170.039 64.6029 169.844 64.8047C 169.655 65.0065 169.375 65.1074 169.004 65.1074C 168.633 65.1074 168.353 65.0065 168.164 64.8047C 167.982 64.6029 167.891 64.3522 167.891 64.0527Z"/>
<path id="path3_fill" d="M 4.24219 20.1602L 12.3281 20.1602L 12.3281 22L 1.98047 22L 1.98047 4.9375L 4.24219 4.9375L 4.24219 20.1602ZM 19.8164 22.2344C 18.0977 22.2344 16.6992 21.6719 15.6211 20.5469C 14.543 19.4141 14.0039 17.9023 14.0039 16.0117L 14.0039 15.6133C 14.0039 14.3555 14.2422 13.2344 14.7188 12.25C 15.2031 11.2578 15.875 10.4844 16.7344 9.92969C 17.6016 9.36719 18.5391 9.08594 19.5469 9.08594C 21.1953 9.08594 22.4766 9.62891 23.3906 10.7148C 24.3047 11.8008 24.7617 13.3555 24.7617 15.3789L 24.7617 16.2812L 16.1719 16.2812C 16.2031 17.5312 16.5664 18.543 17.2617 19.3164C 17.9648 20.082 18.8555 20.4648 19.9336 20.4648C 20.6992 20.4648 21.3477 20.3086 21.8789 19.9961C 22.4102 19.6836 22.875 19.2695 23.2734 18.7539L 24.5977 19.7852C 23.5352 21.418 21.9414 22.2344 19.8164 22.2344ZM 19.5469 10.8672C 18.6719 10.8672 17.9375 11.1875 17.3438 11.8281C 16.75 12.4609 16.3828 13.3516 16.2422 14.5L 22.5938 14.5L 22.5938 14.3359C 22.5313 13.2344 22.2344 12.3828 21.7031 11.7812C 21.1719 11.1719 20.4531 10.8672 19.5469 10.8672ZM 30.2227 6.25L 30.2227 9.32031L 32.5898 9.32031L 32.5898 10.9961L 30.2227 10.9961L 30.2227 18.8594C 30.2227 19.3672 30.3281 19.75 30.5391 20.0078C 30.75 20.2578 31.1094 20.3828 31.6172 20.3828C 31.8672 20.3828 32.2109 20.3359 32.6484 20.2422L 32.6484 22C 32.0781 22.1562 31.5234 22.2344 30.9844 22.2344C 30.0156 22.2344 29.2852 21.9414 28.793 21.3555C 28.3008 20.7695 28.0547 19.9375 28.0547 18.8594L 28.0547 10.9961L 25.7461 10.9961L 25.7461 9.32031L 28.0547 9.32031L 28.0547 6.25L 30.2227 6.25ZM 36.457 5.30078L 36.2109 9.61328L 34.6992 9.61328L 34.7109 4L 36.457 4L 36.457 5.30078ZM 45.7734 18.6367C 45.7734 18.0508 45.5508 17.5977 45.1055 17.2773C 44.668 16.9492 43.8984 16.668 42.7969 16.4336C 41.7031 16.1992 40.832 15.918 40.1836 15.5898C 39.543 15.2617 39.0664 14.8711 38.7539 14.418C 38.4492 13.9648 38.2969 13.4258 38.2969 12.8008C 38.2969 11.7617 38.7344 10.8828 39.6094 10.1641C 40.4922 9.44531 41.6172 9.08594 42.9844 9.08594C 44.4219 9.08594 45.5859 9.45703 46.4766 10.1992C 47.375 10.9414 47.8242 11.8906 47.8242 13.0469L 45.6445 13.0469C 45.6445 12.4531 45.3906 11.9414 44.8828 11.5117C 44.3828 11.082 43.75 10.8672 42.9844 10.8672C 42.1953 10.8672 41.5781 11.0391 41.1328 11.3828C 40.6875 11.7266 40.4648 12.1758 40.4648 12.7305C 40.4648 13.2539 40.6719 13.6484 41.0859 13.9141C 41.5 14.1797 42.2461 14.4336 43.3242 14.6758C 44.4102 14.918 45.2891 15.207 45.9609 15.543C 46.6328 15.8789 47.1289 16.2852 47.4492 16.7617C 47.7773 17.2305 47.9414 17.8047 47.9414 18.4844C 47.9414 19.6172 47.4883 20.5273 46.582 21.2148C 45.6758 21.8945 44.5 22.2344 43.0547 22.2344C 42.0391 22.2344 41.1406 22.0547 40.3594 21.6953C 39.5781 21.3359 38.9648 20.8359 38.5195 20.1953C 38.082 19.5469 37.8633 18.8477 37.8633 18.0977L 40.0312 18.0977C 40.0703 18.8242 40.3594 19.4023 40.8984 19.832C 41.4453 20.2539 42.1641 20.4648 43.0547 20.4648C 43.875 20.4648 44.5312 20.3008 45.0234 19.9727C 45.5234 19.6367 45.7734 19.1914 45.7734 18.6367ZM 58.7578 9.32031L 58.8164 10.7266C 59.7461 9.63281 61 9.08594 62.5781 9.08594C 64.3516 9.08594 65.5586 9.76562 66.1992 11.125C 66.6211 10.5156 67.168 10.0234 67.8398 9.64844C 68.5195 9.27344 69.3203 9.08594 70.2422 9.08594C 73.0234 9.08594 74.4375 10.5586 74.4844 13.5039L 74.4844 22L 72.3164 22L 72.3164 13.6328C 72.3164 12.7266 72.1094 12.0508 71.6953 11.6055C 71.2812 11.1523 70.5859 10.9258 69.6094 10.9258C 68.8047 10.9258 68.1367 11.168 67.6055 11.6523C 67.0742 12.1289 66.7656 12.7734 66.6797 13.5859L 66.6797 22L 64.5 22L 64.5 13.6914C 64.5 11.8477 63.5977 10.9258 61.793 10.9258C 60.3711 10.9258 59.3984 11.5313 58.875 12.7422L 58.875 22L 56.707 22L 56.707 9.32031L 58.7578 9.32031ZM 85.5938 22C 85.4687 21.75 85.3672 21.3047 85.2891 20.6641C 84.2812 21.7109 83.0781 22.2344 81.6797 22.2344C 80.4297 22.2344 79.4023 21.8828 78.5977 21.1797C 77.8008 20.4687 77.4023 19.5703 77.4023 18.4844C 77.4023 17.1641 77.9023 16.1406 78.9023 15.4141C 79.9102 14.6797 81.3242 14.3125 83.1445 14.3125L 85.2539 14.3125L 85.2539 13.3164C 85.2539 12.5586 85.0273 11.957 84.5742 11.5117C 84.1211 11.0586 83.4531 10.832 82.5703 10.832C 81.7969 10.832 81.1484 11.0273 80.625 11.418C 80.1016 11.8086 79.8398 12.2813 79.8398 12.8359L 77.6602 12.8359C 77.6602 12.2031 77.8828 11.5938 78.3281 11.0078C 78.7813 10.4141 79.3906 9.94531 80.1562 9.60156C 80.9297 9.25781 81.7773 9.08594 82.6992 9.08594C 84.1602 9.08594 85.3047 9.45313 86.1328 10.1875C 86.9609 10.9141 87.3906 11.918 87.4219 13.1992L 87.4219 19.0352C 87.4219 20.1992 87.5703 21.125 87.8672 21.8125L 87.8672 22L 85.5938 22ZM 81.9961 20.3477C 82.6758 20.3477 83.3203 20.1719 83.9297 19.8203C 84.5391 19.4688 84.9805 19.0117 85.2539 18.4492L 85.2539 15.8477L 83.5547 15.8477C 80.8984 15.8477 79.5703 16.625 79.5703 18.1797C 79.5703 18.8594 79.7969 19.3906 80.25 19.7734C 80.7031 20.1563 81.2852 20.3477 81.9961 20.3477ZM 94.3594 16.1289L 93 17.5469L 93 22L 90.832 22L 90.832 4L 93 4L 93 14.8867L 94.1602 13.4922L 98.1094 9.32031L 100.746 9.32031L 95.8125 14.6172L 101.32 22L 98.7773 22L 94.3594 16.1289ZM 108.012 22.2344C 106.293 22.2344 104.895 21.6719 103.816 20.5469C 102.738 19.4141 102.199 17.9023 102.199 16.0117L 102.199 15.6133C 102.199 14.3555 102.438 13.2344 102.914 12.25C 103.398 11.2578 104.07 10.4844 104.93 9.92969C 105.797 9.36719 106.734 9.08594 107.742 9.08594C 109.391 9.08594 110.672 9.62891 111.586 10.7148C 112.5 11.8008 112.957 13.3555 112.957 15.3789L 112.957 16.2812L 104.367 16.2812C 104.398 17.5312 104.762 18.543 105.457 19.3164C 106.16 20.082 107.051 20.4648 108.129 20.4648C 108.895 20.4648 109.543 20.3086 110.074 19.9961C 110.605 19.6836 111.07 19.2695 111.469 18.7539L 112.793 19.7852C 111.73 21.418 110.137 22.2344 108.012 22.2344ZM 107.742 10.8672C 106.867 10.8672 106.133 11.1875 105.539 11.8281C 104.945 12.4609 104.578 13.3516 104.438 14.5L 110.789 14.5L 110.789 14.3359C 110.727 13.2344 110.43 12.3828 109.898 11.7812C 109.367 11.1719 108.648 10.8672 107.742 10.8672ZM 123.785 22L 121.617 22L 121.617 9.32031L 123.785 9.32031L 123.785 22ZM 121.441 5.95703C 121.441 5.60547 121.547 5.30859 121.758 5.06641C 121.977 4.82422 122.297 4.70312 122.719 4.70312C 123.141 4.70312 123.461 4.82422 123.68 5.06641C 123.898 5.30859 124.008 5.60547 124.008 5.95703C 124.008 6.30859 123.898 6.60156 123.68 6.83594C 123.461 7.07031 123.141 7.1875 122.719 7.1875C 122.297 7.1875 121.977 7.07031 121.758 6.83594C 121.547 6.60156 121.441 6.30859 121.441 5.95703ZM 130.207 6.25L 130.207 9.32031L 132.574 9.32031L 132.574 10.9961L 130.207 10.9961L 130.207 18.8594C 130.207 19.3672 130.312 19.75 130.523 20.0078C 130.734 20.2578 131.094 20.3828 131.602 20.3828C 131.852 20.3828 132.195 20.3359 132.633 20.2422L 132.633 22C 132.062 22.1562 131.508 22.2344 130.969 22.2344C 130 22.2344 129.27 21.9414 128.777 21.3555C 128.285 20.7695 128.039 19.9375 128.039 18.8594L 128.039 10.9961L 125.73 10.9961L 125.73 9.32031L 128.039 9.32031L 128.039 6.25L 130.207 6.25ZM 147.199 11.2656C 146.871 11.2109 146.516 11.1836 146.133 11.1836C 144.711 11.1836 143.746 11.7891 143.238 13L 143.238 22L 141.07 22L 141.07 9.32031L 143.18 9.32031L 143.215 10.7852C 143.926 9.65234 144.934 9.08594 146.238 9.08594C 146.66 9.08594 146.98 9.14062 147.199 9.25L 147.199 11.2656ZM 151.559 22L 149.391 22L 149.391 9.32031L 151.559 9.32031L 151.559 22ZM 149.215 5.95703C 149.215 5.60547 149.32 5.30859 149.531 5.06641C 149.75 4.82422 150.07 4.70312 150.492 4.70312C 150.914 4.70312 151.234 4.82422 151.453 5.06641C 151.672 5.30859 151.781 5.60547 151.781 5.95703C 151.781 6.30859 151.672 6.60156 151.453 6.83594C 151.234 7.07031 150.914 7.1875 150.492 7.1875C 150.07 7.1875 149.75 7.07031 149.531 6.83594C 149.32 6.60156 149.215 6.30859 149.215 5.95703ZM 154.523 15.5547C 154.523 13.5781 154.98 12.0078 155.895 10.8438C 156.809 9.67188 158.02 9.08594 159.527 9.08594C 161.074 9.08594 162.281 9.63281 163.148 10.7266L 163.254 9.32031L 165.234 9.32031L 165.234 21.6953C 165.234 23.3359 164.746 24.6289 163.77 25.5742C 162.801 26.5195 161.496 26.9922 159.855 26.9922C 158.941 26.9922 158.047 26.7969 157.172 26.4062C 156.297 26.0156 155.629 25.4805 155.168 24.8008L 156.293 23.5C 157.223 24.6484 158.359 25.2227 159.703 25.2227C 160.758 25.2227 161.578 24.9258 162.164 24.332C 162.758 23.7383 163.055 22.9023 163.055 21.8242L 163.055 20.7344C 162.188 21.7344 161.004 22.2344 159.504 22.2344C 158.02 22.2344 156.816 21.6367 155.895 20.4414C 154.98 19.2461 154.523 17.6172 154.523 15.5547ZM 156.703 15.8008C 156.703 17.2305 156.996 18.3555 157.582 19.1758C 158.168 19.9883 158.988 20.3945 160.043 20.3945C 161.41 20.3945 162.414 19.7734 163.055 18.5312L 163.055 12.7422C 162.391 11.5313 161.395 10.9258 160.066 10.9258C 159.012 10.9258 158.187 11.3359 157.594 12.1562C 157 12.9766 156.703 14.1914 156.703 15.8008ZM 170.684 10.8555C 171.645 9.67578 172.895 9.08594 174.434 9.08594C 177.113 9.08594 178.465 10.5977 178.488 13.6211L 178.488 22L 176.32 22L 176.32 13.6094C 176.312 12.6953 176.102 12.0195 175.688 11.582C 175.281 11.1445 174.645 10.9258 173.777 10.9258C 173.074 10.9258 172.457 11.1133 171.926 11.4883C 171.395 11.8633 170.98 12.3555 170.684 12.9648L 170.684 22L 168.516 22L 168.516 4L 170.684 4L 170.684 10.8555ZM 184.676 6.25L 184.676 9.32031L 187.043 9.32031L 187.043 10.9961L 184.676 10.9961L 184.676 18.8594C 184.676 19.3672 184.781 19.75 184.992 20.0078C 185.203 20.2578 185.562 20.3828 186.07 20.3828C 186.32 20.3828 186.664 20.3359 187.102 20.2422L 187.102 22C 186.531 22.1562 185.977 22.2344 185.438 22.2344C 184.469 22.2344 183.738 21.9414 183.246 21.3555C 182.754 20.7695 182.508 19.9375 182.508 18.8594L 182.508 10.9961L 180.199 10.9961L 180.199 9.32031L 182.508 9.32031L 182.508 6.25L 184.676 6.25ZM 192.012 17.1836L 190.055 17.1836L 189.902 4.9375L 192.176 4.9375L 192.012 17.1836ZM 189.82 20.9102C 189.82 20.5586 189.926 20.2656 190.137 20.0312C 190.355 19.7891 190.676 19.668 191.098 19.668C 191.52 19.668 191.84 19.7891 192.059 20.0312C 192.277 20.2656 192.387 20.5586 192.387 20.9102C 192.387 21.2617 192.277 21.5547 192.059 21.7891C 191.84 22.0156 191.52 22.1289 191.098 22.1289C 190.676 22.1289 190.355 22.0156 190.137 21.7891C 189.926 21.5547 189.82 21.2617 189.82 20.9102Z"/>
<path id="path4_fill" d="M 19.5 39C 30.2696 39 39 30.2696 39 19.5C 39 8.73045 30.2696 0 19.5 0C 8.73045 0 0 8.73045 0 19.5C 0 30.2696 8.73045 39 19.5 39Z"/>
<path id="path5_fill" d="M 22.0001 0C 9.86921 0 0 9.86913 0 22C 0 34.1309 9.86921 44 22.0001 44C 34.1309 44 44 34.1309 44 22C 44 9.86913 34.1309 0 22.0001 0ZM 22.0001 40.3934C 11.8579 40.3934 3.60653 32.1424 3.60653 22C 3.60653 11.8578 11.8579 3.60656 22.0001 3.60656C 32.1423 3.60656 40.3935 11.8578 40.3935 22C 40.3935 32.1424 32.1423 40.3934 22.0001 40.3934Z"/>
<path id="path6_fill" d="M 19.5165 10.1217C 19.5165 4.54057 15.139 1.5202e-23 9.75829 1.5202e-23C 4.37759 1.5202e-23 3.0404e-23 4.54057 3.0404e-23 10.1217C 3.0404e-23 10.4532 0.259147 10.722 0.578778 10.722C 0.898408 10.722 1.15756 10.4532 1.15756 10.1217C 1.15756 5.20261 5.01581 1.20071 9.75824 1.20071C 14.5007 1.20071 18.3589 5.20265 18.3589 10.1217C 18.3589 15.0407 14.5007 19.0426 9.75824 19.0426L 8.7541 19.0426L 10.1899 17.3756C 10.4029 17.1283 10.3822 16.7488 10.1439 16.5279C 9.90553 16.307 9.53956 16.3284 9.32662 16.5757L 7.27415 18.9587C 6.93817 19.3488 6.93817 19.9371 7.27415 20.3273L 9.32662 22.7103C 9.44099 22.8431 9.59936 22.9107 9.75846 22.9107C 9.89569 22.9107 10.0335 22.8603 10.1439 22.7581C 10.3823 22.5372 10.4029 22.1576 10.1899 21.9104L 8.7541 20.2433L 9.75824 20.2433C 15.139 20.2433 19.5165 15.7027 19.5165 10.1217Z"/>
<path id="path7_stroke" d="M 8.7541 19.0426L 8.37525 18.7163L 7.66357 19.5426L 8.7541 19.5426L 8.7541 19.0426ZM 10.1899 17.3756L 9.8111 17.0492L 9.81106 17.0493L 10.1899 17.3756ZM 10.1439 16.5279L 10.4838 16.1612L 10.1439 16.5279ZM 9.32662 16.5757L 8.94777 16.2494L 8.94777 16.2494L 9.32662 16.5757ZM 7.27415 18.9587L 6.8953 18.6324L 6.89529 18.6324L 7.27415 18.9587ZM 7.27415 20.3273L 6.89529 20.6535L 6.8953 20.6536L 7.27415 20.3273ZM 9.32662 22.7103L 9.7055 22.384L 9.70547 22.384L 9.32662 22.7103ZM 10.1439 22.7581L 10.4836 23.125L 10.4837 23.1248L 10.1439 22.7581ZM 10.1899 21.9104L 9.81106 22.2367L 9.8111 22.2367L 10.1899 21.9104ZM 8.7541 20.2433L 8.7541 19.7433L 7.66357 19.7433L 8.37525 20.5696L 8.7541 20.2433ZM 20.0165 10.1217C 20.0165 4.28182 15.4322 -0.5 9.75829 -0.5L 9.75829 0.5C 14.8458 0.5 19.0165 4.79932 19.0165 10.1217L 20.0165 10.1217ZM 9.75829 -0.5C 4.08437 -0.5 -0.5 4.28182 -0.5 10.1217L 0.5 10.1217C 0.5 4.79933 4.6708 0.5 9.75829 0.5L 9.75829 -0.5ZM -0.5 10.1217C -0.5 10.712 -0.0340689 11.222 0.578778 11.222L 0.578778 10.222C 0.552363 10.222 0.5 10.1945 0.5 10.1217L -0.5 10.1217ZM 0.578778 11.222C 1.19165 11.222 1.65756 10.7119 1.65756 10.1217L 0.657555 10.1217C 0.657555 10.1945 0.605168 10.222 0.578778 10.222L 0.578778 11.222ZM 1.65756 10.1217C 1.65756 5.46136 5.30903 1.70071 9.75824 1.70071L 9.75824 0.700709C 4.7226 0.700709 0.657555 4.94386 0.657555 10.1217L 1.65756 10.1217ZM 9.75824 1.70071C 14.2075 1.70071 17.8589 5.46141 17.8589 10.1217L 18.8589 10.1217C 18.8589 4.9439 14.7939 0.700709 9.75824 0.700709L 9.75824 1.70071ZM 17.8589 10.1217C 17.8589 14.7819 14.2075 18.5426 9.75824 18.5426L 9.75824 19.5426C 14.7939 19.5426 18.8589 15.2995 18.8589 10.1217L 17.8589 10.1217ZM 9.75824 18.5426L 8.7541 18.5426L 8.7541 19.5426L 9.75824 19.5426L 9.75824 18.5426ZM 9.13295 19.3689L 10.5688 17.7019L 9.81106 17.0493L 8.37525 18.7163L 9.13295 19.3689ZM 10.5687 17.7019C 10.9562 17.2521 10.9207 16.5661 10.4838 16.1612L 9.80399 16.8946C 9.82212 16.9114 9.83514 16.937 9.83688 16.969C 9.83863 17.001 9.82845 17.0291 9.8111 17.0492L 10.5687 17.7019ZM 10.4838 16.1612C 10.036 15.7462 9.34414 15.7892 8.94777 16.2494L 9.70547 16.902C 9.72205 16.8827 9.73979 16.8763 9.75494 16.8754C 9.76999 16.8745 9.78693 16.8788 9.80399 16.8946L 10.4838 16.1612ZM 8.94777 16.2494L 6.8953 18.6324L 7.653 19.285L 9.70547 16.902L 8.94777 16.2494ZM 6.89529 18.6324C 6.39779 19.2101 6.39779 20.0759 6.89529 20.6535L 7.65301 20.001C 7.47855 19.7984 7.47855 19.4876 7.65301 19.285L 6.89529 18.6324ZM 6.8953 20.6536L 8.94777 23.0366L 9.70547 22.384L 7.653 20.001L 6.8953 20.6536ZM 8.94774 23.0365C 9.15889 23.2817 9.45658 23.4107 9.75846 23.4107L 9.75846 22.4107C 9.7497 22.4107 9.74085 22.4088 9.73245 22.405C 9.72445 22.4014 9.71511 22.3952 9.7055 22.384L 8.94774 23.0365ZM 9.75846 23.4107C 10.0192 23.4107 10.279 23.3144 10.4836 23.125L 9.80421 22.3912C 9.79541 22.3993 9.7873 22.4039 9.7804 22.4065C 9.77324 22.4093 9.76585 22.4107 9.75846 22.4107L 9.75846 23.4107ZM 10.4837 23.1248C 10.9208 22.7198 10.9562 22.0338 10.5687 21.584L 9.8111 22.2367C 9.82847 22.2569 9.83864 22.2849 9.8369 22.317C 9.83516 22.349 9.82215 22.3745 9.80403 22.3913L 10.4837 23.1248ZM 10.5688 21.5841L 9.13295 19.917L 8.37525 20.5696L 9.81106 22.2367L 10.5688 21.5841ZM 8.7541 20.7433L 9.75824 20.7433L 9.75824 19.7433L 8.7541 19.7433L 8.7541 20.7433ZM 9.75824 20.7433C 15.4322 20.7433 20.0165 15.9615 20.0165 10.1217L 19.0165 10.1217C 19.0165 15.444 14.8458 19.7433 9.75824 19.7433L 9.75824 20.7433Z"/>
</defs>
<style>
    @keyframes animateColor {
        from { fill: #fff; }
        to { fill: #f5d5b0; }
    }
    #path4_fill {
        animation: animateColor 1s infinite;
    }
</style>
</svg>
