<svg xmlns="http://www.w3.org/2000/svg" xmlns:xlink="http://www.w3.org/1999/xlink" width="71" height="26" version="1.1" viewBox="0 0 71 26"><title>amazon-web-services</title><desc>Created with Sketch.</desc><g id="pages" fill="none" fill-rule="evenodd" stroke="none" stroke-width="1"><g id="fifth-slide-2" fill-rule="nonzero" transform="translate(-905.000000, -618.000000)"><g id="Group-3" transform="translate(858.000000, 460.000000)"><g id="amazon-web-services" transform="translate(47.000000, 158.000000)"><path id="Shape" fill="#FFF" d="M23.0617627,9.54672727 C21.6856864,9.54672727 20.1495593,10.0673182 19.8276525,11.7809545 C19.7933559,11.9629545 19.9161017,12.0498182 20.0346356,12.0764091 L21.4450085,12.2424545 C21.5755763,12.2359545 21.6640254,12.0965 21.6892966,11.9653182 C21.8096356,11.3755909 22.3036271,11.0972727 22.8553814,11.0972727 C23.1532203,11.0972727 23.4877627,11.1977273 23.6640593,11.4665909 C23.8662288,11.7661818 23.8517881,12.1733182 23.8517881,12.519 L23.8517881,12.7222727 C23.0136271,12.8168182 21.9101186,12.8741364 21.1255085,13.221 C20.2199576,13.6163182 19.5839661,14.4205455 19.5839661,15.6029545 C19.5839661,17.1180455 20.5292288,17.8744091 21.7464576,17.8744091 C22.7741525,17.8744091 23.3421525,17.6374545 24.1345847,16.822 C24.3975254,17.2060909 24.4817627,17.3804091 24.9619153,17.7822273 C25.070815,17.8432332 25.2073282,17.828443 25.3000678,17.7455909 L25.3000678,17.7639091 C25.5888814,17.5050909 26.114161,17.0347273 26.4095932,16.7853636 C26.5275254,16.6884545 26.5016525,16.5289091 26.4095932,16.3977273 C26.1454492,16.0301818 25.8644576,15.7335455 25.8644576,15.0498636 L25.8644576,12.7784091 C25.8644576,11.8164091 25.9474915,10.9294545 25.2441102,10.2670455 C24.6887458,9.73109091 23.7645424,9.54672727 23.0617627,9.54672727 L23.0617627,9.54672727 Z M42.0151525,9.54672727 C40.6384746,9.54672727 39.1035508,10.0673182 38.7810424,11.7809545 C38.7467458,11.9629545 38.8688898,12.0498182 38.9880254,12.0764091 L40.3983983,12.2424545 C40.5289661,12.2359545 40.6180169,12.0965 40.6426864,11.9653182 C40.7636271,11.3755909 41.2570169,11.0972727 41.8087712,11.0972727 C42.1072119,11.0972727 42.4411525,11.1977273 42.6174492,11.4665909 C42.8190169,11.7661818 42.7865254,12.1733182 42.7865254,12.519 L42.7865254,12.7222727 C41.9483644,12.8168182 40.8641102,12.8741364 40.0788983,13.221 C39.1727458,13.6163182 38.5373559,14.4205455 38.5373559,15.6029545 C38.5373559,17.1180455 39.4832203,17.8744091 40.6998475,17.8744091 C41.726339,17.8744091 42.294339,17.6374545 43.0879746,16.822 C43.3503136,17.2060909 43.4351525,17.3804091 43.9153051,17.7822273 C44.0236102,17.8389545 44.1577881,17.8330455 44.2534576,17.7455909 L44.2534576,17.7639091 C44.5422712,17.5050909 45.0675508,17.0347273 45.3629831,16.7853636 C45.4803136,16.6884545 45.4532373,16.5289091 45.3629831,16.3977273 C45.098839,16.0301818 44.8178475,15.7335455 44.8178475,15.0498636 L44.8178475,12.7784091 C44.8178475,11.8164091 44.8810254,10.9294545 44.1788475,10.2670455 C43.6228814,9.73109091 42.7179322,9.54672727 42.0151525,9.54672727 L42.0151525,9.54672727 Z M31.3537203,9.62059091 C30.4644153,9.62059091 29.8049576,10.0614091 29.4547712,11.0056818 L29.4361186,11.0056818 L29.4361186,10.0271364 C29.4262614,9.88840243 29.3138425,9.7779987 29.1725763,9.76831818 L27.8187627,9.76831818 C27.6638573,9.77053939 27.5388295,9.89332591 27.5365678,10.0454545 L27.5365678,17.524 C27.5498019,17.6611981 27.6604079,17.7698213 27.8001102,17.7828182 L29.2477881,17.7828182 C29.4029606,17.781219 29.5283547,17.6580727 29.5299831,17.5056818 L29.5299831,13.5353636 C29.5299831,12.6696818 29.4872627,11.4855 30.5263898,11.4855 C31.5522797,11.4855 31.4102797,12.7021818 31.4102797,13.5353636 L31.4102797,17.5056818 C31.4102797,17.6469091 31.5276102,17.7733636 31.673822,17.7828182 L33.1215,17.7828182 C33.2766724,17.781219 33.4020665,17.6580727 33.4036949,17.5056818 L33.4036949,13.5353636 C33.4036949,13.1105 33.3862458,12.4918182 33.5354661,12.1136364 C33.6840847,11.7354545 34.0493136,11.4860909 34.4007034,11.4860909 C34.8194831,11.4860909 35.1389831,11.6296818 35.2466864,12.1325455 C35.3140763,12.4315455 35.2839915,13.2215909 35.2839915,13.5359545 L35.2839915,17.5062727 C35.2839915,17.6475 35.401322,17.7739545 35.5475339,17.7834091 L36.9952119,17.7834091 C37.1503843,17.7818099 37.2757784,17.6586636 37.2774068,17.5062727 L37.2774068,12.779 C37.2774068,11.9759545 37.359839,11.0641818 36.9013475,10.4336818 C36.4964068,9.86759091 35.8345424,9.62118182 35.2280339,9.62118182 C34.3772373,9.62118182 33.5860085,10.062 33.2352203,11.0062727 C32.829678,10.062 32.2580678,9.62059091 31.3537203,9.62059091 L31.3537203,9.62059091 Z M55.9672542,9.62059091 C53.875161,9.62059091 52.7144915,11.427 52.7144915,13.7569545 C52.7144915,16.0709545 53.8625254,17.9299545 55.9672542,17.9299545 C57.9919576,17.9299545 59.2765763,16.1135 59.2765763,13.8302273 C59.2765763,11.4707273 58.1128983,9.62059091 55.9672542,9.62059091 Z M64.2213051,9.62059091 C63.2218898,9.62059091 62.6508814,10.1116364 62.2471441,11.1345 L62.2284915,11.1345 L62.2284915,9.98931818 C62.2026186,9.8735 62.0913051,9.79313636 61.9649492,9.78604545 L60.6297881,9.78604545 C60.4869134,9.78288844 60.3648796,9.88663595 60.3475932,10.0259545 L60.3475932,17.5045 C60.3504124,17.6494479 60.4640789,17.7689775 60.6111356,17.7816364 L62.040161,17.7816364 C62.1950664,17.7794152 62.3200942,17.6566286 62.3223559,17.5045 L62.3223559,13.4792273 C62.3223559,12.9745909 62.365678,12.5142727 62.5666441,12.0575 C62.7291017,11.6952727 63.0425847,11.4665909 63.3939746,11.4665909 C64.3915847,11.4665909 64.2965169,12.6608182 64.2965169,13.4792273 L64.2965169,17.5417273 C64.3155684,17.6728262 64.4255081,17.772907 64.5600593,17.7816364 L66.0077373,17.7816364 C66.1497373,17.7816364 66.2730847,17.6752727 66.2899322,17.5417273 L66.2899322,12.8327727 C66.2899322,12.1089091 66.2917373,11.1031818 65.9138729,10.5057727 C65.5089322,9.86109091 64.8681271,9.62059091 64.2213051,9.62059091 L64.2213051,9.62059091 Z M46.8473644,9.75 C46.7005508,9.75 46.5844237,9.86463636 46.583822,10.0271364 L46.583822,11.0978636 C46.5844237,11.258 46.6969407,11.3738182 46.8473644,11.375 L49.3293559,11.375 L46.4899576,15.4930455 C46.3166695,15.7583636 46.3022288,16.0591364 46.3022288,16.2316818 L46.3022288,17.3213182 C46.3022288,17.4785 46.4761186,17.6492727 46.6403814,17.5612273 C48.258339,16.6937727 50.1976017,16.7705909 51.6609237,17.5429091 C51.8384237,17.6380455 52.0183305,17.4595909 52.0183305,17.303 L52.0183305,16.1578182 C52.0099607,15.9860406 51.9097247,15.8314145 51.7547881,15.7512727 C50.9244492,15.2820909 49.9605339,15.1385 49.047161,15.1603636 L51.5105,11.6149091 C51.7385424,11.2964091 51.8661017,11.1043636 51.8679068,10.9501364 L51.8679068,10.0271364 C51.8679068,9.86818182 51.7571949,9.75 51.6043644,9.75 L46.8473644,9.75 L46.8473644,9.75 Z M55.9672542,11.1534091 C56.4257458,11.1534091 56.7638983,11.3543182 56.9263559,11.8737273 C57.1140847,12.4723182 57.133339,13.2198182 57.133339,13.8497273 C57.133339,14.8093636 57.0876102,16.3977273 55.9672542,16.3977273 C54.8342627,16.3977273 54.8390763,14.4311818 54.8390763,13.5170455 C54.8390763,12.6052727 54.9010508,11.1534091 55.9672542,11.1534091 L55.9672542,11.1534091 Z M23.8325339,13.8863636 L23.8325339,14.2001364 C23.8325339,14.768 23.8535932,15.2460455 23.5689915,15.7512727 C23.3391441,16.1619545 22.9781271,16.4160455 22.5725847,16.4160455 C22.0190254,16.4160455 21.6886949,15.9752273 21.6886949,15.3453182 C21.6892966,14.1032273 22.7879915,13.8863636 23.8325339,13.8863636 L23.8325339,13.8863636 Z M42.7859237,13.8863636 L42.7859237,14.2001364 C42.7859237,14.768 42.8069831,15.2460455 42.5223814,15.7512727 C42.2925339,16.1619545 41.933322,16.4160455 41.5259746,16.4160455 C40.9718136,16.4160455 40.6420847,15.9752273 40.6420847,15.3453182 C40.6426864,14.1032273 41.740178,13.8863636 42.7859237,13.8863636 L42.7859237,13.8863636 Z"/><path id="Shape" fill="#FFF" d="M52.1687542,18.0227273 L52.1687542,19.0934545 L52.9022203,19.0934545 L52.9022203,18.0227273 L52.1687542,18.0227273 Z M30.9024492,18.2070909 L30.9024492,25.8333636 L31.5793559,25.8333636 L31.5793559,25.1502727 C31.7237627,25.4209091 31.8880254,25.6235909 32.0871864,25.7595 C32.2857458,25.8954091 32.5137881,25.9627727 32.7640932,25.9627727 C33.2610932,25.9627727 33.6901017,25.7134091 34.0613475,25.2058182 C34.4325932,24.6982273 34.6257373,23.9625455 34.6257373,23.0265455 C34.6257373,22.4137727 34.5457119,21.9061818 34.3814492,21.4754091 C34.2171864,21.0458182 33.9975678,20.7261364 33.7231949,20.5151818 C33.448822,20.3042273 33.1371441,20.1830909 32.802,20.1830909 C32.5690357,20.1806727 32.3403656,20.2447186 32.1437458,20.3674545 C31.9481949,20.4903636 31.7899492,20.6906818 31.6359153,20.9400455 L31.6359153,18.2070909 L30.9024492,18.2070909 Z M37.8598475,19.9987273 C37.3496102,19.9987273 36.9446695,20.1470455 36.6564576,20.4419091 C36.3682458,20.7361818 36.223839,21.1161364 36.223839,21.5870909 C36.223839,21.8606818 36.2864153,22.0917273 36.3929153,22.3074091 C36.4994153,22.5230909 36.6528475,22.6962273 36.8441864,22.8244545 C37.0367288,22.9526818 37.4206102,23.1210909 37.9910169,23.3042727 C38.3857288,23.4289545 38.6215932,23.5353182 38.7244831,23.6180455 C38.8737034,23.7391818 38.9501186,23.8981364 38.9501186,24.1167727 C38.9501186,24.3696818 38.8610678,24.5806364 38.6865763,24.7443182 C38.5126864,24.9091818 38.2708051,24.9842273 37.9531102,24.9842273 C37.6354153,24.9842273 37.373678,24.8967727 37.182339,24.7070909 C36.991,24.5174091 36.8875085,24.2290455 36.8441864,23.8390455 L36.1107203,23.9867727 C36.2761864,25.1715455 36.8778814,25.7600909 37.9158051,25.7595 C38.4693644,25.7595 38.8929576,25.6052727 39.2130593,25.2796818 C39.533161,24.9540909 39.7016356,24.5144545 39.7016356,23.9867727 C39.7016356,23.7019545 39.6504915,23.4549545 39.5512119,23.2481364 C39.4519322,23.0413182 39.3153475,22.8882727 39.1372458,22.7683182 C38.9585424,22.6489545 38.5602203,22.4894091 37.9525085,22.2885 C37.5108644,22.1366364 37.2521356,22.0255455 37.1630847,21.9564091 C37.0132627,21.8394091 36.9374492,21.6798636 36.9374492,21.4765909 C36.9374492,21.2685909 37.0072458,21.0925 37.1630847,20.9595455 C37.3189237,20.8265909 37.559,20.7562727 37.8778983,20.7562727 C38.438678,20.7562727 38.752161,21.0588182 38.8177458,21.6609545 L39.5325593,21.5498636 C39.4832203,21.1687273 39.3983814,20.8679545 39.2690169,20.6635 C39.1396525,20.4590455 38.9483136,20.2865 38.7046271,20.1647727 C38.4615424,20.0436364 38.1817542,19.9987273 37.8598475,19.9987273 L37.8598475,19.9987273 Z M42.3539068,19.9987273 C41.7660508,19.9987273 41.2702542,20.2362727 40.8869746,20.7373636 C40.5036949,21.2384545 40.3225847,21.9640909 40.3225847,22.9166364 C40.3225847,23.8343182 40.5073051,24.5534545 40.8869746,25.0403636 C41.2666441,25.5266818 41.7588305,25.7606818 42.3725593,25.7606818 C42.8605339,25.7606818 43.2648729,25.6170909 43.5946017,25.3175 C43.9249322,25.0179091 44.1644068,24.5770909 44.290161,23.9879545 L43.5380424,23.8585455 C43.3220339,24.6131364 42.9237119,24.9836364 42.3719576,24.9848182 C42.0205678,24.9848182 41.7335593,24.8382727 41.4880678,24.5233182 C41.2425763,24.2077727 41.1035847,23.7397727 41.0741017,23.1199091 L44.3082119,23.1199091 L44.3082119,22.8610909 C44.3082119,21.9292273 44.1192797,21.2295909 43.743822,20.7373636 C43.3695678,20.2451364 42.9140847,19.9987273 42.3539068,19.9987273 Z M46.8100593,19.9987273 C46.6343644,19.9987273 46.4809322,20.0572273 46.3401356,20.1830909 C46.199339,20.3089545 46.0392881,20.5701364 45.8702119,20.9583636 L45.8702119,20.1086364 L45.2119576,20.1086364 L45.2119576,25.6300909 L45.9454237,25.6300909 L45.9454237,22.75 C45.9454237,22.3481818 45.9839322,21.9617273 46.0771949,21.6048182 C46.1301441,21.4003636 46.2300254,21.2390455 46.3593898,21.125 C46.4887542,21.0109545 46.6361695,20.9589545 46.7920085,20.9589545 C46.9646949,20.9589545 47.136178,21.0269091 47.3184915,21.1622273 L47.5627797,20.2941818 C47.3064576,20.0932727 47.0555508,19.9987273 46.8100593,19.9987273 L46.8100593,19.9987273 Z M55.7975763,19.9987273 C55.2169407,19.9987273 54.7385932,20.2386364 54.3685508,20.7190455 C53.9997119,21.1988636 53.804161,21.9197727 53.804161,22.8794091 C53.804161,23.8313636 54.0015169,24.5528636 54.3685508,25.0397727 C54.7349831,25.5260909 55.1934746,25.7600909 55.7596695,25.7600909 C56.2271864,25.7600909 56.6291186,25.5893182 56.9630593,25.2430455 C57.297,24.8967727 57.5003729,24.3874091 57.5834068,23.7291364 L56.8685932,23.6180455 C56.8156441,24.089 56.6904915,24.4275909 56.4925339,24.6521364 C56.2945763,24.8755 56.0563051,24.9842273 55.7777203,24.9842273 C55.4227203,24.9842273 55.1206695,24.8217273 54.8938305,24.4855 C54.6669915,24.1492727 54.555678,23.6115455 54.555678,22.8605 C54.555678,22.1325 54.6754153,21.6071818 54.9130847,21.2721364 C55.1507542,20.9370909 55.4534068,20.7550909 55.8156271,20.7550909 C56.0575085,20.7550909 56.2638898,20.8472727 56.4359746,21.0322273 C56.6092627,21.2165909 56.7241864,21.5096818 56.7933814,21.8819545 L57.5081949,21.7342273 C57.4221525,21.1527727 57.2320169,20.7137273 56.9251525,20.423 C56.6182881,20.1316818 56.245839,19.9987273 55.7975763,19.9987273 L55.7975763,19.9987273 Z M59.9907881,19.9987273 C59.4029322,19.9987273 58.9071356,20.2362727 58.5238559,20.7373636 C58.1405763,21.2384545 57.9594661,21.9640909 57.9594661,22.9166364 C57.9594661,23.8343182 58.1441864,24.5534545 58.5238559,25.0403636 C58.9041271,25.5266818 59.3957119,25.7606818 60.0094407,25.7606818 C60.4962119,25.7606818 60.9011525,25.6170909 61.2314831,25.3175 C61.5612119,25.0179091 61.8006864,24.5770909 61.9270424,23.9879545 L61.1749237,23.8585455 C60.9589153,24.6131364 60.5780424,24.9836364 60.0280932,24.9848182 C59.6767034,24.9848182 59.3710424,24.8382727 59.1255508,24.5233182 C58.8800593,24.2077727 58.7416695,23.7397727 58.7115847,23.1199091 L61.9456949,23.1199091 L61.9456949,22.8610909 C61.9456949,21.9292273 61.7567627,21.2295909 61.3813051,20.7373636 C61.0082542,20.2451364 60.5515678,19.9987273 59.9907881,19.9987273 Z M64.3344237,19.9987273 C63.8229831,19.9987273 63.4192458,20.1470455 63.1310339,20.4419091 C62.8422203,20.7361818 62.6984153,21.1161364 62.6984153,21.5870909 C62.6984153,21.8606818 62.742339,22.0917273 62.848839,22.3074091 C62.9547373,22.5225 63.1075678,22.6962273 63.3001102,22.8244545 C63.4914492,22.9526818 63.8771356,23.1210909 64.4469407,23.3042727 C64.8404492,23.4289545 65.0961695,23.5353182 65.1990593,23.6180455 C65.3482797,23.7391818 65.4246949,23.8981364 65.4246949,24.1167727 C65.4246949,24.3696818 65.3356441,24.5806364 65.1611525,24.7443182 C64.9878644,24.9091818 64.7453814,24.9842273 64.4276864,24.9842273 C64.1093898,24.9842273 63.8482542,24.8967727 63.6569153,24.7070909 C63.4655763,24.5174091 63.3422288,24.2290455 63.2995085,23.8390455 L62.5660424,23.9867727 C62.7315085,25.1715455 63.332,25.7600909 64.3711271,25.7595 C64.9252881,25.7595 65.3669322,25.6052727 65.6876356,25.2796818 C66.008339,24.9540909 66.1762119,24.5144545 66.1762119,23.9867727 C66.1762119,23.7019545 66.1250678,23.4549545 66.0257881,23.2481364 C65.9265085,23.0413182 65.7718729,22.8882727 65.5931695,22.7683182 C65.4150678,22.6489545 65.0347966,22.4894091 64.4270847,22.2885 C63.9854407,22.1366364 63.7080593,22.0255455 63.6184068,21.9564091 C63.4685847,21.8394091 63.3927712,21.6798636 63.3927712,21.4765909 C63.3927712,21.2685909 63.4812203,21.0925 63.6370593,20.9595455 C63.7928983,20.8265909 64.034178,20.7562727 64.3518729,20.7562727 C64.9126525,20.7562727 65.2261356,21.0588182 65.2917203,21.6609545 L66.0065339,21.5498636 C65.9565932,21.1687273 65.8729576,20.8679545 65.7429915,20.6635 C65.6049597,20.4496004 65.4097187,20.2770743 65.1786017,20.1647727 C64.937322,20.0436364 64.6557288,19.9987273 64.3344237,19.9987273 L64.3344237,19.9987273 Z M47.562178,20.1092273 L49.1981864,25.6306818 L49.8937458,25.6306818 L51.5297542,20.1092273 L50.7776356,20.1092273 L49.8185339,23.4886364 C49.7024068,23.8969545 49.6001186,24.2497273 49.536339,24.5410455 C49.4563136,24.1740909 49.3798983,23.7888182 49.2727966,23.4147727 L48.3329492,20.1092273 L47.562178,20.1092273 Z M52.1687542,20.1092273 L52.1687542,25.6306818 L52.9022203,25.6306818 L52.9022203,20.1092273 L52.1687542,20.1092273 Z M28.0636525,20.1830909 C27.4818136,20.1830909 27.0136949,20.4395455 26.6346271,20.9400455 C26.2549576,21.4411364 26.0515847,22.1667727 26.0515847,23.1193182 C26.0515847,24.037 26.2393136,24.7378182 26.6159746,25.2241364 C26.9926356,25.7104545 27.4938475,25.9627727 28.1015593,25.9627727 C28.5841186,25.9627727 28.9782288,25.8008636 29.3049492,25.5012727 C29.6310678,25.2016818 29.8567034,24.7608636 29.9818559,24.1717273 L29.2483898,24.0606364 C29.0347881,24.8152273 28.6466949,25.1857273 28.1015593,25.1869091 C27.753178,25.1869091 27.4607542,25.0403636 27.2176695,24.7254091 C26.9745847,24.4098636 26.8331864,23.9418636 26.8037034,23.322 L29.9999068,23.322 L30.0185593,23.0631818 C30.0185593,22.1313182 29.8260169,21.4133636 29.4541695,20.9211364 C29.082322,20.4289091 28.6178136,20.1830909 28.0636525,20.1830909 L28.0636525,20.1830909 Z M19.809,20.3125 L21.1255085,25.8339545 L21.8962797,25.8339545 L22.7615169,21.5865 L22.9119407,22.5284091 L23.6075,25.8339545 L24.3596186,25.8339545 L25.6947797,20.3125 L24.9992203,20.3125 L24.2657542,23.5069545 L24.0214661,24.5776818 L23.7958305,23.5069545 L23.1568305,20.3125 L22.4047119,20.3125 L21.7278051,23.5441818 L21.5021695,24.6893636 L21.2386271,23.5075455 L20.5617203,20.3130909 L19.809,20.3130909 L19.809,20.3125 Z M66.6094322,20.3680455 L66.6094322,20.6268636 L67.3242458,20.6268636 L67.3242458,22.4734545 L67.6064407,22.4734545 L67.6064407,20.6268636 L68.3212542,20.6268636 L68.3212542,20.3680455 L66.6094322,20.3680455 Z M68.6028475,20.3680455 L68.6028475,22.4728636 L68.8663898,22.4728636 L68.8663898,20.6818182 L69.4867373,22.4728636 L69.7502797,22.4728636 L70.3706271,20.7184545 L70.3706271,22.4728636 L70.652822,22.4728636 L70.652822,20.3680455 L70.2581102,20.3680455 L69.7502797,21.8453182 C69.6991356,21.9930455 69.6624322,22.1 69.637161,22.1774091 L69.5240424,21.8636364 L69.0162119,20.3680455 L68.6028475,20.3680455 L68.6028475,20.3680455 Z M42.3346525,20.7556818 C42.6998814,20.7556818 43.0007288,20.9294091 43.2371949,21.2727273 C43.3996525,21.5079091 43.5049492,21.866 43.5380424,22.3434545 L41.1126102,22.3434545 C41.1354746,21.8589091 41.2750678,21.4848636 41.507322,21.1982727 C41.7395763,20.9116818 42.0067288,20.7556818 42.3346525,20.7556818 L42.3346525,20.7556818 Z M59.9721356,20.7556818 C60.336161,20.7556818 60.6382119,20.9294091 60.874678,21.2727273 C61.0371356,21.5079091 61.1424322,21.866 61.1755254,22.3434545 L58.7500932,22.3434545 C58.7729576,21.8589091 58.9125508,21.4848636 59.1448051,21.1982727 C59.3764576,20.9128636 59.6436102,20.7556818 59.9721356,20.7556818 L59.9721356,20.7556818 Z M28.0636525,20.9589545 C28.4246695,20.9589545 28.7146864,21.1326818 28.9475424,21.476 C29.1081949,21.7111818 29.2152966,22.0692727 29.2483898,22.5467273 L26.8602627,22.5467273 C26.8831271,22.0621818 27.0052712,21.6698182 27.236322,21.3832273 C27.4655678,21.0972273 27.7381356,20.9589545 28.0636525,20.9589545 Z M32.7267881,20.9589545 C33.0529068,20.9589545 33.3302881,21.1368182 33.5541186,21.476 C33.7779492,21.8157727 33.8736186,22.3393182 33.8736186,23.0643636 C33.8736186,23.7705 33.7677203,24.297 33.5354661,24.6527273 C33.3032119,25.0084545 33.0264322,25.1880909 32.7267881,25.1880909 C32.5065678,25.1880909 32.3062034,25.1154091 32.1250932,24.9665 C31.9433814,24.8175909 31.8104068,24.6042727 31.7111271,24.3200455 C31.6118475,24.0358182 31.5607034,23.5985455 31.5607034,23.0271364 C31.5607034,22.3540909 31.6828475,21.8500455 31.9181102,21.4943182 C32.1533729,21.1385909 32.4271441,20.9589545 32.7267881,20.9589545 Z"/><path id="Shape" fill="#F7A80D" d="M9.26971186,15.1048182 L6.46822034,16.2866364 L9.06272881,17.3762727 L12.0712034,16.2866364 L9.26971186,15.1048182 L9.26971186,15.1048182 Z M5.05784746,16.5820909 L4.96398305,21.9002727 L9.06272881,23.673 L9.06272881,18.1515455 L5.05784746,16.5820909 Z M13.4815763,16.5820909 L9.77754237,17.9671818 L9.77754237,23.1742727 L13.4815763,21.697 L13.4815763,16.5820909 Z M17.9004237,0.0366363636 L15.079678,1.21845455 L17.6934407,2.30809091 L20.7019153,1.21845455 L17.9004237,0.0366363636 L17.9004237,0.0366363636 Z M13.9894068,1.60668182 L13.9894068,6.92486364 L17.4864576,7.92231818 L17.5995763,3.08395455 L13.9894068,1.60668182 Z M21.8114407,1.90213636 L18.5021186,3.28722727 L18.5021186,8.51322727 L21.8114407,7.03595455 L21.8114407,1.90213636 L21.8114407,1.90213636 Z M4.65350847,7.52168182 L1.85201695,8.7035 L4.44652542,9.79313636 L7.455,8.7035 L4.65350847,7.52168182 L4.65350847,7.52168182 Z M0.441644068,8.99895455 L0.347779661,14.3171364 L4.44652542,16.0898636 L4.44652542,10.5684091 L0.441644068,8.99895455 L0.441644068,8.99895455 Z M8.86537288,8.99895455 L5.16133898,10.3840455 L5.16133898,15.5911364 L8.86537288,14.1138636 L8.86537288,8.99895455 L8.86537288,8.99895455 Z M13.6789322,7.3255 L10.8774407,8.50731818 L13.4719492,9.59695455 L16.4804237,8.50731818 L13.6789322,7.3255 L13.6789322,7.3255 Z M9.4670678,8.80277273 L9.37320339,14.1209545 L13.4719492,15.8936818 L13.4719492,10.3728182 L9.4670678,8.80277273 L9.4670678,8.80277273 Z M17.8907966,8.80277273 L14.1867627,10.1878636 L14.1867627,15.3949545 L17.8907966,13.9176818 L17.8907966,8.80277273 Z M26.7158559,0.0366363636 L23.9143644,1.21845455 L26.5088729,2.30809091 L29.5173475,1.21845455 L26.7158559,0.0366363636 L26.7158559,0.0366363636 Z M22.5039915,1.51390909 L22.4101271,6.83209091 L26.5088729,8.60481818 L26.5088729,3.08395455 L22.5039915,1.51390909 L22.5039915,1.51390909 Z M30.9277203,1.51390909 L27.2236864,2.899 L27.2236864,8.10609091 L30.9277203,6.62881818 L30.9277203,1.51390909 L30.9277203,1.51390909 Z"/></g></g></g></g></svg>