<?xml version="1.0" encoding="UTF-8"?>
<svg width="33px" height="35px" viewBox="0 0 33 35" version="1.1" xmlns="http://www.w3.org/2000/svg" xmlns:xlink="http://www.w3.org/1999/xlink">
    <!-- Generator: Sketch 44.1 (41455) - http://www.bohemiancoding.com/sketch -->
    <title>boss copy</title>
    <desc>Created with Sketch.</desc>
    <defs></defs>
    <g id="pages" stroke="none" stroke-width="1" fill="none" fill-rule="evenodd">
        <g id="api---4" transform="translate(-1299.000000, -682.000000)" fill-rule="nonzero">
            <g id="Group-2" transform="translate(1286.000000, 671.000000)">
                <g id="boss-copy" transform="translate(13.766667, 11.800000)">
                    <polygon id="Shape" fill="#BA966C" points="20.4591678 23.5001729 20.4591678 19.8374673 11.0073678 19.8374673 11.0073678 23.5001729 15.7332678 27.6861222"></polygon>
                    <path d="M11.0073678,19.8374673 L11.0073678,23.7018928 C16.96073,25.8392224 20.4592333,20.4899214 20.4592333,20.4899214 L20.4592333,19.8373366 L11.0073678,19.8374673 L11.0073678,19.8374673 Z" id="Shape" fill="#946A3F"></path>
                    <path d="M30.9605778,30.228786 C30.9567756,28.2126974 29.6773278,26.0628911 27.4755789,25.4527014 L23.0729989,24.5437207 L21.8227233,22.6623298 C21.6430356,22.4244859 21.30077,22.3837891 21.0699489,22.5727056 L15.7262533,27.1737877 L15.7262533,27.1737877 L15.7262533,27.1737877 L10.3651856,22.5926947 C10.1336433,22.4046274 9.79150889,22.4466959 9.61273889,22.6851932 L8.36960889,24.571222 L3.97050333,25.4967297 C1.77104889,26.1152154 0.499795556,28.2697904 0.503532222,30.285879 L0.505957778,31.5837323 C0.5074,32.3428602 1.21389222,32.9569693 2.08394556,32.9552709 L14.1617044,32.9326688 L17.3124356,32.9267897 L29.3901944,32.9041877 C30.2602478,32.9025546 30.96438,32.2858325 30.9629378,31.5267046 L30.9605778,30.228786 Z" id="Shape" fill="#EFF2FA"></path>
                    <g id="Group" transform="translate(0.458889, 26.586788)">
                        <path d="M3.87754556,2.69330041 L1.07288222,0.61110418 C0.40297,1.5107436 0.0426111111,2.62457977 0.0445777778,3.69909101 L0.0470033333,4.99694434 C0.0484455556,5.75607225 0.754937778,6.37018133 1.62499111,6.36848291 L4.87825111,6.3624078 L4.87825111,4.89111977 C4.87831667,4.05262344 4.51448333,3.253648 3.87754556,2.69330041 Z" id="Shape" fill="#E4EAF6"></path>
                        <path d="M30.5041144,4.93985133 L30.5016889,3.64199801 C30.4992633,2.3543352 29.9757367,1.01284557 29.0246567,0.0520630713 L26.3935189,2.69330041 C25.7565811,3.253648 25.3927478,4.05262344 25.3927478,4.89111977 L25.3927478,6.3239974 L28.9314367,6.3173997 C29.8014244,6.3157666 30.5055567,5.69904457 30.5041144,4.93985133 Z" id="Shape" fill="#D7E1F4"></path>
                    </g>
                    <path d="M8.43988444,12.7082233 C8.52255,10.6164245 9.59471111,7.98661884 9.85968667,7.41301053 C9.89351333,7.33991319 9.91245889,7.30058826 9.91245889,7.30058826 C10.7307233,7.19411046 11.5145056,7.12950522 12.2615767,7.09873771 C12.4750256,7.08998432 12.6854589,7.08397453 12.8928767,7.08057769 C18.5963411,6.98631544 21.9932333,8.84784787 21.9932333,8.84784787 L23.0606089,11.3653619 C24.5708778,6.61913034 24.0382389,2.60837947 23.5547667,1.51917037 C19.8799189,2.04927303 14.4477889,-1.05831094 11.02474,1.54255629 L10.7338044,1.54307888 C8.55880222,1.54719428 7.27948556,3.43172068 7.28381222,5.73569123 C7.28800778,7.95977076 8.33001333,12.3742881 8.33001333,12.3742881 L8.43988444,13.1006234 C8.43975333,13.0261543 8.437,12.9151038 8.43988444,12.8390016 C8.44001556,12.8353435 8.43975333,12.7118815 8.43988444,12.7082233 Z" id="Shape" fill="#785550"></path>
                    <path d="M23.0050178,14.3507251 C23.0103278,14.3093751 23.0153756,14.2680251 23.0202267,14.2268711 C23.1473389,13.140471 23.2699933,11.7654702 22.8033689,10.7587651 C22.5128922,10.1321138 22.2628633,9.48370977 21.9931678,8.8476519 C21.9931678,8.8476519 18.5962756,6.9861848 12.8928111,7.08038172 C12.6853933,7.08377856 12.47496,7.08978835 12.2615111,7.09854174 C11.51444,7.12930925 10.7306578,7.19391449 9.91239333,7.30039229 C9.91239333,7.30039229 9.89344778,7.33971722 9.85962111,7.41287988 C7.89229889,11.6717306 7.58018889,16.9641345 11.1873178,20.4801882 C12.0144978,21.2864799 13.0193333,21.925608 14.1373833,22.2426897 C14.27623,22.2821453 14.4164533,22.3165056 14.5579878,22.34564 C14.5854556,22.3513232 14.6129233,22.3568757 14.6405222,22.3621016 C14.9941944,22.4295811 15.3554711,22.4649213 15.7225822,22.4642681 C19.9788422,22.4566252 22.5216767,18.1067131 23.0050178,14.3507251 Z" id="Shape" fill="#BA966C"></path>
                    <path d="M10.9340767,14.2850093 C10.8108322,8.431082 11.7873478,8.72549638 11.7873478,8.72549638 C14.1964489,8.17148521 18.1851767,8.56257882 22.2186789,9.38977414 C22.1442078,9.20863123 22.0694089,9.02761897 21.9931678,8.84771722 C21.9931678,8.84771722 18.5962756,6.98625012 12.8928111,7.08044704 C12.6853933,7.08384388 12.47496,7.08985367 12.2615111,7.09860706 C11.51444,7.12937457 10.7306578,7.19397981 9.91239333,7.30045761 C9.91239333,7.30045761 9.89344778,7.33978254 9.85962111,7.4129452 C7.89229889,11.6717959 7.58018889,16.9641998 11.1873178,20.4802535 C12.0144978,21.2865452 13.0193333,21.9256733 14.1373833,22.242755 C14.27623,22.2822106 14.4164533,22.3165709 14.5579878,22.3457053 C14.5854556,22.3513885 14.6129233,22.356941 14.6405222,22.3621669 C14.9932767,22.4295158 15.3536356,22.4647906 15.7198289,22.4642681 C14.3962622,22.0017102 11.0254611,18.6257107 10.9340767,14.2850093 Z" id="Shape" fill="#946A3F"></path>
                    <path d="M23.5547011,1.51903972 C19.8798533,2.04914239 14.4477233,-1.05844159 11.0246744,1.54242564 C11.0246744,1.54242564 8.29992333,4.70527355 9.91232778,7.30052294 C10.7305922,7.19404514 11.5143744,7.1294399 12.2614456,7.09867238 C12.2659689,7.09847641 12.2703611,7.09841109 12.2748189,7.09821512 C12.4836133,7.08978835 12.68972,7.08384388 12.8927456,7.08051237 C18.59621,6.98625012 21.9931022,8.84778254 21.9931022,8.84778254 L23.0604778,11.3652966 C24.5708122,6.6189997 24.0381078,2.60824882 23.5547011,1.51903972 Z" id="Shape" fill="#382626"></path>
                    <path d="M14.1538378,28.7465889 L15.7262533,27.173853 L10.3651856,22.59276 C10.1336433,22.4046927 9.79150889,22.4467613 9.61273889,22.6852585 L8.36960889,24.5712873 L12.5814878,30.3193248 L14.1538378,28.7465889 Z" id="Shape" fill="#E4EAF6"></path>
                    <path d="M18.8828844,30.3075011 L23.0729989,24.5436554 L21.8227233,22.6622645 C21.6430356,22.4244205 21.30077,22.3837238 21.0699489,22.5726402 L15.7262533,27.1737223 L17.3045689,28.7405791 L18.8828844,30.3075011 Z" id="SVGCleanerId_0" fill="#E4EAF6"></path>
                    <path d="M18.8828844,30.3075011 L23.0729989,24.5436554 L21.8227233,22.6622645 C21.6430356,22.4244205 21.30077,22.3837238 21.0699489,22.5726402 L15.7262533,27.1737223 L17.3045689,28.7405791 L18.8828844,30.3075011 Z" id="SVGCleanerId_0_1_" fill="#E4EAF6"></path>
                    <polyline id="Shape" fill="#5B5D6E" points="16.7102422 30.1715623 14.7410844 30.1061732 14.1617044 32.9326688 17.3124356 32.9267897 16.7102422 30.1715623"></polyline>
                    <path d="M14.1548211,29.2698325 C14.1559356,29.8454006 14.6293778,30.3154707 15.2070533,30.3144255 L16.2573189,30.3124658 C16.8349289,30.3113553 17.3066667,29.8395867 17.3055522,29.2639534 L17.3045689,28.7407097 L15.7262533,27.173853 L14.1538378,28.7465889 L14.1548211,29.2698325 Z" id="Shape" fill="#515262"></path>
                    <path d="M31.4529,30.2278714 C31.4508022,29.1082214 31.0940489,27.9747881 30.4483922,27.0362157 C29.7428833,26.010632 28.7605333,25.2996477 27.6075422,24.9800837 C27.5969222,24.9771441 27.5863022,24.9745965 27.5754856,24.9723755 L23.3716044,24.1043528 L22.8584356,23.3321601 L22.2332978,22.391432 C22.2278567,22.3832012 22.2220878,22.3751011 22.2161222,22.3671969 C22.0248967,22.1142631 21.7209811,21.9631692 21.4029056,21.9631692 C21.1683478,21.9631692 20.9391,22.0450199 20.7575767,22.1935009 C20.7543644,22.1961138 20.7512178,22.1987268 20.7481367,22.2014051 L18.9669267,23.7350773 L15.7251389,26.5264288 L12.921,24.1302863 L10.6858178,22.2202183 C10.6827367,22.21754 10.6795244,22.2149271 10.6763778,22.2123795 C10.5179956,22.0837569 10.3234922,22.005695 10.1211222,21.9881882 C10.0922122,21.9857059 10.0631056,21.9844647 10.0339333,21.9844647 C9.99401,21.9844647 9.95421778,21.9868164 9.91501556,21.9914544 C9.86663556,21.9972029 9.81923889,22.007524 9.77249778,22.0200662 C9.62945556,22.0582806 9.49546,22.1259561 9.38159,22.2204143 C9.37070778,22.229429 9.36107111,22.2398808 9.35051667,22.2494181 C9.33039111,22.2675128 9.31013444,22.2856075 9.29151667,22.3053352 C9.26575333,22.3327059 9.24117,22.3612524 9.21848778,22.391628 C9.21573444,22.3952861 9.21324333,22.3990749 9.21062111,22.4027984 C9.20754,22.407175 9.20432778,22.4114211 9.20137778,22.4158631 L8.06956111,24.1330299 L3.86895778,25.0167957 C3.85820667,25.019082 3.84752111,25.021695 3.83696667,25.0246345 C2.68515556,25.3485099 1.70549333,26.0632177 1.00385222,27.0914143 C0.361735556,28.0324037 0.00930888889,29.1672088 0.0114066667,30.2867935 L0.0138322222,31.5846468 C0.0157988889,32.6117983 0.942492222,33.4459833 2.08066778,33.4458526 L2.08499444,33.4458526 L14.16059,33.4232506 C14.16118,33.4232506 14.16177,33.4233159 14.16236,33.4233159 C14.1630811,33.4233159 14.1638022,33.4232506 14.1645233,33.4232506 L17.3098789,33.4173715 C17.3106,33.4173715 17.3113211,33.4174368 17.3120422,33.4174368 C17.3126978,33.4174368 17.3134189,33.4173715 17.3140744,33.4173715 L29.3912433,33.3947694 C29.9313556,33.3937896 30.4417711,33.2067022 30.8284833,32.8679983 C31.2336822,32.513094 31.4563089,32.0364263 31.4553256,31.5257901 L31.4529,30.2278714 Z M15.2049556,30.8048766 L15.2079056,30.8048766 L16.2581711,30.8029169 C16.29875,30.8028515 16.33887,30.8006959 16.3785967,30.7975603 L16.7108978,32.4373184 L14.7611444,32.4409766 L15.0872833,30.7999773 C15.1263544,30.8029822 15.1654911,30.8048766 15.2049556,30.8048766 Z M16.8132956,29.2648679 C16.8138856,29.5714979 16.5640533,29.8213614 16.2564011,29.8219493 L15.2061356,29.823909 C15.0602744,29.8223413 14.9182811,29.7662934 14.8122122,29.6609261 C14.7060122,29.5555588 14.6474056,29.4163538 14.6471433,29.268918 L14.6465533,28.9488314 L15.72763,27.8675264 L16.8127711,28.9447813 L16.8132956,29.2648679 Z M18.82218,29.554775 L17.6524067,28.3935137 C17.6523411,28.3934484 17.6522756,28.3933831 17.65221,28.3933177 L17.6358867,28.3771174 L16.4495278,27.1993946 L19.83816,24.2816416 L21.3846156,22.9500812 C21.3924822,22.9445287 21.41169,22.9424383 21.4236211,22.9517143 C21.4241456,22.9521062 21.4249322,22.9522369 21.4253911,22.9527595 L21.9498356,23.7419363 L22.47428,24.5311132 L20.64823,27.0428788 L18.82218,29.554775 Z M10.0433733,22.967588 C10.0467822,22.9685025 10.0497978,22.9697436 10.0519611,22.9713114 L15.00311,27.2020729 L12.6393078,29.5663373 L8.96839333,24.5564588 L10.0113822,22.9741203 C10.01997,22.9660202 10.0334744,22.9651057 10.0433733,22.967588 Z M2.08302778,32.4646891 L2.08047111,32.4646891 C1.48450556,32.4646891 0.999132222,32.0694148 0.998214444,31.5827524 L0.995788889,30.2848991 C0.992576667,28.5796212 2.05379,26.5539954 4.0887,25.9731361 L8.1597,25.1166758 L12.1837622,30.6085132 C12.2686567,30.7243323 12.4001611,30.7974297 12.5437278,30.8083387 C12.5563144,30.8093186 12.5688356,30.8097759 12.5813567,30.8097759 C12.6954233,30.8097759 12.8058844,30.770255 12.8937944,30.6982681 C12.9063811,30.6880123 12.9184433,30.6771032 12.9301122,30.6654103 L13.7683711,29.8269793 C13.8453333,30.0226894 13.9628744,30.2025258 14.1171922,30.3557101 C14.1322044,30.3706693 14.1477411,30.3851058 14.1632778,30.3993464 L13.7570956,32.4427403 L2.08302778,32.4646891 Z M30.1784344,32.1310151 C29.9710167,32.3126806 29.6907667,32.4130833 29.3893422,32.4136059 L17.7151433,32.435424 L17.3014222,30.3941858 C17.47285,30.2362329 17.6080911,30.0400655 17.6939033,29.8195323 L18.53544,30.6549585 C18.6281356,30.7469344 18.75315,30.7980176 18.8828844,30.7980176 C18.8959956,30.7980176 18.9091722,30.797495 18.9223489,30.7964498 C19.0659156,30.7850182 19.1971578,30.7114635 19.2815933,30.5952525 L23.28494,25.0883906 L27.3591522,25.9295652 C29.3962911,26.5027815 30.4651089,28.5244226 30.4683211,30.2297005 L30.4707467,31.5275538 C30.47114,31.7512878 30.3673656,31.9656152 30.1784344,32.1310151 Z" id="Shape" fill="#000000"></path>
                    <path d="M7.83880556,12.9709557 L7.83880556,12.9712823 L7.83887111,13.0258277 C7.8352,13.2097795 7.83559333,13.3924902 7.83992,13.574221 L7.83992,13.5838889 C7.84077222,13.8170296 7.85027778,14.0576172 7.86830556,14.2991193 L7.86830556,14.2992499 C7.87630333,14.4063809 7.88620222,14.5159943 7.89787111,14.6252157 C7.89787111,14.6252157 7.89787111,14.6252157 7.89787111,14.625281 C7.91904556,14.8245839 7.94671,15.0268917 7.97994667,15.2266519 C7.97994667,15.2268479 7.98001222,15.2269786 7.98007778,15.2271745 C7.99259889,15.3024929 8.00597222,15.3776806 8.02013222,15.4525417 L8.02013222,15.4526723 C8.02032889,15.4539135 8.02059111,15.4550893 8.02078778,15.4563304 C8.02118111,15.4584208 8.02164,15.4608378 8.02209889,15.4630588 C8.02229556,15.4643653 8.02249222,15.4652145 8.02275444,15.4665209 C8.02347556,15.4704404 8.02426222,15.4745558 8.02504889,15.4784099 C8.02531111,15.4799123 8.02557333,15.4811535 8.02590111,15.4826559 C8.02603222,15.4835705 8.02629444,15.4846156 8.02642556,15.4854648 C8.02642556,15.4856608 8.02649111,15.4858568 8.02655667,15.4861181 C8.22571444,16.5225455 8.57702667,17.5056688 9.04666667,18.3987105 C9.05879444,18.4218351 9.07092222,18.4449598 9.08324667,18.4680191 C9.10658444,18.5116554 9.13011889,18.5552917 9.15404667,18.5984707 C9.19574,18.6739197 9.23815444,18.7491074 9.28174889,18.8235112 C9.28332222,18.8261895 9.28489556,18.8287371 9.28646889,18.8313501 C9.33583222,18.9154218 9.38683444,18.998383 9.43862333,19.0809523 C9.44452333,19.0903589 9.45042333,19.0997002 9.45632333,19.1090415 C9.51388111,19.2001682 9.57242222,19.2905764 9.63299556,19.3798087 C10.4632567,20.6029969 11.5158822,21.5644327 12.6790344,22.1797829 C12.6818533,22.1812853 12.6847378,22.1827878 12.6875567,22.1842902 C12.85256,22.2713015 13.0196611,22.3514538 13.18886,22.4242899 C13.1943011,22.4266415 13.1996767,22.4290585 13.2051178,22.4314102 C13.2839156,22.4651173 13.3631722,22.49693 13.4428222,22.5275015 C13.4563922,22.5327274 13.4700278,22.537888 13.4835978,22.5430486 C13.5613467,22.5723136 13.6394233,22.6001416 13.7178278,22.6263364 C13.7305456,22.6305825 13.7433289,22.6345672 13.7561122,22.6387479 C13.8379256,22.6655307 13.9199356,22.6910723 14.0024044,22.7144582 C14.0025356,22.7144582 14.0026011,22.7145235 14.0027322,22.7145889 L14.0027978,22.7145889 C14.0783178,22.7360151 14.1544933,22.7561348 14.2304722,22.7747521 C14.2349956,22.7758626 14.2394533,22.7766465 14.2439111,22.777757 C14.3153667,22.7950678 14.3868222,22.8113987 14.4576222,22.8259006 C14.4576878,22.8259006 14.4577533,22.8259006 14.4578844,22.825966 C14.4580156,22.825966 14.4581467,22.8260313 14.4583433,22.8260313 L14.4584744,22.8260313 L14.4584744,22.8260313 C14.4777478,22.830016 14.4970867,22.8337395 14.51636,22.8375936 C14.5268489,22.839684 14.5374033,22.841905 14.5478922,22.8438647 C14.5478922,22.8438647 14.5479578,22.8438647 14.5480233,22.84393 C14.5490722,22.844126 14.5543822,22.8451712 14.5545133,22.8451712 C14.5549067,22.8452365 14.5552344,22.8453018 14.5556278,22.8453671 C14.5612656,22.8464123 14.5668378,22.8475228 14.5724756,22.8485027 C14.6241989,22.8581706 14.67625,22.8655522 14.72817,22.8739136 C14.7677656,22.8803154 14.80723,22.8876316 14.8468256,22.8932495 C14.9073989,22.9018069 14.9681033,22.9081433 15.0288078,22.914937 C15.0642733,22.9188564 15.0996078,22.9239517 15.1350733,22.9272832 C15.2049556,22.9338809 15.2748378,22.9380616 15.34472,22.9422423 C15.3710733,22.9438101 15.3973611,22.9464884 15.4237144,22.9477948 C15.51995,22.9523022 15.6160544,22.9546538 15.7118311,22.9546538 L15.7118967,22.9546538 L15.7122244,22.9546538 L15.7233689,22.9546538 L15.7233689,22.9546538 L15.7234344,22.9546538 C15.7595556,22.9545885 15.7956111,22.9541966 15.8316011,22.953478 C15.8334367,22.953478 15.8352722,22.9534127 15.8370422,22.9533474 C15.8500878,22.9530861 15.8631989,22.9523675 15.8762444,22.9519756 C15.8962389,22.9513877 15.9162989,22.9506691 15.9362933,22.9498852 C15.9821167,22.9481868 16.0278744,22.9460311 16.0736322,22.9433528 C16.0782211,22.9430915 16.08281,22.9427649 16.0873989,22.9424383 C17.7649656,22.839488 19.3900878,22.0471102 20.71785,20.6853702 C20.7236844,20.6794258 20.7293878,20.6733507 20.7352222,20.6674062 C20.7717367,20.6297797 20.8079889,20.5918919 20.8440444,20.5534162 C20.8623344,20.5338843 20.8805589,20.5140259 20.8987178,20.4943634 C20.9148444,20.4768567 20.9312333,20.4596765 20.9472289,20.4419737 C20.9567344,20.4314566 20.9660433,20.4206782 20.9755489,20.4100304 C20.9837433,20.4008851 20.9921344,20.392001 21.0003289,20.3827251 C21.0118011,20.3697909 21.0230111,20.3564649 21.0344833,20.3434655 C21.0590667,20.3154415 21.0835844,20.2874176 21.10784,20.2590671 C21.1221967,20.2423442 21.1365533,20.2254253 21.1508444,20.2085718 C21.1853922,20.1678097 21.2194811,20.1267211 21.2533733,20.0854364 C21.25475,20.0838033 21.2560611,20.0821049 21.2574378,20.0804718 C22.4550067,18.6145404 23.2391822,16.761696 23.4793122,14.8107353 C23.4917022,14.7094834 23.5027156,14.6084275 23.5118933,14.5102458 C23.5118933,14.5101151 23.5119589,14.5099845 23.5119589,14.5098538 C23.5155644,14.4710515 23.5190389,14.4322492 23.5222511,14.3933815 L23.5222511,14.3931202 C23.5285444,14.3161034 23.5337889,14.2390867 23.5383778,14.1622006 C23.5453922,14.0742094 23.5515544,13.9862836 23.5566022,13.8988803 C23.5822344,13.4538292 23.57994,13.0168783 23.5751544,12.6858173 C23.5744333,12.6353873 23.5769244,12.5238796 23.5795467,12.4059048 C23.5916744,11.8646971 23.5901011,11.5767498 23.5670911,11.3933858 C25.0815556,6.53780221 24.5057156,2.44925068 24.00474,1.32052068 C23.9153878,1.11925805 23.7025944,1.00200182 23.4839667,1.03342257 C23.22122,1.07131037 22.9320544,1.09051557 22.6245333,1.09051557 C21.4878,1.09051557 20.2176611,0.838822959 18.87292,0.572432489 C17.4523967,0.291148191 15.9832967,0 14.5839478,0 C13.0780711,0 11.8586067,0.344517739 10.8625556,1.05223582 L10.7329522,1.05249712 C8.40717222,1.05687381 6.78644222,2.9830768 6.79162111,5.73660576 C6.79568556,7.8813822 7.71162778,11.8888016 7.83788778,12.4312504 L7.83880556,12.9709557 Z M12.90094,7.57089816 C13.0475222,7.56848118 13.1924656,7.56756665 13.3359011,7.56776262 C13.3833633,7.56776262 13.4308256,7.56874247 13.4782878,7.56906909 C13.5806856,7.56978765 13.68328,7.57044089 13.7840389,7.57240061 C13.8029844,7.57272723 13.8219956,7.57351111 13.8409411,7.57390305 C14.8339111,7.59585185 15.7472967,7.67717999 16.5723789,7.79365233 C18.6742211,8.09061434 20.2048122,8.61333541 21.0371711,8.9524966 C21.2969678,9.05838648 21.4902911,9.14683491 21.6097989,9.20431986 L21.6608667,9.32471163 L22.5682867,11.4649154 L22.5701222,12.4537871 L22.57222,13.5616135 C22.5721544,13.7517711 22.5642222,13.9465667 22.5517667,14.1421462 C22.5471778,14.1962343 22.5426544,14.2503877 22.5372789,14.3041492 C22.32796,16.3913754 21.5204467,18.3190808 20.26355,19.7321 C19.0798789,21.0628765 17.5535489,21.863681 16.0327911,21.9630385 C16.0283989,21.9632998 16.0240722,21.9636264 16.01968,21.9638877 C15.98074,21.96637 15.9419311,21.9680031 15.9030567,21.9695056 C15.8852256,21.9701588 15.8673944,21.9708774 15.8494978,21.9713346 C15.8068211,21.9725758 15.76421,21.9734903 15.7216644,21.9735556 L15.7215989,21.9735556 L15.7122244,21.9735556 C15.6317222,21.9735556 15.5510233,21.9715959 15.4701278,21.9677418 C15.44561,21.966566 15.4209611,21.9640837 15.3963778,21.9625812 C15.3400656,21.9591191 15.2837533,21.9557876 15.2273756,21.950431 C15.1973511,21.9476221 15.1675233,21.9433107 15.1374989,21.9399792 C15.0864967,21.934296 15.0354944,21.9290048 14.9845578,21.9218192 C14.9517144,21.9171812 14.9190678,21.9110408 14.88629,21.9057495 C14.8350256,21.8975841 14.7837611,21.8898759 14.7326933,21.8801426 C14.7077822,21.875374 14.6828711,21.870344 14.6575667,21.8651181 C14.5298644,21.838858 14.4001956,21.8070453 14.2721656,21.7707252 C14.1825511,21.7453796 14.0934611,21.717421 14.0046333,21.6873067 C13.9920467,21.6830607 13.9797222,21.6780961 13.96707,21.6737847 C13.8929922,21.6479818 13.8191111,21.6210684 13.7456889,21.5920646 C13.7260878,21.5843564 13.7066833,21.5759297 13.6871478,21.5680255 C13.6193633,21.5403935 13.5516444,21.5119123 13.48445,21.4816021 C13.4670778,21.4738285 13.4498367,21.4656631 13.43253,21.4576936 C13.3606156,21.4244438 13.2889633,21.3898875 13.2178356,21.3535674 C13.20715,21.3481455 13.1963989,21.3426583 13.1856478,21.3371058 C12.1466578,20.7987724 11.1995111,19.9365635 10.4484411,18.8300436 C9.42662667,17.3245912 8.87320667,15.5196945 8.82443333,13.5619401 L8.82345,13.0320988 C8.82692444,12.8693772 8.83341444,12.7058064 8.84370667,12.541321 C8.84973778,12.4447724 8.85839111,12.3480279 8.86802778,12.2513487 C8.87150222,12.221365 8.87497667,12.1914467 8.87884444,12.1613978 C8.88218778,12.1353989 8.88559667,12.1092694 8.88920222,12.0832052 C8.89444667,12.0450561 8.90001889,12.0067763 8.90578778,11.9684313 C8.90959,11.9432163 8.91345778,11.9180013 8.91752222,11.892721 C8.92388111,11.8528735 8.93063333,11.8128953 8.93758222,11.7729171 C8.94171222,11.7490086 8.94584222,11.7250348 8.95016889,11.7009956 C8.95777333,11.6589271 8.96577111,11.6167932 8.97396556,11.5747247 C8.97822667,11.5527106 8.98242222,11.5306311 8.98688,11.5085517 C8.99592667,11.4635436 9.00536667,11.4184049 9.01506889,11.3733314 C9.01919889,11.3541262 9.02319778,11.3347904 9.02739333,11.3155199 C9.03821,11.2660044 9.04948556,11.216489 9.06102333,11.1669735 C9.06443222,11.1522104 9.06777556,11.1373165 9.07125,11.1225533 C9.08488556,11.0646111 9.09911111,11.0067342 9.11353333,10.9490533 C9.11510667,10.9428476 9.11654889,10.9365765 9.11812222,10.9303707 C9.20085333,10.6020533 9.29545,10.2778512 9.39470111,9.96782447 C9.39647111,9.96233728 9.39824111,9.9569154 9.40001111,9.9514282 C9.41784222,9.89577232 9.43593556,9.84050838 9.45402889,9.78576703 C9.45678222,9.77740559 9.45960111,9.76917479 9.46235444,9.76087867 C9.47953,9.70907689 9.49690222,9.6577977 9.51420889,9.60704111 C9.51755222,9.59730786 9.52083,9.58770526 9.52417333,9.57797202 C9.54095556,9.52910981 9.55780333,9.48070487 9.57465111,9.43288785 C9.57845333,9.42210942 9.58219,9.41152697 9.58599222,9.40074854 C9.60251222,9.35404202 9.61909778,9.30772744 9.63561778,9.26213143 C9.63935444,9.25167962 9.64315667,9.24135846 9.64689333,9.23090665 C9.66341333,9.18537596 9.67999889,9.14043318 9.69638778,9.09607832 C9.70005889,9.08621442 9.70373,9.07635053 9.70733556,9.06648664 C9.72379,9.02213177 9.74031,8.97849547 9.75663333,8.93551241 C9.76010778,8.9264324 9.76351667,8.91728707 9.76699111,8.90820706 C9.78364222,8.86457076 9.80016222,8.82171835 9.81648556,8.77964982 C9.81943556,8.77200693 9.82245111,8.76429872 9.82540111,8.75672116 C9.84231444,8.71321551 9.85909667,8.67068971 9.87568222,8.6289478 C9.87791111,8.62339528 9.88014,8.61764678 9.88236889,8.61215958 C9.89967556,8.56858861 9.91672,8.52619346 9.93350222,8.48477817 C9.93494444,8.48125068 9.93638667,8.47759255 9.93782889,8.47406506 C9.95585667,8.42944891 9.97368778,8.38600858 9.99099444,8.3440707 L9.99099444,8.34400537 C10.0617289,8.17239974 10.1259733,8.02287355 10.1796633,7.90052207 C10.17986,7.9000648 10.1800567,7.89967286 10.1802533,7.89921559 C10.1931022,7.86981988 10.2053611,7.84218791 10.21703,7.81605839 C10.2191278,7.81128976 10.2210289,7.80710903 10.2231267,7.80247104 C10.2307311,7.78535621 10.2380078,7.7691559 10.2449567,7.75354351 C10.3368656,7.74256911 10.4289056,7.73296652 10.5208144,7.72284133 C10.5948922,7.71474117 10.6691011,7.70585714 10.7431789,7.69841022 C10.8445278,7.68821971 10.9458111,7.67966229 11.0470289,7.67058228 C11.1175011,7.6643112 11.18817,7.65712558 11.2585111,7.65144241 C11.3687756,7.64249305 11.4786467,7.63537275 11.5885833,7.62786052 C11.6496156,7.62367979 11.71091,7.61858454 11.7718767,7.61486108 C11.9423867,7.60440927 12.1124378,7.59565588 12.2816367,7.58866623 C12.4876122,7.58037011 12.6958822,7.574295 12.90094,7.57089816 Z M10.7347222,2.03359532 L11.0256578,2.03307273 C11.1331689,2.03287676 11.2376644,1.99760191 11.32328,1.93260472 C12.1658656,1.29236613 13.23252,0.981098202 14.5839478,0.981098202 C15.88634,0.981098202 17.3071256,1.26257847 18.6811044,1.53491341 C20.07475,1.81103712 21.39104,2.07180975 22.62473,2.07180975 C22.8297878,2.07180975 23.0287489,2.06429751 23.2199089,2.04927303 C23.5514233,3.20883587 23.8774967,6.20118865 22.9673233,9.88505922 L22.44655,8.65684107 C22.4456322,8.65462006 22.44419,8.65272567 22.4432067,8.65050466 C22.4343567,8.6303196 22.4239333,8.61078778 22.4122644,8.59184388 C22.4107567,8.58936158 22.4097733,8.58655265 22.4082,8.58407035 C22.4060367,8.58067351 22.4031522,8.57779926 22.4008578,8.57446775 C22.3960067,8.56728213 22.3918111,8.55976989 22.3866322,8.55278025 C22.3865667,8.55271492 22.3865011,8.5526496 22.3864356,8.55258428 C22.3864356,8.55251895 22.38637,8.55251895 22.3863044,8.55245363 C22.3789622,8.54272038 22.3707678,8.5337057 22.36277,8.52456036 C22.3612622,8.52286194 22.3601478,8.52083691 22.35864,8.51920381 C22.3579844,8.51848525 22.3571978,8.51789734 22.3565422,8.51717877 C22.3398911,8.49901876 22.3218633,8.48229586 22.3028522,8.46694477 C22.2993122,8.46407052 22.2956411,8.46145757 22.29197,8.45871397 C22.2739422,8.44499597 22.2550622,8.43232315 22.2353956,8.42121811 C22.2336256,8.42023825 22.2321178,8.41880113 22.2302822,8.41788659 C22.21881,8.41155018 22.18459,8.39312887 22.12913,8.36497431 C21.5454233,8.06879619 18.55727,6.67824839 13.78535,6.59104111 C13.77709,6.59091046 13.7687644,6.59071449 13.7605044,6.59051852 C13.6217889,6.58810154 13.4816311,6.58686039 13.3399,6.58672974 C13.3302633,6.58672974 13.3206267,6.58646844 13.3109244,6.58646844 C13.2965678,6.58646844 13.2817522,6.58679506 13.26733,6.58679506 C13.1559511,6.58699103 13.0438511,6.58777492 12.9307022,6.58947334 C12.9219833,6.58960399 12.9134611,6.58953866 12.9047422,6.58966931 L12.9011367,6.58966931 C12.8955644,6.58973463 12.8901233,6.58986528 12.8846167,6.5899306 L12.8846167,6.5899306 C12.6714956,6.59345809 12.4550311,6.59966385 12.2412544,6.60848256 C11.45249,6.64101382 10.6475333,6.7101264 9.84867333,6.8141219 C9.70438556,6.83286983 9.57694556,6.91413264 9.499,7.03419779 C9.48785556,7.05131263 9.47776,7.06927667 9.46871333,7.08795928 C9.46871333,7.08795928 9.46746778,7.09057223 9.46497667,7.09573281 C9.45756889,7.11114923 9.43947556,7.14936366 9.41240111,7.20782846 C9.40466556,7.22461668 9.39640556,7.24264605 9.38788333,7.26126333 C9.04529,8.00588937 8.63982889,8.95504423 8.33040667,9.99480321 C8.06117,8.59641655 7.77823222,6.86148165 7.77613444,5.73464605 C7.77266,3.89525839 8.68611111,2.0373841 10.7347222,2.03359532 Z" id="Shape" fill="#000000"></path>
                </g>
            </g>
        </g>
    </g>
</svg>