<svg xmlns="http://www.w3.org/2000/svg" xmlns:xlink="http://www.w3.org/1999/xlink" width="30" height="32" version="1.1" viewBox="0 0 30 32"><title>boss</title><desc>Created with Sketch.</desc><g id="pages" fill="none" fill-rule="evenodd" stroke="none" stroke-width="1"><g id="api---4" fill-rule="nonzero" transform="translate(-1304.000000, -342.000000)"><g id="Group-3" transform="translate(1292.000000, 331.000000)"><g id="boss" transform="translate(12.222222, 11.000000)"><polygon id="Shape" fill="#E6AF78" points="19.072 21.907 19.072 18.493 10.261 18.493 10.261 21.907 14.667 25.809"/><path id="Shape" fill="#D29B6E" d="M10.2611056,18.4925542 L10.2611056,22.0949848 C15.81085,24.0874107 19.0721667,19.1007742 19.0721667,19.1007742 L19.0721667,18.4924324 L10.2611056,18.4925542 L10.2611056,18.4925542 Z"/><path id="Shape" fill="#EFF2FA" d="M28.8615556,28.1793767 C28.8580111,26.2999722 27.6653056,24.2959154 25.6128278,23.7270945 L21.5087278,22.8797396 L20.3432167,21.1259007 C20.1757111,20.9041817 19.85665,20.8662441 19.6414778,21.0423526 L14.6600667,25.331497 L14.6600667,25.331497 L14.6600667,25.331497 L9.66246111,21.0609865 C9.44661667,20.8856696 9.12767778,20.9248861 8.96102778,21.147214 L7.80217778,22.9053764 L3.70131667,23.7681378 C1.65097778,24.3446923 0.465911111,26.3531945 0.469394444,28.232599 L0.471655556,29.4424623 C0.473,30.1501239 1.13159444,30.7225985 1.94266111,30.7210152 L13.2015889,30.6999455 L16.1387111,30.694465 L27.3976389,30.6733953 C28.2087056,30.6718729 28.8651,30.0969625 28.8637556,29.3893009 L28.8615556,28.1793767 Z"/><g id="Group" fill="#E4EAF6" transform="translate(0.427778, 24.784294)"><path id="Shape" d="M3.61466111,2.51070377 L1.00014444,0.569673388 C0.37565,1.4083203 0.0397222222,2.44664216 0.0415555556,3.44830518 L0.0438166667,4.65816845 C0.0451611111,5.36583007 0.703755556,5.93830463 1.51482222,5.93672136 L4.54752222,5.93105812 L4.54752222,4.55951843 C4.54758333,3.7778693 4.20841667,3.03306169 3.61466111,2.51070377 Z"/><path id="Shape" d="M28.4360389,4.60494616 L28.4337778,3.39508289 C28.4315167,2.19471925 27.9434833,0.944178074 27.0568833,0.0485333715 L24.6041278,2.51070377 C24.0103722,3.03306169 23.6712056,3.7778693 23.6712056,4.55951843 L23.6712056,5.89525181 L26.9699833,5.88910141 C27.7809889,5.88757904 28.4373833,5.31266867 28.4360389,4.60494616 Z"/></g><path id="Shape" fill="#785550" d="M7.86768889,11.8466489 C7.94475,9.89666692 8.94422222,7.44515316 9.19123333,6.91043354 C9.22276667,6.84229196 9.24042778,6.80563312 9.24042778,6.80563312 C10.0032167,6.70637416 10.7338611,6.64614893 11.4302833,6.61746736 C11.6292611,6.60930742 11.8254278,6.60370507 12.0187833,6.60053853 C17.3355722,6.51266694 20.5021667,8.24799377 20.5021667,8.24799377 L21.4971778,10.5948289 C22.9050556,6.17037574 22.4085278,2.43154018 21.9578333,1.41617577 C18.5321278,1.91033927 13.4682778,-0.986561044 10.2773,1.4379762 L10.0060889,1.43846336 C7.97854444,1.44229975 6.78596111,3.19906165 6.78999444,5.34683081 C6.79390556,7.42012528 7.76526667,11.5353533 7.76526667,11.5353533 L7.86768889,12.2124456 C7.86756667,12.1430252 7.865,12.0395036 7.86768889,11.9685608 C7.86781111,11.9651507 7.86756667,11.850059 7.86768889,11.8466489 Z"/><path id="Shape" fill="#F0C087" d="M21.4453556,13.3777945 C21.4503056,13.339248 21.4550111,13.3007014 21.4595333,13.2623375 C21.5780278,12.2495916 21.6923667,10.9678112 21.2573778,10.0293573 C20.9865944,9.44519087 20.7535167,8.84074639 20.5021056,8.24781109 C20.5021056,8.24781109 17.3355111,6.51254515 12.0187222,6.60035584 C11.8253667,6.60352238 11.6292,6.60912473 11.4302222,6.61728467 C10.7338,6.64596625 10.0031556,6.70619147 9.24036667,6.80545044 C9.24036667,6.80545044 9.22270556,6.84210927 9.19117222,6.91031175 C7.35722778,10.8804268 7.06627778,15.8140236 10.4288556,19.0917008 C11.1999556,19.8433287 12.1366667,20.4391261 13.1789167,20.7347107 C13.30835,20.7714914 13.4390667,20.8035222 13.5710056,20.8306814 C13.5966111,20.8359793 13.6222167,20.8411553 13.6479444,20.8460269 C13.9776389,20.9089315 14.3144222,20.9418758 14.6566444,20.9412668 C18.6243444,20.9341421 20.9947833,16.8791393 21.4453556,13.3777945 Z"/><path id="Shape" fill="#E6AF78" d="M10.1927833,13.3165341 C10.0778944,7.85948322 10.9882056,8.13393731 10.9882056,8.13393731 C13.2339778,7.61748621 16.9522833,7.982065 20.7123278,8.75317928 C20.6429056,8.58431725 20.5731778,8.41557701 20.5021056,8.24787198 C20.5021056,8.24787198 17.3355111,6.51260604 12.0187222,6.60041674 C11.8253667,6.60358328 11.6292,6.60918563 11.4302222,6.61734557 C10.7338,6.64602714 10.0031556,6.70625237 9.24036667,6.80551133 C9.24036667,6.80551133 9.22270556,6.84217017 9.19117222,6.91037265 C7.35722778,10.8804877 7.06627778,15.8140845 10.4288556,19.0917617 C11.1999556,19.8433896 12.1366667,20.439187 13.1789167,20.7347716 C13.30835,20.7715523 13.4390667,20.8035831 13.5710056,20.8307423 C13.5966111,20.8360401 13.6222167,20.8412162 13.6479444,20.8460878 C13.9767833,20.9088707 14.3127111,20.941754 14.6540778,20.9412668 C13.4202444,20.5100688 10.2779722,17.3629507 10.1927833,13.3165341 Z"/><path id="Shape" fill="#694B4B" d="M21.9577722,1.41605398 C18.5320667,1.91021748 13.4682167,-0.986682834 10.2772389,1.43785441 C10.2772389,1.43785441 7.73721667,4.38627196 9.24030556,6.80557223 C10.0030944,6.70631326 10.7337389,6.64608804 11.4301611,6.61740646 C11.4343778,6.61722378 11.4384722,6.61716288 11.4426278,6.61698019 C11.6372667,6.60912473 11.8294,6.60358328 12.0186611,6.60047763 C17.33545,6.51260604 20.5020444,8.24793288 20.5020444,8.24793288 L21.4970556,10.594768 C22.9049944,6.17025395 22.4084056,2.43141839 21.9577722,1.41605398 Z"/><path id="Shape" fill="#E4EAF6" d="M13.1942556,26.7976676 L14.6600667,25.3315579 L9.66246111,21.0610474 C9.44661667,20.8857305 9.12767778,20.9249469 8.96102778,21.1472749 L7.80217778,22.9054373 L11.7285056,28.2637773 L13.1942556,26.7976676 Z"/><path id="SVGCleanerId_0" fill="#E4EAF6" d="M17.6026889,28.2527553 L21.5087278,22.8796787 L20.3432167,21.1258398 C20.1757111,20.9041208 19.85665,20.8661832 19.6414778,21.0422918 L14.6600667,25.3314361 L16.1313778,26.7920652 L17.6026889,28.2527553 Z"/><path id="SVGCleanerId_0_1_" fill="#E4EAF6" d="M17.6026889,28.2527553 L21.5087278,22.8796787 L20.3432167,21.1258398 C20.1757111,20.9041208 19.85665,20.8661832 19.6414778,21.0422918 L14.6600667,25.3314361 L16.1313778,26.7920652 L17.6026889,28.2527553 Z"/><polyline id="Shape" fill="#5B5D6E" points="15.577 28.126 13.742 28.065 13.202 30.7 16.139 30.694 15.577 28.126"/><path id="Shape" fill="#515262" d="M13.1951722,27.2854371 C13.1962111,27.8219836 13.6375556,28.2601845 14.1760667,28.2592102 L15.1551278,28.2573833 C15.6935778,28.2563481 16.1333333,27.8165639 16.1322944,27.2799565 L16.1313778,26.792187 L14.6600667,25.3315579 L13.1942556,26.7976676 L13.1951722,27.2854371 Z"/><path id="Shape" fill="#000" d="M29.3205,28.1785242 C29.3185444,27.1347827 28.9859778,26.0781923 28.3840944,25.2032519 C27.7264167,24.2471993 26.8106667,23.5844174 25.7358444,23.2865187 C25.7259444,23.2837784 25.7160444,23.2814035 25.7059611,23.2793331 L21.7870889,22.4701594 L21.3087111,21.7503187 L20.7259556,20.8733688 C20.7208833,20.865696 20.7155056,20.8581451 20.7099444,20.8507768 C20.5316833,20.614991 20.2483722,20.4741407 19.9518611,20.4741407 C19.7332056,20.4741407 19.5195,20.5504423 19.3502833,20.6888568 C19.3472889,20.6912926 19.3443556,20.6937284 19.3414833,20.6962251 L17.6810333,22.1259195 L14.6590278,24.7280268 L12.045,22.4943347 L9.96135556,20.7137628 C9.95848333,20.7112661 9.95548889,20.7088303 9.95255556,20.7064554 C9.80491111,20.586553 9.62359444,20.5137834 9.43494444,20.4974636 C9.40799444,20.4951495 9.38086111,20.4939925 9.35366667,20.4939925 C9.31645,20.4939925 9.27935556,20.4961848 9.24281111,20.5005083 C9.19771111,20.5058671 9.15352778,20.5154885 9.10995556,20.5271803 C8.97661111,20.562804 8.8517,20.6258913 8.74555,20.7139455 C8.73540556,20.722349 8.72642222,20.7320923 8.71658333,20.7409829 C8.69782222,20.7578509 8.67893889,20.7747188 8.66158333,20.7931091 C8.63756667,20.8186242 8.61465,20.8452353 8.59350556,20.8735515 C8.59093889,20.8769616 8.58861667,20.8804935 8.58617222,20.8839646 C8.5833,20.8880445 8.58030556,20.8920027 8.57755556,20.8961436 L7.52247222,22.4968923 L3.60665556,23.3207417 C3.59663333,23.3228731 3.58667222,23.3253089 3.57683333,23.3280491 C2.50311111,23.6299669 1.58986667,24.2962199 0.935794444,25.2547083 C0.337211111,26.1319018 0.00867777778,27.1897709 0.0106333333,28.2334516 L0.0128944444,29.4433148 C0.0147277778,30.4008289 0.878594444,31.178459 1.93960556,31.1783372 L1.94363889,31.1783372 L13.20055,31.1572675 C13.2011,31.1572675 13.20165,31.1573284 13.2022,31.1573284 C13.2028722,31.1573284 13.2035444,31.1572675 13.2042167,31.1572675 L16.1363278,31.1517869 C16.137,31.1517869 16.1376722,31.1518478 16.1383444,31.1518478 C16.1389556,31.1518478 16.1396278,31.1517869 16.1402389,31.1517869 L27.3986167,31.1307173 C27.9021111,31.1298038 28.3779222,30.9554003 28.7384167,30.6396594 C29.1161444,30.3088165 29.3236778,29.8644651 29.3227611,29.3884484 L29.3205,28.1785242 Z M14.1741111,28.7164104 L14.1768611,28.7164104 L15.1559222,28.7145835 C15.19375,28.7145226 15.23115,28.7125131 15.2681833,28.7095901 L15.5779556,30.2381782 L13.7603889,30.2415883 L14.0644167,28.7118432 C14.1008389,28.7146444 14.1373222,28.7164104 14.1741111,28.7164104 Z M15.6734111,27.2808091 C15.6739611,27.5666505 15.4410667,27.7995742 15.1542722,27.8001222 L14.1752111,27.8019491 C14.0392389,27.8004876 13.9068722,27.7482396 13.8079944,27.6500159 C13.7089944,27.5517921 13.6543611,27.4220248 13.6541167,27.2845846 L13.6535667,26.9861987 L14.66135,25.9782026 L15.6729222,26.9824232 L15.6734111,27.2808091 Z M17.5461,27.5510614 L16.4556333,26.4685297 C16.4555722,26.4684688 16.4555111,26.4684079 16.45545,26.468347 L16.4402333,26.4532451 L15.3343056,25.3553678 L18.4932,22.6354286 L19.9348111,21.3941435 C19.9421444,21.3889674 19.96005,21.3870187 19.9711722,21.3956658 C19.9716611,21.3960312 19.9723944,21.396153 19.9728222,21.3966402 L20.4617111,22.1323135 L20.9506,22.8679869 L19.24835,25.2094632 L17.5461,27.5510614 Z M9.36246667,21.4104634 C9.36564444,21.4113159 9.36845556,21.4124729 9.37047222,21.4139344 L13.98595,25.3578645 L11.7824056,27.5618398 L8.36036667,22.8916142 L9.33264444,21.4165529 C9.34065,21.4090019 9.35323889,21.4081493 9.36246667,21.4104634 Z M1.94180556,30.2636932 L1.93942222,30.2636932 C1.38386111,30.2636932 0.931394444,29.8952172 0.930538889,29.4415489 L0.928277778,28.2316856 C0.925283333,26.6420198 1.91455,24.7537245 3.8115,24.2122456 L7.6065,23.4138503 L11.3577444,28.5333598 C11.4368833,28.6413268 11.5594722,28.7094683 11.6933056,28.7196378 C11.7050389,28.7205512 11.7167111,28.7209775 11.7283833,28.7209775 C11.8347167,28.7209775 11.9376889,28.684136 12.0196389,28.6170296 C12.0313722,28.6074691 12.0426167,28.5972996 12.0534944,28.5863994 L12.8349222,27.8048112 C12.9066667,27.9872528 13.0162389,28.1548969 13.1600944,28.2976959 C13.1740889,28.3116408 13.1885722,28.3250987 13.2030556,28.3383738 L12.8244111,30.2432325 L1.94180556,30.2636932 Z M28.1324389,29.9526412 C27.9390833,30.1219904 27.6778333,30.2155861 27.3968444,30.2160733 L16.5141167,30.2364122 L16.1284444,28.3335631 C16.28825,28.1863188 16.4143222,28.0034509 16.4943167,27.7978691 L17.2788,28.5766562 C17.3652111,28.6623964 17.48175,28.7100164 17.6026889,28.7100164 C17.6149111,28.7100164 17.6271944,28.7095292 17.6394778,28.7085549 C17.7733111,28.6978983 17.8956556,28.6293304 17.9743667,28.5209981 L21.7063,23.3874827 L25.5042944,24.1716286 C27.4033222,24.7059828 28.3996778,26.5905635 28.4026722,28.1802293 L28.4049333,29.3900925 C28.4053,29.5986582 28.3085611,29.7984549 28.1324389,29.9526412 Z"/><path id="Shape" fill="#000" d="M7.30736111,12.0915689 L7.30736111,12.0918733 L7.30742222,12.1427207 C7.304,12.3142012 7.30436667,12.4845248 7.3084,12.6539348 L7.3084,12.6629473 C7.30919444,12.8802818 7.31805556,13.1045584 7.33486111,13.3296874 L7.33486111,13.3298092 C7.34231667,13.4296771 7.35154444,13.5318591 7.36242222,13.6336756 C7.36242222,13.6336756 7.36242222,13.6336756 7.36242222,13.6337365 C7.38216111,13.8195274 7.40795,14.0081194 7.43893333,14.1943366 C7.43893333,14.1945192 7.43899444,14.194641 7.43905556,14.1948237 C7.45072778,14.2650357 7.46319444,14.335126 7.47639444,14.4049117 L7.47639444,14.4050335 C7.47657778,14.4061905 7.47682222,14.4072866 7.47700556,14.4084436 C7.47737222,14.4103923 7.4778,14.4126454 7.47822778,14.4147158 C7.47841111,14.4159337 7.47859444,14.4167254 7.47883889,14.4179433 C7.47951111,14.421597 7.48024444,14.4254333 7.48097778,14.4290262 C7.48122222,14.4304267 7.48146667,14.4315837 7.48177222,14.4329843 C7.48189444,14.4338369 7.48213889,14.4348112 7.48226111,14.4356028 C7.48226111,14.4357855 7.48232222,14.4359682 7.48238333,14.4362118 C7.66803889,15.402373 7.99553333,16.3188438 8.43333333,17.1513403 C8.44463889,17.1728972 8.45594444,17.194454 8.46743333,17.21595 C8.48918889,17.2566279 8.51112778,17.2973058 8.53343333,17.3375574 C8.5723,17.4078912 8.61183889,17.4779815 8.65247778,17.5473409 C8.65394444,17.5498376 8.65541111,17.5522126 8.65687778,17.5546484 C8.70289444,17.6330203 8.75043889,17.7103571 8.79871667,17.7873284 C8.80421667,17.7960973 8.80971667,17.8048053 8.81521667,17.8135133 C8.86887222,17.8984619 8.92344444,17.9827407 8.97991111,18.0659234 C9.75388333,19.2061836 10.7351444,20.1024372 11.8194389,20.6760688 C11.8220667,20.6774694 11.8247556,20.67887 11.8273833,20.6802706 C11.9812,20.7613828 12.1369722,20.836101 12.2947,20.903999 C12.2997722,20.9061913 12.3047833,20.9084444 12.3098556,20.9106366 C12.3833111,20.9420585 12.4571944,20.9717144 12.5314444,21.0002133 C12.5440944,21.0050849 12.5568056,21.0098956 12.5694556,21.0147063 C12.6419333,21.0419873 12.7147167,21.0679286 12.7878056,21.0923475 C12.7996611,21.0963057 12.8115778,21.1000203 12.8234944,21.1039176 C12.8997611,21.1288845 12.9762111,21.1526945 13.0530889,21.174495 C13.0532111,21.174495 13.0532722,21.1745558 13.0533944,21.1746167 L13.0534556,21.1746167 C13.1238556,21.1945903 13.1948667,21.213346 13.2656944,21.2307011 C13.2699111,21.2317363 13.2740667,21.2324671 13.2782222,21.2335023 C13.3448333,21.2496395 13.4114444,21.2648632 13.4774444,21.2783819 C13.4775056,21.2783819 13.4775667,21.2783819 13.4776889,21.2784428 C13.4778111,21.2784428 13.4779333,21.2785037 13.4781167,21.2785037 L13.4782389,21.2785037 L13.4782389,21.2785037 C13.4962056,21.2822183 13.5142333,21.2856893 13.5322,21.2892822 C13.5419778,21.2912308 13.5518167,21.2933012 13.5615944,21.2951281 C13.5615944,21.2951281 13.5616556,21.2951281 13.5617167,21.295189 C13.5626944,21.2953717 13.5676444,21.296346 13.5677667,21.296346 C13.5681333,21.2964069 13.5684389,21.2964678 13.5688056,21.2965287 C13.5740611,21.297503 13.5792556,21.2985382 13.5845111,21.2994516 C13.6327278,21.3084641 13.68125,21.3153452 13.72965,21.3231398 C13.7665611,21.3291075 13.80335,21.3359278 13.8402611,21.3411648 C13.8967278,21.349142 13.9533167,21.3550488 14.0099056,21.3613819 C14.0429667,21.3650356 14.0759056,21.3697854 14.1089667,21.3728911 C14.1741111,21.3790415 14.2392556,21.3829388 14.3044,21.3868361 C14.3289667,21.3882975 14.3534722,21.3907942 14.3780389,21.3920121 C14.46775,21.3962139 14.5573389,21.3984061 14.6466222,21.3984061 L14.6466833,21.3984061 L14.6469889,21.3984061 L14.6573778,21.3984061 L14.6573778,21.3984061 L14.6574389,21.3984061 C14.6911111,21.3983452 14.7247222,21.3979799 14.7582722,21.39731 C14.7599833,21.39731 14.7616944,21.3972491 14.7633444,21.3971882 C14.7755056,21.3969446 14.7877278,21.3962748 14.7998889,21.3959094 C14.8185278,21.3953614 14.8372278,21.3946915 14.8558667,21.3939608 C14.8985833,21.3923775 14.9412389,21.390368 14.9838944,21.3878713 C14.9881722,21.3876277 14.99245,21.3873232 14.9967278,21.3870187 C16.5605611,21.2910481 18.0755056,20.5523909 19.31325,19.2829723 C19.3186889,19.2774308 19.3240056,19.2717676 19.3294444,19.2662261 C19.3634833,19.2311506 19.3972778,19.1958314 19.4308889,19.1599642 C19.4479389,19.1417566 19.4649278,19.1232445 19.4818556,19.1049151 C19.4968889,19.0885952 19.5121667,19.0725798 19.5270778,19.0560772 C19.5359389,19.0462731 19.5446167,19.0362254 19.5534778,19.0262995 C19.5611167,19.0177742 19.5689389,19.0094925 19.5765778,19.0008454 C19.5872722,18.9887882 19.5977222,18.9763656 19.6084167,18.9642475 C19.6313333,18.9381235 19.6541889,18.9119995 19.6768,18.885571 C19.6901833,18.8699819 19.7035667,18.8542101 19.7168889,18.8384991 C19.7490944,18.8005006 19.7808722,18.7621976 19.8124667,18.7237119 C19.81375,18.7221896 19.8149722,18.7206063 19.8162556,18.7190839 C20.9326333,17.3525376 21.6636444,15.6253098 21.8874944,13.8066176 C21.8990444,13.7122303 21.9093111,13.6180256 21.9178667,13.5265003 C21.9178667,13.5263785 21.9179278,13.5262567 21.9179278,13.5261349 C21.9212889,13.4899633 21.9245278,13.4537916 21.9275222,13.417559 L21.9275222,13.4173154 C21.9333889,13.3455202 21.9382778,13.2737249 21.9425556,13.2020514 C21.9490944,13.1200257 21.9548389,13.0380609 21.9595444,12.9565833 C21.9834389,12.5417052 21.9813,12.1343781 21.9768389,11.8257619 C21.9761667,11.7787509 21.9784889,11.674803 21.9809333,11.5648265 C21.9922389,11.0603108 21.9907722,10.7918854 21.9693222,10.6209529 C23.3811111,6.09456138 22.8443111,2.28319979 22.3773,1.23099386 C22.2940056,1.04337614 22.0956389,0.934069493 21.8918333,0.963360022 C21.6469,0.998679163 21.3773389,1.01658231 21.0906667,1.01658231 C20.031,1.01658231 18.8469722,0.781953606 17.5934,0.533623506 C16.2691833,0.271409331 14.8996833,0 13.5952056,0 C12.1914222,0 11.0546333,0.321160604 10.1261111,0.980897802 L10.0052944,0.981141382 C7.83719444,0.985221352 6.32634444,2.78083431 6.33117222,5.34768334 C6.33496111,7.3470512 7.18880556,11.0827811 7.30650556,11.5884538 L7.30736111,12.0915689 Z M12.0263,7.05761693 C12.1629444,7.05536381 12.2980611,7.05451128 12.4317722,7.05469396 C12.4760167,7.05469396 12.5202611,7.05560739 12.5645056,7.05591187 C12.6599611,7.05658171 12.7556,7.05719066 12.8495278,7.05901751 C12.8671889,7.05932199 12.8849111,7.06005273 12.9025722,7.0604181 C13.8282222,7.08087884 14.6796833,7.15669321 15.4488278,7.26526912 C17.4081722,7.54209811 18.8349944,8.02938047 19.6109222,8.34554768 C19.8531056,8.44425859 20.0333222,8.52671051 20.1447278,8.58029818 L20.1923333,8.69252779 L21.0382333,10.687633 L21.0399444,11.6094626 L21.0419,12.6421821 C21.0418389,12.8194476 21.0344444,13.0010367 21.0228333,13.1833566 C21.0185556,13.2337777 21.0143389,13.2842597 21.0093278,13.3343764 C20.8142,15.2800957 20.0614333,17.0771092 18.88975,18.3943305 C17.7863278,19.6348849 16.3634778,20.3813975 14.9458222,20.4740189 C14.9417278,20.4742625 14.9376944,20.474567 14.9336,20.4748106 C14.8973,20.4771246 14.8611222,20.478647 14.8248833,20.4800476 C14.8082611,20.4806565 14.7916389,20.4813264 14.7749556,20.4817526 C14.7351722,20.4829096 14.69545,20.4837622 14.6557889,20.4838231 L14.6557278,20.4838231 L14.6469889,20.4838231 C14.5719444,20.4838231 14.4967167,20.4819962 14.4213056,20.4784034 C14.39845,20.4773073 14.3754722,20.4749933 14.3525556,20.4735927 C14.3000611,20.4703652 14.2475667,20.4672596 14.1950111,20.4622662 C14.1670222,20.4596477 14.1392167,20.4556286 14.1112278,20.452523 C14.0636833,20.4472251 14.0161389,20.4422926 13.9686556,20.4355942 C13.9380389,20.4312706 13.9076056,20.4255465 13.87705,20.420614 C13.8292611,20.4130021 13.7814722,20.4058165 13.7338667,20.3967431 C13.7106444,20.3922978 13.6874222,20.3876088 13.6638333,20.3827372 C13.5447889,20.3582574 13.4239111,20.3286015 13.3045611,20.2947439 C13.2210222,20.2711166 13.1379722,20.2450535 13.0551667,20.2169809 C13.0434333,20.2130227 13.0319444,20.2083947 13.02015,20.2043756 C12.9510944,20.180322 12.8822222,20.1552333 12.8137778,20.1281958 C12.7955056,20.1210102 12.7774167,20.1131548 12.7592056,20.1057865 C12.6960167,20.0800278 12.6328889,20.0534776 12.57025,20.0252223 C12.5540556,20.0179758 12.5379833,20.0103639 12.52185,20.0029347 C12.4548111,19.9719391 12.3880167,19.9397256 12.3217111,19.9058679 C12.31175,19.9008136 12.3017278,19.8956985 12.2917056,19.8905224 C11.3231556,19.3886861 10.4402222,18.5849321 9.74007222,17.5534305 C8.78753333,16.1500427 8.27163333,14.4675118 8.22616667,12.6424866 L8.22525,12.1485666 C8.22848889,11.996877 8.23453889,11.8443958 8.24413333,11.691062 C8.24975556,11.6010591 8.25782222,11.5108735 8.26680556,11.4207488 C8.27004444,11.3927979 8.27328333,11.364908 8.27688889,11.3368962 C8.28000556,11.31266 8.28318333,11.288302 8.28654444,11.2640048 C8.29143333,11.2284421 8.29662778,11.1927576 8.30200556,11.1570122 C8.30555,11.1335067 8.30915556,11.1100012 8.31294444,11.0864348 C8.31887222,11.0492888 8.32516667,11.012021 8.33164444,10.9747533 C8.33549444,10.9524657 8.33934444,10.9301172 8.34337778,10.9077078 C8.35046667,10.8684914 8.35792222,10.829214 8.36556111,10.7899976 C8.36953333,10.769476 8.37344444,10.7488934 8.3776,10.7283109 C8.38603333,10.6863542 8.39483333,10.6442757 8.40387778,10.6022581 C8.40772778,10.584355 8.41145556,10.56633 8.41536667,10.548366 C8.42545,10.5022075 8.43596111,10.456049 8.44671667,10.4098906 C8.44989444,10.3961283 8.45301111,10.3822442 8.45625,10.3684819 C8.46896111,10.314468 8.48222222,10.260515 8.49566667,10.2067446 C8.49713333,10.2009596 8.49847778,10.1951137 8.49994444,10.1893286 C8.57706667,9.88327001 8.66525,9.58104777 8.75777222,9.29203976 C8.75942222,9.28692458 8.76107222,9.28187029 8.76272222,9.2767551 C8.77934444,9.2248725 8.79621111,9.17335527 8.81307778,9.1223252 C8.81564444,9.11453063 8.81827222,9.10685785 8.82083889,9.09912418 C8.83685,9.05083439 8.85304444,9.00303176 8.86917778,8.95571629 C8.87229444,8.94664292 8.87535,8.93769135 8.87846667,8.92861798 C8.89411111,8.88306847 8.90981667,8.83794522 8.92552222,8.79337003 C8.92906667,8.78332234 8.93255,8.77345734 8.93609444,8.76340965 C8.95149444,8.71986968 8.96695556,8.67669507 8.98235556,8.63419031 C8.98583889,8.6244471 8.98938333,8.61482568 8.99286667,8.60508247 C9.00826667,8.56263861 9.02372778,8.5207428 9.03900556,8.47939504 C9.04242778,8.47019989 9.04585,8.46100473 9.04921111,8.45180958 C9.06455,8.41046182 9.07995,8.36978392 9.09516667,8.32971496 C9.09840556,8.32125054 9.10158333,8.31272523 9.10482222,8.30426082 C9.12034444,8.26358291 9.13574444,8.22363575 9.15096111,8.18441932 C9.15371111,8.1772946 9.15652222,8.17010898 9.15927222,8.16304515 C9.17503889,8.12248903 9.19068333,8.08284634 9.20614444,8.04393439 C9.20822222,8.03875831 9.2103,8.03339954 9.21237778,8.02828436 C9.22851111,7.98766735 9.2444,7.94814644 9.26004444,7.90953897 C9.26138889,7.90625064 9.26273333,7.90284051 9.26407778,7.89955218 C9.28088333,7.85796084 9.29750556,7.81746562 9.31363889,7.77837099 L9.31363889,7.77831009 C9.37957778,7.61833874 9.43946667,7.47894992 9.48951667,7.36489346 C9.4897,7.36446719 9.48988333,7.36410182 9.49006667,7.36367555 C9.50204444,7.33627277 9.51347222,7.31051416 9.52435,7.28615613 C9.52630556,7.28171079 9.52807778,7.2778135 9.53003333,7.27348995 C9.53712222,7.25753545 9.54390556,7.24243347 9.55038333,7.22787955 C9.63606111,7.21764917 9.72186111,7.2086976 9.80753889,7.19925886 C9.87659444,7.19170787 9.94577222,7.18342614 10.0148278,7.17648411 C10.1093056,7.16698448 10.2037222,7.15900722 10.2980778,7.15054281 C10.3637722,7.14469688 10.42965,7.13799842 10.4952222,7.13270055 C10.5980111,7.12435793 10.7004333,7.11772036 10.8029167,7.11071743 C10.8598111,7.10682015 10.91695,7.10207033 10.9737833,7.09859931 C11.1327333,7.0888561 11.2912556,7.08069616 11.4489833,7.07418039 C11.6409944,7.06644671 11.8351444,7.06078347 12.0263,7.05761693 Z M10.0069444,1.89572445 L10.2781556,1.89523729 C10.3783778,1.89505461 10.4757889,1.86217127 10.5556,1.80158067 C11.3410611,1.20474808 12.3354,0.91458307 13.5952056,0.91458307 C14.8093,0.91458307 16.1337611,1.17697993 17.4145889,1.43085148 C18.71375,1.68825495 19.9408,1.93134807 21.09085,1.93134807 C21.2820056,1.93134807 21.4674778,1.92434514 21.6456778,1.91033927 C21.9547167,2.99128767 22.2586833,5.78076908 21.4102167,9.21488571 L20.92475,8.06993659 C20.9238944,8.06786615 20.92255,8.0661002 20.9216333,8.06402976 C20.9133833,8.04521319 20.9036667,8.02700556 20.8927889,8.00934599 C20.8913833,8.00703198 20.8904667,8.00441349 20.889,8.00209948 C20.8869833,7.99893293 20.8842944,7.99625355 20.8821556,7.9931479 C20.8776333,7.98644944 20.8737222,7.97944651 20.8688944,7.97293074 C20.8688333,7.97286984 20.8687722,7.97280895 20.8687111,7.97274805 C20.8687111,7.97268716 20.86865,7.97268716 20.8685889,7.97262626 C20.8617444,7.9635529 20.8541056,7.95514938 20.84665,7.94662407 C20.8452444,7.9450408 20.8442056,7.94315305 20.8428,7.94163067 C20.8421889,7.94096083 20.8414556,7.94041277 20.8408444,7.93974293 C20.8253222,7.9228141 20.8085167,7.90722496 20.7907944,7.89291462 C20.7874944,7.89023523 20.7840722,7.88779943 20.78065,7.88524184 C20.7638444,7.87245387 20.7462444,7.86064023 20.7279111,7.85028807 C20.7262611,7.84937464 20.7248556,7.84803495 20.7231444,7.84718242 C20.71245,7.8412756 20.68055,7.82410319 20.62885,7.79785741 C20.0847167,7.52175916 17.29915,6.22548578 12.85075,6.14419086 C12.84305,6.14406907 12.8352889,6.14388639 12.8275889,6.1437037 C12.6982778,6.14145059 12.5676222,6.14029358 12.4355,6.14017179 C12.4265167,6.14017179 12.4175333,6.13992821 12.4084889,6.13992821 C12.3951056,6.13992821 12.3812944,6.14023268 12.36785,6.14023268 C12.2640222,6.14041537 12.1595222,6.14114611 12.0540444,6.14272938 C12.0459167,6.14285117 12.0379722,6.14279028 12.0298444,6.14291207 L12.0264833,6.14291207 C12.0212889,6.14297296 12.0162167,6.14309475 12.0110833,6.14315565 L12.0110833,6.14315565 C11.8124111,6.14644398 11.6106222,6.15222901 11.4113389,6.16044985 C10.67605,6.19077559 9.92566667,6.25520258 9.18096667,6.35214753 C9.04646111,6.36962442 8.92766111,6.44537788 8.855,6.55730303 C8.84461111,6.57325753 8.8352,6.59000368 8.82676667,6.60741967 C8.82676667,6.60741967 8.82560556,6.60985547 8.82328333,6.61466618 C8.81637778,6.62903742 8.79951111,6.66466104 8.77427222,6.71916212 C8.76706111,6.73481216 8.75936111,6.7516192 8.75141667,6.76897429 C8.43205,7.46311721 8.05407778,8.34792259 7.76563333,9.31718943 C7.51465,8.01360865 7.25089444,6.39629646 7.24893889,5.34585648 C7.2457,3.63117308 8.09722222,1.89925637 10.0069444,1.89572445 Z"/></g></g></g></g></svg>