<svg xmlns="http://www.w3.org/2000/svg" xmlns:xlink="http://www.w3.org/1999/xlink" width="44" height="44" version="1.1" viewBox="0 0 44 44"><title>calendar</title><desc>Created with Sketch.</desc><g id="pages" fill="none" fill-rule="evenodd" stroke="none" stroke-width="1"><g id="second-slide-copy" fill="#FFF" fill-rule="nonzero" transform="translate(-136.000000, -253.000000)"><g id="calendar" transform="translate(136.000000, 253.000000)"><path id="Shape" d="M36.85,8.06666667 C35.7038,7.45213333 28.5765333,3.61533333 24.6598,1.15793333 C23.991,0.4488 23.0494,0 22,0 C20.9506,0 20.009,0.4488 19.3402,1.15793333 C15.4227333,3.6146 8.2962,7.45213333 7.15,8.06666667 L0,8.06666667 L0,44 L44,44 L44,8.06666667 L36.85,8.06666667 Z M23.6302,2.20293333 C23.6331333,2.2066 23.6338667,2.211 23.6375333,2.21466667 C23.8157333,2.41486667 24.0122667,2.71773333 24.1193333,3.1064 C24.1281333,3.1394 24.1428,3.1702 24.1501333,3.20466667 C24.1809333,3.34693333 24.2,3.50093333 24.2,3.66666667 C24.2,4.8796 23.2129333,5.86666667 22,5.86666667 C20.7870667,5.86666667 19.8,4.8796 19.8,3.66666667 C19.8,3.50093333 19.8190667,3.34693333 19.8506,3.20466667 C19.8579333,3.17093333 19.8718667,3.14086667 19.8806667,3.10786667 C19.9877333,2.71773333 20.1842667,2.4156 20.3624667,2.21466667 C20.3654,2.211 20.3661333,2.2066 20.3698,2.20293333 C20.7731333,1.75486667 21.351,1.46666667 22,1.46666667 C22.649,1.46666667 23.2268667,1.75486667 23.6302,2.20293333 Z M18.3377333,3.48626667 C18.3348,3.5464 18.3333333,3.60653333 18.3333333,3.66666667 C18.3333333,5.68846667 19.9782,7.33333333 22,7.33333333 C24.0218,7.33333333 25.6666667,5.68846667 25.6666667,3.66666667 C25.6666667,3.60653333 25.6652,3.5464 25.6622667,3.48626667 C28.2971333,5.05266667 31.5546,6.8574 33.7707333,8.06666667 L10.2292667,8.06666667 C12.4454,6.8574 15.7028667,5.05266667 18.3377333,3.48626667 Z M7.33333333,9.53333333 L36.6666667,9.53333333 L42.5333333,9.53333333 L42.5333333,13.2 L1.46666667,13.2 L1.46666667,9.53333333 L7.33333333,9.53333333 Z M1.46666667,42.5333333 L1.46666667,14.6666667 L42.5333333,14.6666667 L42.5333333,42.5333333 L1.46666667,42.5333333 Z"/><circle id="Oval" cx="16.867" cy="20.533" r="1"/><circle id="Oval" cx="22" cy="20.533" r="1"/><circle id="Oval" cx="27.133" cy="20.533" r="1"/><circle id="Oval" cx="32.267" cy="20.533" r="1"/><circle id="Oval" cx="37.4" cy="20.533" r="1"/><circle id="Oval" cx="6.6" cy="26.4" r="1"/><circle id="Oval" cx="11.733" cy="26.4" r="1"/><circle id="Oval" cx="16.867" cy="26.4" r="1"/><circle id="Oval" cx="22" cy="26.4" r="1"/><circle id="Oval" cx="27.133" cy="26.4" r="1"/><circle id="Oval" cx="32.267" cy="26.4" r="1"/><circle id="Oval" cx="37.4" cy="26.4" r="1"/><circle id="Oval" cx="6.6" cy="31.533" r="1"/><circle id="Oval" cx="11.733" cy="31.533" r="1"/><circle id="Oval" cx="16.867" cy="31.533" r="1"/><circle id="Oval" cx="22" cy="31.533" r="1"/><circle id="Oval" cx="27.133" cy="31.533" r="1"/><circle id="Oval" cx="32.267" cy="31.533" r="1"/><circle id="Oval" cx="37.4" cy="31.533" r="1"/><circle id="Oval" cx="6.6" cy="37.4" r="1"/><circle id="Oval" cx="11.733" cy="37.4" r="1"/><circle id="Oval" cx="16.867" cy="37.4" r="1"/><circle id="Oval" cx="22" cy="37.4" r="1"/><circle id="Oval" cx="27.133" cy="37.4" r="1"/></g></g></g></svg>