<svg xmlns="http://www.w3.org/2000/svg" xmlns:xlink="http://www.w3.org/1999/xlink" width="44" height="44" version="1.1" viewBox="0 0 44 44"><title>check-mark</title><desc>Created with Sketch.</desc><g id="pages" fill="none" fill-rule="evenodd" stroke="none" stroke-width="1"><g id="third-slide-3-copy" fill="#FFF" fill-rule="nonzero" transform="translate(-960.000000, -637.000000)"><g id="Group-10" transform="translate(960.000000, 637.000000)"><g id="check-mark"><path id="Shape" d="M21.9283922,0.00014379085 C9.83701961,0.00014379085 0,9.83701961 0,21.9282484 C0,34.0194771 9.83701961,43.8563529 21.9283922,43.8563529 C34.0196209,43.8563529 43.8564967,34.0194771 43.8564967,21.9282484 C43.8564967,9.83701961 34.0196209,0.00014379085 21.9283922,0.00014379085 Z M21.9283922,40.2615817 C11.8191765,40.2615817 3.59477124,32.0374641 3.59477124,21.9282484 C3.59477124,11.8191765 11.8191765,3.59491503 21.9283922,3.59491503 C32.0374641,3.59491503 40.2617255,11.8191765 40.2617255,21.9282484 C40.2617255,32.0374641 32.0374641,40.2615817 21.9283922,40.2615817 Z"/><path id="Shape" d="M31.4144183,13.5120261 L18.394732,26.5318562 L12.4420784,20.5792026 C11.7400915,19.8773595 10.6021307,19.8773595 9.90014379,20.5792026 C9.19830065,21.2811895 9.19830065,22.4191503 9.90014379,23.1211373 L17.1237647,30.3447582 C17.4747582,30.6956078 17.9347451,30.8711765 18.394732,30.8711765 C18.854719,30.8711765 19.3147059,30.6956078 19.6656993,30.3447582 L33.9563529,16.0541046 C34.6581961,15.3521176 34.6581961,14.2141569 33.9563529,13.5121699 C33.254366,12.810183 32.1162614,12.810183 31.4144183,13.5120261 Z"/></g></g></g></g></svg>