<svg xmlns="http://www.w3.org/2000/svg" xmlns:xlink="http://www.w3.org/1999/xlink" width="77" height="77" version="1.1" viewBox="0 0 77 77"><title>clock</title><desc>Created with Sketch.</desc><g id="pages" fill="none" fill-rule="evenodd" stroke="none" stroke-width="1"><g id="пока--делали" fill="#FFF" fill-rule="nonzero" transform="translate(-840.000000, -680.000000)"><g id="Group-7" transform="translate(820.000000, 680.000000)"><g id="clock" transform="translate(20.000000, 0.000000)"><path id="Shape" d="M38.49923,0 C17.2369633,0 0.000256666666,17.23722 0.000256666666,38.4987167 C0.000256666666,59.7602133 17.2369633,76.9994867 38.4989733,76.9994867 C59.7609833,76.9994867 76.9989733,59.7609833 76.9989733,38.4987167 C76.9989733,17.23645 59.76124,0 38.49923,0 Z M41.1577833,43.2064967 C41.15573,43.3076233 41.1405867,43.40875 41.12647,43.5101333 C41.11646,43.5861067 41.11184,43.6638767 41.0946433,43.7385667 C41.0774467,43.8163367 41.04793,43.89308 41.0227767,43.97085 C40.9927467,44.06479 40.96477,44.1584733 40.9255,44.2470233 C40.9180567,44.2624233 40.91549,44.27885 40.9088167,44.29425 C40.85081,44.4179633 40.7835633,44.5339767 40.7099,44.64383 C40.70528,44.6505033 40.69912,44.6571767 40.6945,44.66385 C40.61057,44.78705 40.5148333,44.8989567 40.41422,45.0039333 C40.3862433,45.03268 40.3577533,45.0586033 40.3282367,45.08581 C40.2396867,45.1702533 40.1465167,45.24751 40.0474433,45.3180933 C40.0169,45.3401667 39.98764,45.3632667 39.9555567,45.38457 C39.8285067,45.46773 39.6952967,45.54088 39.5566967,45.60094 C39.5266667,45.6142867 39.4953533,45.6222433 39.46481,45.6343067 C39.34777,45.67948 39.22919,45.7169533 39.10676,45.7454433 C39.06287,45.7559667 39.0194933,45.7654633 38.9748333,45.77342 C38.8177533,45.8021667 38.65862,45.82193 38.4974333,45.82193 C38.4648367,45.82193 38.43147,45.81192 38.3988733,45.8106367 C38.24436,45.8047333 38.0913867,45.79267 37.9443167,45.7613567 C37.8983733,45.7513467 37.8532,45.7313267 37.8072567,45.71875 C37.6701967,45.6815333 37.5362167,45.64021 37.4083967,45.5829733 C37.3937667,45.57553 37.3783667,45.5742467 37.3637367,45.5675733 L22.6015533,38.6044633 C21.2715067,37.9774267 20.7017067,36.3904567 21.3287433,35.06041 C21.95578,33.7311333 23.54275,33.1605633 24.8727967,33.7876 L35.83657,38.9578933 L35.83657,15.9772433 C35.83657,14.5068 37.0287867,13.3145833 38.49923,13.3145833 C39.9696733,13.3145833 41.16189,14.5068 41.16189,15.9772433 L41.16189,43.1585 L41.1624033,43.1585 C41.1624033,43.1744133 41.1577833,43.1903267 41.1577833,43.2064967 Z"/></g></g></g></g></svg>