<svg xmlns="http://www.w3.org/2000/svg" xmlns:xlink="http://www.w3.org/1999/xlink" width="39" height="41" version="1.1" viewBox="0 0 39 41"><title>diagram</title><desc>Created with Sketch.</desc><g id="pages" fill="none" fill-rule="evenodd" stroke="none" stroke-width="1"><g id="about-copy" fill-rule="nonzero" transform="translate(-916.000000, -729.000000)"><g id="Group-4" transform="translate(916.000000, 712.000000)"><g id="diagram" transform="translate(0.000000, 17.000000)"><path id="Shape" fill="#FFF" d="M33.8,16.3026434 L33.8,11.0857975 L23.6691,11.0857975 L20.8,8.20740278 L20.8,5.84612791 C23.43445,5.67592832 25.35,4.48257482 25.35,2.93447581 C25.35,1.2618246 23.11465,0 20.15,0 C17.18535,0 14.95,1.2618246 14.95,2.93447581 C14.95,4.48257482 16.86555,5.67592832 19.5,5.84612791 L19.5,8.20740278 L16.6309,11.0857975 L6.5,11.0857975 L6.5,16.3026434 L1.95,16.3026434 L1.95,22.8237007 L12.35,22.8237007 L12.35,20.2152778 L19.5,20.2152778 L19.5,24.7800179 L5.85,24.7800179 L5.85,28.0405466 L7.15,28.0405466 L7.15,26.0842294 L33.15,26.0842294 L33.15,28.0405466 L34.45,28.0405466 L34.45,24.7800179 L20.8,24.7800179 L20.8,20.2152778 L27.95,20.2152778 L27.95,22.8237007 L38.35,22.8237007 L38.35,16.3026434 L33.8,16.3026434 Z M16.25,2.93447581 C16.25,2.25367742 17.7333,1.30421147 20.15,1.30421147 C22.5667,1.30421147 24.05,2.25367742 24.05,2.93447581 C24.05,3.61527419 22.5667,4.56474014 20.15,4.56474014 C17.7333,4.56474014 16.25,3.61527419 16.25,2.93447581 Z M20.15,9.39945206 L22.4809,11.7379032 L20.15,14.0763544 L17.8191,11.7379032 L20.15,9.39945206 Z M11.05,21.5194892 L3.25,21.5194892 L3.25,17.6068548 L11.05,17.6068548 L11.05,21.5194892 Z M12.35,18.9110663 L12.35,16.3026434 L7.8,16.3026434 L7.8,12.390009 L16.6309,12.390009 L20.15,15.9205094 L23.6691,12.390009 L32.5,12.390009 L32.5,16.3026434 L27.95,16.3026434 L27.95,18.9110663 L12.35,18.9110663 Z M37.05,21.5194892 L29.25,21.5194892 L29.25,17.6068548 L37.05,17.6068548 L37.05,21.5194892 Z"/><g id="Group" fill="#F9BA48" transform="translate(0.000000, 27.388441)"><path id="Shape" d="M37.05,13.0421147 L30.55,13.0421147 L30.55,9.28598566 C29.3228,8.29739337 28.6,6.80146281 28.6,5.21684588 C28.6,2.34040748 30.93285,0 33.8,0 C36.66715,0 39,2.34040748 39,5.21684588 C39,6.80211492 38.2772,8.29804547 37.05,9.28598566 L37.05,13.0421147 Z"/><path id="Shape" d="M13,8.47737455 L13,4.56474014 L11.3204,4.56474014 C11.30935,4.53800381 11.2983,4.51126747 11.28725,4.48453114 L12.4748,3.29313396 L9.7175,0.526901434 L8.52995,1.71829861 C8.5033,1.70721281 8.47665,1.69612702 8.45,1.68504122 L8.45,0 L4.55,0 L4.55,1.68504122 C4.52335,1.69612702 4.4967,1.70721281 4.47005,1.71829861 L3.2825,0.526901434 L0.5252,3.29313396 L1.71275,4.48453114 C1.7017,4.51126747 1.69065,4.53800381 1.6796,4.56474014 L0,4.56474014 L0,8.47737455 L1.6796,8.47737455 C1.69065,8.50411089 1.7017,8.53084722 1.71275,8.55758356 L0.5252,9.74832863 L3.2825,12.5152133 L4.47005,11.3238161 C4.4967,11.3349019 4.52335,11.3459877 4.55,11.3570735 L4.55,13.0421147 L8.45,13.0421147 L8.45,11.3570735 C8.47665,11.3459877 8.5033,11.3349019 8.52995,11.3238161 L9.7175,12.5152133 L12.4748,9.74832863 L11.28725,8.55758356 C11.2983,8.53084722 11.30935,8.50411089 11.3204,8.47737455 L13,8.47737455 L13,8.47737455 Z M6.5,8.47737455 C5.42295,8.47737455 4.55,7.60159655 4.55,6.52105735 C4.55,5.44051815 5.42295,4.56474014 6.5,4.56474014 C7.57705,4.56474014 8.45,5.44051815 8.45,6.52105735 C8.45,7.60159655 7.57705,8.47737455 6.5,8.47737455 Z"/></g><g id="Group" fill="#FFF" transform="translate(3.900000, 30.648970)"><path id="Shape" d="M30.55,3.79264695 C31.30465,3.52267518 31.85,2.80535887 31.85,1.9563172 C31.85,0.877734319 30.9751,0 29.9,0 C28.8249,0 27.95,0.877734319 27.95,1.9563172 C27.95,2.80535887 28.49535,3.52267518 29.25,3.79264695 L29.25,6.52105735 L26,6.52105735 L26,7.82526882 L33.8,7.82526882 L33.8,6.52105735 L30.55,6.52105735 L30.55,3.79264695 Z M29.9,1.30421147 C30.2588,1.30421147 30.55,1.59635484 30.55,1.9563172 C30.55,2.31627957 30.2588,2.60842294 29.9,2.60842294 C29.5412,2.60842294 29.25,2.31627957 29.25,1.9563172 C29.25,1.59635484 29.5412,1.30421147 29.9,1.30421147 Z"/><path id="Shape" d="M2.6,0.652105735 C1.1661,0.652105735 0,1.82198342 0,3.26052867 C0,4.69907392 1.1661,5.86895161 2.6,5.86895161 C4.0339,5.86895161 5.2,4.69907392 5.2,3.26052867 C5.2,1.82198342 4.0339,0.652105735 2.6,0.652105735 Z M2.6,4.56474014 C1.88305,4.56474014 1.3,3.9798013 1.3,3.26052867 C1.3,2.54125605 1.88305,1.9563172 2.6,1.9563172 C3.31695,1.9563172 3.9,2.54125605 3.9,3.26052867 C3.9,3.9798013 3.31695,4.56474014 2.6,4.56474014 Z"/></g></g></g></g></g></svg>