<?xml version="1.0" encoding="UTF-8"?>
<svg width="32px" height="31px" viewBox="0 0 32 31" version="1.1" xmlns="http://www.w3.org/2000/svg" xmlns:xlink="http://www.w3.org/1999/xlink">
    <!-- Generator: Sketch 44.1 (41455) - http://www.bohemiancoding.com/sketch -->
    <title>facebook</title>
    <desc>Created with Sketch.</desc>
    <defs></defs>
    <g id="pages" stroke="none" stroke-width="1" fill="none" fill-rule="evenodd">
        <g id="контакты-copy" transform="translate(-857.000000, -812.000000)" fill-rule="nonzero" fill="#FFFFFF">
            <g id="Group-3" transform="translate(365.000000, 812.000000)">
                <g id="Group-2-Copy-2" transform="translate(492.000000, 0.000000)">
                    <g id="facebook">
                        <path d="M15.8861593,30.7723186 C7.38861816,30.7723186 0.5,23.8837004 0.5,15.3861593 C0.5,6.88861816 7.38861816,0 15.8861593,0 C24.3837004,0 31.2723186,6.88861816 31.2723186,15.3861593 C31.2723186,23.8837004 24.3837004,30.7723186 15.8861593,30.7723186 Z M19.7542295,15.9884625 L20.1176411,12.4569251 L17.0090324,12.4569251 L17.0090324,10.3765654 C17.0090324,9.59625907 17.5246654,9.41304479 17.8913682,9.41304479 L20.1269664,9.41304479 L20.1269664,5.98189123 L17.045785,5.9690004 C13.6261509,5.9690004 12.8491358,8.53043471 12.8491358,10.1661981 L12.8491358,12.4536338 L10.8708056,12.4536338 L10.8708056,15.9884625 L12.8491358,15.9884625 L12.8491358,26.0465971 L17.0087581,26.0465971 L17.0087581,15.9884625 L19.7542295,15.9884625 Z" id="Combined-Shape"></path>
                    </g>
                </g>
            </g>
        </g>
    </g>
</svg>