<svg xmlns="http://www.w3.org/2000/svg" xmlns:xlink="http://www.w3.org/1999/xlink" width="43" height="54" version="1.1" viewBox="0 0 43 54"><title>file</title><desc>Created with Sketch.</desc><g id="pages" fill="none" fill-rule="evenodd" stroke="none" stroke-width="1"><g id="third-slide-3-copy" fill="#FFF" fill-rule="nonzero" transform="translate(-119.000000, -221.000000)"><g id="file" transform="translate(119.000000, 221.000000)"><path id="Shape" d="M34.9375,22.5 L12.5416667,22.5 C12.0471667,22.5 11.6458333,22.9023 11.6458333,23.4 C11.6458333,23.8977 12.0471667,24.3 12.5416667,24.3 L34.9375,24.3 C35.432,24.3 35.8333333,23.8977 35.8333333,23.4 C35.8333333,22.9023 35.432,22.5 34.9375,22.5 Z"/><path id="Shape" d="M12.5416667,17.1 L21.5,17.1 C21.9945,17.1 22.3958333,16.6977 22.3958333,16.2 C22.3958333,15.7023 21.9945,15.3 21.5,15.3 L12.5416667,15.3 C12.0471667,15.3 11.6458333,15.7023 11.6458333,16.2 C11.6458333,16.6977 12.0471667,17.1 12.5416667,17.1 Z"/><path id="Shape" d="M34.9375,29.7 L12.5416667,29.7 C12.0471667,29.7 11.6458333,30.1023 11.6458333,30.6 C11.6458333,31.0977 12.0471667,31.5 12.5416667,31.5 L34.9375,31.5 C35.432,31.5 35.8333333,31.0977 35.8333333,30.6 C35.8333333,30.1023 35.432,29.7 34.9375,29.7 Z"/><path id="Shape" d="M34.9375,36.9 L12.5416667,36.9 C12.0471667,36.9 11.6458333,37.3023 11.6458333,37.8 C11.6458333,38.2977 12.0471667,38.7 12.5416667,38.7 L34.9375,38.7 C35.432,38.7 35.8333333,38.2977 35.8333333,37.8 C35.8333333,37.3023 35.432,36.9 34.9375,36.9 Z"/><path id="Shape" d="M34.9375,44.1 L12.5416667,44.1 C12.0471667,44.1 11.6458333,44.5023 11.6458333,45 C11.6458333,45.4977 12.0471667,45.9 12.5416667,45.9 L34.9375,45.9 C35.432,45.9 35.8333333,45.4977 35.8333333,45 C35.8333333,44.5023 35.432,44.1 34.9375,44.1 Z"/><path id="Shape" d="M38.5208333,13.1274 L38.5208333,0 L0,0 L0,49.5 L4.47916667,49.5 L4.47916667,54 L43,54 L43,17.6274 L38.5208333,13.1274 Z M30.4583333,7.5726 L38.5208333,15.6726 L39.941625,17.1 L30.4583333,17.1 L30.4583333,7.5726 Z M1.79166667,47.7 L1.79166667,1.8 L36.7291667,1.8 L36.7291667,11.3274 L29.933375,4.5 L4.47916667,4.5 L4.47916667,47.7 L1.79166667,47.7 Z M6.27083333,52.2 L6.27083333,49.5 L6.27083333,6.3 L28.6666667,6.3 L28.6666667,18.9 L41.2083333,18.9 L41.2083333,52.2 L6.27083333,52.2 Z"/></g></g></g></svg>