<svg xmlns="http://www.w3.org/2000/svg" xmlns:xlink="http://www.w3.org/1999/xlink" width="744" height="744" version="1.1" viewBox="0 0 744 744"><title>fon-for-api</title><desc>Created with Sketch.</desc><g id="pages" fill="none" fill-rule="evenodd" stroke="none" stroke-width="1" opacity=".951"><g id="api---1-c" transform="translate(-333.000000, -86.000000)"><g id="fon-for-api" transform="translate(292.000000, 45.000000)"><circle id="Oval-19" cx="410.5" cy="408.5" r="321.5" stroke="#FFF" stroke-opacity=".115"/><rect id="Rectangle" width="583" height="583" x="121.5" y="121.5" stroke="#FFF" stroke-opacity=".133" rx="100"/><rect id="Rectangle" width="583" height="583" x="121.5" y="121.5" stroke="#FFF" stroke-opacity=".133" rx="100" transform="translate(413.000000, 413.000000) rotate(-345.000000) translate(-413.000000, -413.000000)"/><rect id="Rectangle" width="583" height="583" x="121.5" y="121.5" stroke="#FFF" stroke-opacity=".133" rx="100" transform="translate(413.000000, 413.000000) rotate(-330.000000) translate(-413.000000, -413.000000)"/><rect id="Rectangle" width="583" height="583" x="121.5" y="121.5" stroke="#FFF" stroke-opacity=".133" rx="100" transform="translate(413.000000, 413.000000) rotate(-315.000000) translate(-413.000000, -413.000000)"/><rect id="Rectangle" width="583" height="583" x="121.5" y="121.5" stroke="#FFF" stroke-opacity=".133" rx="100" transform="translate(413.000000, 413.000000) rotate(-300.000000) translate(-413.000000, -413.000000)"/><rect id="Rectangle" width="583" height="583" x="121.5" y="121.5" stroke="#FFF" stroke-opacity=".133" rx="100" transform="translate(413.000000, 413.000000) rotate(-285.000000) translate(-413.000000, -413.000000)"/><circle id="Oval-19" cx="410.5" cy="408.5" r="262.5" fill="#FFF" fill-opacity=".028"/></g></g></g></svg>