<?xml version="1.0" encoding="UTF-8"?>
<svg width="744px" height="744px" viewBox="0 0 744 744" version="1.1" xmlns="http://www.w3.org/2000/svg" xmlns:xlink="http://www.w3.org/1999/xlink">
    <!-- Generator: Sketch 44.1 (41455) - http://www.bohemiancoding.com/sketch -->
    <title>fon-for-api</title>
    <desc>Created with Sketch.</desc>
    <defs></defs>
    <g id="pages" stroke="none" stroke-width="1" fill="none" fill-rule="evenodd" opacity="0.950577446">
        <g id="api---1-c" transform="translate(-333.000000, -86.000000)">
            <g id="fon-for-api" transform="translate(292.000000, 45.000000)">
                <circle id="Oval-19" stroke-opacity="0.115290987" stroke="#FFFFFF" cx="410.5" cy="408.5" r="321.5"></circle>
                <rect id="Rectangle" stroke-opacity="0.132755888" stroke="#FFFFFF" x="121.5" y="121.5" width="583" height="583" rx="100"></rect>
                <rect id="Rectangle" stroke-opacity="0.132755888" stroke="#FFFFFF" transform="translate(413.000000, 413.000000) rotate(-345.000000) translate(-413.000000, -413.000000) " x="121.5" y="121.5" width="583" height="583" rx="100"></rect>
                <rect id="Rectangle" stroke-opacity="0.132755888" stroke="#FFFFFF" transform="translate(413.000000, 413.000000) rotate(-330.000000) translate(-413.000000, -413.000000) " x="121.5" y="121.5" width="583" height="583" rx="100"></rect>
                <rect id="Rectangle" stroke-opacity="0.132755888" stroke="#FFFFFF" transform="translate(413.000000, 413.000000) rotate(-315.000000) translate(-413.000000, -413.000000) " x="121.5" y="121.5" width="583" height="583" rx="100"></rect>
                <rect id="Rectangle" stroke-opacity="0.132755888" stroke="#FFFFFF" transform="translate(413.000000, 413.000000) rotate(-300.000000) translate(-413.000000, -413.000000) " x="121.5" y="121.5" width="583" height="583" rx="100"></rect>
                <rect id="Rectangle" stroke-opacity="0.132755888" stroke="#FFFFFF" transform="translate(413.000000, 413.000000) rotate(-285.000000) translate(-413.000000, -413.000000) " x="121.5" y="121.5" width="583" height="583" rx="100"></rect>
                <circle id="Oval-19" fill-opacity="0.0279098732" fill="#FFFFFF" cx="410.5" cy="408.5" r="262.5"></circle>
            </g>
        </g>
    </g>
</svg>