<?xml version="1.0" encoding="UTF-8"?>
<svg width="29px" height="54px" viewBox="0 0 29 54" version="1.1" xmlns="http://www.w3.org/2000/svg" xmlns:xlink="http://www.w3.org/1999/xlink">
    <!-- Generator: Sketch 44.1 (41455) - http://www.bohemiancoding.com/sketch -->
    <title>iphone</title>
    <desc>Created with Sketch.</desc>
    <defs></defs>
    <g id="pages" stroke="none" stroke-width="1" fill="none" fill-rule="evenodd">
        <g id="api---3" transform="translate(-1253.000000, -386.000000)">
            <g id="iphone" transform="translate(1253.000000, 386.000000)">
                <path d="M11.8086095,3.59996484 C11.3101058,3.59996484 10.909927,4.00317188 10.909927,4.49992969 C10.909927,4.9966875 11.3181496,5.39989453 11.8176058,5.39989453 C12.317062,5.39989453 12.7207336,4.9966875 12.7207336,4.49992969 C12.7207336,4.00317188 12.317062,3.59996484 11.8176058,3.59996484 L11.8086095,3.59996484 Z" id="Shape" fill="#231F20" fill-rule="nonzero"></path>
                <path d="M1,5 C1,2.790861 2.79412025,1 4.99683887,1 L25.0031611,1 C27.2105543,1 29,2.79535615 29,5 L29,9 L1,9 L1,5 Z" id="Rectangle" fill="#C7EBFF"></path>
                <path d="M1,48 C1,45.2385763 3.24402624,43 6.00583887,43 L23.9941611,43 C26.7588096,43 29,45.2441952 29,48 L29,53 L1,53 L1,48 Z" id="Rectangle-Copy" fill="#C7EBFF" transform="translate(15.000000, 48.000000) scale(1, -1) translate(-15.000000, -48.000000) "></path>
                <path d="M12.6936387,48.6 C12.6936387,49.5926719 13.5037336,50.4000352 14.5,50.4000352 C15.4961606,50.4000352 16.3063613,49.5927773 16.3063613,48.6 C16.3063613,47.6073281 15.4962664,46.7999648 14.5,46.7999648 C13.5038394,46.7999648 12.6936387,47.6073281 12.6936387,48.6 Z" id="Shape" fill="#231F20" fill-rule="nonzero"></path>
                <rect id="Rectangle-2" fill="#50A5DC" x="1" y="9" width="28" height="34"></rect>
                <path d="M0.952554745,41.3999648 C1.45105839,41.3999648 1.85568248,40.9967578 1.85568248,40.5 L1.85568248,4.50003516 C1.85568248,3.18779297 3.24831752,1.80003516 4.56517153,1.80003516 L24.4347226,1.80003516 C25.7515766,1.80003516 27.1442117,3.18779297 27.1442117,4.50003516 C27.1442117,4.99679297 27.5488358,5.4 28.0473394,5.4 C28.5458431,5.4 28.9504672,4.99679297 28.9504672,4.50003516 C28.950573,2.187 26.7558869,0 24.4348285,0 L4.56517153,0 C2.2440073,0 0.0493211679,2.187 0.0493211679,4.50003516 L0.0493211679,40.5 C0.0494270073,40.9967578 0.454051095,41.3999648 0.952554745,41.3999648 Z" id="Shape" fill="#231F20" fill-rule="nonzero"></path>
                <path d="M15.4031277,3.59996484 C14.9046241,3.59996484 14.5,4.00317188 14.5,4.49992969 C14.5,4.9966875 14.9046241,5.39989453 15.4031277,5.39989453 L19.0157445,5.39989453 C19.5142482,5.39989453 19.9188723,4.9966875 19.9188723,4.49992969 C19.9188723,4.00317188 19.5142482,3.59996484 19.0157445,3.59996484 L15.4031277,3.59996484 Z" id="Shape" fill="#231F20" fill-rule="nonzero"></path>
                <path d="M22.6284672,16.2 C22.8597263,16.2 23.0908796,16.1118281 23.2669964,15.9363281 C23.6201825,15.5843789 23.6201825,15.0155859 23.2669964,14.6637422 L21.460635,12.863707 C21.1074489,12.5118633 20.5366569,12.5118633 20.1835766,12.863707 C19.8304964,13.2156563 19.8304964,13.7844492 20.1835766,14.136293 L21.989938,15.9363281 C22.1660547,16.1118281 22.397208,16.2 22.6284672,16.2 Z" id="Shape" fill="#231F20" fill-rule="nonzero"></path>
                <path d="M14.7645985,12.863707 C14.4115182,13.2156562 14.4115182,13.7844492 14.7645985,14.136293 L21.989938,21.3363281 C22.1660547,21.5118281 22.3973139,21.6 22.6284672,21.6 C22.8597263,21.6 23.0908796,21.5118281 23.2669964,21.3363281 C23.6201825,20.9843789 23.6201825,20.4155859 23.2669964,20.0637422 L16.0416569,12.863707 C15.6885766,12.5117578 15.1177847,12.5117578 14.7645985,12.863707 Z" id="Shape" fill="#231F20" fill-rule="nonzero"></path>
                <path d="M28.0474453,7.20003516 L4.56517153,7.20003516 C4.06666788,7.20003516 3.6620438,7.60324219 3.6620438,8.1 C3.6620438,8.59675781 4.06666788,8.99996484 4.56517153,8.99996484 L27.1442117,8.99996484 L27.1442117,49.4999648 C27.1442117,50.812207 25.7515766,52.1999648 24.4347226,52.1999648 L4.56517153,52.1999648 C3.24831752,52.1999648 1.85568248,50.812207 1.85568248,49.4999648 L1.85568248,44.9999297 L24.4347226,44.9999297 C24.9332263,44.9999297 25.3378504,44.5967227 25.3378504,44.0999648 C25.3378504,43.603207 24.9332263,43.2 24.4347226,43.2 L0.952554745,43.2 C0.454051095,43.2 0.0494270073,43.603207 0.0494270073,44.0999648 L0.0494270073,49.4999648 C0.0494270073,51.813 2.24411314,54 4.56527737,54 L24.4348285,54 C26.7559927,54 28.9506788,51.813 28.9506788,49.4999648 L28.9506788,8.1 C28.950573,7.60324219 28.5459489,7.20003516 28.0474453,7.20003516 Z" id="Shape" fill="#231F20" fill-rule="nonzero"></path>
            </g>
        </g>
    </g>
</svg>