<?xml version="1.0" encoding="UTF-8"?>
<svg width="34px" height="47px" viewBox="0 0 34 47" version="1.1" xmlns="http://www.w3.org/2000/svg" xmlns:xlink="http://www.w3.org/1999/xlink">
    <!-- Generator: Sketch 44.1 (41455) - http://www.bohemiancoding.com/sketch -->
    <title>Group 8</title>
    <desc>Created with Sketch.</desc>
    <defs></defs>
    <g id="pages" stroke="none" stroke-width="1" fill="none" fill-rule="evenodd">
        <g id="second-slide-copy" transform="translate(-305.000000, -638.000000)" fill-rule="nonzero">
            <g id="Group-2" transform="translate(276.000000, 615.000000)">
                <g id="Group-7">
                    <g id="light-bulb-copy">
                        <g id="Group-8" transform="translate(29.000000, 23.000000)">
                            <path d="M19.1662331,42.5114542 L14.7434688,42.5114542 C14.3360217,42.5114542 14.0063415,42.8392632 14.0063415,43.2443977 L14.0063415,43.9773411 C14.0063415,45.5942144 15.328748,46.909115 16.9548509,46.909115 C18.5809539,46.909115 19.9033604,45.5942144 19.9033604,43.9773411 L19.9033604,43.2443977 C19.9033604,42.8392632 19.5736802,42.5114542 19.1662331,42.5114542 Z" id="Shape" fill="#868491"></path>
                            <path d="M16.9541138,42.5114542 L14.7434688,42.5114542 C14.3360217,42.5114542 14.0063415,42.8392632 14.0063415,43.2443977 L14.0063415,43.9773411 C14.0063415,45.5940312 15.3282873,46.9086569 16.9541138,46.9090234 L16.9541138,42.5114542 L16.9541138,42.5114542 Z" id="Shape" fill="#5C546A"></path>
                            <path d="M28.5621192,4.5712768 C25.116878,1.35173099 20.6041843,-0.260836257 15.8711816,0.0343567251 C7.24586992,0.568031189 0.277712737,7.72210916 0.00847696477,16.3216433 C-0.190178862,22.6933957 3.17582114,28.5597836 8.79356098,31.6325575 C10.1900488,32.3970175 11.0574634,33.8650117 11.0574634,35.4647524 L11.0574634,41.0455673 C11.0574634,42.6624405 12.3798699,43.9773411 14.0059729,43.9773411 L19.9029919,43.9773411 C21.5290949,43.9773411 22.8515014,42.6624405 22.8515014,41.0455673 L22.8515014,35.4647524 C22.8515014,33.8664776 23.7253659,32.3948187 25.1334634,31.6232125 C30.5460054,28.6542417 33.9084119,22.9968343 33.9084119,16.8584327 C33.9084119,12.2245809 31.9598157,7.74602144 28.5621192,4.5712768 Z" id="Shape" fill="#FFCD00"></path>
                            <ellipse id="Oval" fill="#FFE671" cx="16.9541138" cy="16.8584327" rx="11.7940379" ry="11.7270955"></ellipse>
                            <path d="M19.5325854,21.2560936 C18.5528509,21.2560936 18.0518808,20.6877875 17.6869106,20.273308 C17.3651545,19.9083021 17.2369864,19.7902066 16.9497832,19.7902066 C16.6639621,19.7902066 16.5366233,19.9083021 16.2162493,20.2726667 C15.8721951,20.6641501 15.3516911,21.2560936 14.3719566,21.2560936 C13.3929593,21.2560936 12.8725474,20.6641501 12.5284011,20.2726667 C12.2080271,19.9083021 12.0806883,19.7902066 11.7948672,19.7902066 C11.3874201,19.7902066 11.0577398,19.4623977 11.0577398,19.0572632 C11.0577398,18.6521287 11.3874201,18.3243197 11.7948672,18.3243197 C12.7738645,18.3243197 13.2942764,18.9162632 13.6384228,19.3077466 C13.9587967,19.6721111 14.0861355,19.7902066 14.3719566,19.7902066 C14.6577778,19.7902066 14.7858537,19.6721111 15.1062276,19.3077466 C15.4502818,18.9162632 15.9707859,18.3243197 16.9497832,18.3243197 C17.9295176,18.3243197 18.4304878,18.8926257 18.795458,19.3071053 C19.1172141,19.6721111 19.2453821,19.7902066 19.5325854,19.7902066 C19.8190515,19.7902066 19.9472195,19.6721111 20.2689756,19.3077466 C20.6137669,18.9162632 21.134271,18.3243197 22.1146504,18.3243197 C22.5220976,18.3243197 22.8517778,18.6521287 22.8517778,19.0572632 C22.8517778,19.4623977 22.5220976,19.7902066 22.1146504,19.7902066 C21.8274472,19.7902066 21.6992791,19.9083021 21.377523,20.273308 C21.0327317,20.664883 20.5123198,21.2560936 19.5325854,21.2560936 Z" id="Shape" fill="#FFFFFF"></path>
                            <path d="M14.7427317,35.1820195 C14.4036531,35.1820195 14.0984824,34.9479357 14.0228347,34.6051014 L10.3371978,17.7474016 C10.2507696,17.3516121 10.5035122,16.9615029 10.9008238,16.874924 C11.301084,16.7876121 11.6912087,17.0402943 11.7782818,17.4353509 L15.4639187,34.2930507 C15.5503469,34.6888402 15.2976043,35.0789493 14.9002927,35.1655283 C14.8471274,35.1770721 14.7945149,35.1820195 14.7427317,35.1820195 Z" id="Shape" fill="#5C546A"></path>
                            <path d="M19.166878,35.1820195 C19.1150027,35.1820195 19.0624824,35.1769805 19.0092249,35.1655283 C18.6118211,35.0789493 18.3591707,34.6888402 18.4455989,34.2930507 L22.1312358,17.4353509 C22.2183089,17.0402027 22.6070515,16.7882534 23.0086938,16.874924 C23.4060976,16.9615029 23.658748,17.3516121 23.5723198,17.7474016 L19.8866829,34.6051014 C19.8112195,34.9480273 19.5059566,35.1820195 19.166878,35.1820195 Z" id="Shape" fill="#5C546A"></path>
                            <path d="M10.9309539,34.449076 C11.0093659,34.7782593 11.0575556,35.1172456 11.0575556,35.4647524 L11.0575556,41.0455673 C11.0575556,42.6624405 12.3799621,43.9773411 14.006065,43.9773411 L19.903084,43.9773411 C21.529187,43.9773411 22.8515935,42.6624405 22.8515935,41.0455673 L22.8515935,35.4647524 C22.8515935,35.1175205 22.9001518,34.7784425 22.9791165,34.449076 L10.9309539,34.449076 Z" id="Shape" fill="#B4B6BC"></path>
                            <path d="M16.9541138,34.449076 L10.9309539,34.449076 C11.0093659,34.7782593 11.0575556,35.1172456 11.0575556,35.4647524 L11.0575556,41.0455673 C11.0575556,42.6624405 12.3799621,43.9773411 14.006065,43.9773411 L16.9541138,43.9773411 L16.9541138,34.449076 Z" id="Shape" fill="#868491"></path>
                            <rect id="Rectangle-path" fill="#868491" x="16.9541138" y="36.6479064" width="5.89701897" height="1.46588694"></rect>
                            <rect id="Rectangle-path" fill="#868491" x="16.9544824" y="39.5796803" width="5.89701897" height="1.46588694"></rect>
                            <rect id="Rectangle-path" fill="#5C546A" x="11.0570949" y="36.6479064" width="5.89701897" height="1.46588694"></rect>
                            <rect id="Rectangle-path" fill="#5C546A" x="11.0570949" y="39.5796803" width="5.89701897" height="1.46588694"></rect>
                        </g>
                    </g>
                </g>
            </g>
        </g>
    </g>
</svg>