<svg xmlns="http://www.w3.org/2000/svg" xmlns:xlink="http://www.w3.org/1999/xlink" width="72" height="46" version="1.1" viewBox="0 0 72 46"><title>laptop (2)</title><desc>Created with Sketch.</desc><g id="pages" fill="none" fill-rule="evenodd" stroke="none" stroke-width="1"><g id="api---2" fill-rule="nonzero" transform="translate(-1235.000000, -566.000000)"><g id="laptop-(2)" transform="translate(1235.000000, 566.000000)"><rect id="Rectangle-path" width="4.963" height="4.929" x="15.708" y="36.007" fill="#ACACAD"/><rect id="Rectangle-path" width="2.482" height="4.929" x="15.708" y="36.007" fill="#C7EBFF"/><rect id="Rectangle-path" width="4.963" height="4.929" x="55.049" y="36.007" fill="#ACACAD"/><rect id="Rectangle-path" width="2.482" height="4.929" x="55.049" y="36.007" fill="#C7EBFF"/><path id="Shape" fill="#C7EBFF" d="M6.1609375,44.870125 L69.5579687,44.870125 C70.8149609,44.870125 71.8340625,43.8496369 71.8340625,42.5910714 C71.8340625,41.332369 70.8149609,40.3120179 69.5579687,40.3120179 L6.1609375,40.3120179 C4.90394531,40.3120179 3.88498047,41.332506 3.88498047,42.5910714 C3.88511719,43.8492262 4.90367187,44.870125 6.1609375,44.870125"/><path id="Shape" fill="#50A5DC" d="M62.2931745,0 L11.706941,0 C10.2118752,0 9,1.51912193 9,3.393081 L9,7.60045431 L9,36.0074583 L65,36.0074583 L65,7.60045431 L65,3.393081 C65,1.51912193 63.7881248,0 62.2931745,0 Z"/><path id="Shape" fill="#000" d="M12.000004,14.0230372 C11.3220554,14.0230372 10.7722812,14.5717637 10.7722812,15.2484201 L10.7722812,30.2417155 C10.7722812,30.918372 11.3220554,31.4670985 12.000004,31.4670985 C12.6779525,31.4670985 13.2277267,30.918372 13.2277267,30.2417155 L13.2277267,15.2484201 C13.2277267,14.5716411 12.6780752,14.0230372 12.000004,14.0230372 Z"/><path id="Shape" fill="#000" d="M12.000004,4.71012691 C11.3220554,4.71012691 10.7722812,5.25885339 10.7722812,5.93550985 L10.7722812,10.7719737 C10.7722812,11.4486302 11.3220554,11.9973567 12.000004,11.9973567 C12.6779525,11.9973567 13.2277267,11.4486302 13.2277267,10.7719737 L13.2277267,5.93550985 C13.2277267,5.25873085 12.6780752,4.71012691 12.000004,4.71012691 Z"/><g id="Group" fill="#231F20"><path id="Shape" d="M66.6983789,39.1817321 L58.1776563,39.1817321 L58.1776563,37.3574762 L60.2109375,37.3574762 C61.9218359,37.3574762 63.3137695,35.9635119 63.3137695,34.2501488 L63.3137695,13.7006071 C63.3137695,13.1334107 62.8548047,12.6736845 62.2882422,12.6736845 C61.7216797,12.6736845 61.2627148,13.1332738 61.2627148,13.7006071 L61.2627148,34.2500119 C61.2627148,34.8308988 60.7908984,35.303631 60.2108008,35.303631 L9.78919922,35.303631 C9.20910156,35.303631 8.73701172,34.8310357 8.73701172,34.2500119 L8.73701172,3.10732738 C8.73701172,2.52644048 9.20896484,2.05370833 9.78919922,2.05370833 L60.2109375,2.05370833 C60.7908984,2.05370833 61.2628516,2.52630357 61.2628516,3.10732738 L61.2628516,10.3234405 C61.2628516,10.8906369 61.7218164,11.3503631 62.2883789,11.3503631 C62.8549414,11.3503631 63.3139062,10.8907738 63.3139062,10.3234405 L63.3139062,3.10732738 C63.3139062,1.39382738 61.9218359,0 60.2110742,0 L9.78919922,0 C8.07816406,0 6.68609375,1.39396429 6.68609375,3.10732738 L6.68609375,34.2500119 C6.68609375,35.9635119 8.07816406,37.3573393 9.78919922,37.3573393 L11.8224805,37.3573393 L11.8224805,39.1815952 L3.30148437,39.1815952 C1.48107422,39.1817321 0,40.6648214 0,42.4877083 C0,44.3105952 1.48107422,45.7936845 3.30148437,45.7936845 L9.89105469,45.7936845 C10.4573437,45.7936845 10.916582,45.3340952 10.916582,44.7667619 C10.916582,44.1994286 10.4574805,43.7398393 9.89105469,43.7398393 L3.30148437,43.7398393 C2.61201172,43.7398393 2.05091797,43.1779821 2.05091797,42.4875714 C2.05091797,41.7972976 2.611875,41.2353036 3.30148437,41.2353036 L66.6985156,41.2353036 C67.3879883,41.2353036 67.949082,41.7971607 67.949082,42.4875714 C67.949082,43.1778452 67.3879883,43.7398393 66.6985156,43.7398393 L13.4460156,43.7398393 C12.8797266,43.7398393 12.4204883,44.1994286 12.4204883,44.7667619 C12.4204883,45.3340952 12.8795898,45.7936845 13.4460156,45.7936845 L66.6983789,45.7936845 C68.5187891,45.7936845 69.9998633,44.3105952 69.9998633,42.4877083 C69.9998633,40.6648214 68.5189258,39.1817321 66.6983789,39.1817321 Z M51.1639844,37.3573393 L51.1639844,39.1815952 L18.8362891,39.1815952 L18.8362891,37.3573393 L51.1639844,37.3573393 Z M13.8736719,39.1817321 L13.8736719,37.3574762 L16.7853711,37.3574762 L16.7853711,39.1817321 L13.8736719,39.1817321 Z M53.2149023,39.1817321 L53.2149023,37.3574762 L56.1266016,37.3574762 L56.1266016,39.1817321 L53.2149023,39.1817321 Z"/></g></g></g></g></svg>