<svg xmlns="http://www.w3.org/2000/svg" xmlns:xlink="http://www.w3.org/1999/xlink" width="62" height="56" version="1.1" viewBox="0 0 62 56"><title>mac</title><desc>Created with Sketch.</desc><g id="pages" fill="none" fill-rule="evenodd" stroke="none" stroke-width="1"><g id="api---3" fill-rule="nonzero" transform="translate(-1239.000000, -701.000000)"><g id="mac" transform="translate(1239.000000, 701.000000)"><path id="Shape" fill="#50A5DC" d="M57.8795168,1.24327352 L4.10525941,1.24327352 C2.51597228,1.24327352 1.22772277,2.6649628 1.22772277,4.41873085 L1.22772277,8.35625383 L1.22772277,34.9413042 L60.7569307,34.9413042 L60.7569307,8.35625383 L60.7569307,4.41873085 C60.7569307,2.6649628 59.4686812,1.24327352 57.8795168,1.24327352 Z"/><g id="Group" transform="translate(1.227723, 34.923414)"><path id="Shape" fill="#C7EBFF" d="M0,0.0178905908 L0,9.2902407 C0,11.0440088 1.2882495,12.465698 2.87753663,12.465698 L56.6517941,12.465698 C58.2409584,12.465698 59.5293307,11.0440088 59.5293307,9.2902407 L59.5293307,0.0178905908 L0,0.0178905908 Z M29.7646653,8.40110284 C28.5347327,8.40110284 27.5375762,7.40584683 27.5375762,6.17825821 C27.5375762,4.95066958 28.5346099,3.95541357 29.7646653,3.95541357 C30.9947208,3.95541357 31.9917545,4.95054705 31.9917545,6.17825821 C31.9917545,7.40596937 30.994598,8.40110284 29.7646653,8.40110284 Z"/><ellipse id="Oval" cx="29.765" cy="6.178" fill="#50A5DC" rx="2.227" ry="2.223"/></g><polygon id="Shape" fill="#C7EBFF" points="36.21 54.741 25.775 54.741 28.23 47.389 33.755 47.389"/><g id="Group" fill="#000"><path id="Shape" d="M61.9846535,4.41885339 C61.9846535,1.99222757 60.1430693,0.0180131291 57.8793941,0.0180131291 L4.10513663,0.0180131291 C1.84158416,0.0178905908 0,1.99222757 0,4.41885339 L0,44.2137768 C0,46.6404026 1.84158416,48.6144945 4.10525941,48.6144945 L26.5265465,48.6144945 L24.8896238,53.5160263 L21.7230812,53.5160263 C21.0451327,53.5160263 20.4953584,54.0647527 20.4953584,54.7414092 C20.4953584,55.4180656 21.0451327,55.9667921 21.7230812,55.9667921 L25.7745663,55.9667921 L36.2102099,55.9667921 L40.261695,55.9667921 C40.9396436,55.9667921 41.4894178,55.4180656 41.4894178,54.7414092 C41.4894178,54.0647527 40.9396436,53.5160263 40.261695,53.5160263 L37.0951525,53.5160263 L35.4582297,48.6144945 L57.8795168,48.6144945 C60.1431921,48.6144945 61.9847762,46.6404026 61.9847762,44.2137768 L61.9847762,4.41885339 L61.9846535,4.41885339 Z M2.45544554,4.41885339 C2.45544554,3.34357987 3.19551683,2.46877899 4.10525941,2.46877899 L57.8795168,2.46877899 C58.7891366,2.46877899 59.5293307,3.34357987 59.5293307,4.41885339 L59.5293307,33.7160438 L2.45544554,33.7160438 L2.45544554,4.41885339 Z M34.5067446,53.5160263 L27.4777861,53.5160263 L29.1148317,48.6144945 L32.869699,48.6144945 L34.5067446,53.5160263 Z M59.5292079,44.2136543 C59.5292079,45.2888053 58.7891366,46.1636061 57.8793941,46.1636061 L33.7546416,46.1636061 L28.2298891,46.1636061 L4.10513663,46.1636061 C3.19551683,46.1636061 2.45532277,45.2888053 2.45532277,44.2136543 L2.45532277,36.1666871 L59.5290851,36.1666871 L59.5292079,44.2136543 L59.5292079,44.2136543 Z"/><path id="Shape" d="M30.9923881,44.5498993 C32.8974455,44.5498993 34.4472,43.0030985 34.4472,41.1016718 C34.4472,39.2002451 32.8974455,37.6534442 30.9923881,37.6534442 C29.0873307,37.6534442 27.5375762,39.2002451 27.5375762,41.1016718 C27.5375762,43.0030985 29.0873307,44.5498993 30.9923881,44.5498993 Z M30.9923881,40.1042101 C31.5433901,40.1042101 31.9917545,40.5515974 31.9917545,41.1016718 C31.9917545,41.6517462 31.5435129,42.0991335 30.9923881,42.0991335 C30.4412634,42.0991335 29.9930218,41.6517462 29.9930218,41.1016718 C29.9930218,40.5515974 30.4412634,40.1042101 30.9923881,40.1042101 Z"/><path id="Shape" d="M6.00000396,14.0230372 C5.32205545,14.0230372 4.77228119,14.5717637 4.77228119,15.2484201 L4.77228119,30.2417155 C4.77228119,30.918372 5.32205545,31.4670985 6.00000396,31.4670985 C6.67795248,31.4670985 7.22772673,30.918372 7.22772673,30.2417155 L7.22772673,15.2484201 C7.22772673,14.5716411 6.67807525,14.0230372 6.00000396,14.0230372 Z"/><path id="Shape" d="M6.00000396,4.71012691 C5.32205545,4.71012691 4.77228119,5.25885339 4.77228119,5.93550985 L4.77228119,10.7719737 C4.77228119,11.4486302 5.32205545,11.9973567 6.00000396,11.9973567 C6.67795248,11.9973567 7.22772673,11.4486302 7.22772673,10.7719737 L7.22772673,5.93550985 C7.22772673,5.25873085 6.67807525,4.71012691 6.00000396,4.71012691 Z"/></g></g></g></g></svg>