<svg xmlns="http://www.w3.org/2000/svg" xmlns:xlink="http://www.w3.org/1999/xlink" width="922" height="617" version="1.1" viewBox="0 0 922 617"><title>Objects</title><desc>Created with Sketch.</desc><defs><linearGradient id="linearGradient-1" x1="-2409.567%" x2="-359.642%" y1="132.203%" y2="-1580.77%"><stop offset="0%" stop-color="#EBEBEB"/><stop offset="100%" stop-color="#FFF"/></linearGradient><linearGradient id="linearGradient-2" x1="-1153.613%" x2="-80.462%" y1="48.63%" y2="-1849.881%"><stop offset="0%" stop-color="#EBEBEB"/><stop offset="100%" stop-color="#FFF"/></linearGradient><linearGradient id="linearGradient-3" x1="-4343.16%" x2="-256.902%" y1="2921.442%" y2="-5551.891%"><stop offset="0%" stop-color="#EBEBEB"/><stop offset="100%" stop-color="#FFF"/></linearGradient><linearGradient id="linearGradient-4" x1="-571.7%" x2="52.56%" y1="410.081%" y2="-644.619%"><stop offset="0%" stop-color="#EBEBEB"/><stop offset="100%" stop-color="#FFF"/></linearGradient><linearGradient id="linearGradient-5" x1="-2925.548%" x2="228.701%" y1="103.809%" y2="-4024.476%"><stop offset="0%" stop-color="#EBEBEB"/><stop offset="100%" stop-color="#FFF"/></linearGradient><linearGradient id="linearGradient-6" x1="-1040.726%" x2="191.067%" y1="848.106%" y2="-267.698%"><stop offset="0%" stop-color="#EBEBEB"/><stop offset="100%" stop-color="#FFF"/></linearGradient><linearGradient id="linearGradient-7" x1="-2315.067%" x2="301.029%" y1="2444.986%" y2="-632.807%"><stop offset="0%" stop-color="#EBEBEB"/><stop offset="100%" stop-color="#FFF"/></linearGradient><linearGradient id="linearGradient-8" x1="-12310.649%" x2="1397.737%" y1="5976.88%" y2="-14703.464%"><stop offset="0%" stop-color="#EBEBEB"/><stop offset="100%" stop-color="#FFF"/></linearGradient><linearGradient id="linearGradient-9" x1="-7582.978%" x2="1122.227%" y1="6072.641%" y2="-1351.414%"><stop offset="0%" stop-color="#EBEBEB"/><stop offset="100%" stop-color="#FFF"/></linearGradient><linearGradient id="linearGradient-10" x1="-2780.506%" x2="529.012%" y1="1751.595%" y2="-3802.198%"><stop offset="0%" stop-color="#EBEBEB"/><stop offset="100%" stop-color="#FFF"/></linearGradient><linearGradient id="linearGradient-11" x1="-2127.448%" x2="488.648%" y1="4441.319%" y2="-6620.531%"><stop offset="0%" stop-color="#EBEBEB"/><stop offset="100%" stop-color="#FFF"/></linearGradient><linearGradient id="linearGradient-12" x1="-2056.133%" x2="506.767%" y1="855.324%" y2="-1365.624%"><stop offset="0%" stop-color="#EBEBEB"/><stop offset="100%" stop-color="#FFF"/></linearGradient><linearGradient id="linearGradient-13" x1="-6552.412%" x2="1526.706%" y1="5564.254%" y2="-12045.209%"><stop offset="0%" stop-color="#EBEBEB"/><stop offset="100%" stop-color="#FFF"/></linearGradient><linearGradient id="linearGradient-14" x1="-7613.172%" x2="1858.897%" y1="4143.314%" y2="-9386.824%"><stop offset="0%" stop-color="#EBEBEB"/><stop offset="100%" stop-color="#FFF"/></linearGradient><linearGradient id="linearGradient-15" x1="-3089.594%" x2="891.42%" y1="4334.432%" y2="-9351.737%"><stop offset="0%" stop-color="#EBEBEB"/><stop offset="100%" stop-color="#FFF"/></linearGradient><linearGradient id="linearGradient-16" x1="-205.903%" x2="80.066%" y1="116.238%" y2="-282.442%"><stop offset="0%" stop-color="#EBEBEB"/><stop offset="100%" stop-color="#FFF"/></linearGradient><linearGradient id="linearGradient-17" x1="-825.22%" x2="379.379%" y1="1378.815%" y2="-2716.489%"><stop offset="0%" stop-color="#EBEBEB"/><stop offset="100%" stop-color="#FFF"/></linearGradient><linearGradient id="linearGradient-18" x1="-823.288%" x2="327.523%" y1="452.242%" y2="-539.337%"><stop offset="0%" stop-color="#EBEBEB"/><stop offset="100%" stop-color="#FFF"/></linearGradient><linearGradient id="linearGradient-19" x1="-3755.529%" x2="1630.549%" y1="1970.917%" y2="-3311.583%"><stop offset="0%" stop-color="#EBEBEB"/><stop offset="100%" stop-color="#FFF"/></linearGradient><linearGradient id="linearGradient-20" x1="-589.827%" x2="401.834%" y1="432.428%" y2="-548.642%"><stop offset="0%" stop-color="#EBEBEB"/><stop offset="100%" stop-color="#FFF"/></linearGradient><linearGradient id="linearGradient-21" x1="-2474.108%" x2="2943.777%" y1="1435.333%" y2="-1574.657%"><stop offset="0%" stop-color="#EBEBEB"/><stop offset="100%" stop-color="#FFF"/></linearGradient><linearGradient id="linearGradient-22" x1="-196.8%" x2="1310.244%" y1="238.388%" y2="-614.175%"><stop offset="0%" stop-color="#EBEBEB"/><stop offset="100%" stop-color="#FFF"/></linearGradient><linearGradient id="linearGradient-23" x1="27.438%" x2="97.278%" y1="107.821%" y2="5.455%"><stop offset="0%" stop-color="#EBEBEB"/><stop offset="100%" stop-color="#FFF"/></linearGradient><linearGradient id="linearGradient-24" x1="-1253.909%" x2="12611.477%" y1="19618.842%" y2="-81.521%"><stop offset="0%" stop-color="#EBEBEB"/><stop offset="100%" stop-color="#FFF"/></linearGradient><linearGradient id="linearGradient-25" x1="-286.067%" x2="8870.267%" y1="11389.203%" y2="-4715.458%"><stop offset="0%" stop-color="#EBEBEB"/><stop offset="100%" stop-color="#FFF"/></linearGradient><linearGradient id="linearGradient-26" x1="576.844%" x2="4868.875%" y1="6443.53%" y2="-2361.991%"><stop offset="0%" stop-color="#EBEBEB"/><stop offset="100%" stop-color="#FFF"/></linearGradient><linearGradient id="linearGradient-27" x1="1410.153%" x2="9701.492%" y1="3852.331%" y2="-1227.132%"><stop offset="0%" stop-color="#EBEBEB"/><stop offset="100%" stop-color="#FFF"/></linearGradient><linearGradient id="linearGradient-28" x1="2603.713%" x2="18243.805%" y1="8980.414%" y2="-2652.891%"><stop offset="0%" stop-color="#EBEBEB"/><stop offset="100%" stop-color="#FFF"/></linearGradient><linearGradient id="linearGradient-29" x1="498.74%" x2="2321.126%" y1="1256.406%" y2="-121.395%"><stop offset="0%" stop-color="#EBEBEB"/><stop offset="100%" stop-color="#FFF"/></linearGradient><linearGradient id="linearGradient-30" x1="830.98%" x2="3522.176%" y1="2714.408%" y2="-362.819%"><stop offset="0%" stop-color="#EBEBEB"/><stop offset="100%" stop-color="#FFF"/></linearGradient></defs><g id="guide-style" fill="none" fill-rule="evenodd" stroke="none" stroke-width="1" opacity=".282"><g id="Objects" fill-rule="nonzero"><g id="Group"><path id="Shape" fill="url(#linearGradient-1)" d="M916.777528,572.188049 C918.436854,571.980586 920.718427,570.528347 921.962921,571.980586 C920.925843,574.262676 919.266517,576.752229 916.777528,577.789543 C915.533034,578.204468 914.081124,578.204468 912.836629,578.619394 C910.555056,579.656707 909.310562,581.938797 907.44382,583.598499 C905.577079,585.050739 903.08809,586.502978 901.013933,587.747754 C899.147191,588.992531 896.450787,591.482083 894.169213,589.614919 C894.376629,586.295515 897.695281,586.502978 898.524944,583.805962 C898.524944,581.938797 896.865618,581.731335 896.865618,579.656707 C900.599101,576.337304 906.614157,573.847751 907.651236,567.00148 C908.066067,563.889539 905.577079,557.458195 909.310562,557.043269 C913.666292,556.628344 911.177303,561.399987 911.592135,563.889539 C911.799551,564.926853 912.629213,565.549241 913.251461,567.00148 C914.081124,569.491033 914.081124,571.565661 916.777528,572.188049 Z"/><path id="Shape" fill="url(#linearGradient-2)" d="M890.020899,588.785068 C888.568989,593.349248 881.72427,595.838801 877.368539,598.743279 C875.916629,599.57313 874.879551,601.647757 873.220225,602.270146 C871.146067,603.099997 868.657079,602.892534 866.375506,603.929848 C862.642022,605.589549 859.945618,608.908953 856.834382,611.191043 C853.723146,613.265671 848.952584,616.170149 845.219101,616.377612 C841.070787,616.792537 833.60382,614.095522 838.581798,610.361192 C840.655955,608.701491 845.426517,606.834326 847.70809,605.589549 C855.589888,601.647757 866.582921,598.950742 873.012809,594.386562 C876.746292,591.689546 880.064944,588.992531 883.383596,586.71044 C885.250337,585.465664 888.154157,588.370142 890.020899,588.785068 Z"/><path id="Shape" fill="url(#linearGradient-3)" d="M842.522697,404.558157 C843.35236,404.350695 843.35236,404.973083 843.974607,405.180546 C843.559775,409.122338 841.278202,411.611891 836.300225,411.196965 C834.018652,410.989502 830.077753,409.3298 830.077753,408.085024 C829.24809,404.350695 839.826292,406.632785 842.522697,404.558157 Z"/><path id="Shape" fill="url(#linearGradient-4)" d="M829.040674,423.437267 C831.114831,424.059655 839.826292,430.283537 836.922472,432.980552 C835.470562,434.432792 833.396404,432.150701 830.907416,431.528313 C827.588764,430.698462 824.89236,431.735776 822.610787,429.868611 C819.914382,427.793984 819.292135,423.437267 816.59573,420.740251 C815.14382,419.495475 811.410337,417.62831 808.921348,418.043235 C804.565618,418.458161 804.565618,423.437267 800.624719,425.719357 C796.891236,425.304431 794.609663,426.341745 791.913258,425.511894 C789.009438,424.47458 787.350112,420.740251 784.653708,420.325325 C781.957303,419.9104 775.32,424.889506 774.282921,420.532788 C773.453258,417.005922 778.846067,415.968608 779.260899,413.686518 C779.67573,411.196965 777.186742,407.670099 775.942247,406.425322 C774.697753,405.388008 773.245843,405.388008 771.793933,404.558157 C770.342022,403.728307 769.304944,402.068605 767.645618,401.238754 C761.837978,398.126813 753.126517,399.371589 750.844944,394.599946 C750.430112,393.770095 751.05236,392.732781 750.637528,391.488005 C750.015281,390.035766 747.733708,389.413378 747.111461,388.168601 C745.244719,384.849197 746.489213,379.870092 749.807865,379.455166 C752.919101,379.040241 758.726742,382.77457 759.348989,385.05666 C759.76382,386.301437 759.141573,387.546213 759.348989,388.998452 C759.76382,390.658154 762.045393,394.599946 764.326966,394.807409 C767.230787,395.014872 768.890112,390.658154 771.379101,388.998452 C773.245843,387.961139 776.149663,386.508899 778.638652,386.716362 C780.920225,386.923825 782.579551,388.790989 785.275955,389.828303 C787.142697,390.450691 789.631685,390.865617 791.913258,391.488005 C793.987416,392.110393 795.646742,393.147707 797.720899,393.977558 C804.358202,396.259648 812.032584,397.711887 815.558652,401.861142 C816.59573,403.105918 816.59573,404.76562 817.840225,406.010397 C819.084719,407.255173 825.307191,408.292487 825.514607,410.989502 C825.722022,413.06413 822.818202,413.06413 822.818202,415.138757 C822.403371,419.080549 828.003596,418.873086 829.040674,423.437267 Z"/><path id="Shape" fill="url(#linearGradient-5)" d="M770.96427,588.16268 C770.134607,591.689546 767.438202,595.423875 764.119551,597.705965 C761.630562,599.365667 753.748764,602.892534 752.919101,597.913428 C752.711685,596.461189 754.371011,590.237307 755.200674,588.785068 C757.067416,584.843276 759.141573,587.540291 762.460225,587.955217 C765.364045,588.785068 768.267865,586.295515 770.96427,588.16268 Z"/><path id="Shape" fill="url(#linearGradient-6)" d="M749.393034,187.96706 C750.430112,191.286464 751.259775,194.605868 752.089438,197.510346 C748.978202,201.244675 742.963146,199.792436 738.607416,201.867064 C736.533258,202.904377 735.911011,206.223781 733.836854,206.846169 C732.177528,207.261095 730.933034,205.39393 729.481124,205.39393 C725.540225,205.39393 723.673483,212.032738 718.695506,210.373036 C715.999101,212.032738 718.902921,218.464083 715.376854,218.879008 C712.887865,219.293933 711.643371,216.181992 710.191461,214.107365 C708.324719,211.825275 705.83573,210.580499 705.83573,208.505871 C705.83573,206.638707 709.776629,203.319303 711.021124,201.867064 C712.680449,200.207362 715.58427,197.095421 717.658427,196.680495 C721.39191,195.850644 725.125393,197.095421 727.821798,195.850644 C730.310787,194.813331 730.310787,191.079001 731.762697,190.041688 C732.799775,189.211837 734.04427,189.419299 735.081348,189.004374 C737.570337,187.552135 740.474157,182.780492 739.022247,178.008849 C738.192584,174.896908 733.007191,171.577504 736.325843,167.843175 C741.096404,168.465563 747.526292,173.237206 748.355955,178.008849 C748.770787,179.876013 747.526292,181.743178 747.733708,183.817805 C747.941124,185.270045 748.978202,186.514821 749.393034,187.96706 Z"/><path id="Shape" fill="url(#linearGradient-7)" d="M750.430112,158.092426 C749.807865,159.544665 748.563371,159.12974 747.318876,159.959591 C746.281798,160.789442 744.829888,163.278995 743.377978,163.486457 C741.096404,163.901383 738.607416,161.41183 736.533258,161.826755 C734.04427,162.449144 735.49618,164.316308 734.666517,166.805861 C732.384944,166.390936 728.651461,163.901383 728.651461,161.204367 C728.651461,159.544665 730.725618,158.714814 731.140449,156.84765 C731.970112,153.735709 729.895955,152.076007 728.651461,149.171528 C728.651461,148.756603 728.858876,148.756603 728.858876,148.341677 C731.555281,147.719289 736.740674,152.905858 742.963146,153.943171 C747.111461,154.56556 750.222697,154.150634 750.430112,158.092426 Z"/><path id="Shape" fill="url(#linearGradient-8)" d="M740.266742,437.33727 C740.474157,439.61936 736.533258,439.411897 736.118427,437.959658 C736.325843,436.092493 739.85191,435.677568 740.266742,437.33727 Z"/><path id="Shape" fill="url(#linearGradient-9)" d="M720.977079,134.8566 C723.673483,136.308839 730.310787,139.628243 725.74764,142.532721 C722.84382,141.495407 719.94,137.968541 720.977079,134.8566 Z"/><path id="Shape" fill="url(#linearGradient-10)" d="M708.324719,425.304431 C711.435955,423.644729 714.962022,419.9104 720.354831,421.777565 C719.110337,425.304431 714.962022,425.096968 712.473034,426.75667 C709.776629,428.416372 707.495056,431.113388 704.176404,431.528313 C703.968989,431.113388 703.554157,430.698462 703.139326,430.491 C703.139326,427.171596 706.250562,426.549208 708.324719,425.304431 Z"/><path id="Shape" fill="url(#linearGradient-11)" d="M701.065169,373.438747 C704.38382,373.438747 707.28764,372.401433 709.569213,373.64621 C709.154382,380.49248 698.57618,375.305912 691.316629,376.343225 C689.864719,376.550688 689.449888,377.795464 687.790562,377.173076 C687.790562,374.890986 690.486966,372.401433 692.975955,372.193971 C695.050112,372.193971 697.953933,373.438747 701.065169,373.438747 Z"/><path id="Shape" fill="url(#linearGradient-12)" d="M703.761573,382.152182 C704.176404,385.886511 698.783596,386.301437 697.331685,389.413378 C699.613258,392.940244 700.442921,397.711887 703.139326,401.031291 C702.93191,403.105918 703.554157,405.802934 702.309663,406.840248 C696.709438,407.877561 693.805618,397.91935 691.524045,394.392483 C687.37573,395.222334 691.109213,408.707412 685.508989,407.04771 C682.812584,406.217859 685.508989,402.276067 684.886742,399.371589 C684.47191,396.674573 681.775506,396.259648 681.56809,394.185021 C681.360674,392.525319 683.434831,390.658154 684.057079,388.998452 C684.886742,386.508899 684.47191,381.737256 687.37573,381.529794 C688.82764,381.529794 690.901798,384.641735 691.731461,384.849197 C695.257528,385.264123 699.198427,381.114868 703.761573,382.152182 Z"/><path id="Shape" fill="url(#linearGradient-13)" d="M693.598202,423.022341 C692.561124,425.096968 686.960899,424.059655 686.546067,422.19249 C687.37573,420.117863 693.183371,420.740251 693.598202,423.022341 Z"/><path id="Shape" fill="url(#linearGradient-14)" d="M688.412809,429.661149 C687.997978,430.076074 687.790562,430.491 687.37573,430.698462 C685.301573,430.076074 683.02,429.453686 682.397753,427.379059 C683.849663,425.304431 688.205393,427.171596 688.412809,429.661149 Z"/><path id="Shape" fill="url(#linearGradient-15)" d="M680.945843,422.814878 C679.493933,424.889506 674.723371,422.607416 673.064045,424.682043 C670.160225,424.682043 667.256404,424.47458 666.634157,422.19249 C667.46382,420.117863 670.160225,421.570102 672.234382,421.362639 C675.345618,421.155176 679.908764,418.873086 680.945843,422.814878 Z"/><path id="Shape" fill="url(#linearGradient-16)" d="M642.159101,528.205949 C642.159101,525.716396 640.707191,523.641768 640.29236,521.152216 C640.084944,520.322365 640.499775,519.077588 640.29236,517.832812 C640.084944,516.17311 639.255281,514.720871 639.462697,513.683557 C639.877528,511.816392 641.951685,511.60893 642.573933,510.156691 C643.403596,507.667138 641.536854,507.252212 641.536854,504.140271 C641.536854,502.065644 643.19618,500.820867 644.233258,498.123852 C644.64809,496.879075 644.855506,494.389523 645.270337,493.352209 C645.892584,492.107432 649.00382,491.277581 650.248315,490.655193 C654.396629,488.580566 657.922697,484.638774 662.071011,484.016386 C663.10809,483.808923 664.56,484.223848 665.389663,484.016386 C667.878652,483.60146 670.989888,481.526833 674.515955,480.696982 C677.834607,479.867131 680.738427,480.282056 683.227416,478.829817 C685.92382,477.170115 689.864719,473.020861 690.901798,470.531308 C692.146292,467.419367 691.731461,464.929814 694.220449,463.8925 C695.464944,463.477575 696.502022,463.8925 697.746517,463.685037 C698.991011,463.270112 701.687416,462.025336 702.724494,461.195485 C704.591236,459.535783 705.006067,456.631304 707.080225,454.76414 C708.532135,453.519363 711.435955,451.652199 713.510112,450.614885 C714.754607,449.992497 716.828764,449.370109 717.865843,449.577571 C721.806742,449.992497 723.466067,455.386528 727.821798,454.349214 C729.273708,453.934289 730.933034,450.822348 732.177528,448.74772 C734.251685,445.843242 735.703596,442.108913 739.022247,441.279062 C741.718652,440.656674 744.829888,442.316376 746.489213,439.826823 C746.904045,438.167121 745.244719,437.129807 746.489213,435.885031 C749.600449,436.092493 755.200674,440.449211 759.971236,440.656674 C762.66764,440.656674 767.438202,437.752195 767.853034,441.693987 C768.060449,443.353689 765.986292,444.805928 765.364045,446.673093 C764.949213,447.917869 765.986292,448.540258 765.156629,449.992497 C762.875056,450.822348 760.593483,451.237273 760.386067,453.934289 C760.386067,457.04623 764.741798,458.498469 767.438202,460.365634 C769.304944,461.61041 770.756854,463.270112 771.793933,463.8925 C772.623596,464.307426 774.075506,464.722351 774.490337,464.929814 C776.357079,466.17459 777.601573,468.664143 780.090562,468.871606 C782.786966,468.871606 785.690787,465.344739 787.142697,462.025336 C789.009438,458.083544 789.009438,453.311901 789.839101,449.162646 C790.046517,447.710407 791.083596,446.46563 791.498427,445.013391 C792.535506,441.279062 793.987416,436.092493 797.306067,434.847717 C800.624719,438.374584 801.661798,445.013391 801.246966,450.822348 C803.528539,452.48205 807.262022,451.859661 807.88427,455.801453 C808.091685,457.04623 807.262022,458.913395 807.262022,460.158171 C807.469438,462.440261 809.128764,464.514888 809.543596,466.589516 C810.165843,470.323845 808.921348,473.228323 810.580674,475.925339 C812.654831,479.244743 817.010562,479.244743 819.706966,482.771609 C819.706966,485.053699 820.536629,485.88355 821.158876,487.750715 C821.366292,488.580566 821.158876,490.032805 821.366292,490.447731 C822.195955,492.314895 824.684944,492.522358 825.514607,493.974597 C825.929438,494.804448 825.722022,496.256687 826.34427,497.501464 C827.173933,499.576091 828.833258,501.02833 830.285169,503.102957 C831.529663,504.970122 833.60382,507.044749 833.811236,508.704451 C834.433483,511.401467 832.359326,513.268632 831.944494,515.550722 C831.322247,518.247737 831.944494,521.774604 830.907416,524.679082 C829.662921,527.998486 826.551685,531.31789 824.062697,535.467144 C821.988539,538.994011 819.292135,542.72834 816.388315,545.01043 C814.728989,546.462669 812.654831,547.29252 810.78809,548.537297 C808.091685,550.611924 806.017528,553.516403 803.735955,556.005955 C801.246966,558.702971 798.343146,560.570136 796.268989,562.852226 C793.365169,566.171629 792.120674,571.358198 787.142697,571.980586 C784.238876,572.395512 781.749888,571.980586 779.260899,573.0179 C775.112584,574.677602 772.41618,577.58208 770.549438,577.789543 C768.475281,577.789543 766.401124,575.29999 764.534382,575.092527 C762.252809,574.885064 760.593483,576.752229 757.482247,576.752229 C756.237753,576.752229 755.40809,575.922378 753.541348,575.29999 C749.600449,574.055213 745.244719,574.055213 744.829888,569.698496 C744.415056,567.416406 746.281798,566.379092 746.281798,564.097002 C746.074382,562.022375 744.20764,561.399987 743.170562,559.740285 C743.792809,557.87312 743.792809,555.383567 741.718652,554.138791 C741.718652,552.479089 742.133483,551.234312 742.75573,550.196999 C741.096404,550.819387 739.022247,551.234312 737.155506,552.479089 C735.081348,553.723865 733.629438,556.420881 731.347865,556.005955 C729.273708,555.176104 730.933034,553.101477 730.518202,551.234312 C730.310787,549.989536 727.199551,544.180579 725.74764,543.350728 C724.088315,542.313415 718.280674,540.031325 716.413933,539.823862 C707.909888,538.579085 702.517079,543.143266 695.67236,543.765654 C694.013034,543.973117 692.146292,543.558191 690.486966,543.765654 C684.886742,544.802968 678.871685,549.159685 675.345618,552.064163 C669.745393,552.686552 663.937753,550.819387 657.922697,552.686552 C652.115056,554.346253 648.796404,559.325359 639.670112,557.87312 C637.803371,556.420881 634.692135,555.59103 634.692135,552.894014 C634.692135,550.819387 637.803371,549.367148 638.840449,547.914909 C639.877528,546.255207 641.74427,542.520877 641.951685,540.238787 C641.951685,538.371623 640.707191,536.296995 640.914607,534.014905 C641.122022,531.940278 642.159101,530.073113 642.159101,528.205949 Z"/><path id="Shape" fill="url(#linearGradient-17)" d="M637.388539,413.479055 C638.840449,413.271592 640.084944,412.234279 641.536854,412.026816 C644.64809,411.819353 647.966742,414.308906 651.700225,413.893981 C652.529888,414.723832 651.90764,415.553683 651.90764,417.005922 C655.226292,418.665624 660.411685,418.458161 662.071011,421.777565 C659.582022,424.267117 656.055955,422.399953 652.944719,421.985027 C650.248315,421.570102 647.137079,421.777565 644.233258,421.362639 C640.29236,420.947714 636.973708,418.873086 633.240225,418.250698 C630.958652,418.043235 628.677079,418.665624 626.602921,418.250698 C624.113933,417.835773 614.98764,414.308906 614.780225,412.026816 C614.572809,409.537263 618.928539,408.707412 622.662022,409.3298 C627.847416,409.952189 631.166067,414.308906 637.388539,413.479055 Z"/><path id="Shape" fill="url(#linearGradient-18)" d="M644.855506,394.392483 C642.781348,393.770095 640.914607,394.185021 639.877528,393.562632 C638.010787,392.317856 638.218202,389.205915 637.595955,387.131288 C636.973708,385.264123 634.692135,384.226809 633.44764,381.529794 C631.580899,377.795464 630.958652,369.289492 635.729213,368.667104 C637.595955,368.252179 639.670112,369.91188 640.914607,369.496955 C643.611011,368.874567 643.19618,365.3477 645.270337,363.895461 C646.514831,363.06561 648.796404,363.480536 650.45573,362.858147 C652.322472,362.235759 653.566966,360.576057 654.811461,358.916355 C656.055955,357.464116 656.885618,355.182026 658.337528,354.144712 C659.996854,353.107399 661.65618,352.899936 663.10809,351.862622 C666.634157,349.165607 666.841573,345.223815 669.745393,341.904411 C672.234382,338.999933 675.967865,344.601427 676.382697,346.883517 C677.834607,348.543219 680.531011,349.165607 681.56809,351.032771 C679.908764,355.804414 675.345618,356.21934 676.382697,363.06561 C676.590112,364.102924 677.21236,366.177551 678.042022,367.837253 C678.871685,369.496955 681.153258,371.156657 681.153258,372.193971 C680.945843,374.268598 676.797528,374.061135 675.967865,376.343225 C675.138202,378.417853 675.967865,378.417853 675.760449,381.529794 C674.515955,383.811884 671.404719,384.226809 670.575056,387.131288 C669.330562,390.450691 670.782472,394.599946 668.086067,397.089499 C666.219326,397.089499 664.352584,398.749201 662.071011,398.541738 C659.582022,398.334275 657.300449,395.014872 653.566966,395.014872 C652.115056,395.014872 650.45573,396.052185 648.796404,395.844723 C647.55191,396.052185 646.514831,395.014872 644.855506,394.392483 Z"/><path id="Shape" fill="url(#linearGradient-19)" d="M627.017753,388.376064 C634.069888,388.376064 634.069888,399.164126 627.017753,399.164126 C619.965618,399.164126 619.965618,388.376064 627.017753,388.376064 Z"/><path id="Shape" fill="url(#linearGradient-20)" d="M616.854382,386.923825 C617.684045,387.131288 620.795281,391.280542 620.795281,392.525319 C620.795281,394.392483 617.891461,394.392483 616.854382,396.882036 C615.609888,400.823828 617.476629,405.388008 615.195056,407.255173 C613.950562,408.085024 611.668989,407.877561 609.594831,407.877561 C604.616854,404.350695 600.675955,400.20144 596.320225,395.429797 C594.868315,393.770095 592.794157,392.317856 591.964494,390.450691 C590.512584,387.753676 590.097753,384.849197 588.438427,382.567107 C586.986517,380.49248 584.290112,378.832778 582.838202,376.550688 C581.593708,374.683523 581.593708,371.986508 580.349213,370.119343 C579.312135,368.459641 577.237978,367.62979 575.993483,366.177551 C575.16382,365.3477 574.541573,363.895461 573.71191,362.858147 C570.185843,358.708893 563.548539,356.634265 563.341124,350.410383 C564.793034,348.750681 566.244944,351.032771 568.941348,351.447697 C570.600674,351.862622 572.674831,351.240234 573.919326,351.65516 C576.408315,352.485011 578.06764,356.426803 580.764045,358.50143 C582.215955,359.746206 584.290112,360.576057 585.742022,361.820834 C587.401348,363.273073 588.645843,365.140237 589.890337,365.970088 C591.757079,367.007402 594.246067,367.837253 596.52764,369.289492 C599.638876,371.36412 605.446517,373.438747 606.068764,377.588002 C606.27618,378.625315 605.653933,380.285017 605.861348,381.114868 C606.27618,382.567107 608.142921,383.189496 609.18,384.434272 C610.63191,385.886511 610.839326,388.168601 612.706067,388.583527 C614.572809,389.413378 614.572809,386.716362 616.854382,386.923825 Z"/><path id="Shape" fill="url(#linearGradient-21)" d="M486.804719,329.249184 C489.086292,330.079035 497.175506,339.622321 494.686517,345.016352 C494.06427,346.468591 491.367865,348.543219 488.671461,348.128293 C483.278652,347.298442 484.31573,335.058141 485.975056,330.286498 C486.182472,329.664109 486.389888,329.456647 486.804719,329.249184 Z"/><path id="Shape" fill="url(#linearGradient-22)" d="M303.864045,468.45668 C304.071461,466.17459 305.730787,462.647724 307.390112,461.195485 C309.879101,459.32832 313.405169,459.535783 315.894157,458.083544 C317.968315,457.04623 320.872135,455.179065 322.531461,453.104438 C323.775955,451.444736 323.983371,449.370109 325.020449,448.125332 C325.850112,447.295481 327.509438,447.088019 328.339101,445.843242 C329.168764,444.805928 328.961348,443.146227 330.205843,441.90145 C333.939326,440.241748 335.18382,447.295481 335.806067,452.067124 C336.013483,453.519363 336.843146,455.179065 336.63573,456.008916 C336.220899,458.291006 333.73191,458.705932 333.109663,460.158171 C332.902247,466.17459 330.620674,471.361159 328.339101,476.340264 C326.47236,480.696982 325.435281,485.261162 323.983371,488.995491 C323.361124,490.240268 322.324045,491.485044 321.701798,492.522358 C319.62764,497.294001 319.005393,504.555197 315.27191,506.629824 C314.027416,507.252212 309.049438,508.496989 307.597528,508.496989 C304.278876,508.496989 301.375056,506.007436 300.545393,502.895495 C300.130562,501.235793 300.545393,499.783554 300.337978,497.916389 C299.923146,495.634299 298.678652,493.767134 298.886067,491.277581 C299.508315,485.676088 304.901124,482.979072 305.315955,478.414892 C305.523371,475.510413 303.449213,471.983547 303.864045,468.45668 Z"/><path id="Shape" fill="url(#linearGradient-23)" d="M171.325393,76.7670332 C171.740225,81.3312134 164.273258,80.7088252 163.443596,84.6506172 C163.028764,86.5177819 164.273258,88.799872 164.065843,90.4595739 C163.443596,93.3640522 160.747191,92.5342012 157.221124,93.9864404 C155.354382,94.8162913 153.695056,97.7207697 151.620899,97.9282324 C149.754157,98.1356951 148.717079,96.8909187 147.472584,97.0983814 C145.605843,97.5133069 146.22809,99.5879343 143.531685,100.210322 C141.457528,100.625248 137.724045,98.3431579 137.516629,101.040173 C137.309213,102.699875 140.835281,103.737189 143.116854,103.529726 C144.77618,103.322264 146.020674,102.077487 147.887416,102.077487 C151.206067,102.077487 153.280225,104.56704 155.354382,104.56704 C160.124944,104.774503 164.68809,100.210322 169.666067,100.625248 C171.94764,100.832711 173.192135,102.492413 174.851461,102.28495 C177.547865,102.077487 179.829438,98.9655461 181.69618,97.9282324 C180.866517,93.3640522 181.69618,87.1401701 186.05191,86.9327073 C188.95573,86.7252446 193.518876,92.1192758 193.933708,86.9327073 C194.141124,84.6506172 191.652135,82.7834526 189.785393,82.7834526 C188.126067,82.7834526 186.05191,85.8953937 184.807416,83.4058408 C184.807416,80.916288 187.711236,81.5386762 189.163146,80.916288 C190.40764,80.5013625 191.237303,79.2565861 192.481798,78.6341979 C199.119101,76.3521078 208.037978,80.916288 210.734382,75.3147941 C204.926742,70.3356884 194.970787,77.1819587 188.540899,76.7670332 C185.637079,76.5595705 182.111011,74.4849431 181.073933,71.7879275 C180.866517,70.9580766 181.073933,69.7133002 180.866517,68.261061 C180.659101,66.6013591 179.622022,64.7341945 179.829438,63.4894181 C180.036854,58.5103124 192.481798,57.6804614 192.481798,51.4565793 C190.200225,49.1744892 183.14809,49.5894147 180.866517,52.0789675 C180.036854,52.9088185 180.036854,54.7759831 178.999775,56.435685 C176.510787,60.1700143 168.628989,60.5849398 166.14,65.14912 C165.517753,66.1864337 164.68809,68.8834492 165.102921,70.7506139 C165.310337,73.4476294 171.117978,74.0700177 171.325393,76.7670332 Z M105.782022,346.053666 C97.9002247,344.808889 89.8110112,348.128293 84.4182022,350.410383 C81.3069663,351.862622 78.1957303,353.93725 75.2919101,353.93725 C72.5955056,354.144712 70.1065169,352.485011 67.6175281,352.277548 C64.2988764,351.862622 60.1505618,352.277548 56.8319101,352.899936 C53.7206742,353.522324 50.8168539,355.804414 48.1204494,356.011877 C42.7276404,356.426803 37.7496629,351.240234 34.4310112,348.543219 C32.3568539,346.883517 30.2826966,345.63874 28.4159551,344.186501 C26.3417978,342.526799 23.6453933,341.696948 21.9860674,340.037246 C19.9119101,337.962619 19.9119101,334.22829 18.6674157,331.531274 C17.4229213,328.21187 13.2746067,325.92978 10.1633708,322.817839 C7.88179775,320.535749 2.48898876,317.008883 1.86674157,314.104404 C1.65932584,312.652165 2.48898876,310.785 2.48898876,309.125299 C2.28157303,306.635746 0.622247191,305.390969 0.622247191,303.523805 C0.622247191,301.034252 3.52606742,299.167087 4.14831461,297.09246 C4.56314607,296.055146 4.35573034,294.602907 4.7705618,293.150668 C5.60022472,290.453652 7.46696629,288.79395 7.05213483,284.644696 C6.8447191,282.984994 5.39280899,281.532755 5.39280899,279.458127 C5.39280899,278.005888 6.42988764,277.176037 6.22247191,275.931261 C6.01505618,273.649171 2.90382022,273.026782 2.69640449,270.329767 C2.28157303,267.632751 5.39280899,265.143198 7.05213483,262.031257 C7.88179775,260.579018 8.29662921,258.504391 8.9188764,257.259614 C10.3707865,254.977524 13.067191,253.732748 14.1042697,251.450658 C14.9339326,249.790956 15.1413483,247.301403 15.9710112,245.849164 C17.0080899,244.189462 19.0822472,243.359611 20.9489888,241.077521 C22.6083146,239.417819 23.2305618,237.135729 24.2676404,236.305878 C25.7195506,235.268564 27.7937079,235.061101 29.245618,234.438713 C34.4310112,232.156623 38.1644944,229.044682 40.4460674,224.273039 C39.6164045,219.916322 40.8608989,218.049157 42.7276404,214.937216 C44.3869663,212.032738 45.6314607,209.335722 48.5352809,207.67602 C52.0613483,205.808856 55.1725843,205.601393 57.661573,201.867064 C58.9060674,199.999899 60.772809,196.887958 60.772809,195.020793 C60.772809,192.323778 58.0764045,188.796911 55.5874157,188.381986 C53.098427,187.96706 49.3649438,190.24915 47.9130337,187.552135 C47.4982022,186.722284 48.1204494,184.647656 47.9130337,183.610343 C47.4982022,181.743178 46.0462921,180.498402 46.0462921,179.253625 C45.8388764,176.764072 48.5352809,174.067057 49.3649438,170.955116 C50.4020225,166.805861 49.3649438,163.69392 49.1575281,159.12974 C53.098427,153.11332 61.6024719,156.017799 70.1065169,156.640187 C71.3510112,156.640187 72.8029213,156.432724 74.2548315,156.432724 C79.232809,156.640187 83.3811236,158.092426 85.0404494,153.735709 C85.6626966,152.076007 86.2849438,145.852125 85.8701124,144.399885 C85.4552809,142.532721 81.7217978,137.761078 80.0624719,136.723764 C77.3660674,135.064062 73.4251685,135.68645 71.7658427,132.574509 C73.0103371,127.180478 79.0253933,131.744658 82.7588764,130.292419 C84.625618,129.670031 84.4182022,126.350627 86.0775281,125.935702 C87.1146067,125.520776 88.5665169,126.973016 90.2258427,126.973016 C91.4703371,126.973016 96.4483146,124.483463 97.692809,123.653612 C99.3521348,122.408835 99.974382,119.919282 101.633708,118.881969 C102.670787,118.259581 104.122697,118.259581 105.159775,117.844655 C107.441348,116.807341 110.552584,114.732714 112.004494,112.865549 C114.286067,110.168534 115.323146,106.84913 118.019551,106.226742 C121.753034,105.604354 130.049663,107.056593 130.67191,102.907338 C131.294157,98.9655461 127.353258,96.0610678 128.805169,91.911813 C130.049663,88.5924092 132.953483,89.2147974 137.101798,87.1401701 C139.175955,88.5924092 138.553708,92.741664 138.761124,95.0237541 C141.250112,95.0237541 146.435506,94.1939031 147.057753,91.911813 C147.68,89.0073347 143.32427,86.1028564 142.287191,84.4431545 C141.250112,82.5759899 141.042697,79.2565861 138.968539,78.8416606 C134.820225,78.0118097 130.67191,84.6506172 125.486517,84.6506172 C121.960449,84.6506172 118.434382,81.9536017 117.604719,79.4640488 C117.189888,78.0118097 117.604719,76.5595705 117.397303,75.1073313 C116.982472,72.8252412 115.737978,70.5431511 116.360225,67.4312101 C118.434382,63.9043435 123.41236,63.2819553 126.731011,61.4147907 C127.975506,60.7924025 129.012584,59.1327006 130.67191,58.7177751 C133.160899,57.8879242 136.686966,58.7177751 139.175955,57.265536 C140.627865,56.435685 140.213034,54.9834459 141.457528,53.1162812 C142.079775,52.0789675 143.739101,51.4565793 144.77618,50.0043402 C145.398427,49.1744892 145.398427,47.7222501 146.22809,46.8923991 C148.717079,43.9879208 153.072809,42.7431444 154.732135,39.8386661 C155.561798,38.3864269 153.280225,37.9715014 153.902472,35.8968741 C154.732135,34.0297094 158.258202,35.4819486 160.124944,35.0670231 C162.821348,34.6520977 165.310337,31.3326939 168.421573,30.7103057 C171.532809,30.0879174 174.851461,30.5028429 177.755281,29.2580665 C179.414607,28.6356783 181.073933,26.9759764 182.733258,26.7685137 C183.355506,26.7685137 185.014831,27.1834391 185.844494,26.9759764 C186.881573,26.9759764 188.126067,26.3535882 189.370562,26.1461254 C191.444719,25.9386627 193.933708,26.5610509 196.630112,26.7685137 C200.985843,26.7685137 205.134157,25.5237372 208.660225,26.9759764 C210.526966,27.8058273 210.319551,29.8804547 212.808539,30.9177684 C214.053034,31.3326939 215.71236,30.7103057 217.579101,30.9177684 C220.275506,31.1252311 223.179326,32.9923958 226.705393,33.4073212 C227.949888,33.614784 229.194382,33.1998585 230.646292,33.4073212 C234.587191,33.8222467 238.942921,35.8968741 242.676404,37.3491132 C245.995056,38.3864269 252.63236,39.8386661 252.839775,42.9506071 C253.047191,46.4774737 246.824719,47.7222501 244.33573,47.7222501 C239.98,47.7222501 234.17236,45.2326972 229.816629,46.6849364 C229.816629,52.9088185 236.661348,57.6804614 242.676404,56.8506105 C243.298652,53.9461322 239.150337,55.6058341 239.565169,52.7013558 C242.261573,50.6267284 245.580225,54.1535949 249.521124,53.5312067 C250.973034,53.1162812 250.765618,50.8341911 251.180449,49.381952 C254.499101,47.3073246 258.647416,44.4028463 263.625393,46.6849364 C263.832809,46.2700109 264.24764,45.8550854 264.662472,45.6476227 C265.077303,42.5356817 261.34382,41.0834425 263.210562,38.1789642 C264.24764,36.3117995 269.225618,36.9341878 270.055281,38.3864269 C270.470112,40.2535915 268.810787,40.0461288 269.018202,41.7058307 C270.055281,43.9879208 272.336854,44.1953835 273.373933,44.1953835 C276.070337,43.9879208 276.692584,41.7058307 279.181573,40.2535915 C280.218652,39.6312033 281.670562,39.6312033 283.122472,39.2162779 C284.781798,38.5938897 286.026292,37.3491132 287.270787,36.9341878 C288.100449,36.726725 289.55236,36.9341878 290.796854,36.726725 C292.45618,36.3117995 294.115506,35.0670231 295.567416,35.0670231 C297.226742,35.0670231 298.471236,36.9341878 300.545393,37.3491132 C301.789888,37.556576 303.034382,36.726725 304.693708,36.5192623 C306.145618,36.3117995 307.390112,36.726725 308.634607,36.5192623 C311.331011,36.1043368 312.990337,34.6520977 315.27191,34.8595604 C316.72382,34.8595604 319.420225,36.9341878 320.457303,35.8968741 C322.324045,34.0297094 318.17573,32.784933 319.420225,31.1252311 C323.568539,31.5401566 328.131685,31.3326939 332.28,31.9550821 C338.502472,32.784933 344.517528,35.8968741 350.117753,36.1043368 C349.495506,32.3700075 345.139775,33.4073212 343.273034,31.7476193 C342.650787,31.3326939 340.161798,27.1834391 340.161798,25.9386627 C340.161798,25.3162745 343.273034,19.9222433 344.102697,19.2998551 C346.591685,17.017765 354.473483,17.017765 356.755056,20.1297061 C358.414382,22.2043334 357.792135,25.5237372 360.073708,25.3162745 C361.940449,25.3162745 362.977528,20.5446315 365.259101,20.3371688 C367.125843,20.3371688 368.162921,23.4491099 370.029663,23.4491099 C372.311236,23.4491099 373.970562,19.0923924 376.874382,19.0923924 C378.533708,19.0923924 378.948539,19.9222433 381.644944,20.1297061 C383.30427,19.0923924 381.022697,17.6401532 381.85236,15.9804513 C384.963596,13.6983612 392.01573,15.3580631 395.956629,14.1132867 C396.993708,12.8685103 394.504719,11.8311966 395.749213,10.5864202 C399.067865,8.30433007 404.875506,8.09686734 410.683146,7.05955365 C414.209213,6.43716544 417.527865,3.9476126 420.22427,3.74014986 C423.12809,3.53268712 425.824494,5.39985176 428.520899,5.39985176 C430.180225,5.39985176 432.046966,4.98492628 433.498876,4.36253807 C434.950787,3.74014986 436.195281,2.2879107 437.647191,1.87298523 C440.13618,1.25059702 443.04,2.08044797 445.94382,1.87298523 C448.84764,1.66552249 451.544045,0.420746072 453.618202,0.835671545 C455.69236,1.25059702 457.14427,3.32522439 459.218427,3.53268712 C465.026067,4.36253807 471.041124,2.70283618 476.226517,4.15507533 C477.263596,4.36253807 478.093258,5.39985176 479.337753,5.81477723 C482.86382,7.05955365 485.352809,6.64462818 485.975056,11.0013457 C488.671461,12.0386593 490.330787,14.5282122 493.649438,15.3580631 C495.931011,15.9804513 498.005169,15.1506004 500.494157,15.1506004 C503.812809,15.1506004 507.961124,15.3580631 510.657528,15.7729886 C512.316854,15.9804513 513.561348,17.2252278 515.013258,17.4326905 C516.050337,17.6401532 517.502247,17.2252278 518.954157,17.4326905 C520.613483,17.6401532 522.272809,18.2625414 523.724719,18.2625414 C526.628539,18.2625414 528.702697,15.5655259 531.191685,15.1506004 C532.43618,14.9431377 534.095506,15.5655259 535.34,15.7729886 C539.903146,16.1879141 545.295955,15.1506004 549.029438,15.9804513 C551.103596,16.3953768 554.422247,18.6774669 556.70382,20.3371688 C558.363146,21.5819452 559.400225,23.4491099 560.852135,24.4864235 C562.304045,25.3162745 566.037528,26.9759764 567.489438,26.7685137 C569.148764,26.5610509 569.35618,24.4864235 571.015506,23.6565726 C576.408315,22.4117962 586.156854,25.3162745 590.512584,23.4491099 C592.17191,22.6192589 591.964494,20.959557 593.208989,19.9222433 C601.505618,19.5073179 609.594831,20.3371688 617.476629,20.5446315 C620.173034,20.5446315 623.076854,19.9222433 625.565843,20.3371688 C628.262247,20.7520943 630.336404,23.4491099 633.032809,24.4864235 C634.899551,25.1088118 638.010787,24.6938863 640.707191,25.3162745 C642.573933,25.7312 644.025843,26.7685137 645.477753,26.9759764 C648.381573,27.3909019 651.285393,26.5610509 653.981798,26.3535882 C660.20427,25.9386627 668.500899,25.5237372 674.723371,28.0132901 C678.042022,29.2580665 679.493933,31.9550821 683.02,32.3700075 C688.205393,32.9923958 695.879775,31.9550821 701.272584,32.3700075 C702.517079,32.5774703 703.761573,32.9923958 704.591236,32.9923958 C706.250562,32.784933 707.495056,31.3326939 709.569213,31.3326939 C712.265618,31.3326939 716.621348,35.4819486 720.562247,34.8595604 C722.221573,33.614784 719.110337,32.1625448 720.769663,30.9177684 C722.221573,29.672992 724.503146,30.9177684 726.784719,30.9177684 C728.029213,30.9177684 729.688539,30.2953802 730.933034,30.2953802 C734.04427,30.5028429 736.740674,33.1998585 740.474157,34.2371722 C743.377978,34.8595604 747.526292,35.2744859 751.259775,34.8595604 C753.95618,34.6520977 756.237753,33.614784 758.726742,34.0297094 C759.971236,34.2371722 761.008315,35.0670231 762.252809,35.4819486 C763.497303,35.6894113 764.534382,35.4819486 765.571461,35.6894113 C766.401124,35.8968741 767.438202,36.726725 768.267865,37.1416505 C773.453258,38.5938897 780.090562,39.4237406 785.690787,41.0834425 C788.802022,42.1207562 792.120674,43.9879208 794.817079,44.1953835 C796.061573,44.1953835 797.306067,43.5729953 798.965393,43.5729953 C807.262022,43.5729953 817.010562,47.0998619 816.388315,54.7759831 C806.639775,56.8506105 798.550562,48.1371755 788.387191,50.6267284 C786.727865,51.0416539 784.861124,52.9088185 785.068539,54.5685204 C785.483371,59.3401633 797.513483,58.9252379 798.550562,63.6968808 C796.476404,65.14912 794.402247,63.6968808 792.742921,63.9043435 C790.253933,64.1118063 786.105618,66.8088219 784.446292,68.261061 C782.579551,69.9207629 780.920225,74.4849431 778.846067,74.8998686 C776.357079,75.3147941 772.623596,72.4103158 768.890112,73.2401667 C767.438202,73.4476294 766.193708,75.3147941 764.949213,75.5222568 C761.837978,76.144645 758.104494,73.8625549 756.237753,77.3894214 C757.274831,79.8789743 756.652584,83.4058408 758.726742,84.85808 C759.971236,85.6879309 761.837978,85.0655427 763.497303,85.6879309 C765.364045,86.3103191 766.401124,88.799872 768.267865,90.0446484 C769.719775,91.0819621 771.171685,91.0819621 771.793933,92.5342012 C772.001348,94.6088286 770.96427,94.8162913 771.171685,96.0610678 C771.586517,98.3431579 775.112584,98.9655461 775.32,100.417785 C775.527416,102.492413 773.038427,102.077487 772.623596,103.944652 C772.41618,105.189428 774.075506,105.604354 774.282921,107.264056 C774.490337,108.301369 773.453258,109.546146 773.453258,110.790922 C773.660674,112.658087 775.112584,113.902863 774.905169,115.562565 C774.697753,117.014804 773.453258,118.052118 772.41618,118.674506 C767.230787,115.355102 762.460225,110.583459 756.652584,106.226742 C750.844944,101.870024 741.718652,96.2685305 740.681573,86.9327073 C740.681573,85.4804682 743.792809,84.4431545 744.20764,82.1610644 C744.415056,81.3312134 743.792809,80.086437 744.000225,78.8416606 C744.20764,75.5222568 746.904045,72.4103158 746.696629,70.5431511 C746.489213,68.4685238 742.548315,64.5267318 740.681573,63.9043435 C739.022247,64.7341945 740.681573,66.3938964 740.474157,67.8461355 C740.059326,69.5058374 738.192584,71.5804648 736.325843,71.7879275 C731.140449,72.202853 730.518202,65.14912 722.221573,67.0162846 C720.147416,67.6386728 717.03618,70.7506139 717.865843,74.6924059 C718.073258,75.9371823 721.39191,77.1819587 721.184494,78.8416606 C720.977079,80.5013625 713.717528,80.916288 712.058202,80.7088252 C707.702472,80.2938998 705.420899,76.974496 701.272584,77.1819587 C699.405843,77.1819587 697.539101,78.8416606 696.087191,79.0491233 C687.37573,80.7088252 674.515955,74.6924059 671.612135,82.3685271 C671.197303,83.4058408 671.404719,84.85808 670.989888,85.8953937 C670.36764,87.5550955 669.123146,88.799872 668.708315,89.8371857 C668.293483,90.6670366 668.500899,92.3267385 667.878652,93.7789777 C667.46382,95.0237541 662.071011,99.5879343 666.841573,101.040173 C667.878652,101.247636 668.500899,100.625248 669.952809,100.832711 C672.234382,101.247636 676.175281,104.981965 679.079101,104.981965 C680.738427,104.981965 683.02,103.114801 684.264494,103.114801 C686.753483,102.907338 688.620225,104.56704 690.694382,105.604354 C692.561124,106.434205 695.464944,108.508832 696.709438,108.301369 C699.405843,108.093906 698.161348,106.434205 700.650337,105.604354 C705.420899,107.056593 707.702472,112.035698 712.265618,115.97749 C713.924944,117.42973 716.413933,118.674506 718.695506,120.749133 C719.94,121.786447 723.673483,124.898388 723.880899,126.350627 C724.088315,127.595404 722.84382,128.217792 722.428989,129.462568 C722.014157,131.12227 723.051236,132.367047 721.806742,133.611823 C717.451011,131.952121 716.413933,127.595404 713.302697,124.068537 C712.058202,122.616298 711.021124,121.164059 709.154382,119.089432 C708.324719,118.259581 705.420899,115.14764 703.554157,115.770028 C700.02809,117.014804 705.420899,122.408835 706.250562,123.446149 C708.117303,125.935702 710.606292,129.047643 710.606292,131.744658 C710.606292,133.40436 709.569213,136.308839 709.569213,139.213317 C709.569213,141.080482 709.984045,142.740184 709.776629,144.399885 C709.569213,146.059587 708.324719,147.926752 707.909888,149.586454 C707.28764,151.661081 707.080225,153.943171 706.457978,155.395411 C705.420899,157.884963 701.687416,160.789442 699.198427,160.996904 C696.916854,160.996904 695.879775,159.337203 693.598202,159.337203 C690.279551,159.544665 689.657303,162.656606 687.583146,165.146159 C687.790562,167.843175 688.620225,168.880488 688.205393,170.747653 C687.37573,173.652131 683.434831,174.27452 683.434831,177.178998 C683.642247,179.876013 687.168315,180.290939 689.035056,181.535715 C691.524045,183.195417 695.879775,186.722284 698.161348,189.834225 C699.613258,191.701389 701.894831,195.435719 701.687416,197.510346 C701.48,200.207362 693.598202,203.941691 690.486966,203.11184 C687.37573,202.074526 688.412809,199.170048 687.790562,196.473032 C687.168315,194.398405 685.508989,193.568554 684.679326,191.701389 C684.264494,190.871539 684.47191,189.419299 683.849663,188.381986 C682.190337,185.477507 679.286517,187.137209 675.760449,185.270045 C673.478876,184.025268 674.101124,181.743178 673.271461,179.461088 C672.026966,176.55661 667.048989,175.104371 663.10809,175.934221 C660.20427,176.55661 659.167191,179.046163 656.470787,179.461088 C652.529888,176.971535 657.300449,171.162579 652.322472,170.747653 C648.588989,170.332728 646.1,176.141684 643.818427,178.008849 C642.366517,179.253625 639.670112,179.461088 639.462697,181.12079 C639.047865,184.232731 642.573933,183.610343 645.477753,184.647656 C647.966742,185.68497 648.381573,188.589448 650.663146,188.796911 C652.529888,189.004374 653.981798,186.722284 655.848539,186.514821 C659.167191,186.307358 662.071011,187.759597 664.145169,189.004374 C662.693258,192.323778 655.433708,194.813331 655.433708,199.170048 C655.433708,201.659601 658.337528,202.074526 660.619101,203.941691 C662.485843,205.39393 664.974831,209.335722 667.671236,212.2402 C668.91573,213.484977 670.782472,214.314828 671.197303,214.937216 C672.441798,216.804381 672.234382,218.879008 673.686292,220.123784 C673.893708,221.576024 673.064045,221.990949 673.064045,223.443188 C673.686292,225.517816 676.797528,225.10289 677.419775,226.970055 C676.797528,231.741698 678.871685,236.098415 674.930787,237.96558 C673.064045,246.471552 671.197303,253.11036 665.389663,257.882003 C660.20427,262.031257 653.152135,263.276034 646.929663,265.350661 C645.270337,265.973049 644.025843,267.632751 642.573933,268.047677 C638.840449,269.292453 632.410562,268.462602 632.203146,273.026782 C631.99573,275.308872 634.899551,276.553649 635.314382,278.835739 C635.729213,282.362605 632.617978,285.682009 630.336404,286.096935 C628.677079,286.304397 625.358427,285.059621 625.151011,282.155143 C624.943596,278.835739 629.299326,277.590963 629.506742,275.516335 C630.128989,271.989469 626.395506,268.670065 622.454607,268.877528 C618.721124,269.08499 610.63191,276.346186 610.424494,280.495441 C610.217079,283.399919 616.232135,289.623801 618.306292,291.490966 C625.980674,298.337236 634.277303,302.486491 632.825393,319.08351 C630.958652,323.232765 625.980674,324.270078 622.039775,326.552168 C619.135955,328.419333 617.684045,333.813364 612.706067,334.22829 C610.63191,333.605901 611.876404,330.49396 611.254157,329.041721 C610.424494,326.967094 606.483596,326.137243 604.202022,324.062616 C602.127865,322.402914 601.298202,319.705898 599.846292,318.253659 C597.979551,316.386494 595.07573,315.971569 592.586742,314.726792 C591.134831,313.896941 589.890337,310.992463 588.438427,311.199926 C585.949438,311.199926 586.779101,313.689479 586.156854,317.423808 C585.534607,321.158137 582.838202,324.270078 583.667865,328.626796 C584.082697,330.49396 586.36427,331.9462 587.608764,333.813364 C589.475506,336.925305 589.682921,340.659635 591.757079,342.319336 C593.001573,343.564113 595.283146,343.771576 596.735056,344.808889 C599.638876,346.883517 604.82427,351.447697 605.861348,353.93725 C607.105843,356.841728 605.861348,360.161132 606.691011,363.273073 C607.520674,366.799939 612.291236,369.289492 609.387416,372.816359 C606.691011,372.401433 604.409438,370.534269 602.127865,369.289492 C598.394382,367.007402 596.52764,364.932775 594.246067,360.990983 C593.62382,359.953669 592.379326,358.708893 591.964494,357.671579 C590.927416,355.182026 591.134831,352.485011 590.305169,349.373069 C589.475506,346.883517 586.571685,342.734262 584.290112,340.659635 C582.423371,338.79247 578.897303,337.755156 578.689888,335.058141 C578.482472,331.323811 579.934382,326.967094 579.726966,322.610376 C579.726966,321.573063 579.104719,320.743212 578.897303,319.498435 C578.689888,317.423808 579.104719,314.726792 578.689888,312.859628 C578.275056,311.199926 577.030562,309.540224 576.200899,307.880522 C575.371236,306.22082 574.748989,304.768581 573.919326,302.693954 C572.882247,299.582013 571.637753,293.358131 568.941348,293.150668 C566.244944,292.735742 563.548539,298.337236 559.815056,298.337236 C557.948315,298.337236 555.459326,296.884997 555.044494,295.017832 C554.629663,293.358131 555.874157,291.698429 555.874157,289.831264 C555.874157,286.096935 553.177753,284.644696 551.103596,282.155143 C550.273933,281.117829 550.066517,279.66559 549.44427,278.835739 C548.199775,277.3835 545.710787,276.553649 544.258876,274.893947 C542.806966,273.441708 541.14764,271.36708 540.317978,269.914841 C539.280899,267.840214 538.866067,264.935736 537.206742,264.728273 C535.754831,264.52081 533.88809,266.595437 532.228764,267.217826 C530.569438,267.840214 526.421124,268.462602 524.761798,268.670065 C519.161573,269.08499 514.805843,267.632751 515.42809,274.271559 C514.598427,277.176037 511.487191,277.176037 509.413034,278.628276 C506.716629,280.495441 504.849888,284.022307 501.946067,286.926786 C500.494157,288.379025 498.627416,289.208876 497.175506,290.453652 C496.138427,291.490966 495.723596,293.358131 494.686517,294.395444 C491.782697,297.09246 487.426966,297.507385 485.352809,301.241715 C485.145393,305.805895 487.426966,309.332761 487.012135,313.689479 C486.804719,315.764106 485.352809,317.423808 485.145393,319.498435 C484.937978,321.158137 485.76764,323.232765 485.352809,325.099929 C485.145393,326.137243 483.900899,326.552168 483.071236,327.796945 C482.241573,328.834259 482.034157,330.286498 481.41191,331.116349 C480.582247,332.361125 478.922921,333.190976 478.093258,334.22829 C476.641348,335.887992 476.433933,337.132768 474.982022,337.340231 C468.966966,338.170082 467.515056,326.759631 464.818652,321.987988 C463.574157,319.705898 461.085169,317.838733 459.840674,315.141718 C458.388764,312.029777 457.973933,308.087985 455.899775,304.768581 C454.240449,301.864103 451.751461,298.752162 450.714382,295.640221 C449.677303,292.943205 448.84764,289.831264 448.017978,286.926786 C446.980899,283.814845 445.94382,280.080515 445.736404,277.590963 C445.528989,274.064096 446.358652,271.782006 443.454831,270.329767 C440.758427,270.952155 439.721348,273.649171 436.610112,273.649171 C433.706292,273.649171 425.824494,268.462602 428.106067,264.105885 C426.239326,261.408869 421.261348,259.95663 417.735281,256.637226 C415.661124,254.770061 413.794382,250.413344 410.060899,249.998419 C409.02382,249.790956 407.779326,250.413344 406.742247,250.620807 C404.460674,250.828269 400.31236,250.413344 397.615955,250.620807 C394.297303,250.828269 390.148989,251.65812 386.000674,251.243195 C383.30427,251.035732 379.985618,250.413344 377.289213,250.205881 C373.763146,249.790956 368.992584,248.961105 367.125843,247.09394 C365.881348,246.056627 365.466517,242.322297 363.184944,241.907372 C360.695955,241.284984 359.244045,243.359611 356.962472,243.774536 C351.984494,245.019313 347.628764,242.737223 344.310112,240.455133 C341.821124,238.795431 339.746966,237.96558 337.880225,236.928266 C333.73191,234.023788 332.902247,225.725278 326.679775,225.725278 C324.398202,225.725278 320.872135,227.177517 320.664719,229.66707 C320.457303,231.326772 322.738876,234.646176 323.775955,236.098415 C326.887191,240.455133 332.487416,242.114835 334.146742,247.923791 C335.18382,248.338717 337.672809,246.886477 338.917303,248.131254 C339.954382,250.620807 338.917303,255.39245 341.406292,256.429763 C352.814157,258.296928 356.132809,252.073046 361.318202,247.716328 C364.222022,249.583493 363.39236,251.450658 364.429438,253.525285 C365.466517,255.807375 367.125843,257.467077 369.2,258.296928 C370.65191,258.919316 372.311236,258.296928 374.385393,259.126779 C375.629888,259.541704 381.022697,264.728273 381.230112,266.595437 C381.437528,268.255139 377.704045,273.649171 376.459551,275.10141 C375.422472,276.553649 373.763146,277.176037 373.140899,278.420813 C372.726067,279.458127 372.933483,281.325292 372.518652,281.94768 C372.10382,282.984994 369.614831,284.437233 368.162921,285.889472 C366.711011,287.341711 364.84427,288.379025 363.39236,289.416339 C361.733034,290.661115 360.488539,292.52828 358.621798,293.358131 C354.888315,294.81037 351.569663,294.187981 348.458427,296.055146 C346.38427,297.299923 346.38427,300.204401 344.102697,301.864103 C341.613708,303.523805 337.257978,303.523805 333.73191,305.183507 C331.450337,306.22082 329.998427,308.295448 327.92427,309.125299 C327.094607,309.332761 326.057528,309.125299 325.227865,309.332761 C323.361124,309.747687 321.701798,311.199926 320.042472,311.614851 C318.590562,312.029777 317.346067,311.822314 315.894157,312.23724 C311.745843,313.482016 307.804944,317.838733 303.449213,315.349181 C301.375056,310.785 301.16764,304.976044 298.678652,300.826789 C297.434157,298.752162 295.152584,298.129773 294.322921,295.847683 C294.115506,293.980519 296.397079,294.602907 296.604494,293.150668 C295.982247,290.246189 293.078427,288.79395 291.419101,286.304397 C290.589438,285.059621 290.174607,283.399919 289.137528,281.94768 C285.818876,277.176037 279.388989,274.686484 278.144494,268.670065 C277.729663,267.010363 278.144494,265.765587 277.937079,264.52081 C277.314831,262.446183 276.070337,260.371555 274.618427,258.711853 C273.581348,257.467077 271.507191,256.637226 270.262697,254.770061 C269.433034,253.525285 269.225618,251.865583 268.603371,250.620807 C265.906966,245.434238 261.966067,241.077521 257.610337,237.343192 C255.328764,237.758117 253.047191,237.758117 251.802697,239.210356 C252.839775,242.737223 254.706517,245.849164 256.573258,248.753642 C258.232584,251.450658 260.721573,254.562599 261.758652,257.467077 C262.173483,258.711853 262.173483,260.164093 262.588315,261.408869 C264.24764,265.765587 269.847865,267.217826 270.884944,272.196931 C271.714607,275.516335 270.677528,278.005888 271.714607,281.325292 C272.751685,284.644696 277.522247,286.51186 279.388989,289.623801 C281.048315,292.113354 281.048315,295.847683 282.085393,298.129773 C283.744719,301.65664 288.307865,303.108879 291.626517,305.598432 C294.737753,307.673059 296.81191,310.992463 299.300899,313.274553 C300.752809,314.51933 302.826966,314.934255 303.241798,316.386494 C303.656629,318.253659 302.412135,318.876047 302.204719,320.535749 C304.278876,322.817839 306.353034,326.759631 309.879101,327.174557 C311.331011,327.382019 313.197753,325.92978 315.479326,325.514855 C316.516404,325.307392 317.760899,325.722317 318.797978,325.514855 C320.249888,325.307392 321.494382,323.855153 323.153708,323.64769 C326.057528,323.025302 329.168764,323.232765 332.694831,322.817839 C336.013483,322.402914 338.295056,319.498435 340.991461,320.328286 C343.895281,323.440227 341.821124,326.967094 340.991461,329.871572 C340.784045,330.908886 340.784045,331.9462 340.369213,332.983513 C338.917303,337.962619 334.976404,341.489485 333.109663,345.846203 C332.487416,347.298442 332.694831,348.750681 332.072584,350.20292 C329.998427,354.559638 325.850112,358.916355 322.531461,362.650685 C320.664719,364.725312 319.005393,366.592477 316.931236,368.252179 C314.857079,369.91188 312.575506,370.741731 310.293933,372.401433 C305.938202,375.720837 301.375056,380.285017 298.26382,384.434272 C297.019326,386.093974 296.397079,387.961139 295.152584,389.413378 C293.285843,391.488005 290.589438,392.317856 289.137528,394.392483 C287.893034,395.844723 287.270787,398.749201 285.818876,401.446216 C284.366966,404.558157 281.048315,406.632785 281.670562,410.989502 C281.877978,412.649204 283.329888,413.686518 283.952135,415.34622 C284.781798,418.250698 284.159551,420.740251 283.744719,423.852192 C285.404045,427.586521 286.441124,431.735776 289.344944,434.225329 C289.759775,439.826823 288.930112,445.220854 289.344944,449.992497 C289.55236,452.896975 290.796854,455.179065 289.55236,457.876081 C288.515281,460.365634 284.574382,464.514888 282.085393,466.17459 C279.388989,467.834292 275.44809,468.249218 272.751685,470.323845 C270.884944,471.776084 269.225618,474.265637 267.151461,475.925339 C263.832809,478.622355 259.477079,481.111907 259.269663,483.808923 C259.062247,485.468625 260.514157,487.750715 260.928989,489.410417 C261.966067,493.559672 263.003146,499.368628 261.136404,503.725346 C259.062247,508.496989 249.106292,507.459675 247.861798,512.438781 C247.446966,513.89102 248.484045,515.135796 248.484045,516.795498 C248.484045,518.247737 246.617303,523.226843 245.78764,524.679082 C244.543146,526.961172 241.846742,527.998486 239.98,529.865651 C237.698427,532.355203 236.661348,535.88207 234.17236,538.371623 C230.853708,541.898489 226.497978,545.632819 222.349663,548.537297 C218.61618,551.234312 212.186292,553.931328 206.378652,554.346253 C203.06,554.553716 199.533933,553.516403 196.007865,554.138791 C194.763371,554.346253 193.311461,555.59103 191.652135,555.798493 C190.615056,556.005955 189.577978,555.59103 188.540899,555.798493 C186.881573,556.005955 185.222247,557.458195 183.562921,557.458195 C180.036854,557.458195 175.473708,553.101477 175.266292,548.952222 C175.266292,547.29252 176.718202,545.840281 176.718202,544.180579 C176.718202,542.520877 174.436629,540.238787 172.777303,536.919384 C171.117978,533.807443 170.49573,530.280576 168.836404,527.791023 C167.177079,525.094008 164.895506,523.849231 163.651011,521.774604 C161.162022,517.625349 160.954607,512.438781 160.124944,507.459675 C159.917528,505.799973 158.673034,503.932808 158.465618,501.858181 C158.258202,499.368628 158.673034,496.46415 158.258202,494.389523 C157.843371,492.729821 155.976629,491.070119 154.939551,489.202954 C153.072809,485.676088 151.620899,480.904445 149.961573,478.207429 C148.509663,475.510413 145.191011,472.813398 144.983596,469.90892 C144.77618,467.834292 145.191011,464.099963 145.605843,462.232798 C145.813258,460.365634 147.265169,458.705932 147.887416,456.631304 C148.302247,455.179065 147.887416,453.726826 148.094831,452.274587 C149.546742,446.050705 156.391461,443.768615 155.561798,436.092493 C155.146966,432.77309 152.865393,431.320851 152.450562,427.586521 C152.243146,425.926819 153.280225,424.267117 153.280225,422.607416 C153.280225,420.325325 151.206067,416.798459 150.168989,414.723832 C147.472584,408.707412 145.605843,403.105918 141.664944,398.541738 C139.383371,396.052185 136.686966,394.185021 134.820225,391.902931 C133.368315,390.035766 131.501573,386.508899 131.501573,385.05666 C131.501573,383.396958 132.746067,382.567107 133.160899,380.907405 C133.783146,378.832778 133.783146,375.098449 134.612809,371.779045 C135.02764,370.326806 136.479551,366.799939 136.272135,364.310387 C136.064719,362.028296 132.538652,357.671579 129.634831,356.841728 C125.693933,355.804414 121.753034,358.086504 116.982472,357.671579 C111.382247,353.729787 111.797079,346.883517 105.782022,346.053666 Z M257.817753,444.598466 C259.062247,442.523838 260.721573,436.922344 257.817753,435.470105 L257.195506,435.470105 C256.158427,437.752195 254.913933,443.353689 257.817753,444.598466 Z M254.08427,386.923825 C254.913933,385.05666 257.195506,382.982033 256.780674,380.699943 C255.951011,375.305912 245.995056,378.002927 244.957978,381.737256 C244.128315,384.226809 245.372809,386.301437 244.33573,388.998452 C245.372809,391.07308 248.069213,391.488005 251.595281,391.280542 C253.462022,390.243229 253.254607,388.790989 254.08427,386.923825 Z M237.283596,415.34622 C238.320674,413.271592 235.62427,412.026816 235.002022,409.744726 C234.379775,407.255173 235.62427,404.143232 233.342697,402.898456 L232.513034,402.898456 C230.646292,407.462636 233.342697,414.931294 237.283596,415.34622 Z M424.994831,142.117795 C423.957753,140.043168 421.053933,142.740184 422.298427,144.607348 C424.165169,144.607348 424.787416,143.570035 424.994831,142.117795 Z M360.903371,153.320783 C365.466517,152.490932 360.903371,145.229736 357.584719,146.059587 C353.228989,147.304364 357.792135,153.943171 360.903371,153.320783 Z M340.576629,188.796911 C342.028539,179.253625 334.561573,178.631237 333.109663,171.784967 C333.73191,171.784967 333.317079,170.955116 333.939326,170.955116 C335.806067,170.125265 338.502472,172.407355 339.332135,170.125265 C339.332135,166.805861 335.18382,164.523771 331.035506,165.97601 C329.791011,165.146159 329.583596,163.278995 329.37618,161.619293 C326.264944,159.752128 318.590562,155.602873 318.590562,152.076007 C318.590562,148.964066 322.531461,147.304364 327.094607,147.304364 C328.961348,145.852125 327.716854,141.495407 326.057528,140.458093 C319.005393,138.798392 315.064494,140.043168 310.708764,143.155109 C308.634607,144.814811 306.145618,145.852125 304.901124,146.681976 C303.864045,147.511827 302.204719,150.001379 302.412135,151.038693 C302.619551,152.698395 305.108539,153.735709 305.938202,156.017799 C306.353034,157.262575 306.353034,158.714814 306.767865,159.544665 C308.01236,162.241681 311.123596,163.901383 313.405169,166.183473 C315.064494,167.843175 319.62764,171.162579 319.835056,173.029743 C319.835056,174.689445 318.383146,174.896908 317.968315,176.55661 C317.346067,178.216312 316.931236,181.950641 317.138652,183.40288 C317.760899,186.514821 320.872135,186.514821 323.775955,187.759597 C326.679775,189.004374 329.37618,191.286464 332.28,191.286464 C335.391236,191.701389 338.709888,190.664076 340.576629,188.796911 Z M275.862921,169.087951 C283.329888,167.843175 280.011236,161.41183 276.070337,159.12974 C273.166517,157.470038 269.847865,156.017799 266.529213,153.943171 C264.662472,152.698395 257.195506,150.623768 257.195506,148.134215 C257.195506,145.644662 262.588315,144.607348 260.514157,140.250631 C256.780674,139.42078 247.861798,140.873019 248.484045,145.022274 C248.898876,147.511827 251.595281,146.059587 252.424944,148.54914 C249.728539,149.586454 246.409888,152.076007 243.713483,151.661081 C240.394831,151.038693 239.565169,146.889438 237.698427,144.399885 C235.002022,144.399885 233.342697,141.910333 230.231461,142.117795 C226.912809,142.532721 225.253483,147.096901 223.594157,149.586454 C222.764494,150.83123 221.312584,151.453619 220.897753,152.698395 C220.690337,153.320783 220.897753,154.56556 220.690337,155.395411 C219.653258,158.507352 217.16427,159.544665 217.371685,162.241681 C217.579101,164.523771 220.275506,165.768547 220.482921,167.843175 C220.275506,169.917802 216.956854,168.880488 217.16427,171.370041 C222.142247,175.519296 222.349663,169.502877 224.838652,168.673026 C226.912809,168.050637 230.853708,169.295414 233.342697,168.673026 C235.416854,168.2581 237.07618,166.183473 239.357753,165.353622 C240.809663,164.731234 242.676404,164.316308 244.543146,164.316308 C253.254607,163.901383 258.854831,169.710339 266.529213,169.917802 C268.603371,169.710339 273.166517,169.502877 275.862921,169.087951 Z M258.232584,201.452138 C258.44,198.54766 257.195506,196.26557 256.780674,192.116315 C251.802697,189.004374 247.861798,195.020793 242.676404,194.398405 C239.565169,193.98348 237.283596,190.24915 233.964944,190.871539 C232.098202,191.079001 231.268539,193.568554 229.194382,193.98348 C225.253483,194.605868 223.386742,190.871539 219.238427,192.323778 C213.430787,187.759597 210.734382,180.498402 209.282472,172.199892 C206.171236,168.050637 201.193258,171.370041 198.911685,174.067057 C197.459775,174.067057 195.593034,173.237206 195.385618,174.896908 C194.348539,180.083476 202.645169,180.498402 202.437753,184.025268 C202.437753,186.307358 199.119101,186.099896 197.667191,187.552135 C196.215281,189.211837 197.25236,190.664076 195.178202,191.701389 C189.785393,192.323778 187.918652,189.419299 187.918652,184.647656 C185.637079,181.12079 182.525843,178.423774 180.451685,175.519296 C179.622022,174.481982 178.584944,172.82228 178.170112,171.162579 C177.962697,169.917802 178.79236,168.2581 178.377528,166.805861 C177.755281,164.108845 172.984719,162.241681 169.873483,160.789442 C166.554831,159.337203 162.613933,157.677501 160.33236,155.810336 C158.673034,154.358097 157.843371,152.076007 156.391461,151.038693 C155.146966,150.208842 153.695056,150.416305 152.450562,149.586454 C150.998652,148.54914 151.206067,146.681976 149.13191,146.26705 C148.094831,145.852125 146.435506,147.304364 145.813258,148.134215 C144.568764,154.150634 149.339326,154.56556 151.620899,157.262575 C153.072809,159.12974 153.902472,161.826755 155.561798,163.071532 C157.221124,164.316308 159.502697,164.108845 161.576854,164.938696 C163.028764,165.561085 164.065843,167.428249 165.517753,168.2581 C168.214157,169.917802 172.362472,170.125265 172.777303,173.237206 C171.117978,174.27452 167.384494,171.577504 166.14,174.27452 C165.725169,176.141684 167.59191,176.971535 167.59191,178.631237 C167.59191,181.328253 164.480674,184.232731 161.78427,183.817805 C161.576854,182.158104 163.23618,180.913327 163.23618,179.046163 C163.028764,175.519296 155.976629,170.125265 152.450562,168.673026 C150.791236,167.843175 148.717079,167.843175 147.265169,167.013324 C144.568764,165.561085 139.798202,161.826755 138.138876,159.544665 C136.272135,156.84765 134.405393,152.076007 130.257079,152.283469 C128.390337,152.490932 126.938427,153.943171 125.486517,154.773022 C124.242022,155.395411 122.790112,156.017799 121.338202,157.055112 C119.678876,158.092426 118.434382,159.12974 116.982472,159.337203 C113.456404,159.544665 110.552584,156.84765 107.648764,157.470038 C106.611685,157.677501 105.782022,158.507352 104.537528,159.752128 C104.537528,161.41183 104.95236,162.449144 104.744944,164.108845 C103.915281,165.561085 101.218876,165.561085 99.1447191,166.598398 C96.2408989,168.050637 93.7519101,171.162579 91.4703371,173.444669 C90.018427,174.896908 88.5665169,176.141684 88.3591011,177.386461 C88.1516854,178.216312 89.188764,180.083476 88.9813483,181.328253 C88.7739326,182.573029 86.2849438,185.477507 84.625618,186.514821 C83.5885393,187.137209 82.3440449,187.344672 81.3069663,187.96706 C79.232809,189.211837 78.1957303,190.871539 76.3289888,191.286464 C71.558427,192.116315 62.8469663,190.24915 62.8469663,195.435719 C62.8469663,198.755123 67.4101124,198.755123 70.3139326,198.755123 C74.2548315,198.54766 77.5734831,199.584973 79.6476404,198.962585 C81.0995506,198.54766 82.7588764,196.887958 84.4182022,196.26557 C85.4552809,195.850644 86.4923596,195.850644 87.1146067,195.435719 C88.7739326,194.605868 89.6035955,193.361091 91.0555056,192.738703 C93.5444944,191.493927 98.3150562,190.664076 101.011461,190.456613 C104.744944,190.24915 108.685843,190.871539 113.456404,190.456613 C115.11573,190.24915 116.775056,189.211837 118.641798,189.004374 C121.545618,188.796911 125.486517,190.24915 127.975506,190.041688 C129.634831,190.041688 131.501573,188.381986 133.57573,188.381986 C135.857303,188.381986 138.138876,190.041688 138.553708,191.493927 C138.761124,192.323778 138.138876,193.568554 138.346292,194.813331 C138.761124,196.887958 140.420449,197.717809 140.213034,198.962585 C140.005618,200.622287 135.857303,202.904377 136.272135,204.979005 C136.686966,206.223781 139.798202,207.67602 141.250112,208.505871 C142.909438,209.543185 145.398427,210.787961 147.265169,210.995424 C148.924494,211.202887 150.168989,210.580499 151.620899,210.787961 C153.902472,210.995424 157.843371,212.447663 159.295281,213.484977 C161.78427,215.352141 161.576854,218.25662 164.480674,219.293933 C165.725169,219.708859 168.006742,219.501396 169.666067,219.916322 C173.606966,220.746173 176.718202,224.065576 179.622022,223.858114 C184.185169,223.235725 182.111011,218.879008 182.733258,215.97453 C183.977753,208.920797 197.667191,209.335722 200.363596,214.107365 C202.437753,214.729753 204.097079,214.107365 206.378652,214.937216 C207.623146,215.352141 208.660225,216.804381 209.904719,217.219306 C210.941798,217.426769 212.186292,217.011843 213.430787,217.219306 C218.61618,217.841694 223.386742,221.783486 227.949888,221.161098 C230.853708,220.746173 232.927865,218.049157 235.62427,217.841694 C240.809663,217.426769 244.33573,221.783486 249.935955,219.708859 C254.08427,218.25662 253.254607,213.899902 254.706517,209.543185 C256.158427,205.808856 258.025169,203.734228 258.232584,201.452138 Z M554.837079,107.678981 C555.874157,104.152114 554.214831,100.625248 552.140674,98.3431579 C549.029438,98.9655461 551.311011,102.28495 551.103596,104.152114 C550.688764,106.84913 547.99236,108.716295 547.99236,111.620773 C546.955281,112.865549 545.088539,113.280475 544.881124,115.562565 C546.540449,116.807341 547.370112,114.525251 548.822022,113.280475 C550.89618,111.205848 554.214831,109.961071 554.837079,107.678981 Z M482.656404,12.0386593 C479.545169,12.0386593 478.50809,13.2834358 476.641348,14.3207494 C475.60427,14.9431377 473.530112,15.1506004 474.15236,16.8103023 C476.848764,16.3953768 482.034157,15.3580631 482.656404,12.0386593 Z M366.711011,46.0625482 C373.140899,47.5147873 376.252135,40.2535915 371.896404,36.1043368 C370.859326,35.0670231 367.540674,34.8595604 366.088764,32.5774703 C364.429438,29.8804547 364.636854,26.3535882 360.488539,26.9759764 C360.488539,27.3909019 360.488539,27.8058273 360.281124,27.8058273 C359.866292,33.8222467 368.577753,35.2744859 368.577753,40.2535915 C368.577753,42.7431444 365.881348,42.9506071 366.711011,46.0625482 Z"/><path id="Shape" fill="url(#linearGradient-24)" d="M276.070337,35.4819486 C275.240674,32.5774703 280.840899,32.9923958 280.011236,35.6894113 C278.974157,36.726725 276.692584,36.5192623 276.070337,35.4819486 Z"/><path id="Shape" fill="url(#linearGradient-25)" d="M242.261573,200.207362 C242.468989,197.925272 247.654382,197.095421 248.484045,199.170048 C248.276629,201.244675 243.298652,202.696915 242.261573,200.207362 Z"/><path id="Shape" fill="url(#linearGradient-26)" d="M147.887416,185.270045 C150.791236,182.987955 157.221124,184.440194 161.162022,184.440194 C160.33236,186.514821 160.33236,189.211837 158.673034,190.456613 C154.109888,189.626762 149.754157,188.589448 147.887416,185.270045 Z"/><path id="Shape" fill="url(#linearGradient-27)" d="M127.76809,170.747653 C131.501573,166.805861 135.442472,168.880488 134.197978,176.55661 C133.368315,178.8387 129.427416,181.950641 127.560674,178.423774 C127.975506,175.726759 127.76809,173.652131 127.76809,170.747653 Z"/><path id="Shape" fill="url(#linearGradient-28)" d="M133.160899,161.826755 C133.57573,164.108845 132.538652,165.146159 131.294157,165.97601 C127.76809,165.353622 130.464494,158.922277 133.160899,161.826755 Z"/><path id="Shape" fill="url(#linearGradient-29)" d="M79.8550562,106.019279 C80.2698876,104.359577 79.0253933,102.492413 77.3660674,101.662562 C76.5364045,101.247636 75.0844944,101.455099 74.0474157,100.832711 C71.3510112,99.3804716 70.3139326,96.2685305 68.8620225,95.6461423 C69.0694382,92.5342012 68.0323596,90.4595739 68.8620225,88.3849465 C69.2768539,87.1401701 73.0103371,83.8207663 74.8770787,83.1983781 C77.3660674,82.3685271 79.8550562,83.1983781 81.3069663,81.3312134 C81.9292135,81.3312134 82.3440449,81.3312134 82.7588764,81.5386762 C82.7588764,83.1983781 81.3069663,83.6133035 81.0995506,85.0655427 C81.514382,87.5550955 85.8701124,86.1028564 86.2849438,88.3849465 C85.8701124,90.8744993 83.5885393,91.4968876 83.5885393,93.3640522 C83.5885393,95.0237541 86.907191,98.1356951 88.5665169,100.210322 C89.8110112,101.870024 91.8851685,102.907338 92.9222472,104.56704 C93.9593258,106.019279 94.1667416,107.678981 94.7889888,108.508832 C96.2408989,109.961071 99.5595506,110.168534 99.7669663,112.035698 C100.181798,114.732714 96.4483146,115.770028 97.0705618,118.674506 C93.3370787,121.578984 86.907191,120.126745 80.8921348,120.956596 C78.1957303,121.371522 75.0844944,124.068537 72.1806742,121.786447 C71.558427,119.919282 74.6696629,119.71182 74.8770787,117.844655 C74.6696629,116.184953 72.5955056,116.392416 72.1806742,115.14764 C73.0103371,113.073012 75.4993258,112.658087 75.2919101,109.338683 C76.5364045,107.678981 79.4402247,108.301369 79.8550562,106.019279 Z"/><path id="Shape" fill="url(#linearGradient-30)" d="M59.3208989,99.3804716 C63.054382,97.0983814 69.4842697,98.7580833 69.6916854,101.662562 C69.8991011,103.737189 67.8249438,103.944652 66.9952809,106.434205 C66.3730337,108.508832 67.2026966,110.998385 66.165618,112.450624 C65.3359551,113.6954 63.054382,113.6954 61.3950562,114.110326 C57.8689888,115.14764 51.2316854,119.296894 48.5352809,114.732714 C48.9501124,112.243161 51.2316854,111.828236 52.0613483,109.753608 C52.0613483,108.093906 50.4020225,107.264056 50.6094382,105.604354 C51.0242697,103.529726 52.4761798,104.152114 54.7577528,103.322264 C56.4170787,102.699875 57.0393258,100.625248 59.3208989,99.3804716 Z"/></g></g></g></svg>