<?xml version="1.0" encoding="UTF-8"?>
<svg width="31px" height="30px" viewBox="0 0 31 30" version="1.1" xmlns="http://www.w3.org/2000/svg" xmlns:xlink="http://www.w3.org/1999/xlink">
    <!-- Generator: Sketch 44.1 (41455) - http://www.bohemiancoding.com/sketch -->
    <title>save</title>
    <desc>Created with Sketch.</desc>
    <defs></defs>
    <g id="pages" stroke="none" stroke-width="1" fill="none" fill-rule="evenodd">
        <g id="fifth-slide" transform="translate(-840.000000, -542.000000)" fill-rule="nonzero" fill="#FFFFFF">
            <g id="save" transform="translate(855.183244, 556.183244) rotate(-24.000000) translate(-855.183244, -556.183244) translate(843.683244, 544.683244)">
                <path d="M18.7351429,0 L17.6020408,0 L4.45918367,0 L0.234693878,0 L0.234693878,23 L3.52040816,23 L19.0102041,23 L22.7653061,23 L22.7653061,4.03016327 L18.7351429,0 Z M16.6632653,0.93877551 L16.6632653,7.51020408 L5.39795918,7.51020408 L5.39795918,0.93877551 L16.6632653,0.93877551 Z M4.45918367,22.0612245 L4.45918367,13.1428571 L18.0714286,13.1428571 L18.0714286,22.0612245 L4.45918367,22.0612245 Z M21.8265306,22.0612245 L19.0102041,22.0612245 L19.0102041,12.2040816 L3.52040816,12.2040816 L3.52040816,22.0612245 L1.17346939,22.0612245 L1.17346939,0.93877551 L4.45918367,0.93877551 L4.45918367,8.44897959 L17.6020408,8.44897959 L17.6020408,0.93877551 L18.3464898,0.93877551 L21.8265306,4.41881633 L21.8265306,22.0612245 Z" id="Shape"></path>
                <path d="M6.33673469,15.4897959 L9.62244898,15.4897959 C9.88202041,15.4897959 10.0918367,15.2799796 10.0918367,15.0204082 C10.0918367,14.7608367 9.88202041,14.5510204 9.62244898,14.5510204 L6.33673469,14.5510204 C6.07716327,14.5510204 5.86734694,14.7608367 5.86734694,15.0204082 C5.86734694,15.2799796 6.07716327,15.4897959 6.33673469,15.4897959 Z" id="Shape"></path>
                <path d="M11.0306122,16.4285714 L6.33673469,16.4285714 C6.07716327,16.4285714 5.86734694,16.6383878 5.86734694,16.8979592 C5.86734694,17.1575306 6.07716327,17.3673469 6.33673469,17.3673469 L11.0306122,17.3673469 C11.2901837,17.3673469 11.5,17.1575306 11.5,16.8979592 C11.5,16.6383878 11.2901837,16.4285714 11.0306122,16.4285714 Z" id="Shape"></path>
                <path d="M12.1055102,16.5646939 C12.020551,16.6534082 11.9693878,16.7759184 11.9693878,16.8979592 C11.9693878,17.02 12.020551,17.1420408 12.1055102,17.2312245 C12.1942245,17.3157143 12.3115714,17.3673469 12.4387755,17.3673469 C12.5608163,17.3673469 12.6828571,17.3157143 12.7720408,17.2312245 C12.8565306,17.1420408 12.9081633,17.02 12.9081633,16.8979592 C12.9081633,16.7759184 12.8565306,16.6534082 12.7720408,16.5646939 C12.5983673,16.3910204 12.2791837,16.3910204 12.1055102,16.5646939 Z" id="Shape"></path>
                <path d="M15.7244898,1.87755102 L12.9081633,1.87755102 L12.9081633,6.57142857 L15.7244898,6.57142857 L15.7244898,1.87755102 Z M14.7857143,5.63265306 L13.8469388,5.63265306 L13.8469388,2.81632653 L14.7857143,2.81632653 L14.7857143,5.63265306 Z" id="Shape"></path>
            </g>
        </g>
    </g>
</svg>