<?xml version="1.0" encoding="UTF-8"?>
<svg width="19px" height="18px" viewBox="0 0 19 18" version="1.1" xmlns="http://www.w3.org/2000/svg" xmlns:xlink="http://www.w3.org/1999/xlink">
    <!-- Generator: Sketch 44.1 (41455) - http://www.bohemiancoding.com/sketch -->
    <title>save copy</title>
    <desc>Created with Sketch.</desc>
    <defs></defs>
    <g id="pages" stroke="none" stroke-width="1" fill="none" fill-rule="evenodd">
        <g id="fifth-slide" transform="translate(-896.000000, -547.000000)" fill-rule="nonzero" fill="#FFFFFF">
            <g id="save-copy" transform="translate(905.445343, 555.698747) rotate(-24.000000) translate(-905.445343, -555.698747) translate(898.445343, 548.198747)">
                <path d="M11.4897113,1.13686838e-13 L10.7948132,1.13686838e-13 L2.734686,1.13686838e-13 L0.143930842,1.13686838e-13 L0.143930842,14.1052225 L2.15896263,14.1052225 L11.6583982,14.1052225 L13.9612917,14.1052225 L13.9612917,2.47158042 L11.4897113,1.13686838e-13 Z M10.2190898,0.575723368 L10.2190898,4.60578695 L3.31040937,4.60578695 L3.31040937,0.575723368 L10.2190898,0.575723368 Z M2.734686,13.5294992 L2.734686,8.06012715 L11.0826748,8.06012715 L11.0826748,13.5294992 L2.734686,13.5294992 Z M13.3855683,13.5294992 L11.6583982,13.5294992 L11.6583982,7.48440379 L2.15896263,7.48440379 L2.15896263,13.5294992 L0.71965421,13.5294992 L0.71965421,0.575723368 L2.734686,0.575723368 L2.734686,5.18151031 L10.7948132,5.18151031 L10.7948132,0.575723368 L11.2513618,0.575723368 L13.3855683,2.70992989 L13.3855683,13.5294992 Z" id="Shape"></path>
                <path d="M3.88613273,9.49943557 L5.90116452,9.49943557 C6.06035203,9.49943557 6.18902621,9.3707614 6.18902621,9.21157389 C6.18902621,9.05238638 6.06035203,8.92371221 5.90116452,8.92371221 L3.88613273,8.92371221 C3.72694522,8.92371221 3.59827105,9.05238638 3.59827105,9.21157389 C3.59827105,9.3707614 3.72694522,9.49943557 3.88613273,9.49943557 Z" id="Shape"></path>
                <path d="M6.76474958,10.0751589 L3.88613273,10.0751589 C3.72694522,10.0751589 3.59827105,10.2038331 3.59827105,10.3630206 C3.59827105,10.5222081 3.72694522,10.6508823 3.88613273,10.6508823 L6.76474958,10.6508823 C6.92393709,10.6508823 7.05261126,10.5222081 7.05261126,10.3630206 C7.05261126,10.2038331 6.92393709,10.0751589 6.76474958,10.0751589 Z" id="Shape"></path>
                <path d="M7.42395283,10.1586388 C7.37184987,10.2130447 7.34047294,10.2881766 7.34047294,10.3630206 C7.34047294,10.4378647 7.37184987,10.5127087 7.42395283,10.5674024 C7.47835869,10.6192175 7.55032411,10.6508823 7.62833463,10.6508823 C7.70317867,10.6508823 7.7780227,10.6192175 7.83271642,10.5674024 C7.88453153,10.5127087 7.91619631,10.4378647 7.91619631,10.3630206 C7.91619631,10.2881766 7.88453153,10.2130447 7.83271642,10.1586388 C7.7262076,10.05213 7.53046166,10.05213 7.42395283,10.1586388 Z" id="Shape"></path>
                <path d="M9.64336642,1.15144674 L7.91619631,1.15144674 L7.91619631,4.03006358 L9.64336642,4.03006358 L9.64336642,1.15144674 Z M9.06764305,3.45434021 L8.49191968,3.45434021 L8.49191968,1.7271701 L9.06764305,1.7271701 L9.06764305,3.45434021 Z" id="Shape"></path>
            </g>
        </g>
    </g>
</svg>