<?xml version="1.0" encoding="UTF-8"?>
<svg width="48px" height="47px" viewBox="0 0 48 47" version="1.1" xmlns="http://www.w3.org/2000/svg" xmlns:xlink="http://www.w3.org/1999/xlink">
    <!-- Generator: Sketch 44.1 (41455) - http://www.bohemiancoding.com/sketch -->
    <title>server</title>
    <desc>Created with Sketch.</desc>
    <defs></defs>
    <g id="pages" stroke="none" stroke-width="1" fill="none" fill-rule="evenodd">
        <g id="api---2" transform="translate(-126.000000, -572.000000)" fill-rule="nonzero">
            <g id="server" transform="translate(126.000000, 572.000000)">
                <path d="M48,33.5055065 L48,46.0844156 C48,46.5898182 47.5916962,47 47.0886076,47 L0.911392405,47 C0.407088608,47 0,46.5898182 0,46.0844156 L0,33.5055065 C0,33.0001039 0.407088608,32.5899221 0.911392405,32.5899221 L3.56901266,32.5899221 L3.56901266,30.705039 L0.911392405,30.705039 C0.407088608,30.705039 0,30.2948571 0,29.7894545 L0,17.2105455 C0,16.7051429 0.407088608,16.294961 0.911392405,16.294961 L3.56901266,16.294961 L3.56901266,14.4100779 L0.911392405,14.4100779 C0.407088608,14.4100779 0,13.9998961 0,13.4944935 L0,0.915584416 C0,0.410181818 0.407088608,0 0.911392405,0 L47.0886076,0 C47.5916962,0 48,0.410181818 48,0.915584416 L48,13.4944935 C48,13.9998961 47.5916962,14.4100779 47.0886076,14.4100779 L44.4309873,14.4100779 L44.4309873,16.294961 L47.0886076,16.294961 C47.5916962,16.294961 48,16.7051429 48,17.2105455 L48,29.7894545 C48,30.2948571 47.5916962,30.705039 47.0886076,30.705039 L44.4309873,30.705039 L44.4309873,32.5899221 L47.0886076,32.5899221 C47.5916962,32.5899221 48,33.0001039 48,33.5055065 Z M46.1772152,45.1688312 L46.1772152,34.4210909 L41.4173165,34.4210909 L41.4173165,45.1688312 L46.1772152,45.1688312 Z M46.1772152,28.8738701 L46.1772152,18.1261299 L41.4173165,18.1261299 L41.4173165,28.8738701 L46.1772152,28.8738701 L46.1772152,28.8738701 Z M46.1772152,12.5789091 L46.1772152,1.83116883 L41.4173165,1.83116883 L41.4173165,12.5789091 L46.1772152,12.5789091 Z M42.6082025,32.5899221 L42.6082025,30.705039 L5.39179747,30.705039 L5.39179747,32.5899221 L42.6082025,32.5899221 Z M42.6082025,16.294961 L42.6082025,14.4100779 L5.39179747,14.4100779 L5.39179747,16.294961 L42.6082025,16.294961 Z M39.5945316,45.1688312 L39.5945316,34.4210909 L34.8540759,34.4210909 L34.8540759,45.1688312 L39.5945316,45.1688312 Z M39.5945316,28.8738701 L39.5945316,18.1261299 L34.8540759,18.1261299 L34.8540759,28.8738701 L39.5945316,28.8738701 L39.5945316,28.8738701 Z M39.5945316,12.5789091 L39.5945316,1.83116883 L34.8540759,1.83116883 L34.8540759,12.5789091 L39.5945316,12.5789091 Z M33.0312911,45.1688312 L33.0312911,34.4210909 L1.82278481,34.4210909 L1.82278481,45.1688312 L33.0312911,45.1688312 Z M33.0312911,28.8738701 L33.0312911,18.1261299 L1.82278481,18.1261299 L1.82278481,28.8738701 L33.0312911,28.8738701 L33.0312911,28.8738701 Z M33.0312911,12.5789091 L33.0312911,1.83116883 L1.82278481,1.83116883 L1.82278481,12.5789091 L33.0312911,12.5789091 Z" id="Shape" fill="#000000"></path>
                <rect id="Rectangle-path" fill="#3DD0F2" x="41.4173165" y="34.4210909" width="4.75989873" height="10.7477403"></rect>
                <rect id="Rectangle-path" fill="#3DD0F2" x="41.4173165" y="18.1261299" width="4.75989873" height="10.7477403"></rect>
                <rect id="Rectangle-path" fill="#3DD0F2" x="41.4173165" y="1.83116883" width="4.75989873" height="10.7477403"></rect>
                <path d="M33.0312911,34.4210909 L33.0312911,45.1688312 L1.82278481,45.1688312 L1.82278481,34.4210909 L33.0312911,34.4210909 Z M9.11392405,39.794961 C9.11392405,39.5544675 9.01670886,39.3176364 8.84658228,39.1479481 C8.6764557,38.977039 8.44192405,38.8793766 8.20253165,38.8793766 C7.96192405,38.8793766 7.72739241,38.977039 7.55726582,39.1479481 C7.38835443,39.3188571 7.29113924,39.5544675 7.29113924,39.794961 C7.29113924,40.0354545 7.38835443,40.2722857 7.55726582,40.441974 C7.72739241,40.6128831 7.96192405,40.7105455 8.20253165,40.7105455 C8.44192405,40.7105455 8.6764557,40.6128831 8.84658228,40.441974 C9.01670886,40.2722857 9.11392405,40.0366753 9.11392405,39.794961 Z M6.19746835,39.794961 C6.19746835,39.5544675 6.10025316,39.3188571 5.93012658,39.1479481 C5.76,38.977039 5.52546835,38.8793766 5.28607595,38.8793766 C5.04546835,38.8793766 4.81093671,38.977039 4.64081013,39.1479481 C4.47189873,39.3176364 4.37468354,39.5544675 4.37468354,39.794961 C4.37468354,40.0366753 4.47189873,40.2722857 4.64081013,40.441974 C4.81093671,40.6128831 5.04546835,40.7105455 5.28607595,40.7105455 C5.52546835,40.7105455 5.76,40.6128831 5.93012658,40.441974 C6.10025316,40.2722857 6.19746835,40.0354545 6.19746835,39.794961 Z" id="Shape" fill="#3DD0F2"></path>
                <path d="M33.0312911,18.1261299 L33.0312911,28.8738701 L1.82278481,28.8738701 L1.82278481,18.1261299 L33.0312911,18.1261299 L33.0312911,18.1261299 Z M9.11392405,23.5 C9.11392405,23.2595065 9.01670886,23.0226753 8.84658228,22.852987 C8.6764557,22.6820779 8.44192405,22.5844156 8.20253165,22.5844156 C7.96192405,22.5844156 7.72739241,22.6820779 7.55726582,22.852987 C7.38835443,23.0226753 7.29113924,23.2595065 7.29113924,23.5 C7.29113924,23.7417143 7.38835443,23.9773247 7.55726582,24.147013 C7.72739241,24.3179221 7.96192405,24.4155844 8.20253165,24.4155844 C8.44192405,24.4155844 8.6764557,24.3179221 8.84658228,24.147013 C9.01670886,23.9773247 9.11392405,23.7417143 9.11392405,23.5 Z M6.19746835,23.5 C6.19746835,23.2595065 6.10025316,23.0226753 5.93012658,22.852987 C5.76,22.6820779 5.52546835,22.5844156 5.28607595,22.5844156 C5.04546835,22.5844156 4.81093671,22.6820779 4.64081013,22.852987 C4.47189873,23.0226753 4.37468354,23.2595065 4.37468354,23.5 C4.37468354,23.7404935 4.47189873,23.9773247 4.64081013,24.147013 C4.81093671,24.3179221 5.04546835,24.4155844 5.28607595,24.4155844 C5.52546835,24.4155844 5.76,24.3179221 5.93012658,24.147013 C6.10025316,23.9773247 6.19746835,23.7404935 6.19746835,23.5 Z" id="Shape" fill="#3DD0F2"></path>
                <path d="M33.0312911,1.83116883 L33.0312911,12.5789091 L1.82278481,12.5789091 L1.82278481,1.83116883 L33.0312911,1.83116883 Z M9.11392405,7.20503896 C9.11392405,6.96454545 9.01670886,6.72771429 8.84658228,6.55802597 C8.6764557,6.38711688 8.44192405,6.28945455 8.20253165,6.28945455 C7.96192405,6.28945455 7.72739241,6.38711688 7.55726582,6.55802597 C7.38835443,6.72771429 7.29113924,6.96454545 7.29113924,7.20503896 C7.29113924,7.44553247 7.38835443,7.68236364 7.55726582,7.85205195 C7.72739241,8.02296104 7.96192405,8.12062338 8.20253165,8.12062338 C8.44192405,8.12062338 8.6764557,8.02296104 8.84658228,7.85205195 C9.01670886,7.68236364 9.11392405,7.44553247 9.11392405,7.20503896 Z M6.19746835,7.20503896 C6.19746835,6.96454545 6.10025316,6.72771429 5.93012658,6.55802597 C5.76,6.38711688 5.52546835,6.28945455 5.28607595,6.28945455 C5.04546835,6.28945455 4.81093671,6.38711688 4.64081013,6.55802597 C4.47189873,6.72771429 4.37468354,6.96454545 4.37468354,7.20503896 C4.37468354,7.44553247 4.47189873,7.68236364 4.64081013,7.85205195 C4.81093671,8.02296104 5.04546835,8.12062338 5.28607595,8.12062338 C5.52546835,8.12062338 5.76,8.02296104 5.93012658,7.85205195 C6.10025316,7.68236364 6.19746835,7.44553247 6.19746835,7.20503896 Z" id="Shape" fill="#3DD0F2"></path>
                <path d="M8.84658228,6.55802597 C9.01670886,6.72771429 9.11392405,6.96454545 9.11392405,7.20503896 C9.11392405,7.44553247 9.01670886,7.68236364 8.84658228,7.85205195 C8.6764557,8.02296104 8.44192405,8.12062338 8.20253165,8.12062338 C7.96192405,8.12062338 7.72739241,8.02296104 7.55726582,7.85205195 C7.38835443,7.68236364 7.29113924,7.44553247 7.29113924,7.20503896 C7.29113924,6.96454545 7.38835443,6.72771429 7.55726582,6.55802597 C7.72739241,6.38711688 7.96192405,6.28945455 8.20253165,6.28945455 C8.44192405,6.28945455 8.6764557,6.38711688 8.84658228,6.55802597 Z" id="Shape" fill="#000000"></path>
                <path d="M8.84658228,22.852987 C9.01670886,23.0226753 9.11392405,23.2595065 9.11392405,23.5 C9.11392405,23.7417143 9.01670886,23.9773247 8.84658228,24.147013 C8.6764557,24.3179221 8.44192405,24.4155844 8.20253165,24.4155844 C7.96192405,24.4155844 7.72739241,24.3179221 7.55726582,24.147013 C7.38835443,23.9773247 7.29113924,23.7417143 7.29113924,23.5 C7.29113924,23.2595065 7.38835443,23.0226753 7.55726582,22.852987 C7.72739241,22.6820779 7.96192405,22.5844156 8.20253165,22.5844156 C8.44192405,22.5844156 8.6764557,22.6820779 8.84658228,22.852987 Z" id="Shape" fill="#000000"></path>
                <path d="M8.84658228,39.1479481 C9.01670886,39.3176364 9.11392405,39.5544675 9.11392405,39.794961 C9.11392405,40.0366753 9.01670886,40.2722857 8.84658228,40.441974 C8.6764557,40.6128831 8.44192405,40.7105455 8.20253165,40.7105455 C7.96192405,40.7105455 7.72739241,40.6128831 7.55726582,40.441974 C7.38835443,40.2722857 7.29113924,40.0354545 7.29113924,39.794961 C7.29113924,39.5544675 7.38835443,39.3188571 7.55726582,39.1479481 C7.72739241,38.977039 7.96192405,38.8793766 8.20253165,38.8793766 C8.44192405,38.8793766 8.6764557,38.977039 8.84658228,39.1479481 Z" id="Shape" fill="#000000"></path>
                <path d="M5.93012658,6.55802597 C6.10025316,6.72771429 6.19746835,6.96454545 6.19746835,7.20503896 C6.19746835,7.44553247 6.10025316,7.68236364 5.93012658,7.85205195 C5.76,8.02296104 5.52546835,8.12062338 5.28607595,8.12062338 C5.04546835,8.12062338 4.81093671,8.02296104 4.64081013,7.85205195 C4.47189873,7.68236364 4.37468354,7.44553247 4.37468354,7.20503896 C4.37468354,6.96454545 4.47189873,6.72771429 4.64081013,6.55802597 C4.81093671,6.38711688 5.04546835,6.28945455 5.28607595,6.28945455 C5.52546835,6.28945455 5.76,6.38711688 5.93012658,6.55802597 Z" id="Shape" fill="#000000"></path>
                <path d="M5.93012658,22.852987 C6.10025316,23.0226753 6.19746835,23.2595065 6.19746835,23.5 C6.19746835,23.7404935 6.10025316,23.9773247 5.93012658,24.147013 C5.76,24.3179221 5.52546835,24.4155844 5.28607595,24.4155844 C5.04546835,24.4155844 4.81093671,24.3179221 4.64081013,24.147013 C4.47189873,23.9773247 4.37468354,23.7404935 4.37468354,23.5 C4.37468354,23.2595065 4.47189873,23.0226753 4.64081013,22.852987 C4.81093671,22.6820779 5.04546835,22.5844156 5.28607595,22.5844156 C5.52546835,22.5844156 5.76,22.6820779 5.93012658,22.852987 Z" id="Shape" fill="#000000"></path>
                <path d="M5.93012658,39.1479481 C6.10025316,39.3188571 6.19746835,39.5544675 6.19746835,39.794961 C6.19746835,40.0354545 6.10025316,40.2722857 5.93012658,40.441974 C5.76,40.6128831 5.52546835,40.7105455 5.28607595,40.7105455 C5.04546835,40.7105455 4.81093671,40.6128831 4.64081013,40.441974 C4.47189873,40.2722857 4.37468354,40.0366753 4.37468354,39.794961 C4.37468354,39.5544675 4.47189873,39.3176364 4.64081013,39.1479481 C4.81093671,38.977039 5.04546835,38.8793766 5.28607595,38.8793766 C5.52546835,38.8793766 5.76,38.977039 5.93012658,39.1479481 Z" id="Shape" fill="#000000"></path>
            </g>
        </g>
    </g>
</svg>