<?xml version="1.0" encoding="UTF-8"?>
<svg width="44px" height="48px" viewBox="0 0 44 48" version="1.1" xmlns="http://www.w3.org/2000/svg" xmlns:xlink="http://www.w3.org/1999/xlink">
    <!-- Generator: Sketch 44.1 (41455) - http://www.bohemiancoding.com/sketch -->
    <title>boss</title>
    <desc>Created with Sketch.</desc>
    <defs></defs>
    <g id="pages" stroke="none" stroke-width="1" fill="none" fill-rule="evenodd">
        <g id="about-copy" transform="translate(-640.000000, -728.000000)" fill-rule="nonzero" fill="#FFFFFF">
            <g id="Group-3" transform="translate(640.000000, 713.000000)">
                <g id="boss" transform="translate(0.000000, 15.000000)">
                    <path d="M10.9560915,19.4422456 C10.9560915,22.7947602 12.1189356,26.1905965 14.1465031,28.7590175 C16.2748773,31.4551579 19.0511767,32.9400702 21.9638669,32.9400702 C24.8760083,32.9400702 27.6488316,31.4560936 29.7716258,28.7614503 C31.7924241,26.1962105 32.9514262,22.8016842 32.9514262,19.4481404 L32.9514262,16.4474386 C35.1011143,9.46694737 34.3033514,3.57295906 33.6040166,1.94732164 C33.6029189,1.94488889 33.6015468,1.94254971 33.6004491,1.94011696 C33.5937713,1.9251462 33.5864532,1.91064327 33.5788607,1.89614035 C33.5747443,1.8882807 33.5709023,1.88023392 33.5665114,1.87265497 C33.5593763,1.86002339 33.5515094,1.84795322 33.5436424,1.83578947 C33.5378794,1.82680702 33.5322079,1.81773099 33.526079,1.80902924 C33.5194012,1.79957895 33.5120832,1.79069006 33.5050395,1.78161404 C33.4968981,1.77122807 33.4888482,1.76065497 33.4802495,1.75073684 C33.4744865,1.74418713 33.4683576,1.73810526 33.4624116,1.73174269 C33.4518004,1.72032749 33.4411892,1.70900585 33.4299376,1.69843275 C33.424815,1.69366082 33.4194179,1.68926316 33.4141123,1.68467836 C33.40158,1.67354386 33.3890478,1.66250292 33.3758753,1.65221053 C33.3702952,1.64790643 33.3644407,1.64407018 33.3586778,1.63995322 C33.3454137,1.63031579 33.3321497,1.62067836 33.3183368,1.61197661 C33.3112017,1.60748538 33.3037006,1.60355556 33.296474,1.59934503 C33.2836674,1.59185965 33.2708607,1.5842807 33.2576881,1.57763743 C33.2484491,1.57295906 33.2388441,1.56902924 33.229422,1.56472515 C33.2176216,1.55939181 33.2060042,1.55387135 33.1940208,1.54919298 C33.1832266,1.54498246 33.172158,1.54161404 33.1611809,1.53796491 C33.1498378,1.53412865 33.1386778,1.53019883 33.1271518,1.52692398 C33.1161746,1.52383626 33.1050146,1.52159064 33.0938545,1.51906433 C33.0817796,1.51625731 33.0697048,1.51326316 33.057447,1.51111111 C33.0473846,1.50933333 33.0372308,1.50839766 33.0270769,1.50708772 C33.0131726,1.50521637 32.9993597,1.50334503 32.9852723,1.50231579 C32.9766736,1.50175439 32.9680748,1.50175439 32.9593846,1.50138012 C32.9434678,1.50081871 32.9276424,1.50044444 32.9116341,1.50091228 C32.9040416,1.50109942 32.8963576,1.50194152 32.8886736,1.50240936 C32.8719335,1.50353216 32.8551933,1.50484211 32.8383617,1.50708772 C32.8358004,1.50746199 32.8333306,1.50736842 32.8307692,1.50783626 C30.9955759,1.776 28.7737131,1.31957895 26.4214054,0.836491228 C22.4770478,0.0263859649 18.4015135,-0.808608187 15.2148524,1.51578947 C15.1669189,1.50568421 15.1173389,1.50035088 15.0664782,1.50035088 C11.7981289,1.50035088 9.51552599,4.27069006 9.51552599,8.23738012 C9.51552599,11.3037661 10.7768898,17.0252164 10.9560915,17.8225029 L10.9560915,19.4422456 L10.9560915,19.4422456 Z M28.6320166,27.8221287 C26.7926154,30.1570994 24.4244823,31.4429942 21.9639584,31.4429942 C19.5022453,31.4429942 17.1303617,30.1557895 15.285289,27.8185731 C13.464183,25.5117661 12.4197089,22.4586667 12.4197089,19.4423392 L12.4197089,18.5897544 C12.4197089,15.9232749 13.8979626,12.3225263 14.4005322,11.1756725 C19.4569647,10.5679532 23.4850229,11.1751111 25.9972308,11.8028538 C28.2007983,12.3535906 29.6467609,13.0130526 30.1680832,13.2719532 L31.4879002,16.484117 L31.4879002,19.4483275 C31.4879002,22.4660585 30.4469938,25.5183158 28.6320166,27.8221287 Z M15.0664782,2.9974269 C15.1370977,2.9974269 15.2052474,2.98666667 15.269921,2.96748538 C15.484158,3.03026901 15.7234595,2.99340351 15.914553,2.84491228 C18.6015717,0.757239766 22.430395,1.54376608 26.1332557,2.3042807 C28.0759335,2.70334503 29.9338129,3.08491228 31.6498129,3.08491228 C31.9141788,3.08491228 32.1748857,3.07471345 32.4323909,3.05525146 C32.8825447,4.71644444 33.3092807,8.90526316 32.0821289,14.0663392 L31.4134387,12.4387368 C31.3496798,12.2836023 31.2367069,12.1549474 31.092632,12.0735439 C30.8225946,11.9210292 24.3586195,8.35302924 13.8131642,9.74063158 C13.8113347,9.74081871 13.8096881,9.74138012 13.8078586,9.74156725 C13.7941372,9.74353216 13.7805988,9.74643275 13.7670603,9.7491462 C13.7564491,9.75120468 13.7456549,9.75298246 13.7352266,9.75550877 C13.7266279,9.75756725 13.7182121,9.7605614 13.7097048,9.76299415 C13.6168565,9.78947368 13.5323326,9.83354386 13.4592432,9.89155556 C13.4119501,9.92888889 13.3685904,9.97211696 13.3307193,10.021614 C13.3296216,10.0231111 13.328341,10.0244211 13.3271518,10.0258246 C13.3194678,10.0360234 13.3126071,10.0470643 13.305289,10.0578246 C13.2986112,10.0675556 13.2917505,10.077193 13.2855301,10.0872047 C13.2808649,10.0948772 13.2768399,10.1031111 13.2723576,10.1109708 C13.2644906,10.1249123 13.2566237,10.1389474 13.2496715,10.1534503 C13.2490312,10.1548538 13.2482079,10.1560702 13.2475676,10.1574737 C13.1909439,10.2774269 12.3626279,12.0459415 11.7179958,14.2085614 C11.3534636,12.2304561 10.9791435,9.81483041 10.9791435,8.23738012 C10.9791435,4.61763743 13.0320499,2.9974269 15.0664782,2.9974269 Z" id="Shape"></path>
                    <path d="M42.5123243,38.7448889 C41.5256632,37.2666199 40.1496798,36.2403743 38.5331143,35.7772164 C38.5173805,35.7727251 38.5014636,35.7687953 38.4854553,35.7653333 L32.6473597,34.5163041 L31.0758919,32.0789708 C31.067842,32.0664327 31.0593347,32.0539883 31.0504615,32.0419181 C30.8123493,31.7171462 30.449921,31.5028772 30.055842,31.4539415 C29.6620374,31.4050994 29.259817,31.5243977 28.9526403,31.7814269 C28.9478836,31.7853567 28.9432183,31.7893801 28.9386445,31.7934035 L21.9567318,37.9408655 L14.9748191,31.7934035 C14.9701538,31.7893801 14.9654886,31.7853567 14.9608233,31.7814269 C14.653738,31.5243977 14.2515177,31.4050058 13.8577131,31.4539415 C13.4637256,31.5027836 13.1012058,31.7171462 12.8630021,32.0419181 C12.8541289,32.0539883 12.8457131,32.0663392 12.8375717,32.0789708 L11.266104,34.5163041 L5.42800832,35.7653333 C5.412,35.7687953 5.39608316,35.7727251 5.38034927,35.7772164 C3.76378378,36.2404678 2.38780042,37.2666199 1.40113929,38.7448889 C0.498636175,40.0969357 0.00164656965,41.7288421 0.00164656965,43.3397895 L0.00164656965,45.1964444 C0.00164656965,46.6934269 1.31478586,47.9113918 2.92897297,47.9113918 L19.7592017,47.9113918 C19.7601164,47.9113918 19.7610312,47.9114854 19.7619459,47.9114854 C19.7629522,47.9114854 19.7639584,47.9113918 19.7649647,47.9113918 L24.148316,47.9113918 C24.1493222,47.9113918 24.1503285,47.9114854 24.1513347,47.9114854 C24.1522495,47.9114854 24.1531642,47.9113918 24.154079,47.9113918 L40.9843077,47.9113918 C42.5984948,47.9113918 43.9116341,46.6934269 43.9116341,45.1964444 L43.9116341,43.3397895 C43.911817,41.7288421 43.4148274,40.0969357 42.5123243,38.7448889 Z M29.8786528,32.941193 L31.3124491,35.1650058 L26.2596757,42.271345 L24.6700042,40.6454269 C24.6698212,40.6452398 24.6696383,40.6450526 24.6694553,40.6448655 L23.0318503,38.9698246 L29.8786528,32.941193 Z M21.2249231,44.1686082 L22.688632,44.1686082 C22.732632,44.1686082 22.7762661,44.1668304 22.8196258,44.1643041 L23.2596258,46.4144094 L20.6539293,46.4144094 L21.0939293,44.1643041 C21.137289,44.1668304 21.1809231,44.1686082 21.2249231,44.1686082 Z M23.4204407,41.9229006 C23.4204407,42.3356257 23.0921331,42.6714386 22.688632,42.6714386 L21.2249231,42.6714386 C20.8213306,42.6714386 20.4931143,42.3356257 20.4931143,41.9229006 L20.4931143,41.4843509 L21.9568233,39.9871813 L23.4205322,41.4843509 L23.4205322,41.9229006 L23.4204407,41.9229006 Z M14.0349023,32.941193 L20.8817048,38.969731 L19.2440998,40.6447719 C19.2439168,40.6449591 19.2437339,40.6451462 19.2435509,40.6453333 L17.6538794,42.2712515 L12.601106,35.1649123 L14.0349023,32.941193 Z M1.46526403,45.1964444 L1.46526403,43.3397895 C1.46526403,40.918269 2.93775468,38.0450058 5.75238254,37.2252632 L11.3975551,36.0174971 L16.9738462,43.8602105 C17.0997173,44.0372398 17.2950187,44.1490526 17.5084324,44.1661754 C17.5275509,44.1676725 17.5466694,44.1684211 17.5656965,44.1684211 C17.7589854,44.1684211 17.9453222,44.0901053 18.0830852,43.949193 L19.2047651,42.8018713 C19.3245073,43.0887485 19.5013306,43.3447485 19.7201414,43.5558363 L19.1612225,46.4142222 L2.92897297,46.4142222 C2.12197089,46.4143158 1.46526403,45.8679766 1.46526403,45.1964444 Z M42.4481996,45.1964444 C42.4481996,45.8679766 41.7915842,46.4143158 40.9844906,46.4143158 L24.7522412,46.4143158 L24.1933222,43.5559298 C24.4121331,43.3449357 24.5889563,43.0888421 24.7086985,42.8019649 L25.8303784,43.9492865 C25.9681414,44.0901988 26.1544782,44.1685146 26.3477672,44.1685146 C26.3667942,44.1685146 26.3859127,44.1677661 26.4050312,44.166269 C26.6184449,44.1491462 26.8137464,44.0373333 26.9396175,43.8603041 L32.5159085,36.0175906 L38.1610811,37.2253567 C40.9758004,38.0450994 42.4481996,40.9183626 42.4481996,43.339883 L42.4481996,45.1964444 L42.4481996,45.1964444 Z" id="Shape"></path>
                </g>
            </g>
        </g>
    </g>
</svg>