<?xml version="1.0" encoding="UTF-8"?>
<svg width="56px" height="23px" viewBox="0 0 56 23" version="1.1" xmlns="http://www.w3.org/2000/svg" xmlns:xlink="http://www.w3.org/1999/xlink">
    <!-- Generator: Sketch 44.1 (41455) - http://www.bohemiancoding.com/sketch -->
    <title>stripe-3</title>
    <desc>Created with Sketch.</desc>
    <defs></defs>
    <g id="pages" stroke="none" stroke-width="1" fill="none" fill-rule="evenodd">
        <g id="fifth-slide-2" transform="translate(-908.000000, -566.000000)" fill-rule="nonzero" fill="#FFFFFF">
            <g id="Group-3" transform="translate(858.000000, 460.000000)">
                <g id="stripe-3" transform="translate(50.000000, 106.000000)">
                    <path d="M5.84778761,10.3908617 C4.6419292,9.95043617 3.98107965,9.60788298 3.98107965,9.06958511 C3.98107965,8.61276596 4.36106195,8.35181383 5.03838938,8.35181383 C6.27732743,8.35181383 7.54922124,8.82490426 8.42477876,9.24893617 L8.92035398,6.23128723 C8.22654867,5.90500532 6.80585841,5.36670745 4.84015929,5.36670745 C3.45254867,5.36670745 2.29612389,5.72553191 1.47024779,6.39436702 C0.611168142,7.09574468 0.165150442,8.10713298 0.165150442,9.33053723 C0.165150442,11.5489362 1.53628319,12.495117 3.76637168,13.294367 C5.20353982,13.8 5.68263717,14.1589468 5.68263717,14.713516 C5.68263717,15.2518138 5.2200177,15.5617021 4.37753982,15.5617021 C3.33683186,15.5617021 1.61892035,15.0560691 0.495575221,14.4036277 L0,17.4539415 C0.958070796,17.9922394 2.74214159,18.5468085 4.59237168,18.5468085 C6.06249558,18.5468085 7.28495575,18.2042553 8.11095575,17.5518138 C9.0359469,16.8340426 9.51504425,15.7738404 9.51504425,14.4036277 C9.51504425,12.1361702 8.11095575,11.1901117 5.84778761,10.3908617 L5.84778761,10.3908617 Z M17.5826372,8.61276596 L18.0782124,5.6113883 L15.4619469,5.6113883 L15.4619469,1.96784574 L11.944354,2.53942021 L11.4363894,5.6113883 L10.1991858,5.80957979 L9.7360708,8.61276596 L11.4313097,8.61276596 L11.4313097,14.5015 C11.4313097,16.0347926 11.8277699,17.095117 12.6371681,17.7475585 C13.3144956,18.2858564 14.2890442,18.5468085 15.660177,18.5468085 C16.7173628,18.5468085 17.3616106,18.3674574 17.8076283,18.2531915 L17.8076283,15.0723404 C17.5598407,15.1376702 16.9982301,15.2518138 16.6182478,15.2518138 C15.8088496,15.2518138 15.4619469,14.8440532 15.4619469,13.914266 L15.4619469,8.61276596 L17.5826372,8.61276596 Z M25.4394867,5.43607447 C24.2831858,5.43607447 23.3580708,6.03554255 22.9946903,7.1121383 L22.7469027,5.6113883 L19.1622832,5.6113883 L19.1622832,18.3021277 L23.2589558,18.3021277 L23.2589558,10.0645798 C23.7711327,9.44468085 24.4978938,9.22055319 25.4890442,9.22055319 C25.7038761,9.22055319 25.9350619,9.22055319 26.2159292,9.26948936 L26.2159292,5.53394681 C25.9350619,5.46873936 25.6872743,5.43607447 25.4394867,5.43607447 Z M29.2720177,4.35531915 C30.4613982,4.35531915 31.419469,3.39298936 31.419469,2.21852128 C31.419469,1.02765957 30.4613982,0.0816010638 29.2720177,0.0816010638 C28.0660354,0.0816010638 27.1079646,1.02765957 27.1079646,2.21852128 C27.1079646,3.39298936 28.0660354,4.35531915 29.2720177,4.35531915 L29.2720177,4.35531915 Z M27.2070796,5.6113883 L31.320354,5.6113883 L31.320354,18.3021277 L27.2070796,18.3021277 L27.2070796,5.6113883 L27.2070796,5.6113883 Z M42.9766549,6.75319149 C42.2497699,5.82340426 41.2421416,5.36670745 39.953646,5.36670745 C38.7642655,5.36670745 37.7235575,5.85606915 36.748885,6.88372872 L36.534177,5.6113883 L32.9329558,5.6113883 L32.9329558,23 L37.0297522,22.3312872 L37.0297522,18.2531915 C37.6573982,18.4489362 38.301646,18.5468085 38.8798584,18.5468085 C39.9040885,18.5468085 41.3908142,18.2858564 42.547115,17.0461809 C43.6538584,15.8553191 44.2155929,14.0121383 44.2155929,11.5816011 C44.2155929,9.42840957 43.802531,7.79724468 42.9766549,6.75319149 Z M39.5736637,14.5829787 C39.2432389,15.2028777 38.7311858,15.5291596 38.1364956,15.5291596 C37.7235575,15.5291596 37.3600531,15.4475585 37.0297522,15.2844787 L37.0297522,9.24893617 C37.7235575,8.53128723 38.3512035,8.44968617 38.5825133,8.44968617 C39.6232212,8.44968617 40.1352743,9.55894681 40.1352743,11.7284096 C40.1352743,12.9680851 39.953646,13.9305372 39.5736637,14.5829787 L39.5736637,14.5829787 Z M55.9607257,11.8425532 C55.9607257,9.81989894 55.514708,8.2212766 54.6391504,7.09574468 C53.747115,5.95394149 52.4090619,5.36670745 50.7076283,5.36670745 C47.222,5.36670745 45.0580708,7.9113883 45.0580708,11.9893617 C45.0580708,14.2730904 45.6361593,15.9858564 46.7759823,17.0787234 C47.8002124,18.0574468 49.2704602,18.5468085 51.1701239,18.5468085 C52.921115,18.5468085 54.5400354,18.1390479 55.5642655,17.4702128 L55.1182478,14.6972447 C54.1104956,15.2355426 52.9377168,15.5291596 51.6161416,15.5291596 C50.8232212,15.5291596 50.2780885,15.3659574 49.8816283,15.0234043 C49.4520885,14.6645798 49.2043009,14.0773457 49.1217876,13.2454309 L55.9111681,13.2454309 C55.927646,13.0496862 55.9607257,12.1361702 55.9607257,11.8425532 L55.9607257,11.8425532 Z M49.088708,10.7659574 C49.2043009,8.95531915 49.6998761,8.10713298 50.641469,8.10713298 C51.5665841,8.10713298 52.0456814,8.97171277 52.1117168,10.7659574 L49.088708,10.7659574 L49.088708,10.7659574 Z" id="Shape"></path>
                </g>
            </g>
        </g>
    </g>
</svg>