<?xml version="1.0" encoding="UTF-8"?>
<svg width="48px" height="48px" viewBox="0 0 48 48" version="1.1" xmlns="http://www.w3.org/2000/svg" xmlns:xlink="http://www.w3.org/1999/xlink">
    <!-- Generator: Sketch 44.1 (41455) - http://www.bohemiancoding.com/sketch -->
    <title>time-is-money</title>
    <desc>Created with Sketch.</desc>
    <defs></defs>
    <g id="pages" stroke="none" stroke-width="1" fill="none" fill-rule="evenodd">
        <g id="second-slide-copy" transform="translate(-759.000000, -255.000000)" fill-rule="nonzero" fill="#FFFFFF">
            <g id="time-is-money" transform="translate(759.000000, 255.000000)">
                <path d="M27.2,23.9032 C27.2,22.416 26.176,21.1744 24.8,20.8168 L24.8,12.7032 C24.8,12.2608 24.4416,11.9032 24,11.9032 C23.5584,11.9032 23.2,12.2608 23.2,12.7032 L23.2,20.8168 C22.0808,21.108 21.2048,21.984 20.9136,23.1032 L15.2,23.1032 C14.7584,23.1032 14.4,23.4608 14.4,23.9032 C14.4,24.3456 14.7584,24.7032 15.2,24.7032 L20.9136,24.7032 C21.2712,26.08 22.5136,27.1032 24,27.1032 C25.7648,27.1032 27.2,25.668 27.2,23.9032 Z M24,25.5032 C23.1176,25.5032 22.4,24.7856 22.4,23.9032 C22.4,23.0208 23.1176,22.3032 24,22.3032 C24.8824,22.3032 25.6,23.0208 25.6,23.9032 C25.6,24.7856 24.8824,25.5032 24,25.5032 Z" id="Shape"></path>
                <path d="M24,7.9032 C24.4416,7.9032 24.8,7.5456 24.8,7.1032 L24.8,6.3032 C24.8,5.8608 24.4416,5.5032 24,5.5032 C23.5584,5.5032 23.2,5.8608 23.2,6.3032 L23.2,7.1032 C23.2,7.5456 23.5584,7.9032 24,7.9032 Z" id="Shape"></path>
                <path d="M23.2,40.7032 L23.2,41.5032 C23.2,41.9456 23.5584,42.3032 24,42.3032 C24.4416,42.3032 24.8,41.9456 24.8,41.5032 L24.8,40.7032 C24.8,40.2608 24.4416,39.9032 24,39.9032 C23.5584,39.9032 23.2,40.2608 23.2,40.7032 Z" id="Shape"></path>
                <path d="M41.6,24.7032 C42.0416,24.7032 42.4,24.3456 42.4,23.9032 C42.4,23.4608 42.0416,23.1032 41.6,23.1032 L40.8,23.1032 C40.3584,23.1032 40,23.4608 40,23.9032 C40,24.3456 40.3584,24.7032 40.8,24.7032 L41.6,24.7032 Z" id="Shape"></path>
                <path d="M6.4,23.1032 C5.9584,23.1032 5.6,23.4608 5.6,23.9032 C5.6,24.3456 5.9584,24.7032 6.4,24.7032 L7.2,24.7032 C7.6416,24.7032 8,24.3456 8,23.9032 C8,23.4608 7.6416,23.1032 7.2,23.1032 L6.4,23.1032 Z" id="Shape"></path>
                <path d="M35.8792,12.8232 C36.084,12.8232 36.2888,12.7448 36.4448,12.5888 L37.0104,12.0232 C37.3232,11.7104 37.3232,11.2048 37.0104,10.892 C36.6976,10.5792 36.192,10.5792 35.8792,10.892 L35.3136,11.4576 C35.0008,11.7704 35.0008,12.276 35.3136,12.5888 C35.4696,12.7456 35.6744,12.8232 35.8792,12.8232 Z" id="Shape"></path>
                <path d="M11.5552,35.2168 L10.9896,35.7824 C10.6768,36.0952 10.6768,36.6008 10.9896,36.9136 C11.1456,37.0696 11.3504,37.148 11.5552,37.148 C11.76,37.148 11.9648,37.0696 12.1208,36.9136 L12.6864,36.348 C12.9992,36.0352 12.9992,35.5296 12.6864,35.2168 C12.3736,34.904 11.8672,34.904 11.5552,35.2168 Z" id="Shape"></path>
                <path d="M12.6864,11.4576 L12.1208,10.892 C11.808,10.5792 11.3024,10.5792 10.9896,10.892 C10.6768,11.2048 10.6768,11.7104 10.9896,12.0232 L11.5552,12.5888 C11.7112,12.7448 11.916,12.8232 12.1208,12.8232 C12.3256,12.8232 12.5304,12.7448 12.6864,12.5888 C12.9992,12.2768 12.9992,11.7704 12.6864,11.4576 Z" id="Shape"></path>
                <path d="M24,0 C10.7664,0 0,10.7664 0,24 C0,37.2336 10.7664,48 24,48 C26.8608,48 29.6632,47.5 32.3312,46.5128 C32.7456,46.36 32.9568,45.8992 32.804,45.4856 C32.6504,45.0696 32.1912,44.8584 31.776,45.0128 C29.2864,45.9328 26.6704,46.4 24,46.4 C11.6488,46.4 1.6,36.3512 1.6,24 C1.6,11.6488 11.6488,1.6 24,1.6 C36.3512,1.6 46.4,11.6488 46.4,24 C46.4,26.672 45.9328,29.2872 45.012,31.7752 C44.8592,32.1904 45.0704,32.6504 45.4848,32.8032 C45.8992,32.9592 46.3592,32.7456 46.5128,32.3312 C47.5,29.6648 48,26.8624 48,24 C48,10.7664 37.2336,0 24,0 Z" id="Shape"></path>
                <path d="M40,32.8808 L40,32 C40,31.5576 39.6416,31.2 39.2,31.2 C38.7584,31.2 38.4,31.5576 38.4,32 L38.4,32.884 C37.5272,33.0616 36.732,33.5248 36.1456,34.2184 C35.6568,34.796 35.4304,35.5352 35.5104,36.3008 C35.592,37.084 35.9952,37.8104 36.6168,38.2936 L38.4,39.68 L38.4,44.0304 C37.4712,43.6992 36.8,42.8192 36.8,41.7776 C36.8,41.3352 36.4416,40.9776 36,40.9776 C35.5584,40.9776 35.2,41.3352 35.2,41.7776 C35.2,43.7088 36.5768,45.3248 38.4,45.6968 L38.4,46.4 C38.4,46.8424 38.7584,47.2 39.2,47.2 C39.6416,47.2 40,46.8424 40,46.4 L40,45.6944 C40.8728,45.5168 41.668,45.0536 42.2552,44.36 C42.744,43.7808 42.9696,43.0416 42.8896,42.276 C42.8072,41.4936 42.4048,40.768 41.7832,40.2856 L40,38.8976 L40,34.5472 C40.9288,34.8784 41.6,35.7584 41.6,36.8 C41.6,37.2424 41.9584,37.6 42.4,37.6 C42.8416,37.6 43.2,37.2424 43.2,36.8 C43.2,34.8688 41.8232,33.2528 40,32.8808 Z M40.8008,41.548 C41.08,41.7648 41.2616,42.092 41.2984,42.4424 C41.3328,42.7704 41.2384,43.0848 41.0336,43.3264 C40.7552,43.6552 40.3952,43.8856 40,44.0264 L40,40.924 L40.8008,41.548 Z M37.5992,37.0304 C37.3192,36.8128 37.1384,36.4856 37.1016,36.1344 C37.068,35.8072 37.1616,35.4936 37.3664,35.2512 C37.6448,34.9224 38.0048,34.692 38.4,34.5512 L38.4,37.6528 L37.5992,37.0304 Z" id="Shape"></path>
            </g>
        </g>
    </g>
</svg>