<svg xmlns="http://www.w3.org/2000/svg" xmlns:xlink="http://www.w3.org/1999/xlink" width="35" height="46" version="1.1" viewBox="0 0 35 46"><title>worldwide</title><desc>Created with Sketch.</desc><g id="pages" fill="none" fill-rule="evenodd" stroke="none" stroke-width="1"><g id="about-copy" fill="#FFF" fill-rule="nonzero" transform="translate(-1175.000000, -728.000000)"><g id="Group-5" transform="translate(1175.000000, 715.000000)"><g id="worldwide" transform="translate(0.000000, 13.000000)"><path id="Shape" d="M34.9954348,16.1 C34.9954348,10.6037667 32.2433696,5.74616667 28.0593478,2.83973333 L28.0578261,2.82823333 L27.9475,2.7554 C27.9444565,2.75386667 27.9421739,2.75156667 27.9391304,2.75003333 L27.7656522,2.63503333 C27.4217391,2.4081 27.0694565,2.1965 26.7118478,1.99793333 C26.5863043,1.92816667 26.4554348,1.86683333 26.3276087,1.80013333 C26.0430435,1.65216667 25.7554348,1.51033333 25.4632609,1.38 C25.3027174,1.30793333 25.1406522,1.2397 24.9770652,1.173 C24.6765217,1.05033333 24.371413,0.939166667 24.0647826,0.835666667 C23.9293478,0.790433333 23.7969565,0.739833333 23.6607609,0.697666667 C23.228587,0.565033333 22.7903261,0.451566667 22.3475,0.3565 C22.2181522,0.3289 22.0865217,0.308966667 21.956413,0.284433333 C21.6048913,0.2185 21.251087,0.1633 20.8942391,0.121133333 C20.7511957,0.104266667 20.608913,0.0866333333 20.4651087,0.0736 C19.985,0.0299 19.5026087,0 19.0171739,0 C18.5248913,0 18.036413,0.0306666667 17.5509783,0.0751333333 C17.4132609,0.0881666667 17.2778261,0.105033333 17.1408696,0.121133333 C16.7695652,0.164833333 16.4013043,0.222333333 16.036087,0.291333333 C15.9181522,0.313566667 15.7994565,0.332733333 15.6830435,0.358033333 C14.7357609,0.5612 13.8113043,0.851766667 12.9172826,1.22513333 C12.8244565,1.26423333 12.733913,1.30486667 12.6418478,1.3455 C12.273587,1.50726667 11.911413,1.6836 11.5553261,1.87373333 C11.4792391,1.91436667 11.4023913,1.95346667 11.3263043,1.99486667 C10.8903261,2.23713333 10.4611957,2.49243333 10.0457609,2.77686667 L9.71858696,3.0015 L9.71782609,3.03293333 C9.21793478,3.39556667 8.7423913,3.78733333 8.2873913,4.20363333 L6.10445652,2.00406667 L5.56652174,2.5461 C1.98054348,6.1617 0.00456521739,10.9740667 0.00456521739,16.1 C0.00456521739,21.2259333 1.98054348,26.0383 5.56804348,29.6531333 C8.9775,33.0885667 13.4620652,35.0535333 18.2654348,35.2406 L18.2654348,42.1666667 L10.6567391,42.1666667 L10.6567391,46 L27.3958696,46 L27.3958696,42.1666667 L19.7871739,42.1666667 L19.7871739,35.2398333 C24.5836957,35.0489333 29.0621739,33.0847333 32.4678261,29.6531333 L33.0057609,29.1111 L30.8228261,26.9115333 C33.4059783,24.0503333 34.9954348,20.263 34.9954348,16.1 Z M11.2243478,3.8502 C11.8855435,3.42163333 12.5794565,3.03906667 13.3083696,2.72243333 C13.3798913,2.691 13.4529348,2.66186667 13.5244565,2.63196667 C13.8729348,2.48706667 14.2275,2.35596667 14.588913,2.23866667 C14.6551087,2.2172 14.7197826,2.19266667 14.7859783,2.17273333 C15.201413,2.0447 15.6252174,1.93353333 16.0558696,1.84306667 C16.123587,1.8285 16.1920652,1.8193 16.2605435,1.80626667 C16.6196739,1.73573333 16.9833696,1.68053333 17.3508696,1.63836667 C17.4665217,1.62456667 17.5821739,1.61153333 17.698587,1.6008 C18.1330435,1.56093333 18.5720652,1.53333333 19.0171739,1.53333333 C19.4569565,1.53333333 19.8906522,1.56093333 20.3205435,1.60003333 C20.4301087,1.61 20.5396739,1.61996667 20.6492391,1.633 C21.0646739,1.68053333 21.4763043,1.7411 21.8803261,1.82313333 C21.9526087,1.8377 22.0233696,1.8584 22.0956522,1.87373333 C22.4342391,1.9481 22.7675,2.03626667 23.0969565,2.13363333 C23.2255435,2.17196667 23.3541304,2.2103 23.4811957,2.25246667 C23.8525,2.37436667 24.22,2.507 24.5776087,2.65803333 C24.6719565,2.6979 24.7632609,2.74466667 24.8568478,2.78606667 C25.1391304,2.91256667 25.4176087,3.0475 25.69,3.19086667 C25.8201087,3.2591 25.9494565,3.32886667 26.0772826,3.4017 C26.1396739,3.43696667 26.1982609,3.4776 26.2606522,3.51363333 C23.8928261,4.3769 22.533913,5.39273333 20.9923913,7.4106 C20.9003261,7.53173333 20.8257609,7.66436667 20.7709783,7.8039 C20.6895652,7.71803333 20.5982609,7.64136667 20.498587,7.57543333 C19.9583696,7.21816667 19.2446739,7.22966667 18.3742391,7.61146667 L18.2608696,7.6245 C17.2009783,7.74333333 16.4363043,7.82996667 16.3746739,9.18236667 C16.3442391,9.8509 16.6988043,10.5094667 17.2778261,10.8598333 C17.388913,10.9273 17.5038043,10.9802 17.6209783,11.0193 C17.6354348,11.0476667 17.651413,11.0760333 17.6696739,11.1044 L17.8477174,11.3604667 C17.4688043,11.2569667 17.1013043,11.2033 16.7406522,11.1504 C16.2826087,11.0837 15.8511957,11.0200667 15.4228261,10.8544667 C13.7869565,10.2227333 12.5794565,7.44816667 11.6976087,5.42263333 C11.5279348,5.03316667 11.3666304,4.66363333 11.206087,4.27876667 C11.2136957,4.13156667 11.2197826,3.98973333 11.2243478,3.8502 Z M21.9655435,20.6356 C20.5373913,19.4442 19.9986957,17.7245667 20.5921739,16.2548667 C20.8972826,15.5012333 20.5891304,14.6625 19.8586957,14.2239667 C19.8305435,14.1212333 19.8046739,13.9249667 19.7856522,13.7885 C19.733913,13.3944333 19.6707609,12.9198667 19.4402174,12.4652333 C19.565,12.558 19.7065217,12.6300667 19.8594565,12.6776 C19.9971739,12.7205333 20.0336957,12.7558 20.055,12.8179 C20.2444565,13.4757 20.6819565,13.9640667 21.2548913,14.1565 C21.805,14.3397333 22.4121739,14.2247333 22.9211957,13.8375667 C23.0718478,13.7241 23.0977174,13.7026333 23.6797826,13.9855333 C24.0777174,14.1795 24.5730435,14.421 25.2616304,14.4976667 C25.666413,14.9262333 25.9852174,15.4721 26.2926087,16.0011 C26.7711957,16.8206667 27.265,17.6693667 28.1103261,18.1117333 C28.391087,18.2581667 28.2176087,19.1682 27.5936957,20.8142333 C27.5366304,20.9660333 27.4826087,21.1094 27.4354348,21.2397333 C26.6448913,21.8676333 26.1602174,22.5668333 25.69,23.2445667 C25.2593478,23.8671 24.8515217,24.4543667 24.1994565,25.0194 C23.1920652,25.8934 22.3786957,26.3932667 21.3416304,26.6984 C22.4144565,24.7671667 23.6447826,22.0363 21.9655435,20.6356 Z M18.6397826,9.26056667 L18.1208696,9.56953333 L18.1201087,9.56953333 C18.1056522,9.56953333 18.0561957,9.55343333 18.001413,9.49823333 C17.931413,9.42846667 17.8903261,9.33416667 17.8941304,9.2529 C17.8948913,9.2391 17.8956522,9.22683333 17.896413,9.21456667 C18.036413,9.19233333 18.2342391,9.16933333 18.4290217,9.14786667 L18.7873913,9.10646667 L18.8992391,9.05433333 C19.4698913,8.78676667 19.6623913,8.85653333 19.6623913,8.85653333 C19.663913,8.8573 19.8229348,9.0183 19.8031522,9.73973333 L19.7963043,9.98276667 C19.6540217,9.92756667 19.4683696,9.88233333 19.2248913,9.86623333 C19.1921739,9.80566667 19.1488043,9.7451 19.0925,9.68606667 L18.6397826,9.26056667 Z M18.9829348,11.8825667 C18.8695652,11.7890333 18.7501087,11.7131333 18.6496739,11.6633 C18.508913,11.5943 18.3704348,11.5352667 18.2334783,11.4854333 L18.4541304,11.4478667 C18.6063043,11.4225667 18.7463043,11.4072333 18.865,11.4003333 C18.8779348,11.5659333 18.9167391,11.7292333 18.9829348,11.8825667 Z M9.80380435,4.8852 C9.81521739,4.91433333 9.81902174,4.9473 9.83271739,4.97566667 C9.9826087,5.3015 10.138587,5.66106667 10.3036957,6.0398 C11.3483696,8.44023333 12.6479348,11.4264 14.8772826,12.2873667 C15.463913,12.5143 16.0261957,12.5963333 16.5215217,12.6691667 C17.0594565,12.7481333 17.5243478,12.8156 17.9747826,13.0379333 C17.9953261,13.0494333 18.0333696,13.0755 18.0326087,13.0724333 C18.1863043,13.2993667 18.2334783,13.6512667 18.2776087,13.9909 C18.3491304,14.5283333 18.4373913,15.1976333 19.0567391,15.5280667 C19.1358696,15.5702333 19.1975,15.6407667 19.1830435,15.6760333 C18.3323913,17.779 19.0438043,20.1901667 20.9946739,21.8170333 C21.3294565,22.0961 21.6475,23.0053667 20.013913,25.9516667 C19.6966304,26.5251333 19.7643478,27.2197333 20.1858696,27.7226667 C20.4909783,28.0876 20.9261957,28.2846333 21.3766304,28.2846333 C21.5523913,28.2846333 21.7311957,28.2547333 21.9054348,28.1926333 C23.0634783,27.7763333 24.0472826,27.1752667 25.1923913,26.1824333 C25.9897826,25.4916667 26.4934783,24.7641 26.9378261,24.1231667 C27.4080435,23.4446667 27.8143478,22.8589333 28.5158696,22.3376 L28.7327174,22.1497667 L28.8065217,21.9312667 C28.8620652,21.7672 28.9358696,21.5732333 29.0157609,21.3616333 C29.5476087,19.9555667 30.4378261,17.6034333 28.811087,16.7509 C28.3545652,16.5124667 28.0068478,15.9152333 27.6043478,15.2252333 C27.2695652,14.6494667 26.8891304,13.9970333 26.3626087,13.4404333 C26.1282609,13.1935667 25.8041304,13.0371667 25.4221739,12.9858 C25.0120652,12.9329 24.6719565,12.7665333 24.3417391,12.6063 C23.7452174,12.3149667 22.9280435,11.9178333 22.0058696,12.6132 C21.945,12.6607333 21.8301087,12.7297333 21.735,12.7021333 C21.665,12.6783667 21.571413,12.5848333 21.5151087,12.3901 C21.35,11.8174 20.993913,11.4501667 20.398913,11.2431667 C20.481087,10.9878667 20.4673913,10.7310333 20.363913,10.5071667 L20.451413,10.5209667 C21.1346739,10.6221667 21.6459783,10.4795667 21.9777174,10.0954667 C22.3193478,9.70063333 22.3870652,9.13636667 22.1793478,8.418 C22.1755435,8.40573333 22.1793478,8.37046667 22.1991304,8.3444 C23.636413,6.46146667 24.7784783,5.6442 27.0877174,4.84533333 C27.3167391,4.76636667 27.5138043,4.63143333 27.6751087,4.46353333 C31.1872826,7.1231 33.4729348,11.3428333 33.4729348,16.1 C33.4729348,24.1323667 26.9880435,30.6666667 19.016413,30.6666667 C11.0447826,30.6666667 4.5598913,24.1323667 4.5598913,16.1 C4.56065217,11.5935333 6.60358696,7.55856667 9.80380435,4.8852 Z M25.8741304,43.7 L25.8741304,44.4666667 L12.1784783,44.4666667 L12.1784783,43.7 L25.8741304,43.7 Z M30.8418478,29.0988333 C23.9841304,35.4399333 13.2863043,35.2613 6.64315217,28.5690667 C3.34402174,25.2440333 1.52630435,20.8157667 1.52630435,16.1 C1.52630435,11.6418333 3.15076087,7.43973333 6.11663043,4.18523333 L7.21228261,5.28846667 C4.62913043,8.14966667 3.03891304,11.937 3.03891304,16.1 C3.03891304,24.9772333 10.2070652,32.2 19.0171739,32.2 C23.1486957,32.2 26.9073913,30.5976667 29.7461957,27.9956 L30.8418478,29.0988333 Z"/></g></g></g></g></svg>