<?xml version="1.0" encoding="UTF-8"?>
<svg width="162px" height="98px" viewBox="0 0 162 98" version="1.1" xmlns="http://www.w3.org/2000/svg" xmlns:xlink="http://www.w3.org/1999/xlink">
    <!-- Generator: Sketch 44.1 (41455) - http://www.bohemiancoding.com/sketch -->
    <title>машинный телеграф</title>
    <desc>Created with Sketch.</desc>
    <defs>
        <linearGradient x1="50%" y1="0%" x2="50%" y2="100%" id="linearGradient-1">
            <stop stop-color="#E17679" offset="0%"></stop>
            <stop stop-color="#EC936A" offset="100%"></stop>
        </linearGradient>
    </defs>
    <g id="pages" stroke="none" stroke-width="1" fill="none" fill-rule="evenodd">
        <g id="second-slide-copy" transform="translate(-1026.000000, -542.000000)">
            <g id="машинный-телеграф" transform="translate(1006.000000, 534.000000)">
                <path d="M181,83.7746479 L33,83.7746479 C33,42.9422535 66.1131313,9.87323944 107,9.87323944 C147.886869,9.87323944 181,42.9422535 181,83.7746479 Z" id="Shape" stroke="#F7AB60" stroke-width="2" fill="#FFFFFF" fill-rule="nonzero"></path>
                <path d="M107.747475,83.7746479 L143.5,20.5" id="Shape" stroke="#E4E4E4"></path>
                <path d="M107,83.7746479 L70.5,20.5" id="Shape" stroke="#E4E4E4"></path>
                <path d="M104.077353,43.8085043 C93.9116967,36.9408987 82.4005856,32.9845607 70.7399796,32.0141381 C70.7399796,31.0437156 70.5157371,30.0732931 69.9925048,29.2521663 C69.3197775,28.0578001 68.1985654,27.3113212 67.0026058,26.9380818 L67.0026058,15.8901945 C68.3480604,15.2930114 69.2450301,13.9493494 69.2450301,12.3817438 C69.1702826,10.2916029 67.5258381,8.64934939 65.4329088,8.72399728 C63.3399796,8.79864516 61.6955351,10.4408987 61.7702826,12.5310395 C61.7702826,14.0239973 62.7419998,15.2930114 64.0127068,15.8901945 L64.0127068,26.9380818 C63.6389695,27.0873776 63.1904846,27.2366733 62.8167472,27.460617 C61.1723028,28.4310395 60.2753331,30.1479409 60.2753331,31.9394902 C48.0914947,32.760617 36.0571513,36.716955 25.5177573,43.9578001 L25.5177573,43.9578001 L66.1056361,111.962025 L104.301596,43.9578001 L104.077353,43.8085043 Z M65.9561412,100.018363 L33.6652321,45.8986452 C41.9622018,41.1958283 51.2308886,38.5085043 60.7985654,37.8366733 C61.4712927,37.7620254 65.3581614,42.8380818 65.3581614,42.8380818 C65.3581614,42.8380818 69.3197775,37.8366733 70.1419998,37.9113212 C79.3359391,38.6578001 88.2308886,41.4197719 96.3036159,45.9732931 L65.9561412,100.018363 Z" id="Shape" fill="url(#linearGradient-1)" fill-rule="nonzero" transform="translate(64.909677, 60.341788) rotate(-60.000000) translate(-64.909677, -60.341788) "></path>
                <ellipse id="Oval-path" fill="url(#linearGradient-1)" cx="107.373737" cy="84.1478873" rx="4.85858586" ry="4.85211268"></ellipse>
                <g id="Group" transform="translate(53.929293, 47.943662)" fill-rule="nonzero" fill="#F7AB60">
                    <path d="M1.12121212,5.15070423 C1.34545455,5.67323944 1.71919192,6.34507042 2.31717172,6.79295775 C3.21414141,7.46478873 4.11111111,7.46478873 4.63434343,6.79295775 C5.15757576,6.19577465 5.08282828,5.52394366 4.41010101,4.47887324 C3.66262626,3.20985915 3.43838384,2.09014085 4.18585859,1.1943662 C5.00808081,0.149295775 6.5030303,0.0746478873 7.77373737,1.11971831 C8.44646465,1.64225352 8.82020202,2.23943662 8.96969697,2.61267606 L8.22222222,3.06056338 C8.07272727,2.76197183 7.84848485,2.23943662 7.17575758,1.71690141 C6.27878788,0.970422535 5.45656566,1.26901408 5.08282828,1.71690141 C4.55959596,2.31408451 4.70909091,2.98591549 5.38181818,4.03098592 C6.12929293,5.37464789 6.27878788,6.34507042 5.53131313,7.39014085 C4.70909091,8.43521127 3.21414141,8.73380282 1.64444444,7.46478873 C0.971717172,6.94225352 0.448484848,6.19577465 0.298989899,5.67323944 L1.12121212,5.15070423 Z" id="Shape"></path>
                    <polygon id="Shape" points="10.6141414 3.5084507 11.5111111 4.18028169 6.72727273 10.1521127 9.56767677 12.4661972 8.96969697 13.2126761 5.23232323 10.2267606"></polygon>
                    <path d="M18.0141414,14.7802817 C16.1454545,17.0943662 13.8282828,17.1690141 12.1090909,15.8253521 C10.3151515,14.4070423 10.240404,12.0183099 11.810101,10.0028169 C13.5292929,7.91267606 15.9212121,7.53943662 17.7151515,8.95774648 C19.5090909,10.4507042 19.5838384,12.8394366 18.0141414,14.7802817 Z M12.7070707,10.7492958 C11.5858586,12.1676056 11.2868687,14.0338028 12.6323232,15.1535211 C13.9777778,16.2732394 15.7717172,15.6014085 16.9676768,14.1084507 C18.0141414,12.7647887 18.4626263,10.8239437 17.0424242,9.70422535 C15.6969697,8.50985915 13.9030303,9.25633803 12.7070707,10.7492958 Z" id="Shape"></path>
                    <path d="M17.4909091,19.9309859 L21.1535354,11.8690141 L22.0505051,12.615493 L20.1070707,16.6464789 C19.6585859,17.6169014 19.1353535,18.5873239 18.7616162,19.3338028 L18.7616162,19.3338028 C19.4343434,18.7366197 20.2565657,18.1394366 21.1535354,17.4676056 L24.7414141,14.8549296 L25.6383838,15.6014085 L23.6949495,19.6323944 C23.2464646,20.6028169 22.7979798,21.4985915 22.3494949,22.3197183 L22.3494949,22.3197183 C23.0969697,21.7225352 23.8444444,21.1253521 24.7414141,20.4535211 L28.3292929,17.7661972 L29.2262626,18.4380282 L21.9757576,23.5887324 L21.0787879,22.8422535 L23.0222222,18.6619718 C23.4707071,17.6169014 23.9191919,16.8704225 24.3676768,16.1239437 L24.3676768,16.1239437 C23.6949495,16.7211268 23.0222222,17.243662 22.1252525,17.915493 L18.3878788,20.6028169 L17.4909091,19.9309859 Z" id="Shape"></path>
                </g>
                <g id="Group" transform="translate(101.767677, 20.323944)" fill-rule="nonzero" fill="#E88870">
                    <path d="M4.33535354,7.39014085 C5.53131313,7.31549296 6.95151515,7.24084507 7.9979798,7.24084507 L7.9979798,7.16619718 C7.02626263,6.86760563 5.90505051,6.4943662 4.70909091,6.12112676 L0.523232323,4.62816901 L0.523232323,3.80704225 L4.63434343,2.38873239 C5.83030303,2.01549296 6.95151515,1.64225352 7.9979798,1.41830986 L7.9979798,1.41830986 C6.95151515,1.41830986 5.53131313,1.34366197 4.18585859,1.26901408 L0.523232323,1.04507042 L0.523232323,0 L9.11919192,0.597183099 L9.11919192,2.01549296 L5.00808081,3.5084507 C3.96161616,3.88169014 2.98989899,4.18028169 2.09292929,4.40422535 L2.09292929,4.47887324 C2.98989899,4.7028169 3.88686869,5.00140845 5.00808081,5.37464789 L9.11919192,6.86760563 L9.11919192,8.28591549 L0.523232323,8.8084507 L0.523232323,7.76338028 L4.33535354,7.39014085 Z" id="Shape"></path>
                    <polygon id="Shape" points="9.19393939 11.4957746 0.597979798 11.4957746 0.597979798 10.3760563 9.19393939 10.3760563"></polygon>
                    <path d="M9.04444444,13.3619718 C9.11919192,14.0338028 9.19393939,14.8549296 9.19393939,15.6760563 C9.19393939,17.243662 8.82020202,18.3633803 8.14747475,19.1098592 C7.47474747,19.856338 6.42828283,20.3042254 5.08282828,20.3042254 C3.66262626,20.3042254 2.54141414,19.856338 1.71919192,19.1098592 C0.896969697,18.2887324 0.523232323,17.0197183 0.523232323,15.3028169 C0.523232323,14.4816901 0.597979798,13.884507 0.597979798,13.2873239 L9.04444444,13.2873239 L9.04444444,13.3619718 Z M1.49494949,14.4816901 C1.42020202,14.7802817 1.42020202,15.1535211 1.42020202,15.6014085 C1.42020202,17.9901408 2.76565657,19.2591549 5.08282828,19.2591549 C7.1010101,19.2591549 8.37171717,18.1394366 8.37171717,15.8253521 C8.37171717,15.228169 8.2969697,14.8549296 8.22222222,14.556338 L1.49494949,14.556338 L1.49494949,14.4816901 Z" id="Shape"></path>
                    <path d="M9.04444444,21.871831 C9.11919192,22.543662 9.19393939,23.3647887 9.19393939,24.1859155 C9.19393939,25.7535211 8.82020202,26.8732394 8.14747475,27.6197183 C7.47474747,28.3661972 6.42828283,28.8140845 5.08282828,28.8140845 C3.66262626,28.8140845 2.54141414,28.3661972 1.71919192,27.6197183 C0.896969697,26.7985915 0.523232323,25.5295775 0.523232323,23.8126761 C0.523232323,22.9915493 0.597979798,22.3943662 0.597979798,21.7971831 L9.04444444,21.7971831 L9.04444444,21.871831 Z M1.49494949,22.9169014 C1.42020202,23.215493 1.42020202,23.5887324 1.42020202,24.0366197 C1.42020202,26.4253521 2.76565657,27.6943662 5.08282828,27.6943662 C7.1010101,27.6943662 8.37171717,26.5746479 8.37171717,24.2605634 C8.37171717,23.6633803 8.2969697,23.2901408 8.22222222,22.9915493 L1.49494949,22.9915493 L1.49494949,22.9169014 Z" id="Shape"></path>
                    <polygon id="Shape" points="9.19393939 30.3070423 9.19393939 31.4267606 1.56969697 31.4267606 1.56969697 35.084507 0.672727273 35.084507 0.672727273 30.3070423"></polygon>
                    <polygon id="Shape" points="4.63434343 40.6830986 4.63434343 37.3239437 1.56969697 37.3239437 1.56969697 41.056338 0.672727273 41.056338 0.672727273 36.2788732 9.26868687 36.2788732 9.26868687 40.9070423 8.22222222 40.9070423 8.22222222 37.3985915 5.53131313 37.3985915 5.53131313 40.7577465 4.63434343 40.7577465"></polygon>
                </g>
                <g id="Group" transform="translate(132.414141, 55.408451)" fill-rule="nonzero" fill="#E4636D">
                    <polygon id="Shape" points="0.224242424 10.3760563 4.41010101 8.43521127 4.78383838 9.25633803 1.56969697 10.7492958 2.76565657 13.3619718 5.68080808 12.0183099 6.05454545 12.8394366 3.13939394 14.1830986 4.78383838 17.6915493 3.81212121 18.1394366"></polygon>
                    <path d="M8.67070707,12.9887324 L8.96969697,15.8253521 L7.92323232,16.2732394 L6.95151515,7.31549296 L8.14747475,6.79295775 L14.4262626,13.3619718 L13.379798,13.884507 L11.4363636,11.7943662 L8.67070707,12.9887324 Z M10.8383838,11.0478873 L9.04444444,9.18169014 C8.67070707,8.73380282 8.2969697,8.36056338 7.9979798,7.98732394 L7.9979798,7.98732394 C8.07272727,8.50985915 8.22222222,9.03239437 8.22222222,9.55492958 L8.52121212,12.1676056 L10.8383838,11.0478873 Z" id="Shape"></path>
                    <path d="M14.9494949,11.5704225 C15.5474747,11.6450704 16.2949495,11.5704225 16.9676768,11.271831 C18.0141414,10.8239437 18.3131313,10.0028169 18.0141414,9.18169014 C17.7151515,8.43521127 17.0424242,8.21126761 15.8464646,8.28591549 C14.3515152,8.43521127 13.3050505,8.13661972 12.7818182,7.01690141 C12.2585859,5.82253521 12.7818182,4.47887324 14.3515152,3.73239437 C15.1737374,3.35915493 15.8464646,3.28450704 16.220202,3.28450704 L16.2949495,4.25492958 C15.9959596,4.25492958 15.3232323,4.25492958 14.6505051,4.55352113 C13.6040404,5.07605634 13.4545455,5.8971831 13.7535354,6.41971831 C14.0525253,7.16619718 14.7252525,7.31549296 15.9959596,7.24084507 C17.5656566,7.16619718 18.5373737,7.46478873 19.0606061,8.58450704 C19.5838384,9.77887324 19.210101,11.1971831 17.3414141,12.0929577 C16.5939394,12.4661972 15.6969697,12.615493 15.0989899,12.5408451 L14.9494949,11.5704225 Z" id="Shape"></path>
                    <polygon id="Shape" points="19.5838384 2.53802817 17.1919192 3.65774648 16.8181818 2.83661972 22.5737374 0.149295775 22.9474747 0.970422535 20.5555556 2.09014085 23.769697 9.03239437 22.7232323 9.48028169"></polygon>
                </g>
                <text id="Development-Speed" font-family="Roboto-Light, Roboto" font-size="12" font-weight="300" fill="#FFFFFF">
                    <tspan x="53.0205078" y="105">Development Speed </tspan>
                </text>
            </g>
        </g>
    </g>
</svg>