<svg xmlns="http://www.w3.org/2000/svg" xmlns:xlink="http://www.w3.org/1999/xlink" width="32" height="32" version="1.1" viewBox="0 0 32 32"><title>github-logo</title><desc>Created with Sketch.</desc><g id="pages" fill="none" fill-rule="evenodd" stroke="none" stroke-width="1"><g id="контакты-copy" fill="#FFF" fill-rule="nonzero" transform="translate(-616.000000, -812.000000)"><g id="Group-3" transform="translate(365.000000, 812.000000)"><g id="Group-2-Copy" transform="translate(251.000000, 0.000000)"><g id="github-logo"><path id="Shape" d="M29.8228337,7.91786247 C28.393549,5.49017949 26.4548155,3.56817949 24.006123,2.1514289 C21.5570661,0.734606061 18.883426,0.0263752914 15.9833075,0.0263752914 C13.0835535,0.0263752914 10.4090387,0.734822844 7.96049203,2.1514289 C5.51158087,3.56810723 3.57292027,5.49017949 2.14363554,7.91786247 C0.714569476,10.3454732 0,12.9964429 0,15.8706993 C0,19.3233333 1.01612756,22.4280303 3.04889294,25.1855851 C5.08143964,27.9433566 7.70718907,29.851627 10.9259226,30.9106131 C11.3005923,30.9795501 11.5779499,30.9310629 11.758287,30.76638 C11.938697,30.6014802 12.0287927,30.394958 12.0287927,30.1476807 C12.0287927,30.1064196 12.025221,29.7352145 12.0182961,29.0336317 C12.0111526,28.332049 12.0077995,27.7199977 12.0077995,27.1977669 L11.5291116,27.2798555 C11.2239089,27.3352797 10.8388884,27.3587646 10.3740501,27.3521166 C9.90943052,27.3456853 9.42709795,27.2974149 8.92770843,27.2076667 C8.42810023,27.1187133 7.96340774,26.9124079 7.53326651,26.5891841 C7.10334396,26.2659604 6.79814123,25.8428718 6.61773121,25.3205688 L6.40962187,24.8458135 C6.27090661,24.5297436 6.05251936,24.178627 5.75416856,23.7937646 C5.45581777,23.4085408 5.1541139,23.1473893 4.84891116,23.0098765 L4.70319818,22.9064709 C4.60610478,22.8377506 4.51600911,22.7548671 4.43269248,22.6586876 C4.34944875,22.5625082 4.28712528,22.4662564 4.24550342,22.3698601 C4.20380866,22.2733916 4.23835991,22.1942657 4.34952164,22.1321935 C4.46068337,22.0701212 4.66157631,22.0399883 4.95307517,22.0399883 L5.36914806,22.101627 C5.64665148,22.1567622 5.98990433,22.3214452 6.39934396,22.5966876 C6.80856492,22.8717133 7.14496583,23.2292611 7.40861959,23.6691865 C7.72789066,24.2332564 8.1125467,24.6630653 8.56368109,24.9588298 C9.01445103,25.2545944 9.4689385,25.4022238 9.92670615,25.4022238 C10.3844738,25.4022238 10.7798451,25.3678275 11.1129658,25.2993963 C11.4457221,25.2306037 11.7579226,25.1271981 12.0494214,24.9897576 C12.174287,24.0678508 12.5142597,23.35962 13.0690478,22.8645594 C12.2783052,22.7821818 11.5673804,22.6581096 10.9359089,22.4931375 C10.3048018,22.3279487 9.6526287,22.0598601 8.97982688,21.6881492 C8.30666059,21.3169441 7.74822779,20.8559907 7.30438269,20.3060839 C6.86046469,19.7558881 6.49614579,19.0335664 6.21193622,18.1397692 C5.92758087,17.2456107 5.78536674,16.2141562 5.78536674,15.0451166 C5.78536674,13.3805828 6.33352164,11.9641212 7.42961276,10.7949371 C6.9161549,9.54351981 6.9646287,8.14064336 7.57517995,6.58645221 C7.97754897,6.46252448 8.57425057,6.55552448 9.36499317,6.86487413 C10.1558815,7.1743683 10.7349431,7.43949417 11.1027608,7.65931235 C11.4705786,7.87905828 11.7652847,8.06527506 11.9873166,8.2163007 C13.2778861,7.85882517 14.609713,7.68005128 15.9831617,7.68005128 C17.3566105,7.68005128 18.6887289,7.85882517 19.9793713,8.2163007 L20.7701868,7.72138462 C21.3109795,7.39115152 21.9495945,7.08852214 22.6845011,6.81342424 C23.4198451,6.53847086 23.9821412,6.46274126 24.3708064,6.586669 C24.9949157,8.1409324 25.050533,9.5437366 24.5369294,10.7951538 C25.6329476,11.964338 26.1813212,13.3811608 26.1813212,15.0453333 C26.1813212,16.214373 26.0385968,17.2490793 25.7546788,18.1501026 C25.4703964,19.0512704 25.1029431,19.7728695 24.6521731,20.3164172 C24.2008929,20.8598928 23.6388884,21.3172331 22.9660866,21.688366 C22.293139,22.0597879 21.6407472,22.3278765 21.0096401,22.4930653 C20.3782415,22.6582541 19.6673166,22.7823986 18.876574,22.8649207 C19.5977768,23.48362 19.958451,24.4602284 19.958451,25.7943124 L19.958451,30.1471026 C19.958451,30.39438 20.0451936,30.6008298 20.2188246,30.7658019 C20.3922369,30.9304848 20.6660957,30.978972 21.0407654,30.9099627 C24.2599362,29.8511212 26.8856856,27.9427786 28.9181595,25.185007 C30.9504146,22.4274522 31.9669066,19.3227552 31.9669066,15.8701212 C31.9661777,12.9962261 31.2512437,10.3454732 29.8228337,7.91786247 Z"/></g></g></g></g></g></svg>