<?xml version="1.0" encoding="UTF-8"?>
<svg width="32px" height="32px" viewBox="0 0 32 32" version="1.1" xmlns="http://www.w3.org/2000/svg" xmlns:xlink="http://www.w3.org/1999/xlink">
    <!-- Generator: Sketch 44.1 (41455) - http://www.bohemiancoding.com/sketch -->
    <title>linkedin</title>
    <desc>Created with Sketch.</desc>
    <defs></defs>
    <g id="pages" stroke="none" stroke-width="1" fill="none" fill-rule="evenodd">
        <g id="контакты-copy" transform="translate(-365.000000, -812.000000)" fill-rule="nonzero" fill="#FFFFFF">
            <g id="Group-3" transform="translate(365.000000, 812.000000)">
                <g id="Group-2">
                    <g id="linkedin">
                        <path d="M15.5,31 C24.0604136,31 31,24.0604136 31,15.5 C31,6.93958638 24.0604136,0 15.5,0 C6.93958638,0 0,6.93958638 0,15.5 C0,24.0604136 6.93958638,31 15.5,31 Z M11.0855004,23.9890027 C11.0855004,24.3274428 10.8111652,24.601778 10.472725,24.601778 L7.86428608,24.601778 C7.52584591,24.601778 7.25151072,24.3274428 7.25151072,23.9890027 L7.25151072,13.0545333 C7.25151072,12.7160931 7.52584591,12.4417579 7.86428608,12.4417579 L10.472725,12.4417579 C10.8111652,12.4417579 11.0855004,12.7160931 11.0855004,13.0545333 L11.0855004,23.9890027 Z M9.16850556,11.4110205 C7.79993736,11.4110205 6.69047027,10.3015535 6.69047027,8.93298525 C6.69047027,7.56441705 7.79993736,6.45494996 9.16850556,6.45494996 C10.5370738,6.45494996 11.6465409,7.56441705 11.6465409,8.93298525 C11.6465409,10.3015535 10.5371347,11.4110205 9.16850556,11.4110205 Z M24.717132,24.0383611 C24.717132,24.3495018 24.4648557,24.601778 24.153715,24.601778 L21.3546673,24.601778 C21.0435266,24.601778 20.7912504,24.3495018 20.7912504,24.0383611 L20.7912504,18.9094752 C20.7912504,18.1443591 21.0156787,15.5566994 18.7917478,15.5566994 C17.0667023,15.5566994 16.7168061,17.3278737 16.6465465,18.1227267 L16.6465465,24.0383611 C16.6465465,24.3495018 16.3943312,24.601778 16.0831295,24.601778 L13.3759738,24.601778 C13.0648331,24.601778 12.8125568,24.3495018 12.8125568,24.0383611 L12.8125568,13.0051749 C12.8125568,12.6940342 13.0648331,12.4417579 13.3759738,12.4417579 L16.0831295,12.4417579 C16.3942703,12.4417579 16.6465465,12.6940342 16.6465465,13.0051749 L16.6465465,13.9591326 C17.2861948,12.9992032 18.236801,12.2582788 20.2607999,12.2582788 C24.7427862,12.2582788 24.717132,16.4455771 24.717132,18.7462878 L24.717132,24.0383611 L24.717132,24.0383611 Z" id="Shape"></path>
                    </g>
                </g>
            </g>
        </g>
    </g>
</svg>