<?xml version="1.0" encoding="UTF-8"?>
<svg width="1440px" height="887px" viewBox="0 0 1440 887" version="1.1" xmlns="http://www.w3.org/2000/svg" xmlns:xlink="http://www.w3.org/1999/xlink">
    <!-- Generator: Sketch 44.1 (41455) - http://www.bohemiancoding.com/sketch -->
    <title>Rectangle 3 Copy 2</title>
    <desc>Created with Sketch.</desc>
    <defs></defs>
    <g id="pages" stroke="none" stroke-width="1" fill="none" fill-rule="evenodd" opacity="0.0460258152">
        <g id="fourth-slide" fill="#FFFFFF">
            <path d="M-122.283709,491.037046 L23.0303619,498.794376 C23.0303619,498.794376 71.1206291,466.696283 147,471.409279 C222.879371,476.122274 235.168983,524.745086 309.281999,512.385164 C383.395015,500.025243 360.675711,463.012515 415.372376,436.61248 C470.069042,410.212445 518.991134,436.61248 567,406.524686 C615.008866,376.436892 588.988051,294.628144 652.575334,269.933544 C716.162617,245.238944 751.949908,287.751784 822.19004,269.933544 C892.430172,252.115305 866.51008,200.239646 936.983808,172.214032 C1007.45753,144.188418 1053.42296,178.536732 1092,156.745651 C1130.57704,134.954571 1110.31177,125.292218 1148.7112,86.5409159 C1187.11064,47.7896134 1227.85723,73.4878534 1302,39.3538351 C1376.14277,5.21981668 1378.6574,-26.3152416 1420.4407,-38.5585359 C1462.22401,-50.8018302 1516.95123,-38.5585359 1516.95123,-38.5585359 L1506.04998,1041.58875 L-173,1041.58875 L-122.283709,491.037046 Z" id="Rectangle-3-Copy-2">
            </path>
        </g>
    </g>
</svg>