<svg xmlns="http://www.w3.org/2000/svg" xmlns:xlink="http://www.w3.org/1999/xlink" width="1440" height="569" version="1.1" viewBox="0 0 1440 569"><title>Rectangle 3 Copy 3</title><desc>Created with Sketch.</desc><g id="pages" fill="none" fill-rule="evenodd" stroke="none" stroke-width="1" opacity=".046"><g id="fourth-slide" fill="#FFF" transform="translate(0.000000, -318.000000)"><path id="Rectangle-3-Copy-3" d="M-32.6253061,862.608604 C-32.6253061,862.608604 10.9706341,838.999673 74.2936366,862.608604 C137.616639,886.217536 173.588427,823.031755 241.987666,824.974042 C310.386905,826.916329 332.413612,852.370397 390,828.87444 C447.586388,805.378483 443.139071,777.096803 495,752.065472 C546.860929,727.034141 571.234616,775.234734 630,743.785025 C688.765384,712.335317 652.112917,663.811767 720,630.789906 C787.887083,597.768045 805.853034,620.513764 864.22025,609.299172 C922.587466,598.08458 916.207864,563.693642 978.14134,539.800796 C1040.07482,515.907951 1063.50618,576.178627 1125,539.800796 C1186.49382,503.422965 1132.68472,475.861934 1187.18738,435.414494 C1241.69003,394.967054 1264.70115,427.331402 1335,394.967054 C1405.29885,362.602707 1388.42647,334.352588 1444.82912,316.800796 C1501.23177,299.249005 1536.33608,316.800796 1536.33608,316.800796 L1526,1340.94808 L-66,1340.94808 L-46.9106657,1067.3521 L-32.6253061,862.608604 Z"/></g></g></svg>