<svg xmlns="http://www.w3.org/2000/svg" xmlns:xlink="http://www.w3.org/1999/xlink" width="1440" height="887" version="1.1" viewBox="0 0 1440 887"><title>Rectangle 3 Copy</title><desc>Created with Sketch.</desc><g id="pages" fill="none" fill-rule="evenodd" stroke="none" stroke-width="1" opacity=".046"><g id="fourth-slide" fill="#FFF"><path id="Rectangle-3-Copy" d="M0,464.49418 C0,464.49418 37.5304699,491.061555 105,489.115684 C172.46953,487.169813 178.595286,452.631996 257.982318,440.073644 C337.36935,427.515291 331.267772,458.95304 390,443.5 C448.732228,428.04696 448.509292,399.983562 491.868339,378.535879 C535.227387,357.088196 530.085466,376.378497 600,327.250609 C669.914534,278.122722 664.172216,256.859598 735.168039,237.392832 C806.163862,217.926066 840.225332,254.287289 887,237.392832 C933.774668,220.498376 922.985846,197.710662 978.139545,170.279896 C1033.29324,142.84913 1088.84381,169.247584 1125,142.84913 C1161.15619,116.450677 1150.77875,83.3559478 1187.18738,46.6136981 C1223.596,9.87144833 1307,-4.80021602 1307,-4.80021602 L1444.82912,-72 L1536.33608,-72 L1526,952.147288 L-66,952.147288 L0,464.49418 Z"/></g></g></svg>