<?xml version="1.0" encoding="UTF-8"?>
<svg width="1440px" height="887px" viewBox="0 0 1440 887" version="1.1" xmlns="http://www.w3.org/2000/svg" xmlns:xlink="http://www.w3.org/1999/xlink">
    <g id="pages" stroke="none" stroke-width="1" fill="none" fill-rule="evenodd" opacity="0.0460258152" cy="200">
        <g id="fourth-slide" fill="#FFFFFF">
            <path d="M-122.283709,491.037046 L23.0303619,498.794376 C23.0303619,498.794376 71.1206291,466.696283 147,471.409279 C222.879371,476.122274 235.168983,524.745086 309.281999,512.385164 C383.395015,500.025243 360.675711,463.012515 415.372376,436.61248 C470.069042,410.212445 518.991134,436.61248 567,406.524686 C615.008866,376.436892 588.988051,294.628144 652.575334,269.933544 C716.162617,245.238944 751.949908,287.751784 822.19004,269.933544 C892.430172,252.115305 866.51008,200.239646 936.983808,172.214032 C1007.45753,144.188418 1053.42296,178.536732 1092,156.745651 C1130.57704,134.954571 1110.31177,125.292218 1148.7112,86.5409159 C1187.11064,47.7896134 1227.85723,73.4878534 1302,39.3538351 C1376.14277,5.21981668 1378.6574,-26.3152416 1420.4407,-38.5585359 C1462.22401,-50.8018302 1516.95123,-38.5585359 1516.95123,-38.5585359 L1506.04998,1041.58875 L-173,1041.58875 L-122.283709,491.037046 Z" id="Rectangle-3-Copy-2">
            </path>
        </g>
    </g>
    <g id="pages" stroke="none" stroke-width="1" fill="none" fill-rule="evenodd" opacity="0.0460258152" cy="400">
        <g id="fourth-slide" transform="translate(0.000000, -318.000000)" fill="#FFFFFF">
            <path d="M-32.6253061,862.608604 C-32.6253061,862.608604 10.9706341,838.999673 74.2936366,862.608604 C137.616639,886.217536 173.588427,823.031755 241.987666,824.974042 C310.386905,826.916329 332.413612,852.370397 390,828.87444 C447.586388,805.378483 443.139071,777.096803 495,752.065472 C546.860929,727.034141 571.234616,775.234734 630,743.785025 C688.765384,712.335317 652.112917,663.811767 720,630.789906 C787.887083,597.768045 805.853034,620.513764 864.22025,609.299172 C922.587466,598.08458 916.207864,563.693642 978.14134,539.800796 C1040.07482,515.907951 1063.50618,576.178627 1125,539.800796 C1186.49382,503.422965 1132.68472,475.861934 1187.18738,435.414494 C1241.69003,394.967054 1264.70115,427.331402 1335,394.967054 C1405.29885,362.602707 1388.42647,334.352588 1444.82912,316.800796 C1501.23177,299.249005 1536.33608,316.800796 1536.33608,316.800796 L1526,1340.94808 L-66,1340.94808 L-46.9106657,1067.3521 L-32.6253061,862.608604 Z" id="Rectangle-3-Copy-3"></path>
        </g>
    </g>
    <g id="pages" stroke="none" stroke-width="1" fill="none" fill-rule="evenodd" opacity="0.0460258152">
        <g id="fourth-slide" fill="#FFFFFF">
            <path d="M0,464.49418 C0,464.49418 37.5304699,491.061555 105,489.115684 C172.46953,487.169813 178.595286,452.631996 257.982318,440.073644 C337.36935,427.515291 331.267772,458.95304 390,443.5 C448.732228,428.04696 448.509292,399.983562 491.868339,378.535879 C535.227387,357.088196 530.085466,376.378497 600,327.250609 C669.914534,278.122722 664.172216,256.859598 735.168039,237.392832 C806.163862,217.926066 840.225332,254.287289 887,237.392832 C933.774668,220.498376 922.985846,197.710662 978.139545,170.279896 C1033.29324,142.84913 1088.84381,169.247584 1125,142.84913 C1161.15619,116.450677 1150.77875,83.3559478 1187.18738,46.6136981 C1223.596,9.87144833 1307,-4.80021602 1307,-4.80021602 L1444.82912,-72 L1536.33608,-72 L1526,952.147288 L-66,952.147288 L0,464.49418 Z" id="Rectangle-3-Copy"></path>
        </g>
    </g>
</svg>