<svg xmlns="http://www.w3.org/2000/svg" xmlns:xlink="http://www.w3.org/1999/xlink" width="1232" height="194" version="1.1" viewBox="0 0 1232 194"><title>Group 12</title><desc>Created with Sketch.</desc><style>*{font-family:&apos;Roboto&apos;,sans-serif}</style><g id="pages" fill="none" fill-rule="evenodd" stroke="none" stroke-width="1"><g id="fourth-slide" transform="translate(-105.000000, -414.000000)"><g id="Group-12" transform="translate(105.000000, 410.000000)"><g id="Group-10" stroke="#FFF" stroke-linecap="square" transform="translate(185.000000, 57.000000)"><g id="Group-6" transform="translate(0.000000, 62.000000)"><path id="Line" d="M1.5,77.5 L1.5,1.5"/><path id="Line" d="M28.5,1.5 L1.48148783,1.5"/></g><g id="Group-7" transform="translate(322.000000, 0.000000)"><path id="Line-Copy-4" d="M28.5,1.5 L1.48148783,1.5"/><path id="Line-Copy" d="M1.5,139.5 L1.5,1.49637686"/></g><g id="Group-8" transform="translate(520.000000, 63.000000)"><path id="Line-Copy-5" d="M28.5,1.5 L1.48148783,1.5"/><path id="Line-Copy-2" d="M1.5,77.5 L1.5,1.5"/></g><g id="Group-9" transform="translate(862.000000, 41.000000)"><path id="Line-Copy-6" d="M28.5,1.5 L1.48148783,1.5"/><path id="Line-Copy-3" d="M1.5,99.5 L1.5,2.47938363"/></g><polyline id="Line-Copy-7" points="1046.5 140.5 1046.5 85.377 1046.5 75.5 1027.395 75.5 1032.217 80.322 1027.592 84.948 1045.423 84.948"/></g><g id="Group-11" fill="#FFF" font-family="Roboto-Light, Roboto" font-size="18" font-weight="300" transform="translate(184.000000, 0.000000)"><text id="Administrators-can-f"><tspan x="0" y="63">Administrators can fill the </tspan> <tspan x="0" y="84">system with coefficients, </tspan> <tspan x="0" y="105">articles, reference texts</tspan></text><text id="Testing-the-cabinets"><tspan x="521" y="59">Testing the cabinets of </tspan> <tspan x="521" y="80">the carrier and the </tspan> <tspan x="521" y="101">client</tspan></text><text id="Become-an-opportunit"><tspan x="324" y="17">Become an opportunity </tspan> <tspan x="324" y="38">to apply</tspan></text><text id="The-payment-for-serv"><tspan x="863" y="43">The payment for </tspan> <tspan x="863" y="64">services through bank </tspan> <tspan x="863" y="85">cards was realized</tspan></text></g><g id="Group-5" transform="translate(0.000000, 165.000000)"><g id="Group-3"><rect id="Rectangle" width="184.8" height="33" x="0" y="0" fill="#FFF"/><rect id="Rectangle-Copy-2" width="196.8" height="33" x="508" y="0" fill="#FFFA95"/><rect id="Rectangle-Copy-4" width="184.8" height="33" x="1047" y="0" fill="#FFF500"/><rect id="Rectangle-Copy-3" width="342.7" height="33" x="705" y="0" fill="#FFF953"/><rect id="Rectangle-Copy" width="323.4" height="33" x="185" y="0" fill="#FDFBCB"/></g><g id="Group-4" fill="#333" font-family="Roboto-Bold, Roboto" font-size="14" font-weight="bold" transform="translate(67.000000, 9.000000)"><text id="32-days"><tspan x=".466" y="13">32 days</tspan></text><text id="62-days"><tspan x="255.466" y="13">62 days</tspan></text><text id="17-days"><tspan x="515.466" y="13">17 days</tspan></text><text id="38-days"><tspan x="784.466" y="13">38 days</tspan></text><text id="12-days"><tspan x="1048.466" y="13">12 days</tspan></text></g></g></g></g></g></svg>