<svg xmlns="http://www.w3.org/2000/svg" xmlns:xlink="http://www.w3.org/1999/xlink" width="1237" height="236" version="1.1" viewBox="0 0 1237 236"><title>Group 3</title><desc>Created with Sketch.</desc><style>*{font-family:&apos;Roboto&apos;,sans-serif}</style><defs><path id="path-1" d="M244.323387,177.375236 C270.199186,177.375236 291.175318,156.41483 291.175318,130.55913 C291.175318,108.348694 275.690896,89.7636873 254.924021,84.9618902 C254.499269,37.9672898 216.248408,0 169.116901,0 C136.758684,0 108.588434,17.897659 93.9671243,44.3239761 C89.5182948,42.4001974 84.6146581,41.3292278 79.459233,41.3292278 C60.8869999,41.3292278 45.5590949,55.1674019 43.212472,73.0854604 C19.0458853,77.8736579 0.82468154,99.1695205 0.82468154,124.723196 C0.82468154,153.802571 24.4162379,177.375236 53.5170841,177.375236 L244.323387,177.375236 Z"/><circle id="path-3" cx="46" cy="46" r="46"/><filter id="filter-5" width="115.2%" height="115.2%" x="-7.6%" y="-5.4%" filterUnits="objectBoundingBox"><feOffset dx="0" dy="2" in="SourceAlpha" result="shadowOffsetOuter1"/><feGaussianBlur in="shadowOffsetOuter1" result="shadowBlurOuter1" stdDeviation="2"/><feColorMatrix in="shadowBlurOuter1" type="matrix" values="0 0 0 0 0 0 0 0 0 0 0 0 0 0 0 0 0 0 0.232450181 0"/></filter><circle id="path-6" cx="46" cy="46" r="46"/><filter id="filter-8" width="115.2%" height="115.2%" x="-7.6%" y="-5.4%" filterUnits="objectBoundingBox"><feOffset dx="0" dy="2" in="SourceAlpha" result="shadowOffsetOuter1"/><feGaussianBlur in="shadowOffsetOuter1" result="shadowBlurOuter1" stdDeviation="2"/><feColorMatrix in="shadowBlurOuter1" type="matrix" values="0 0 0 0 0 0 0 0 0 0 0 0 0 0 0 0 0 0 0.232450181 0"/></filter></defs><g id="pages" fill="none" fill-rule="evenodd" stroke="none" stroke-width="1"><g id="api---2" transform="translate(-101.000000, -475.000000)"><g id="Group-3" transform="translate(101.000000, 477.000000)"><g id="Group-4" stroke="#FFF" stroke-linecap="square" stroke-width="5" opacity=".634" transform="translate(126.000000, 110.000000)"><path id="Line" d="M0.5,1.5 L308.5,1.5"/></g><g id="Group-4-Copy" stroke="#FFF" stroke-linecap="square" stroke-width="5" opacity=".634" transform="translate(776.000000, 110.000000)"><path id="Line" d="M0.5,1.5 L308.5,1.5"/></g><text id="Backend-application" fill="#FFF" font-family="GillSans, Gill Sans" font-size="24" font-weight="normal"><tspan x="11.611" y="200">Backend </tspan> <tspan x=".109" y="228">application</tspan></text><g id="cloud" transform="translate(458.000000, 0.000000)"><mask id="mask-2" fill="#fff"><use xlink:href="#path-1"/></mask><use id="Mask" fill="#FFF" fill-opacity=".073" fill-rule="nonzero" stroke="#FFF" stroke-opacity=".341" stroke-width="3" xlink:href="#path-1"/><text id="api.vput.eu/v1/trans" fill="#FFF" font-family="GillSans-Light, Gill Sans" font-size="14" font-weight="300" mask="url(#mask-2)"><tspan x="-39" y="-6">api.vput.eu/v1/transfers GET [ list of transfers for client ] /App/Transfer/.../TransferController.php@index </tspan> <tspan x="-39" y="10">api.vput.eu/v1/transfers/ POST boolean /App/Transfer/.../TransferController.php@store</tspan> <tspan x="-39" y="26">api.vput.eu/v1/transfers/aeroports GET [ list of transfers for client ] /App/Transfer/.../TransferController.php@aeroports</tspan> <tspan x="-39" y="42">api.vput.eu/v1/transfers/cities GET [ list of transfers for client ] /App/Transfer/.../TransferController.php@cities</tspan> <tspan x="-39" y="58">api.vput.eu/v1/transfers/{id} PUT boolean /App/Transfer/.../TransferController.php@update</tspan> <tspan x="-39" y="74">api.vput.eu/v1/transfers/{id}/cancel PUT int /App/Transfer/.../TransferController.php@cancel</tspan> <tspan x="-39" y="90">api.vput.eu/v1/transfers/price/{cityId}/{aeroportId}/{passengers} GET int /App/Transfer/.../TransferController.php@price</tspan> <tspan x="-39" y="106">api.vput.eu/v1/bookings/transfers GET [ list of transfers for client and bookings ] /App/Booking/.../TransferController.php@index</tspan> <tspan x="-39" y="122">api.vput.eu/v1/bookings/transfers/{id}/cancel PUT int /App/Booking/.../TransferController.php@cancel</tspan> <tspan x="-39" y="138">api.vput.eu/v1/admin/transfers/statuses GET [ list of transfers statuses ] /App/Transfer/.../TransferAdminController.php@statuses</tspan> <tspan x="-39" y="154">api.vput.eu/v1/admin/transfers/carTypes GET [ list of transfers car types ] /App/Transfer/.../TransferAdminController.php@carTypes</tspan> <tspan x="-39" y="170">api.vput.eu/v1/admin/transfers/aeroports GET [ list of transfers statuses ] /App/Transfer/.../TransferAdminController.php@aeroports</tspan> <tspan x="-39" y="186">api.vput.eu/v1/admin/transfers/cities GET [ list of transfers car types ] /App/Transfer/.../TransferAdminController.php@cities</tspan></text></g><text id="RESTful-API" fill="#FFF" font-family="Roboto-Regular, Roboto" font-size="36" font-weight="normal"><tspan x="508.778" y="229">RESTful API</tspan></text><g id="&lt;?php-$things-=-arra" transform="translate(4.000000, 72.000000)"><mask id="mask-4" fill="#fff"><use xlink:href="#path-3"/></mask><g id="Mask"><use fill="#000" fill-opacity="1" filter="url(#filter-5)" xlink:href="#path-3"/><use fill="#FFF95E" fill-rule="evenodd" xlink:href="#path-3"/></g></g><g id="server" fill-rule="nonzero" transform="translate(25.000000, 95.000000)"><path id="Shape" fill="#000" d="M48,33.5055065 L48,46.0844156 C48,46.5898182 47.5916962,47 47.0886076,47 L0.911392405,47 C0.407088608,47 0,46.5898182 0,46.0844156 L0,33.5055065 C0,33.0001039 0.407088608,32.5899221 0.911392405,32.5899221 L3.56901266,32.5899221 L3.56901266,30.705039 L0.911392405,30.705039 C0.407088608,30.705039 0,30.2948571 0,29.7894545 L0,17.2105455 C0,16.7051429 0.407088608,16.294961 0.911392405,16.294961 L3.56901266,16.294961 L3.56901266,14.4100779 L0.911392405,14.4100779 C0.407088608,14.4100779 0,13.9998961 0,13.4944935 L0,0.915584416 C0,0.410181818 0.407088608,0 0.911392405,0 L47.0886076,0 C47.5916962,0 48,0.410181818 48,0.915584416 L48,13.4944935 C48,13.9998961 47.5916962,14.4100779 47.0886076,14.4100779 L44.4309873,14.4100779 L44.4309873,16.294961 L47.0886076,16.294961 C47.5916962,16.294961 48,16.7051429 48,17.2105455 L48,29.7894545 C48,30.2948571 47.5916962,30.705039 47.0886076,30.705039 L44.4309873,30.705039 L44.4309873,32.5899221 L47.0886076,32.5899221 C47.5916962,32.5899221 48,33.0001039 48,33.5055065 Z M46.1772152,45.1688312 L46.1772152,34.4210909 L41.4173165,34.4210909 L41.4173165,45.1688312 L46.1772152,45.1688312 Z M46.1772152,28.8738701 L46.1772152,18.1261299 L41.4173165,18.1261299 L41.4173165,28.8738701 L46.1772152,28.8738701 L46.1772152,28.8738701 Z M46.1772152,12.5789091 L46.1772152,1.83116883 L41.4173165,1.83116883 L41.4173165,12.5789091 L46.1772152,12.5789091 Z M42.6082025,32.5899221 L42.6082025,30.705039 L5.39179747,30.705039 L5.39179747,32.5899221 L42.6082025,32.5899221 Z M42.6082025,16.294961 L42.6082025,14.4100779 L5.39179747,14.4100779 L5.39179747,16.294961 L42.6082025,16.294961 Z M39.5945316,45.1688312 L39.5945316,34.4210909 L34.8540759,34.4210909 L34.8540759,45.1688312 L39.5945316,45.1688312 Z M39.5945316,28.8738701 L39.5945316,18.1261299 L34.8540759,18.1261299 L34.8540759,28.8738701 L39.5945316,28.8738701 L39.5945316,28.8738701 Z M39.5945316,12.5789091 L39.5945316,1.83116883 L34.8540759,1.83116883 L34.8540759,12.5789091 L39.5945316,12.5789091 Z M33.0312911,45.1688312 L33.0312911,34.4210909 L1.82278481,34.4210909 L1.82278481,45.1688312 L33.0312911,45.1688312 Z M33.0312911,28.8738701 L33.0312911,18.1261299 L1.82278481,18.1261299 L1.82278481,28.8738701 L33.0312911,28.8738701 L33.0312911,28.8738701 Z M33.0312911,12.5789091 L33.0312911,1.83116883 L1.82278481,1.83116883 L1.82278481,12.5789091 L33.0312911,12.5789091 Z"/><rect id="Rectangle-path" width="4.76" height="10.748" x="41.417" y="34.421" fill="#3DD0F2"/><rect id="Rectangle-path" width="4.76" height="10.748" x="41.417" y="18.126" fill="#3DD0F2"/><rect id="Rectangle-path" width="4.76" height="10.748" x="41.417" y="1.831" fill="#3DD0F2"/><path id="Shape" fill="#3DD0F2" d="M33.0312911,34.4210909 L33.0312911,45.1688312 L1.82278481,45.1688312 L1.82278481,34.4210909 L33.0312911,34.4210909 Z M9.11392405,39.794961 C9.11392405,39.5544675 9.01670886,39.3176364 8.84658228,39.1479481 C8.6764557,38.977039 8.44192405,38.8793766 8.20253165,38.8793766 C7.96192405,38.8793766 7.72739241,38.977039 7.55726582,39.1479481 C7.38835443,39.3188571 7.29113924,39.5544675 7.29113924,39.794961 C7.29113924,40.0354545 7.38835443,40.2722857 7.55726582,40.441974 C7.72739241,40.6128831 7.96192405,40.7105455 8.20253165,40.7105455 C8.44192405,40.7105455 8.6764557,40.6128831 8.84658228,40.441974 C9.01670886,40.2722857 9.11392405,40.0366753 9.11392405,39.794961 Z M6.19746835,39.794961 C6.19746835,39.5544675 6.10025316,39.3188571 5.93012658,39.1479481 C5.76,38.977039 5.52546835,38.8793766 5.28607595,38.8793766 C5.04546835,38.8793766 4.81093671,38.977039 4.64081013,39.1479481 C4.47189873,39.3176364 4.37468354,39.5544675 4.37468354,39.794961 C4.37468354,40.0366753 4.47189873,40.2722857 4.64081013,40.441974 C4.81093671,40.6128831 5.04546835,40.7105455 5.28607595,40.7105455 C5.52546835,40.7105455 5.76,40.6128831 5.93012658,40.441974 C6.10025316,40.2722857 6.19746835,40.0354545 6.19746835,39.794961 Z"/><path id="Shape" fill="#3DD0F2" d="M33.0312911,18.1261299 L33.0312911,28.8738701 L1.82278481,28.8738701 L1.82278481,18.1261299 L33.0312911,18.1261299 L33.0312911,18.1261299 Z M9.11392405,23.5 C9.11392405,23.2595065 9.01670886,23.0226753 8.84658228,22.852987 C8.6764557,22.6820779 8.44192405,22.5844156 8.20253165,22.5844156 C7.96192405,22.5844156 7.72739241,22.6820779 7.55726582,22.852987 C7.38835443,23.0226753 7.29113924,23.2595065 7.29113924,23.5 C7.29113924,23.7417143 7.38835443,23.9773247 7.55726582,24.147013 C7.72739241,24.3179221 7.96192405,24.4155844 8.20253165,24.4155844 C8.44192405,24.4155844 8.6764557,24.3179221 8.84658228,24.147013 C9.01670886,23.9773247 9.11392405,23.7417143 9.11392405,23.5 Z M6.19746835,23.5 C6.19746835,23.2595065 6.10025316,23.0226753 5.93012658,22.852987 C5.76,22.6820779 5.52546835,22.5844156 5.28607595,22.5844156 C5.04546835,22.5844156 4.81093671,22.6820779 4.64081013,22.852987 C4.47189873,23.0226753 4.37468354,23.2595065 4.37468354,23.5 C4.37468354,23.7404935 4.47189873,23.9773247 4.64081013,24.147013 C4.81093671,24.3179221 5.04546835,24.4155844 5.28607595,24.4155844 C5.52546835,24.4155844 5.76,24.3179221 5.93012658,24.147013 C6.10025316,23.9773247 6.19746835,23.7404935 6.19746835,23.5 Z"/><path id="Shape" fill="#3DD0F2" d="M33.0312911,1.83116883 L33.0312911,12.5789091 L1.82278481,12.5789091 L1.82278481,1.83116883 L33.0312911,1.83116883 Z M9.11392405,7.20503896 C9.11392405,6.96454545 9.01670886,6.72771429 8.84658228,6.55802597 C8.6764557,6.38711688 8.44192405,6.28945455 8.20253165,6.28945455 C7.96192405,6.28945455 7.72739241,6.38711688 7.55726582,6.55802597 C7.38835443,6.72771429 7.29113924,6.96454545 7.29113924,7.20503896 C7.29113924,7.44553247 7.38835443,7.68236364 7.55726582,7.85205195 C7.72739241,8.02296104 7.96192405,8.12062338 8.20253165,8.12062338 C8.44192405,8.12062338 8.6764557,8.02296104 8.84658228,7.85205195 C9.01670886,7.68236364 9.11392405,7.44553247 9.11392405,7.20503896 Z M6.19746835,7.20503896 C6.19746835,6.96454545 6.10025316,6.72771429 5.93012658,6.55802597 C5.76,6.38711688 5.52546835,6.28945455 5.28607595,6.28945455 C5.04546835,6.28945455 4.81093671,6.38711688 4.64081013,6.55802597 C4.47189873,6.72771429 4.37468354,6.96454545 4.37468354,7.20503896 C4.37468354,7.44553247 4.47189873,7.68236364 4.64081013,7.85205195 C4.81093671,8.02296104 5.04546835,8.12062338 5.28607595,8.12062338 C5.52546835,8.12062338 5.76,8.02296104 5.93012658,7.85205195 C6.10025316,7.68236364 6.19746835,7.44553247 6.19746835,7.20503896 Z"/><path id="Shape" fill="#000" d="M8.84658228,6.55802597 C9.01670886,6.72771429 9.11392405,6.96454545 9.11392405,7.20503896 C9.11392405,7.44553247 9.01670886,7.68236364 8.84658228,7.85205195 C8.6764557,8.02296104 8.44192405,8.12062338 8.20253165,8.12062338 C7.96192405,8.12062338 7.72739241,8.02296104 7.55726582,7.85205195 C7.38835443,7.68236364 7.29113924,7.44553247 7.29113924,7.20503896 C7.29113924,6.96454545 7.38835443,6.72771429 7.55726582,6.55802597 C7.72739241,6.38711688 7.96192405,6.28945455 8.20253165,6.28945455 C8.44192405,6.28945455 8.6764557,6.38711688 8.84658228,6.55802597 Z"/><path id="Shape" fill="#000" d="M8.84658228,22.852987 C9.01670886,23.0226753 9.11392405,23.2595065 9.11392405,23.5 C9.11392405,23.7417143 9.01670886,23.9773247 8.84658228,24.147013 C8.6764557,24.3179221 8.44192405,24.4155844 8.20253165,24.4155844 C7.96192405,24.4155844 7.72739241,24.3179221 7.55726582,24.147013 C7.38835443,23.9773247 7.29113924,23.7417143 7.29113924,23.5 C7.29113924,23.2595065 7.38835443,23.0226753 7.55726582,22.852987 C7.72739241,22.6820779 7.96192405,22.5844156 8.20253165,22.5844156 C8.44192405,22.5844156 8.6764557,22.6820779 8.84658228,22.852987 Z"/><path id="Shape" fill="#000" d="M8.84658228,39.1479481 C9.01670886,39.3176364 9.11392405,39.5544675 9.11392405,39.794961 C9.11392405,40.0366753 9.01670886,40.2722857 8.84658228,40.441974 C8.6764557,40.6128831 8.44192405,40.7105455 8.20253165,40.7105455 C7.96192405,40.7105455 7.72739241,40.6128831 7.55726582,40.441974 C7.38835443,40.2722857 7.29113924,40.0354545 7.29113924,39.794961 C7.29113924,39.5544675 7.38835443,39.3188571 7.55726582,39.1479481 C7.72739241,38.977039 7.96192405,38.8793766 8.20253165,38.8793766 C8.44192405,38.8793766 8.6764557,38.977039 8.84658228,39.1479481 Z"/><path id="Shape" fill="#000" d="M5.93012658,6.55802597 C6.10025316,6.72771429 6.19746835,6.96454545 6.19746835,7.20503896 C6.19746835,7.44553247 6.10025316,7.68236364 5.93012658,7.85205195 C5.76,8.02296104 5.52546835,8.12062338 5.28607595,8.12062338 C5.04546835,8.12062338 4.81093671,8.02296104 4.64081013,7.85205195 C4.47189873,7.68236364 4.37468354,7.44553247 4.37468354,7.20503896 C4.37468354,6.96454545 4.47189873,6.72771429 4.64081013,6.55802597 C4.81093671,6.38711688 5.04546835,6.28945455 5.28607595,6.28945455 C5.52546835,6.28945455 5.76,6.38711688 5.93012658,6.55802597 Z"/><path id="Shape" fill="#000" d="M5.93012658,22.852987 C6.10025316,23.0226753 6.19746835,23.2595065 6.19746835,23.5 C6.19746835,23.7404935 6.10025316,23.9773247 5.93012658,24.147013 C5.76,24.3179221 5.52546835,24.4155844 5.28607595,24.4155844 C5.04546835,24.4155844 4.81093671,24.3179221 4.64081013,24.147013 C4.47189873,23.9773247 4.37468354,23.7404935 4.37468354,23.5 C4.37468354,23.2595065 4.47189873,23.0226753 4.64081013,22.852987 C4.81093671,22.6820779 5.04546835,22.5844156 5.28607595,22.5844156 C5.52546835,22.5844156 5.76,22.6820779 5.93012658,22.852987 Z"/><path id="Shape" fill="#000" d="M5.93012658,39.1479481 C6.10025316,39.3188571 6.19746835,39.5544675 6.19746835,39.794961 C6.19746835,40.0354545 6.10025316,40.2722857 5.93012658,40.441974 C5.76,40.6128831 5.52546835,40.7105455 5.28607595,40.7105455 C5.04546835,40.7105455 4.81093671,40.6128831 4.64081013,40.441974 C4.47189873,40.2722857 4.37468354,40.0366753 4.37468354,39.794961 C4.37468354,39.5544675 4.47189873,39.3176364 4.64081013,39.1479481 C4.81093671,38.977039 5.04546835,38.8793766 5.28607595,38.8793766 C5.52546835,38.8793766 5.76,38.977039 5.93012658,39.1479481 Z"/></g><text id="Your-web-app" fill="#FFF" font-family="GillSans, Gill Sans" font-size="24" font-weight="normal"><tspan x="1104.25" y="190">Your web app</tspan></text><g id="&lt;?php-$things-=-arra" transform="translate(1122.000000, 66.000000)"><mask id="mask-7" fill="#fff"><use xlink:href="#path-6"/></mask><g id="fgfgfg"><use fill="#000" fill-opacity="1" filter="url(#filter-8)" xlink:href="#path-6"/><use fill="#FFF95E" fill-rule="evenodd" xlink:href="#path-6"/></g></g><g id="laptop-(2)" fill-rule="nonzero" transform="translate(1134.000000, 89.000000)"><rect id="Rectangle-path" width="4.963" height="4.929" x="15.708" y="36.007" fill="#ACACAD"/><rect id="Rectangle-path" width="2.482" height="4.929" x="15.708" y="36.007" fill="#C7EBFF"/><rect id="Rectangle-path" width="4.963" height="4.929" x="55.049" y="36.007" fill="#ACACAD"/><rect id="Rectangle-path" width="2.482" height="4.929" x="55.049" y="36.007" fill="#C7EBFF"/><path id="Shape" fill="#C7EBFF" d="M6.1609375,44.870125 L69.5579687,44.870125 C70.8149609,44.870125 71.8340625,43.8496369 71.8340625,42.5910714 C71.8340625,41.332369 70.8149609,40.3120179 69.5579687,40.3120179 L6.1609375,40.3120179 C4.90394531,40.3120179 3.88498047,41.332506 3.88498047,42.5910714 C3.88511719,43.8492262 4.90367187,44.870125 6.1609375,44.870125"/><path id="Shape" fill="#50A5DC" d="M62.2931745,0 L11.706941,0 C10.2118752,0 9,1.51912193 9,3.393081 L9,7.60045431 L9,36.0074583 L65,36.0074583 L65,7.60045431 L65,3.393081 C65,1.51912193 63.7881248,0 62.2931745,0 Z"/><path id="Shape" fill="#000" d="M12.000004,14.0230372 C11.3220554,14.0230372 10.7722812,14.5717637 10.7722812,15.2484201 L10.7722812,30.2417155 C10.7722812,30.918372 11.3220554,31.4670985 12.000004,31.4670985 C12.6779525,31.4670985 13.2277267,30.918372 13.2277267,30.2417155 L13.2277267,15.2484201 C13.2277267,14.5716411 12.6780752,14.0230372 12.000004,14.0230372 Z"/><path id="Shape" fill="#000" d="M12.000004,4.71012691 C11.3220554,4.71012691 10.7722812,5.25885339 10.7722812,5.93550985 L10.7722812,10.7719737 C10.7722812,11.4486302 11.3220554,11.9973567 12.000004,11.9973567 C12.6779525,11.9973567 13.2277267,11.4486302 13.2277267,10.7719737 L13.2277267,5.93550985 C13.2277267,5.25873085 12.6780752,4.71012691 12.000004,4.71012691 Z"/><g id="Group" fill="#231F20"><path id="Shape" d="M66.6983789,39.1817321 L58.1776563,39.1817321 L58.1776563,37.3574762 L60.2109375,37.3574762 C61.9218359,37.3574762 63.3137695,35.9635119 63.3137695,34.2501488 L63.3137695,13.7006071 C63.3137695,13.1334107 62.8548047,12.6736845 62.2882422,12.6736845 C61.7216797,12.6736845 61.2627148,13.1332738 61.2627148,13.7006071 L61.2627148,34.2500119 C61.2627148,34.8308988 60.7908984,35.303631 60.2108008,35.303631 L9.78919922,35.303631 C9.20910156,35.303631 8.73701172,34.8310357 8.73701172,34.2500119 L8.73701172,3.10732738 C8.73701172,2.52644048 9.20896484,2.05370833 9.78919922,2.05370833 L60.2109375,2.05370833 C60.7908984,2.05370833 61.2628516,2.52630357 61.2628516,3.10732738 L61.2628516,10.3234405 C61.2628516,10.8906369 61.7218164,11.3503631 62.2883789,11.3503631 C62.8549414,11.3503631 63.3139062,10.8907738 63.3139062,10.3234405 L63.3139062,3.10732738 C63.3139062,1.39382738 61.9218359,0 60.2110742,0 L9.78919922,0 C8.07816406,0 6.68609375,1.39396429 6.68609375,3.10732738 L6.68609375,34.2500119 C6.68609375,35.9635119 8.07816406,37.3573393 9.78919922,37.3573393 L11.8224805,37.3573393 L11.8224805,39.1815952 L3.30148437,39.1815952 C1.48107422,39.1817321 0,40.6648214 0,42.4877083 C0,44.3105952 1.48107422,45.7936845 3.30148437,45.7936845 L9.89105469,45.7936845 C10.4573437,45.7936845 10.916582,45.3340952 10.916582,44.7667619 C10.916582,44.1994286 10.4574805,43.7398393 9.89105469,43.7398393 L3.30148437,43.7398393 C2.61201172,43.7398393 2.05091797,43.1779821 2.05091797,42.4875714 C2.05091797,41.7972976 2.611875,41.2353036 3.30148437,41.2353036 L66.6985156,41.2353036 C67.3879883,41.2353036 67.949082,41.7971607 67.949082,42.4875714 C67.949082,43.1778452 67.3879883,43.7398393 66.6985156,43.7398393 L13.4460156,43.7398393 C12.8797266,43.7398393 12.4204883,44.1994286 12.4204883,44.7667619 C12.4204883,45.3340952 12.8795898,45.7936845 13.4460156,45.7936845 L66.6983789,45.7936845 C68.5187891,45.7936845 69.9998633,44.3105952 69.9998633,42.4877083 C69.9998633,40.6648214 68.5189258,39.1817321 66.6983789,39.1817321 Z M51.1639844,37.3573393 L51.1639844,39.1815952 L18.8362891,39.1815952 L18.8362891,37.3573393 L51.1639844,37.3573393 Z M13.8736719,39.1817321 L13.8736719,37.3574762 L16.7853711,37.3574762 L16.7853711,39.1817321 L13.8736719,39.1817321 Z M53.2149023,39.1817321 L53.2149023,37.3574762 L56.1266016,37.3574762 L56.1266016,39.1817321 L53.2149023,39.1817321 Z"/></g></g></g></g></g></svg>