<svg xmlns="http://www.w3.org/2000/svg" xmlns:xlink="http://www.w3.org/1999/xlink" width="1248" height="471" version="1.1" viewBox="0 0 1248 471"><title>Group 3</title><desc>Created with Sketch.</desc><style>*{font-family:&apos;Roboto&apos;,sans-serif}</style><defs><path id="path-1" d="M244.323387,177.375236 C270.199186,177.375236 291.175318,156.41483 291.175318,130.55913 C291.175318,108.348694 275.690896,89.7636873 254.924021,84.9618902 C254.499269,37.9672898 216.248408,0 169.116901,0 C136.758684,0 108.588434,17.897659 93.9671243,44.3239761 C89.5182948,42.4001974 84.6146581,41.3292278 79.459233,41.3292278 C60.8869999,41.3292278 45.5590949,55.1674019 43.212472,73.0854604 C19.0458853,77.8736579 0.82468154,99.1695205 0.82468154,124.723196 C0.82468154,153.802571 24.4162379,177.375236 53.5170841,177.375236 L244.323387,177.375236 Z"/><circle id="path-3" cx="46" cy="46" r="46"/><filter id="filter-5" width="115.2%" height="115.2%" x="-7.6%" y="-5.4%" filterUnits="objectBoundingBox"><feOffset dx="0" dy="2" in="SourceAlpha" result="shadowOffsetOuter1"/><feGaussianBlur in="shadowOffsetOuter1" result="shadowBlurOuter1" stdDeviation="2"/><feColorMatrix in="shadowBlurOuter1" type="matrix" values="0 0 0 0 0 0 0 0 0 0 0 0 0 0 0 0 0 0 0.232450181 0"/></filter><circle id="path-6" cx="46" cy="46" r="46"/><filter id="filter-8" width="128.3%" height="128.3%" x="-14.1%" y="-12%" filterUnits="objectBoundingBox"><feMorphology in="SourceAlpha" operator="dilate" radius="6" result="shadowSpreadOuter1"/><feOffset dx="0" dy="2" in="shadowSpreadOuter1" result="shadowOffsetOuter1"/><feGaussianBlur in="shadowOffsetOuter1" result="shadowBlurOuter1" stdDeviation="2"/><feComposite in="shadowBlurOuter1" in2="SourceAlpha" operator="out" result="shadowBlurOuter1"/><feColorMatrix in="shadowBlurOuter1" type="matrix" values="0 0 0 0 0 0 0 0 0 0 0 0 0 0 0 0 0 0 0.232450181 0"/></filter><circle id="path-9" cx="46" cy="46" r="46"/><filter id="filter-11" width="128.3%" height="128.3%" x="-14.1%" y="-12%" filterUnits="objectBoundingBox"><feMorphology in="SourceAlpha" operator="dilate" radius="6" result="shadowSpreadOuter1"/><feOffset dx="0" dy="2" in="shadowSpreadOuter1" result="shadowOffsetOuter1"/><feGaussianBlur in="shadowOffsetOuter1" result="shadowBlurOuter1" stdDeviation="2"/><feComposite in="shadowBlurOuter1" in2="SourceAlpha" operator="out" result="shadowBlurOuter1"/><feColorMatrix in="shadowBlurOuter1" type="matrix" values="0 0 0 0 0 0 0 0 0 0 0 0 0 0 0 0 0 0 0.232450181 0"/></filter><path id="path-12" d="M775,171.014895 C992.076744,171.014895 955.445868,36 1088.95118,36"/><circle id="path-13" cx="46" cy="46" r="46"/><filter id="filter-15" width="128.3%" height="128.3%" x="-14.1%" y="-12%" filterUnits="objectBoundingBox"><feMorphology in="SourceAlpha" operator="dilate" radius="6" result="shadowSpreadOuter1"/><feOffset dx="0" dy="2" in="shadowSpreadOuter1" result="shadowOffsetOuter1"/><feGaussianBlur in="shadowOffsetOuter1" result="shadowBlurOuter1" stdDeviation="2"/><feComposite in="shadowBlurOuter1" in2="SourceAlpha" operator="out" result="shadowBlurOuter1"/><feColorMatrix in="shadowBlurOuter1" type="matrix" values="0 0 0 0 0 0 0 0 0 0 0 0 0 0 0 0 0 0 0.232450181 0"/></filter></defs><g id="pages" fill="none" fill-rule="evenodd" stroke="none" stroke-width="1"><g id="api---3" transform="translate(-101.000000, -362.000000)"><g id="Group-3" transform="translate(101.000000, 367.000000)"><g id="Group-4" stroke="#FFF" stroke-linecap="square" stroke-width="5" opacity=".634" transform="translate(126.000000, 200.000000)"><path id="Line" d="M0.5,1.5 L308.5,1.5"/></g><g id="Group-4-Copy" stroke="#FFF" stroke-linecap="square" stroke-width="5" opacity=".634" transform="translate(776.000000, 200.000000)"><path id="Line" d="M0.5,1.5 L308.5,1.5"/></g><text id="Backend-application" fill="#FFF" font-family="GillSans, Gill Sans" font-size="24" font-weight="normal"><tspan x="11.611" y="290">Backend </tspan> <tspan x=".109" y="318">application</tspan></text><g id="cloud" transform="translate(458.000000, 90.000000)"><mask id="mask-2" fill="#fff"><use xlink:href="#path-1"/></mask><use id="Mask" fill="#FFF" fill-opacity=".073" fill-rule="nonzero" stroke="#FFF" stroke-opacity=".341" stroke-width="7" xlink:href="#path-1"/><text id="api.vput.eu/v1/trans" fill="#FFF" font-family="GillSans-Light, Gill Sans" font-size="14" font-weight="300" mask="url(#mask-2)"><tspan x="-39" y="-6">api.vput.eu/v1/transfers GET [ list of transfers for client ] /App/Transfer/.../TransferController.php@index </tspan> <tspan x="-39" y="10">api.vput.eu/v1/transfers/ POST boolean /App/Transfer/.../TransferController.php@store</tspan> <tspan x="-39" y="26">api.vput.eu/v1/transfers/aeroports GET [ list of transfers for client ] /App/Transfer/.../TransferController.php@aeroports</tspan> <tspan x="-39" y="42">api.vput.eu/v1/transfers/cities GET [ list of transfers for client ] /App/Transfer/.../TransferController.php@cities</tspan> <tspan x="-39" y="58">api.vput.eu/v1/transfers/{id} PUT boolean /App/Transfer/.../TransferController.php@update</tspan> <tspan x="-39" y="74">api.vput.eu/v1/transfers/{id}/cancel PUT int /App/Transfer/.../TransferController.php@cancel</tspan> <tspan x="-39" y="90">api.vput.eu/v1/transfers/price/{cityId}/{aeroportId}/{passengers} GET int /App/Transfer/.../TransferController.php@price</tspan> <tspan x="-39" y="106">api.vput.eu/v1/bookings/transfers GET [ list of transfers for client and bookings ] /App/Booking/.../TransferController.php@index</tspan> <tspan x="-39" y="122">api.vput.eu/v1/bookings/transfers/{id}/cancel PUT int /App/Booking/.../TransferController.php@cancel</tspan> <tspan x="-39" y="138">api.vput.eu/v1/admin/transfers/statuses GET [ list of transfers statuses ] /App/Transfer/.../TransferAdminController.php@statuses</tspan> <tspan x="-39" y="154">api.vput.eu/v1/admin/transfers/carTypes GET [ list of transfers car types ] /App/Transfer/.../</tspan> <tspan x="-39" y="170">TransferAdminController.php@carTypes</tspan> <tspan x="-39" y="186">api.vput.eu/v1/admin/transfers/aeroports GET [ list of transfers statuses ] /App/Transfer/.../</tspan> <tspan x="-39" y="202">TransferAdminController.php@aeroports</tspan> <tspan x="-39" y="218">api.vput.eu/v1/admin/transfers/cities GET [ list of transfers car types ] /App/Transfer/.../TransferAdminController.php@cities</tspan></text></g><text id="RESTful-API" fill="#FFF" font-family="Roboto-Regular, Roboto" font-size="36" font-weight="normal"><tspan x="508.778" y="319">RESTful API</tspan></text><g id="&lt;?php-$things-=-arra" transform="translate(4.000000, 162.000000)"><mask id="mask-4" fill="#fff"><use xlink:href="#path-3"/></mask><g id="fgfgfg"><use fill="#000" fill-opacity="1" filter="url(#filter-5)" xlink:href="#path-3"/><use fill="#FFF95E" fill-rule="evenodd" xlink:href="#path-3"/></g></g><g id="server" fill-rule="nonzero" transform="translate(25.000000, 185.000000)"><path id="Shape" fill="#000" d="M48,33.5055065 L48,46.0844156 C48,46.5898182 47.5916962,47 47.0886076,47 L0.911392405,47 C0.407088608,47 0,46.5898182 0,46.0844156 L0,33.5055065 C0,33.0001039 0.407088608,32.5899221 0.911392405,32.5899221 L3.56901266,32.5899221 L3.56901266,30.705039 L0.911392405,30.705039 C0.407088608,30.705039 0,30.2948571 0,29.7894545 L0,17.2105455 C0,16.7051429 0.407088608,16.294961 0.911392405,16.294961 L3.56901266,16.294961 L3.56901266,14.4100779 L0.911392405,14.4100779 C0.407088608,14.4100779 0,13.9998961 0,13.4944935 L0,0.915584416 C0,0.410181818 0.407088608,0 0.911392405,0 L47.0886076,0 C47.5916962,0 48,0.410181818 48,0.915584416 L48,13.4944935 C48,13.9998961 47.5916962,14.4100779 47.0886076,14.4100779 L44.4309873,14.4100779 L44.4309873,16.294961 L47.0886076,16.294961 C47.5916962,16.294961 48,16.7051429 48,17.2105455 L48,29.7894545 C48,30.2948571 47.5916962,30.705039 47.0886076,30.705039 L44.4309873,30.705039 L44.4309873,32.5899221 L47.0886076,32.5899221 C47.5916962,32.5899221 48,33.0001039 48,33.5055065 Z M46.1772152,45.1688312 L46.1772152,34.4210909 L41.4173165,34.4210909 L41.4173165,45.1688312 L46.1772152,45.1688312 Z M46.1772152,28.8738701 L46.1772152,18.1261299 L41.4173165,18.1261299 L41.4173165,28.8738701 L46.1772152,28.8738701 L46.1772152,28.8738701 Z M46.1772152,12.5789091 L46.1772152,1.83116883 L41.4173165,1.83116883 L41.4173165,12.5789091 L46.1772152,12.5789091 Z M42.6082025,32.5899221 L42.6082025,30.705039 L5.39179747,30.705039 L5.39179747,32.5899221 L42.6082025,32.5899221 Z M42.6082025,16.294961 L42.6082025,14.4100779 L5.39179747,14.4100779 L5.39179747,16.294961 L42.6082025,16.294961 Z M39.5945316,45.1688312 L39.5945316,34.4210909 L34.8540759,34.4210909 L34.8540759,45.1688312 L39.5945316,45.1688312 Z M39.5945316,28.8738701 L39.5945316,18.1261299 L34.8540759,18.1261299 L34.8540759,28.8738701 L39.5945316,28.8738701 L39.5945316,28.8738701 Z M39.5945316,12.5789091 L39.5945316,1.83116883 L34.8540759,1.83116883 L34.8540759,12.5789091 L39.5945316,12.5789091 Z M33.0312911,45.1688312 L33.0312911,34.4210909 L1.82278481,34.4210909 L1.82278481,45.1688312 L33.0312911,45.1688312 Z M33.0312911,28.8738701 L33.0312911,18.1261299 L1.82278481,18.1261299 L1.82278481,28.8738701 L33.0312911,28.8738701 L33.0312911,28.8738701 Z M33.0312911,12.5789091 L33.0312911,1.83116883 L1.82278481,1.83116883 L1.82278481,12.5789091 L33.0312911,12.5789091 Z"/><rect id="Rectangle-path" width="4.76" height="10.748" x="41.417" y="34.421" fill="#3DD0F2"/><rect id="Rectangle-path" width="4.76" height="10.748" x="41.417" y="18.126" fill="#3DD0F2"/><rect id="Rectangle-path" width="4.76" height="10.748" x="41.417" y="1.831" fill="#3DD0F2"/><path id="Shape" fill="#3DD0F2" d="M33.0312911,34.4210909 L33.0312911,45.1688312 L1.82278481,45.1688312 L1.82278481,34.4210909 L33.0312911,34.4210909 Z M9.11392405,39.794961 C9.11392405,39.5544675 9.01670886,39.3176364 8.84658228,39.1479481 C8.6764557,38.977039 8.44192405,38.8793766 8.20253165,38.8793766 C7.96192405,38.8793766 7.72739241,38.977039 7.55726582,39.1479481 C7.38835443,39.3188571 7.29113924,39.5544675 7.29113924,39.794961 C7.29113924,40.0354545 7.38835443,40.2722857 7.55726582,40.441974 C7.72739241,40.6128831 7.96192405,40.7105455 8.20253165,40.7105455 C8.44192405,40.7105455 8.6764557,40.6128831 8.84658228,40.441974 C9.01670886,40.2722857 9.11392405,40.0366753 9.11392405,39.794961 Z M6.19746835,39.794961 C6.19746835,39.5544675 6.10025316,39.3188571 5.93012658,39.1479481 C5.76,38.977039 5.52546835,38.8793766 5.28607595,38.8793766 C5.04546835,38.8793766 4.81093671,38.977039 4.64081013,39.1479481 C4.47189873,39.3176364 4.37468354,39.5544675 4.37468354,39.794961 C4.37468354,40.0366753 4.47189873,40.2722857 4.64081013,40.441974 C4.81093671,40.6128831 5.04546835,40.7105455 5.28607595,40.7105455 C5.52546835,40.7105455 5.76,40.6128831 5.93012658,40.441974 C6.10025316,40.2722857 6.19746835,40.0354545 6.19746835,39.794961 Z"/><path id="Shape" fill="#3DD0F2" d="M33.0312911,18.1261299 L33.0312911,28.8738701 L1.82278481,28.8738701 L1.82278481,18.1261299 L33.0312911,18.1261299 L33.0312911,18.1261299 Z M9.11392405,23.5 C9.11392405,23.2595065 9.01670886,23.0226753 8.84658228,22.852987 C8.6764557,22.6820779 8.44192405,22.5844156 8.20253165,22.5844156 C7.96192405,22.5844156 7.72739241,22.6820779 7.55726582,22.852987 C7.38835443,23.0226753 7.29113924,23.2595065 7.29113924,23.5 C7.29113924,23.7417143 7.38835443,23.9773247 7.55726582,24.147013 C7.72739241,24.3179221 7.96192405,24.4155844 8.20253165,24.4155844 C8.44192405,24.4155844 8.6764557,24.3179221 8.84658228,24.147013 C9.01670886,23.9773247 9.11392405,23.7417143 9.11392405,23.5 Z M6.19746835,23.5 C6.19746835,23.2595065 6.10025316,23.0226753 5.93012658,22.852987 C5.76,22.6820779 5.52546835,22.5844156 5.28607595,22.5844156 C5.04546835,22.5844156 4.81093671,22.6820779 4.64081013,22.852987 C4.47189873,23.0226753 4.37468354,23.2595065 4.37468354,23.5 C4.37468354,23.7404935 4.47189873,23.9773247 4.64081013,24.147013 C4.81093671,24.3179221 5.04546835,24.4155844 5.28607595,24.4155844 C5.52546835,24.4155844 5.76,24.3179221 5.93012658,24.147013 C6.10025316,23.9773247 6.19746835,23.7404935 6.19746835,23.5 Z"/><path id="Shape" fill="#3DD0F2" d="M33.0312911,1.83116883 L33.0312911,12.5789091 L1.82278481,12.5789091 L1.82278481,1.83116883 L33.0312911,1.83116883 Z M9.11392405,7.20503896 C9.11392405,6.96454545 9.01670886,6.72771429 8.84658228,6.55802597 C8.6764557,6.38711688 8.44192405,6.28945455 8.20253165,6.28945455 C7.96192405,6.28945455 7.72739241,6.38711688 7.55726582,6.55802597 C7.38835443,6.72771429 7.29113924,6.96454545 7.29113924,7.20503896 C7.29113924,7.44553247 7.38835443,7.68236364 7.55726582,7.85205195 C7.72739241,8.02296104 7.96192405,8.12062338 8.20253165,8.12062338 C8.44192405,8.12062338 8.6764557,8.02296104 8.84658228,7.85205195 C9.01670886,7.68236364 9.11392405,7.44553247 9.11392405,7.20503896 Z M6.19746835,7.20503896 C6.19746835,6.96454545 6.10025316,6.72771429 5.93012658,6.55802597 C5.76,6.38711688 5.52546835,6.28945455 5.28607595,6.28945455 C5.04546835,6.28945455 4.81093671,6.38711688 4.64081013,6.55802597 C4.47189873,6.72771429 4.37468354,6.96454545 4.37468354,7.20503896 C4.37468354,7.44553247 4.47189873,7.68236364 4.64081013,7.85205195 C4.81093671,8.02296104 5.04546835,8.12062338 5.28607595,8.12062338 C5.52546835,8.12062338 5.76,8.02296104 5.93012658,7.85205195 C6.10025316,7.68236364 6.19746835,7.44553247 6.19746835,7.20503896 Z"/><path id="Shape" fill="#000" d="M8.84658228,6.55802597 C9.01670886,6.72771429 9.11392405,6.96454545 9.11392405,7.20503896 C9.11392405,7.44553247 9.01670886,7.68236364 8.84658228,7.85205195 C8.6764557,8.02296104 8.44192405,8.12062338 8.20253165,8.12062338 C7.96192405,8.12062338 7.72739241,8.02296104 7.55726582,7.85205195 C7.38835443,7.68236364 7.29113924,7.44553247 7.29113924,7.20503896 C7.29113924,6.96454545 7.38835443,6.72771429 7.55726582,6.55802597 C7.72739241,6.38711688 7.96192405,6.28945455 8.20253165,6.28945455 C8.44192405,6.28945455 8.6764557,6.38711688 8.84658228,6.55802597 Z"/><path id="Shape" fill="#000" d="M8.84658228,22.852987 C9.01670886,23.0226753 9.11392405,23.2595065 9.11392405,23.5 C9.11392405,23.7417143 9.01670886,23.9773247 8.84658228,24.147013 C8.6764557,24.3179221 8.44192405,24.4155844 8.20253165,24.4155844 C7.96192405,24.4155844 7.72739241,24.3179221 7.55726582,24.147013 C7.38835443,23.9773247 7.29113924,23.7417143 7.29113924,23.5 C7.29113924,23.2595065 7.38835443,23.0226753 7.55726582,22.852987 C7.72739241,22.6820779 7.96192405,22.5844156 8.20253165,22.5844156 C8.44192405,22.5844156 8.6764557,22.6820779 8.84658228,22.852987 Z"/><path id="Shape" fill="#000" d="M8.84658228,39.1479481 C9.01670886,39.3176364 9.11392405,39.5544675 9.11392405,39.794961 C9.11392405,40.0366753 9.01670886,40.2722857 8.84658228,40.441974 C8.6764557,40.6128831 8.44192405,40.7105455 8.20253165,40.7105455 C7.96192405,40.7105455 7.72739241,40.6128831 7.55726582,40.441974 C7.38835443,40.2722857 7.29113924,40.0354545 7.29113924,39.794961 C7.29113924,39.5544675 7.38835443,39.3188571 7.55726582,39.1479481 C7.72739241,38.977039 7.96192405,38.8793766 8.20253165,38.8793766 C8.44192405,38.8793766 8.6764557,38.977039 8.84658228,39.1479481 Z"/><path id="Shape" fill="#000" d="M5.93012658,6.55802597 C6.10025316,6.72771429 6.19746835,6.96454545 6.19746835,7.20503896 C6.19746835,7.44553247 6.10025316,7.68236364 5.93012658,7.85205195 C5.76,8.02296104 5.52546835,8.12062338 5.28607595,8.12062338 C5.04546835,8.12062338 4.81093671,8.02296104 4.64081013,7.85205195 C4.47189873,7.68236364 4.37468354,7.44553247 4.37468354,7.20503896 C4.37468354,6.96454545 4.47189873,6.72771429 4.64081013,6.55802597 C4.81093671,6.38711688 5.04546835,6.28945455 5.28607595,6.28945455 C5.52546835,6.28945455 5.76,6.38711688 5.93012658,6.55802597 Z"/><path id="Shape" fill="#000" d="M5.93012658,22.852987 C6.10025316,23.0226753 6.19746835,23.2595065 6.19746835,23.5 C6.19746835,23.7404935 6.10025316,23.9773247 5.93012658,24.147013 C5.76,24.3179221 5.52546835,24.4155844 5.28607595,24.4155844 C5.04546835,24.4155844 4.81093671,24.3179221 4.64081013,24.147013 C4.47189873,23.9773247 4.37468354,23.7404935 4.37468354,23.5 C4.37468354,23.2595065 4.47189873,23.0226753 4.64081013,22.852987 C4.81093671,22.6820779 5.04546835,22.5844156 5.28607595,22.5844156 C5.52546835,22.5844156 5.76,22.6820779 5.93012658,22.852987 Z"/><path id="Shape" fill="#000" d="M5.93012658,39.1479481 C6.10025316,39.3188571 6.19746835,39.5544675 6.19746835,39.794961 C6.19746835,40.0354545 6.10025316,40.2722857 5.93012658,40.441974 C5.76,40.6128831 5.52546835,40.7105455 5.28607595,40.7105455 C5.04546835,40.7105455 4.81093671,40.6128831 4.64081013,40.441974 C4.47189873,40.2722857 4.37468354,40.0366753 4.37468354,39.794961 C4.37468354,39.5544675 4.47189873,39.3176364 4.64081013,39.1479481 C4.81093671,38.977039 5.04546835,38.8793766 5.28607595,38.8793766 C5.52546835,38.8793766 5.76,38.977039 5.93012658,39.1479481 Z"/></g><g id="&lt;?php-$things-=-arra" transform="translate(1122.000000, 156.000000)"><mask id="mask-7" fill="#fff"><use xlink:href="#path-6"/></mask><g id="fgfgfg"><use fill="#000" fill-opacity="1" filter="url(#filter-8)" xlink:href="#path-6"/><use fill="#FFF56B" fill-rule="evenodd" xlink:href="#path-6"/><circle cx="46" cy="46" r="49" stroke="#FFF" stroke-opacity="0" stroke-width="6"/></g></g><g id="&lt;?php-$things-=-arra-copy" transform="translate(1122.000000, 314.000000)"><mask id="mask-10" fill="#fff"><use xlink:href="#path-9"/></mask><g id="fgfgfg"><use fill="#000" fill-opacity="1" filter="url(#filter-11)" xlink:href="#path-9"/><use fill="#FFF56B" fill-rule="evenodd" xlink:href="#path-9"/><circle cx="46" cy="46" r="49" stroke="#FFF" stroke-opacity="0" stroke-width="6"/></g></g><text id="Your-web-app" fill="#FFF" font-family="GillSans, Gill Sans" font-size="24" font-weight="normal"><tspan x="1104.25" y="275">Your web app</tspan></text><text id="Your-desktop-app" fill="#FFF" font-family="GillSans, Gill Sans" font-size="24" font-weight="normal"><tspan x="1105.879" y="432">Your desktop </tspan> <tspan x="1153.996" y="460">app</tspan></text><text id="Your-mobile-app" fill="#FFF" font-family="GillSans, Gill Sans" font-size="24" font-weight="normal"><tspan x="1089.506" y="119">Your mobile app</tspan></text><g id="Path-10" stroke="#FFF" opacity=".63"><use stroke-width="5" xlink:href="#path-12"/><use stroke-width="1" xlink:href="#path-12"/></g><path id="Path-10-Copy" stroke="#E0C1EE" stroke-width="5" d="M775,367.014895 C992.076744,367.014895 955.445868,232 1088.95118,232" transform="translate(931.975588, 299.507448) scale(1, -1) translate(-931.975588, -299.507448)"/><g id="&lt;?php-$things-=-arra" transform="translate(1120.000000, 0.000000)"><mask id="mask-14" fill="#fff"><use xlink:href="#path-13"/></mask><g id="Mask"><use fill="#000" fill-opacity="1" filter="url(#filter-15)" xlink:href="#path-13"/><use fill="#FFF56B" fill-rule="evenodd" xlink:href="#path-13"/><circle cx="46" cy="46" r="49" stroke="#FFF" stroke-opacity="0" stroke-width="6"/></g></g><g id="mac" fill-rule="nonzero" transform="translate(1138.000000, 334.000000)"><path id="Shape" fill="#50A5DC" d="M57.8795168,1.24327352 L4.10525941,1.24327352 C2.51597228,1.24327352 1.22772277,2.6649628 1.22772277,4.41873085 L1.22772277,8.35625383 L1.22772277,34.9413042 L60.7569307,34.9413042 L60.7569307,8.35625383 L60.7569307,4.41873085 C60.7569307,2.6649628 59.4686812,1.24327352 57.8795168,1.24327352 Z"/><g id="Group" transform="translate(1.227723, 34.923414)"><path id="Shape" fill="#C7EBFF" d="M0,0.0178905908 L0,9.2902407 C0,11.0440088 1.2882495,12.465698 2.87753663,12.465698 L56.6517941,12.465698 C58.2409584,12.465698 59.5293307,11.0440088 59.5293307,9.2902407 L59.5293307,0.0178905908 L0,0.0178905908 Z M29.7646653,8.40110284 C28.5347327,8.40110284 27.5375762,7.40584683 27.5375762,6.17825821 C27.5375762,4.95066958 28.5346099,3.95541357 29.7646653,3.95541357 C30.9947208,3.95541357 31.9917545,4.95054705 31.9917545,6.17825821 C31.9917545,7.40596937 30.994598,8.40110284 29.7646653,8.40110284 Z"/><ellipse id="Oval" cx="29.765" cy="6.178" fill="#50A5DC" rx="2.227" ry="2.223"/></g><polygon id="Shape" fill="#C7EBFF" points="36.21 54.741 25.775 54.741 28.23 47.389 33.755 47.389"/><g id="Group" fill="#000"><path id="Shape" d="M61.9846535,4.41885339 C61.9846535,1.99222757 60.1430693,0.0180131291 57.8793941,0.0180131291 L4.10513663,0.0180131291 C1.84158416,0.0178905908 0,1.99222757 0,4.41885339 L0,44.2137768 C0,46.6404026 1.84158416,48.6144945 4.10525941,48.6144945 L26.5265465,48.6144945 L24.8896238,53.5160263 L21.7230812,53.5160263 C21.0451327,53.5160263 20.4953584,54.0647527 20.4953584,54.7414092 C20.4953584,55.4180656 21.0451327,55.9667921 21.7230812,55.9667921 L25.7745663,55.9667921 L36.2102099,55.9667921 L40.261695,55.9667921 C40.9396436,55.9667921 41.4894178,55.4180656 41.4894178,54.7414092 C41.4894178,54.0647527 40.9396436,53.5160263 40.261695,53.5160263 L37.0951525,53.5160263 L35.4582297,48.6144945 L57.8795168,48.6144945 C60.1431921,48.6144945 61.9847762,46.6404026 61.9847762,44.2137768 L61.9847762,4.41885339 L61.9846535,4.41885339 Z M2.45544554,4.41885339 C2.45544554,3.34357987 3.19551683,2.46877899 4.10525941,2.46877899 L57.8795168,2.46877899 C58.7891366,2.46877899 59.5293307,3.34357987 59.5293307,4.41885339 L59.5293307,33.7160438 L2.45544554,33.7160438 L2.45544554,4.41885339 Z M34.5067446,53.5160263 L27.4777861,53.5160263 L29.1148317,48.6144945 L32.869699,48.6144945 L34.5067446,53.5160263 Z M59.5292079,44.2136543 C59.5292079,45.2888053 58.7891366,46.1636061 57.8793941,46.1636061 L33.7546416,46.1636061 L28.2298891,46.1636061 L4.10513663,46.1636061 C3.19551683,46.1636061 2.45532277,45.2888053 2.45532277,44.2136543 L2.45532277,36.1666871 L59.5290851,36.1666871 L59.5292079,44.2136543 L59.5292079,44.2136543 Z"/><path id="Shape" d="M30.9923881,44.5498993 C32.8974455,44.5498993 34.4472,43.0030985 34.4472,41.1016718 C34.4472,39.2002451 32.8974455,37.6534442 30.9923881,37.6534442 C29.0873307,37.6534442 27.5375762,39.2002451 27.5375762,41.1016718 C27.5375762,43.0030985 29.0873307,44.5498993 30.9923881,44.5498993 Z M30.9923881,40.1042101 C31.5433901,40.1042101 31.9917545,40.5515974 31.9917545,41.1016718 C31.9917545,41.6517462 31.5435129,42.0991335 30.9923881,42.0991335 C30.4412634,42.0991335 29.9930218,41.6517462 29.9930218,41.1016718 C29.9930218,40.5515974 30.4412634,40.1042101 30.9923881,40.1042101 Z"/><path id="Shape" d="M6.00000396,14.0230372 C5.32205545,14.0230372 4.77228119,14.5717637 4.77228119,15.2484201 L4.77228119,30.2417155 C4.77228119,30.918372 5.32205545,31.4670985 6.00000396,31.4670985 C6.67795248,31.4670985 7.22772673,30.918372 7.22772673,30.2417155 L7.22772673,15.2484201 C7.22772673,14.5716411 6.67807525,14.0230372 6.00000396,14.0230372 Z"/><path id="Shape" d="M6.00000396,4.71012691 C5.32205545,4.71012691 4.77228119,5.25885339 4.77228119,5.93550985 L4.77228119,10.7719737 C4.77228119,11.4486302 5.32205545,11.9973567 6.00000396,11.9973567 C6.67795248,11.9973567 7.22772673,11.4486302 7.22772673,10.7719737 L7.22772673,5.93550985 C7.22772673,5.25873085 6.67807525,4.71012691 6.00000396,4.71012691 Z"/></g></g><g id="laptop-(2)" fill-rule="nonzero" transform="translate(1132.000000, 179.000000)"><rect id="Rectangle-path" width="4.963" height="4.929" x="15.708" y="36.007" fill="#ACACAD"/><rect id="Rectangle-path" width="2.482" height="4.929" x="15.708" y="36.007" fill="#C7EBFF"/><rect id="Rectangle-path" width="4.963" height="4.929" x="55.049" y="36.007" fill="#ACACAD"/><rect id="Rectangle-path" width="2.482" height="4.929" x="55.049" y="36.007" fill="#C7EBFF"/><path id="Shape" fill="#C7EBFF" d="M6.1609375,44.870125 L69.5579687,44.870125 C70.8149609,44.870125 71.8340625,43.8496369 71.8340625,42.5910714 C71.8340625,41.332369 70.8149609,40.3120179 69.5579687,40.3120179 L6.1609375,40.3120179 C4.90394531,40.3120179 3.88498047,41.332506 3.88498047,42.5910714 C3.88511719,43.8492262 4.90367187,44.870125 6.1609375,44.870125"/><path id="Shape" fill="#50A5DC" d="M62.2931745,0 L11.706941,0 C10.2118752,0 9,1.51912193 9,3.393081 L9,7.60045431 L9,36.0074583 L65,36.0074583 L65,7.60045431 L65,3.393081 C65,1.51912193 63.7881248,0 62.2931745,0 Z"/><path id="Shape" fill="#000" d="M12.000004,14.0230372 C11.3220554,14.0230372 10.7722812,14.5717637 10.7722812,15.2484201 L10.7722812,30.2417155 C10.7722812,30.918372 11.3220554,31.4670985 12.000004,31.4670985 C12.6779525,31.4670985 13.2277267,30.918372 13.2277267,30.2417155 L13.2277267,15.2484201 C13.2277267,14.5716411 12.6780752,14.0230372 12.000004,14.0230372 Z"/><path id="Shape" fill="#000" d="M12.000004,4.71012691 C11.3220554,4.71012691 10.7722812,5.25885339 10.7722812,5.93550985 L10.7722812,10.7719737 C10.7722812,11.4486302 11.3220554,11.9973567 12.000004,11.9973567 C12.6779525,11.9973567 13.2277267,11.4486302 13.2277267,10.7719737 L13.2277267,5.93550985 C13.2277267,5.25873085 12.6780752,4.71012691 12.000004,4.71012691 Z"/><g id="Group" fill="#231F20"><path id="Shape" d="M66.6983789,39.1817321 L58.1776563,39.1817321 L58.1776563,37.3574762 L60.2109375,37.3574762 C61.9218359,37.3574762 63.3137695,35.9635119 63.3137695,34.2501488 L63.3137695,13.7006071 C63.3137695,13.1334107 62.8548047,12.6736845 62.2882422,12.6736845 C61.7216797,12.6736845 61.2627148,13.1332738 61.2627148,13.7006071 L61.2627148,34.2500119 C61.2627148,34.8308988 60.7908984,35.303631 60.2108008,35.303631 L9.78919922,35.303631 C9.20910156,35.303631 8.73701172,34.8310357 8.73701172,34.2500119 L8.73701172,3.10732738 C8.73701172,2.52644048 9.20896484,2.05370833 9.78919922,2.05370833 L60.2109375,2.05370833 C60.7908984,2.05370833 61.2628516,2.52630357 61.2628516,3.10732738 L61.2628516,10.3234405 C61.2628516,10.8906369 61.7218164,11.3503631 62.2883789,11.3503631 C62.8549414,11.3503631 63.3139062,10.8907738 63.3139062,10.3234405 L63.3139062,3.10732738 C63.3139062,1.39382738 61.9218359,0 60.2110742,0 L9.78919922,0 C8.07816406,0 6.68609375,1.39396429 6.68609375,3.10732738 L6.68609375,34.2500119 C6.68609375,35.9635119 8.07816406,37.3573393 9.78919922,37.3573393 L11.8224805,37.3573393 L11.8224805,39.1815952 L3.30148437,39.1815952 C1.48107422,39.1817321 0,40.6648214 0,42.4877083 C0,44.3105952 1.48107422,45.7936845 3.30148437,45.7936845 L9.89105469,45.7936845 C10.4573437,45.7936845 10.916582,45.3340952 10.916582,44.7667619 C10.916582,44.1994286 10.4574805,43.7398393 9.89105469,43.7398393 L3.30148437,43.7398393 C2.61201172,43.7398393 2.05091797,43.1779821 2.05091797,42.4875714 C2.05091797,41.7972976 2.611875,41.2353036 3.30148437,41.2353036 L66.6985156,41.2353036 C67.3879883,41.2353036 67.949082,41.7971607 67.949082,42.4875714 C67.949082,43.1778452 67.3879883,43.7398393 66.6985156,43.7398393 L13.4460156,43.7398393 C12.8797266,43.7398393 12.4204883,44.1994286 12.4204883,44.7667619 C12.4204883,45.3340952 12.8795898,45.7936845 13.4460156,45.7936845 L66.6983789,45.7936845 C68.5187891,45.7936845 69.9998633,44.3105952 69.9998633,42.4877083 C69.9998633,40.6648214 68.5189258,39.1817321 66.6983789,39.1817321 Z M51.1639844,37.3573393 L51.1639844,39.1815952 L18.8362891,39.1815952 L18.8362891,37.3573393 L51.1639844,37.3573393 Z M13.8736719,39.1817321 L13.8736719,37.3574762 L16.7853711,37.3574762 L16.7853711,39.1817321 L13.8736719,39.1817321 Z M53.2149023,39.1817321 L53.2149023,37.3574762 L56.1266016,37.3574762 L56.1266016,39.1817321 L53.2149023,39.1817321 Z"/></g></g><g id="iphone" transform="translate(1152.000000, 19.000000)"><path id="Shape" fill="#231F20" fill-rule="nonzero" d="M11.8086095,3.59996484 C11.3101058,3.59996484 10.909927,4.00317188 10.909927,4.49992969 C10.909927,4.9966875 11.3181496,5.39989453 11.8176058,5.39989453 C12.317062,5.39989453 12.7207336,4.9966875 12.7207336,4.49992969 C12.7207336,4.00317188 12.317062,3.59996484 11.8176058,3.59996484 L11.8086095,3.59996484 Z"/><path id="Rectangle" fill="#C7EBFF" d="M1,5 C1,2.790861 2.79412025,1 4.99683887,1 L25.0031611,1 C27.2105543,1 29,2.79535615 29,5 L29,9 L1,9 L1,5 Z"/><path id="Rectangle-Copy" fill="#C7EBFF" d="M1,48 C1,45.2385763 3.24402624,43 6.00583887,43 L23.9941611,43 C26.7588096,43 29,45.2441952 29,48 L29,53 L1,53 L1,48 Z" transform="translate(15.000000, 48.000000) scale(1, -1) translate(-15.000000, -48.000000)"/><path id="Shape" fill="#231F20" fill-rule="nonzero" d="M12.6936387,48.6 C12.6936387,49.5926719 13.5037336,50.4000352 14.5,50.4000352 C15.4961606,50.4000352 16.3063613,49.5927773 16.3063613,48.6 C16.3063613,47.6073281 15.4962664,46.7999648 14.5,46.7999648 C13.5038394,46.7999648 12.6936387,47.6073281 12.6936387,48.6 Z"/><rect id="Rectangle-2" width="28" height="34" x="1" y="9" fill="#50A5DC"/><path id="Shape" fill="#231F20" fill-rule="nonzero" d="M0.952554745,41.3999648 C1.45105839,41.3999648 1.85568248,40.9967578 1.85568248,40.5 L1.85568248,4.50003516 C1.85568248,3.18779297 3.24831752,1.80003516 4.56517153,1.80003516 L24.4347226,1.80003516 C25.7515766,1.80003516 27.1442117,3.18779297 27.1442117,4.50003516 C27.1442117,4.99679297 27.5488358,5.4 28.0473394,5.4 C28.5458431,5.4 28.9504672,4.99679297 28.9504672,4.50003516 C28.950573,2.187 26.7558869,0 24.4348285,0 L4.56517153,0 C2.2440073,0 0.0493211679,2.187 0.0493211679,4.50003516 L0.0493211679,40.5 C0.0494270073,40.9967578 0.454051095,41.3999648 0.952554745,41.3999648 Z"/><path id="Shape" fill="#231F20" fill-rule="nonzero" d="M15.4031277,3.59996484 C14.9046241,3.59996484 14.5,4.00317188 14.5,4.49992969 C14.5,4.9966875 14.9046241,5.39989453 15.4031277,5.39989453 L19.0157445,5.39989453 C19.5142482,5.39989453 19.9188723,4.9966875 19.9188723,4.49992969 C19.9188723,4.00317188 19.5142482,3.59996484 19.0157445,3.59996484 L15.4031277,3.59996484 Z"/><path id="Shape" fill="#231F20" fill-rule="nonzero" d="M22.6284672,16.2 C22.8597263,16.2 23.0908796,16.1118281 23.2669964,15.9363281 C23.6201825,15.5843789 23.6201825,15.0155859 23.2669964,14.6637422 L21.460635,12.863707 C21.1074489,12.5118633 20.5366569,12.5118633 20.1835766,12.863707 C19.8304964,13.2156563 19.8304964,13.7844492 20.1835766,14.136293 L21.989938,15.9363281 C22.1660547,16.1118281 22.397208,16.2 22.6284672,16.2 Z"/><path id="Shape" fill="#231F20" fill-rule="nonzero" d="M14.7645985,12.863707 C14.4115182,13.2156562 14.4115182,13.7844492 14.7645985,14.136293 L21.989938,21.3363281 C22.1660547,21.5118281 22.3973139,21.6 22.6284672,21.6 C22.8597263,21.6 23.0908796,21.5118281 23.2669964,21.3363281 C23.6201825,20.9843789 23.6201825,20.4155859 23.2669964,20.0637422 L16.0416569,12.863707 C15.6885766,12.5117578 15.1177847,12.5117578 14.7645985,12.863707 Z"/><path id="Shape" fill="#231F20" fill-rule="nonzero" d="M28.0474453,7.20003516 L4.56517153,7.20003516 C4.06666788,7.20003516 3.6620438,7.60324219 3.6620438,8.1 C3.6620438,8.59675781 4.06666788,8.99996484 4.56517153,8.99996484 L27.1442117,8.99996484 L27.1442117,49.4999648 C27.1442117,50.812207 25.7515766,52.1999648 24.4347226,52.1999648 L4.56517153,52.1999648 C3.24831752,52.1999648 1.85568248,50.812207 1.85568248,49.4999648 L1.85568248,44.9999297 L24.4347226,44.9999297 C24.9332263,44.9999297 25.3378504,44.5967227 25.3378504,44.0999648 C25.3378504,43.603207 24.9332263,43.2 24.4347226,43.2 L0.952554745,43.2 C0.454051095,43.2 0.0494270073,43.603207 0.0494270073,44.0999648 L0.0494270073,49.4999648 C0.0494270073,51.813 2.24411314,54 4.56527737,54 L24.4348285,54 C26.7559927,54 28.9506788,51.813 28.9506788,49.4999648 L28.9506788,8.1 C28.950573,7.60324219 28.5459489,7.20003516 28.0474453,7.20003516 Z"/></g></g></g></g></svg>