<?xml version="1.0" encoding="UTF-8"?>
<svg width="1330px" height="497px" viewBox="0 0 1330 497" version="1.1" xmlns="http://www.w3.org/2000/svg" xmlns:xlink="http://www.w3.org/1999/xlink">
    <!-- Generator: Sketch 44.1 (41455) - http://www.bohemiancoding.com/sketch -->
    <title>Group 5</title>
    <desc>Created with Sketch.</desc>
    <style>
        * {
            font-family: 'Roboto', sans-serif;
        }
    </style>
    <defs>
        <path d="M244.323387,177.375236 C270.199186,177.375236 291.175318,156.41483 291.175318,130.55913 C291.175318,108.348694 275.690896,89.7636873 254.924021,84.9618902 C254.499269,37.9672898 216.248408,0 169.116901,0 C136.758684,0 108.588434,17.897659 93.9671243,44.3239761 C89.5182948,42.4001974 84.6146581,41.3292278 79.459233,41.3292278 C60.8869999,41.3292278 45.5590949,55.1674019 43.212472,73.0854604 C19.0458853,77.8736579 0.82468154,99.1695205 0.82468154,124.723196 C0.82468154,153.802571 24.4162379,177.375236 53.5170841,177.375236 L244.323387,177.375236 Z" id="path-1"></path>
        <circle id="path-3" cx="46" cy="46" r="46"></circle>
        <filter x="-7.6%" y="-5.4%" width="115.2%" height="115.2%" filterUnits="objectBoundingBox" id="filter-5">
            <feOffset dx="0" dy="2" in="SourceAlpha" result="shadowOffsetOuter1"></feOffset>
            <feGaussianBlur stdDeviation="2" in="shadowOffsetOuter1" result="shadowBlurOuter1"></feGaussianBlur>
            <feColorMatrix values="0 0 0 0 0   0 0 0 0 0   0 0 0 0 0  0 0 0 0.232450181 0" type="matrix" in="shadowBlurOuter1"></feColorMatrix>
        </filter>
        <circle id="path-6" cx="46" cy="46" r="46"></circle>
        <filter x="-7.6%" y="-5.4%" width="115.2%" height="115.2%" filterUnits="objectBoundingBox" id="filter-8">
            <feOffset dx="0" dy="2" in="SourceAlpha" result="shadowOffsetOuter1"></feOffset>
            <feGaussianBlur stdDeviation="2" in="shadowOffsetOuter1" result="shadowBlurOuter1"></feGaussianBlur>
            <feColorMatrix values="0 0 0 0 0   0 0 0 0 0   0 0 0 0 0  0 0 0 0.232450181 0" type="matrix" in="shadowBlurOuter1"></feColorMatrix>
        </filter>
        <path d="M775,197.014895 C992.076744,197.014895 955.445868,62 1088.95118,62" id="path-9"></path>
        <circle id="path-10" cx="46" cy="46" r="46"></circle>
        <filter x="-14.1%" y="-12.0%" width="128.3%" height="128.3%" filterUnits="objectBoundingBox" id="filter-12">
            <feMorphology radius="6" operator="dilate" in="SourceAlpha" result="shadowSpreadOuter1"></feMorphology>
            <feOffset dx="0" dy="2" in="shadowSpreadOuter1" result="shadowOffsetOuter1"></feOffset>
            <feGaussianBlur stdDeviation="2" in="shadowOffsetOuter1" result="shadowBlurOuter1"></feGaussianBlur>
            <feComposite in="shadowBlurOuter1" in2="SourceAlpha" operator="out" result="shadowBlurOuter1"></feComposite>
            <feColorMatrix values="0 0 0 0 0   0 0 0 0 0   0 0 0 0 0  0 0 0 0.232450181 0" type="matrix" in="shadowBlurOuter1"></feColorMatrix>
        </filter>
        <circle id="path-13" cx="27.5" cy="27.5" r="27.5"></circle>
        <circle id="path-14" cx="46" cy="46" r="46"></circle>
        <filter x="-7.6%" y="-5.4%" width="115.2%" height="115.2%" filterUnits="objectBoundingBox" id="filter-16">
            <feOffset dx="0" dy="2" in="SourceAlpha" result="shadowOffsetOuter1"></feOffset>
            <feGaussianBlur stdDeviation="2" in="shadowOffsetOuter1" result="shadowBlurOuter1"></feGaussianBlur>
            <feColorMatrix values="0 0 0 0 0   0 0 0 0 0   0 0 0 0 0  0 0 0 0.232450181 0" type="matrix" in="shadowBlurOuter1"></feColorMatrix>
        </filter>
    </defs>
    <g id="pages" stroke="none" stroke-width="1" fill="none" fill-rule="evenodd">
        <g id="api---4" transform="translate(-101.000000, -326.000000)">
            <g id="Group-5" transform="translate(101.000000, 331.000000)">
                <g id="Group-4-Copy" transform="translate(776.000000, 226.000000)" stroke="#FFFFFF" stroke-width="5" stroke-linecap="square" opacity="0.634057971">
                    <path d="M0.5,1.5 L308.5,1.5" id="Line"></path>
                </g>
                <text id="Team-I" font-family="GillSans, Gill Sans" font-size="24" font-weight="normal" fill="#FFFFFF">
                    <tspan x="1268.0957" y="31">Team I</tspan>
                </text>
                <text id="Team-II" font-family="GillSans, Gill Sans" font-size="24" font-weight="normal" fill="#FFFFFF">
                    <tspan x="1253.0957" y="376">Team II</tspan>
                </text>
                <g id="cloud" transform="translate(458.000000, 116.000000)">
                    <mask id="mask-2" fill="white">
                        <use xlink:href="#path-1"></use>
                    </mask>
                    <use id="Mask" stroke-opacity="0.341145833" stroke="#FFFFFF" stroke-width="7" fill-opacity="0.0730865036" fill="#FFFFFF" fill-rule="nonzero" xlink:href="#path-1"></use>
                    <text id="api.vput.eu/v1/trans" mask="url(#mask-2)" font-family="GillSans-Light, Gill Sans" font-size="14" font-weight="300" fill="#FFFFFF">
                        <tspan x="-39" y="-6">api.vput.eu/v1/transfers   GET   [ list of transfers for client ]   /App/Transfer/.../TransferController.php@index  </tspan>
                        <tspan x="-39" y="10">api.vput.eu/v1/transfers/   POST   boolean     /App/Transfer/.../TransferController.php@store</tspan>
                        <tspan x="-39" y="26">api.vput.eu/v1/transfers/aeroports   GET   [ list of transfers for client ]   /App/Transfer/.../TransferController.php@aeroports</tspan>
                        <tspan x="-39" y="42">api.vput.eu/v1/transfers/cities   GET   [ list of transfers for client ]   /App/Transfer/.../TransferController.php@cities</tspan>
                        <tspan x="-39" y="58">api.vput.eu/v1/transfers/{id}   PUT   boolean   /App/Transfer/.../TransferController.php@update</tspan>
                        <tspan x="-39" y="74">api.vput.eu/v1/transfers/{id}/cancel   PUT   int   /App/Transfer/.../TransferController.php@cancel</tspan>
                        <tspan x="-39" y="90">api.vput.eu/v1/transfers/price/{cityId}/{aeroportId}/{passengers}   GET   int  /App/Transfer/.../TransferController.php@price</tspan>
                        <tspan x="-39" y="106">api.vput.eu/v1/bookings/transfers   GET  [ list of transfers for client and bookings ]   /App/Booking/.../TransferController.php@index</tspan>
                        <tspan x="-39" y="122">api.vput.eu/v1/bookings/transfers/{id}/cancel   PUT  int   /App/Booking/.../TransferController.php@cancel</tspan>
                        <tspan x="-39" y="138">api.vput.eu/v1/admin/transfers/statuses  GET [ list of transfers statuses ]  /App/Transfer/.../TransferAdminController.php@statuses</tspan>
                        <tspan x="-39" y="154">api.vput.eu/v1/admin/transfers/carTypes	GET	    [ list of transfers car types ]   /App/Transfer/.../</tspan>
                        <tspan x="-39" y="170">TransferAdminController.php@carTypes</tspan>
                        <tspan x="-39" y="186">api.vput.eu/v1/admin/transfers/aeroports	GET	  [ list of transfers statuses ]   /App/Transfer/.../</tspan>
                        <tspan x="-39" y="202">TransferAdminController.php@aeroports</tspan>
                        <tspan x="-39" y="218">api.vput.eu/v1/admin/transfers/cities	GET  [ list of transfers car types ]   /App/Transfer/.../TransferAdminController.php@cities</tspan>
                        <tspan x="-39" y="234"></tspan>
                        <tspan x="-39" y="250"></tspan>
                    </text>
                </g>
                <text id="RESTful-API" font-family="Roboto-Regular, Roboto" font-size="36" font-weight="normal" fill="#FFFFFF">
                    <tspan x="508.77832" y="345">RESTful API</tspan>
                </text>
                <g id="&lt;?php-$things-=-arra" transform="translate(1122.000000, 182.000000)">
                    <mask id="mask-4" fill="white">
                        <use xlink:href="#path-3"></use>
                    </mask>
                    <g id="fgfgfg">
                        <use fill="black" fill-opacity="1" filter="url(#filter-5)" xlink:href="#path-3"></use>
                        <use fill="#FFF56B" fill-rule="evenodd" xlink:href="#path-3"></use>
                    </g>
                </g>
                <g id="&lt;?php-$things-=-arra-copy" transform="translate(1122.000000, 340.000000)">
                    <mask id="mask-7" fill="white">
                        <use xlink:href="#path-6"></use>
                    </mask>
                    <g id="fgfgfg">
                        <use fill="black" fill-opacity="1" filter="url(#filter-8)" xlink:href="#path-6"></use>
                        <use fill="#F9F13D" fill-rule="evenodd" xlink:href="#path-6"></use>
                    </g>
                </g>
                <text id="Your-web-app" font-family="GillSans, Gill Sans" font-size="24" font-weight="normal" fill="#FFFFFF">
                    <tspan x="1104.25" y="301">Your web app</tspan>
                </text>
                <text id="Your-desktop-app" font-family="GillSans, Gill Sans" font-size="24" font-weight="normal" fill="#FFFFFF">
                    <tspan x="1105.87891" y="458">Your desktop </tspan>
                    <tspan x="1153.99609" y="486">app</tspan>
                </text>
                <text id="Your-mobile-app" font-family="GillSans, Gill Sans" font-size="24" font-weight="normal" fill="#FFFFFF">
                    <tspan x="1089.50586" y="145">Your mobile app</tspan>
                </text>
                <g id="Path-10" stroke="#FFFFFF">
                    <use stroke-opacity="0.373103487" stroke-width="14" xlink:href="#path-9"></use>
                    <use stroke-width="5" xlink:href="#path-9"></use>
                </g>
                <path d="M775,393.014895 C992.076744,393.014895 955.445868,258 1088.95118,258" id="Path-10-Copy" stroke="#E0C1EE" stroke-width="5" transform="translate(931.975588, 325.507448) scale(1, -1) translate(-931.975588, -325.507448) "></path>
                <g id="&lt;?php-$things-=-arra" transform="translate(1120.000000, 26.000000)">
                    <mask id="mask-11" fill="white">
                        <use xlink:href="#path-10"></use>
                    </mask>
                    <g id="Mask">
                        <use fill="black" fill-opacity="1" filter="url(#filter-12)" xlink:href="#path-10"></use>
                        <use fill="#FFF56B" fill-rule="evenodd" xlink:href="#path-10"></use>
                        <circle stroke="#FFFFFF" stroke-width="6" cx="46" cy="46" r="49"></circle>
                    </g>
                </g>
                <g id="mac" transform="translate(1138.000000, 360.000000)" fill-rule="nonzero">
                    <path d="M57.8795168,1.24327352 L4.10525941,1.24327352 C2.51597228,1.24327352 1.22772277,2.6649628 1.22772277,4.41873085 L1.22772277,8.35625383 L1.22772277,34.9413042 L60.7569307,34.9413042 L60.7569307,8.35625383 L60.7569307,4.41873085 C60.7569307,2.6649628 59.4686812,1.24327352 57.8795168,1.24327352 Z" id="Shape" fill="#50A5DC"></path>
                    <g id="Group" transform="translate(1.227723, 34.923414)">
                        <path d="M0,0.0178905908 L0,9.2902407 C0,11.0440088 1.2882495,12.465698 2.87753663,12.465698 L56.6517941,12.465698 C58.2409584,12.465698 59.5293307,11.0440088 59.5293307,9.2902407 L59.5293307,0.0178905908 L0,0.0178905908 Z M29.7646653,8.40110284 C28.5347327,8.40110284 27.5375762,7.40584683 27.5375762,6.17825821 C27.5375762,4.95066958 28.5346099,3.95541357 29.7646653,3.95541357 C30.9947208,3.95541357 31.9917545,4.95054705 31.9917545,6.17825821 C31.9917545,7.40596937 30.994598,8.40110284 29.7646653,8.40110284 Z" id="Shape" fill="#C7EBFF"></path>
                        <ellipse id="Oval" fill="#50A5DC" cx="29.7646653" cy="6.17825821" rx="2.22708911" ry="2.22284464"></ellipse>
                    </g>
                    <polygon id="Shape" fill="#C7EBFF" points="36.2102099 54.7414092 25.7745663 54.7414092 28.2300119 47.3891116 33.7547644 47.3891116"></polygon>
                    <g id="Group" fill="#000000">
                        <path d="M61.9846535,4.41885339 C61.9846535,1.99222757 60.1430693,0.0180131291 57.8793941,0.0180131291 L4.10513663,0.0180131291 C1.84158416,0.0178905908 0,1.99222757 0,4.41885339 L0,44.2137768 C0,46.6404026 1.84158416,48.6144945 4.10525941,48.6144945 L26.5265465,48.6144945 L24.8896238,53.5160263 L21.7230812,53.5160263 C21.0451327,53.5160263 20.4953584,54.0647527 20.4953584,54.7414092 C20.4953584,55.4180656 21.0451327,55.9667921 21.7230812,55.9667921 L25.7745663,55.9667921 L36.2102099,55.9667921 L40.261695,55.9667921 C40.9396436,55.9667921 41.4894178,55.4180656 41.4894178,54.7414092 C41.4894178,54.0647527 40.9396436,53.5160263 40.261695,53.5160263 L37.0951525,53.5160263 L35.4582297,48.6144945 L57.8795168,48.6144945 C60.1431921,48.6144945 61.9847762,46.6404026 61.9847762,44.2137768 L61.9847762,4.41885339 L61.9846535,4.41885339 Z M2.45544554,4.41885339 C2.45544554,3.34357987 3.19551683,2.46877899 4.10525941,2.46877899 L57.8795168,2.46877899 C58.7891366,2.46877899 59.5293307,3.34357987 59.5293307,4.41885339 L59.5293307,33.7160438 L2.45544554,33.7160438 L2.45544554,4.41885339 Z M34.5067446,53.5160263 L27.4777861,53.5160263 L29.1148317,48.6144945 L32.869699,48.6144945 L34.5067446,53.5160263 Z M59.5292079,44.2136543 C59.5292079,45.2888053 58.7891366,46.1636061 57.8793941,46.1636061 L33.7546416,46.1636061 L28.2298891,46.1636061 L4.10513663,46.1636061 C3.19551683,46.1636061 2.45532277,45.2888053 2.45532277,44.2136543 L2.45532277,36.1666871 L59.5290851,36.1666871 L59.5292079,44.2136543 L59.5292079,44.2136543 Z" id="Shape"></path>
                        <path d="M30.9923881,44.5498993 C32.8974455,44.5498993 34.4472,43.0030985 34.4472,41.1016718 C34.4472,39.2002451 32.8974455,37.6534442 30.9923881,37.6534442 C29.0873307,37.6534442 27.5375762,39.2002451 27.5375762,41.1016718 C27.5375762,43.0030985 29.0873307,44.5498993 30.9923881,44.5498993 Z M30.9923881,40.1042101 C31.5433901,40.1042101 31.9917545,40.5515974 31.9917545,41.1016718 C31.9917545,41.6517462 31.5435129,42.0991335 30.9923881,42.0991335 C30.4412634,42.0991335 29.9930218,41.6517462 29.9930218,41.1016718 C29.9930218,40.5515974 30.4412634,40.1042101 30.9923881,40.1042101 Z" id="Shape"></path>
                        <path d="M6.00000396,14.0230372 C5.32205545,14.0230372 4.77228119,14.5717637 4.77228119,15.2484201 L4.77228119,30.2417155 C4.77228119,30.918372 5.32205545,31.4670985 6.00000396,31.4670985 C6.67795248,31.4670985 7.22772673,30.918372 7.22772673,30.2417155 L7.22772673,15.2484201 C7.22772673,14.5716411 6.67807525,14.0230372 6.00000396,14.0230372 Z" id="Shape"></path>
                        <path d="M6.00000396,4.71012691 C5.32205545,4.71012691 4.77228119,5.25885339 4.77228119,5.93550985 L4.77228119,10.7719737 C4.77228119,11.4486302 5.32205545,11.9973567 6.00000396,11.9973567 C6.67795248,11.9973567 7.22772673,11.4486302 7.22772673,10.7719737 L7.22772673,5.93550985 C7.22772673,5.25873085 6.67807525,4.71012691 6.00000396,4.71012691 Z" id="Shape"></path>
                    </g>
                </g>
                <g id="laptop-(2)" transform="translate(1132.000000, 205.000000)" fill-rule="nonzero">
                    <rect id="Rectangle-path" fill="#ACACAD" x="15.7077344" y="36.0074583" width="4.96330078" height="4.92898214"></rect>
                    <rect id="Rectangle-path" fill="#C7EBFF" x="15.7077344" y="36.0074583" width="2.48171875" height="4.92898214"></rect>
                    <rect id="Rectangle-path" fill="#ACACAD" x="55.0492383" y="36.0074583" width="4.96330078" height="4.92898214"></rect>
                    <rect id="Rectangle-path" fill="#C7EBFF" x="55.0492383" y="36.0074583" width="2.48171875" height="4.92898214"></rect>
                    <path d="M6.1609375,44.870125 L69.5579687,44.870125 C70.8149609,44.870125 71.8340625,43.8496369 71.8340625,42.5910714 C71.8340625,41.332369 70.8149609,40.3120179 69.5579687,40.3120179 L6.1609375,40.3120179 C4.90394531,40.3120179 3.88498047,41.332506 3.88498047,42.5910714 C3.88511719,43.8492262 4.90367187,44.870125 6.1609375,44.870125" id="Shape" fill="#C7EBFF"></path>
                    <path d="M62.2931745,0 L11.706941,0 C10.2118752,0 9,1.51912193 9,3.393081 L9,7.60045431 L9,36.0074583 L65,36.0074583 L65,7.60045431 L65,3.393081 C65,1.51912193 63.7881248,0 62.2931745,0 Z" id="Shape" fill="#50A5DC"></path>
                    <path d="M12.000004,14.0230372 C11.3220554,14.0230372 10.7722812,14.5717637 10.7722812,15.2484201 L10.7722812,30.2417155 C10.7722812,30.918372 11.3220554,31.4670985 12.000004,31.4670985 C12.6779525,31.4670985 13.2277267,30.918372 13.2277267,30.2417155 L13.2277267,15.2484201 C13.2277267,14.5716411 12.6780752,14.0230372 12.000004,14.0230372 Z" id="Shape" fill="#000000"></path>
                    <path d="M12.000004,4.71012691 C11.3220554,4.71012691 10.7722812,5.25885339 10.7722812,5.93550985 L10.7722812,10.7719737 C10.7722812,11.4486302 11.3220554,11.9973567 12.000004,11.9973567 C12.6779525,11.9973567 13.2277267,11.4486302 13.2277267,10.7719737 L13.2277267,5.93550985 C13.2277267,5.25873085 12.6780752,4.71012691 12.000004,4.71012691 Z" id="Shape" fill="#000000"></path>
                    <g id="Group" fill="#231F20">
                        <path d="M66.6983789,39.1817321 L58.1776563,39.1817321 L58.1776563,37.3574762 L60.2109375,37.3574762 C61.9218359,37.3574762 63.3137695,35.9635119 63.3137695,34.2501488 L63.3137695,13.7006071 C63.3137695,13.1334107 62.8548047,12.6736845 62.2882422,12.6736845 C61.7216797,12.6736845 61.2627148,13.1332738 61.2627148,13.7006071 L61.2627148,34.2500119 C61.2627148,34.8308988 60.7908984,35.303631 60.2108008,35.303631 L9.78919922,35.303631 C9.20910156,35.303631 8.73701172,34.8310357 8.73701172,34.2500119 L8.73701172,3.10732738 C8.73701172,2.52644048 9.20896484,2.05370833 9.78919922,2.05370833 L60.2109375,2.05370833 C60.7908984,2.05370833 61.2628516,2.52630357 61.2628516,3.10732738 L61.2628516,10.3234405 C61.2628516,10.8906369 61.7218164,11.3503631 62.2883789,11.3503631 C62.8549414,11.3503631 63.3139062,10.8907738 63.3139062,10.3234405 L63.3139062,3.10732738 C63.3139062,1.39382738 61.9218359,0 60.2110742,0 L9.78919922,0 C8.07816406,0 6.68609375,1.39396429 6.68609375,3.10732738 L6.68609375,34.2500119 C6.68609375,35.9635119 8.07816406,37.3573393 9.78919922,37.3573393 L11.8224805,37.3573393 L11.8224805,39.1815952 L3.30148437,39.1815952 C1.48107422,39.1817321 0,40.6648214 0,42.4877083 C0,44.3105952 1.48107422,45.7936845 3.30148437,45.7936845 L9.89105469,45.7936845 C10.4573437,45.7936845 10.916582,45.3340952 10.916582,44.7667619 C10.916582,44.1994286 10.4574805,43.7398393 9.89105469,43.7398393 L3.30148437,43.7398393 C2.61201172,43.7398393 2.05091797,43.1779821 2.05091797,42.4875714 C2.05091797,41.7972976 2.611875,41.2353036 3.30148437,41.2353036 L66.6985156,41.2353036 C67.3879883,41.2353036 67.949082,41.7971607 67.949082,42.4875714 C67.949082,43.1778452 67.3879883,43.7398393 66.6985156,43.7398393 L13.4460156,43.7398393 C12.8797266,43.7398393 12.4204883,44.1994286 12.4204883,44.7667619 C12.4204883,45.3340952 12.8795898,45.7936845 13.4460156,45.7936845 L66.6983789,45.7936845 C68.5187891,45.7936845 69.9998633,44.3105952 69.9998633,42.4877083 C69.9998633,40.6648214 68.5189258,39.1817321 66.6983789,39.1817321 Z M51.1639844,37.3573393 L51.1639844,39.1815952 L18.8362891,39.1815952 L18.8362891,37.3573393 L51.1639844,37.3573393 Z M13.8736719,39.1817321 L13.8736719,37.3574762 L16.7853711,37.3574762 L16.7853711,39.1817321 L13.8736719,39.1817321 Z M53.2149023,39.1817321 L53.2149023,37.3574762 L56.1266016,37.3574762 L56.1266016,39.1817321 L53.2149023,39.1817321 Z" id="Shape"></path>
                    </g>
                </g>
                <g id="iphone" transform="translate(1152.000000, 45.000000)">
                    <path d="M11.8086095,3.59996484 C11.3101058,3.59996484 10.909927,4.00317188 10.909927,4.49992969 C10.909927,4.9966875 11.3181496,5.39989453 11.8176058,5.39989453 C12.317062,5.39989453 12.7207336,4.9966875 12.7207336,4.49992969 C12.7207336,4.00317188 12.317062,3.59996484 11.8176058,3.59996484 L11.8086095,3.59996484 Z" id="Shape" fill="#231F20" fill-rule="nonzero"></path>
                    <path d="M1,5 C1,2.790861 2.79412025,1 4.99683887,1 L25.0031611,1 C27.2105543,1 29,2.79535615 29,5 L29,9 L1,9 L1,5 Z" id="Rectangle" fill="#C7EBFF"></path>
                    <path d="M1,48 C1,45.2385763 3.24402624,43 6.00583887,43 L23.9941611,43 C26.7588096,43 29,45.2441952 29,48 L29,53 L1,53 L1,48 Z" id="Rectangle-Copy" fill="#C7EBFF" transform="translate(15.000000, 48.000000) scale(1, -1) translate(-15.000000, -48.000000) "></path>
                    <path d="M12.6936387,48.6 C12.6936387,49.5926719 13.5037336,50.4000352 14.5,50.4000352 C15.4961606,50.4000352 16.3063613,49.5927773 16.3063613,48.6 C16.3063613,47.6073281 15.4962664,46.7999648 14.5,46.7999648 C13.5038394,46.7999648 12.6936387,47.6073281 12.6936387,48.6 Z" id="Shape" fill="#231F20" fill-rule="nonzero"></path>
                    <rect id="Rectangle-2" fill="#50A5DC" x="1" y="9" width="28" height="34"></rect>
                    <path d="M0.952554745,41.3999648 C1.45105839,41.3999648 1.85568248,40.9967578 1.85568248,40.5 L1.85568248,4.50003516 C1.85568248,3.18779297 3.24831752,1.80003516 4.56517153,1.80003516 L24.4347226,1.80003516 C25.7515766,1.80003516 27.1442117,3.18779297 27.1442117,4.50003516 C27.1442117,4.99679297 27.5488358,5.4 28.0473394,5.4 C28.5458431,5.4 28.9504672,4.99679297 28.9504672,4.50003516 C28.950573,2.187 26.7558869,0 24.4348285,0 L4.56517153,0 C2.2440073,0 0.0493211679,2.187 0.0493211679,4.50003516 L0.0493211679,40.5 C0.0494270073,40.9967578 0.454051095,41.3999648 0.952554745,41.3999648 Z" id="Shape" fill="#231F20" fill-rule="nonzero"></path>
                    <path d="M15.4031277,3.59996484 C14.9046241,3.59996484 14.5,4.00317188 14.5,4.49992969 C14.5,4.9966875 14.9046241,5.39989453 15.4031277,5.39989453 L19.0157445,5.39989453 C19.5142482,5.39989453 19.9188723,4.9966875 19.9188723,4.49992969 C19.9188723,4.00317188 19.5142482,3.59996484 19.0157445,3.59996484 L15.4031277,3.59996484 Z" id="Shape" fill="#231F20" fill-rule="nonzero"></path>
                    <path d="M22.6284672,16.2 C22.8597263,16.2 23.0908796,16.1118281 23.2669964,15.9363281 C23.6201825,15.5843789 23.6201825,15.0155859 23.2669964,14.6637422 L21.460635,12.863707 C21.1074489,12.5118633 20.5366569,12.5118633 20.1835766,12.863707 C19.8304964,13.2156563 19.8304964,13.7844492 20.1835766,14.136293 L21.989938,15.9363281 C22.1660547,16.1118281 22.397208,16.2 22.6284672,16.2 Z" id="Shape" fill="#231F20" fill-rule="nonzero"></path>
                    <path d="M14.7645985,12.863707 C14.4115182,13.2156562 14.4115182,13.7844492 14.7645985,14.136293 L21.989938,21.3363281 C22.1660547,21.5118281 22.3973139,21.6 22.6284672,21.6 C22.8597263,21.6 23.0908796,21.5118281 23.2669964,21.3363281 C23.6201825,20.9843789 23.6201825,20.4155859 23.2669964,20.0637422 L16.0416569,12.863707 C15.6885766,12.5117578 15.1177847,12.5117578 14.7645985,12.863707 Z" id="Shape" fill="#231F20" fill-rule="nonzero"></path>
                    <path d="M28.0474453,7.20003516 L4.56517153,7.20003516 C4.06666788,7.20003516 3.6620438,7.60324219 3.6620438,8.1 C3.6620438,8.59675781 4.06666788,8.99996484 4.56517153,8.99996484 L27.1442117,8.99996484 L27.1442117,49.4999648 C27.1442117,50.812207 25.7515766,52.1999648 24.4347226,52.1999648 L4.56517153,52.1999648 C3.24831752,52.1999648 1.85568248,50.812207 1.85568248,49.4999648 L1.85568248,44.9999297 L24.4347226,44.9999297 C24.9332263,44.9999297 25.3378504,44.5967227 25.3378504,44.0999648 C25.3378504,43.603207 24.9332263,43.2 24.4347226,43.2 L0.952554745,43.2 C0.454051095,43.2 0.0494270073,43.603207 0.0494270073,44.0999648 L0.0494270073,49.4999648 C0.0494270073,51.813 2.24411314,54 4.56527737,54 L24.4348285,54 C26.7559927,54 28.9506788,51.813 28.9506788,49.4999648 L28.9506788,8.1 C28.950573,7.60324219 28.5459489,7.20003516 28.0474453,7.20003516 Z" id="Shape" fill="#231F20" fill-rule="nonzero"></path>
                </g>
                <g id="Group-3" transform="translate(1191.000000, 0.000000)">
                    <g id="Oval-4">
                        <use fill="#FFFFFF" fill-rule="evenodd" xlink:href="#path-13"></use>
                        <circle stroke="#FBF78B" stroke-width="5" cx="27.5" cy="27.5" r="30"></circle>
                    </g>
                    <g id="boss" transform="translate(12.222222, 11.000000)" fill-rule="nonzero">
                        <polygon id="Shape" fill="#E6AF78" points="19.0721056 21.9069409 19.0721056 18.4925542 10.2611056 18.4925542 10.2611056 21.9069409 14.6666056 25.809097"></polygon>
                        <path d="M10.2611056,18.4925542 L10.2611056,22.0949848 C15.81085,24.0874107 19.0721667,19.1007742 19.0721667,19.1007742 L19.0721667,18.4924324 L10.2611056,18.4925542 L10.2611056,18.4925542 Z" id="Shape" fill="#D29B6E"></path>
                        <path d="M28.8615556,28.1793767 C28.8580111,26.2999722 27.6653056,24.2959154 25.6128278,23.7270945 L21.5087278,22.8797396 L20.3432167,21.1259007 C20.1757111,20.9041817 19.85665,20.8662441 19.6414778,21.0423526 L14.6600667,25.331497 L14.6600667,25.331497 L14.6600667,25.331497 L9.66246111,21.0609865 C9.44661667,20.8856696 9.12767778,20.9248861 8.96102778,21.147214 L7.80217778,22.9053764 L3.70131667,23.7681378 C1.65097778,24.3446923 0.465911111,26.3531945 0.469394444,28.232599 L0.471655556,29.4424623 C0.473,30.1501239 1.13159444,30.7225985 1.94266111,30.7210152 L13.2015889,30.6999455 L16.1387111,30.694465 L27.3976389,30.6733953 C28.2087056,30.6718729 28.8651,30.0969625 28.8637556,29.3893009 L28.8615556,28.1793767 Z" id="Shape" fill="#EFF2FA"></path>
                        <g id="Group" transform="translate(0.427778, 24.784294)" fill="#E4EAF6">
                            <path d="M3.61466111,2.51070377 L1.00014444,0.569673388 C0.37565,1.4083203 0.0397222222,2.44664216 0.0415555556,3.44830518 L0.0438166667,4.65816845 C0.0451611111,5.36583007 0.703755556,5.93830463 1.51482222,5.93672136 L4.54752222,5.93105812 L4.54752222,4.55951843 C4.54758333,3.7778693 4.20841667,3.03306169 3.61466111,2.51070377 Z" id="Shape"></path>
                            <path d="M28.4360389,4.60494616 L28.4337778,3.39508289 C28.4315167,2.19471925 27.9434833,0.944178074 27.0568833,0.0485333715 L24.6041278,2.51070377 C24.0103722,3.03306169 23.6712056,3.7778693 23.6712056,4.55951843 L23.6712056,5.89525181 L26.9699833,5.88910141 C27.7809889,5.88757904 28.4373833,5.31266867 28.4360389,4.60494616 Z" id="Shape"></path>
                        </g>
                        <path d="M7.86768889,11.8466489 C7.94475,9.89666692 8.94422222,7.44515316 9.19123333,6.91043354 C9.22276667,6.84229196 9.24042778,6.80563312 9.24042778,6.80563312 C10.0032167,6.70637416 10.7338611,6.64614893 11.4302833,6.61746736 C11.6292611,6.60930742 11.8254278,6.60370507 12.0187833,6.60053853 C17.3355722,6.51266694 20.5021667,8.24799377 20.5021667,8.24799377 L21.4971778,10.5948289 C22.9050556,6.17037574 22.4085278,2.43154018 21.9578333,1.41617577 C18.5321278,1.91033927 13.4682778,-0.986561044 10.2773,1.4379762 L10.0060889,1.43846336 C7.97854444,1.44229975 6.78596111,3.19906165 6.78999444,5.34683081 C6.79390556,7.42012528 7.76526667,11.5353533 7.76526667,11.5353533 L7.86768889,12.2124456 C7.86756667,12.1430252 7.865,12.0395036 7.86768889,11.9685608 C7.86781111,11.9651507 7.86756667,11.850059 7.86768889,11.8466489 Z" id="Shape" fill="#785550"></path>
                        <path d="M21.4453556,13.3777945 C21.4503056,13.339248 21.4550111,13.3007014 21.4595333,13.2623375 C21.5780278,12.2495916 21.6923667,10.9678112 21.2573778,10.0293573 C20.9865944,9.44519087 20.7535167,8.84074639 20.5021056,8.24781109 C20.5021056,8.24781109 17.3355111,6.51254515 12.0187222,6.60035584 C11.8253667,6.60352238 11.6292,6.60912473 11.4302222,6.61728467 C10.7338,6.64596625 10.0031556,6.70619147 9.24036667,6.80545044 C9.24036667,6.80545044 9.22270556,6.84210927 9.19117222,6.91031175 C7.35722778,10.8804268 7.06627778,15.8140236 10.4288556,19.0917008 C11.1999556,19.8433287 12.1366667,20.4391261 13.1789167,20.7347107 C13.30835,20.7714914 13.4390667,20.8035222 13.5710056,20.8306814 C13.5966111,20.8359793 13.6222167,20.8411553 13.6479444,20.8460269 C13.9776389,20.9089315 14.3144222,20.9418758 14.6566444,20.9412668 C18.6243444,20.9341421 20.9947833,16.8791393 21.4453556,13.3777945 Z" id="Shape" fill="#F0C087"></path>
                        <path d="M10.1927833,13.3165341 C10.0778944,7.85948322 10.9882056,8.13393731 10.9882056,8.13393731 C13.2339778,7.61748621 16.9522833,7.982065 20.7123278,8.75317928 C20.6429056,8.58431725 20.5731778,8.41557701 20.5021056,8.24787198 C20.5021056,8.24787198 17.3355111,6.51260604 12.0187222,6.60041674 C11.8253667,6.60358328 11.6292,6.60918563 11.4302222,6.61734557 C10.7338,6.64602714 10.0031556,6.70625237 9.24036667,6.80551133 C9.24036667,6.80551133 9.22270556,6.84217017 9.19117222,6.91037265 C7.35722778,10.8804877 7.06627778,15.8140845 10.4288556,19.0917617 C11.1999556,19.8433896 12.1366667,20.439187 13.1789167,20.7347716 C13.30835,20.7715523 13.4390667,20.8035831 13.5710056,20.8307423 C13.5966111,20.8360401 13.6222167,20.8412162 13.6479444,20.8460878 C13.9767833,20.9088707 14.3127111,20.941754 14.6540778,20.9412668 C13.4202444,20.5100688 10.2779722,17.3629507 10.1927833,13.3165341 Z" id="Shape" fill="#E6AF78"></path>
                        <path d="M21.9577722,1.41605398 C18.5320667,1.91021748 13.4682167,-0.986682834 10.2772389,1.43785441 C10.2772389,1.43785441 7.73721667,4.38627196 9.24030556,6.80557223 C10.0030944,6.70631326 10.7337389,6.64608804 11.4301611,6.61740646 C11.4343778,6.61722378 11.4384722,6.61716288 11.4426278,6.61698019 C11.6372667,6.60912473 11.8294,6.60358328 12.0186611,6.60047763 C17.33545,6.51260604 20.5020444,8.24793288 20.5020444,8.24793288 L21.4970556,10.594768 C22.9049944,6.17025395 22.4084056,2.43141839 21.9577722,1.41605398 Z" id="Shape" fill="#694B4B"></path>
                        <path d="M13.1942556,26.7976676 L14.6600667,25.3315579 L9.66246111,21.0610474 C9.44661667,20.8857305 9.12767778,20.9249469 8.96102778,21.1472749 L7.80217778,22.9054373 L11.7285056,28.2637773 L13.1942556,26.7976676 Z" id="Shape" fill="#E4EAF6"></path>
                        <path d="M17.6026889,28.2527553 L21.5087278,22.8796787 L20.3432167,21.1258398 C20.1757111,20.9041208 19.85665,20.8661832 19.6414778,21.0422918 L14.6600667,25.3314361 L16.1313778,26.7920652 L17.6026889,28.2527553 Z" id="SVGCleanerId_0" fill="#E4EAF6"></path>
                        <path d="M17.6026889,28.2527553 L21.5087278,22.8796787 L20.3432167,21.1258398 C20.1757111,20.9041208 19.85665,20.8661832 19.6414778,21.0422918 L14.6600667,25.3314361 L16.1313778,26.7920652 L17.6026889,28.2527553 Z" id="SVGCleanerId_0_1_" fill="#E4EAF6"></path>
                        <polyline id="Shape" fill="#5B5D6E" points="15.5773444 28.1260327 13.7416889 28.0650767 13.2015889 30.6999455 16.1387111 30.694465 15.5773444 28.1260327"></polyline>
                        <path d="M13.1951722,27.2854371 C13.1962111,27.8219836 13.6375556,28.2601845 14.1760667,28.2592102 L15.1551278,28.2573833 C15.6935778,28.2563481 16.1333333,27.8165639 16.1322944,27.2799565 L16.1313778,26.792187 L14.6600667,25.3315579 L13.1942556,26.7976676 L13.1951722,27.2854371 Z" id="Shape" fill="#515262"></path>
                        <path d="M29.3205,28.1785242 C29.3185444,27.1347827 28.9859778,26.0781923 28.3840944,25.2032519 C27.7264167,24.2471993 26.8106667,23.5844174 25.7358444,23.2865187 C25.7259444,23.2837784 25.7160444,23.2814035 25.7059611,23.2793331 L21.7870889,22.4701594 L21.3087111,21.7503187 L20.7259556,20.8733688 C20.7208833,20.865696 20.7155056,20.8581451 20.7099444,20.8507768 C20.5316833,20.614991 20.2483722,20.4741407 19.9518611,20.4741407 C19.7332056,20.4741407 19.5195,20.5504423 19.3502833,20.6888568 C19.3472889,20.6912926 19.3443556,20.6937284 19.3414833,20.6962251 L17.6810333,22.1259195 L14.6590278,24.7280268 L12.045,22.4943347 L9.96135556,20.7137628 C9.95848333,20.7112661 9.95548889,20.7088303 9.95255556,20.7064554 C9.80491111,20.586553 9.62359444,20.5137834 9.43494444,20.4974636 C9.40799444,20.4951495 9.38086111,20.4939925 9.35366667,20.4939925 C9.31645,20.4939925 9.27935556,20.4961848 9.24281111,20.5005083 C9.19771111,20.5058671 9.15352778,20.5154885 9.10995556,20.5271803 C8.97661111,20.562804 8.8517,20.6258913 8.74555,20.7139455 C8.73540556,20.722349 8.72642222,20.7320923 8.71658333,20.7409829 C8.69782222,20.7578509 8.67893889,20.7747188 8.66158333,20.7931091 C8.63756667,20.8186242 8.61465,20.8452353 8.59350556,20.8735515 C8.59093889,20.8769616 8.58861667,20.8804935 8.58617222,20.8839646 C8.5833,20.8880445 8.58030556,20.8920027 8.57755556,20.8961436 L7.52247222,22.4968923 L3.60665556,23.3207417 C3.59663333,23.3228731 3.58667222,23.3253089 3.57683333,23.3280491 C2.50311111,23.6299669 1.58986667,24.2962199 0.935794444,25.2547083 C0.337211111,26.1319018 0.00867777778,27.1897709 0.0106333333,28.2334516 L0.0128944444,29.4433148 C0.0147277778,30.4008289 0.878594444,31.178459 1.93960556,31.1783372 L1.94363889,31.1783372 L13.20055,31.1572675 C13.2011,31.1572675 13.20165,31.1573284 13.2022,31.1573284 C13.2028722,31.1573284 13.2035444,31.1572675 13.2042167,31.1572675 L16.1363278,31.1517869 C16.137,31.1517869 16.1376722,31.1518478 16.1383444,31.1518478 C16.1389556,31.1518478 16.1396278,31.1517869 16.1402389,31.1517869 L27.3986167,31.1307173 C27.9021111,31.1298038 28.3779222,30.9554003 28.7384167,30.6396594 C29.1161444,30.3088165 29.3236778,29.8644651 29.3227611,29.3884484 L29.3205,28.1785242 Z M14.1741111,28.7164104 L14.1768611,28.7164104 L15.1559222,28.7145835 C15.19375,28.7145226 15.23115,28.7125131 15.2681833,28.7095901 L15.5779556,30.2381782 L13.7603889,30.2415883 L14.0644167,28.7118432 C14.1008389,28.7146444 14.1373222,28.7164104 14.1741111,28.7164104 Z M15.6734111,27.2808091 C15.6739611,27.5666505 15.4410667,27.7995742 15.1542722,27.8001222 L14.1752111,27.8019491 C14.0392389,27.8004876 13.9068722,27.7482396 13.8079944,27.6500159 C13.7089944,27.5517921 13.6543611,27.4220248 13.6541167,27.2845846 L13.6535667,26.9861987 L14.66135,25.9782026 L15.6729222,26.9824232 L15.6734111,27.2808091 Z M17.5461,27.5510614 L16.4556333,26.4685297 C16.4555722,26.4684688 16.4555111,26.4684079 16.45545,26.468347 L16.4402333,26.4532451 L15.3343056,25.3553678 L18.4932,22.6354286 L19.9348111,21.3941435 C19.9421444,21.3889674 19.96005,21.3870187 19.9711722,21.3956658 C19.9716611,21.3960312 19.9723944,21.396153 19.9728222,21.3966402 L20.4617111,22.1323135 L20.9506,22.8679869 L19.24835,25.2094632 L17.5461,27.5510614 Z M9.36246667,21.4104634 C9.36564444,21.4113159 9.36845556,21.4124729 9.37047222,21.4139344 L13.98595,25.3578645 L11.7824056,27.5618398 L8.36036667,22.8916142 L9.33264444,21.4165529 C9.34065,21.4090019 9.35323889,21.4081493 9.36246667,21.4104634 Z M1.94180556,30.2636932 L1.93942222,30.2636932 C1.38386111,30.2636932 0.931394444,29.8952172 0.930538889,29.4415489 L0.928277778,28.2316856 C0.925283333,26.6420198 1.91455,24.7537245 3.8115,24.2122456 L7.6065,23.4138503 L11.3577444,28.5333598 C11.4368833,28.6413268 11.5594722,28.7094683 11.6933056,28.7196378 C11.7050389,28.7205512 11.7167111,28.7209775 11.7283833,28.7209775 C11.8347167,28.7209775 11.9376889,28.684136 12.0196389,28.6170296 C12.0313722,28.6074691 12.0426167,28.5972996 12.0534944,28.5863994 L12.8349222,27.8048112 C12.9066667,27.9872528 13.0162389,28.1548969 13.1600944,28.2976959 C13.1740889,28.3116408 13.1885722,28.3250987 13.2030556,28.3383738 L12.8244111,30.2432325 L1.94180556,30.2636932 Z M28.1324389,29.9526412 C27.9390833,30.1219904 27.6778333,30.2155861 27.3968444,30.2160733 L16.5141167,30.2364122 L16.1284444,28.3335631 C16.28825,28.1863188 16.4143222,28.0034509 16.4943167,27.7978691 L17.2788,28.5766562 C17.3652111,28.6623964 17.48175,28.7100164 17.6026889,28.7100164 C17.6149111,28.7100164 17.6271944,28.7095292 17.6394778,28.7085549 C17.7733111,28.6978983 17.8956556,28.6293304 17.9743667,28.5209981 L21.7063,23.3874827 L25.5042944,24.1716286 C27.4033222,24.7059828 28.3996778,26.5905635 28.4026722,28.1802293 L28.4049333,29.3900925 C28.4053,29.5986582 28.3085611,29.7984549 28.1324389,29.9526412 Z" id="Shape" fill="#000000"></path>
                        <path d="M7.30736111,12.0915689 L7.30736111,12.0918733 L7.30742222,12.1427207 C7.304,12.3142012 7.30436667,12.4845248 7.3084,12.6539348 L7.3084,12.6629473 C7.30919444,12.8802818 7.31805556,13.1045584 7.33486111,13.3296874 L7.33486111,13.3298092 C7.34231667,13.4296771 7.35154444,13.5318591 7.36242222,13.6336756 C7.36242222,13.6336756 7.36242222,13.6336756 7.36242222,13.6337365 C7.38216111,13.8195274 7.40795,14.0081194 7.43893333,14.1943366 C7.43893333,14.1945192 7.43899444,14.194641 7.43905556,14.1948237 C7.45072778,14.2650357 7.46319444,14.335126 7.47639444,14.4049117 L7.47639444,14.4050335 C7.47657778,14.4061905 7.47682222,14.4072866 7.47700556,14.4084436 C7.47737222,14.4103923 7.4778,14.4126454 7.47822778,14.4147158 C7.47841111,14.4159337 7.47859444,14.4167254 7.47883889,14.4179433 C7.47951111,14.421597 7.48024444,14.4254333 7.48097778,14.4290262 C7.48122222,14.4304267 7.48146667,14.4315837 7.48177222,14.4329843 C7.48189444,14.4338369 7.48213889,14.4348112 7.48226111,14.4356028 C7.48226111,14.4357855 7.48232222,14.4359682 7.48238333,14.4362118 C7.66803889,15.402373 7.99553333,16.3188438 8.43333333,17.1513403 C8.44463889,17.1728972 8.45594444,17.194454 8.46743333,17.21595 C8.48918889,17.2566279 8.51112778,17.2973058 8.53343333,17.3375574 C8.5723,17.4078912 8.61183889,17.4779815 8.65247778,17.5473409 C8.65394444,17.5498376 8.65541111,17.5522126 8.65687778,17.5546484 C8.70289444,17.6330203 8.75043889,17.7103571 8.79871667,17.7873284 C8.80421667,17.7960973 8.80971667,17.8048053 8.81521667,17.8135133 C8.86887222,17.8984619 8.92344444,17.9827407 8.97991111,18.0659234 C9.75388333,19.2061836 10.7351444,20.1024372 11.8194389,20.6760688 C11.8220667,20.6774694 11.8247556,20.67887 11.8273833,20.6802706 C11.9812,20.7613828 12.1369722,20.836101 12.2947,20.903999 C12.2997722,20.9061913 12.3047833,20.9084444 12.3098556,20.9106366 C12.3833111,20.9420585 12.4571944,20.9717144 12.5314444,21.0002133 C12.5440944,21.0050849 12.5568056,21.0098956 12.5694556,21.0147063 C12.6419333,21.0419873 12.7147167,21.0679286 12.7878056,21.0923475 C12.7996611,21.0963057 12.8115778,21.1000203 12.8234944,21.1039176 C12.8997611,21.1288845 12.9762111,21.1526945 13.0530889,21.174495 C13.0532111,21.174495 13.0532722,21.1745558 13.0533944,21.1746167 L13.0534556,21.1746167 C13.1238556,21.1945903 13.1948667,21.213346 13.2656944,21.2307011 C13.2699111,21.2317363 13.2740667,21.2324671 13.2782222,21.2335023 C13.3448333,21.2496395 13.4114444,21.2648632 13.4774444,21.2783819 C13.4775056,21.2783819 13.4775667,21.2783819 13.4776889,21.2784428 C13.4778111,21.2784428 13.4779333,21.2785037 13.4781167,21.2785037 L13.4782389,21.2785037 L13.4782389,21.2785037 C13.4962056,21.2822183 13.5142333,21.2856893 13.5322,21.2892822 C13.5419778,21.2912308 13.5518167,21.2933012 13.5615944,21.2951281 C13.5615944,21.2951281 13.5616556,21.2951281 13.5617167,21.295189 C13.5626944,21.2953717 13.5676444,21.296346 13.5677667,21.296346 C13.5681333,21.2964069 13.5684389,21.2964678 13.5688056,21.2965287 C13.5740611,21.297503 13.5792556,21.2985382 13.5845111,21.2994516 C13.6327278,21.3084641 13.68125,21.3153452 13.72965,21.3231398 C13.7665611,21.3291075 13.80335,21.3359278 13.8402611,21.3411648 C13.8967278,21.349142 13.9533167,21.3550488 14.0099056,21.3613819 C14.0429667,21.3650356 14.0759056,21.3697854 14.1089667,21.3728911 C14.1741111,21.3790415 14.2392556,21.3829388 14.3044,21.3868361 C14.3289667,21.3882975 14.3534722,21.3907942 14.3780389,21.3920121 C14.46775,21.3962139 14.5573389,21.3984061 14.6466222,21.3984061 L14.6466833,21.3984061 L14.6469889,21.3984061 L14.6573778,21.3984061 L14.6573778,21.3984061 L14.6574389,21.3984061 C14.6911111,21.3983452 14.7247222,21.3979799 14.7582722,21.39731 C14.7599833,21.39731 14.7616944,21.3972491 14.7633444,21.3971882 C14.7755056,21.3969446 14.7877278,21.3962748 14.7998889,21.3959094 C14.8185278,21.3953614 14.8372278,21.3946915 14.8558667,21.3939608 C14.8985833,21.3923775 14.9412389,21.390368 14.9838944,21.3878713 C14.9881722,21.3876277 14.99245,21.3873232 14.9967278,21.3870187 C16.5605611,21.2910481 18.0755056,20.5523909 19.31325,19.2829723 C19.3186889,19.2774308 19.3240056,19.2717676 19.3294444,19.2662261 C19.3634833,19.2311506 19.3972778,19.1958314 19.4308889,19.1599642 C19.4479389,19.1417566 19.4649278,19.1232445 19.4818556,19.1049151 C19.4968889,19.0885952 19.5121667,19.0725798 19.5270778,19.0560772 C19.5359389,19.0462731 19.5446167,19.0362254 19.5534778,19.0262995 C19.5611167,19.0177742 19.5689389,19.0094925 19.5765778,19.0008454 C19.5872722,18.9887882 19.5977222,18.9763656 19.6084167,18.9642475 C19.6313333,18.9381235 19.6541889,18.9119995 19.6768,18.885571 C19.6901833,18.8699819 19.7035667,18.8542101 19.7168889,18.8384991 C19.7490944,18.8005006 19.7808722,18.7621976 19.8124667,18.7237119 C19.81375,18.7221896 19.8149722,18.7206063 19.8162556,18.7190839 C20.9326333,17.3525376 21.6636444,15.6253098 21.8874944,13.8066176 C21.8990444,13.7122303 21.9093111,13.6180256 21.9178667,13.5265003 C21.9178667,13.5263785 21.9179278,13.5262567 21.9179278,13.5261349 C21.9212889,13.4899633 21.9245278,13.4537916 21.9275222,13.417559 L21.9275222,13.4173154 C21.9333889,13.3455202 21.9382778,13.2737249 21.9425556,13.2020514 C21.9490944,13.1200257 21.9548389,13.0380609 21.9595444,12.9565833 C21.9834389,12.5417052 21.9813,12.1343781 21.9768389,11.8257619 C21.9761667,11.7787509 21.9784889,11.674803 21.9809333,11.5648265 C21.9922389,11.0603108 21.9907722,10.7918854 21.9693222,10.6209529 C23.3811111,6.09456138 22.8443111,2.28319979 22.3773,1.23099386 C22.2940056,1.04337614 22.0956389,0.934069493 21.8918333,0.963360022 C21.6469,0.998679163 21.3773389,1.01658231 21.0906667,1.01658231 C20.031,1.01658231 18.8469722,0.781953606 17.5934,0.533623506 C16.2691833,0.271409331 14.8996833,0 13.5952056,0 C12.1914222,0 11.0546333,0.321160604 10.1261111,0.980897802 L10.0052944,0.981141382 C7.83719444,0.985221352 6.32634444,2.78083431 6.33117222,5.34768334 C6.33496111,7.3470512 7.18880556,11.0827811 7.30650556,11.5884538 L7.30736111,12.0915689 Z M12.0263,7.05761693 C12.1629444,7.05536381 12.2980611,7.05451128 12.4317722,7.05469396 C12.4760167,7.05469396 12.5202611,7.05560739 12.5645056,7.05591187 C12.6599611,7.05658171 12.7556,7.05719066 12.8495278,7.05901751 C12.8671889,7.05932199 12.8849111,7.06005273 12.9025722,7.0604181 C13.8282222,7.08087884 14.6796833,7.15669321 15.4488278,7.26526912 C17.4081722,7.54209811 18.8349944,8.02938047 19.6109222,8.34554768 C19.8531056,8.44425859 20.0333222,8.52671051 20.1447278,8.58029818 L20.1923333,8.69252779 L21.0382333,10.687633 L21.0399444,11.6094626 L21.0419,12.6421821 C21.0418389,12.8194476 21.0344444,13.0010367 21.0228333,13.1833566 C21.0185556,13.2337777 21.0143389,13.2842597 21.0093278,13.3343764 C20.8142,15.2800957 20.0614333,17.0771092 18.88975,18.3943305 C17.7863278,19.6348849 16.3634778,20.3813975 14.9458222,20.4740189 C14.9417278,20.4742625 14.9376944,20.474567 14.9336,20.4748106 C14.8973,20.4771246 14.8611222,20.478647 14.8248833,20.4800476 C14.8082611,20.4806565 14.7916389,20.4813264 14.7749556,20.4817526 C14.7351722,20.4829096 14.69545,20.4837622 14.6557889,20.4838231 L14.6557278,20.4838231 L14.6469889,20.4838231 C14.5719444,20.4838231 14.4967167,20.4819962 14.4213056,20.4784034 C14.39845,20.4773073 14.3754722,20.4749933 14.3525556,20.4735927 C14.3000611,20.4703652 14.2475667,20.4672596 14.1950111,20.4622662 C14.1670222,20.4596477 14.1392167,20.4556286 14.1112278,20.452523 C14.0636833,20.4472251 14.0161389,20.4422926 13.9686556,20.4355942 C13.9380389,20.4312706 13.9076056,20.4255465 13.87705,20.420614 C13.8292611,20.4130021 13.7814722,20.4058165 13.7338667,20.3967431 C13.7106444,20.3922978 13.6874222,20.3876088 13.6638333,20.3827372 C13.5447889,20.3582574 13.4239111,20.3286015 13.3045611,20.2947439 C13.2210222,20.2711166 13.1379722,20.2450535 13.0551667,20.2169809 C13.0434333,20.2130227 13.0319444,20.2083947 13.02015,20.2043756 C12.9510944,20.180322 12.8822222,20.1552333 12.8137778,20.1281958 C12.7955056,20.1210102 12.7774167,20.1131548 12.7592056,20.1057865 C12.6960167,20.0800278 12.6328889,20.0534776 12.57025,20.0252223 C12.5540556,20.0179758 12.5379833,20.0103639 12.52185,20.0029347 C12.4548111,19.9719391 12.3880167,19.9397256 12.3217111,19.9058679 C12.31175,19.9008136 12.3017278,19.8956985 12.2917056,19.8905224 C11.3231556,19.3886861 10.4402222,18.5849321 9.74007222,17.5534305 C8.78753333,16.1500427 8.27163333,14.4675118 8.22616667,12.6424866 L8.22525,12.1485666 C8.22848889,11.996877 8.23453889,11.8443958 8.24413333,11.691062 C8.24975556,11.6010591 8.25782222,11.5108735 8.26680556,11.4207488 C8.27004444,11.3927979 8.27328333,11.364908 8.27688889,11.3368962 C8.28000556,11.31266 8.28318333,11.288302 8.28654444,11.2640048 C8.29143333,11.2284421 8.29662778,11.1927576 8.30200556,11.1570122 C8.30555,11.1335067 8.30915556,11.1100012 8.31294444,11.0864348 C8.31887222,11.0492888 8.32516667,11.012021 8.33164444,10.9747533 C8.33549444,10.9524657 8.33934444,10.9301172 8.34337778,10.9077078 C8.35046667,10.8684914 8.35792222,10.829214 8.36556111,10.7899976 C8.36953333,10.769476 8.37344444,10.7488934 8.3776,10.7283109 C8.38603333,10.6863542 8.39483333,10.6442757 8.40387778,10.6022581 C8.40772778,10.584355 8.41145556,10.56633 8.41536667,10.548366 C8.42545,10.5022075 8.43596111,10.456049 8.44671667,10.4098906 C8.44989444,10.3961283 8.45301111,10.3822442 8.45625,10.3684819 C8.46896111,10.314468 8.48222222,10.260515 8.49566667,10.2067446 C8.49713333,10.2009596 8.49847778,10.1951137 8.49994444,10.1893286 C8.57706667,9.88327001 8.66525,9.58104777 8.75777222,9.29203976 C8.75942222,9.28692458 8.76107222,9.28187029 8.76272222,9.2767551 C8.77934444,9.2248725 8.79621111,9.17335527 8.81307778,9.1223252 C8.81564444,9.11453063 8.81827222,9.10685785 8.82083889,9.09912418 C8.83685,9.05083439 8.85304444,9.00303176 8.86917778,8.95571629 C8.87229444,8.94664292 8.87535,8.93769135 8.87846667,8.92861798 C8.89411111,8.88306847 8.90981667,8.83794522 8.92552222,8.79337003 C8.92906667,8.78332234 8.93255,8.77345734 8.93609444,8.76340965 C8.95149444,8.71986968 8.96695556,8.67669507 8.98235556,8.63419031 C8.98583889,8.6244471 8.98938333,8.61482568 8.99286667,8.60508247 C9.00826667,8.56263861 9.02372778,8.5207428 9.03900556,8.47939504 C9.04242778,8.47019989 9.04585,8.46100473 9.04921111,8.45180958 C9.06455,8.41046182 9.07995,8.36978392 9.09516667,8.32971496 C9.09840556,8.32125054 9.10158333,8.31272523 9.10482222,8.30426082 C9.12034444,8.26358291 9.13574444,8.22363575 9.15096111,8.18441932 C9.15371111,8.1772946 9.15652222,8.17010898 9.15927222,8.16304515 C9.17503889,8.12248903 9.19068333,8.08284634 9.20614444,8.04393439 C9.20822222,8.03875831 9.2103,8.03339954 9.21237778,8.02828436 C9.22851111,7.98766735 9.2444,7.94814644 9.26004444,7.90953897 C9.26138889,7.90625064 9.26273333,7.90284051 9.26407778,7.89955218 C9.28088333,7.85796084 9.29750556,7.81746562 9.31363889,7.77837099 L9.31363889,7.77831009 C9.37957778,7.61833874 9.43946667,7.47894992 9.48951667,7.36489346 C9.4897,7.36446719 9.48988333,7.36410182 9.49006667,7.36367555 C9.50204444,7.33627277 9.51347222,7.31051416 9.52435,7.28615613 C9.52630556,7.28171079 9.52807778,7.2778135 9.53003333,7.27348995 C9.53712222,7.25753545 9.54390556,7.24243347 9.55038333,7.22787955 C9.63606111,7.21764917 9.72186111,7.2086976 9.80753889,7.19925886 C9.87659444,7.19170787 9.94577222,7.18342614 10.0148278,7.17648411 C10.1093056,7.16698448 10.2037222,7.15900722 10.2980778,7.15054281 C10.3637722,7.14469688 10.42965,7.13799842 10.4952222,7.13270055 C10.5980111,7.12435793 10.7004333,7.11772036 10.8029167,7.11071743 C10.8598111,7.10682015 10.91695,7.10207033 10.9737833,7.09859931 C11.1327333,7.0888561 11.2912556,7.08069616 11.4489833,7.07418039 C11.6409944,7.06644671 11.8351444,7.06078347 12.0263,7.05761693 Z M10.0069444,1.89572445 L10.2781556,1.89523729 C10.3783778,1.89505461 10.4757889,1.86217127 10.5556,1.80158067 C11.3410611,1.20474808 12.3354,0.91458307 13.5952056,0.91458307 C14.8093,0.91458307 16.1337611,1.17697993 17.4145889,1.43085148 C18.71375,1.68825495 19.9408,1.93134807 21.09085,1.93134807 C21.2820056,1.93134807 21.4674778,1.92434514 21.6456778,1.91033927 C21.9547167,2.99128767 22.2586833,5.78076908 21.4102167,9.21488571 L20.92475,8.06993659 C20.9238944,8.06786615 20.92255,8.0661002 20.9216333,8.06402976 C20.9133833,8.04521319 20.9036667,8.02700556 20.8927889,8.00934599 C20.8913833,8.00703198 20.8904667,8.00441349 20.889,8.00209948 C20.8869833,7.99893293 20.8842944,7.99625355 20.8821556,7.9931479 C20.8776333,7.98644944 20.8737222,7.97944651 20.8688944,7.97293074 C20.8688333,7.97286984 20.8687722,7.97280895 20.8687111,7.97274805 C20.8687111,7.97268716 20.86865,7.97268716 20.8685889,7.97262626 C20.8617444,7.9635529 20.8541056,7.95514938 20.84665,7.94662407 C20.8452444,7.9450408 20.8442056,7.94315305 20.8428,7.94163067 C20.8421889,7.94096083 20.8414556,7.94041277 20.8408444,7.93974293 C20.8253222,7.9228141 20.8085167,7.90722496 20.7907944,7.89291462 C20.7874944,7.89023523 20.7840722,7.88779943 20.78065,7.88524184 C20.7638444,7.87245387 20.7462444,7.86064023 20.7279111,7.85028807 C20.7262611,7.84937464 20.7248556,7.84803495 20.7231444,7.84718242 C20.71245,7.8412756 20.68055,7.82410319 20.62885,7.79785741 C20.0847167,7.52175916 17.29915,6.22548578 12.85075,6.14419086 C12.84305,6.14406907 12.8352889,6.14388639 12.8275889,6.1437037 C12.6982778,6.14145059 12.5676222,6.14029358 12.4355,6.14017179 C12.4265167,6.14017179 12.4175333,6.13992821 12.4084889,6.13992821 C12.3951056,6.13992821 12.3812944,6.14023268 12.36785,6.14023268 C12.2640222,6.14041537 12.1595222,6.14114611 12.0540444,6.14272938 C12.0459167,6.14285117 12.0379722,6.14279028 12.0298444,6.14291207 L12.0264833,6.14291207 C12.0212889,6.14297296 12.0162167,6.14309475 12.0110833,6.14315565 L12.0110833,6.14315565 C11.8124111,6.14644398 11.6106222,6.15222901 11.4113389,6.16044985 C10.67605,6.19077559 9.92566667,6.25520258 9.18096667,6.35214753 C9.04646111,6.36962442 8.92766111,6.44537788 8.855,6.55730303 C8.84461111,6.57325753 8.8352,6.59000368 8.82676667,6.60741967 C8.82676667,6.60741967 8.82560556,6.60985547 8.82328333,6.61466618 C8.81637778,6.62903742 8.79951111,6.66466104 8.77427222,6.71916212 C8.76706111,6.73481216 8.75936111,6.7516192 8.75141667,6.76897429 C8.43205,7.46311721 8.05407778,8.34792259 7.76563333,9.31718943 C7.51465,8.01360865 7.25089444,6.39629646 7.24893889,5.34585648 C7.2457,3.63117308 8.09722222,1.89925637 10.0069444,1.89572445 Z" id="Shape" fill="#000000"></path>
                    </g>
                </g>
                <g id="Group-2" transform="translate(1185.000000, 340.000000)">
                    <circle id="Oval-4-Copy" fill="#FFFFFF" cx="29.5" cy="29.5" r="29.5"></circle>
                    <g id="boss-copy" transform="translate(13.766667, 11.800000)" fill-rule="nonzero">
                        <polygon id="Shape" fill="#BA966C" points="20.4591678 23.5001729 20.4591678 19.8374673 11.0073678 19.8374673 11.0073678 23.5001729 15.7332678 27.6861222"></polygon>
                        <path d="M11.0073678,19.8374673 L11.0073678,23.7018928 C16.96073,25.8392224 20.4592333,20.4899214 20.4592333,20.4899214 L20.4592333,19.8373366 L11.0073678,19.8374673 L11.0073678,19.8374673 Z" id="Shape" fill="#946A3F"></path>
                        <path d="M30.9605778,30.228786 C30.9567756,28.2126974 29.6773278,26.0628911 27.4755789,25.4527014 L23.0729989,24.5437207 L21.8227233,22.6623298 C21.6430356,22.4244859 21.30077,22.3837891 21.0699489,22.5727056 L15.7262533,27.1737877 L15.7262533,27.1737877 L15.7262533,27.1737877 L10.3651856,22.5926947 C10.1336433,22.4046274 9.79150889,22.4466959 9.61273889,22.6851932 L8.36960889,24.571222 L3.97050333,25.4967297 C1.77104889,26.1152154 0.499795556,28.2697904 0.503532222,30.285879 L0.505957778,31.5837323 C0.5074,32.3428602 1.21389222,32.9569693 2.08394556,32.9552709 L14.1617044,32.9326688 L17.3124356,32.9267897 L29.3901944,32.9041877 C30.2602478,32.9025546 30.96438,32.2858325 30.9629378,31.5267046 L30.9605778,30.228786 Z" id="Shape" fill="#EFF2FA"></path>
                        <g id="Group" transform="translate(0.458889, 26.586788)">
                            <path d="M3.87754556,2.69330041 L1.07288222,0.61110418 C0.40297,1.5107436 0.0426111111,2.62457977 0.0445777778,3.69909101 L0.0470033333,4.99694434 C0.0484455556,5.75607225 0.754937778,6.37018133 1.62499111,6.36848291 L4.87825111,6.3624078 L4.87825111,4.89111977 C4.87831667,4.05262344 4.51448333,3.253648 3.87754556,2.69330041 Z" id="Shape" fill="#E4EAF6"></path>
                            <path d="M30.5041144,4.93985133 L30.5016889,3.64199801 C30.4992633,2.3543352 29.9757367,1.01284557 29.0246567,0.0520630713 L26.3935189,2.69330041 C25.7565811,3.253648 25.3927478,4.05262344 25.3927478,4.89111977 L25.3927478,6.3239974 L28.9314367,6.3173997 C29.8014244,6.3157666 30.5055567,5.69904457 30.5041144,4.93985133 Z" id="Shape" fill="#D7E1F4"></path>
                        </g>
                        <path d="M8.43988444,12.7082233 C8.52255,10.6164245 9.59471111,7.98661884 9.85968667,7.41301053 C9.89351333,7.33991319 9.91245889,7.30058826 9.91245889,7.30058826 C10.7307233,7.19411046 11.5145056,7.12950522 12.2615767,7.09873771 C12.4750256,7.08998432 12.6854589,7.08397453 12.8928767,7.08057769 C18.5963411,6.98631544 21.9932333,8.84784787 21.9932333,8.84784787 L23.0606089,11.3653619 C24.5708778,6.61913034 24.0382389,2.60837947 23.5547667,1.51917037 C19.8799189,2.04927303 14.4477889,-1.05831094 11.02474,1.54255629 L10.7338044,1.54307888 C8.55880222,1.54719428 7.27948556,3.43172068 7.28381222,5.73569123 C7.28800778,7.95977076 8.33001333,12.3742881 8.33001333,12.3742881 L8.43988444,13.1006234 C8.43975333,13.0261543 8.437,12.9151038 8.43988444,12.8390016 C8.44001556,12.8353435 8.43975333,12.7118815 8.43988444,12.7082233 Z" id="Shape" fill="#785550"></path>
                        <path d="M23.0050178,14.3507251 C23.0103278,14.3093751 23.0153756,14.2680251 23.0202267,14.2268711 C23.1473389,13.140471 23.2699933,11.7654702 22.8033689,10.7587651 C22.5128922,10.1321138 22.2628633,9.48370977 21.9931678,8.8476519 C21.9931678,8.8476519 18.5962756,6.9861848 12.8928111,7.08038172 C12.6853933,7.08377856 12.47496,7.08978835 12.2615111,7.09854174 C11.51444,7.12930925 10.7306578,7.19391449 9.91239333,7.30039229 C9.91239333,7.30039229 9.89344778,7.33971722 9.85962111,7.41287988 C7.89229889,11.6717306 7.58018889,16.9641345 11.1873178,20.4801882 C12.0144978,21.2864799 13.0193333,21.925608 14.1373833,22.2426897 C14.27623,22.2821453 14.4164533,22.3165056 14.5579878,22.34564 C14.5854556,22.3513232 14.6129233,22.3568757 14.6405222,22.3621016 C14.9941944,22.4295811 15.3554711,22.4649213 15.7225822,22.4642681 C19.9788422,22.4566252 22.5216767,18.1067131 23.0050178,14.3507251 Z" id="Shape" fill="#BA966C"></path>
                        <path d="M10.9340767,14.2850093 C10.8108322,8.431082 11.7873478,8.72549638 11.7873478,8.72549638 C14.1964489,8.17148521 18.1851767,8.56257882 22.2186789,9.38977414 C22.1442078,9.20863123 22.0694089,9.02761897 21.9931678,8.84771722 C21.9931678,8.84771722 18.5962756,6.98625012 12.8928111,7.08044704 C12.6853933,7.08384388 12.47496,7.08985367 12.2615111,7.09860706 C11.51444,7.12937457 10.7306578,7.19397981 9.91239333,7.30045761 C9.91239333,7.30045761 9.89344778,7.33978254 9.85962111,7.4129452 C7.89229889,11.6717959 7.58018889,16.9641998 11.1873178,20.4802535 C12.0144978,21.2865452 13.0193333,21.9256733 14.1373833,22.242755 C14.27623,22.2822106 14.4164533,22.3165709 14.5579878,22.3457053 C14.5854556,22.3513885 14.6129233,22.356941 14.6405222,22.3621669 C14.9932767,22.4295158 15.3536356,22.4647906 15.7198289,22.4642681 C14.3962622,22.0017102 11.0254611,18.6257107 10.9340767,14.2850093 Z" id="Shape" fill="#946A3F"></path>
                        <path d="M23.5547011,1.51903972 C19.8798533,2.04914239 14.4477233,-1.05844159 11.0246744,1.54242564 C11.0246744,1.54242564 8.29992333,4.70527355 9.91232778,7.30052294 C10.7305922,7.19404514 11.5143744,7.1294399 12.2614456,7.09867238 C12.2659689,7.09847641 12.2703611,7.09841109 12.2748189,7.09821512 C12.4836133,7.08978835 12.68972,7.08384388 12.8927456,7.08051237 C18.59621,6.98625012 21.9931022,8.84778254 21.9931022,8.84778254 L23.0604778,11.3652966 C24.5708122,6.6189997 24.0381078,2.60824882 23.5547011,1.51903972 Z" id="Shape" fill="#382626"></path>
                        <path d="M14.1538378,28.7465889 L15.7262533,27.173853 L10.3651856,22.59276 C10.1336433,22.4046927 9.79150889,22.4467613 9.61273889,22.6852585 L8.36960889,24.5712873 L12.5814878,30.3193248 L14.1538378,28.7465889 Z" id="Shape" fill="#E4EAF6"></path>
                        <path d="M18.8828844,30.3075011 L23.0729989,24.5436554 L21.8227233,22.6622645 C21.6430356,22.4244205 21.30077,22.3837238 21.0699489,22.5726402 L15.7262533,27.1737223 L17.3045689,28.7405791 L18.8828844,30.3075011 Z" id="SVGCleanerId_0" fill="#E4EAF6"></path>
                        <path d="M18.8828844,30.3075011 L23.0729989,24.5436554 L21.8227233,22.6622645 C21.6430356,22.4244205 21.30077,22.3837238 21.0699489,22.5726402 L15.7262533,27.1737223 L17.3045689,28.7405791 L18.8828844,30.3075011 Z" id="SVGCleanerId_0_1_" fill="#E4EAF6"></path>
                        <polyline id="Shape" fill="#5B5D6E" points="16.7102422 30.1715623 14.7410844 30.1061732 14.1617044 32.9326688 17.3124356 32.9267897 16.7102422 30.1715623"></polyline>
                        <path d="M14.1548211,29.2698325 C14.1559356,29.8454006 14.6293778,30.3154707 15.2070533,30.3144255 L16.2573189,30.3124658 C16.8349289,30.3113553 17.3066667,29.8395867 17.3055522,29.2639534 L17.3045689,28.7407097 L15.7262533,27.173853 L14.1538378,28.7465889 L14.1548211,29.2698325 Z" id="Shape" fill="#515262"></path>
                        <path d="M31.4529,30.2278714 C31.4508022,29.1082214 31.0940489,27.9747881 30.4483922,27.0362157 C29.7428833,26.010632 28.7605333,25.2996477 27.6075422,24.9800837 C27.5969222,24.9771441 27.5863022,24.9745965 27.5754856,24.9723755 L23.3716044,24.1043528 L22.8584356,23.3321601 L22.2332978,22.391432 C22.2278567,22.3832012 22.2220878,22.3751011 22.2161222,22.3671969 C22.0248967,22.1142631 21.7209811,21.9631692 21.4029056,21.9631692 C21.1683478,21.9631692 20.9391,22.0450199 20.7575767,22.1935009 C20.7543644,22.1961138 20.7512178,22.1987268 20.7481367,22.2014051 L18.9669267,23.7350773 L15.7251389,26.5264288 L12.921,24.1302863 L10.6858178,22.2202183 C10.6827367,22.21754 10.6795244,22.2149271 10.6763778,22.2123795 C10.5179956,22.0837569 10.3234922,22.005695 10.1211222,21.9881882 C10.0922122,21.9857059 10.0631056,21.9844647 10.0339333,21.9844647 C9.99401,21.9844647 9.95421778,21.9868164 9.91501556,21.9914544 C9.86663556,21.9972029 9.81923889,22.007524 9.77249778,22.0200662 C9.62945556,22.0582806 9.49546,22.1259561 9.38159,22.2204143 C9.37070778,22.229429 9.36107111,22.2398808 9.35051667,22.2494181 C9.33039111,22.2675128 9.31013444,22.2856075 9.29151667,22.3053352 C9.26575333,22.3327059 9.24117,22.3612524 9.21848778,22.391628 C9.21573444,22.3952861 9.21324333,22.3990749 9.21062111,22.4027984 C9.20754,22.407175 9.20432778,22.4114211 9.20137778,22.4158631 L8.06956111,24.1330299 L3.86895778,25.0167957 C3.85820667,25.019082 3.84752111,25.021695 3.83696667,25.0246345 C2.68515556,25.3485099 1.70549333,26.0632177 1.00385222,27.0914143 C0.361735556,28.0324037 0.00930888889,29.1672088 0.0114066667,30.2867935 L0.0138322222,31.5846468 C0.0157988889,32.6117983 0.942492222,33.4459833 2.08066778,33.4458526 L2.08499444,33.4458526 L14.16059,33.4232506 C14.16118,33.4232506 14.16177,33.4233159 14.16236,33.4233159 C14.1630811,33.4233159 14.1638022,33.4232506 14.1645233,33.4232506 L17.3098789,33.4173715 C17.3106,33.4173715 17.3113211,33.4174368 17.3120422,33.4174368 C17.3126978,33.4174368 17.3134189,33.4173715 17.3140744,33.4173715 L29.3912433,33.3947694 C29.9313556,33.3937896 30.4417711,33.2067022 30.8284833,32.8679983 C31.2336822,32.513094 31.4563089,32.0364263 31.4553256,31.5257901 L31.4529,30.2278714 Z M15.2049556,30.8048766 L15.2079056,30.8048766 L16.2581711,30.8029169 C16.29875,30.8028515 16.33887,30.8006959 16.3785967,30.7975603 L16.7108978,32.4373184 L14.7611444,32.4409766 L15.0872833,30.7999773 C15.1263544,30.8029822 15.1654911,30.8048766 15.2049556,30.8048766 Z M16.8132956,29.2648679 C16.8138856,29.5714979 16.5640533,29.8213614 16.2564011,29.8219493 L15.2061356,29.823909 C15.0602744,29.8223413 14.9182811,29.7662934 14.8122122,29.6609261 C14.7060122,29.5555588 14.6474056,29.4163538 14.6471433,29.268918 L14.6465533,28.9488314 L15.72763,27.8675264 L16.8127711,28.9447813 L16.8132956,29.2648679 Z M18.82218,29.554775 L17.6524067,28.3935137 C17.6523411,28.3934484 17.6522756,28.3933831 17.65221,28.3933177 L17.6358867,28.3771174 L16.4495278,27.1993946 L19.83816,24.2816416 L21.3846156,22.9500812 C21.3924822,22.9445287 21.41169,22.9424383 21.4236211,22.9517143 C21.4241456,22.9521062 21.4249322,22.9522369 21.4253911,22.9527595 L21.9498356,23.7419363 L22.47428,24.5311132 L20.64823,27.0428788 L18.82218,29.554775 Z M10.0433733,22.967588 C10.0467822,22.9685025 10.0497978,22.9697436 10.0519611,22.9713114 L15.00311,27.2020729 L12.6393078,29.5663373 L8.96839333,24.5564588 L10.0113822,22.9741203 C10.01997,22.9660202 10.0334744,22.9651057 10.0433733,22.967588 Z M2.08302778,32.4646891 L2.08047111,32.4646891 C1.48450556,32.4646891 0.999132222,32.0694148 0.998214444,31.5827524 L0.995788889,30.2848991 C0.992576667,28.5796212 2.05379,26.5539954 4.0887,25.9731361 L8.1597,25.1166758 L12.1837622,30.6085132 C12.2686567,30.7243323 12.4001611,30.7974297 12.5437278,30.8083387 C12.5563144,30.8093186 12.5688356,30.8097759 12.5813567,30.8097759 C12.6954233,30.8097759 12.8058844,30.770255 12.8937944,30.6982681 C12.9063811,30.6880123 12.9184433,30.6771032 12.9301122,30.6654103 L13.7683711,29.8269793 C13.8453333,30.0226894 13.9628744,30.2025258 14.1171922,30.3557101 C14.1322044,30.3706693 14.1477411,30.3851058 14.1632778,30.3993464 L13.7570956,32.4427403 L2.08302778,32.4646891 Z M30.1784344,32.1310151 C29.9710167,32.3126806 29.6907667,32.4130833 29.3893422,32.4136059 L17.7151433,32.435424 L17.3014222,30.3941858 C17.47285,30.2362329 17.6080911,30.0400655 17.6939033,29.8195323 L18.53544,30.6549585 C18.6281356,30.7469344 18.75315,30.7980176 18.8828844,30.7980176 C18.8959956,30.7980176 18.9091722,30.797495 18.9223489,30.7964498 C19.0659156,30.7850182 19.1971578,30.7114635 19.2815933,30.5952525 L23.28494,25.0883906 L27.3591522,25.9295652 C29.3962911,26.5027815 30.4651089,28.5244226 30.4683211,30.2297005 L30.4707467,31.5275538 C30.47114,31.7512878 30.3673656,31.9656152 30.1784344,32.1310151 Z" id="Shape" fill="#000000"></path>
                        <path d="M7.83880556,12.9709557 L7.83880556,12.9712823 L7.83887111,13.0258277 C7.8352,13.2097795 7.83559333,13.3924902 7.83992,13.574221 L7.83992,13.5838889 C7.84077222,13.8170296 7.85027778,14.0576172 7.86830556,14.2991193 L7.86830556,14.2992499 C7.87630333,14.4063809 7.88620222,14.5159943 7.89787111,14.6252157 C7.89787111,14.6252157 7.89787111,14.6252157 7.89787111,14.625281 C7.91904556,14.8245839 7.94671,15.0268917 7.97994667,15.2266519 C7.97994667,15.2268479 7.98001222,15.2269786 7.98007778,15.2271745 C7.99259889,15.3024929 8.00597222,15.3776806 8.02013222,15.4525417 L8.02013222,15.4526723 C8.02032889,15.4539135 8.02059111,15.4550893 8.02078778,15.4563304 C8.02118111,15.4584208 8.02164,15.4608378 8.02209889,15.4630588 C8.02229556,15.4643653 8.02249222,15.4652145 8.02275444,15.4665209 C8.02347556,15.4704404 8.02426222,15.4745558 8.02504889,15.4784099 C8.02531111,15.4799123 8.02557333,15.4811535 8.02590111,15.4826559 C8.02603222,15.4835705 8.02629444,15.4846156 8.02642556,15.4854648 C8.02642556,15.4856608 8.02649111,15.4858568 8.02655667,15.4861181 C8.22571444,16.5225455 8.57702667,17.5056688 9.04666667,18.3987105 C9.05879444,18.4218351 9.07092222,18.4449598 9.08324667,18.4680191 C9.10658444,18.5116554 9.13011889,18.5552917 9.15404667,18.5984707 C9.19574,18.6739197 9.23815444,18.7491074 9.28174889,18.8235112 C9.28332222,18.8261895 9.28489556,18.8287371 9.28646889,18.8313501 C9.33583222,18.9154218 9.38683444,18.998383 9.43862333,19.0809523 C9.44452333,19.0903589 9.45042333,19.0997002 9.45632333,19.1090415 C9.51388111,19.2001682 9.57242222,19.2905764 9.63299556,19.3798087 C10.4632567,20.6029969 11.5158822,21.5644327 12.6790344,22.1797829 C12.6818533,22.1812853 12.6847378,22.1827878 12.6875567,22.1842902 C12.85256,22.2713015 13.0196611,22.3514538 13.18886,22.4242899 C13.1943011,22.4266415 13.1996767,22.4290585 13.2051178,22.4314102 C13.2839156,22.4651173 13.3631722,22.49693 13.4428222,22.5275015 C13.4563922,22.5327274 13.4700278,22.537888 13.4835978,22.5430486 C13.5613467,22.5723136 13.6394233,22.6001416 13.7178278,22.6263364 C13.7305456,22.6305825 13.7433289,22.6345672 13.7561122,22.6387479 C13.8379256,22.6655307 13.9199356,22.6910723 14.0024044,22.7144582 C14.0025356,22.7144582 14.0026011,22.7145235 14.0027322,22.7145889 L14.0027978,22.7145889 C14.0783178,22.7360151 14.1544933,22.7561348 14.2304722,22.7747521 C14.2349956,22.7758626 14.2394533,22.7766465 14.2439111,22.777757 C14.3153667,22.7950678 14.3868222,22.8113987 14.4576222,22.8259006 C14.4576878,22.8259006 14.4577533,22.8259006 14.4578844,22.825966 C14.4580156,22.825966 14.4581467,22.8260313 14.4583433,22.8260313 L14.4584744,22.8260313 L14.4584744,22.8260313 C14.4777478,22.830016 14.4970867,22.8337395 14.51636,22.8375936 C14.5268489,22.839684 14.5374033,22.841905 14.5478922,22.8438647 C14.5478922,22.8438647 14.5479578,22.8438647 14.5480233,22.84393 C14.5490722,22.844126 14.5543822,22.8451712 14.5545133,22.8451712 C14.5549067,22.8452365 14.5552344,22.8453018 14.5556278,22.8453671 C14.5612656,22.8464123 14.5668378,22.8475228 14.5724756,22.8485027 C14.6241989,22.8581706 14.67625,22.8655522 14.72817,22.8739136 C14.7677656,22.8803154 14.80723,22.8876316 14.8468256,22.8932495 C14.9073989,22.9018069 14.9681033,22.9081433 15.0288078,22.914937 C15.0642733,22.9188564 15.0996078,22.9239517 15.1350733,22.9272832 C15.2049556,22.9338809 15.2748378,22.9380616 15.34472,22.9422423 C15.3710733,22.9438101 15.3973611,22.9464884 15.4237144,22.9477948 C15.51995,22.9523022 15.6160544,22.9546538 15.7118311,22.9546538 L15.7118967,22.9546538 L15.7122244,22.9546538 L15.7233689,22.9546538 L15.7233689,22.9546538 L15.7234344,22.9546538 C15.7595556,22.9545885 15.7956111,22.9541966 15.8316011,22.953478 C15.8334367,22.953478 15.8352722,22.9534127 15.8370422,22.9533474 C15.8500878,22.9530861 15.8631989,22.9523675 15.8762444,22.9519756 C15.8962389,22.9513877 15.9162989,22.9506691 15.9362933,22.9498852 C15.9821167,22.9481868 16.0278744,22.9460311 16.0736322,22.9433528 C16.0782211,22.9430915 16.08281,22.9427649 16.0873989,22.9424383 C17.7649656,22.839488 19.3900878,22.0471102 20.71785,20.6853702 C20.7236844,20.6794258 20.7293878,20.6733507 20.7352222,20.6674062 C20.7717367,20.6297797 20.8079889,20.5918919 20.8440444,20.5534162 C20.8623344,20.5338843 20.8805589,20.5140259 20.8987178,20.4943634 C20.9148444,20.4768567 20.9312333,20.4596765 20.9472289,20.4419737 C20.9567344,20.4314566 20.9660433,20.4206782 20.9755489,20.4100304 C20.9837433,20.4008851 20.9921344,20.392001 21.0003289,20.3827251 C21.0118011,20.3697909 21.0230111,20.3564649 21.0344833,20.3434655 C21.0590667,20.3154415 21.0835844,20.2874176 21.10784,20.2590671 C21.1221967,20.2423442 21.1365533,20.2254253 21.1508444,20.2085718 C21.1853922,20.1678097 21.2194811,20.1267211 21.2533733,20.0854364 C21.25475,20.0838033 21.2560611,20.0821049 21.2574378,20.0804718 C22.4550067,18.6145404 23.2391822,16.761696 23.4793122,14.8107353 C23.4917022,14.7094834 23.5027156,14.6084275 23.5118933,14.5102458 C23.5118933,14.5101151 23.5119589,14.5099845 23.5119589,14.5098538 C23.5155644,14.4710515 23.5190389,14.4322492 23.5222511,14.3933815 L23.5222511,14.3931202 C23.5285444,14.3161034 23.5337889,14.2390867 23.5383778,14.1622006 C23.5453922,14.0742094 23.5515544,13.9862836 23.5566022,13.8988803 C23.5822344,13.4538292 23.57994,13.0168783 23.5751544,12.6858173 C23.5744333,12.6353873 23.5769244,12.5238796 23.5795467,12.4059048 C23.5916744,11.8646971 23.5901011,11.5767498 23.5670911,11.3933858 C25.0815556,6.53780221 24.5057156,2.44925068 24.00474,1.32052068 C23.9153878,1.11925805 23.7025944,1.00200182 23.4839667,1.03342257 C23.22122,1.07131037 22.9320544,1.09051557 22.6245333,1.09051557 C21.4878,1.09051557 20.2176611,0.838822959 18.87292,0.572432489 C17.4523967,0.291148191 15.9832967,0 14.5839478,0 C13.0780711,0 11.8586067,0.344517739 10.8625556,1.05223582 L10.7329522,1.05249712 C8.40717222,1.05687381 6.78644222,2.9830768 6.79162111,5.73660576 C6.79568556,7.8813822 7.71162778,11.8888016 7.83788778,12.4312504 L7.83880556,12.9709557 Z M12.90094,7.57089816 C13.0475222,7.56848118 13.1924656,7.56756665 13.3359011,7.56776262 C13.3833633,7.56776262 13.4308256,7.56874247 13.4782878,7.56906909 C13.5806856,7.56978765 13.68328,7.57044089 13.7840389,7.57240061 C13.8029844,7.57272723 13.8219956,7.57351111 13.8409411,7.57390305 C14.8339111,7.59585185 15.7472967,7.67717999 16.5723789,7.79365233 C18.6742211,8.09061434 20.2048122,8.61333541 21.0371711,8.9524966 C21.2969678,9.05838648 21.4902911,9.14683491 21.6097989,9.20431986 L21.6608667,9.32471163 L22.5682867,11.4649154 L22.5701222,12.4537871 L22.57222,13.5616135 C22.5721544,13.7517711 22.5642222,13.9465667 22.5517667,14.1421462 C22.5471778,14.1962343 22.5426544,14.2503877 22.5372789,14.3041492 C22.32796,16.3913754 21.5204467,18.3190808 20.26355,19.7321 C19.0798789,21.0628765 17.5535489,21.863681 16.0327911,21.9630385 C16.0283989,21.9632998 16.0240722,21.9636264 16.01968,21.9638877 C15.98074,21.96637 15.9419311,21.9680031 15.9030567,21.9695056 C15.8852256,21.9701588 15.8673944,21.9708774 15.8494978,21.9713346 C15.8068211,21.9725758 15.76421,21.9734903 15.7216644,21.9735556 L15.7215989,21.9735556 L15.7122244,21.9735556 C15.6317222,21.9735556 15.5510233,21.9715959 15.4701278,21.9677418 C15.44561,21.966566 15.4209611,21.9640837 15.3963778,21.9625812 C15.3400656,21.9591191 15.2837533,21.9557876 15.2273756,21.950431 C15.1973511,21.9476221 15.1675233,21.9433107 15.1374989,21.9399792 C15.0864967,21.934296 15.0354944,21.9290048 14.9845578,21.9218192 C14.9517144,21.9171812 14.9190678,21.9110408 14.88629,21.9057495 C14.8350256,21.8975841 14.7837611,21.8898759 14.7326933,21.8801426 C14.7077822,21.875374 14.6828711,21.870344 14.6575667,21.8651181 C14.5298644,21.838858 14.4001956,21.8070453 14.2721656,21.7707252 C14.1825511,21.7453796 14.0934611,21.717421 14.0046333,21.6873067 C13.9920467,21.6830607 13.9797222,21.6780961 13.96707,21.6737847 C13.8929922,21.6479818 13.8191111,21.6210684 13.7456889,21.5920646 C13.7260878,21.5843564 13.7066833,21.5759297 13.6871478,21.5680255 C13.6193633,21.5403935 13.5516444,21.5119123 13.48445,21.4816021 C13.4670778,21.4738285 13.4498367,21.4656631 13.43253,21.4576936 C13.3606156,21.4244438 13.2889633,21.3898875 13.2178356,21.3535674 C13.20715,21.3481455 13.1963989,21.3426583 13.1856478,21.3371058 C12.1466578,20.7987724 11.1995111,19.9365635 10.4484411,18.8300436 C9.42662667,17.3245912 8.87320667,15.5196945 8.82443333,13.5619401 L8.82345,13.0320988 C8.82692444,12.8693772 8.83341444,12.7058064 8.84370667,12.541321 C8.84973778,12.4447724 8.85839111,12.3480279 8.86802778,12.2513487 C8.87150222,12.221365 8.87497667,12.1914467 8.87884444,12.1613978 C8.88218778,12.1353989 8.88559667,12.1092694 8.88920222,12.0832052 C8.89444667,12.0450561 8.90001889,12.0067763 8.90578778,11.9684313 C8.90959,11.9432163 8.91345778,11.9180013 8.91752222,11.892721 C8.92388111,11.8528735 8.93063333,11.8128953 8.93758222,11.7729171 C8.94171222,11.7490086 8.94584222,11.7250348 8.95016889,11.7009956 C8.95777333,11.6589271 8.96577111,11.6167932 8.97396556,11.5747247 C8.97822667,11.5527106 8.98242222,11.5306311 8.98688,11.5085517 C8.99592667,11.4635436 9.00536667,11.4184049 9.01506889,11.3733314 C9.01919889,11.3541262 9.02319778,11.3347904 9.02739333,11.3155199 C9.03821,11.2660044 9.04948556,11.216489 9.06102333,11.1669735 C9.06443222,11.1522104 9.06777556,11.1373165 9.07125,11.1225533 C9.08488556,11.0646111 9.09911111,11.0067342 9.11353333,10.9490533 C9.11510667,10.9428476 9.11654889,10.9365765 9.11812222,10.9303707 C9.20085333,10.6020533 9.29545,10.2778512 9.39470111,9.96782447 C9.39647111,9.96233728 9.39824111,9.9569154 9.40001111,9.9514282 C9.41784222,9.89577232 9.43593556,9.84050838 9.45402889,9.78576703 C9.45678222,9.77740559 9.45960111,9.76917479 9.46235444,9.76087867 C9.47953,9.70907689 9.49690222,9.6577977 9.51420889,9.60704111 C9.51755222,9.59730786 9.52083,9.58770526 9.52417333,9.57797202 C9.54095556,9.52910981 9.55780333,9.48070487 9.57465111,9.43288785 C9.57845333,9.42210942 9.58219,9.41152697 9.58599222,9.40074854 C9.60251222,9.35404202 9.61909778,9.30772744 9.63561778,9.26213143 C9.63935444,9.25167962 9.64315667,9.24135846 9.64689333,9.23090665 C9.66341333,9.18537596 9.67999889,9.14043318 9.69638778,9.09607832 C9.70005889,9.08621442 9.70373,9.07635053 9.70733556,9.06648664 C9.72379,9.02213177 9.74031,8.97849547 9.75663333,8.93551241 C9.76010778,8.9264324 9.76351667,8.91728707 9.76699111,8.90820706 C9.78364222,8.86457076 9.80016222,8.82171835 9.81648556,8.77964982 C9.81943556,8.77200693 9.82245111,8.76429872 9.82540111,8.75672116 C9.84231444,8.71321551 9.85909667,8.67068971 9.87568222,8.6289478 C9.87791111,8.62339528 9.88014,8.61764678 9.88236889,8.61215958 C9.89967556,8.56858861 9.91672,8.52619346 9.93350222,8.48477817 C9.93494444,8.48125068 9.93638667,8.47759255 9.93782889,8.47406506 C9.95585667,8.42944891 9.97368778,8.38600858 9.99099444,8.3440707 L9.99099444,8.34400537 C10.0617289,8.17239974 10.1259733,8.02287355 10.1796633,7.90052207 C10.17986,7.9000648 10.1800567,7.89967286 10.1802533,7.89921559 C10.1931022,7.86981988 10.2053611,7.84218791 10.21703,7.81605839 C10.2191278,7.81128976 10.2210289,7.80710903 10.2231267,7.80247104 C10.2307311,7.78535621 10.2380078,7.7691559 10.2449567,7.75354351 C10.3368656,7.74256911 10.4289056,7.73296652 10.5208144,7.72284133 C10.5948922,7.71474117 10.6691011,7.70585714 10.7431789,7.69841022 C10.8445278,7.68821971 10.9458111,7.67966229 11.0470289,7.67058228 C11.1175011,7.6643112 11.18817,7.65712558 11.2585111,7.65144241 C11.3687756,7.64249305 11.4786467,7.63537275 11.5885833,7.62786052 C11.6496156,7.62367979 11.71091,7.61858454 11.7718767,7.61486108 C11.9423867,7.60440927 12.1124378,7.59565588 12.2816367,7.58866623 C12.4876122,7.58037011 12.6958822,7.574295 12.90094,7.57089816 Z M10.7347222,2.03359532 L11.0256578,2.03307273 C11.1331689,2.03287676 11.2376644,1.99760191 11.32328,1.93260472 C12.1658656,1.29236613 13.23252,0.981098202 14.5839478,0.981098202 C15.88634,0.981098202 17.3071256,1.26257847 18.6811044,1.53491341 C20.07475,1.81103712 21.39104,2.07180975 22.62473,2.07180975 C22.8297878,2.07180975 23.0287489,2.06429751 23.2199089,2.04927303 C23.5514233,3.20883587 23.8774967,6.20118865 22.9673233,9.88505922 L22.44655,8.65684107 C22.4456322,8.65462006 22.44419,8.65272567 22.4432067,8.65050466 C22.4343567,8.6303196 22.4239333,8.61078778 22.4122644,8.59184388 C22.4107567,8.58936158 22.4097733,8.58655265 22.4082,8.58407035 C22.4060367,8.58067351 22.4031522,8.57779926 22.4008578,8.57446775 C22.3960067,8.56728213 22.3918111,8.55976989 22.3866322,8.55278025 C22.3865667,8.55271492 22.3865011,8.5526496 22.3864356,8.55258428 C22.3864356,8.55251895 22.38637,8.55251895 22.3863044,8.55245363 C22.3789622,8.54272038 22.3707678,8.5337057 22.36277,8.52456036 C22.3612622,8.52286194 22.3601478,8.52083691 22.35864,8.51920381 C22.3579844,8.51848525 22.3571978,8.51789734 22.3565422,8.51717877 C22.3398911,8.49901876 22.3218633,8.48229586 22.3028522,8.46694477 C22.2993122,8.46407052 22.2956411,8.46145757 22.29197,8.45871397 C22.2739422,8.44499597 22.2550622,8.43232315 22.2353956,8.42121811 C22.2336256,8.42023825 22.2321178,8.41880113 22.2302822,8.41788659 C22.21881,8.41155018 22.18459,8.39312887 22.12913,8.36497431 C21.5454233,8.06879619 18.55727,6.67824839 13.78535,6.59104111 C13.77709,6.59091046 13.7687644,6.59071449 13.7605044,6.59051852 C13.6217889,6.58810154 13.4816311,6.58686039 13.3399,6.58672974 C13.3302633,6.58672974 13.3206267,6.58646844 13.3109244,6.58646844 C13.2965678,6.58646844 13.2817522,6.58679506 13.26733,6.58679506 C13.1559511,6.58699103 13.0438511,6.58777492 12.9307022,6.58947334 C12.9219833,6.58960399 12.9134611,6.58953866 12.9047422,6.58966931 L12.9011367,6.58966931 C12.8955644,6.58973463 12.8901233,6.58986528 12.8846167,6.5899306 L12.8846167,6.5899306 C12.6714956,6.59345809 12.4550311,6.59966385 12.2412544,6.60848256 C11.45249,6.64101382 10.6475333,6.7101264 9.84867333,6.8141219 C9.70438556,6.83286983 9.57694556,6.91413264 9.499,7.03419779 C9.48785556,7.05131263 9.47776,7.06927667 9.46871333,7.08795928 C9.46871333,7.08795928 9.46746778,7.09057223 9.46497667,7.09573281 C9.45756889,7.11114923 9.43947556,7.14936366 9.41240111,7.20782846 C9.40466556,7.22461668 9.39640556,7.24264605 9.38788333,7.26126333 C9.04529,8.00588937 8.63982889,8.95504423 8.33040667,9.99480321 C8.06117,8.59641655 7.77823222,6.86148165 7.77613444,5.73464605 C7.77266,3.89525839 8.68611111,2.0373841 10.7347222,2.03359532 Z" id="Shape" fill="#000000"></path>
                    </g>
                </g>
                <g id="Group-4" transform="translate(126.000000, 226.000000)" stroke="#FFFFFF" stroke-width="5" stroke-linecap="square" opacity="0.634057971">
                    <path d="M0.5,1.5 L308.5,1.5" id="Line"></path>
                </g>
                <text id="Backend-application" font-family="GillSans, Gill Sans" font-size="24" font-weight="normal" fill="#FFFFFF">
                    <tspan x="11.6113281" y="316">Backend </tspan>
                    <tspan x="0.109375" y="344">application</tspan>
                </text>
                <g id="&lt;?php-$things-=-arra" transform="translate(4.000000, 188.000000)">
                    <mask id="mask-15" fill="white">
                        <use xlink:href="#path-14"></use>
                    </mask>
                    <g id="fgfgfg">
                        <use fill="black" fill-opacity="1" filter="url(#filter-16)" xlink:href="#path-14"></use>
                        <use fill="#FFF95E" fill-rule="evenodd" xlink:href="#path-14"></use>
                    </g>
                </g>
                <g id="server" transform="translate(25.000000, 211.000000)" fill-rule="nonzero">
                    <path d="M48,33.5055065 L48,46.0844156 C48,46.5898182 47.5916962,47 47.0886076,47 L0.911392405,47 C0.407088608,47 0,46.5898182 0,46.0844156 L0,33.5055065 C0,33.0001039 0.407088608,32.5899221 0.911392405,32.5899221 L3.56901266,32.5899221 L3.56901266,30.705039 L0.911392405,30.705039 C0.407088608,30.705039 0,30.2948571 0,29.7894545 L0,17.2105455 C0,16.7051429 0.407088608,16.294961 0.911392405,16.294961 L3.56901266,16.294961 L3.56901266,14.4100779 L0.911392405,14.4100779 C0.407088608,14.4100779 0,13.9998961 0,13.4944935 L0,0.915584416 C0,0.410181818 0.407088608,0 0.911392405,0 L47.0886076,0 C47.5916962,0 48,0.410181818 48,0.915584416 L48,13.4944935 C48,13.9998961 47.5916962,14.4100779 47.0886076,14.4100779 L44.4309873,14.4100779 L44.4309873,16.294961 L47.0886076,16.294961 C47.5916962,16.294961 48,16.7051429 48,17.2105455 L48,29.7894545 C48,30.2948571 47.5916962,30.705039 47.0886076,30.705039 L44.4309873,30.705039 L44.4309873,32.5899221 L47.0886076,32.5899221 C47.5916962,32.5899221 48,33.0001039 48,33.5055065 Z M46.1772152,45.1688312 L46.1772152,34.4210909 L41.4173165,34.4210909 L41.4173165,45.1688312 L46.1772152,45.1688312 Z M46.1772152,28.8738701 L46.1772152,18.1261299 L41.4173165,18.1261299 L41.4173165,28.8738701 L46.1772152,28.8738701 L46.1772152,28.8738701 Z M46.1772152,12.5789091 L46.1772152,1.83116883 L41.4173165,1.83116883 L41.4173165,12.5789091 L46.1772152,12.5789091 Z M42.6082025,32.5899221 L42.6082025,30.705039 L5.39179747,30.705039 L5.39179747,32.5899221 L42.6082025,32.5899221 Z M42.6082025,16.294961 L42.6082025,14.4100779 L5.39179747,14.4100779 L5.39179747,16.294961 L42.6082025,16.294961 Z M39.5945316,45.1688312 L39.5945316,34.4210909 L34.8540759,34.4210909 L34.8540759,45.1688312 L39.5945316,45.1688312 Z M39.5945316,28.8738701 L39.5945316,18.1261299 L34.8540759,18.1261299 L34.8540759,28.8738701 L39.5945316,28.8738701 L39.5945316,28.8738701 Z M39.5945316,12.5789091 L39.5945316,1.83116883 L34.8540759,1.83116883 L34.8540759,12.5789091 L39.5945316,12.5789091 Z M33.0312911,45.1688312 L33.0312911,34.4210909 L1.82278481,34.4210909 L1.82278481,45.1688312 L33.0312911,45.1688312 Z M33.0312911,28.8738701 L33.0312911,18.1261299 L1.82278481,18.1261299 L1.82278481,28.8738701 L33.0312911,28.8738701 L33.0312911,28.8738701 Z M33.0312911,12.5789091 L33.0312911,1.83116883 L1.82278481,1.83116883 L1.82278481,12.5789091 L33.0312911,12.5789091 Z" id="Shape" fill="#000000"></path>
                    <rect id="Rectangle-path" fill="#3DD0F2" x="41.4173165" y="34.4210909" width="4.75989873" height="10.7477403"></rect>
                    <rect id="Rectangle-path" fill="#3DD0F2" x="41.4173165" y="18.1261299" width="4.75989873" height="10.7477403"></rect>
                    <rect id="Rectangle-path" fill="#3DD0F2" x="41.4173165" y="1.83116883" width="4.75989873" height="10.7477403"></rect>
                    <path d="M33.0312911,34.4210909 L33.0312911,45.1688312 L1.82278481,45.1688312 L1.82278481,34.4210909 L33.0312911,34.4210909 Z M9.11392405,39.794961 C9.11392405,39.5544675 9.01670886,39.3176364 8.84658228,39.1479481 C8.6764557,38.977039 8.44192405,38.8793766 8.20253165,38.8793766 C7.96192405,38.8793766 7.72739241,38.977039 7.55726582,39.1479481 C7.38835443,39.3188571 7.29113924,39.5544675 7.29113924,39.794961 C7.29113924,40.0354545 7.38835443,40.2722857 7.55726582,40.441974 C7.72739241,40.6128831 7.96192405,40.7105455 8.20253165,40.7105455 C8.44192405,40.7105455 8.6764557,40.6128831 8.84658228,40.441974 C9.01670886,40.2722857 9.11392405,40.0366753 9.11392405,39.794961 Z M6.19746835,39.794961 C6.19746835,39.5544675 6.10025316,39.3188571 5.93012658,39.1479481 C5.76,38.977039 5.52546835,38.8793766 5.28607595,38.8793766 C5.04546835,38.8793766 4.81093671,38.977039 4.64081013,39.1479481 C4.47189873,39.3176364 4.37468354,39.5544675 4.37468354,39.794961 C4.37468354,40.0366753 4.47189873,40.2722857 4.64081013,40.441974 C4.81093671,40.6128831 5.04546835,40.7105455 5.28607595,40.7105455 C5.52546835,40.7105455 5.76,40.6128831 5.93012658,40.441974 C6.10025316,40.2722857 6.19746835,40.0354545 6.19746835,39.794961 Z" id="Shape" fill="#3DD0F2"></path>
                    <path d="M33.0312911,18.1261299 L33.0312911,28.8738701 L1.82278481,28.8738701 L1.82278481,18.1261299 L33.0312911,18.1261299 L33.0312911,18.1261299 Z M9.11392405,23.5 C9.11392405,23.2595065 9.01670886,23.0226753 8.84658228,22.852987 C8.6764557,22.6820779 8.44192405,22.5844156 8.20253165,22.5844156 C7.96192405,22.5844156 7.72739241,22.6820779 7.55726582,22.852987 C7.38835443,23.0226753 7.29113924,23.2595065 7.29113924,23.5 C7.29113924,23.7417143 7.38835443,23.9773247 7.55726582,24.147013 C7.72739241,24.3179221 7.96192405,24.4155844 8.20253165,24.4155844 C8.44192405,24.4155844 8.6764557,24.3179221 8.84658228,24.147013 C9.01670886,23.9773247 9.11392405,23.7417143 9.11392405,23.5 Z M6.19746835,23.5 C6.19746835,23.2595065 6.10025316,23.0226753 5.93012658,22.852987 C5.76,22.6820779 5.52546835,22.5844156 5.28607595,22.5844156 C5.04546835,22.5844156 4.81093671,22.6820779 4.64081013,22.852987 C4.47189873,23.0226753 4.37468354,23.2595065 4.37468354,23.5 C4.37468354,23.7404935 4.47189873,23.9773247 4.64081013,24.147013 C4.81093671,24.3179221 5.04546835,24.4155844 5.28607595,24.4155844 C5.52546835,24.4155844 5.76,24.3179221 5.93012658,24.147013 C6.10025316,23.9773247 6.19746835,23.7404935 6.19746835,23.5 Z" id="Shape" fill="#3DD0F2"></path>
                    <path d="M33.0312911,1.83116883 L33.0312911,12.5789091 L1.82278481,12.5789091 L1.82278481,1.83116883 L33.0312911,1.83116883 Z M9.11392405,7.20503896 C9.11392405,6.96454545 9.01670886,6.72771429 8.84658228,6.55802597 C8.6764557,6.38711688 8.44192405,6.28945455 8.20253165,6.28945455 C7.96192405,6.28945455 7.72739241,6.38711688 7.55726582,6.55802597 C7.38835443,6.72771429 7.29113924,6.96454545 7.29113924,7.20503896 C7.29113924,7.44553247 7.38835443,7.68236364 7.55726582,7.85205195 C7.72739241,8.02296104 7.96192405,8.12062338 8.20253165,8.12062338 C8.44192405,8.12062338 8.6764557,8.02296104 8.84658228,7.85205195 C9.01670886,7.68236364 9.11392405,7.44553247 9.11392405,7.20503896 Z M6.19746835,7.20503896 C6.19746835,6.96454545 6.10025316,6.72771429 5.93012658,6.55802597 C5.76,6.38711688 5.52546835,6.28945455 5.28607595,6.28945455 C5.04546835,6.28945455 4.81093671,6.38711688 4.64081013,6.55802597 C4.47189873,6.72771429 4.37468354,6.96454545 4.37468354,7.20503896 C4.37468354,7.44553247 4.47189873,7.68236364 4.64081013,7.85205195 C4.81093671,8.02296104 5.04546835,8.12062338 5.28607595,8.12062338 C5.52546835,8.12062338 5.76,8.02296104 5.93012658,7.85205195 C6.10025316,7.68236364 6.19746835,7.44553247 6.19746835,7.20503896 Z" id="Shape" fill="#3DD0F2"></path>
                    <path d="M8.84658228,6.55802597 C9.01670886,6.72771429 9.11392405,6.96454545 9.11392405,7.20503896 C9.11392405,7.44553247 9.01670886,7.68236364 8.84658228,7.85205195 C8.6764557,8.02296104 8.44192405,8.12062338 8.20253165,8.12062338 C7.96192405,8.12062338 7.72739241,8.02296104 7.55726582,7.85205195 C7.38835443,7.68236364 7.29113924,7.44553247 7.29113924,7.20503896 C7.29113924,6.96454545 7.38835443,6.72771429 7.55726582,6.55802597 C7.72739241,6.38711688 7.96192405,6.28945455 8.20253165,6.28945455 C8.44192405,6.28945455 8.6764557,6.38711688 8.84658228,6.55802597 Z" id="Shape" fill="#000000"></path>
                    <path d="M8.84658228,22.852987 C9.01670886,23.0226753 9.11392405,23.2595065 9.11392405,23.5 C9.11392405,23.7417143 9.01670886,23.9773247 8.84658228,24.147013 C8.6764557,24.3179221 8.44192405,24.4155844 8.20253165,24.4155844 C7.96192405,24.4155844 7.72739241,24.3179221 7.55726582,24.147013 C7.38835443,23.9773247 7.29113924,23.7417143 7.29113924,23.5 C7.29113924,23.2595065 7.38835443,23.0226753 7.55726582,22.852987 C7.72739241,22.6820779 7.96192405,22.5844156 8.20253165,22.5844156 C8.44192405,22.5844156 8.6764557,22.6820779 8.84658228,22.852987 Z" id="Shape" fill="#000000"></path>
                    <path d="M8.84658228,39.1479481 C9.01670886,39.3176364 9.11392405,39.5544675 9.11392405,39.794961 C9.11392405,40.0366753 9.01670886,40.2722857 8.84658228,40.441974 C8.6764557,40.6128831 8.44192405,40.7105455 8.20253165,40.7105455 C7.96192405,40.7105455 7.72739241,40.6128831 7.55726582,40.441974 C7.38835443,40.2722857 7.29113924,40.0354545 7.29113924,39.794961 C7.29113924,39.5544675 7.38835443,39.3188571 7.55726582,39.1479481 C7.72739241,38.977039 7.96192405,38.8793766 8.20253165,38.8793766 C8.44192405,38.8793766 8.6764557,38.977039 8.84658228,39.1479481 Z" id="Shape" fill="#000000"></path>
                    <path d="M5.93012658,6.55802597 C6.10025316,6.72771429 6.19746835,6.96454545 6.19746835,7.20503896 C6.19746835,7.44553247 6.10025316,7.68236364 5.93012658,7.85205195 C5.76,8.02296104 5.52546835,8.12062338 5.28607595,8.12062338 C5.04546835,8.12062338 4.81093671,8.02296104 4.64081013,7.85205195 C4.47189873,7.68236364 4.37468354,7.44553247 4.37468354,7.20503896 C4.37468354,6.96454545 4.47189873,6.72771429 4.64081013,6.55802597 C4.81093671,6.38711688 5.04546835,6.28945455 5.28607595,6.28945455 C5.52546835,6.28945455 5.76,6.38711688 5.93012658,6.55802597 Z" id="Shape" fill="#000000"></path>
                    <path d="M5.93012658,22.852987 C6.10025316,23.0226753 6.19746835,23.2595065 6.19746835,23.5 C6.19746835,23.7404935 6.10025316,23.9773247 5.93012658,24.147013 C5.76,24.3179221 5.52546835,24.4155844 5.28607595,24.4155844 C5.04546835,24.4155844 4.81093671,24.3179221 4.64081013,24.147013 C4.47189873,23.9773247 4.37468354,23.7404935 4.37468354,23.5 C4.37468354,23.2595065 4.47189873,23.0226753 4.64081013,22.852987 C4.81093671,22.6820779 5.04546835,22.5844156 5.28607595,22.5844156 C5.52546835,22.5844156 5.76,22.6820779 5.93012658,22.852987 Z" id="Shape" fill="#000000"></path>
                    <path d="M5.93012658,39.1479481 C6.10025316,39.3188571 6.19746835,39.5544675 6.19746835,39.794961 C6.19746835,40.0354545 6.10025316,40.2722857 5.93012658,40.441974 C5.76,40.6128831 5.52546835,40.7105455 5.28607595,40.7105455 C5.04546835,40.7105455 4.81093671,40.6128831 4.64081013,40.441974 C4.47189873,40.2722857 4.37468354,40.0366753 4.37468354,39.794961 C4.37468354,39.5544675 4.47189873,39.3176364 4.64081013,39.1479481 C4.81093671,38.977039 5.04546835,38.8793766 5.28607595,38.8793766 C5.52546835,38.8793766 5.76,38.977039 5.93012658,39.1479481 Z" id="Shape" fill="#000000"></path>
                </g>
            </g>
        </g>
    </g>
</svg>